<?xml version="1.0" encoding="UTF-8" standalone="no"?>
<!-- Created with Inkscape (http://www.inkscape.org/) -->

<svg
   version="1.1"
   id="svg1"
   width="294.58286"
   height="294.58286"
   viewBox="0 0 294.58286 294.58286"
   sodipodi:docname="deer-body.svg"
   inkscape:version="1.4 (86a8ad7, 2024-10-11)"
   xmlns:inkscape="http://www.inkscape.org/namespaces/inkscape"
   xmlns:sodipodi="http://sodipodi.sourceforge.net/DTD/sodipodi-0.dtd"
   xmlns="http://www.w3.org/2000/svg"
   xmlns:svg="http://www.w3.org/2000/svg">
  <defs
     id="defs1" />
  <sodipodi:namedview
     id="namedview1"
     pagecolor="#ffffff"
     bordercolor="#000000"
     borderopacity="0.25"
     inkscape:showpageshadow="2"
     inkscape:pageopacity="0.0"
     inkscape:pagecheckerboard="0"
     inkscape:deskcolor="#d1d1d1"
     inkscape:zoom="2.766624"
     inkscape:cx="147.47215"
     inkscape:cy="147.29143"
     inkscape:window-width="1920"
     inkscape:window-height="1017"
     inkscape:window-x="-8"
     inkscape:window-y="-8"
     inkscape:window-maximized="1"
     inkscape:current-layer="g1" />
  <g
     inkscape:groupmode="layer"
     inkscape:label="Image"
     id="g1">
    <path
       style="fill:#000000"
       d="m 157.71428,284.6895 c -0.37714,-0.12925 -1.00161,-0.29771 -1.38772,-0.37436 -1.2492,-0.24797 -2.55767,-1.36469 -4.04997,-3.45645 -2.17972,-3.05532 -3.44095,-4.37869 -4.17308,-4.37869 -0.34879,0 -2.24792,0.81077 -4.22027,1.8017 -2.97458,1.49448 -3.83087,1.80646 -5.02149,1.82954 -1.63853,0.0318 -2.38557,-0.45031 -2.63568,-1.70089 -0.12389,-0.61946 -0.34687,-0.82205 -1.06005,-0.96313 -1.69227,-0.33476 -2.33771,-0.72838 -3.609,-2.20091 -1.48405,-1.71898 -1.81988,-2.4783 -1.81988,-4.11488 0,-1.82583 -0.38912,-2.60572 -1.30013,-2.60572 -0.42082,0 -1.25151,0.26068 -1.84596,0.57929 l -1.08083,0.57929 -0.76078,-0.85146 c -0.85815,-0.96042 -0.9173,-1.17344 -1.23248,-4.4385 -0.13726,-1.42186 -0.12299,-2.64347 0.0362,-3.09601 0.18787,-0.53419 0.1489,-1.07281 -0.13655,-1.88764 -0.31863,-0.90952 -0.57411,-1.18498 -1.26299,-1.36175 -1.8624,-0.47792 -3.54454,-3.27394 -3.9592,-6.58091 -0.2052,-1.63647 -0.57033,-2.84295 -1.36304,-4.50386 -0.59552,-1.24774 -1.08277,-2.446 -1.08277,-2.6628 0,-0.75315 -0.77149,-1.09154 -2.07975,-0.91222 -1.29847,0.17797 -2.34411,-0.17219 -3.26544,-1.09352 -0.60369,-0.60368 -0.39334,-1.71047 0.83904,-4.41474 0.77284,-1.69589 0.99167,-2.59247 1.18988,-4.87512 0.19298,-2.22252 0.42791,-3.21406 1.14368,-4.82713 0.73042,-1.64606 0.90436,-2.39761 0.91956,-3.97316 0.0163,-1.68754 -0.0799,-2.08552 -0.73151,-3.02606 -0.41263,-0.59563 -1.00081,-2.06265 -1.30705,-3.26004 -0.52494,-2.05251 -0.53361,-2.31143 -0.15157,-4.52529 0.30951,-1.79348 0.35147,-3.12374 0.17761,-5.63114 -0.1252,-1.80562 -0.1522,-3.40637 -0.06,-3.55723 0.25901,-0.42383 0.83135,-2.67441 0.84488,-3.32228 0.007,-0.31869 -0.36097,-1.04888 -0.81695,-1.62266 -1.1034,-1.38845 -1.25039,-2.10621 -0.64219,-3.13581 0.52661,-0.89148 2.00769,-2.02439 3.0514,-2.3341 0.93974,-0.27886 1.39238,-1.46096 1.59692,-4.17047 0.19576,-2.59328 -0.17825,-6.30445 -0.87971,-8.72896 -0.21823,-0.75429 -0.50804,-2.5291 -0.64401,-3.94403 -0.20648,-2.14863 -0.35756,-2.69106 -0.91677,-3.29143 -0.9077,-0.9745 -1.251,-1.70124 -1.32538,-2.80566 -0.0762,-1.1311 1.0872,-3.77978 2.23376,-5.08565 0.45299,-0.51592 0.82125,-1.02631 0.81837,-1.13421 -0.003,-0.10789 -0.12332,-2.32345 -0.26765,-4.92346 -0.24003,-4.32396 -0.32012,-4.8154 -0.93867,-5.76 -1.44181,-2.20182 -1.70293,-6.78594 -0.5557,-9.75567 0.27737,-0.718 0.45042,-2.64092 0.55537,-6.17143 0.27736,-9.32977 0.63769,-11.77682 2.22516,-15.11111 0.82136,-1.72515 1.0066,-2.44248 1.07106,-4.14749 0.0429,-1.13386 0.12669,-2.24472 0.18628,-2.46857 0.54229,-2.03723 1.45714,-4.42187 2.00457,-5.2251 0.66066,-0.96937 0.66448,-1.01296 0.42739,-4.88391 -0.21888,-3.57363 -0.19502,-3.99198 0.28055,-4.91905 0.57067,-1.11245 0.51533,-2.667267 -0.19715,-5.538946 -0.20585,-0.829715 -0.48197,-2.414878 -0.61358,-3.522585 -0.23606,-1.986682 -0.22872,-2.024599 0.54084,-2.794161 0.42908,-0.429081 1.02499,-0.857859 1.32425,-0.952839 0.78101,-0.247885 0.92557,-1.222504 0.42922,-2.893897 -0.23783,-0.800846 -0.43241,-1.703284 -0.43241,-2.005417 0,-0.812241 -0.92962,-2.564113 -2.3483,-4.425387 -1.45018,-1.902592 -2.49291,-3.818934 -2.62454,-4.823397 -0.12626,-0.963478 0.68532,-2.100099 1.90055,-2.661728 0.55833,-0.258039 1.11328,-0.592589 1.23322,-0.743446 0.24062,-0.302654 0.0323,-5.200903 -0.385,-9.051429 -0.47239,-4.359117 -0.76424,-14.064015 -0.45193,-15.028122 0.73247,-2.261123 1.12309,-2.960678 1.55707,-2.788503 2.80734,1.113762 3.98423,-0.50045 2.14315,-2.939508 -1.3983,-1.852448 -3.16876,-4.955988 -3.25921,-5.713238 -0.0451,-0.377583 0.059,-1.056441 0.23134,-1.508572 0.17234,-0.452131 0.38253,-1.130628 0.46709,-1.507771 0.0846,-0.377143 0.4109,-1.102543 0.72518,-1.612001 l 0.57142,-0.926287 0.91126,0.994858 c 0.74873,0.817422 1.10034,0.99411 1.9714,0.990659 1.74987,-0.0069 1.87665,-0.209698 1.93513,-3.095 0.0591,-2.915131 0.21328,-3.718007 1.00923,-5.255137 0.30923,-0.59717 0.71287,-1.954884 0.89699,-3.017142 0.18411,-1.062258 0.46386,-2.425093 0.62166,-3.028521 0.1578,-0.603429 0.28986,-1.500156 0.29346,-1.992727 0.0101,-1.386893 1.50115,-3.73068 3.36298,-5.286385 2.26534,-1.8928766 2.93754,-2.2205052 3.70887,-1.8077009 0.69794,0.3735271 2.74244,2.7083469 4.88953,5.5838579 1.75684,2.352867 2.31998,2.584247 4.32775,1.778144 2.76573,-1.110421 3.01189,-1.086829 4.53318,0.434457 0.74569,0.745692 1.69081,2.019934 2.10027,2.83165 0.40946,0.811716 0.88257,1.566528 1.05136,1.677361 0.56661,0.372061 1.73566,0.214491 2.42364,-0.326671 0.68488,-0.538729 4.88037,-2.480558 5.35946,-2.480558 0.47802,0 1.16379,1.000315 1.16379,1.697608 0,0.381927 -0.32413,1.172039 -0.72028,1.755804 -1.00265,1.477484 -1.09398,2.653141 -0.37093,4.77516 1.01655,2.983428 2.18823,8.800628 2.1883,10.864574 9e-5,2.760964 0.29012,3.940868 1.06771,4.343738 0.39336,0.2038 1.11522,0.753302 1.60413,1.221117 0.88336,0.84524 1.62667,1.010455 2.67678,0.594964 1.35907,-0.537734 2.17781,0.907988 1.91325,3.378385 -0.22793,2.128387 0.0946,2.501671 1.9779,2.289392 1.51771,-0.171068 2.3815,0.161254 2.7986,1.076696 0.40856,0.896677 0.38595,1.299722 -0.15899,2.834034 -0.40544,1.14152 -0.41877,1.491705 -0.10637,2.793926 0.31725,1.322454 0.29201,1.829372 -0.22587,4.53624 -0.32066,1.676077 -0.76651,3.567465 -0.99077,4.203086 -0.64905,1.839593 -0.53276,2.357103 0.82654,3.678186 1.29712,1.260664 1.42295,1.697885 1.26707,4.402804 -0.10616,1.842314 -0.88193,5.669222 -1.43223,7.065354 -0.65472,1.661047 -0.65546,2.58325 -0.003,4.238778 0.7416,1.882861 1.12288,4.871118 0.84998,6.661582 -0.44456,2.916653 -0.39247,3.133423 1.17511,4.89024 0.7948,0.890752 1.79104,2.255165 2.21386,3.03203 l 0.76877,1.412482 -0.56815,0.919289 c -0.31248,0.5056 -0.56815,1.16453 -0.56815,1.46428 0,0.32669 1.0733,1.60107 2.67943,3.18144 1.47368,1.45005 3.09823,3.35023 3.6101,4.22263 0.51188,0.8724 1.41852,2.357 2.01477,3.29912 0.59625,0.94211 1.37728,2.43878 1.73561,3.32592 0.61906,1.53265 0.63131,1.67957 0.24591,2.94992 -0.55147,1.81779 -0.52179,2.27312 0.29758,4.56494 1.5248,4.26493 1.68607,5.116 1.33736,7.05771 -0.1761,0.98057 -0.7085,2.58514 -1.18311,3.56571 -0.47461,0.98057 -0.86303,2.05404 -0.86314,2.38549 -1.2e-4,0.33145 -0.30879,1.18297 -0.68594,1.89228 -0.76047,1.43026 -0.89082,3.36469 -0.42032,6.23762 0.31647,1.93236 1.73836,5.11997 2.67342,5.99328 0.85704,0.80044 1.33071,1.71137 1.98792,3.82298 0.61462,1.9748 0.45973,2.62359 -0.98024,4.10602 -0.87224,0.89795 -0.97783,1.18297 -1.17957,3.18412 -0.24423,2.42264 -0.7702,3.57245 -1.94178,4.24485 -0.70656,0.40551 -0.78995,0.62305 -0.96825,2.5257 -0.32457,3.46365 -0.0161,4.8275 1.97011,8.7115 l 1.7743,3.46954 0.0831,3.42698 c 0.0777,3.20364 0.12961,3.48793 0.79657,4.36236 0.3924,0.51446 0.90283,1.38863 1.13429,1.94259 0.37988,0.90916 0.37851,1.12133 -0.014,2.17952 -0.81496,2.19717 -0.80659,2.25298 0.66914,4.45937 1.59719,2.388 2.8533,5.89411 2.84691,7.9464 -0.003,0.8518 0.28156,2.08045 0.76138,3.29142 0.42109,1.06275 0.90774,2.63264 1.08144,3.48866 0.29541,1.45582 0.27053,1.64575 -0.38503,2.93945 -0.80656,1.59166 -0.83324,1.95601 -0.25323,3.45844 1.64461,4.26016 1.64003,5.76003 -0.022,7.21933 -0.51287,0.45031 -1.14535,1.23036 -1.4055,1.73343 -0.26015,0.50307 -0.85417,1.27075 -1.32006,1.70595 -0.77516,0.72412 -0.85589,0.9661 -0.95107,2.85098 -0.15972,3.16294 0.39448,6.03698 1.38071,7.16024 0.71792,0.81766 0.7893,1.05368 0.62246,2.05825 -0.24972,1.50369 -0.81642,2.56502 -1.48246,2.77642 -0.67303,0.21361 -0.96229,1.57526 -0.75706,3.56372 0.10912,1.05734 0.40622,1.80945 1.0999,2.78444 0.86068,1.20973 2.11319,3.44826 2.11319,3.77678 0,0.0723 -0.50731,0.71754 -1.12735,1.43394 -1.03155,1.19186 -1.11404,1.39976 -0.97059,2.44631 0.12885,0.94002 0.0345,1.30947 -0.52954,2.07401 -0.60281,0.81705 -0.66441,1.10556 -0.50629,2.37112 0.17992,1.44002 0.17947,1.4411 -0.75339,1.83088 -0.83347,0.34824 -1.13728,0.33348 -2.83719,-0.1379 -3.35825,-0.93121 -3.69851,-0.70936 -3.69851,2.41144 0,1.81512 0.37931,3.67537 1.11351,5.46102 0.44555,1.08361 0.0281,2.22022 -1.3976,3.80536 -0.54274,0.60343 -1.30519,1.65272 -1.69435,2.33176 -0.38916,0.67904 -0.95677,1.46015 -1.26136,1.73581 -0.5196,0.47022 -0.59662,0.47313 -1.24686,0.0471 -1.27196,-0.83342 -1.84005,-0.47959 -2.97192,1.85106 -0.56779,1.16915 -1.18931,2.12451 -1.38116,2.12304 -0.19186,-0.001 -0.97559,-0.29453 -1.74163,-0.65123 -1.06477,-0.49581 -1.70877,-1.07888 -2.73443,-2.47576 -0.79227,-1.07902 -1.61175,-1.89501 -2.0013,-1.99278 -0.4468,-0.11214 -1.3346,0.15162 -2.75128,0.8174 -1.15039,0.54063 -2.42954,1.05355 -2.84257,1.13982 -0.51848,0.1083 -0.91987,0.48798 -1.29664,1.22652 -0.66661,1.30665 -1.69344,2.06694 -3.74474,2.77269 -0.85916,0.29559 -1.57365,0.52431 -1.58775,0.50827 -0.0141,-0.0161 -0.3342,-0.13493 -0.71135,-0.26418 z"
       id="path1" />
  </g>
</svg>
