<?xml version="1.0" encoding="UTF-8" standalone="no"?>
<!-- Created with Inkscape (http://www.inkscape.org/) -->

<svg
   version="1.1"
   id="svg1"
   width="294.58286"
   height="294.58286"
   viewBox="0 0 294.58286 294.58286"
   sodipodi:docname="deer-internals.svg"
   inkscape:version="1.4 (86a8ad7, 2024-10-11)"
   xmlns:inkscape="http://www.inkscape.org/namespaces/inkscape"
   xmlns:sodipodi="http://sodipodi.sourceforge.net/DTD/sodipodi-0.dtd"
   xmlns="http://www.w3.org/2000/svg"
   xmlns:svg="http://www.w3.org/2000/svg">
  <defs
     id="defs1" />
  <sodipodi:namedview
     id="namedview1"
     pagecolor="#ffffff"
     bordercolor="#000000"
     borderopacity="0.25"
     inkscape:showpageshadow="2"
     inkscape:pageopacity="0.0"
     inkscape:pagecheckerboard="0"
     inkscape:deskcolor="#d1d1d1"
     inkscape:zoom="2.766624"
     inkscape:cx="147.47215"
     inkscape:cy="147.29143"
     inkscape:window-width="1920"
     inkscape:window-height="1017"
     inkscape:window-x="-8"
     inkscape:window-y="-8"
     inkscape:window-maximized="1"
     inkscape:current-layer="g1" />
  <g
     inkscape:groupmode="layer"
     inkscape:label="Image"
     id="g1">
    <path
       style="fill:#000000"
       d="m 156.13078,266.81143 c -0.15359,-0.18857 -0.53964,-1.26857 -0.8579,-2.4 -0.31826,-1.13143 -0.71691,-2.47902 -0.88589,-2.99464 -0.41313,-1.26058 -0.55149,-7.66611 -0.18056,-8.35919 0.15885,-0.29682 0.26663,-1.54648 0.23951,-2.77702 -0.0375,-1.69943 0.0496,-2.31944 0.36207,-2.57877 0.46702,-0.3876 1.53473,-0.15144 1.53508,0.33953 0.001,1.51121 0.63021,6.4011 0.85906,6.67685 0.7434,0.89574 1.40835,9.72029 0.76253,10.11943 -0.164,0.10136 -0.23206,0.43717 -0.15123,0.74625 0.31007,1.18571 -0.96132,2.11323 -1.68267,1.22756 z m -3.84735,-124.512 c -0.18103,-0.18103 -0.33108,-0.45875 -0.33345,-0.61715 -0.002,-0.1584 -0.55779,-0.90432 -1.23428,-1.6576 -0.67649,-0.75328 -1.22999,-1.51434 -1.22999,-1.69124 0,-0.1769 -0.47577,-0.69845 -1.05728,-1.15902 -0.76275,-0.60411 -1.22438,-1.29566 -1.65712,-2.48247 -0.3299,-0.90481 -0.71813,-1.71821 -0.86271,-1.80757 -1.0015,-0.61896 0.91977,-4.33841 3.25675,-6.30484 0.43497,-0.36601 1.49873,-1.71842 2.36391,-3.00536 0.86517,-1.28694 1.60543,-2.3399 1.64501,-2.3399 0.0396,0 0.57215,0.70972 1.1835,1.57715 0.61135,0.86743 1.48015,1.92712 1.93066,2.35488 0.45052,0.42776 0.97362,1.32955 1.16245,2.00398 0.20249,0.72322 0.71632,1.57805 1.2526,2.08389 1.18741,1.12 1.38449,2.07131 0.7063,3.40931 -0.29294,0.57794 -0.61665,1.60622 -0.71936,2.28508 -0.27989,1.84997 -0.66699,2.65116 -1.6392,3.3927 -0.48372,0.36895 -1.18041,1.26853 -1.54821,1.99906 -0.3678,0.73053 -0.84214,1.54424 -1.05409,1.80824 -0.44204,0.55059 -1.67955,0.6368 -2.16549,0.15086 z"
       id="path1" />
  </g>
</svg>
