<?xml version="1.0" encoding="UTF-8" standalone="no"?>
<!-- Created with Inkscape (http://www.inkscape.org/) -->

<svg
   version="1.1"
   id="svg1"
   width="294.58286"
   height="294.58286"
   viewBox="0 0 294.58286 294.58286"
   sodipodi:docname="deer-tail.svg"
   inkscape:version="1.4 (86a8ad7, 2024-10-11)"
   xml:space="preserve"
   xmlns:inkscape="http://www.inkscape.org/namespaces/inkscape"
   xmlns:sodipodi="http://sodipodi.sourceforge.net/DTD/sodipodi-0.dtd"
   xmlns:xlink="http://www.w3.org/1999/xlink"
   xmlns="http://www.w3.org/2000/svg"
   xmlns:svg="http://www.w3.org/2000/svg"><defs
     id="defs1"><linearGradient
       id="linearGradient8"
       inkscape:collect="always"><stop
         style="stop-color:#000000;stop-opacity:1;"
         offset="0.50873363"
         id="stop8" /><stop
         style="stop-color:#000000;stop-opacity:0;"
         offset="0.95196509"
         id="stop9" /></linearGradient><linearGradient
       id="linearGradient6"
       inkscape:collect="always"><stop
         style="stop-color:#000000;stop-opacity:1;"
         offset="0.56986898"
         id="stop6" /><stop
         style="stop-color:#000000;stop-opacity:0;"
         offset="0.95196509"
         id="stop7" /></linearGradient><linearGradient
       inkscape:collect="always"
       xlink:href="#linearGradient6"
       id="linearGradient7"
       x1="120.44289"
       y1="41.466499"
       x2="172.22083"
       y2="70.167473"
       gradientUnits="userSpaceOnUse" /><linearGradient
       inkscape:collect="always"
       xlink:href="#linearGradient8"
       id="linearGradient9"
       x1="171.4343"
       y1="40.131226"
       x2="121.22944"
       y2="71.502708"
       gradientUnits="userSpaceOnUse" /></defs><sodipodi:namedview
     id="namedview1"
     pagecolor="#ffffff"
     bordercolor="#000000"
     borderopacity="0.25"
     inkscape:showpageshadow="2"
     inkscape:pageopacity="0.0"
     inkscape:pagecheckerboard="0"
     inkscape:deskcolor="#d1d1d1"
     inkscape:zoom="2.766624"
     inkscape:cx="147.47215"
     inkscape:cy="147.29143"
     inkscape:window-width="1920"
     inkscape:window-height="1017"
     inkscape:window-x="-8"
     inkscape:window-y="-8"
     inkscape:window-maximized="1"
     inkscape:current-layer="g1" /><g
     inkscape:groupmode="layer"
     inkscape:label="Image"
     id="g1"><path
       style="display:inline;fill:url(#linearGradient7)"
       d="m 143.50862,103.40439 c -4.2797,-0.60068 -11.16475,-2.86949 -13.77148,-4.538064 -0.82971,-0.531103 -2.37257,-1.393959 -3.42857,-1.917456 -2.44482,-1.211986 -4.18614,-2.499281 -5.42368,-4.009536 -1.6942,-2.067553 -1.57193,-2.84655 0.70455,-4.488901 0.92491,-0.667263 0.9494,-0.97095 0.32501,-4.029888 -0.42549,-2.084537 -0.67478,-2.646849 -1.94558,-4.388571 -2.10066,-2.879092 -2.87951,-4.208829 -3.13894,-5.359115 -0.19423,-0.861182 -0.12739,-1.147257 0.44265,-1.894626 0.36929,-0.484157 1.10216,-1.036039 1.62861,-1.226406 1.29841,-0.46951 1.35847,-0.982501 0.83064,-7.094685 -0.70556,-8.170204 -1.01255,-16.406989 -0.65376,-17.540573 0.79201,-2.502305 1.13528,-3.076329 1.72638,-2.886941 1.26947,0.406732 2.10227,0.449648 2.48949,0.128287 0.70794,-0.587536 0.47508,-1.78348 -0.6223,-3.196142 -1.46121,-1.881017 -2.98584,-4.486512 -3.14612,-5.376528 -0.14699,-0.81623 0.81568,-3.887167 1.58808,-5.066004 l 0.46935,-0.716314 0.73265,0.897682 c 0.58096,0.711824 0.98498,0.9228 1.95138,1.019002 1.87725,0.186875 2.03615,-0.04095 2.07712,-2.978093 0.0389,-2.792295 0.20915,-3.701184 0.96753,-5.166871 0.27716,-0.535659 0.63251,-1.70823 0.78967,-2.605715 0.15716,-0.897484 0.46647,-2.381801 0.68737,-3.298482 0.2209,-0.916682 0.37943,-1.965824 0.35229,-2.331429 -0.0829,-1.116251 1.60882,-3.700933 3.40405,-5.20099 1.94637,-1.6263495 3.03503,-2.2399706 3.59371,-2.0255864 0.45596,0.1749684 3.40509,3.6073144 5.23338,6.0908714 1.66145,2.256926 1.86223,2.295162 5.35438,1.019679 0.66986,-0.244659 1.49219,-0.375996 1.82742,-0.29186 0.80537,0.202137 2.73426,2.414653 3.60207,4.131722 0.38121,0.754286 0.83121,1.46211 1,1.572943 0.56661,0.372061 1.73566,0.214491 2.42364,-0.326671 0.7749,-0.60954 4.9083,-2.480558 5.47997,-2.480558 0.20704,0 0.58906,0.359952 0.84894,0.799894 0.52594,0.890343 0.35023,1.720987 -0.6268,2.96307 -0.77916,0.990547 -0.90425,2.205081 -0.40344,3.917036 1.60683,5.492682 2.2045,8.556768 2.47236,12.675103 0.1465,2.252382 0.2509,2.688321 0.67617,2.823296 0.27661,0.08779 1.018,0.659485 1.64754,1.270428 1.04719,1.016265 1.22988,1.094099 2.14656,0.914504 1.69054,-0.331213 1.77823,-0.300369 2.42265,0.852179 0.52262,0.934711 0.58118,1.272233 0.35659,2.055332 -0.60359,2.104576 -0.0335,2.872065 1.93909,2.610395 1.65777,-0.21991 2.09178,-0.03484 2.70042,1.151519 0.48502,0.945393 0.48363,1.017355 -0.0513,2.662601 -0.50088,1.540591 -0.51507,1.798766 -0.15955,2.903509 0.3537,1.099091 0.33385,1.50774 -0.21218,4.366848 -0.33132,1.734857 -0.79718,3.694376 -1.03524,4.354485 -0.66989,1.857514 -0.56403,2.403532 0.6906,3.562018 0.86985,0.80319 1.17848,1.331983 1.36729,2.342617 0.33877,1.813359 -0.27893,6.045909 -1.38175,9.467903 -0.59774,1.854761 -0.54494,3.199205 0.16874,4.296535 0.45248,0.695725 1.00916,4.863874 0.75997,5.690304 -0.44261,1.467893 -3.8829,4.12866 -7.99823,6.185939 -2.09559,1.047601 -3.24408,1.837014 -4.53517,3.117245 -2.43842,2.417909 -4.4877,3.369459 -8.12067,3.770679 -1.56473,0.17281 -3.1693,0.44001 -3.56572,0.59377 -0.99415,0.38561 -5.56672,0.52211 -7.65785,0.22861 z"
       id="path6" /><path
       style="display:inline;fill:url(#linearGradient9)"
       d="m 143.50862,103.40439 c -4.2797,-0.60068 -11.16475,-2.86949 -13.77148,-4.538064 -0.82971,-0.531103 -2.37257,-1.393959 -3.42857,-1.917456 -2.44482,-1.211986 -4.18614,-2.499281 -5.42368,-4.009536 -1.6942,-2.067553 -1.57193,-2.84655 0.70455,-4.488901 0.92491,-0.667263 0.9494,-0.97095 0.32501,-4.029888 -0.42549,-2.084537 -0.67478,-2.646849 -1.94558,-4.388571 -2.10066,-2.879092 -2.87951,-4.208829 -3.13894,-5.359115 -0.19423,-0.861182 -0.12739,-1.147257 0.44265,-1.894626 0.36929,-0.484157 1.10216,-1.036039 1.62861,-1.226406 1.29841,-0.46951 1.35847,-0.982501 0.83064,-7.094685 -0.70556,-8.170204 -1.01255,-16.406989 -0.65376,-17.540573 0.79201,-2.502305 1.13528,-3.076329 1.72638,-2.886941 1.26947,0.406732 2.10227,0.449648 2.48949,0.128287 0.70794,-0.587536 0.47508,-1.78348 -0.6223,-3.196142 -1.46121,-1.881017 -2.98584,-4.486512 -3.14612,-5.376528 -0.14699,-0.81623 0.81568,-3.887167 1.58808,-5.066004 l 0.46935,-0.716314 0.73265,0.897682 c 0.58096,0.711824 0.98498,0.9228 1.95138,1.019002 1.87725,0.186875 2.03615,-0.04095 2.07712,-2.978093 0.0389,-2.792295 0.20915,-3.701184 0.96753,-5.166871 0.27716,-0.535659 0.63251,-1.70823 0.78967,-2.605715 0.15716,-0.897484 0.46647,-2.381801 0.68737,-3.298482 0.2209,-0.916682 0.37943,-1.965824 0.35229,-2.331429 -0.0829,-1.116251 1.60882,-3.700933 3.40405,-5.20099 1.94637,-1.6263495 3.03503,-2.2399706 3.59371,-2.0255864 0.45596,0.1749684 3.40509,3.6073144 5.23338,6.0908714 1.66145,2.256926 1.86223,2.295162 5.35438,1.019679 0.66986,-0.244659 1.49219,-0.375996 1.82742,-0.29186 0.80537,0.202137 2.73426,2.414653 3.60207,4.131722 0.38121,0.754286 0.83121,1.46211 1,1.572943 0.56661,0.372061 1.73566,0.214491 2.42364,-0.326671 0.7749,-0.60954 4.9083,-2.480558 5.47997,-2.480558 0.20704,0 0.58906,0.359952 0.84894,0.799894 0.52594,0.890343 0.35023,1.720987 -0.6268,2.96307 -0.77916,0.990547 -0.90425,2.205081 -0.40344,3.917036 1.60683,5.492682 2.2045,8.556768 2.47236,12.675103 0.1465,2.252382 0.2509,2.688321 0.67617,2.823296 0.27661,0.08779 1.018,0.659485 1.64754,1.270428 1.04719,1.016265 1.22988,1.094099 2.14656,0.914504 1.69054,-0.331213 1.77823,-0.300369 2.42265,0.852179 0.52262,0.934711 0.58118,1.272233 0.35659,2.055332 -0.60359,2.104576 -0.0335,2.872065 1.93909,2.610395 1.65777,-0.21991 2.09178,-0.03484 2.70042,1.151519 0.48502,0.945393 0.48363,1.017355 -0.0513,2.662601 -0.50088,1.540591 -0.51507,1.798766 -0.15955,2.903509 0.3537,1.099091 0.33385,1.50774 -0.21218,4.366848 -0.33132,1.734857 -0.79718,3.694376 -1.03524,4.354485 -0.66989,1.857514 -0.56403,2.403532 0.6906,3.562018 0.86985,0.80319 1.17848,1.331983 1.36729,2.342617 0.33877,1.813359 -0.27893,6.045909 -1.38175,9.467903 -0.59774,1.854761 -0.54494,3.199205 0.16874,4.296535 0.45248,0.695725 1.00916,4.863874 0.75997,5.690304 -0.44261,1.467893 -3.8829,4.12866 -7.99823,6.185939 -2.09559,1.047601 -3.24408,1.837014 -4.53517,3.117245 -2.43842,2.417909 -4.4877,3.369459 -8.12067,3.770679 -1.56473,0.17281 -3.1693,0.44001 -3.56572,0.59377 -0.99415,0.38561 -5.56672,0.52211 -7.65785,0.22861 z"
       id="path5" /></g></svg>
