<?xml version="1.0" encoding="UTF-8" standalone="no"?>
<!-- Created with Inkscape (http://www.inkscape.org/) -->

<svg
   version="1.1"
   id="svg1"
   width="294.58286"
   height="294.58286"
   viewBox="0 0 294.58286 294.58286"
   sodipodi:docname="deer-outline.svg"
   inkscape:version="1.4 (86a8ad7, 2024-10-11)"
   xmlns:inkscape="http://www.inkscape.org/namespaces/inkscape"
   xmlns:sodipodi="http://sodipodi.sourceforge.net/DTD/sodipodi-0.dtd"
   xmlns="http://www.w3.org/2000/svg"
   xmlns:svg="http://www.w3.org/2000/svg">
  <defs
     id="defs1" />
  <sodipodi:namedview
     id="namedview1"
     pagecolor="#ffffff"
     bordercolor="#000000"
     borderopacity="0.25"
     inkscape:showpageshadow="2"
     inkscape:pageopacity="0.0"
     inkscape:pagecheckerboard="0"
     inkscape:deskcolor="#d1d1d1"
     inkscape:zoom="2.766624"
     inkscape:cx="147.47215"
     inkscape:cy="147.29143"
     inkscape:window-width="1920"
     inkscape:window-height="1017"
     inkscape:window-x="-8"
     inkscape:window-y="-8"
     inkscape:window-maximized="1"
     inkscape:current-layer="g1" />
  <g
     inkscape:groupmode="layer"
     inkscape:label="Image"
     id="g1">
    <path
       style="fill:#000000;fill-opacity:1"
       d="m 157.30286,285.53143 c -0.30172,-0.12965 -0.86384,-0.24441 -1.24916,-0.25501 -1.26601,-0.0348 -3.12702,-1.49397 -4.48285,-3.5148 -0.70453,-1.05009 -2.21082,-3.00747 -3.34731,-4.34972 -2.12395,-2.5085 -6.69211,-8.91588 -6.69211,-9.38646 0,-0.14514 -0.15862,-0.32476 -0.35249,-0.39915 -0.19386,-0.0744 -0.71844,-0.67346 -1.16571,-1.33126 -0.44728,-0.6578 -1.2039,-1.71672 -1.68137,-2.35316 -1.36829,-1.82381 -3.32772,-6.16987 -4.09205,-9.07623 -1.88144,-7.15414 -2.25116,-10.33993 -1.2,-10.33993 0.27272,0 0.42181,0.34948 0.46806,1.09715 0.13667,2.20926 1.27692,7.30869 2.39731,10.72126 0.74692,2.275 2.56766,5.99228 3.49361,7.13263 0.35617,0.43864 0.88915,1.15431 1.1844,1.59037 0.68997,1.01905 1.03899,1.50591 4.58058,6.38961 1.62065,2.2348 3.71894,5.00029 4.66286,6.14555 0.94392,1.14525 2.28006,2.87325 2.9692,3.84 1.37758,1.93252 2.30139,2.51617 4.64417,2.93411 1.31414,0.23444 1.73835,0.18623 3.29143,-0.37407 2.10399,-0.75904 2.68013,-1.38891 3.7158,-4.06231 1.2321,-3.18043 3.70308,-8.49219 4.22527,-9.08287 0.26673,-0.30171 1.60477,-2.21486 2.97343,-4.25143 3.07606,-4.57718 5.76496,-9.91941 6.9028,-13.71428 1.04759,-3.49384 2.39742,-10.97725 2.62217,-14.53715 0.0905,-1.43314 0.36906,-3.90171 0.61908,-5.48571 0.29825,-1.88957 0.44471,-4.38923 0.42589,-7.26857 -0.0377,-5.76531 -0.36227,-8.58413 -1.87995,-16.32627 -0.22247,-1.13487 -0.40449,-2.59421 -0.40449,-3.24297 0,-0.97521 0.0831,-1.16379 0.48,-1.08853 0.30985,0.0588 0.50373,0.38187 0.54695,0.91154 0.0368,0.45128 0.24934,1.74623 0.47227,2.87766 2.00774,10.18971 2.51226,17.98539 1.52889,23.62418 -0.25614,1.4688 -0.39284,2.80318 -0.71285,6.95867 -0.36015,4.67669 -2.02984,12.6746 -3.4934,16.73359 -0.88712,2.46031 -3.59102,7.3915 -6.09917,11.12326 -1.46397,2.17816 -2.87753,4.20715 -3.14125,4.50887 -0.48532,0.55524 -2.78973,5.44609 -3.45702,7.33714 -0.3147,0.89185 -0.30842,1.02857 0.0472,1.02857 0.61298,0 2.37296,-0.95857 2.96799,-1.61653 0.80654,-0.89182 1.97346,-0.76273 2.51156,0.27783 0.96578,1.86762 2.44239,3.6145 3.39421,4.01548 2.35941,0.99397 2.37343,0.99107 3.15143,-0.6521 0.3883,-0.82011 0.706,-1.70712 0.706,-1.97114 0,-0.55947 0.73995,-1.69925 1.10316,-1.69925 0.13705,0 0.68248,0.38043 1.21205,0.84541 l 0.96287,0.84541 0.95899,-1.0468 c 0.52745,-0.57574 1.02979,-1.36912 1.11632,-1.76307 0.0865,-0.39394 0.52098,-0.98513 0.96545,-1.31374 0.94221,-0.6966 1.90974,-2.45041 1.90974,-3.46169 0,-0.3877 -0.31588,-1.4554 -0.70195,-2.37266 -0.59513,-1.41396 -0.69289,-2.02835 -0.64247,-4.03745 l 0.0595,-2.3697 -1.20896,-0.29733 c -0.8019,-0.19723 -1.24148,-0.46502 -1.30555,-0.79535 -0.0875,-0.45137 0.0515,-0.4806 1.48464,-0.31216 0.86968,0.10221 2.46528,0.49097 3.54578,0.86391 2.52132,0.87025 4.41746,0.91311 4.67374,0.10566 0.0999,-0.31483 0.10166,-0.99892 0.004,-1.52019 -0.14568,-0.77657 -0.0478,-1.10233 0.54216,-1.80339 0.63346,-0.75283 0.69852,-1.01144 0.54157,-2.15261 -0.17323,-1.25954 -0.14494,-1.32818 0.9797,-2.37724 1.0475,-0.97709 1.14111,-1.16985 0.98029,-2.01863 -0.0978,-0.51611 -0.91051,-2.03066 -1.80604,-3.36567 -1.54157,-2.2981 -1.62017,-2.49543 -1.47664,-3.70734 l 0.15161,-1.28005 -0.92205,0.004 c -0.62829,0.003 -0.92204,-0.12332 -0.92204,-0.39668 0,-0.37258 0.47741,-0.56399 2.39653,-0.96085 0.98211,-0.2031 1.50446,-1.05028 1.736,-2.81558 0.18081,-1.37858 0.15193,-1.46863 -0.73789,-2.30039 -0.61365,-0.57361 -0.94666,-1.15372 -0.9871,-1.71954 -0.0336,-0.46965 -0.13995,-2.10548 -0.23641,-3.63518 l -0.17537,-2.78128 -0.99788,-0.16057 c -0.54883,-0.0883 -1.28074,-0.35933 -1.62646,-0.60228 -0.79594,-0.55933 -2.04967,-2.52391 -1.83369,-2.87337 0.32939,-0.53295 0.86809,-0.23572 1.69245,0.93381 0.96028,1.36236 2.30681,1.82697 3.66475,1.26449 0.75291,-0.31186 1.32373,-1.09095 0.79932,-1.09095 -0.7047,0 -0.12201,-0.85787 1.12717,-1.65946 2.02268,-1.29795 2.27406,-1.79923 2.09392,-4.1754 -0.13765,-1.81566 -0.48604,-2.94375 -2.0242,-6.55437 -0.2358,-0.55351 -1.09329,-1.72608 -1.90554,-2.60572 -1.57682,-1.70764 -1.69536,-1.9442 -1.09046,-2.17632 0.50991,-0.19568 1.58297,0.75883 3.0654,2.72674 l 1.20618,1.60119 0.30892,-0.77833 c 0.39022,-0.98318 0.004,-3.52627 -0.88136,-5.81082 -0.61582,-1.58817 -0.65346,-1.62469 -1.68903,-1.63898 -0.69709,-0.01 -1.2409,0.16712 -1.59078,0.517 -0.66666,0.66666 -3.02774,0.74797 -3.54712,0.12215 -0.18691,-0.2252 -0.85002,-0.5466 -1.47359,-0.71421 -1.49367,-0.4015 -2.89775,-1.9047 -4.13027,-4.42187 -1.1257,-2.29902 -1.32417,-3.30299 -0.67964,-3.43812 0.30672,-0.0643 0.58505,0.30252 0.92796,1.22304 0.606,1.62674 2.11789,4.18609 2.88062,4.87636 0.51178,0.46315 0.61343,0.47309 0.98971,0.0968 0.37628,-0.37628 0.36403,-0.64204 -0.11922,-2.58738 -0.29622,-1.19241 -0.49698,-2.21124 -0.44614,-2.26406 0.31229,-0.32446 0.6804,0.53836 1.21301,2.84322 0.69888,3.02445 1.25424,3.77111 2.70931,3.64262 0.73228,-0.0647 0.99199,-0.25357 1.27333,-0.92619 0.30898,-0.73869 0.27275,-1.09944 -0.28814,-2.8685 -0.35286,-1.11295 -0.59318,-2.07194 -0.53404,-2.13109 0.30255,-0.30255 0.67136,0.41478 1.23996,2.41171 0.51589,1.81179 0.74182,2.23629 1.25936,2.36619 1.36471,0.34252 1.48242,-0.25988 0.65451,-3.34935 -0.62476,-2.33134 -1.78348,-4.72914 -2.95161,-6.10789 l -0.78275,-0.92389 -0.89057,0.46053 c -1.07058,0.55362 -2.04817,0.46821 -2.1736,-0.1899 -0.0638,-0.33457 0.0841,-0.48 0.48812,-0.48 0.82514,0 2.68196,-1.00226 3.01716,-1.62858 0.1559,-0.2913 0.28345,-1.14105 0.28345,-1.88832 0,-1.11603 -0.17973,-1.61998 -1.0064,-2.82173 -1.1507,-1.67283 -3.21076,-4.26231 -3.96688,-4.98634 -0.57195,-0.54767 -0.64605,-0.90293 -0.24061,-1.15351 0.36531,-0.22577 1.4509,0.61813 2.20331,1.71277 0.337,0.49028 0.7168,0.89143 0.84401,0.89143 0.1272,0 0.17212,-1.11473 0.0998,-2.47717 -0.12809,-2.41359 -0.17799,-2.56681 -1.94444,-5.97089 -1.6059,-3.09466 -1.82823,-3.71244 -1.9465,-5.40855 -0.0734,-1.05315 -0.0106,-2.58227 0.13964,-3.39805 0.24292,-1.31901 0.21345,-1.54677 -0.26617,-2.05714 -0.8342,-0.88769 -2.41979,-4.4915 -2.84711,-6.47106 -0.42443,-1.96619 -0.52802,-5.48572 -0.16146,-5.48572 0.1281,0 0.3089,1.15674 0.40177,2.57053 0.24137,3.67456 1.01747,5.82846 2.79306,7.75156 0.92728,1.00431 1.55301,1.47762 1.77339,1.34141 0.62909,-0.38879 1.10743,-2.0321 1.10743,-3.80447 0,-1.68629 0.046,-1.80603 1.11958,-2.91224 1.56472,-1.61234 1.77517,-2.36391 1.20812,-4.3145 -0.57267,-1.9699 -1.08484,-2.9834 -2.09196,-4.13955 -1.82221,-2.09189 -2.97207,-5.56757 -2.96844,-8.97274 0.002,-1.48666 0.1231,-2.07476 0.53842,-2.60571 0.72987,-0.93308 0.69541,-1.00413 -0.42367,-0.87349 -0.65461,0.0764 -1.13917,-0.0376 -1.48321,-0.34892 -1.25391,-1.13477 -2.30859,-5.34006 -2.658,-10.59816 -0.20924,-3.14877 0.0108,-4.70917 0.64661,-4.5851 0.36853,0.0719 0.45037,0.6142 0.50967,3.3771 0.10315,4.80523 1.15442,9.98785 2.20243,10.85762 0.60668,0.5035 1.54137,-0.0523 2.1733,-1.29232 0.29779,-0.58434 0.67994,-1.18587 0.84923,-1.33673 0.51922,-0.4627 0.94232,-2.09291 1.11403,-4.29237 0.14239,-1.82392 0.0649,-2.39739 -0.59309,-4.38857 -1.09097,-3.30151 -1.65195,-4.28312 -2.69739,-4.71993 -1.29704,-0.54194 -4.17044,-3.29961 -5.68449,-5.45555 -0.79627,-1.13383 -1.59477,-2.73687 -2.0509,-4.1173 -0.41083,-1.24331 -0.98164,-2.72342 -1.26846,-3.28914 -0.44342,-0.87457 -0.45907,-1.02857 -0.1045,-1.02857 0.22936,0 0.41743,0.0309 0.41795,0.0686 0.004,0.28203 1.71689,4.19763 1.88638,4.31187 0.11855,0.0799 0.63094,0.93047 1.13864,1.89016 1.05309,1.99063 4.13911,5.43428 5.55158,6.19495 1.43173,0.77104 1.84531,0.46502 1.84531,-1.36535 0,-1.76438 -0.90512,-3.96015 -2.20684,-5.35364 -0.44566,-0.47708 -0.8103,-1.01592 -0.8103,-1.19742 0,-0.70447 -2.03146,-3.67144 -3.64988,-5.33068 -2.15355,-2.20787 -4.13693,-3.69543 -5.53869,-4.15408 -1.40907,-0.46105 -2.33143,-1.06454 -2.33143,-1.52545 0,-0.659422 0.43663,-0.652419 1.78177,0.0286 0.73059,0.36987 1.59687,0.67249 1.92506,0.67249 0.64583,0 1.5046,-0.78004 1.5046,-1.366665 0,-0.762931 -1.97281,-3.845044 -3.10485,-4.850694 -1.48169,-1.316257 -1.60845,-1.665204 -1.15376,-3.176036 0.51059,-1.696566 0.14583,-6.224008 -0.64559,-8.013146 -0.7154,-1.617283 -0.72497,-2.232066 -0.061,-3.916674 0.78549,-1.992828 1.39944,-5.714897 1.39944,-8.484218 0,-2.098097 -0.0806,-2.546189 -0.53129,-2.954066 -0.29221,-0.264445 -0.67416,-0.392509 -0.84878,-0.284588 -0.55629,0.343803 -1.80013,3.473376 -2.45071,6.166089 -0.59823,2.476072 -0.93145,3.283489 -1.23132,2.983617 -0.25337,-0.253365 1.4917,-6.330089 2.30207,-8.016369 0.73058,-1.520227 0.77216,-1.746464 0.42009,-2.285455 -0.34024,-0.520869 -0.33558,-0.730261 0.036,-1.619644 0.54639,-1.3077 1.38471,-5.207682 1.6272,-7.570041 0.17877,-1.741518 0.16072,-1.826414 -0.35944,-1.690391 -0.90992,0.237952 -0.92584,-0.315139 -0.0616,-2.141917 1.58683,-3.354284 0.915,-5.147079 -1.77751,-4.743312 -0.6964,0.104431 -1.43639,0.360086 -1.64443,0.568122 -0.46525,0.465254 -1.24028,0.496264 -1.24028,0.04963 0,-0.180742 0.144,-1.324631 0.32001,-2.541976 0.51435,-3.557385 -0.10068,-4.539824 -2.23851,-3.575797 -0.95115,0.42891 -1.06575,0.603988 -1.40983,2.153771 -0.20599,0.9278 -0.36631,2.921195 -0.35625,4.429767 0.0101,1.508571 -0.0778,2.808949 -0.19527,2.88973 -0.11745,0.08078 0.0154,0.883065 0.29519,1.782857 0.67895,2.183393 0.86828,6.161698 0.29323,6.161698 -0.15831,0 -0.27429,-0.863852 -0.27429,-2.042984 0,-2.766729 -1.04769,-6.099958 -2.38131,-7.576111 -1.15326,-1.276523 -2.00091,-1.383614 -3.00489,-0.379635 -0.85186,0.851859 -1.23575,0.621645 -1.73094,-1.038013 -0.57624,-1.931309 -1.06378,-2.677542 -1.74933,-2.677542 -0.3431,0 -0.76987,0.146057 -0.94839,0.324571 -0.45757,0.45757 -0.75996,0.05188 -0.33921,-0.455086 0.19083,-0.229931 0.75684,-0.418057 1.25782,-0.418057 1.06096,0 1.53895,0.549821 2.19492,2.524789 0.47782,1.438554 0.58178,1.507858 1.36891,0.912506 0.72932,-0.551635 2.05472,-0.504958 2.77656,0.09778 0.32914,0.274827 0.91542,0.966802 1.30286,1.537722 0.56625,0.834415 0.70443,0.925594 0.70443,0.464819 0,-0.315269 -0.18692,-0.677821 -0.41537,-0.80567 -0.26501,-0.148305 -0.49542,-0.897386 -0.6365,-2.069283 -0.36693,-3.047823 -1.8529,-4.030678 -3.61099,-2.38838 -0.48448,0.452571 -0.92953,0.822857 -0.989,0.822857 -0.0595,0 -0.11245,-0.524571 -0.11771,-1.165714 -0.0149,-1.809936 -0.72504,-5.378744 -1.22096,-6.135628 -0.72273,-1.103012 -1.18138,-1.093886 -2.3495,0.04675 -1.29365,1.263216 -1.74507,1.075291 -0.63856,-0.265834 2.05158,-2.486597 3.69018,-1.252519 4.44863,3.350402 l 0.45567,2.765413 0.68572,-0.374562 c 0.37714,-0.206009 0.88344,-0.434514 1.12511,-0.507789 0.65689,-0.199175 0.81424,-2.407693 0.53078,-7.45018 -0.3046,-5.418821 -1.75321,-12.511061 -2.79837,-13.700571 -0.37885,-0.431176 -0.26862,-0.819777 0.60794,-2.143133 1.02427,-1.546369 1.35355,-2.617263 1.05386,-3.427397 -0.33026,-0.892794 -1.40171,-0.790279 -3.81849,0.365348 -2.13311,1.019986 -3.28369,1.888236 -3.28369,2.477939 0,0.392259 -0.96105,0.772868 -1.34787,0.533802 -0.1406,-0.0869 -0.34333,-0.55772 -0.45052,-1.046276 -0.49427,-2.252995 -3.37518,-5.962569 -4.63061,-5.962569 -0.8279,0 -3.20487,0.750209 -3.77892,1.192684 -0.44328,0.34168 -0.43927,0.445784 0.0686,1.782323 0.43499,1.144798 0.53558,2.069009 0.51984,4.776507 -0.0107,1.846382 -0.10681,4.316145 -0.21349,5.488363 -0.10669,1.172218 -0.10343,2.293093 0.007,2.490834 0.11066,0.19774 -0.12146,1.42951 -0.51583,2.737266 -0.56295,1.866812 -0.82553,2.377737 -1.22199,2.377737 -0.27774,0 -0.50498,-0.16533 -0.50498,-0.367401 0,-0.202071 -0.29253,-0.500688 -0.65007,-0.663594 -0.35754,-0.162906 -1.31411,-1.057498 -2.12572,-1.987983 -0.8116,-0.930484 -2.33964,-2.353838 -3.39564,-3.163009 -1.75698,-1.346301 -1.95143,-1.4316 -2.29019,-1.004615 -0.43272,0.545419 -0.25691,4.636759 0.34158,7.949188 0.19844,1.098279 0.25433,2.062674 0.1242,2.143099 -0.33051,0.204262 -0.42979,-0.177078 -0.90854,-3.489457 -1.08646,-7.517195 -0.10197,-9.190991 3.70229,-6.294461 0.97544,0.742686 2.49091,2.162114 3.36772,3.154286 0.8768,0.992171 1.76138,1.803947 1.96571,1.803947 0.68711,0 1.4604,-4.409438 1.65952,-9.462857 0.17133,-4.347994 0.14415,-4.767667 -0.40249,-6.215011 -0.32243,-0.853685 -0.77969,-1.712712 -1.01614,-1.90895 -0.23645,-0.196238 -0.92225,-1.081789 -1.52399,-1.967891 -1.41734,-2.087133 -4.17777,-5.2903106 -5.05364,-5.8642029 -0.62891,-0.412077 -0.7614,-0.4132556 -1.59819,-0.014217 -1.2682,0.6047634 -3.76444,2.8591934 -4.29355,3.8776424 -0.48802,0.939359 -1.47306,4.692647 -2.05014,7.81165 -0.20633,1.115176 -0.65618,2.534604 -0.99965,3.154286 -0.55021,0.992668 -0.6245,1.509154 -0.6245,4.341859 0,2.913787 -0.0547,3.269878 -0.58362,3.798857 -0.39251,0.392558 -0.9282,0.583693 -1.63592,0.583693 -0.86176,0 -1.21959,-0.182537 -1.97615,-1.008092 -0.51485,-0.561792 -1.08939,-0.944566 -1.29777,-0.864603 -0.45585,0.174927 -1.20294,2.537056 -1.41768,4.482363 -0.14672,1.329224 -0.0737,1.571382 1.03386,3.428572 0.65545,1.099082 1.59798,2.483405 2.0945,3.076273 0.52536,0.627295 0.90278,1.383537 0.90278,1.808918 0,1.414435 -1.66555,2.115815 -2.92671,1.232466 -0.73567,-0.515281 -1.04897,-0.185989 -1.44079,1.514329 -0.5216,2.263459 -0.27649,12.589579 0.40702,17.147582 0.16826,1.122027 0.21255,1.170179 0.85255,0.926852 1.02589,-0.39004 1.32161,-0.321634 2.15129,0.497625 1.11918,1.105114 2.70083,4.731429 2.06366,4.731429 -0.16576,0 -0.3689,-0.216 -0.45143,-0.48 -0.43983,-1.406968 -1.37391,-3.145711 -2.02505,-3.769544 -0.61386,-0.588111 -0.85434,-0.662801 -1.42971,-0.444044 -0.9723,0.369669 -1.09156,0.887619 -0.8771,3.809295 l 0.18875,2.571355 1.36854,1.497402 c 1.62493,1.777935 1.51211,2.337366 -0.14963,0.741907 -1.44266,-1.385127 -2.67751,-1.684067 -3.76317,-0.91101 -1.70752,1.215864 -1.21975,3.275832 1.68907,7.13321 1.83785,2.437181 2.00636,2.780244 2.60526,5.304141 0.82678,3.484239 0.8199,3.664256 -0.1481,3.876865 -0.43363,0.09524 -1.06702,0.46973 -1.40755,0.8322 -0.75122,0.799642 -0.78406,2.39737 -0.11115,5.408494 0.84136,3.764945 0.94108,5.187785 0.43781,6.246869 -0.35771,0.75277 -0.43954,1.61131 -0.37907,3.97715 0.12461,4.87558 0.77013,6.23112 3.65732,7.6801 3.34342,1.67795 3.82631,1.30703 3.15939,-2.42678 -0.55077,-3.08349 -0.57143,-4.30224 -0.0842,-4.96852 0.5717,-0.78184 1.06867,-0.26871 0.88042,0.90906 -0.0879,0.55023 -0.0356,1.67928 0.11638,2.50899 0.59809,3.26582 0.64469,4.34552 0.21581,5.00007 -0.34493,0.52642 -0.37563,1.21284 -0.18748,4.19186 0.41187,6.52134 0.33057,8.41435 -0.46473,10.82068 -0.80917,2.44827 -1.4868,3.23853 -3.08489,3.5976 -1.21572,0.27316 -2.07228,0.0518 -3.36686,-0.87 l -0.78704,-0.56042 v 0.5805 c 0,0.78725 -0.57927,1.92763 -3.34662,6.58828 -1.33274,2.24456 -2.56693,4.69408 -2.83308,5.62286 -0.25937,0.90514 -0.57002,1.89257 -0.69032,2.19429 -0.50092,1.25631 -0.5273,2.20124 -0.1303,4.66835 0.3462,2.15144 0.64699,3.01518 1.74134,5.00044 1.10949,2.01272 1.57245,2.56801 2.87041,3.44286 1.94545,1.31127 2.47857,1.13362 2.91592,-0.97167 0.63559,-3.05959 0.95705,-4.04856 1.31597,-4.04856 0.63063,0 0.64911,0.60433 0.0959,3.13574 -0.93218,4.26574 -1.94138,4.82784 -5.02496,2.79881 l -1.85143,-1.21827 0.007,1.96186 c 0.004,1.07903 0.12283,2.45558 0.26495,3.05901 0.24526,1.04135 0.21106,1.13898 -0.67247,1.92 -1.28347,1.13454 -2.11758,2.95486 -2.25862,4.92907 -0.1393,1.94981 0.46243,3.19074 1.76784,3.64581 l 0.80561,0.28083 -0.12752,-1.32708 c -0.10941,-1.13863 0.0106,-1.57831 0.84494,-3.09625 0.53485,-0.97304 1.01276,-2.12153 1.06202,-2.5522 0.065,-0.56832 0.23896,-0.78304 0.63438,-0.78304 0.91055,0 0.79987,0.89703 -0.41081,3.32947 -0.944,1.89667 -1.11916,2.48469 -0.97271,3.26538 0.3532,1.8827 2.05644,2.20041 4.15643,0.77531 0.93365,-0.63359 1.75656,-0.70761 1.75656,-0.15801 0,0.72724 -2.84098,2.25274 -4.1884,2.24902 -0.33638,-9.3e-4 -0.92017,-0.15687 -1.29731,-0.34654 -0.37714,-0.18967 -0.95035,-0.30547 -1.2738,-0.25733 -1.04746,0.15589 -1.00675,1.12392 0.28497,6.77699 0.24129,1.056 0.51765,3.03085 0.61413,4.38857 0.0965,1.35771 0.26772,2.592 0.38053,2.74285 0.11281,0.15086 0.28874,0.66568 0.39096,1.14405 0.26979,1.26258 1.30453,2.28759 2.11065,2.09079 1.04837,-0.25594 1.63575,-0.92508 2.59876,-2.96055 0.74482,-1.5743 0.91016,-1.77875 0.91823,-1.13554 0.005,0.43146 -0.37342,1.50356 -0.84186,2.38244 -0.92868,1.74239 -2.22932,2.63707 -3.40475,2.34206 -0.69109,-0.17345 -1.56616,-1.2412 -1.92977,-2.35467 -0.19352,-0.5926 -0.26359,-0.46756 -0.51599,0.92072 -0.28967,1.59326 -0.30306,1.61059 -1.63297,2.11365 -1.56403,0.59161 -2.56534,1.43746 -3.05653,2.582 -0.30303,0.70608 -0.27966,0.95495 0.173,1.84225 0.60963,1.19496 1.26046,1.61279 2.03015,1.30334 0.95595,-0.38433 1.35309,-0.32132 0.96,0.15232 -0.1878,0.22629 -0.48897,0.41143 -0.66927,0.41143 -0.1803,0 -0.612,0.86681 -0.95932,1.92625 -0.56243,1.71556 -0.61776,2.30807 -0.50589,5.41714 0.0741,2.0588 -0.008,4.28597 -0.20128,5.42897 -0.37046,2.19639 -0.12272,4.86712 0.6427,6.92862 0.47485,1.2789 1.83608,2.51616 2.76827,2.51616 1.22541,0 3.09627,-2.51543 6.99195,-9.40092 0.40749,-0.72022 0.85805,-1.23709 1.00125,-1.14859 0.28277,0.17477 -0.10779,0.91672 -3.25915,6.19142 -1.13664,1.90248 -2.39311,3.6785 -2.79217,3.9467 -0.39905,0.2682 -0.84135,0.7482 -0.98289,1.06666 -0.19387,0.43621 -0.46889,0.56288 -1.11509,0.51356 -0.81719,-0.0624 -0.86632,-0.008 -1.03889,1.14245 -0.0996,0.66435 -0.60489,2.23666 -1.1228,3.49403 -0.98077,2.38107 -1.16001,3.47668 -0.65188,3.9848 0.32991,0.32991 -0.47447,3.01323 -1.79247,5.9794 -0.40172,0.90409 -0.79984,2.15039 -0.88471,2.76956 -0.14661,1.06967 -0.10284,1.15758 0.87831,1.76396 l 1.03262,0.6382 2.22178,-0.46046 c 1.22199,-0.25325 2.69684,-0.45988 3.27746,-0.45918 1.17611,0.001 2.28591,-0.93292 2.91655,-2.45542 0.21175,-0.51122 0.54548,-0.83474 0.86106,-0.83474 0.73156,0 0.64093,0.61044 -0.32332,2.17753 -1.00806,1.63831 -2.43523,2.61805 -3.44462,2.36471 -0.38531,-0.0967 -0.94841,-0.0972 -1.25135,-0.001 -0.46672,0.14814 -0.52265,0.32477 -0.36645,1.15737 0.10138,0.54041 0.6683,1.94513 1.25982,3.12161 0.78316,1.55763 1.0755,2.48047 1.0755,3.39511 0,2.86085 1.60267,5.92177 3.33571,6.37085 1.66645,0.43182 1.9364,1.18135 2.03651,5.65452 0.0922,4.1184 0.4149,5.47358 1.39283,5.84885 0.23791,0.0913 1.26522,-0.28815 2.31439,-0.85483 1.03762,-0.56044 2.01144,-0.94182 2.16405,-0.8475 0.15628,0.0966 0.26623,1.21996 0.25174,2.57196 -0.0296,2.76282 0.291,3.69556 1.8761,5.45805 0.90974,1.01155 1.29529,1.22062 2.82398,1.53128 l 1.7704,0.35979 0.13714,1.07443 0.13715,1.07443 2.19428,-0.008 c 2.08392,-0.007 2.34434,-0.0808 5.17748,-1.46024 1.96191,-0.95521 3.07583,-1.3598 3.25381,-1.18182 0.45323,0.45322 -0.004,0.83078 -2.56703,2.1178 -5.21122,2.61723 -8.87196,2.66125 -9.43156,0.1134 -0.13852,-0.63069 -0.35624,-0.80549 -1.18126,-0.94839 -1.46068,-0.25301 -2.03882,-0.63943 -3.56004,-2.37949 -1.16989,-1.33818 -1.39657,-1.79208 -1.64376,-3.29142 -0.15771,-0.95656 -0.29061,-2.03085 -0.29533,-2.38733 -0.0126,-0.94647 -0.18096,-0.99211 -1.27627,-0.34586 -1.18148,0.69709 -2.25,0.74345 -3.11827,0.1353 -1.12981,-0.79136 -1.47589,-2.13386 -1.57264,-6.10057 -0.0492,-2.01732 -0.16459,-3.90456 -0.25642,-4.19387 -0.0918,-0.28932 -0.65113,-0.71976 -1.2429,-0.95654 -2.01682,-0.80698 -3.81724,-3.96345 -3.81724,-6.69237 0,-1.05262 -0.29214,-2.01635 -1.23428,-4.07172 -0.67886,-1.48098 -1.23429,-2.95846 -1.23429,-3.28328 0,-0.55626 -0.0899,-0.58003 -1.54635,-0.40885 -1.32426,0.15564 -1.71987,0.087 -2.75455,-0.47761 -0.72086,-0.3934 -1.27244,-0.91486 -1.36748,-1.29281 -0.29355,-1.16745 0.0949,-2.94322 1.15464,-5.27818 0.91888,-2.02461 1.06357,-2.62561 1.14681,-4.76352 0.0805,-2.06849 0.24209,-2.78057 1.04538,-4.60757 1.218,-2.77025 1.30114,-4.72795 0.25881,-6.09451 -0.4444,-0.58264 -0.9048,-1.84694 -1.28905,-3.5398 -0.54887,-2.41817 -0.56872,-2.80616 -0.24272,-4.74626 0.19526,-1.16205 0.33919,-3.85005 0.31985,-5.97333 -0.0245,-2.68861 0.0865,-4.26315 0.3657,-5.18689 l 0.40086,-1.32637 -0.91611,-1.20018 c -0.50387,-0.6601 -0.9963,-1.56523 -1.09429,-2.0114 -0.3525,-1.60489 1.44958,-3.96612 3.72034,-4.8747 1.13776,-0.45523 1.17533,-0.56576 1.47761,-4.34668 0.15856,-1.98329 -0.13889,-4.15991 -1.2165,-8.90187 -0.36426,-1.6029 -0.52491,-2.97459 -0.42066,-3.59167 0.14574,-0.86264 0.0739,-1.06043 -0.52824,-1.45499 -2.29845,-1.506 -2.08425,-6.06726 0.43456,-9.25379 0.60229,-0.76196 1.02911,-1.55727 0.94849,-1.76736 -0.0806,-0.2101 -0.16358,-1.96015 -0.18435,-3.88901 -0.0357,-3.31475 -0.0806,-3.58242 -0.81832,-4.88223 -1.14872,-2.02387 -1.80069,-6.10101 -1.37065,-8.57149 0.17688,-1.01618 0.49616,-2.21788 0.70951,-2.67045 0.21335,-0.45257 0.37076,-1.19314 0.34981,-1.64571 -0.0563,-1.21536 0.30627,-8.58108 0.60076,-12.20572 0.28465,-3.50358 0.69533,-5.13689 2.02556,-8.0559 0.72409,-1.58892 0.90705,-2.355 0.93593,-3.91903 0.041,-2.22012 1.05473,-5.78686 2.0699,-7.2828 0.63816,-0.94037 0.64586,-1.02776 0.41831,-4.74546 -0.20371,-3.3282 -0.17374,-3.92348 0.24715,-4.90927 0.53132,-1.244415 0.46617,-2.365288 -0.34417,-5.921823 -0.25779,-1.131429 -0.48911,-2.817808 -0.51405,-3.74751 -0.0391,-1.458981 0.0485,-1.791071 0.64037,-2.42606 0.37714,-0.404633 1.00309,-0.900876 1.39099,-1.102764 l 0.70528,-0.367069 -0.60992,-2.479713 c -0.33545,-1.363842 -0.8751,-2.822362 -1.19923,-3.241156 -2.33055,-3.011276 -2.82792,-3.742077 -3.43643,-5.049259 -0.78554,-1.687452 -0.85446,-2.60641 -0.29577,-3.943559 0.40603,-0.971767 1.82873,-2.051496 2.70553,-2.053314 0.45773,-9.48e-4 0.48174,-0.231809 0.32095,-3.086739 -0.0956,-1.697143 -0.34293,-4.566857 -0.54966,-6.377143 -0.46476,-4.069947 -0.53318,-13.492486 -0.11222,-15.455375 0.17019,-0.793565 0.59578,-1.775602 0.94575,-2.182306 0.60213,-0.699747 0.68544,-0.719811 1.55123,-0.373571 1.91462,0.765679 2.34748,0.342781 1.12017,-1.094389 -0.4308,-0.504469 -1.37733,-1.882821 -2.1034,-3.063005 -1.07301,-1.744124 -1.32201,-2.385909 -1.33022,-3.428571 -0.0113,-1.427305 0.91971,-4.786161 1.5909,-5.739926 0.67576,-0.960262 1.85393,-0.816787 2.92087,0.355696 0.64605,0.709966 1.07332,0.950841 1.58125,0.891429 0.69014,-0.08073 0.69663,-0.105601 0.77289,-2.96141 0.0758,-2.838014 0.35701,-4.27098 1.0497,-5.348572 0.19395,-0.301714 0.50105,-1.412571 0.68244,-2.468571 0.18139,-1.056 0.49771,-2.398376 0.70293,-2.983057 0.20521,-0.584681 0.37311,-1.545355 0.37311,-2.134832 0,-1.495741 1.15293,-3.617771 2.7869,-5.1294401 2.11672,-1.9582846 3.47381,-2.7812424 4.5864,-2.7812424 0.85475,0 1.21197,0.2401854 2.7535,1.8514286 0.97423,1.0182859 2.50146,2.8388569 3.39383,4.0457139 0.89237,1.206857 1.65933,2.233754 1.70435,2.281992 0.045,0.04824 0.61477,-0.18416 1.26609,-0.516441 0.66012,-0.33677 1.91614,-0.662719 2.83801,-0.736492 l 1.65378,-0.132344 1.39495,1.373917 c 0.76723,0.755655 1.81038,2.175156 2.31812,3.154447 l 0.92316,1.78053 0.97331,-0.764309 c 1.39543,-1.09578 4.71758,-2.464157 5.98249,-2.464157 1.48764,0 2.09061,0.715263 2.09061,2.479958 0,1.094996 -0.1755,1.609175 -0.90014,2.637226 l -0.90014,1.277034 0.6029,1.808605 c 1.14148,3.424328 2.13437,8.602471 2.21191,11.535625 0.0761,2.880261 0.21955,3.575838 0.73728,3.575838 0.23205,0 0.89598,0.498345 1.47539,1.107434 0.88264,0.927841 1.13971,1.061284 1.58522,0.822857 2.18171,-1.167616 4.13457,0.931498 3.58121,3.849399 -0.14881,0.784637 -0.27056,1.52855 -0.27056,1.653141 0,0.124591 0.79465,0.152323 1.76588,0.06163 1.70122,-0.158862 1.79663,-0.134147 2.60572,0.674936 0.71774,0.717747 0.83983,1.04355 0.83983,2.241173 0,0.770735 -0.1854,1.845057 -0.41199,2.387382 -0.33476,0.801191 -0.35226,1.185438 -0.0933,2.04964 0.41445,1.383298 -0.0416,5.258892 -1.01346,8.61256 -0.66741,2.30309 -0.67775,2.436691 -0.20884,2.697399 0.27134,0.150862 0.83278,0.612492 1.24763,1.025845 0.72715,0.724511 0.75429,0.855059 0.75429,3.628521 0,3.175719 -0.50085,6.279369 -1.43257,8.877368 l -0.60993,1.700711 0.64166,1.316432 c 0.82446,1.691452 1.27326,6.376611 0.81272,8.484224 l -0.30762,1.407793 1.14807,1.037213 c 1.19423,1.078909 3.15133,4.121061 3.45505,5.370584 0.13731,0.564868 -0.0133,0.93521 -0.69739,1.71429 -0.47989,0.54656 -0.73669,0.99376 -0.57066,0.99376 0.45805,0 4.35739,3.7896 5.53446,5.37871 0.57099,0.77086 1.2305,1.86189 1.46558,2.42452 0.23507,0.56262 0.75674,1.41305 1.15925,1.88985 1.35644,1.6068 2.29235,3.98749 2.29259,5.8317 1.2e-4,0.92035 -0.12682,2.03778 -0.28209,2.48318 -0.2314,0.6638 -0.1519,1.1534 0.44087,2.71521 1.40874,3.71169 1.5635,4.49578 1.40861,7.1365 -0.11904,2.02957 -0.30818,2.83855 -1.02607,4.38857 -0.48406,1.04518 -0.98688,2.43362 -1.11737,3.08542 -0.1305,0.6518 -0.48622,1.50159 -0.7905,1.88842 -1.46655,1.86441 -0.005,7.90737 2.61817,10.82739 0.60022,0.66807 1.1514,1.78124 1.62972,3.29143 0.9558,3.01767 0.81193,4.02364 -0.83114,5.81149 -1.17645,1.2801 -1.22713,1.40514 -1.22713,3.02759 0,2.01346 -0.84834,3.95701 -1.95657,4.4825 -0.6353,0.30124 -0.74541,0.55828 -0.91415,2.13397 -0.28357,2.64795 -9e-5,3.73892 1.99353,7.67212 l 1.80735,3.56571 0.0567,3.34025 c 0.0545,3.20805 0.0889,3.38716 0.86877,4.52571 0.44663,0.65201 0.90628,1.48615 1.02145,1.85366 0.32616,1.04073 0.19146,3.23675 -0.25102,4.09241 -0.37709,0.72921 -0.35575,0.83014 0.36159,1.71003 1.3274,1.6282 2.16908,3.32962 2.9022,5.86669 0.39145,1.35467 0.69184,2.95924 0.66752,3.56571 -0.0247,0.61572 0.21163,1.68388 0.53511,2.41874 0.77772,1.76678 1.4117,4.28616 1.40433,5.58068 -0.003,0.58165 -0.25017,1.5956 -0.54857,2.25322 -0.67179,1.48048 -0.67136,1.59768 0.0114,3.14126 0.71371,1.61346 1.12684,4.83863 0.78049,6.09301 -0.15146,0.54853 -0.66466,1.26851 -1.21561,1.7054 -0.52442,0.41585 -1.21679,1.29736 -1.53861,1.95891 -0.32181,0.66155 -0.93553,1.40213 -1.36381,1.64572 -0.74156,0.42177 -0.77877,0.5367 -0.78042,2.41053 -0.002,2.69167 0.4918,4.70537 1.42101,5.79047 0.85697,1.00074 0.95949,1.89851 0.47485,4.15831 -0.21577,1.0061 -0.53854,1.58958 -1.18338,2.13922 -0.71008,0.60525 -0.90131,0.99212 -0.96008,1.94238 -0.0625,1.01128 0.10699,1.45708 1.14736,3.01715 2.54813,3.821 2.71817,4.86447 1.08708,6.67105 -0.92718,1.02692 -1.01967,1.26573 -0.93825,2.42246 0.0727,1.03354 -0.0381,1.43914 -0.56968,2.08442 -0.48849,0.59297 -0.611,0.97938 -0.47144,1.4869 0.25976,0.94457 0.01,2.26204 -0.50695,2.67428 -0.58387,0.46559 -3.50135,0.43384 -5.12834,-0.0558 -0.72859,-0.21927 -1.42707,-0.33542 -1.55217,-0.2581 -0.51527,0.31846 -0.21969,3.79832 0.46349,5.45678 0.92438,2.24397 0.89494,3.80933 -0.10087,5.36344 -0.42975,0.67068 -1.05708,1.46377 -1.39408,1.76242 -0.33699,0.29865 -0.77134,0.91579 -0.96523,1.37143 -0.19388,0.45563 -0.80677,1.29128 -1.36198,1.85699 -1.16734,1.18942 -2.41317,1.39541 -2.90308,0.48 -0.34688,-0.64815 -0.82285,-0.72399 -0.82285,-0.13112 0,0.90582 -1.5938,3.91768 -2.16989,4.10052 -0.65582,0.20815 -2.74068,-0.41207 -4.03025,-1.19895 -0.46837,-0.28579 -1.43958,-1.4041 -2.15825,-2.48514 l -1.30668,-1.96552 -0.58461,0.53487 c -0.85572,0.78291 -2.78827,1.69392 -3.59336,1.69392 -0.54415,0 -0.88731,0.30575 -1.54765,1.37894 -0.88209,1.43358 -1.6337,1.96324 -3.94646,2.78105 -1.49389,0.52826 -2.44097,0.59403 -3.29142,0.22858 z M 116.88285,136.45714 c 2.25778,-3.87126 2.70572,-4.82877 2.70572,-5.78363 0,-0.48986 0.12553,-0.9325 0.27896,-0.98364 0.21932,-0.0731 -1.09569,-4.31885 -2.36405,-7.63273 -0.22776,-0.59506 -1.68069,3.18742 -2.02347,5.26778 -0.4272,2.59267 -0.69509,12.21544 -0.3306,11.87508 0.16155,-0.15086 0.9416,-1.38514 1.73344,-2.74286 z m 8.84159,-5.85784 c 0.25348,-0.28011 0.73547,-1.23668 1.07108,-2.12572 0.55755,-1.47699 0.6056,-2.04235 0.55694,-6.55358 -0.0293,-2.71543 -0.13026,-5.46736 -0.2244,-6.11541 -0.14711,-1.01278 -0.24663,-1.15431 -0.70855,-1.0077 -0.35253,0.11189 -0.9756,-0.11969 -1.81119,-0.67316 -0.70059,-0.46405 -1.44103,-0.84373 -1.64542,-0.84373 -0.20439,0 -0.92054,-0.54892 -1.59144,-1.21982 -0.6709,-0.6709 -1.29108,-1.10452 -1.37818,-0.9636 -0.0871,0.14092 -0.52235,1.30675 -0.96724,2.59073 -1.28253,3.70145 -1.1731,5.71911 0.59348,10.94296 1.48493,4.39097 1.88012,5.23227 2.81477,5.9922 0.80055,0.65091 2.69217,0.63758 3.29015,-0.0232 z m 40.19834,-85.073299 c 0.37251,-2.026044 0.1552,-2.968132 -0.8465,-3.669751 -1.07628,-0.753855 -1.25213,-0.55788 -1.45651,1.623193 -0.19038,2.031628 -0.18066,2.076644 0.65349,3.026687 0.47045,0.535822 0.85773,1.295343 0.87148,1.709128 l 0.0247,0.744742 0.21226,-0.822857 c 0.11674,-0.452572 0.36021,-1.627585 0.54105,-2.611142 z M 139.06286,277.74518 c 0,-0.20929 0.86536,-1.07971 1.92302,-1.93427 1.05766,-0.85455 2.121,-1.85588 2.36297,-2.22518 0.46092,-0.70345 1.04423,-0.87065 1.34419,-0.38531 0.26666,0.43147 -1.08025,2.03946 -2.97786,3.55507 -1.68966,1.34952 -2.65232,1.70873 -2.65232,0.98969 z M 172.8,275.62538 c 0,-0.16832 0.18647,-0.87804 0.41437,-1.57714 0.22791,-0.6991 0.56734,-2.12574 0.75429,-3.17029 0.20565,-1.14904 0.4926,-1.94928 0.72647,-2.026 0.27226,-0.0893 0.3326,0.0138 0.20405,0.34883 -0.10038,0.2616 -0.31653,1.35844 -0.48032,2.43743 -0.16379,1.07898 -0.52638,2.48636 -0.80576,3.1275 -0.49627,1.13886 -0.8131,1.47384 -0.8131,0.85967 z m 11.28765,-4.44739 c -0.18351,-1.23385 -0.68215,-2.81731 -1.29073,-4.0988 -0.54542,-1.14851 -0.94904,-2.30965 -0.89691,-2.58031 0.14571,-0.75663 2.34614,4.05203 2.67958,5.85579 0.35217,1.90504 0.36791,2.8339 0.048,2.8339 -0.13252,0 -0.37551,-0.90476 -0.53998,-2.01058 z m -27.49834,-0.25228 c -0.0492,-2.05982 -0.21163,-3.26183 -0.48545,-3.59177 -0.62712,-0.75562 -1.97179,-5.11121 -2.20827,-7.15292 -0.37338,-3.2236 -0.30105,-8.46663 0.15165,-10.99245 0.51573,-2.87752 0.63793,-5.72139 0.82506,-19.2 0.22,-15.84547 0.14832,-21.2498 -0.32098,-24.20276 -0.45955,-2.89162 -0.54787,-9.82374 -0.12846,-10.08295 0.15085,-0.0932 0.27428,-0.0388 0.27428,0.12095 0,0.15976 0.15429,0.25962 0.34286,0.2219 0.26301,-0.0526 0.326,0.75207 0.27047,3.45523 -0.0481,2.34382 0.077,4.36447 0.37369,6.03429 0.3455,1.94445 0.43396,4.05655 0.39232,9.36763 -0.22183,28.29476 -0.11275,31.57766 1.25164,37.6694 0.21409,0.95589 0.33989,1.81989 0.27956,1.92 -0.0603,0.10011 0.12039,1.3546 0.4016,2.78774 0.69485,3.54121 0.67542,6.519 -0.0592,9.06998 -0.32289,1.12122 -0.64159,2.87173 -0.70822,3.89002 -0.13335,2.03771 -0.60836,2.53686 -0.65255,0.68571 z m 0.80981,-4.66285 c 0.15177,-0.49029 0.35868,-1.30344 0.4598,-1.80701 0.17203,-0.85672 0.14799,-0.8964 -0.37379,-0.61715 -0.3067,0.16414 -0.87432,0.29844 -1.26138,0.29844 -0.38707,0 -0.70375,0.1132 -0.70375,0.25155 0,0.52001 1.08837,2.76559 1.34041,2.76559 0.14452,0 0.38694,-0.40114 0.53871,-0.89142 z m -0.0277,-3.20738 c 0.77076,-0.643 0.7962,-1.89498 0.10983,-5.40515 -0.67854,-3.4701 -1.649,-4.83606 -2.69365,-3.79141 -0.39569,0.39569 -0.46291,0.94442 -0.41486,3.38664 0.0757,3.84758 0.27114,5.08527 0.91152,5.77264 0.65276,0.70065 1.27857,0.71182 2.08716,0.0373 z m -1.32374,-10.50691 c -0.0115,-0.18857 -0.17181,-1.26857 -0.35627,-2.4 l -0.33538,-2.05714 -0.36335,2.09705 c -0.19984,1.15339 -0.27909,2.23339 -0.17612,2.4 0.25709,0.41597 1.25691,0.38356 1.23112,-0.0399 z m -21.37341,15.83755 c 0,-0.10192 0.24837,-0.50106 0.55193,-0.88697 0.30356,-0.38592 0.62791,-1.17681 0.72077,-1.75755 0.0929,-0.58074 0.29275,-1.05589 0.44419,-1.05589 0.43631,0 0.0313,2.20051 -0.54777,2.9761 -0.50726,0.67942 -1.16912,1.08946 -1.16912,0.72431 z m -1.98833,-1.3916 c -0.0879,-0.0879 0.13908,-0.79758 0.50433,-1.57714 0.36525,-0.77956 0.74135,-1.88297 0.83579,-2.45203 0.0944,-0.56906 0.29834,-1.11292 0.45311,-1.20858 0.48018,-0.29676 -0.0246,2.34905 -0.75082,3.93527 -0.68052,1.48645 -0.75961,1.58528 -1.04241,1.30248 z m 37.91976,-2.3295 c 0,-0.16224 0.68647,-1.73596 1.52549,-3.49715 0.83902,-1.76118 1.88965,-4.53653 2.33473,-6.16743 0.86304,-3.16243 1.48306,-4.85187 1.78062,-4.85187 0.54286,0 -1.96465,7.8636 -3.6506,11.44834 -1.42876,3.03789 -1.99024,3.90345 -1.99024,3.06811 z m -39.88644,-3.86507 c -0.0634,-0.20112 -0.17891,-1.35309 -0.25666,-2.55995 -0.0778,-1.20686 -0.40821,-3.22526 -0.73436,-4.48535 -0.43034,-1.66265 -0.51044,-2.3736 -0.29205,-2.592 0.50421,-0.50421 0.81367,0.0917 1.54717,2.9793 0.75619,2.97693 0.86038,6.68976 0.19392,6.91027 -0.1885,0.0624 -0.3946,-0.0511 -0.45802,-0.25227 z m -4.38176,-1.00456 c -0.0773,-0.1251 0.0388,-0.82357 0.2581,-1.55216 0.27099,-0.90042 0.39867,-2.62329 0.39867,-5.37921 0,-3.95193 0.18528,-4.83417 0.87117,-4.14828 0.47292,0.47291 0.31428,8.43114 -0.19885,9.97604 -0.40294,1.21313 -0.97026,1.68421 -1.32909,1.10361 z m 61.5482,-4.16111 c -0.5346,-0.5346 -0.7259,-1.09714 -0.37309,-1.09714 0.0965,0 0.32845,0.2092 0.51541,0.46489 0.24193,0.33086 0.86351,0.49823 2.15595,0.58053 2.33882,0.14892 2.36375,0.6003 0.0332,0.6003 -1.41714,0 -1.89538,-0.11253 -2.33143,-0.54858 z m 0.5337,-2.14533 c -1.15911,-0.73563 -2.48673,-2.57592 -2.12167,-2.94097 0.094,-0.094 1.00646,0.33317 2.02779,0.94917 1.02134,0.61599 2.01906,1.11999 2.21715,1.11999 0.1981,0 0.36018,0.12343 0.36018,0.27429 0,0.4745 -0.91446,0.29371 -2.18358,-0.4317 -1.12597,-0.64358 -1.18072,-0.65202 -0.68636,-0.10576 0.29547,0.32649 0.87693,0.7693 1.29215,0.98401 0.70597,0.36508 1.0294,0.92488 0.53434,0.92488 -0.12132,0 -0.76932,-0.34826 -1.44,-0.77391 z m -66.01947,-5.79343 c -0.0377,-2.25355 0.0376,-4.16302 0.16745,-4.24326 0.29508,-0.18238 0.68455,6.62315 0.43576,7.61442 -0.37672,1.50095 -0.53657,0.6076 -0.60321,-3.37116 z m 63.88892,-6.95093 c -0.16093,-0.19391 -0.66976,-1.29447 -1.13073,-2.4457 -0.60668,-1.51512 -0.83813,-2.54445 -0.83813,-3.72744 0,-2.34366 0.25241,-3.39303 0.79117,-3.28926 0.37039,0.0713 0.44394,0.51242 0.44816,2.6873 0.005,2.35891 0.0886,2.78006 0.89944,4.50897 0.83806,1.78692 0.95621,2.61868 0.37199,2.61868 -0.13712,0 -0.38097,-0.15865 -0.5419,-0.35255 z m 3.53438,-5.2341 c -0.64061,-1.32333 -1.10383,-4.83621 -0.63771,-4.83621 0.15509,0 0.36792,0.80241 0.47295,1.78312 0.11019,1.02897 0.46846,2.30503 0.84709,3.01714 0.4875,0.91686 0.55866,1.23403 0.27689,1.23403 -0.20858,0 -0.64023,-0.53913 -0.95922,-1.19808 z m -71.6061,0.69837 c 0,-0.12398 0.1825,-0.77198 0.40554,-1.44 0.53468,-1.60133 1.51446,-8.04315 1.51446,-9.95721 0,-0.83089 0.12343,-1.58699 0.27429,-1.68022 0.45631,-0.28202 0.31876,3.1759 -0.28166,7.08117 -0.58154,3.7824 -1.23251,6.22168 -1.66039,6.22168 -0.13873,0 -0.25224,-0.10144 -0.25224,-0.22542 z m -3.84,-4.33929 c 0,-0.39635 2.58729,-3.17058 2.68462,-2.87859 0.11665,0.34997 -2.04015,3.05473 -2.43587,3.05473 -0.13681,0 -0.24875,-0.0793 -0.24875,-0.17614 z m 76.39852,-11.82386 c -0.0917,-0.86743 -0.42335,-2.19428 -0.73708,-2.94857 -0.65196,-1.56752 -0.7642,-2.28474 -0.37001,-2.36439 0.61814,-0.12491 1.55313,2.55126 1.65378,4.73352 0.11471,2.48732 -0.29876,2.92557 -0.54669,0.57944 z m 2.47557,-2.60571 c -0.65602,-1.40392 -1.22156,-2.19018 -1.92357,-2.67429 -1.01398,-0.69924 -1.79623,-1.82809 -1.79623,-2.59209 0,-0.66138 0.47033,-0.49983 0.65198,0.22393 0.0896,0.35695 0.82832,1.21749 1.64164,1.91232 1.3949,1.19171 2.38126,2.744 2.79758,4.40272 0.36351,1.44837 -0.45479,0.68902 -1.3714,-1.27259 z m -62.49969,-1.76767 c -0.47243,-0.77941 2.83391,-11.03197 5.80201,-17.99133 0.59269,-1.38969 1.45224,-3.57586 1.91012,-4.85814 0.45787,-1.28229 1.14153,-3.07886 1.51924,-3.99238 0.81035,-1.9599 1.59829,-5.01322 2.22571,-8.62477 0.69678,-4.01081 0.2709,-8.87704 -1.17623,-13.44 -0.59806,-1.88571 -1.48389,-4.26439 -1.96852,-5.28595 -0.71437,-1.50582 -0.81746,-1.93414 -0.54464,-2.26286 0.49741,-0.59935 0.7863,-0.49676 0.98228,0.34881 0.0961,0.41486 0.45508,1.248 0.79763,1.85143 0.34255,0.60343 1.13774,2.76343 1.76709,4.8 1.23007,3.9805 1.87471,8.97239 1.55849,12.06857 -0.53458,5.23436 -2.57308,11.87114 -6.40282,20.84572 -0.54719,1.28228 -1.64444,4.18285 -2.43834,6.44571 -0.7939,2.26286 -1.71341,4.85486 -2.04336,5.76 -0.32995,0.90514 -0.67776,2.26121 -0.77291,3.01349 -0.12203,0.96477 -0.3069,1.39353 -0.62743,1.45519 -0.24994,0.0481 -0.51468,-0.012 -0.58832,-0.13349 z m -13.90583,-3.79543 c 0,-1.15399 2.86597,-4.33082 4.21176,-4.6686 0.86914,-0.21814 2.6468,-3.11985 3.49593,-5.70648 0.32894,-1.002 0.70413,-1.82182 0.83376,-1.82182 0.34914,0 0.29356,0.3941 -0.307,2.17685 -0.63776,1.89315 -3.00966,6.06363 -3.42276,6.01818 -0.7145,-0.0786 -1.06496,0.10798 -2.25259,1.19925 -0.69776,0.64115 -1.43723,1.56686 -1.64327,2.05715 -0.31488,0.74927 -0.91583,1.23844 -0.91583,0.74547 z M 169.44,210.01185 c -0.11314,-0.27634 -0.2105,-1.26377 -0.21634,-2.19428 -0.0203,-3.2282 -0.73718,-10.21912 -1.109,-10.8145 -0.47072,-0.75375 -0.10004,-1.16 0.41729,-0.45733 0.50579,0.68698 0.61126,1.35899 0.98699,6.28854 0.32792,4.30242 0.28648,8.07008 -0.0789,7.17757 z m -51.77143,-1.86364 c 0,-0.34604 1.5474,-3.48058 1.97862,-4.00805 0.1528,-0.18691 0.38319,-0.27471 0.51198,-0.19512 0.12878,0.0796 -0.13304,0.74147 -0.58182,1.47084 -0.44878,0.72936 -0.9505,1.71203 -1.11492,2.18369 -0.28924,0.8297 -0.79386,1.17845 -0.79386,0.54864 z m 55.1337,-6.61678 c -0.34089,-0.94286 -1.33555,-3.31886 -2.21035,-5.28 -0.8748,-1.96115 -1.76911,-4.05943 -1.98736,-4.66286 -0.21824,-0.60343 -0.977,-2.60657 -1.68612,-4.45143 -0.70912,-1.84485 -1.21144,-3.48028 -1.11626,-3.63428 0.43439,-0.70285 0.90501,-0.0774 1.90489,2.53142 1.70549,4.44993 3.43223,8.70684 3.89394,9.59969 0.68855,1.33151 2.8447,6.80949 2.8447,7.22733 0,0.21143 -0.23032,0.38441 -0.51182,0.38441 -0.37886,0 -0.67283,-0.44532 -1.13162,-1.71428 z m -50.47084,-0.18128 c 0,-0.13742 0.24526,-1.03227 0.54503,-1.98857 0.29977,-0.9563 0.54663,-2.2532 0.54857,-2.88201 0.004,-1.25714 0.21443,-2.011 0.56164,-2.011 0.37142,0 0.009,3.01658 -0.61722,5.14286 -0.32232,1.09371 -0.68773,1.98857 -0.81203,1.98857 -0.12429,0 -0.22599,-0.11243 -0.22599,-0.24985 z m -5.86636,-1.08756 c -0.6408,-0.70808 -0.84342,-2.24692 -0.45201,-3.4329 0.3854,-1.16777 1.01089,-1.38838 0.66743,-0.23541 -0.36372,1.221 -0.25618,2.78186 0.22479,3.26283 0.40915,0.40916 0.51963,0.39728 1.40733,-0.15135 0.52982,-0.32745 1.33846,-1.02263 1.79697,-1.54485 0.90185,-1.02714 1.1247,-1.14479 1.1247,-0.59372 0,0.3809 -1.61858,2.01265 -2.73531,2.75757 -0.88351,0.58935 -1.46024,0.57172 -2.0339,-0.0622 z m 11.90064,-2.68441 c 0,-1.99631 3.65169,-13.14995 4.83518,-14.76847 0.55333,-0.75673 0.82567,-0.23389 0.32674,0.6273 -0.85702,1.4793 -3.02204,7.61482 -3.90934,11.07883 -0.94616,3.69381 -1.25258,4.44295 -1.25258,3.06234 z m 56.22977,-8.31867 c -0.46208,-0.91537 -1.26852,-2.13848 -1.7921,-2.71801 -1.31124,-1.45139 -1.20286,-2.02927 0.13549,-0.7224 1.2345,1.20545 3.18195,4.68123 2.76666,4.93789 -0.14845,0.0917 -0.64798,-0.58212 -1.11005,-1.49748 z m -38.515,-5.45032 c -0.17767,-0.28748 4.34244,-3.72625 5.45302,-4.14849 0.90208,-0.34297 1.79221,-0.3599 1.79221,-0.0341 0,0.13406 -0.42918,0.32427 -0.95373,0.42268 -0.52455,0.0984 -1.48112,0.57703 -2.12571,1.0636 -3.03129,2.28821 -4.02178,2.9293 -4.16579,2.69629 z m 15.74809,-0.59336 c -0.67886,-0.27336 -2.06743,-0.65024 -3.08571,-0.8375 -2.13854,-0.39327 -2.56134,-0.96603 -0.51248,-0.69424 1.75113,0.23229 3.88033,0.87204 4.56253,1.37087 0.85595,0.6259 0.38541,0.70439 -0.96434,0.16087 z m -36.55312,-1.98155 c 0.15112,-1.18258 2.09822,-6.43435 2.56263,-6.912 0.54263,-0.5581 0.2145,0.75706 -0.8438,3.38194 -0.60342,1.49669 -1.09714,3.16552 -1.09714,3.70851 0,0.66499 -0.12578,0.98727 -0.38533,0.98727 -0.29383,0 -0.34995,-0.27678 -0.23636,-1.16572 z m 19.82169,-1.49435 c 0,-0.29959 1.34769,-0.96912 3.83906,-1.90724 2.53152,-0.95324 3.84094,-1.22187 3.84094,-0.78799 0,0.19051 -0.40274,0.41174 -0.89499,0.49162 -0.49224,0.0799 -2.00424,0.59798 -3.36,1.15133 -3.1076,1.26838 -3.42501,1.3659 -3.42501,1.05228 z m 39.75909,-3.03136 c -0.24811,-0.49948 -0.43954,-2.4221 -0.56666,-5.69143 -0.10559,-2.71543 -0.27975,-5.27657 -0.38704,-5.69143 -0.11617,-0.44924 -0.0844,-0.75428 0.0786,-0.75428 0.54146,0 0.88739,2.51001 0.88739,6.43884 0,2.93651 0.10951,4.26373 0.41143,4.98632 0.22628,0.54158 0.41143,1.09304 0.41143,1.22548 0,0.50291 -0.47555,0.21053 -0.8352,-0.5135 z m -13.56017,0.21322 c -0.43936,-0.71091 1.22018,-10.20953 2.18876,-12.52768 0.51154,-1.22427 2.88146,-5.27637 3.20172,-5.4743 0.55762,-0.34463 0.1225,0.7567 -1.14945,2.90939 -0.75746,1.28194 -1.62793,3.13308 -1.93439,4.11366 -0.71728,2.29514 -1.62556,7.58864 -1.62556,9.47392 0,1.39801 -0.31585,2.09596 -0.68108,1.50501 z m -16.69948,-12.00634 c -0.082,-0.56636 -0.21804,-3.00459 -0.30222,-5.41831 -0.25869,-7.41804 -0.47246,-10.88341 -0.72585,-11.76693 -0.13354,-0.46563 -0.2428,-1.23831 -0.2428,-1.71709 0,-1.854 -1.73007,-4.81477 -3.09054,-5.28904 -0.67743,-0.23615 -0.7834,-0.39151 -0.64451,-0.94488 0.13172,-0.52483 -0.0347,-0.83862 -0.80177,-1.51216 -1.10203,-0.9676 -1.43708,-1.03732 -1.90561,-0.39657 -0.3714,0.50791 -0.96328,0.28756 -0.96328,-0.35862 0,-0.23182 0.20694,-0.77182 0.45986,-1.19999 0.44379,-0.75127 0.4355,-0.81508 -0.23711,-1.82517 -1.02,-1.53179 -2.0831,-2.50144 -2.91704,-2.66063 -5.32365,-1.01627 -5.5816,-1.04649 -6.63994,-0.77786 -0.88008,0.22339 -1.08863,0.2031 -1.08863,-0.10594 0,-0.21024 0.216,-0.38302 0.48,-0.38395 0.264,-9.3e-4 0.84575,-0.19241 1.29277,-0.4255 0.73571,-0.38364 1.04774,-0.38097 3.29142,0.0281 1.36327,0.24854 2.84766,0.56733 3.29865,0.70843 0.4936,0.15442 0.85328,0.15661 0.90366,0.005 0.21624,-0.64873 3.39892,-4.72235 3.99432,-5.11248 0.82589,-0.54114 2.80083,-3.43506 3.15195,-4.61861 0.14186,-0.47818 0.45613,-1.54828 0.69838,-2.378 0.39103,-1.33931 0.45417,-3.87799 0.1292,-5.19514 -0.18573,-0.75277 0.84563,-0.64496 1.136,0.11876 0.36121,0.95005 0.34904,3.839 -0.0218,5.17452 -0.24944,0.89835 -0.20359,1.27114 0.30366,2.46857 0.62098,1.46594 2.04593,3.19329 2.63425,3.19329 0.18652,0 0.42062,-0.25674 0.52022,-0.57054 0.0996,-0.3138 0.75591,-1.15874 1.45848,-1.87765 0.70257,-0.71891 1.41721,-1.54216 1.58809,-1.82946 0.17088,-0.28729 0.39598,-0.44125 0.50023,-0.34212 0.22385,0.21286 -0.64937,1.85808 -1.9455,3.66546 -1.61651,2.25413 -1.27814,4.59619 0.81857,5.66585 1.21424,0.61945 1.68296,0.57659 5.3834,-0.49232 1.2785,-0.36931 3.68535,-0.80397 5.34858,-0.96593 4.54406,-0.44248 5.21832,-0.439 5.21832,0.0269 0,0.47877 -2.57799,1.07843 -4.7135,1.09641 -1.4714,0.0124 -4.51816,0.56946 -6.66936,1.21945 -0.67886,0.20512 -1.728,0.50803 -2.33143,0.67313 -1.53748,0.42066 -2.60571,2.1259 -2.60571,4.15957 0,0.80133 0.0681,1.38884 0.15138,1.30557 0.0833,-0.0833 0.91641,0.11639 1.85143,0.44366 1.93491,0.67724 9.2429,5.30642 9.2429,5.85482 0,0.36533 -0.368,0.15222 -5.26595,-3.04943 -3.65284,-2.38776 -4.26964,-2.56808 -6.57589,-1.92251 -0.25245,0.0707 -0.85878,0.75149 -1.3474,1.51295 -0.72561,1.13075 -0.81742,1.4294 -0.50101,1.6297 0.21307,0.13487 0.47992,0.24712 0.593,0.24943 0.48577,0.01 6.0429,5.69199 6.39798,6.54183 0.46731,1.11843 0.46946,1.14237 0.10242,1.14237 -0.15855,0 -0.45664,-0.40115 -0.66241,-0.89143 -0.45332,-1.08015 -4.83357,-5.41715 -5.47116,-5.41715 -0.25002,0 -0.75944,-0.19974 -1.13203,-0.44387 -0.89021,-0.58329 -1.32206,-0.22603 -1.92648,1.59372 -0.39533,1.19021 -0.4143,1.65896 -0.1368,3.37917 0.4394,2.72385 0.77278,11.56961 0.5374,14.25956 -0.1056,1.20685 -0.12788,2.70258 -0.0495,3.32383 0.18169,1.44028 -0.3654,1.87003 -0.57129,0.44876 z m 1.62561,-26.15166 c 0.67209,-1.01097 1.39223,-1.90346 1.60031,-1.98331 0.25999,-0.0998 0.41008,-0.77398 0.47984,-2.15547 0.08,-1.58392 0.24296,-2.20892 0.7684,-2.94684 l 0.66689,-0.93656 -0.66882,-0.43018 c -1.43142,-0.9207 -2.16029,-1.95931 -2.34334,-3.33917 -0.1,-0.75381 -0.32202,-1.3494 -0.50302,-1.3494 -0.5279,0 -2.1212,-1.70398 -2.61174,-2.79315 l -0.455,-1.0103 -1.41375,2.10744 c -0.77756,1.15909 -1.8239,2.43117 -2.3252,2.82684 -1.28664,1.01554 -3.92394,4.8928 -3.60829,5.30477 0.95367,1.24463 2.03153,3.06982 2.03153,3.44007 0,0.24341 0.67886,1.02864 1.50857,1.74496 0.82971,0.71633 1.50857,1.49282 1.50857,1.72554 0,0.23272 0.55268,0.98372 1.22818,1.6689 0.6755,0.68518 1.3055,1.48939 1.4,1.78713 0.1468,0.46253 0.2696,0.36921 0.84335,-0.64089 0.36934,-0.65024 1.22142,-2.00941 1.89352,-3.02038 z m 11.74751,24.31902 c -0.0826,-0.21531 0.58563,-1.72731 1.48501,-3.36 3.16637,-5.74806 4.39481,-8.5096 6.32307,-14.21424 1.53453,-4.53985 2.01458,-6.35555 2.26618,-8.57143 0.27736,-2.4429 0.38604,-2.81143 0.82905,-2.81143 1.18344,0 0.38551,4.57352 -2.08904,11.97381 -1.76979,5.29268 -2.44735,6.89159 -4.84003,11.42163 -1.53019,2.89708 -2.90439,5.42171 -3.05378,5.61028 -0.35967,0.454 -0.7352,0.43417 -0.92046,-0.0486 z m -25.88437,-6.53424 c 0.0128,-0.8222 0.80553,-5.64019 1.07007,-6.50346 0.42174,-1.37629 3.30936,-6.04511 3.73883,-6.04511 0.76229,0 0.69371,0.63212 -0.21763,2.00623 -2.53407,3.82083 -3.45574,6.07843 -3.91199,9.58234 -0.0933,0.71657 -0.28552,1.30286 -0.42713,1.30286 -0.14162,0 -0.25508,-0.15429 -0.25215,-0.34286 z m 45.73077,-1.22981 c -0.0591,-0.1156 -0.27687,-0.76562 -0.48384,-1.44448 -0.20698,-0.67885 -0.66083,-1.58318 -1.00858,-2.00961 -0.60574,-0.74282 -0.80649,-1.28181 -0.4774,-1.28181 0.16294,0 1.49002,1.49495 1.82227,2.05277 0.359,0.60276 0.71044,2.61188 0.48161,2.75331 -0.1246,0.077 -0.27493,0.0454 -0.33406,-0.0702 z m -21.05039,-0.84543 c 0,-0.1231 0.65506,-0.49532 1.45569,-0.82716 1.56018,-0.64666 3.82139,-2.71006 3.88276,-3.54309 0.0204,-0.27753 0.24688,-0.804 0.50319,-1.16992 0.2563,-0.36593 0.86581,-1.59473 1.35446,-2.73067 0.83237,-1.93497 0.88867,-2.26793 0.89189,-5.27453 0.002,-2.13989 0.0948,-3.11759 0.27773,-2.93427 0.15085,0.1512 0.27414,1.59533 0.27398,3.20918 -2.5e-4,2.36343 -0.11605,3.22775 -0.59523,4.44284 -1.30984,3.32143 -2.56447,5.67558 -3.56414,6.68768 -1.39415,1.41148 -4.48033,2.88553 -4.48033,2.13994 z m -46.39291,-4.69206 c -0.17104,-0.51313 0.68453,-7.70127 0.91664,-7.70127 0.29663,0 0.27661,0.9637 -0.094,4.52571 -0.291,2.79682 -0.57869,3.90738 -0.82264,3.17556 z m 12.73622,-2.69556 c -1.09907,-0.60569 -1.89904,-1.63218 -2.41775,-3.10235 -0.46357,-1.31391 -0.55435,-3.67341 -0.13127,-3.41193 0.15086,0.0932 0.27428,0.57871 0.27428,1.07884 0,2.4175 1.72078,4.91803 3.60328,5.23608 0.58405,0.0987 0.99239,0.29189 0.90742,0.42938 -0.24615,0.39828 -1.2909,0.2908 -2.23596,-0.23002 z m -9.37409,-1.76131 c -0.13755,-0.35128 -0.46417,-1.87297 -0.72581,-3.38154 -0.26165,-1.50858 -0.6579,-3.20547 -0.88055,-3.77088 -0.70582,-1.79233 0.17473,-2.64275 0.91124,-0.88004 0.47663,1.14073 1.39929,5.49668 1.53118,7.22883 0.10309,1.3539 -0.4227,1.8593 -0.83606,0.80363 z m 12.65364,-0.42533 c -0.5781,-0.20558 -0.38106,-0.89812 0.33274,-1.16951 1.33885,-0.50903 4.14027,-2.46833 4.89038,-3.42031 0.42129,-0.53466 0.88802,-0.97211 1.03718,-0.97211 0.62198,0 0.52401,0.85779 -0.2024,1.7722 -1.19509,1.50437 -5.28666,4.064 -6.0579,3.78973 z m -5.08125,-7.41386 c -0.48227,-0.5329 -1.02161,-1.80909 -1.02161,-2.41735 0,-0.74554 0.50535,-0.39193 0.69883,0.48899 0.10661,0.48541 0.56147,1.22598 1.0108,1.64571 0.70696,0.6604 0.74491,0.76315 0.28189,0.76315 -0.29429,0 -0.73075,-0.21622 -0.96991,-0.4805 z m -0.67287,-10.01093 c -0.70182,-1.33388 -0.75774,-1.67647 -0.75891,-4.64918 -7.7e-4,-1.98247 0.11482,-3.32525 0.30242,-3.51282 0.22204,-0.222 0.29577,0.60633 0.27428,3.08133 -0.0277,3.18621 0.0149,3.47045 0.7249,4.84099 0.84699,1.63497 0.85989,1.67968 0.48462,1.67968 -0.14831,0 -0.6106,-0.648 -1.02731,-1.44 z m 1.39763,-3.40501 c -0.883,-2.11334 -1.0489,-4.84733 -0.47577,-7.8407 0.24423,-1.2756 0.71962,-0.88246 0.49751,0.41143 -0.37207,2.16737 -0.18655,5.24243 0.41115,6.81501 0.65969,1.73567 0.6399,1.61927 0.27532,1.61927 -0.15856,0 -0.47725,-0.45225 -0.70821,-1.00501 z M 167.04,121.5526 c 0,-0.30983 1.39776,-0.93198 1.61216,-0.71759 0.2107,0.21071 -0.76388,0.94785 -1.25316,0.94785 -0.19745,0 -0.359,-0.10362 -0.359,-0.23026 z m -32.90743,-5.52168 c -0.36072,-0.70397 -0.68467,-1.93055 -0.76063,-2.88 -0.18469,-2.30821 0.27546,-2.83038 2.93788,-3.33381 1.10951,-0.20979 2.08668,-0.31204 2.1715,-0.22722 0.29771,0.29772 -0.66808,0.65949 -2.23995,0.83906 -1.16486,0.13308 -1.694,0.3338 -1.98857,0.75436 -0.56891,0.81223 -0.49735,2.45759 0.17482,4.02011 0.75306,1.75052 0.51705,2.41242 -0.29505,0.8275 z m 34.41864,-2.748 c -0.22839,-0.25238 -0.33846,-0.53567 -0.24458,-0.62955 0.0939,-0.0939 0.0879,-0.50042 -0.0132,-0.90343 -0.17052,-0.67941 -0.26565,-0.72178 -1.30676,-0.58214 -0.61756,0.0828 -1.22177,0.31067 -1.34269,0.50632 -0.28807,0.46611 -0.37996,0.35086 -1.01659,-1.27495 -0.62716,-1.60164 -1.34169,-1.87704 -2.55074,-0.98314 -0.42593,0.3149 -0.92196,0.57254 -1.10231,0.57254 -0.54469,0 0.642,-1.14107 1.61481,-1.55272 1.17058,-0.49535 1.86018,-0.13503 2.42017,1.26452 l 0.42239,1.05565 1.60777,-0.14579 1.60777,-0.14579 0.18653,0.99429 c 0.10259,0.54685 0.10985,1.19408 0.0161,1.43829 -0.13817,0.36007 -0.0402,0.41132 0.51844,0.27112 0.76906,-0.19302 2.06024,0.0521 2.06024,0.3911 0,0.4303 -2.45087,0.19494 -2.87736,-0.27632 z m -23.72835,-1.23333 c -1.13143,-0.67332 -2.42743,-1.3048 -2.88,-1.40328 -1.36004,-0.29595 -2.09927,-0.64197 -1.93596,-0.9062 0.38774,-0.62739 7.28453,2.49399 7.28453,3.29686 0,0.41444 -0.34464,0.27659 -2.46857,-0.98738 z m 27.18038,-4.48477 c -1.20805,-1.28917 -2.03917,-2.69778 -1.71132,-2.9004 0.13391,-0.0828 0.69563,0.5305 1.24825,1.36281 1.15016,1.73225 2.10787,2.32886 2.92214,1.82034 0.83011,-0.51841 1.22133,-0.38919 0.66912,0.221 -0.81467,0.9002 -1.98993,0.71094 -3.12819,-0.50375 z m -27.11726,-3.05651 c -0.49328,-0.11698 -1.35728,-0.51824 -1.92,-0.8917 -2.36386,-1.56883 -2.87509,-1.75629 -4.17186,-1.52977 -1.4294,0.2497 -5.10469,-0.61117 -6.11849,-1.43314 -0.77513,-0.62846 -0.45135,-0.991276 0.39771,-0.44565 0.9138,0.58722 3.76649,1.36505 4.8606,1.32531 0.51052,-0.0185 2.08208,-0.2837 3.49236,-0.58925 2.71272,-0.58773 6.13941,-0.74471 6.13941,-0.28125 0,0.31562 -0.0758,0.32782 -2.46857,0.39738 -2.23209,0.0649 -4.11428,0.39605 -4.11428,0.72387 0,0.1376 0.15844,0.25018 0.3521,0.25018 0.19366,0 1.00703,0.42194 1.80749,0.93764 0.88869,0.57256 1.97967,1.00976 2.80187,1.12284 0.74057,0.10186 1.41563,0.29706 1.50013,0.43378 0.1814,0.29352 -1.28426,0.28192 -2.55847,-0.0202 z m 18.86259,-1.89117 c 0,-0.132 0.33943,-0.30828 0.75429,-0.39173 0.41485,-0.0834 1.34285,-0.61088 2.06221,-1.17207 1.28555,-1.00288 2.01829,-1.126013 1.2683,-0.21312 -1.02329,1.24555 -4.0848,2.57733 -4.0848,1.77692 z m -8.70348,-0.28959 c -1.13463,-0.18736 -1.66005,-0.44402 -1.41355,-0.69052 0.0676,-0.0676 0.73621,-0.0287 1.48572,0.0865 1.60499,0.24671 3.54254,-0.22063 5.03682,-1.21488 1.70503,-1.134484 4.02317,-4.123723 5.78303,-7.457212 0.80905,-1.532485 1.37717,-2.142194 1.37717,-1.477985 0,0.310406 -1.96212,3.87388 -2.76969,5.030136 -1.71513,2.455659 -3.40522,4.093491 -5.02467,4.869281 -1.95718,0.93759 -2.89174,1.11609 -4.47483,0.85469 z m -27.74424,-7.250428 c -0.18111,-0.809297 -0.75618,-2.362212 -1.27793,-3.450922 -0.52175,-1.08871 -0.94864,-2.100128 -0.94864,-2.247596 0,-0.682614 0.70775,0.305947 1.64197,2.293465 0.80215,1.706558 1.05761,2.05448 1.17602,1.601679 0.17368,-0.664151 -0.24156,-2.386143 -0.63386,-2.628597 -0.14527,-0.08978 -0.25969,-0.371957 -0.25426,-0.627053 0.0163,-0.765588 1.29162,0.997384 1.49124,2.061414 0.11296,0.602149 0.0236,1.226378 -0.25558,1.786091 -0.2763,0.553851 -0.36833,1.185119 -0.25829,1.771697 0.28631,1.526154 -0.32666,1.021691 -0.68067,-0.560178 z m 10.11629,-0.870907 c 0,-0.890293 1.15359,-2.623539 2.1755,-3.268639 0.72467,-0.457465 1.12638,-0.943618 1.25189,-1.515027 0.27903,-1.270454 1.4134,-2.473978 2.33181,-2.473978 0.61086,0 0.92865,0.244848 1.51297,1.165714 0.40682,0.641143 1.12787,1.357529 1.60233,1.59197 0.51632,0.255128 1.08288,0.878282 1.41122,1.552189 l 0.54857,1.125933 0.0677,-2.976633 c 0.0372,-1.637148 -0.0592,-3.310317 -0.21422,-3.718154 -0.2362,-0.621234 -0.18752,-0.829475 0.30004,-1.283713 1.23011,-1.146019 4.80846,0.131549 5.92033,2.113714 1.14697,2.044748 1.9246,6.697896 1.19473,7.14898 -0.16788,0.103758 -0.27429,-0.326812 -0.27429,-1.109935 0,-1.543267 -0.6644,-4.224176 -1.40817,-5.682091 -0.74775,-1.465718 -3.40572,-2.742385 -4.68638,-2.25095 -0.30701,0.117811 -0.35715,0.929119 -0.26277,4.251428 0.0869,3.058881 0.0333,4.105834 -0.21007,4.105834 -0.20798,0 -0.2597,0.211162 -0.14231,0.581023 0.12875,0.405661 0.0792,0.545959 -0.16411,0.464848 -0.19169,-0.0639 -0.56499,-0.780187 -0.82956,-1.591758 -0.45076,-1.382712 -1.35109,-2.451218 -2.07715,-2.465157 -0.17472,-0.0034 -0.66844,-0.564822 -1.09715,-1.247706 -1.0474,-1.668382 -1.62555,-1.562569 -2.71975,0.497772 -0.48787,0.918641 -1.25148,1.865067 -1.81223,2.246108 -0.8826,0.599747 -1.87035,2.109696 -1.87035,2.859179 0,0.165773 -0.12343,0.301405 -0.27428,0.301405 -0.15086,0 -0.27429,-0.19006 -0.27429,-0.422356 z m -7.98365,-4.312489 c -1.2182,-3.381883 -1.27026,-3.608808 -0.97805,-4.263679 0.15001,-0.33618 0.69313,-0.871046 1.20692,-1.188591 1.11253,-0.687577 2.77409,-0.579612 3.89104,0.25283 0.66039,0.492177 0.71491,0.702247 0.78832,3.037231 0.0503,1.600624 -0.0241,2.508482 -0.20571,2.508482 -0.15874,0 -0.28458,-0.608082 -0.28458,-1.37515 0,-0.756333 -0.14261,-1.65119 -0.31692,-1.988571 -0.1743,-0.337382 -0.40047,-0.793352 -0.50259,-1.013267 -0.30773,-0.662709 -1.80953,-0.907386 -2.71031,-0.441572 -1.09122,0.564288 -1.15468,1.108729 -0.42055,3.607904 0.68977,2.34819 0.7708,2.858228 0.45322,2.852954 -0.11314,-0.0019 -0.5275,-0.896736 -0.92079,-1.988571 z m 36.75555,-1.779441 c 2.08848,-4.114901 2.85166,-6.344847 2.71944,-7.945992 -0.0731,-0.885076 -0.23215,-1.108506 -1.08655,-1.526245 l -1.00092,-0.48938 -1.19336,0.830465 c -0.65635,0.456756 -1.87222,1.509022 -2.70194,2.33837 -2.31306,2.312047 -2.84056,1.976341 -1.58609,-1.009403 0.43035,-1.024256 0.87102,-2.571291 0.97926,-3.437857 0.14124,-1.130704 0.3224,-1.599759 0.6416,-1.661231 0.82482,-0.158847 0.85098,1.289753 0.0697,3.862714 -0.10442,0.343889 0.29244,0.1577 1.31292,-0.615962 0.80441,-0.609858 1.55057,-1.109364 1.65812,-1.110013 0.46587,-0.0028 3.1093,1.169216 3.2948,1.460826 0.29643,0.465996 0.25481,2.614614 -0.0753,3.886565 -0.44706,1.722643 -4.16596,9.188572 -4.57697,9.188572 -0.23413,0 0.33046,-1.377993 1.54523,-3.771429 z m 5.29361,2.766349 c -0.66625,-1.267484 -0.69241,-4.544936 -0.0447,-5.593027 0.43532,-0.704363 0.55265,-0.07472 0.24948,1.338876 -0.22256,1.03779 -0.2178,1.804604 0.0183,2.941778 0.33197,1.599126 0.23315,2.180397 -0.22311,1.312373 z m -34.4255,-8.04896 c -0.9018,-1.605614 -2.10858,-5.016991 -2.10858,-5.960605 0,-1.02874 0.4743,-1.667746 1.70325,-2.294709 1.58381,-0.807997 3.62723,-0.617762 4.52061,0.420853 0.73159,0.850527 0.80711,1.403108 0.2224,1.62748 -0.25072,0.09621 -0.58187,-0.103291 -0.84954,-0.511802 -0.25236,-0.385156 -0.81619,-0.7403 -1.32763,-0.836247 -1.14766,-0.215302 -2.78455,0.460577 -3.03627,1.253693 -0.34456,1.085596 0.15916,3.536174 1.11424,5.420756 0.97245,1.918846 1.08253,2.254808 0.73865,2.254342 -0.11314,-1.53e-4 -0.55285,-0.618346 -0.97713,-1.373761 z m 17.91428,-2.412929 c 0,-0.464679 2.41811,-3.573035 3.15543,-4.056149 0.56425,-0.369711 0.84172,-0.401903 1.37395,-0.159404 0.81311,0.370476 1.07753,1.301113 0.833,2.931749 -0.26832,1.789268 -0.78198,1.574746 -0.5562,-0.232289 0.14614,-1.169677 0.0913,-1.554581 -0.2736,-1.919456 -0.64666,-0.646664 -1.27817,-0.233845 -2.78687,1.8218 -1.22004,1.662326 -1.74571,2.148261 -1.74571,1.613749 z m -3.84,-3.590025 c 0,-0.135061 0.38114,-1.141226 0.84697,-2.235921 0.46583,-1.094695 0.9151,-2.650477 0.99837,-3.457292 0.0833,-0.806815 0.24436,-1.466936 0.35797,-1.466936 0.43402,0 0.48934,0.825964 0.1524,2.275416 -0.58339,2.509673 -2.35571,6.184703 -2.35571,4.884733 z m -18.35637,-4.792413 c -0.89733,-1.568368 -1.75237,-3.744711 -1.55052,-3.946559 0.21184,-0.211843 0.70689,0.223739 0.70689,0.62198 0,0.210215 0.49371,1.319652 1.09714,2.465414 1.19422,2.267528 1.21732,2.331429 0.84299,2.331429 -0.13979,0 -0.63321,-0.662519 -1.0965,-1.472264 z m 37.15298,-2.024879 c -0.20896,-2.294956 -0.78178,-3.843735 -1.90209,-5.142857 l -0.7096,-0.822857 -0.52562,0.617917 c -0.2891,0.339855 -0.59814,1.111283 -0.68675,1.714286 -0.0886,0.603003 -0.23369,1.590083 -0.32238,2.193511 -0.27031,1.839204 -0.73929,1.302475 -0.51917,-0.594166 0.34581,-2.979458 0.99612,-4.342977 2.07132,-4.342977 0.56645,0 2.01068,1.734445 2.5812,3.099897 0.50449,1.207407 0.88354,5.40296 0.48814,5.40296 -0.15482,0 -0.3686,-0.956571 -0.47505,-2.125714 z m -32.72652,-0.137143 c -0.47838,-0.641143 -1.84806,-2.258057 -3.04373,-3.593142 -3.14675,-3.513658 -5.34527,-8.204919 -4.67337,-9.972153 0.41273,-1.085563 1.41052,-1.340586 2.71668,-0.69435 0.61867,0.306094 1.38497,0.488512 1.70289,0.405373 0.33821,-0.08844 0.70328,0.01356 0.87988,0.245839 0.16602,0.218349 0.7647,0.679638 1.33041,1.025086 0.61288,0.374247 1.02858,0.840752 1.02858,1.154289 0,0.874714 -0.21015,0.795932 -3.46938,-1.300662 -1.86718,-1.201112 -2.62012,-1.471829 -3.19649,-1.149279 -1.10354,0.617575 -0.13299,4.127818 1.69501,6.130428 0.41311,0.452571 1.44442,1.686857 2.29179,2.742857 0.84737,1.056 1.99249,2.352 2.5447,2.88 1.06757,1.020758 1.78008,2.168079 1.78008,2.866379 0,0.771557 -0.70378,0.443105 -1.58705,-0.740665 z m 12.22743,-0.513138 c -0.0618,-0.185322 0.0492,-0.959435 0.24651,-1.720251 0.65743,-2.534451 0.22573,-5.943323 -1.02041,-8.057631 -1.07139,-1.817794 -1.43756,-3.775997 -1.23672,-6.613525 0.27149,-3.835553 0.90081,-6.137919 1.81085,-6.624953 1.05963,-0.567097 1.74585,0.344397 2.06381,2.741312 0.11781,0.888079 0.0819,1.382472 -0.10049,1.382472 -0.15613,0 -0.36569,-0.586286 -0.46568,-1.302857 -0.1,-0.716571 -0.33809,-1.5921 -0.5291,-1.945619 -0.32077,-0.593665 -0.38139,-0.608671 -0.7936,-0.196459 -1.63702,1.637021 -1.58375,8.188643 0.0938,11.538438 1.57388,3.142738 2.00356,6.406509 1.26312,9.594398 -0.30621,1.318347 -1.06536,2.004884 -1.3321,1.204675 z m 3.55487,-3.417331 c -0.0979,-0.0979 0.18814,-1.181283 0.63566,-2.407511 0.44752,-1.226228 1.00767,-3.186964 1.24479,-4.357191 0.3954,-1.951363 0.39364,-2.312691 -0.0212,-4.360145 -0.24879,-1.227853 -0.50734,-3.867504 -0.57455,-5.865891 -0.0746,-2.219395 -0.28187,-4.085994 -0.53249,-4.796311 -0.22566,-0.639584 -0.41029,-1.3456 -0.41029,-1.568924 0,-0.659847 -1.58768,-2.468094 -2.3308,-2.654605 -0.37749,-0.09474 -0.68634,-0.355052 -0.68634,-0.578464 0,-0.501543 -0.001,-0.501566 1.04773,0.02169 1.28024,0.638668 2.96186,2.769427 3.4762,4.404659 0.29214,0.92878 0.49092,2.719359 0.55627,5.010735 0.0559,1.961027 0.22349,4.035384 0.37236,4.609681 0.83157,3.207826 0.53705,6.154416 -1.04559,10.460615 -0.70216,1.910521 -1.24742,2.565964 -1.73172,2.081663 z m 16.41695,-1.64625 c -0.50732,-1.32207 0.21211,-5.053198 1.27875,-6.631805 0.43638,-0.645838 0.76173,-1.611279 0.87841,-2.606608 0.10897,-0.929528 0.29678,-1.51196 0.45586,-1.413649 0.16203,0.100144 0.19626,0.761628 0.0853,1.649418 -0.15586,1.247493 -0.11639,1.48222 0.24924,1.48222 0.65965,0 0.24366,0.746747 -0.52322,0.93922 -0.36348,0.09123 -0.83418,0.503511 -1.04599,0.916183 -0.59553,1.160266 -1.07125,3.874274 -0.88417,5.044215 0.16639,1.040559 -0.17066,1.463953 -0.49421,0.620806 z m -24.69908,-2.243224 c -0.31601,-2.249773 -0.67834,-3.083027 -1.34011,-3.081889 -1.07148,0.0018 -2.33486,1.028697 -3.10812,2.526229 -0.48311,0.935617 -0.78411,1.286971 -0.84861,0.990575 -0.12148,-0.558156 0.77613,-2.381554 1.49029,-3.027368 0.90318,-0.816754 2.50521,-1.359953 3.08916,-1.047436 0.81246,0.434816 1.78288,4.394298 1.16985,4.773173 -0.15457,0.09553 -0.34786,-0.388608 -0.45246,-1.133284 z m -22.28674,-1.025567 c -0.63737,-0.446431 -1.72924,-2.068996 -1.72924,-2.569722 0,-0.596793 0.42798,-0.302763 0.93812,0.644503 0.28286,0.525242 0.80465,1.145231 1.15952,1.377752 0.62268,0.407997 0.87081,0.958692 0.43197,0.958692 -0.1173,0 -0.47746,-0.185051 -0.80037,-0.411225 z m 37.09873,-1.165918 c 0.10302,-0.716572 0.38829,-1.92 0.63395,-2.674286 0.37455,-1.150046 0.56616,-1.385221 1.18698,-1.456871 0.70879,-0.0818 0.77166,0.01749 1.47625,2.331428 0.40476,1.32928 0.80099,2.587999 0.88052,2.797155 0.0904,0.237794 0.002,0.332742 -0.23604,0.253401 -0.20936,-0.06978 -0.69455,-1.157229 -1.0782,-2.416542 -0.38365,-1.259312 -0.84053,-2.337319 -1.01528,-2.395571 -0.32513,-0.108376 -1.0275,1.932454 -1.32004,3.835571 -0.087,0.565715 -0.28351,1.028572 -0.43677,1.028572 -0.17587,0 -0.20957,-0.480596 -0.0914,-1.302857 z m 9.23694,-4.8 c 0.14588,-2.32087 0.75759,-4.32 1.32187,-4.32 0.19776,0 0.24025,0.181144 0.11258,0.48 -0.5173,1.210934 -0.95079,3.332831 -0.95079,4.65406 0,0.902333 -0.11803,1.448797 -0.31294,1.448797 -0.22062,0 -0.27099,-0.667662 -0.17072,-2.262857 z m -44.05838,1.114527 c -0.0571,-0.198133 -0.2381,-0.853956 -0.40215,-1.457384 -0.20111,-0.73971 -0.84438,-1.655633 -1.97453,-2.811429 -1.16133,-1.187692 -1.52756,-1.714286 -1.19221,-1.714286 0.4567,0 2.49412,1.956912 3.28405,3.154286 0.50504,0.765536 0.94128,2.847557 0.63615,3.036136 -0.13608,0.08411 -0.29417,-0.0092 -0.35131,-0.207323 z m 14.91919,0.01933 c 0,-0.16838 0.60387,-1.074552 1.34193,-2.013716 0.73806,-0.939164 1.54351,-2.097399 1.7899,-2.573855 C 143.27998,50.571242 144,50.455751 144,51.407562 c 0,0.600843 -0.61176,1.545944 -2.72113,4.203858 -0.68542,0.863676 -1.66744,1.208375 -1.66744,0.585292 z m -10.57016,-5.522427 c -0.42283,-0.641142 -1.48445,-1.912685 -2.35917,-2.82565 -2.46906,-2.577027 -2.92724,-4.413896 -1.40053,-5.614808 0.88842,-0.698829 1.2664,-0.680968 3.0375,0.143537 0.80406,0.374317 2.18228,0.796585 3.0627,0.938372 0.88042,0.141788 1.97527,0.451465 2.43302,0.688173 1.03549,0.535473 1.51243,0.549395 1.31635,0.03843 -0.0827,-0.215573 -0.23309,-0.832716 -0.33415,-1.371429 -0.14756,-0.786534 -0.0986,-0.979478 0.24855,-0.979478 0.55337,0 0.93321,0.718907 1.17337,2.220808 0.10487,0.655803 0.42386,1.381196 0.70887,1.611983 0.56651,0.458733 1.15134,3.527457 0.7532,3.952201 -0.44758,0.477496 -1.0867,-0.07749 -1.0867,-0.943651 0,-1.173614 -1.59126,-2.804202 -3.48771,-3.573918 -2.11904,-0.860054 -2.29139,-0.584743 -1.50121,2.398076 0.55627,2.099862 0.61698,2.945415 0.18012,2.508553 -0.27057,-0.270574 -1.22548,-3.914187 -1.22548,-4.676036 0,-0.415337 -0.12343,-0.755159 -0.27429,-0.755159 -0.15085,0 -0.5118,-0.237514 -0.80209,-0.527809 -1.21297,-1.212971 -3.02114,-1.784844 -3.83686,-1.213492 -1.14417,0.801412 -0.61097,2.756876 1.22272,4.484159 1.11282,1.04825 3.41623,4.02761 3.41623,4.418745 0,0.558922 -0.52396,0.170889 -1.24444,-0.921603 z m 16.23607,-6.290013 c 0.0902,-2.009064 0.26099,-3.759346 0.37946,-3.889516 0.56964,-0.625901 0.81008,0.277203 0.77932,2.927146 -0.0393,3.383894 -0.23181,4.4051 -0.85303,4.524735 -0.4311,0.08302 -0.4563,-0.210538 -0.30575,-3.562365 z M 130.4074,38.194285 c -1.03778,-1.32 -1.976,-2.464412 -2.08493,-2.543138 -0.33711,-0.24363 -1.60247,-2.197774 -1.60247,-2.474757 0,-0.557089 0.5298,-0.22008 1.09714,0.697895 0.73688,1.192289 0.85572,1.208087 0.52943,0.07038 -0.31319,-1.092007 -0.32788,-1.85324 -0.0358,-1.85324 0.12065,0 0.44727,0.915232 0.72582,2.033847 0.41138,1.651997 0.78217,2.379805 1.97493,3.876518 1.23176,1.545651 1.78722,2.592492 1.37559,2.592492 -0.0511,0 -0.94196,-1.08 -1.97973,-2.4 z m 15.06242,1.163649 c -0.26231,-0.68359 0.16592,-2.304723 0.68173,-2.580777 0.56095,-0.300213 2.78559,0.570451 2.78559,1.090206 0,0.195365 -0.18422,0.240197 -0.48,0.116814 -2.2906,-0.955507 -2.38753,-0.926814 -2.38753,0.706732 0,1.089787 -0.30668,1.430847 -0.59979,0.667025 z m 11.08145,-0.855581 c -0.10947,-0.169992 -0.1733,-1.58942 -0.14184,-3.154286 0.0597,-2.9676 -0.25362,-4.569574 -1.10904,-5.671275 -0.43235,-0.556835 -0.58546,-0.595693 -1.29066,-0.327575 -0.59753,0.22718 -0.95435,0.221658 -1.40928,-0.02181 -1.38602,-0.741779 -2.01353,0.604386 -2.01606,4.324977 -9.2e-4,1.351153 -0.12311,2.321806 -0.30654,2.435173 -0.21914,0.135437 -0.277,-0.693533 -0.20554,-2.944708 0.076,-2.393909 0.21236,-3.305526 0.57796,-3.863493 0.45916,-0.700768 0.56329,-0.726703 2.57653,-0.641719 1.83005,0.07725 2.16269,0.172102 2.60425,0.742606 0.63651,0.822379 1.02926,2.147801 1.20977,4.082614 0.1642,1.760134 -0.1983,5.49178 -0.48955,5.039496 z m -9.53413,-3.988457 c 0,-0.901655 0.66637,-4.025598 0.9977,-4.677194 0.41705,-0.820184 1.32999,-1.430436 1.75083,-1.170342 0.45663,0.282214 0.29661,0.682211 -0.27291,0.682211 -0.73099,0 -1.24271,1.08804 -1.64475,3.497143 -0.18252,1.093714 -0.44414,1.988571 -0.58136,1.988571 -0.13723,0 -0.24951,-0.144175 -0.24951,-0.320389 z m -6.73596,-7.291039 c -0.61537,-2.333219 -2.21283,-5.576751 -3.62884,-7.368144 -0.59968,-0.758649 -1.29564,-1.776402 -1.54659,-2.261672 -0.25094,-0.48527 -0.88268,-1.085656 -1.40386,-1.334191 -0.52118,-0.248534 -0.94761,-0.614163 -0.94761,-0.812508 0,-0.4923 0.12246,-0.463357 1.36907,0.323593 0.59613,0.376322 1.28663,1.086036 1.53443,1.577143 0.24781,0.491107 0.74077,1.203791 1.09547,1.583743 1.14007,1.221213 3.12933,5.004582 3.82652,7.277619 0.73544,2.39776 0.80625,2.865846 0.43354,2.865846 -0.1341,0 -0.46356,-0.833143 -0.73213,-1.851429 z m -5.6069,-0.86691 c 0,-0.137372 -0.86444,-1.11079 -1.92098,-2.163151 -2.3258,-2.316593 -2.94092,-3.537975 -2.35371,-4.673513 0.46871,-0.906393 1.19675,-1.568656 1.44812,-1.317287 0.0975,0.09752 -0.0906,0.462493 -0.41806,0.811049 -1.18919,1.265833 -0.74569,2.315636 2.21606,5.245616 1.87989,1.859721 2.17889,2.347053 1.44,2.347053 -0.22628,0 -0.41143,-0.112395 -0.41143,-0.249767 z"
       id="path1" />
  </g>
</svg>
