<?xml version="1.0" encoding="UTF-8" standalone="no"?>
<!-- Created with Inkscape (http://www.inkscape.org/) -->

<svg
   version="1.1"
   id="svg1"
   width="294.58286"
   height="294.58286"
   viewBox="0 0 294.58286 294.58286"
   sodipodi:docname="deer-vah.svg"
   inkscape:version="1.4 (86a8ad7, 2024-10-11)"
   xmlns:inkscape="http://www.inkscape.org/namespaces/inkscape"
   xmlns:sodipodi="http://sodipodi.sourceforge.net/DTD/sodipodi-0.dtd"
   xmlns="http://www.w3.org/2000/svg"
   xmlns:svg="http://www.w3.org/2000/svg">
  <defs
     id="defs1" />
  <sodipodi:namedview
     id="namedview1"
     pagecolor="#ffffff"
     bordercolor="#000000"
     borderopacity="0.25"
     inkscape:showpageshadow="2"
     inkscape:pageopacity="0.0"
     inkscape:pagecheckerboard="0"
     inkscape:deskcolor="#d1d1d1"
     inkscape:zoom="2.766624"
     inkscape:cx="147.47215"
     inkscape:cy="147.29143"
     inkscape:window-width="1920"
     inkscape:window-height="1017"
     inkscape:window-x="-8"
     inkscape:window-y="-8"
     inkscape:window-maximized="1"
     inkscape:current-layer="g1" />
  <g
     inkscape:groupmode="layer"
     inkscape:label="Image"
     id="g1">
    <path
       style="fill:#000000"
       d="m 157.16571,284.59126 c -2.47377,-0.68654 -3.52643,-1.53817 -5.50255,-4.45173 -1.28131,-1.88914 -2.42722,-3.17399 -3.31983,-3.72236 -0.42459,-0.26084 -1.35954,-1.26075 -2.07766,-2.22203 -0.71812,-0.96127 -2.41653,-3.19926 -3.77424,-4.9733 -3.41737,-4.46526 -4.62883,-6.23309 -6.07338,-8.8626 -1.12392,-2.04588 -1.59274,-3.18247 -3.41974,-8.29067 -0.67037,-1.87434 -1.21347,-4.37224 -1.61015,-7.40571 -0.16769,-1.28229 -0.54172,-3.68915 -0.8312,-5.34858 -0.4394,-2.51893 -0.52477,-4.3306 -0.51701,-10.97142 0.006,-5.39371 0.13734,-8.8814 0.40705,-10.83429 0.41913,-3.0348 1.75561,-7.80055 2.57679,-9.18857 0.26775,-0.45257 0.64206,-1.31657 0.83178,-1.92 0.18973,-0.60343 0.77039,-1.96114 1.29035,-3.01714 0.51996,-1.056 1.2586,-2.90676 1.64142,-4.11279 0.38283,-1.20603 1.00505,-2.87232 1.38272,-3.70286 0.62621,-1.3771 1.03071,-3.44792 1.98265,-10.15007 0.13927,-0.98057 0.63914,-3.38743 1.11081,-5.34857 0.57271,-2.38129 0.94887,-4.86 1.13242,-7.46215 l 0.27485,-3.89644 -1.26925,-3.78356 c -0.96186,-2.86727 -1.48788,-4.01605 -2.17204,-4.74356 -1.32125,-1.40498 -5.04599,-7.18053 -6.36807,-9.87429 -1.5294,-3.11616 -1.79559,-3.97305 -3.02481,-9.73714 l -1.05287,-4.93715 -0.001,-6.99428 -0.001,-6.99429 1.02513,-3.3776 c 1.1798,-3.88721 1.91199,-5.2694 3.721,-7.02427 2.51945,-2.44405 5.34043,-3.9062 9.64633,-4.99979 5.54025,-1.40708 10.33276,-1.79753 13.16887,-1.07289 1.98925,0.50827 6.9903,2.4091 9.73714,3.70095 2.41189,1.13432 5.65704,3.83642 7.22397,6.0151 1.34489,1.86995 3.52491,6.32449 4.4977,9.19039 0.7862,2.31617 0.85865,2.84684 0.95989,7.03097 0.10213,4.22117 0.0612,4.70106 -0.60799,7.13143 -1.03535,3.76007 -1.6447,6.15215 -2.18837,8.59072 -0.52939,2.3745 -3.00368,7.67372 -4.85784,10.40409 -1.47339,2.16966 -2.06339,3.7582 -2.71994,7.32327 -1.28263,6.96464 -1.81566,14.4304 -1.3473,18.87058 0.44802,4.2472 0.90062,5.81669 1.96434,6.81177 1.19769,1.1204 2.65859,4.36873 4.55383,10.12547 0.894,2.71553 1.81372,5.30753 2.0438,5.76 0.66547,1.30869 3.77135,10.75423 4.32908,13.16553 0.27915,1.20685 0.58547,3.24343 0.68072,4.52571 0.29488,3.96978 1.00182,8.78512 1.40247,9.55305 0.71991,1.37983 0.26842,6.33657 -0.93082,10.21926 -0.30621,0.9914 -0.76769,3.1505 -1.02552,4.79798 -0.95287,6.0889 -4.38691,14.59061 -7.16086,17.72826 -0.49527,0.56021 -1.24431,1.53365 -1.66454,2.16321 -0.42023,0.62956 -1.22774,1.8375 -1.79448,2.68431 -0.56673,0.8468 -1.22786,1.97165 -1.46918,2.49965 -0.24131,0.528 -1.04277,2.21849 -1.781,3.75664 -0.73824,1.53816 -1.34225,2.92673 -1.34225,3.08572 0,0.15898 -0.10845,0.28906 -0.24101,0.28906 -0.13255,0 -0.39644,0.37525 -0.58641,0.83388 -0.49803,1.20236 -2.20611,2.55036 -3.91363,3.08861 -0.81323,0.25635 -1.52946,0.45505 -1.59163,0.44156 -0.0622,-0.0135 -0.66846,-0.17867 -1.34732,-0.36707 z"
       id="path1" />
  </g>
</svg>
