<?xml version="1.0" encoding="UTF-8" standalone="no"?>
<!-- Created with Inkscape (http://www.inkscape.org/) -->

<svg
   version="1.1"
   id="svg1"
   width="294.58286"
   height="294.58286"
   viewBox="0 0 294.58286 294.58286"
   sodipodi:docname="deer-fur.svg"
   inkscape:version="1.4 (86a8ad7, 2024-10-11)"
   xmlns:inkscape="http://www.inkscape.org/namespaces/inkscape"
   xmlns:sodipodi="http://sodipodi.sourceforge.net/DTD/sodipodi-0.dtd"
   xmlns="http://www.w3.org/2000/svg"
   xmlns:svg="http://www.w3.org/2000/svg">
  <defs
     id="defs1" />
  <sodipodi:namedview
     id="namedview1"
     pagecolor="#ffffff"
     bordercolor="#000000"
     borderopacity="0.25"
     inkscape:showpageshadow="2"
     inkscape:pageopacity="0.0"
     inkscape:pagecheckerboard="0"
     inkscape:deskcolor="#d1d1d1"
     inkscape:zoom="2.766624"
     inkscape:cx="147.47215"
     inkscape:cy="147.29143"
     inkscape:window-width="1920"
     inkscape:window-height="1017"
     inkscape:window-x="-8"
     inkscape:window-y="-8"
     inkscape:window-maximized="1"
     inkscape:current-layer="g1" />
  <g
     inkscape:groupmode="layer"
     inkscape:label="Image"
     id="g1">
    <path
       style="fill:#000000"
       d="m 175.49217,283.11596 c -1.07482,-0.54469 -1.81823,-1.21994 -2.82931,-2.5699 -1.75762,-2.34672 -2.24621,-2.47852 -4.55921,-1.22987 -0.96215,0.51941 -2.1985,1.02248 -2.74744,1.11794 -0.77123,0.13412 -1.07546,0.3604 -1.33857,0.9956 -0.61407,1.48251 -0.91743,1.29104 -0.71291,-0.44997 0.30014,-2.55499 0.94957,-4.72882 2.14625,-7.18404 0.88946,-1.8249 1.35511,-2.443 2.36266,-3.13622 1.67563,-1.15286 3.70828,-1.35942 5.12897,-0.52119 0.54224,0.31993 1.02681,0.58169 1.07683,0.58169 0.05,0 0.17775,-0.46286 0.28386,-1.02857 0.31659,-1.68785 2.62659,-6.90554 3.25083,-7.34278 0.31865,-0.22319 0.78117,-0.40579 1.02783,-0.40579 0.34366,0 0.48764,-0.36856 0.6161,-1.57715 0.23701,-2.22986 0.90772,-4.29629 1.70013,-5.23801 0.37342,-0.44379 0.67895,-1.00077 0.67895,-1.23774 0,-0.49567 2.43038,-2.91853 2.92759,-2.91853 0.60527,0 0.65962,-0.50755 0.24555,-2.293 -0.30417,-1.31157 -0.34567,-2.16446 -0.16062,-3.30142 0.27275,-1.67589 -0.26946,-5.41582 -0.98693,-6.80729 -0.22431,-0.43503 -0.44196,-1.97439 -0.52355,-3.70286 -0.0768,-1.62706 -0.19568,-4.09487 -0.26417,-5.48401 -0.11827,-2.39877 -0.0892,-2.56766 0.57747,-3.36 0.5485,-0.65185 0.92323,-0.83428 1.71373,-0.83428 0.55645,0 1.29403,0.19773 1.63907,0.43941 0.34503,0.24167 0.68499,0.38175 0.75546,0.31128 0.0705,-0.0705 -0.28772,-1.16306 -0.79596,-2.42798 -1.67929,-4.17943 -2.07152,-5.88101 -2.16296,-9.38337 l -0.0847,-3.24352 0.86897,-0.77826 c 1.55232,-1.39029 1.62234,-1.78643 0.53939,-3.05161 -0.52326,-0.61132 -1.45081,-1.53897 -2.06121,-2.06146 -0.77345,-0.66203 -1.28594,-1.43298 -1.69089,-2.54358 -0.42352,-1.16154 -0.90388,-1.86346 -1.7717,-2.58887 -1.42234,-1.18893 -2.04215,-2.6819 -2.73499,-6.58792 -0.57628,-3.24889 -0.46827,-5.63193 0.30326,-6.6906 l 0.54914,-0.75352 -0.73369,-3.29143 c -0.93012,-4.17266 -1.17427,-8.07604 -0.80889,-12.93196 0.4727,-6.2822 1.50066,-9.42232 3.0845,-9.42232 0.43109,0 0.49268,-0.13603 0.35187,-0.77712 -0.18691,-0.85101 0.45916,-5.72664 1.13277,-8.5486 0.30274,-1.26827 0.47327,-3.95996 0.59082,-9.32571 0.22749,-10.38467 0.22618,-10.49105 -0.19793,-16.01276 l -0.37668,-4.90419 -2.46345,-3.87295 c -1.3549,-2.13013 -3.2375,-5.04553 -4.18355,-6.47867 -0.94606,-1.43315 -2.04439,-3.25376 -2.44073,-4.04581 -0.86174,-1.72209 -3.92142,-6.282948 -5.40766,-8.06083 -0.70978,-0.849057 -1.06363,-1.542752 -1.06363,-2.08513 0,-1.498862 4.83066,-10.624115 6.40787,-12.104637 0.51105,-0.47972 0.87527,-0.604989 1.38617,-0.476761 1.17323,0.294463 1.3458,1.044018 1.37107,5.955164 l 0.0235,4.558028 0.86443,0.655701 c 0.86636,0.657165 3.387,4.327618 3.387,4.932021 0,0.176982 -0.2488,0.724354 -0.55289,1.216374 -0.76744,1.24175 -0.50991,1.72923 2.43158,4.60281 1.35992,1.32852 2.82884,2.99481 3.26426,3.70285 4.57205,7.43468 4.63676,7.59932 3.99226,10.15789 -0.40469,1.60651 -0.40368,1.6141 0.58897,4.46079 0.54689,1.56834 1.10581,3.34094 1.24204,3.93909 0.33495,1.47073 -0.25876,4.44746 -1.34222,6.72959 -0.46554,0.98057 -0.84699,2.02971 -0.84767,2.33143 -6.8e-4,0.30171 -0.26171,0.97584 -0.58006,1.49805 -1.58673,2.60283 -0.38198,9.40617 2.20508,12.45228 1.17867,1.38782 1.58501,2.16528 2.01588,3.85699 0.5073,1.99183 0.38816,2.49184 -0.92001,3.86125 -0.94814,0.99253 -1.06549,1.28022 -1.23072,3.01714 -0.23026,2.42073 -0.95618,4.16658 -1.8782,4.51713 -0.91026,0.34608 -1.11348,1.18247 -1.11339,4.5824 l 7e-5,2.79096 1.81643,3.65475 c 1.78834,3.59826 2.30333,5.41009 2.20822,7.76905 -0.10669,2.64623 -0.0657,2.90117 0.60874,3.7854 0.38049,0.49884 0.88117,1.36023 1.11263,1.91419 0.38172,0.91356 0.37888,1.1162 -0.0305,2.17952 -0.58591,1.52182 -0.54059,2.87347 0.12087,3.60487 1.60698,1.7769 3.3531,6.22496 3.45967,8.81316 0.0416,1.01006 0.35424,2.36173 0.80945,3.4995 0.40793,1.01958 0.87714,2.52829 1.04271,3.35269 0.28038,1.39613 0.2505,1.59877 -0.43584,2.9553 -0.82756,1.63564 -0.80667,1.85913 0.52665,5.63225 0.90824,2.5702 0.76147,3.43991 -0.84687,5.01838 -0.6655,0.65314 -1.21,1.32959 -1.21,1.50323 0,0.17364 -0.52457,0.91165 -1.16572,1.64002 l -1.16571,1.32433 0.0124,2.34858 c 0.0158,2.97386 0.33999,5.4043 0.77987,5.84589 1.02538,1.02936 1.30362,1.81675 1.10812,3.13581 -0.15127,1.02057 -0.42094,1.53481 -1.18527,2.2602 -0.97133,0.92184 -0.9891,0.97709 -0.97076,3.01714 0.0177,1.96667 0.077,2.16057 1.10634,3.61597 0.59821,0.84582 1.31727,2.04704 1.59791,2.66939 l 0.51025,1.13152 -1.16978,1.26906 c -1.10406,1.19776 -1.16039,1.33759 -1.00259,2.48883 0.13333,0.97275 0.0541,1.37276 -0.39137,1.97526 -0.62354,0.84337 -0.7149,1.41751 -0.42602,2.677 0.3831,1.67025 -1.17759,2.3628 -3.61927,1.60603 -0.85872,-0.26615 -1.98322,-0.49732 -2.4989,-0.51372 -0.8167,-0.026 -0.96826,0.0763 -1.17533,0.79305 -0.40735,1.41003 0.0357,5.49029 0.74927,6.8997 0.62528,1.23508 0.62703,1.26487 0.14005,2.38692 -0.27122,0.62493 -0.82859,1.44481 -1.23859,1.82196 -0.41001,0.37714 -0.98566,1.15413 -1.27923,1.72664 -0.29357,0.57251 -0.9848,1.54019 -1.53609,2.15039 -0.81895,0.90649 -1.05513,1.03799 -1.29097,0.71879 -0.35105,-0.47513 -1.55413,-0.80598 -1.95885,-0.5387 -0.16181,0.10687 -0.70016,1.08164 -1.19633,2.16615 -0.49617,1.08452 -1.06442,2.03413 -1.26277,2.11025 -0.19836,0.0761 -1.0167,-0.19408 -1.81853,-0.60042 z m -38.60255,-3.50606 c -0.46415,-0.39055 -0.84391,-0.9442 -0.84391,-1.23033 0,-0.39286 -0.31902,-0.59863 -1.30285,-0.84036 -1.02635,-0.25218 -1.63968,-0.66751 -2.88987,-1.95692 -1.65129,-1.70309 -1.86245,-2.19665 -2.31491,-5.41086 -0.1942,-1.37953 -0.2768,-1.51599 -0.96564,-1.59527 -0.41982,-0.0483 -1.24301,0.18856 -1.85961,0.53511 l -1.10635,0.6218 -0.84519,-0.84519 c -0.78018,-0.78017 -0.87128,-1.07456 -1.1842,-3.82654 -0.18644,-1.63974 -0.24372,-3.3184 -0.12727,-3.73036 0.35547,-1.25756 -0.20321,-2.66897 -1.22554,-3.09613 -2.14413,-0.89587 -3.64413,-3.36147 -4.04697,-6.65213 -0.19131,-1.56279 -0.58057,-2.80919 -1.48127,-4.74295 -0.67196,-1.4427 -1.22176,-2.76124 -1.22176,-2.93009 0,-0.45191 -0.94087,-0.67243 -2.01183,-0.47151 -0.98174,0.18417 -2.17983,-0.2633 -3.05907,-1.14255 -0.59989,-0.59988 -0.41536,-1.56483 0.86365,-4.51624 0.81076,-1.8709 1.00524,-2.6767 1.06306,-4.4048 0.0673,-2.00997 0.58831,-4.16854 1.38892,-5.75388 0.20059,-0.39718 0.43515,-1.13775 0.52126,-1.64571 0.0861,-0.50796 0.21759,-1.12517 0.29219,-1.37157 0.21476,-0.7094 -0.412,-3.06341 -0.97612,-3.66617 -0.28244,-0.30177 -0.77928,-1.57587 -1.1041,-2.83133 -0.56909,-2.19953 -0.57513,-2.37431 -0.16599,-4.8 0.34296,-2.0333 0.37074,-3.07113 0.1445,-5.39735 -0.19262,-1.98056 -0.19118,-3.17981 0.005,-3.84 0.95625,-3.22432 0.92666,-3.74012 -0.29561,-5.1524 -0.42887,-0.49554 -0.77895,-1.17439 -0.77795,-1.50857 0.004,-1.22826 1.45693,-2.78402 3.33276,-3.56779 0.72708,-0.30379 1.07059,-0.66176 1.27943,-1.33327 0.82157,-2.64161 0.60865,-7.61193 -0.51279,-11.97019 -0.28316,-1.10043 -0.59619,-2.95186 -0.69562,-4.11428 -0.15768,-1.84347 -0.28586,-2.22463 -1.00321,-2.98334 -0.50494,-0.53405 -0.90641,-1.32819 -1.03996,-2.05714 -0.18802,-1.0262 -0.0969,-1.44784 0.6715,-3.10731 0.48898,-1.056 1.10824,-2.10007 1.37614,-2.32015 0.86451,-0.71022 0.95023,-1.52429 0.65549,-6.22528 -0.2559,-4.08163 -0.36671,-4.75242 -0.95047,-5.75371 -0.99203,-1.70158 -1.54144,-5.25572 -1.15899,-7.49757 0.16812,-0.98552 0.42575,-1.94219 0.57251,-2.12592 0.27285,-0.3416 0.40587,-1.99187 0.64742,-8.03165 0.19854,-4.9646 0.35734,-7.72144 0.48979,-8.50286 0.19667,-1.16031 1.26952,-4.12983 2.02273,-5.59865 0.55598,-1.08419 0.72896,-1.85469 0.77516,-3.45278 0.0862,-2.9827 1.04797,-6.42554 2.12735,-7.61538 0.4982,-0.54919 0.55129,-0.8985 0.45856,-3.01714 -0.19224,-4.39231 -0.11062,-6.21624 0.32816,-7.33319 0.38255,-0.973807 0.38744,-1.328399 0.0435,-3.154286 -0.48558,-2.57763 -0.8906,-5.618176 -0.90635,-6.804033 -0.009,-0.681739 0.20927,-1.109555 0.87938,-1.723203 1.34213,-1.229029 1.79928,-0.997506 3.21903,1.630271 1.34102,2.482068 4.81197,6.46235 6.64382,7.618746 0.58351,0.368351 1.19628,0.966804 1.36171,1.329895 0.26657,0.58505 0.17044,0.80826 -0.84492,1.96177 -0.63015,0.71588 -1.58528,2.02519 -2.12251,2.90957 -0.95118,1.56581 -0.97275,1.66335 -0.82287,3.71962 0.0847,1.16141 0.23416,2.57265 0.33222,3.1361 0.13553,0.77871 0.0396,1.25946 -0.39981,2.00424 -0.31795,0.5389 -0.57998,1.25047 -0.58229,1.58127 -0.002,0.33081 -0.11487,0.77631 -0.25013,0.99 -0.14136,0.22331 -0.1447,0.65481 -0.008,1.01471 0.13093,0.34439 0.3768,1.6687 0.54636,2.94289 0.25476,1.91441 0.23327,2.71714 -0.12377,4.62252 -0.68713,3.66698 -1.17222,4.98287 -2.31608,6.28272 -0.79048,0.89828 -1.25405,1.8353 -1.81778,3.67434 -0.67798,2.21174 -0.73991,2.73968 -0.59526,5.07429 0.0888,1.43314 0.47398,4.704 0.85596,7.26857 0.54436,3.65472 0.69466,5.73029 0.6952,9.6 5.8e-4,4.16512 0.0814,5.15159 0.51712,6.30857 0.89422,2.3747 1.31441,5.73129 1.95198,15.59272 l 0.28105,4.347 -1.02629,4.84157 c -0.76144,3.59216 -1.00916,5.37155 -0.95995,6.8953 0.0365,1.12955 -0.0553,3.23915 -0.20401,4.68801 -0.19243,1.87519 -0.1823,2.8675 0.0352,3.44362 0.24411,0.64672 0.18377,1.41325 -0.30028,3.81485 -0.51639,2.56211 -2.44919,8.8796 -3.61971,11.83128 -0.3175,0.80065 -0.26259,1.04837 0.67546,3.04733 l 1.02105,2.17583 0.0274,4.22124 c 0.0321,4.94478 -0.35506,8.3027 -1.13304,9.82767 -0.69674,1.36573 -0.69546,1.58122 0.0107,1.80536 0.31222,0.0991 0.98965,0.83981 1.50538,1.64604 0.51574,0.80623 1.06433,1.54413 1.2191,1.63978 0.48058,0.29701 1.29692,2.12442 1.94427,4.35233 0.45093,1.55194 0.86918,2.38369 1.53192,3.04643 0.56363,0.56363 0.91164,1.18299 0.91164,1.62246 0,0.42262 0.22874,0.85077 0.56415,1.056 0.31029,0.18985 0.829,0.77718 1.15271,1.30518 0.3237,0.528 2.3309,3.61371 4.46043,6.85714 2.12953,3.24343 4.46771,6.86859 5.19595,8.05592 1.12173,1.82886 1.69521,2.43014 3.75257,3.9345 1.33566,0.97666 2.42848,1.86478 2.42848,1.97362 0,0.10883 0.66178,0.47217 1.47062,0.80741 1.61103,0.66774 2.47785,1.45248 2.7709,2.50855 0.16329,0.58846 0.0332,0.52038 -0.91747,-0.48 -0.8201,-0.86301 -1.32008,-1.16571 -1.92543,-1.16571 -0.44972,0 -0.89612,0.12694 -0.99201,0.28208 -0.27343,0.44242 -4.77811,2.62728 -6.4255,3.11651 -2.0229,0.60074 -2.57646,0.55896 -3.56006,-0.26869 z"
       id="path1" />
  </g>
</svg>
