<?xml version="1.0" encoding="UTF-8" standalone="no"?>
<!-- Created with Inkscape (http://www.inkscape.org/) -->

<svg
   version="1.1"
   id="svg1"
   width="294.58286"
   height="294.58286"
   viewBox="0 0 294.58286 294.58286"
   sodipodi:docname="deer-marble.svg"
   inkscape:version="1.4 (86a8ad7, 2024-10-11)"
   xmlns:inkscape="http://www.inkscape.org/namespaces/inkscape"
   xmlns:sodipodi="http://sodipodi.sourceforge.net/DTD/sodipodi-0.dtd"
   xmlns="http://www.w3.org/2000/svg"
   xmlns:svg="http://www.w3.org/2000/svg">
  <defs
     id="defs1" />
  <sodipodi:namedview
     id="namedview1"
     pagecolor="#ffffff"
     bordercolor="#000000"
     borderopacity="0.25"
     inkscape:showpageshadow="2"
     inkscape:pageopacity="0.0"
     inkscape:pagecheckerboard="0"
     inkscape:deskcolor="#d1d1d1"
     inkscape:zoom="2.766624"
     inkscape:cx="147.47215"
     inkscape:cy="147.29143"
     inkscape:window-width="1920"
     inkscape:window-height="1017"
     inkscape:window-x="-8"
     inkscape:window-y="-8"
     inkscape:window-maximized="1"
     inkscape:current-layer="g1" />
  <g
     inkscape:groupmode="layer"
     inkscape:label="Image"
     id="g1">
    <path
       style="fill:#000000"
       d="m 156.87528,284.57154 c -2.09059,-0.57385 -2.9651,-1.18282 -4.25149,-2.96053 -2.25651,-3.11836 -3.71182,-4.82775 -4.25765,-5.00099 -0.36294,-0.11519 -1.73087,0.42869 -4.1675,1.65697 -3.19157,1.60884 -3.82487,1.83278 -5.27293,1.86451 -0.90514,0.0198 -1.79172,-0.0552 -1.97018,-0.16683 -0.22442,-0.14033 0.12054,-0.85688 1.1187,-2.32378 0.79374,-1.16649 2.47298,-3.91061 3.73163,-6.09803 4.14992,-7.21217 7.26326,-12.39486 12.6488,-21.05612 0.96308,-1.54886 3.53194,-5.68372 5.70857,-9.18857 2.17664,-3.50485 5.06241,-8.47074 6.41282,-11.03531 4.14754,-7.87658 5.51296,-9.6594 13.33927,-17.41715 5.80439,-5.75354 8.70121,-8.83174 12.35198,-13.12538 1.37205,-1.61366 1.50883,-1.70531 1.84959,-1.23929 0.65008,0.88903 1.77007,4.84912 1.86282,6.58657 0.0495,0.92661 0.27684,2.04618 0.50528,2.48792 0.22844,0.44175 0.71933,1.88258 1.09087,3.20185 l 0.67553,2.39867 -0.77731,1.54103 c -0.81264,1.61108 -0.8364,2.46987 -0.10846,3.9208 0.19257,0.38383 0.54928,1.46644 0.79269,2.40579 0.55836,2.15476 0.25436,3.52363 -1.02063,4.5959 -0.48744,0.40993 -1.17221,1.25209 -1.52171,1.87145 -0.3495,0.61937 -1.01366,1.42543 -1.47591,1.79124 l -0.84044,0.66513 0.1853,2.69042 0.18529,2.69042 -1.07879,1.44445 c -0.59334,0.79446 -2.13343,3.43849 -3.42243,5.87564 -1.289,2.43714 -3.66448,6.572 -5.27884,9.18857 -1.61436,2.61657 -4.2329,6.85568 -5.81898,9.42025 -1.58608,2.56457 -4.84394,7.87052 -7.2397,11.791 -4.09434,6.70007 -4.41629,7.14508 -5.36108,7.41016 -0.74588,0.20927 -1.18602,0.58324 -1.70634,1.44983 -0.84088,1.40045 -1.43868,1.8362 -3.4848,2.54017 -1.73947,0.59847 -1.68045,0.59633 -3.40397,0.12324 z m -33.721,-25.43612 c -0.2825,-0.60121 -0.68363,-0.94375 -1.28011,-1.09316 -1.75746,-0.44021 -3.25526,-3.00167 -3.69405,-6.31733 -0.2097,-1.58462 -0.60763,-2.91923 -1.32872,-4.45636 -0.56616,-1.20686 -1.1095,-2.53183 -1.20742,-2.94439 -0.20919,-0.88129 -1.13868,-1.2164 -2.28364,-0.82332 -0.82616,0.28363 -2.36998,-0.29285 -3.08208,-1.15087 -0.51565,-0.62132 -0.19517,-2.19151 0.94358,-4.62317 0.52856,-1.12866 0.96102,-2.2328 0.96102,-2.45363 0,-0.37609 1.08266,-1.7544 8.46009,-10.77033 1.60474,-1.96115 5.82366,-6.528 9.3754,-10.14858 7.30044,-7.44193 9.2754,-9.73875 12.73582,-14.81142 2.91384,-4.27143 6.60558,-9.1616 9.14196,-12.10966 1.01889,-1.18426 3.33965,-3.94292 5.15725,-6.13034 1.8176,-2.18743 5.83589,-6.75429 8.92955,-10.14858 5.27083,-5.78304 7.52414,-7.99491 12.57707,-12.34575 1.13143,-0.97423 3.9231,-3.46226 6.20373,-5.52898 l 4.14658,-3.75766 0.82622,0.87334 c 1.02964,1.08836 1.3142,1.64058 2.01556,3.91132 0.67082,2.17186 0.47997,3.0032 -1.04889,4.56889 -0.92218,0.9444 -1.00972,1.1719 -1.06142,2.75825 -0.0714,2.19023 -0.65862,3.60167 -1.78299,4.28544 -1.07211,0.65199 -1.20127,1.20902 -1.11308,4.80037 l 0.0668,2.71949 1.77089,3.45816 c 1.36876,2.67288 1.77089,3.72636 1.77089,4.63923 0,1.28396 0.49608,0.66874 -7.6225,9.45331 -2.43705,2.63697 -10.43368,12.08714 -13.70732,16.19889 -1.09597,1.37657 -3.3794,4.52753 -5.07428,7.00214 -4.22646,6.17084 -7.70743,10.26069 -15.43026,18.12928 -4.33278,4.41455 -7.90891,8.36674 -10.42384,11.52 -2.10557,2.64 -5.05241,6.21943 -6.54853,7.95428 -2.69819,3.12875 -7.56546,8.23404 -7.83928,8.22264 -0.0784,-0.003 -0.3277,-0.39994 -0.55399,-0.8815 z m -10.13007,-38.98143 c -0.16563,-0.43073 -0.50373,-1.58963 -0.75133,-2.57532 -0.41752,-1.66216 -0.41744,-1.97695 0.001,-4.33906 0.3707,-2.09216 0.3982,-2.94127 0.15401,-4.75575 -0.29762,-2.21147 -0.26596,-2.51051 0.77438,-7.31575 0.0743,-0.34294 -0.14297,-0.88783 -0.54671,-1.37143 -0.36844,-0.44132 -0.86054,-1.17446 -1.09355,-1.62921 -0.38965,-0.76047 -0.38239,-0.91164 0.0905,-1.88389 0.59426,-1.22173 1.06679,-1.64818 2.59126,-2.33857 1.55076,-0.7023 1.74132,-1.0294 2.08426,-3.57766 0.34026,-2.52829 0.0352,-5.99131 -0.84678,-9.61307 -0.27553,-1.13142 -0.58502,-2.97799 -0.68775,-4.10347 -0.15529,-1.70127 -0.31688,-2.1945 -0.9583,-2.92505 -1.25097,-1.42476 -1.50803,-2.58327 -0.95124,-4.28693 0.63456,-1.94158 1.14207,-2.90919 2.1063,-4.01584 0.7515,-0.8625 0.79794,-1.03938 0.62864,-2.39446 l -0.18281,-1.46316 2.26069,-3.63983 c 2.83476,-4.56409 4.37521,-6.68793 7.61256,-10.49547 2.68785,-3.16126 13.30334,-14.4687 15.58326,-16.59903 4.96897,-4.64294 8.92106,-8.24874 11.88443,-10.84307 1.88572,-1.65089 5.52686,-4.90672 8.09143,-7.23519 2.56457,-2.32846 5.82391,-5.15812 7.24297,-6.28812 4.0127,-3.19532 10.45864,-7.996089 10.73625,-7.996089 0.59517,0 0.59924,1.424159 0.006,2.226069 -0.35465,0.47968 -0.5338,1.01672 -0.4389,1.3157 0.0882,0.27786 1.42757,1.78548 2.97641,3.35028 1.76689,1.78511 3.14513,3.45823 3.6993,4.49081 0.48578,0.90514 1.36951,2.43039 1.96386,3.38943 0.59435,0.95904 1.28202,2.35004 1.52816,3.0911 0.4144,1.24764 0.41409,1.4537 -0.004,2.7835 -0.35625,1.13262 -0.39317,1.69664 -0.17471,2.6689 0.15235,0.67803 0.19061,1.31133 0.085,1.40732 -0.10559,0.096 -1.73484,1.40123 -3.62055,2.90051 -1.88571,1.49928 -5.03473,4.19788 -6.99782,5.99689 -1.96308,1.799 -5.11051,4.62428 -6.99428,6.27838 -13.23356,11.62012 -25.85831,24.67471 -29.85051,30.86682 -5.6886,8.82334 -7.21503,11.12384 -8.88776,13.39477 -5.56016,7.5486 -11.88287,19.55942 -15.11247,28.70809 -0.69231,1.96114 -1.80811,4.92343 -2.47955,6.58286 -1.1781,2.91159 -1.23134,2.98974 -1.52197,2.23399 z m 0.83466,-75.80358 c 0.16322,-0.41901 0.47232,-4.14676 0.68689,-8.28389 0.42302,-8.15636 0.70732,-9.90777 2.16214,-13.31995 0.68235,-1.60039 0.98566,-2.7946 1.1156,-4.39229 0.19817,-2.43676 1.4422,-6.57979 2.34058,-7.79491 0.55312,-0.74813 0.5655,-0.90249 0.2579,-3.214 -0.34541,-2.5956 -0.18184,-5.10843 0.42746,-6.56668 0.40096,-0.959632 0.36771,-1.26524 -0.73752,-6.778632 -0.68933,-3.438694 -0.47627,-4.474331 1.10308,-5.361977 1.23803,-0.695812 1.52558,-1.299074 1.12341,-2.356852 -0.1547,-0.406889 -0.28127,-0.993803 -0.28127,-1.304254 0,-1.962055 11.91368,-15.215763 20.16,-22.427565 1.91631,-1.675902 7.82303,-6.192523 12.75429,-9.752664 1.43314,-1.034664 4.74576,-3.473514 7.36137,-5.419668 5.62495,-4.185251 6.42968,-4.688165 7.14064,-4.462514 0.79426,0.252087 1.47131,2.136561 1.10951,3.088156 -0.40093,1.054545 -0.0884,2.473611 0.59243,2.68969 0.30284,0.09612 1.02988,0.09378 1.61565,-0.0052 1.28693,-0.217426 2.05082,0.142376 2.61385,1.23116 0.37384,0.722919 0.37183,0.924819 -0.0196,1.980441 -0.69973,1.886843 -0.72788,2.220087 -0.29395,3.479574 0.27054,0.785246 0.33038,1.407485 0.17473,1.816865 -0.13019,0.342436 -0.18169,0.677637 -0.11443,0.744891 0.19096,0.190966 -0.91262,5.275812 -1.39625,6.433288 -0.57143,1.36763 -0.33221,2.198879 0.98192,3.412008 0.59393,0.548287 1.07734,1.16543 1.07424,1.371429 -0.003,0.205999 -2.31738,2.033264 -5.14285,4.06059 -4.83913,3.472159 -7.95932,5.810531 -10.58234,7.930741 -2.54786,2.059459 -9.69395,9.080847 -12.14618,11.934228 -2.79081,3.247343 -10.90253,15.181266 -12.52307,18.423866 -0.53027,1.06104 -1.66219,3.59133 -2.51537,5.62286 -2.9131,6.93643 -6.42866,12.99896 -10.81031,18.64226 -2.51924,3.24463 -7.33514,8.70175 -7.98729,9.05077 -0.50521,0.27038 -0.52184,0.23837 -0.24522,-0.47179 z m 5.32104,-86.193115 c -0.10792,-0.340043 -0.20881,-2.918829 -0.22418,-5.730635 -0.0224,-4.102856 0.0651,-5.42105 0.44319,-6.675557 0.25913,-0.859751 0.59536,-1.639955 0.74719,-1.733788 0.15182,-0.09383 0.70369,-0.02947 1.22637,0.143033 2.09206,0.69044 2.92679,-0.617712 1.60767,-2.519451 -1.45456,-2.097004 -2.90924,-4.468811 -3.29503,-5.372452 -0.34322,-0.803903 -0.32133,-1.10358 0.21031,-2.879999 0.69773,-2.331405 1.24211,-3.491303 1.6386,-3.491303 0.15712,0 0.70853,0.448365 1.22536,0.996367 0.85613,0.907763 1.03944,0.982989 2.06138,0.845919 0.61692,-0.08275 1.16163,-0.191684 1.21046,-0.242082 0.0488,-0.0504 0.20931,-1.658226 0.35662,-3.572952 0.20595,-2.676784 0.39605,-3.690985 0.82259,-4.388571 0.52551,-0.859439 1.03215,-2.957397 1.84475,-7.638995 0.54002,-3.11115 1.04509,-3.76454 4.41958,-5.717437 1.59333,-0.9220944 3.0396,-1.6742057 3.21395,-1.6713589 0.34468,0.00563 2.74071,2.7820689 4.71319,5.4614889 1.55926,2.118114 2.14575,2.413012 3.58047,1.800327 0.59112,-0.252433 1.5918,-0.618712 2.22373,-0.813953 1.06244,-0.328253 1.2186,-0.307662 2.07379,0.27345 1.12395,0.763748 2.08298,1.989571 3.04916,3.897424 0.88548,1.748502 1.72638,2.093753 2.93077,1.203304 0.43607,-0.322401 1.87643,-1.064481 3.2008,-1.649067 2.60457,-1.149677 3.17156,-1.13037 3.64857,0.124241 0.29965,0.788161 0.004,1.719142 -1.01663,3.202801 -0.52508,0.763173 -0.66386,1.232647 -0.54301,1.836886 0.18262,0.913105 0.28983,0.83803 -5.71528,4.002077 -3.74243,1.971859 -6.13307,3.292396 -10.69198,5.906012 -3.49914,2.00605 -3.66994,2.150083 -9.90111,8.349833 -3.4873,3.469714 -7.12688,7.296 -8.08794,8.502857 -0.96107,1.206857 -2.55381,3.12 -3.53943,4.251428 -0.98563,1.131429 -2.11731,2.475929 -2.51486,2.987779 -0.70521,0.90796 -0.7276,0.915571 -0.91905,0.312374 z"
       id="path1" />
  </g>
</svg>
