<?xml version="1.0" encoding="UTF-8" standalone="no"?>
<!-- Created with Inkscape (http://www.inkscape.org/) -->

<svg
   version="1.1"
   id="svg1"
   width="294.58286"
   height="294.58286"
   viewBox="0 0 294.58286 294.58286"
   sodipodi:docname="dragon-body.svg"
   inkscape:version="1.4 (86a8ad7, 2024-10-11)"
   xmlns:inkscape="http://www.inkscape.org/namespaces/inkscape"
   xmlns:sodipodi="http://sodipodi.sourceforge.net/DTD/sodipodi-0.dtd"
   xmlns="http://www.w3.org/2000/svg"
   xmlns:svg="http://www.w3.org/2000/svg">
  <defs
     id="defs1" />
  <sodipodi:namedview
     id="namedview1"
     pagecolor="#ffffff"
     bordercolor="#000000"
     borderopacity="0.25"
     inkscape:showpageshadow="2"
     inkscape:pageopacity="0.0"
     inkscape:pagecheckerboard="0"
     inkscape:deskcolor="#d1d1d1"
     inkscape:zoom="2.766624"
     inkscape:cx="147.47215"
     inkscape:cy="147.29143"
     inkscape:window-width="1920"
     inkscape:window-height="1017"
     inkscape:window-x="-8"
     inkscape:window-y="-8"
     inkscape:window-maximized="1"
     inkscape:current-layer="g1" />
  <g
     inkscape:groupmode="layer"
     inkscape:label="Image"
     id="g1">
    <path
       style="fill:#000000"
       d="m 154.74892,271.93972 c -0.65037,-0.20447 -2.19323,-0.50992 -3.42857,-0.67878 -2.93786,-0.40158 -7.2634,-1.66595 -10.71935,-3.1333 -3.97341,-1.68706 -5.69001,-1.93244 -8.47276,-1.21111 -2.10528,0.54571 -2.27778,0.55114 -4.00075,0.12596 -1.17885,-0.29091 -2.08792,-0.7147 -2.63262,-1.22726 -0.45761,-0.43061 -1.84925,-1.48759 -3.09254,-2.34885 -2.6937,-1.86599 -6.56478,-5.95503 -8.29947,-8.76676 -0.67886,-1.10034 -1.5631,-2.38618 -1.96498,-2.85741 -0.40187,-0.47123 -1.0737,-1.56965 -1.49294,-2.44093 -0.41924,-0.87127 -1.33214,-2.44814 -2.02867,-3.50414 -3.09171,-4.68727 -3.44548,-5.7471 -3.70803,-11.10857 -0.0969,-1.97791 -0.44781,-4.70828 -0.82946,-6.45311 -1.29604,-5.92519 -1.34538,-6.88303 -0.52356,-10.16518 0.90906,-3.63061 0.94636,-5.48601 0.15595,-7.75788 -0.872,-2.50636 -0.88056,-5.30466 -0.029,-9.48673 0.18962,-0.93123 0.18637,-1.63446 -0.0103,-2.2304 -0.83985,-2.54477 -0.1189,-7.03463 1.57732,-9.82307 0.89365,-1.46909 0.99371,-1.83788 1.07913,-3.97715 0.11924,-2.98658 0.2633,-4.15029 0.76609,-6.1885 0.3222,-1.30616 0.34559,-2.05324 0.1159,-3.70285 -0.15826,-1.13661 -0.20329,-2.49856 -0.10008,-3.02656 0.25242,-1.29123 0.39729,-2.34781 0.53755,-3.92068 0.0645,-0.72324 0.19205,-1.55063 0.28346,-1.83864 0.0914,-0.28802 -0.0325,-1.17743 -0.27538,-1.97646 -1.02987,-3.38823 -1.62518,-13.17597 -1.09766,-18.04708 0.0899,-0.82971 0.21542,-2.61942 0.27902,-3.97714 0.0636,-1.35771 0.2124,-4.32 0.33066,-6.58286 0.28148,-5.38622 0.18254,-12.59476 -0.18222,-13.27631 -0.46654,-0.87175 -1.1219,-4.37834 -1.15466,-6.17822 -0.0318,-1.74879 0.11875,-3.03268 0.59968,-5.11289 0.26243,-1.13512 0.20898,-1.45474 -0.56747,-3.39385 -1.09702,-2.73967 -2.06923,-7.849647 -2.32525,-12.221582 -0.1591,-2.717021 -0.30665,-3.563238 -0.71094,-4.077456 -0.28059,-0.356886 -0.63131,-1.087647 -0.77938,-1.623913 -0.39142,-1.417597 0.64656,-4.375657 2.48728,-7.088309 1.40137,-2.065203 1.46034,-2.224362 1.35861,-3.667465 -0.18692,-2.651883 -0.11252,-3.37459 0.62546,-6.075542 0.64257,-2.35179 1.86688,-5.069418 5.59272,-12.414264 0.54991,-1.084052 0.70457,-1.86031 0.79238,-3.977143 0.16526,-3.984154 0.31178,-5.772008 0.60891,-7.430193 0.14868,-0.829715 0.26356,-1.693715 0.25529,-1.92 -0.0415,-1.136027 0.72047,-2.851895 1.68113,-3.785731 1.41925,-1.379631 1.52306,-1.88328 0.84697,-4.109176 -0.31653,-1.042093 -0.57732,-2.129764 -0.57953,-2.417047 -0.0217,-2.811403 1.03249,-4.97126 2.83929,-5.817322 0.64328,-0.301223 2.25863,-1.056811 3.58969,-1.679082 2.4666,-1.153147 5.91983,-2.26571 8.1399,-2.62252 5.48329,-0.881271 8.40375,-2.021514 10.33157,-4.033784 0.93935,-0.980494 3.0345,-3.717428 3.2036,-4.184928 0.15007,-0.414858 0.24018,-0.279207 1.67808,2.525951 2.06734,4.033131 3.83085,5.250121 9.01567,6.221669 3.27132,0.612991 9.13902,2.606625 11.03302,3.748626 1.79877,1.084577 7.24381,6.579777 7.76392,7.835439 0.27253,0.657962 0.57975,0.901504 1.31002,1.038503 1.36649,0.256354 2.96021,1.819 4.90652,4.81083 1.41424,2.173952 1.72912,2.878292 1.90029,4.250736 0.23186,1.858937 1.2245,3.778732 2.31075,4.469022 0.3949,0.250948 1.69548,1.294536 2.89019,2.319082 1.1947,1.024547 3.15816,2.44503 4.36323,3.156628 1.90547,1.125187 2.3518,1.544571 3.42451,3.217746 1.54054,2.402876 1.82564,3.101359 2.22679,5.455626 0.17675,1.037291 0.61021,2.770846 0.96325,3.852345 0.61316,1.878381 0.62509,2.062964 0.26644,4.125401 -0.2065,1.187471 -0.50714,2.55806 -0.66809,3.045752 -0.41098,1.245279 -0.0781,2.249203 1.17232,3.53532 1.21511,1.249823 1.42456,1.688761 2.09998,4.400913 0.42365,1.701144 0.44181,2.310816 0.15932,5.348572 -0.25895,2.784605 -0.45869,3.702533 -1.06345,4.887183 l -0.7446,1.458613 0.46455,1.55853 c 1.36229,4.57033 1.47907,5.84795 1.04501,11.43282 -0.22277,2.86628 -0.59144,6.69257 -0.81927,8.50285 -0.22783,1.81029 -0.53238,4.64915 -0.67679,6.30857 -0.23594,2.71136 -0.68734,4.90189 -1.78044,8.64 -1.11293,3.80589 -2.01123,8.13329 -2.16365,10.42286 -0.0954,1.43314 -0.29544,3.46972 -0.44452,4.52572 -0.25394,1.7987 -0.21216,2.11926 0.66126,5.07428 0.51278,1.73486 1.50728,4.61314 2.21,6.39618 0.70272,1.78303 1.47298,4.18627 1.71168,5.34053 0.40069,1.93755 0.39792,2.32373 -0.0362,5.03104 -0.2586,1.61283 -0.39193,3.22102 -0.2963,3.57376 0.0956,0.35274 0.41568,1.44363 0.71121,2.42421 0.9504,3.15336 1.29634,5.65152 1.01909,7.35928 -0.31337,1.93026 -0.0677,4.94271 0.63962,7.84417 0.29682,1.21753 0.71366,3.09776 0.9263,4.17829 0.21265,1.08054 0.63281,2.44716 0.93369,3.03694 0.71382,1.39919 1.56079,5.84861 2.10419,11.05396 0.36083,3.45644 0.38338,4.87465 0.13231,8.31852 -0.16648,2.28343 -0.42654,4.61793 -0.57792,5.18778 -0.50241,1.89131 -2.35609,6.14335 -3.33004,7.63856 -0.95399,1.46457 -1.6273,3.66154 -2.00269,6.53457 -0.10742,0.82221 -0.42426,2.02903 -0.70408,2.68182 -0.32974,0.76925 -0.61851,2.50472 -0.82067,4.93203 -0.20872,2.50625 -0.48788,4.15568 -0.84386,4.98616 -0.67547,1.57579 -2.23455,4.18216 -3.49928,5.84985 -0.53946,0.71135 -1.31121,1.82221 -1.71499,2.46857 -1.48442,2.37623 -2.5535,3.33445 -5.19611,4.65727 -2.74728,1.37522 -5.03667,1.95623 -9.01831,2.28868 -1.9181,0.16016 -2.47648,0.31658 -3.14958,0.88228 -0.82619,0.69436 -4.2465,2.38009 -5.76471,2.84118 -0.45257,0.13745 -2.51877,0.43822 -4.59155,0.66838 -2.07278,0.23015 -4.71538,0.66059 -5.87245,0.95651 -1.15706,0.29593 -2.11486,0.52585 -2.12845,0.51093 -0.0136,-0.0149 -0.55682,-0.19441 -1.2072,-0.39887 z"
       id="path1" />
  </g>
</svg>
