<?xml version="1.0" encoding="UTF-8" standalone="no"?>
<!-- Created with Inkscape (http://www.inkscape.org/) -->

<svg
   version="1.1"
   id="svg1"
   width="294.58286"
   height="294.58286"
   viewBox="0 0 294.58286 294.58286"
   sodipodi:docname="dragon-marble.svg"
   inkscape:version="1.4 (86a8ad7, 2024-10-11)"
   xmlns:inkscape="http://www.inkscape.org/namespaces/inkscape"
   xmlns:sodipodi="http://sodipodi.sourceforge.net/DTD/sodipodi-0.dtd"
   xmlns="http://www.w3.org/2000/svg"
   xmlns:svg="http://www.w3.org/2000/svg">
  <defs
     id="defs1" />
  <sodipodi:namedview
     id="namedview1"
     pagecolor="#ffffff"
     bordercolor="#000000"
     borderopacity="0.25"
     inkscape:showpageshadow="2"
     inkscape:pageopacity="0.0"
     inkscape:pagecheckerboard="0"
     inkscape:deskcolor="#d1d1d1"
     inkscape:zoom="2.766624"
     inkscape:cx="147.47215"
     inkscape:cy="147.29143"
     inkscape:window-width="1920"
     inkscape:window-height="1017"
     inkscape:window-x="-8"
     inkscape:window-y="-8"
     inkscape:window-maximized="1"
     inkscape:current-layer="g1" />
  <g
     inkscape:groupmode="layer"
     inkscape:label="Image"
     id="g1">
    <path
       style="fill:#000000"
       d="m 155.20771,271.962 c -0.0712,-0.0712 -1.68051,-0.38153 -3.57628,-0.68966 -4.54449,-0.73864 -7.2642,-1.55019 -11.47143,-3.42304 -2.83911,-1.26382 -5.59868,-1.69872 -7.33168,-1.15544 -0.71957,0.22558 -1.71158,0.48051 -2.20445,0.56651 -0.90119,0.15725 -3.62959,-0.32738 -3.62959,-0.6447 0,-0.54718 2.68787,-7.11266 3.86877,-9.45 1.75596,-3.47552 3.39086,-5.94695 5.96179,-9.01223 2.43937,-2.90843 4.9631,-5.08193 11.28944,-9.72275 2.64,-1.93662 6.096,-4.55763 7.68,-5.82445 4.61227,-3.68871 10.98181,-7.75595 19.87379,-12.69031 2.70886,-1.50321 6.38857,-3.73982 8.17713,-4.97024 1.78856,-1.23041 4.70031,-3.22455 6.47057,-4.43141 4.35148,-2.96658 5.64949,-3.93724 9.46584,-7.07859 1.79743,-1.47952 3.36339,-2.59037 3.47991,-2.46857 0.36438,0.3809 1.33105,5.80653 1.77428,9.95859 0.56412,5.28439 0.18102,11.66038 -0.88993,14.81143 -0.92014,2.70732 -2.15359,5.3034 -2.99467,6.30296 -0.62922,0.74779 -1.4476,3.5129 -1.88274,6.36137 -0.14043,0.91924 -0.37984,1.15212 -2.74159,2.66679 -1.42325,0.91278 -4.22746,2.54111 -6.23158,3.6185 -7.19007,3.86529 -13.55192,7.94273 -18.31815,11.74045 -1.73486,1.38233 -4.81423,3.71342 -6.84305,5.1802 -5.98527,4.32718 -7.46939,5.83659 -8.83035,8.98083 -0.61756,1.42673 -0.80638,1.6634 -1.09603,1.37376 z m -44.05703,-21.57117 c -0.31751,-0.51375 -0.70674,-1.27454 -0.86494,-1.69064 -0.1582,-0.41611 -0.889,-1.64902 -1.62399,-2.73981 -2.97933,-4.42156 -3.39791,-5.74809 -3.87141,-12.26895 -0.14788,-2.03657 -0.51779,-4.81372 -0.82203,-6.17143 -1.05453,-4.7061 -1.16947,-6.51752 -0.55394,-8.73008 0.91862,-3.30203 1.15689,-5.33858 0.79909,-6.83006 -0.36711,-1.53027 -0.68561,-1.01023 3.68651,-6.01922 2.79264,-3.19942 4.10935,-4.90071 7.5652,-9.77476 1.10298,-1.55562 2.83459,-3.87035 3.84802,-5.14385 2.10072,-2.6398 11.80621,-12.78745 18.07857,-18.90218 2.32433,-2.26592 6.76776,-6.66068 9.87429,-9.76614 5.0482,-5.04647 6.04161,-5.90326 9.35109,-8.06517 2.03657,-1.33038 5.12229,-3.54731 6.85714,-4.92651 6.06163,-4.81896 7.26344,-5.54897 18.39934,-11.17633 5.46132,-2.75979 8.29096,-4.01201 11.48681,-5.08334 2.33223,-0.78183 4.2821,-1.37983 4.33303,-1.3289 0.0984,0.0984 -0.16485,1.18093 -1.67223,6.87797 -0.59902,2.26395 -1.00917,4.56707 -1.12347,6.30857 -0.099,1.50857 -0.30547,3.55535 -0.45879,4.5484 -0.2534,1.64122 -0.20505,2.07807 0.53127,4.8 0.44553,1.64695 1.25548,4.08997 1.7999,5.42893 0.54442,1.33896 0.98986,2.47994 0.98986,2.53552 0,0.0556 -2.00572,1.10457 -4.45714,2.33109 -5.83611,2.91996 -8.18624,4.29187 -10.35429,6.04445 -3.50237,2.83118 -6.45252,5.00303 -9.44343,6.95211 -2.91517,1.89971 -4.4834,3.33914 -7.39216,6.78505 -0.73081,0.86577 -3.02848,3.05746 -5.10593,4.87042 -2.07744,1.81296 -4.86523,4.49889 -6.19507,5.96873 -1.32984,1.46984 -4.65567,4.95587 -7.39073,7.74673 -5.22906,5.33572 -6.28889,6.60027 -9.99987,11.93143 -2.40642,3.45703 -5.32174,7.11788 -8.95552,11.24571 -3.73304,4.24058 -5.18889,6.18582 -8.11577,10.84391 -1.5607,2.48385 -3.67792,5.68614 -4.70492,7.1162 -2.33274,3.24825 -3.16107,4.65544 -3.58446,6.08938 l -0.33273,1.12687 z m -4.79996,-65.59408 c 0.0802,-2.78622 0.22757,-3.99851 0.73726,-6.06266 0.31472,-1.27458 0.3404,-2.11786 0.12362,-4.05951 -0.17789,-1.59338 -0.18044,-2.75776 -0.007,-3.32837 0.14648,-0.4827 0.27946,-1.06278 0.29552,-1.28907 0.13905,-1.95982 0.25486,-3.03986 0.39923,-3.72298 0.0933,-0.4415 -0.0188,-1.48159 -0.24904,-2.3113 -1.04643,-3.77044 -1.57626,-12.61202 -1.06838,-17.82858 0.0808,-0.82971 0.20568,-2.68114 0.27755,-4.11428 0.0719,-1.43314 0.20019,-3.77829 0.28514,-5.21143 0.085,-1.43314 0.17338,-5.32114 0.1965,-8.64 l 0.042,-6.03429 1.68885,-3.01714 c 2.01664,-3.60272 5.07536,-7.95794 7.70537,-10.97143 1.05327,-1.20685 4.28881,-5.15657 7.19008,-8.777139 2.90127,-3.620572 5.96067,-7.303155 6.79865,-8.183518 3.19727,-3.358961 10.49083,-9.733437 15.01705,-13.124717 2.67085,-2.001144 5.70707,-3.719967 10.34778,-5.857951 2.39915,-1.105295 5.98951,-2.912039 7.97858,-4.014987 1.98907,-1.102948 5.34449,-2.694412 7.45649,-3.536587 4.75824,-1.89738 4.72324,-1.879061 10.51876,-5.504971 2.61732,-1.637498 4.82127,-2.977269 4.89767,-2.977269 0.0764,0 0.58868,0.352624 1.13839,0.783608 0.54971,0.430984 1.88829,1.310773 2.97464,1.955085 1.76524,1.046972 2.13466,1.423075 3.47589,3.538787 1.27056,2.004219 1.56909,2.732084 1.94639,4.745597 0.24511,1.308058 0.73044,3.247761 1.07853,4.310451 l 0.63288,1.932165 -0.55455,2.681439 c -0.79275,3.833248 -0.75659,4.504746 0.30079,5.586258 0.48166,0.492663 0.84631,0.917491 0.81033,0.944063 -0.036,0.02657 -1.54657,0.96831 -3.35686,2.092753 -4.8712,3.025701 -7.5956,4.438536 -11.54222,5.985621 -1.94892,0.763983 -5.08635,2.228422 -6.97207,3.25431 -1.88571,1.025887 -5.58857,2.880016 -8.22857,4.120285 -5.28796,2.484277 -7.04123,3.726777 -13.67722,9.692717 -2.69685,2.42454 -4.42876,4.34432 -8.34443,9.24964 -2.71768,3.40454 -5.94476,7.36265 -7.17129,8.79579 -2.87571,3.36014 -3.86201,4.74203 -5.7751,8.09143 -0.86166,1.50857 -2.65274,4.40914 -3.98019,6.44571 -1.32744,2.03658 -2.85253,4.50546 -3.38908,5.48641 -1.04425,1.90916 -3.82215,8.32962 -5.16199,11.93074 -1.21721,3.27153 -3.70435,12.38911 -4.47056,16.38861 -0.43509,2.2711 -0.98323,4.16652 -1.54927,5.35726 -1.46833,3.08882 -5.17143,6.32959 -8.33229,7.29204 -0.52112,0.15867 -0.54532,0.0539 -0.48357,-2.09259 z m -2.76758,-89.542582 c -0.0943,-0.570364 -0.17275,-1.511272 -0.17441,-2.090906 -0.002,-0.634145 -0.22113,-1.331164 -0.55066,-1.750093 -0.3012,-0.382917 -0.66898,-1.146852 -0.81729,-1.697633 -0.37252,-1.383434 0.56697,-3.994642 2.49252,-6.92767 1.44429,-2.199956 1.47556,-2.289551 1.36581,-3.913967 -0.18196,-2.693416 -0.13257,-3.184484 0.58322,-5.798431 0.45454,-1.65988 1.61869,-4.357943 3.49127,-8.091428 l 2.80935,-5.601183 0.12107,-2.605715 c 0.24184,-5.204921 0.31798,-6.267111 0.46646,-6.507351 0.0832,-0.134552 0.21838,-1.079419 0.30049,-2.099703 0.17993,-2.235657 0.86804,-3.895166 2.08782,-5.035151 0.96211,-0.899164 1.10585,-1.661637 0.68848,-3.652101 -0.20278,-0.967105 -0.18534,-0.990075 2.35993,-3.107307 1.41033,-1.173149 4.08514,-3.195058 5.94403,-4.49313 1.85889,-1.298072 3.89546,-2.930342 4.52571,-3.627267 0.63026,-0.696924 1.26934,-1.340608 1.4202,-1.430409 0.15086,-0.0898 1.7451,-0.492576 3.54275,-0.895056 4.24611,-0.950671 5.76426,-2.001659 8.78102,-6.078955 l 1.04061,-1.406432 1.20081,2.366432 c 2.11138,4.160884 3.78254,5.338282 9.18112,6.46846 5.72544,1.198605 11.56537,3.495841 13.04961,5.133285 0.37494,0.413636 0.35311,0.491174 -0.22459,0.797713 -2.85152,1.513066 -10.80118,8.290466 -16.54847,14.108219 -3.64272,3.687378 -5.65627,5.488375 -7.68,6.869289 -4.72491,3.224091 -6.78858,4.941943 -8.97086,7.467597 -1.16255,1.345465 -3.93969,4.15759 -6.17143,6.249165 -2.23174,2.091576 -6.03257,5.728593 -8.44628,8.082259 -2.41372,2.353667 -5.23618,5.073237 -6.27215,6.04349 -2.73613,2.562579 -4.02084,4.362661 -6.77287,9.489833 -1.35055,2.516157 -2.49973,4.619008 -2.55372,4.673002 -0.054,0.05399 -0.17529,-0.368492 -0.26955,-0.938856 z"
       id="path1" />
  </g>
</svg>
