<?xml version="1.0" encoding="UTF-8" standalone="no"?>
<!-- Created with Inkscape (http://www.inkscape.org/) -->

<svg
   version="1.1"
   id="svg1"
   width="294.58286"
   height="294.58286"
   viewBox="0 0 294.58286 294.58286"
   sodipodi:docname="dragon-vh.svg"
   inkscape:version="1.4 (86a8ad7, 2024-10-11)"
   xmlns:inkscape="http://www.inkscape.org/namespaces/inkscape"
   xmlns:sodipodi="http://sodipodi.sourceforge.net/DTD/sodipodi-0.dtd"
   xmlns="http://www.w3.org/2000/svg"
   xmlns:svg="http://www.w3.org/2000/svg">
  <defs
     id="defs1" />
  <sodipodi:namedview
     id="namedview1"
     pagecolor="#ffffff"
     bordercolor="#000000"
     borderopacity="0.25"
     inkscape:showpageshadow="2"
     inkscape:pageopacity="0.0"
     inkscape:pagecheckerboard="0"
     inkscape:deskcolor="#d1d1d1"
     inkscape:zoom="2.766624"
     inkscape:cx="147.47215"
     inkscape:cy="147.29143"
     inkscape:window-width="1920"
     inkscape:window-height="1017"
     inkscape:window-x="-8"
     inkscape:window-y="-8"
     inkscape:window-maximized="1"
     inkscape:current-layer="g1" />
  <g
     inkscape:groupmode="layer"
     inkscape:label="Image"
     id="g1">
    <path
       style="fill:#000000"
       d="m 151.16201,271.22956 c -2.47833,-0.29751 -6.60221,-1.50283 -9.49344,-2.77471 -1.35771,-0.59728 -3.08142,-1.25758 -3.83045,-1.46735 -1.56315,-0.43776 -3.30098,-1.72194 -3.30098,-2.43928 0,-0.26864 0.21224,-0.62231 0.47165,-0.78594 0.38013,-0.23978 0.64624,-0.13492 1.37143,0.54043 1.17137,1.09087 3.68942,2.71476 5.24064,3.37969 1.78181,0.76378 6.88088,1.99141 7.85054,1.89007 l 0.83008,-0.0868 -0.82486,-1.44 -0.82486,-1.44 h -1.46475 c -1.07031,0 -1.7151,-0.16847 -2.39445,-0.62564 -1.54206,-1.03773 -5.49883,-3.36847 -7.03256,-4.14255 -0.792,-0.39972 -1.44,-0.84811 -1.44,-0.99643 0,-0.14831 -0.18134,-0.26966 -0.40298,-0.26966 -0.22164,0 -0.86964,-0.24253 -1.44,-0.53896 -0.57036,-0.29642 -1.96274,-0.68514 -3.09416,-0.86381 -2.04172,-0.32242 -5.82103,-1.85741 -7.47786,-3.03718 -0.61585,-0.43852 -0.77044,-0.72856 -0.66957,-1.25624 0.0769,-0.40223 -0.0948,-1.06898 -0.41488,-1.61155 -0.30032,-0.509 -0.47539,-1.10956 -0.38905,-1.33458 0.27707,-0.72202 0.97073,-0.43858 1.51603,0.61946 0.29156,0.56571 0.94207,1.42217 1.44558,1.90324 1.0455,0.99893 4.3124,2.5497 5.39817,2.56248 0.4008,0.005 1.34586,0.31216 2.10015,0.68321 0.75428,0.37104 1.52191,0.67575 1.70584,0.67713 0.18392,0.001 0.8191,0.25514 1.41149,0.56392 0.66368,0.34593 1.69336,0.5828 2.68273,0.61714 1.5401,0.0535 1.60902,0.0267 1.68818,-0.65442 0.068,-0.58551 -0.19675,-0.9211 -1.50857,-1.91188 -4.23122,-3.19572 -7.5331,-7.05436 -7.07241,-8.26495 0.14512,-0.38135 -2.20511,-2.55801 -3.13234,-2.90101 -0.68058,-0.25177 -2.56664,-2.749 -3.46868,-4.5927 -0.87457,-1.78757 -1.5571,-5.60193 -1.33356,-7.45273 0.15598,-1.29153 0.12501,-1.41042 -0.33761,-1.29577 -0.39186,0.0971 -0.64721,-0.17594 -1.10696,-1.18372 -0.8715,-1.9103 -0.95628,-2.29628 -0.59898,-2.7268 0.2702,-0.32557 0.44587,-0.26812 1.10187,0.36037 0.42924,0.41123 0.78043,0.60117 0.78043,0.42209 0,-0.17908 0.226,-0.3256 0.50222,-0.3256 0.27622,0 0.6574,-0.28995 0.84706,-0.64434 0.31788,-0.59397 0.23667,-0.75715 -1.03882,-2.08747 -1.30162,-1.35756 -1.84093,-2.44707 -2.34945,-4.74632 -0.16479,-0.74504 -0.18173,-0.75086 -0.98198,-0.33704 -1.5705,0.81214 -3.12016,-0.002 -4.3326,-2.27709 -2.51592,-4.72035 -3.53757,-11.26394 -3.07993,-19.7267 0.24848,-4.595 0.40774,-5.41767 1.1715,-6.05153 0.29323,-0.24336 0.31969,-0.87489 0.13029,-3.1095 -0.28212,-3.32856 -0.118,-4.53154 0.65154,-4.77578 1.00184,-0.31797 1.25624,0.26931 1.44368,3.33279 0.0981,1.60397 0.32379,3.40147 0.50146,3.99446 0.5928,1.97858 2.44278,2.91793 4.02177,2.04208 0.57894,-0.32113 0.65033,-0.57919 0.73712,-2.66456 0.0529,-1.26995 0.33838,-3.20386 0.63448,-4.29757 l 0.53838,-1.98857 h -0.60432 c -0.90116,0 -2.77767,-1.50588 -3.33393,-2.67543 -0.34384,-0.72295 -0.5085,-1.81746 -0.55563,-3.6933 -0.0798,-3.17561 -0.21415,-3.90912 -1.14451,-6.24842 -0.57002,-1.43324 -0.71333,-2.27193 -0.73084,-4.27691 -0.0154,-1.76374 0.0909,-2.63014 0.36312,-2.95877 0.44931,-0.54246 0.93157,-7.25439 0.66258,-9.22146 -0.15012,-1.09781 -0.375,-1.41626 -2.03373,-2.88 -1.02572,-0.90514 -1.94295,-1.89257 -2.0383,-2.19428 -0.0953,-0.30172 -0.35722,-0.9555 -0.58194,-1.45286 -0.50491,-1.11746 -0.26631,-2.43338 0.48443,-2.67166 0.67622,-0.21462 1.3392,0.30678 1.3392,1.05323 0,0.75503 1.67439,3.19244 2.19919,3.20136 0.56934,0.01 2.32954,1.21497 3.92716,2.68914 1.20917,1.11573 1.42155,1.21109 2.4039,1.07933 0.65382,-0.0877 1.27145,-0.384 1.57067,-0.75352 0.8409,-1.03847 1.59287,-0.5251 2.1453,1.46461 0.3958,1.4256 0.72986,1.95305 2.07633,3.27834 0.88255,0.86868 2.08663,1.89839 2.67575,2.28825 1.03327,0.68378 1.09852,0.69264 1.84653,0.25078 1.6989,-1.00356 3.83916,-5.43351 4.26799,-8.83398 l 0.14501,-1.14984 -2.09748,-1.0881 c -1.15362,-0.59845 -2.83806,-1.29808 -3.7432,-1.55472 -1.82489,-0.51742 -3.78641,-1.61533 -5.2254,-2.92478 -2.39789,-2.18203 0.11704,-4.7965 2.62576,-2.72969 1.08659,0.89518 2.97464,1.95696 3.47986,1.95696 0.18688,0 1.27312,0.37076 2.41386,0.82391 l 2.07407,0.82392 1.97878,-0.43981 c 2.38174,-0.52937 3.09764,-0.94735 3.6668,-2.14089 0.69249,-1.45218 1.51122,-1.8026 5.92078,-2.53416 1.14037,-0.18919 1.75599,0.15624 2.15667,1.2101 0.42634,1.12138 -0.26735,1.92786 -2.48702,2.89136 -1.1076,0.48078 -2.10282,1.05929 -2.21159,1.28557 -0.10877,0.22629 -0.61445,1.32251 -1.12374,2.43606 -0.58455,1.2781 -1.30524,2.34973 -1.95455,2.90631 -0.56571,0.48493 -1.02857,1.07077 -1.02857,1.30188 0,0.2311 -0.1853,0.86368 -0.41178,1.40573 -0.30149,0.72155 -0.44172,2.40196 -0.52353,6.27349 -0.1084,5.12928 -0.26085,6.61241 -0.74317,7.22997 -0.12727,0.16297 -0.28862,1.93562 -0.35855,3.93923 -0.0699,2.00361 -0.19606,3.71185 -0.2803,3.79609 -0.0842,0.0842 0.0258,0.42634 0.24459,0.76022 0.21876,0.33387 0.39677,0.83744 0.39558,1.11903 -0.001,0.2816 0.12441,1.74628 0.27914,3.25485 0.5864,5.71755 0.33811,7.76779 -1.62759,13.44 -1.35325,3.90492 -1.95294,7.01357 -1.74483,9.04482 0.16604,1.62063 0.12952,1.79247 -0.51882,2.44081 l -0.69744,0.69743 0.52478,1.02932 c 0.28863,0.56613 0.52478,1.15813 0.52478,1.31555 0,0.15742 0.63812,2.19875 1.41805,4.53629 1.28902,3.86332 1.41511,4.46121 1.38557,6.57043 -0.0179,1.2762 0.0837,2.4604 0.22578,2.63155 0.24764,0.29839 0.29803,1.28203 0.22869,4.46463 -0.0175,0.80425 0.10624,1.60036 0.27503,1.76915 0.16878,0.16878 0.30688,0.89933 0.30688,1.62345 0,0.72411 0.10577,1.31657 0.23504,1.31657 0.48611,0 1.94485,4.56695 2.2152,6.93523 0.27551,2.41352 1.13389,5.7668 1.80552,7.05334 0.6294,1.20564 1.22995,2.6784 1.22995,3.01626 0,0.18019 0.24291,0.66876 0.53979,1.0857 0.85469,1.20029 2.75164,5.27368 2.75164,5.90868 0,0.31723 0.12185,0.69864 0.27077,0.84756 0.50805,0.50805 1.64923,4.32057 1.64923,5.50984 0,0.76541 0.12163,1.18673 0.34286,1.18761 0.72939,0.003 1.78692,1.29777 2.26402,2.77213 0.58325,1.80243 0.44515,2.35869 -0.68326,2.75206 -0.51597,0.17987 -0.82648,0.47805 -0.82648,0.79366 0,0.69914 -0.16976,0.73829 -2.1637,0.49892 z m -16.4842,-28.90189 c 1.43591,-1.52845 0.85819,-6.66938 -1.08782,-9.68024 -0.87557,-1.35467 -1.32422,-1.75672 -2.62475,-2.35213 -0.86277,-0.39499 -1.72226,-0.71816 -1.90997,-0.71816 -0.18771,0 -0.65227,-0.24462 -1.03236,-0.54359 l -0.69107,-0.5436 -0.60595,1.40857 c -0.46422,1.07911 -0.61379,1.99212 -0.63951,3.90359 -0.0414,3.07684 0.5043,4.38085 2.7766,6.63508 2.62234,2.60149 4.55621,3.23022 5.81483,1.89048 z m -2.19188,-16.62682 c 1.50102,-0.84362 2.04055,-2.18958 1.82569,-4.55449 -0.45494,-5.00733 -1.03499,-8.05398 -2.09875,-11.02352 -0.60736,-1.69549 -1.10531,-3.35018 -1.10654,-3.67707 -0.001,-0.33814 -0.53723,-1.1264 -1.24334,-1.82863 -1.39629,-1.38863 -1.49789,-1.49406 -2.96074,-3.07263 -1.20983,-1.30554 -1.3391,-1.22466 -1.79131,1.12079 -0.38699,2.00718 -1.01054,10.59899 -0.94753,13.05593 0.0601,2.34332 1.1918,6.00191 2.39796,7.75218 0.87145,1.26454 3.26113,2.8123 4.3421,2.8123 0.29801,0 1.01012,-0.26319 1.58246,-0.58486 z m -10.7901,-12.37514 c -0.062,-7.56348 0.0955,-10.60699 0.63967,-12.35535 0.28728,-0.92304 0.493,-1.70758 0.45714,-1.74343 -0.0359,-0.0359 -0.55543,0.0485 -1.15463,0.1874 -2.69526,0.62489 -4.5215,0.20111 -5.27535,-1.22415 -0.23549,-0.44523 -0.33546,-0.27007 -0.62618,1.09714 -0.29171,1.37186 -0.27317,2.22908 0.11825,5.46696 0.25531,2.112 0.43824,4.704 0.40651,5.76 -0.0499,1.66034 0.0403,2.07522 0.66688,3.06769 0.89914,1.4242 2.32617,2.59201 3.68311,3.01409 0.56897,0.17698 1.05247,0.33127 1.07445,0.34286 0.022,0.0116 0.0266,-1.61435 0.0101,-3.61321 z m 11.04898,-14.34911 c 2.77822,-2.5987 4.19377,-5.61946 4.55239,-9.71476 0.1376,-1.57133 0.10945,-1.72985 -0.23273,-1.31047 -1.20098,1.47195 -4.11674,1.56482 -6.24529,0.19894 -0.75005,-0.48131 -1.45463,-1.02146 -1.56574,-1.20034 -0.11111,-0.17888 -0.96492,-0.90617 -1.89735,-1.6162 -1.4411,-1.09737 -1.71695,-1.21876 -1.83943,-0.80951 -0.53957,1.80301 -1.53952,6.80153 -1.53952,7.69573 0,0.59536 0.18346,1.60245 0.4077,2.23799 0.39383,1.11624 3.64448,5.31349 4.33011,5.59106 0.18506,0.0749 0.86634,0.14597 1.51394,0.15788 1.03335,0.019 1.34129,-0.13159 2.51592,-1.23032 z m -9.81093,-17.54533 c 0.24131,-0.5296 0.23412,-1.20117 -0.0303,-2.82931 -0.35215,-2.1685 -0.24971,-3.74299 0.38296,-5.88571 0.29744,-1.00738 0.43833,-1.15054 1.1323,-1.15054 0.74602,0 0.7939,0.0685 0.81507,1.16535 0.0124,0.64095 0.10494,1.2478 0.20571,1.34857 0.10078,0.10078 0.18332,0.68723 0.18344,1.30323 2.1e-4,1.06056 1.11778,3.80496 1.97364,4.84662 0.56529,0.68801 1.47471,1.07338 2.53304,1.07338 1.37329,0 2.77303,-1.35055 4.78409,-4.61596 1.53487,-2.49221 2.2881,-4.29816 2.59356,-6.21833 0.14136,-0.88859 0.22257,-0.80909 -3.1074,-3.04191 -0.82972,-0.55635 -2.16408,-1.60928 -2.96526,-2.33986 -0.80118,-0.73058 -1.88579,-1.53195 -2.41025,-1.78083 -0.52446,-0.24887 -1.53839,-1.10865 -2.25317,-1.91062 -0.98376,-1.10375 -1.39789,-1.39596 -1.70403,-1.20236 -0.73467,0.46459 -1.07808,0.28113 -2.84283,-1.51871 -0.96145,-0.98057 -1.85528,-1.78285 -1.98628,-1.78285 -0.23742,0 -0.2618,0.32356 -0.36674,4.86857 -0.0546,2.36358 -0.5171,5.04129 -1.0287,5.95547 -0.38008,0.67916 0.0642,3.0652 1.0112,5.43009 0.75723,1.8911 1.08316,4.40131 1.10366,8.50015 0.004,0.81267 1.58654,0.64096 1.97628,-0.21444 z m 35.50014,88.84915 c -0.52805,-0.77711 -0.71974,-1.40748 -0.71974,-2.36695 0,-0.71927 0.0988,-1.30776 0.21963,-1.30776 0.1208,0 0.48948,-0.55543 0.8193,-1.23428 0.41563,-0.85549 0.76911,-1.23429 1.1518,-1.23429 0.41189,0 0.56008,-0.19159 0.58341,-0.75428 0.0952,-2.29707 1.12739,-6.98999 1.92049,-8.73198 0.2806,-0.6163 0.81514,-2.0548 1.18789,-3.19667 0.6771,-2.07423 0.6774,-2.0803 0.33347,-6.69659 -0.62889,-8.44112 -0.24432,-11.98297 1.41353,-13.01832 0.54102,-0.33787 0.54096,-0.34295 -0.0137,-1.09315 -0.52588,-0.7113 -0.5598,-1.18337 -0.60292,-8.39135 -0.0251,-4.20071 -0.14099,-7.79185 -0.25746,-7.98031 -0.35122,-0.56828 -0.23828,-3.20918 0.18007,-4.21041 0.21551,-0.51579 0.76227,-1.30825 1.21504,-1.76101 l 0.8232,-0.82321 -0.91698,-1.0608 c -0.50435,-0.58344 -1.28422,-2.01305 -1.73306,-3.17692 -0.68799,-1.78401 -0.83819,-2.62778 -0.95706,-5.37627 -0.24702,-5.71187 -0.77436,-8.88301 -1.47717,-8.88301 -0.82425,0 -1.96889,-4.39491 -1.96926,-7.56106 -1.2e-4,-1.06601 -0.12527,-2.61463 -0.2781,-3.44138 -0.15284,-0.82675 -0.32248,-3.59571 -0.37699,-6.15323 -0.071,-3.33233 -0.21548,-4.92209 -0.50978,-5.61005 -0.22588,-0.528 -0.54874,-2.13257 -0.71748,-3.56571 -0.705,-5.98788 -0.86073,-7.66609 -0.86073,-9.27572 0,-1.5007 -0.0618,-1.69571 -0.53702,-1.69571 -0.91998,0 -2.62458,-1.91754 -3.2814,-3.6913 -1.50079,-4.05297 -1.00183,-9.42338 0.92034,-9.90582 1.88676,-0.47354 2.85916,0.76295 2.35814,2.99859 -0.28325,1.26394 -0.26598,1.32575 0.69037,2.46984 1.64974,1.97362 2.30759,2.23364 5.60957,2.21724 3.09747,-0.0154 6.21794,-0.49412 7.54285,-1.1572 0.45258,-0.2265 1.28607,-0.827 1.85222,-1.33444 1.30224,-1.1672 2.39324,-1.22831 3.21767,-0.18021 1.63162,2.07427 -1.99153,5.1325 -7.04981,5.95061 -1.98182,0.32054 -2.62664,0.54418 -3.18827,1.10582 -0.38721,0.3872 -0.88496,0.70401 -1.10612,0.70401 -0.87462,0 -0.88046,3.25253 -0.0127,7.08763 0.66434,2.93611 1.72944,3.88182 4.36703,3.87748 2.02887,-0.003 3.32254,-0.67744 4.91078,-2.5589 1.06729,-1.26433 1.11998,-1.41169 1.05304,-2.94457 -0.0387,-0.8875 -0.26355,-2.18236 -0.49954,-2.87746 -0.78842,-2.32221 0.15871,-2.79066 1.53104,-0.75725 0.47452,0.7031 0.80844,1.48607 0.74205,1.73993 -0.0664,0.25401 0.10646,0.60343 0.38446,0.77704 0.39353,0.24576 0.46607,0.51285 0.32826,1.20865 -0.16122,0.81407 -0.1359,0.85945 0.28594,0.51245 0.39914,-0.32831 0.53605,-0.31445 0.99479,0.10071 0.51125,0.46267 0.57494,0.44737 1.63588,-0.39291 1.2399,-0.98202 3.09519,-3.13045 4.21533,-4.88137 0.53466,-0.83574 0.93045,-1.16571 1.39823,-1.16571 1.55594,0 0.91849,1.94987 -1.72604,5.27972 -1.90948,2.40432 -3.33917,3.47824 -4.91123,3.68909 -1.01206,0.13575 -1.09758,0.0917 -1.37677,-0.70918 -0.16372,-0.46966 -0.39688,-0.85392 -0.51813,-0.85392 -0.12125,0 -0.50922,0.54432 -0.86215,1.2096 -0.79813,1.5045 -4.83894,5.00414 -7.91572,6.8556 -1.2295,0.73985 -2.25104,1.54214 -2.27008,1.78285 -0.3011,3.80659 -0.28662,4.63271 0.11261,6.42258 0.6191,2.77569 1.74828,4.64187 3.24792,5.36784 1.31402,0.6361 2.26124,0.74048 2.54553,0.28049 0.10136,-0.164 0.43142,-0.23355 0.73348,-0.15456 0.6545,0.17115 3.0083,-0.82613 4.70492,-1.99343 1.53682,-1.05737 2.36398,-2.37695 2.36398,-3.77134 0,-0.59317 0.11297,-1.19574 0.25106,-1.33906 0.13808,-0.14331 0.29237,-0.56914 0.34285,-0.94628 0.0625,-0.46658 0.28903,-0.71373 0.70894,-0.77337 0.33943,-0.0482 0.62494,0.0135 0.63446,0.13715 0.01,0.12363 0.0716,1.6044 0.13792,3.2906 0.13641,3.46755 -0.12397,4.62093 -0.99194,4.39395 -0.37379,-0.0978 -0.68172,0.0524 -0.95142,0.46406 -0.21932,0.33473 -1.41871,1.18258 -2.66532,1.88412 -1.2466,0.70153 -3.21603,1.92917 -4.37651,2.72807 -2.70233,1.86037 -6.03448,4.10492 -6.6989,4.5124 -0.47078,0.28873 -0.47763,0.34986 -0.0769,0.68572 0.25701,0.21537 0.57962,1.22428 0.7757,2.42587 0.68964,4.22614 1.3472,6.15544 2.47245,7.25422 1.87072,1.82671 3.44753,1.58317 6.23817,-0.9635 1.67767,-1.53099 4.16313,-4.86113 4.45575,-5.97002 0.14607,-0.55353 0.32299,-3.0798 0.39316,-5.61393 0.13491,-4.8724 0.34627,-5.70924 1.53745,-6.08731 0.30574,-0.097 0.55588,-0.30458 0.55588,-0.46121 0,-0.15663 0.29899,-0.6401 0.66441,-1.07438 1.23647,-1.46946 1.77701,-3.45463 1.60882,-5.9085 -0.0956,-1.39526 0.011,-3.2343 0.29329,-5.05561 0.86766,-5.59923 0.9401,-6.39509 0.64164,-7.05014 -0.22654,-0.4972 -0.19096,-0.73009 0.16612,-1.08716 0.42303,-0.42304 0.49983,-0.41176 1.11192,0.16327 0.51956,0.4881 0.69664,1.01485 0.84404,2.51071 0.1222,1.24019 0.0785,2.09497 -0.12686,2.47861 -0.20466,0.3824 -0.34575,3.08473 -0.40664,7.78829 -0.10113,7.81284 -0.25533,8.73015 -1.61755,9.62271 -0.4267,0.27958 -1.065,0.42116 -1.61126,0.35739 -0.86781,-0.10131 -0.90583,-0.0663 -0.93416,0.86119 -0.0162,0.53174 -0.13463,3.02225 -0.26308,5.53447 -0.2172,4.24808 -0.20106,4.55026 0.23078,4.31874 0.29085,-0.15593 0.71217,-0.13601 1.1277,0.0533 0.89914,0.40968 2.16902,-0.2583 3.06119,-1.61023 0.67117,-1.01706 1.59255,-3.67671 1.93866,-5.59621 0.18569,-1.02974 0.64268,-1.42295 1.34193,-1.15462 0.50983,0.19564 0.7944,1.93733 0.5657,3.46237 -0.14099,0.94018 -0.0588,1.42445 0.37218,2.19169 0.30423,0.54166 0.49405,1.21232 0.4218,1.49035 -0.0874,0.33633 0.0729,0.59729 0.47911,0.77978 0.45407,0.20402 0.86924,1.01211 1.62058,3.15429 0.82006,2.33811 1.04211,3.42585 1.1801,5.78105 0.0935,1.59558 0.0557,3.29935 -0.0839,3.78615 -0.22893,0.79823 -0.32834,2.56538 -0.24874,4.42137 0.0473,1.10278 -0.79519,3.65076 -1.35781,4.10647 -0.69748,0.56493 -0.9487,1.36707 -0.57078,1.82243 0.37789,0.45533 0.18159,1.61813 -0.73274,4.34042 -0.64382,1.91689 -0.67299,2.28499 -0.60225,7.59829 l 0.0743,5.58382 1.3044,-2.67311 c 0.71742,-1.4702 1.62531,-3.6302 2.01753,-4.8 0.73233,-2.18417 1.02031,-2.59151 1.65892,-2.34645 0.50904,0.19533 0.45977,1.19242 -0.15021,3.03964 -0.28486,0.86267 -0.60202,2.30906 -0.70479,3.2142 -0.3305,2.91073 -1.24811,6.61273 -2.41353,9.73715 -1.20906,3.24141 -7.80738,11.79428 -9.09899,11.79428 -0.24569,0 -0.47598,0.37508 -0.58408,0.95132 -0.23493,1.2523 -2.38965,3.61265 -4.63103,5.07296 -0.95777,0.62402 -1.80039,1.36013 -1.87248,1.6358 -0.13114,0.50147 -2.38647,2.16252 -4.45145,3.27849 -0.60343,0.32611 -1.71429,0.9615 -2.46857,1.41198 -2.54678,1.521 -5.19158,2.73517 -5.95798,2.73517 -0.41911,0 -1.03031,-0.26829 -1.35821,-0.59619 -0.53308,-0.53308 -0.57395,-0.54034 -0.38607,-0.0686 0.11557,0.29019 0.23775,0.88297 0.27151,1.3173 0.0993,1.27768 0.8174,1.60543 3.23069,1.47453 1.92146,-0.10422 2.38378,-0.25535 5.21143,-1.70358 1.7066,-0.87407 3.6906,-2.08016 4.40889,-2.68022 1.34073,-1.12004 2.1226,-1.21527 2.1226,-0.25853 0,0.82344 -3.68052,4.04563 -5.73013,5.01656 -2.78248,1.31811 -3.67139,1.572 -6.55215,1.87143 -1.46646,0.15243 -3.42241,0.35776 -4.34656,0.45629 l -1.68026,0.17915 z m 12.46477,-10.42564 c 0.81938,-0.2433 2.16864,-0.8777 2.99835,-1.40978 6.58495,-4.22281 7.1228,-4.70942 7.84027,-7.09337 0.21357,-0.70963 0.3883,-2.00971 0.3883,-2.88905 v -1.59881 l -1.49639,0.12734 c -0.82302,0.07 -1.56526,0.0159 -1.64942,-0.12025 -0.32805,-0.53081 -1.83472,0.28924 -4.02894,2.19288 -2.1745,1.88653 -3.97306,2.98557 -4.90753,2.99881 -0.69031,0.01 -1.12349,0.58725 -0.76476,1.0195 0.22893,0.27584 0.20073,0.48738 -0.1124,0.84309 -0.79266,0.90044 -1.85199,3.33899 -1.85199,4.26323 0,0.97268 0.5582,1.67997 1.50858,1.91149 0.30171,0.0735 0.55702,0.14796 0.56736,0.16546 0.0103,0.0175 0.68919,-0.16724 1.50857,-0.41054 z m 13.55835,-11.35192 c 0.48186,-0.53245 0.47908,-0.54858 -0.0946,-0.54858 -0.40823,0 -0.59108,0.16971 -0.59108,0.54858 0,0.30171 0.0426,0.54857 0.0946,0.54857 0.0521,0 0.31803,-0.24686 0.59108,-0.54857 z m -10.18039,-4.43825 c 1.28026,-0.36737 4.20684,-2.20174 5.68535,-3.56356 2.89136,-2.66314 3.38087,-6.1616 1.84514,-13.18677 -0.15665,-0.71657 -0.3396,-1.30285 -0.40657,-1.30285 -0.067,0 -0.4558,0.32192 -0.86407,0.71538 -1.23169,1.187 -3.9385,2.85033 -4.63846,2.85033 -1.48177,0 -2.09254,0.65126 -3.16605,3.37592 -1.52262,3.86451 -1.91981,5.6817 -1.80997,8.28067 0.13393,3.16868 0.65247,3.60627 3.35463,2.83088 z m 7.42791,-0.38555 c 0.66388,-1.01321 0.37887,-1.07134 -0.54169,-0.11049 -0.57033,0.59531 -0.66745,0.82 -0.3544,0.82 0.23716,0 0.6404,-0.31928 0.89609,-0.70951 z m 8.2361,-2.58192 0.19284,-0.96 -0.56767,0.54857 c -0.39264,0.37943 -0.51643,0.74445 -0.4015,1.18384 0.20788,0.7947 0.5249,0.47928 0.77633,-0.77241 z m -7.16182,0.39718 c 0.0937,-0.24409 0.0477,-0.35419 -0.1078,-0.25809 -0.14913,0.0922 -0.27114,0.28372 -0.27114,0.42567 0,0.39454 0.1966,0.3076 0.37894,-0.16758 z M 186.2,237.99103 c 0.54654,-0.44131 0.86295,-1.4377 1.12875,-3.55453 0.13021,-1.03697 0.43222,-2.1014 0.67114,-2.36541 0.23892,-0.264 0.43439,-0.81448 0.43439,-1.22329 v -0.74329 l -1.14242,1.13107 c -0.81302,0.80494 -1.31589,1.0979 -1.74404,1.01605 -0.57542,-0.11 -0.61843,0.0267 -0.9874,3.1386 l -0.38577,3.25361 0.82696,-0.17645 c 0.45483,-0.097 0.9941,-0.31141 1.19839,-0.47636 z m 3.88,0.11001 c 0,-0.13928 0.33134,-0.66385 0.7363,-1.16571 0.40497,-0.50186 0.56543,-0.75819 0.35657,-0.56962 -0.20885,0.18857 -0.58983,0.34286 -0.84661,0.34286 -0.27216,0 -0.58652,0.34319 -0.75373,0.82286 -0.23269,0.6675 -0.21187,0.82285 0.11031,0.82285 0.21844,0 0.39716,-0.11395 0.39716,-0.25324 z m -3.25853,-13.90488 c 1.32262,-1.30273 1.73008,-1.35591 2.16322,-0.28238 0.21135,0.52383 0.23961,0.49504 0.25507,-0.25984 0.0107,-0.52282 -0.19734,-1.04324 -0.54158,-1.35477 -0.41557,-0.37609 -0.51552,-0.70364 -0.38964,-1.2768 0.16799,-0.76481 0.15843,-0.77094 -1.20146,-0.77094 -0.75393,0 -1.56602,-0.0749 -1.80465,-0.16649 -0.32866,-0.12612 -0.43386,0.0105 -0.43386,0.56362 0,0.87316 -0.89917,2.93711 -1.49499,3.4316 -0.23376,0.194 -0.42501,0.48572 -0.42501,0.64828 0,0.19256 0.1147,0.18086 0.32914,-0.0336 0.49951,-0.49951 1.26241,-0.39428 1.59086,0.21942 0.16147,0.30172 0.37758,0.54858 0.48023,0.54858 0.10265,0 0.76536,-0.57002 1.47267,-1.2667 z m -11.21638,-0.72844 c 1.27958,-0.66386 3.51913,-2.73388 4.18258,-3.86598 1.81255,-3.09287 2.58206,-7.98836 1.9111,-12.15799 -0.57353,-3.56418 -1.16402,-4.83854 -3.37006,-7.27313 l -0.67385,-0.74367 -0.82341,0.58632 c -2.07844,1.47998 -4.98628,4.17941 -4.93188,4.5784 0.0328,0.24029 -0.10955,0.87235 -0.31626,1.40456 -0.32446,0.83538 -0.31848,1.09785 0.0438,1.92 0.23078,0.52379 0.58152,1.56948 0.77942,2.32377 0.1979,0.75428 0.57398,1.92686 0.83574,2.60571 0.30704,0.79631 0.4778,2.01476 0.48121,3.43379 0.005,1.94103 -0.0815,2.32724 -0.73337,3.28653 -0.99655,1.46656 -1.00279,2.90638 -0.016,3.68263 0.82781,0.65116 1.66391,0.72077 2.63096,0.21906 z m 13.12416,-7.17016 c 0.54765,-0.82558 1.24408,-2.42882 1.5772,-3.63083 0.32808,-1.18384 0.8337,-2.89302 1.12358,-3.79816 0.97003,-3.02888 1.26048,-5.90284 0.85302,-8.44051 -0.47271,-2.94399 -1.31587,-7.08374 -1.47524,-7.24311 -0.0689,-0.0689 -0.35346,0.20369 -0.63228,0.60583 -1.18815,1.7136 -2.54739,2.90606 -4.34696,3.81357 -2.06082,1.03926 -3.16595,1.21401 -3.68933,0.58338 -0.18035,-0.21732 -0.50066,-0.32884 -0.71179,-0.24782 -0.28701,0.11014 -0.0851,0.57474 0.80004,1.84113 1.3297,1.90238 1.82165,3.80667 1.98141,7.66982 0.051,1.23231 0.2126,3.16628 0.35921,4.29771 0.1466,1.13143 0.27418,2.26456 0.2835,2.51807 0.01,0.2623 0.2829,0.49869 0.6341,0.54857 0.4365,0.062 0.81787,0.50749 1.30286,1.52195 0.37714,0.78887 0.74743,1.43532 0.82286,1.43655 0.0754,0.001 0.57845,-0.66304 1.11782,-1.47615 z m -9.62068,-17.98899 c 0,-0.15086 -0.0544,-0.27429 -0.12096,-0.27429 -0.0665,0 -0.19723,0.12343 -0.29047,0.27429 -0.0932,0.15086 -0.0388,0.27429 0.12096,0.27429 0.15976,0 0.29047,-0.12343 0.29047,-0.27429 z M 180.48,197.0407 c 0,-0.36447 -0.0745,-0.38321 -0.41143,-0.10356 -0.22629,0.1878 -0.41143,0.38806 -0.41143,0.44501 0,0.057 0.18514,0.10356 0.41143,0.10356 0.22629,0 0.41143,-0.20025 0.41143,-0.44501 z m -18.58286,-28.53664 c -0.18857,-0.0761 -0.49714,-0.0761 -0.68571,0 -0.18857,0.0761 -0.0343,0.13834 0.34285,0.13834 0.37715,0 0.53143,-0.0623 0.34286,-0.13834 z m -39.61835,74.1628 c -0.55696,-0.4862 -1.76442,-1.50115 -2.68325,-2.25543 -0.91883,-0.75429 -1.74466,-1.66108 -1.83517,-2.01508 -0.0905,-0.35401 -0.56586,-1.23997 -1.05633,-1.96879 -0.92061,-1.36803 -2.05261,-4.31775 -2.05261,-5.34862 0,-0.32228 -0.30806,-1.19317 -0.68457,-1.93531 -0.72047,-1.42011 -0.85465,-2.17327 -0.43355,-2.43353 0.48888,-0.30214 1.40192,1.47211 2.06289,4.00871 0.89939,3.45156 1.31904,4.34757 2.45201,5.23547 1.73111,1.35666 2.53103,0.77617 1.55819,-1.13075 -0.31296,-0.61346 -0.7472,-1.79948 -0.96498,-2.6356 -0.21779,-0.83613 -0.49135,-1.67304 -0.60793,-1.8598 -0.11657,-0.18676 -0.23764,-0.77156 -0.26904,-1.29956 -0.0314,-0.528 -0.14191,-1.29943 -0.2456,-1.71429 -0.31226,-1.24938 0.65549,-0.9756 1.16857,0.3306 0.23439,0.59668 0.56389,1.05954 0.73223,1.02857 0.16833,-0.031 0.3447,0.31398 0.39192,0.76655 0.1303,1.24878 1.39563,4.32997 1.988,4.84096 0.61954,0.53443 0.86832,1.13836 1.92856,4.68178 0.87324,2.91844 0.96714,3.77513 0.46844,4.27383 -0.49332,0.49332 -0.80671,0.40023 -1.91778,-0.56971 z m 70.9953,-0.0563 c -0.0858,-0.22362 0.0322,-0.93334 0.26216,-1.57714 0.23,-0.6438 0.54453,-1.84239 0.69895,-2.66354 0.15442,-0.82114 0.81693,-2.61086 1.47225,-3.97714 0.65532,-1.36628 1.32064,-3.20101 1.4785,-4.07716 0.15785,-0.87616 0.35888,-1.70931 0.44672,-1.85143 0.24398,-0.39477 1.14693,-0.30753 1.31365,0.12692 0.27531,0.71745 -0.60165,3.98252 -1.6981,6.32228 -0.59996,1.28027 -1.33609,3.28795 -1.63584,4.46151 -0.77841,3.04756 -1.04886,3.6423 -1.65625,3.6423 -0.28931,0 -0.59622,-0.18297 -0.68204,-0.4066 z"
       id="path1" />
  </g>
</svg>
