<?xml version="1.0" encoding="UTF-8" standalone="no"?>
<!-- Created with Inkscape (http://www.inkscape.org/) -->

<svg
   version="1.1"
   id="svg1"
   width="294.58286"
   height="294.58286"
   viewBox="0 0 294.58286 294.58286"
   sodipodi:docname="dragon-internals.svg"
   inkscape:version="1.4 (86a8ad7, 2024-10-11)"
   xmlns:inkscape="http://www.inkscape.org/namespaces/inkscape"
   xmlns:sodipodi="http://sodipodi.sourceforge.net/DTD/sodipodi-0.dtd"
   xmlns="http://www.w3.org/2000/svg"
   xmlns:svg="http://www.w3.org/2000/svg">
  <defs
     id="defs1" />
  <sodipodi:namedview
     id="namedview1"
     pagecolor="#ffffff"
     bordercolor="#000000"
     borderopacity="0.25"
     inkscape:showpageshadow="2"
     inkscape:pageopacity="0.0"
     inkscape:pagecheckerboard="0"
     inkscape:deskcolor="#d1d1d1"
     inkscape:zoom="2.766624"
     inkscape:cx="147.47215"
     inkscape:cy="147.29143"
     inkscape:window-width="1920"
     inkscape:window-height="1017"
     inkscape:window-x="-8"
     inkscape:window-y="-8"
     inkscape:window-maximized="1"
     inkscape:current-layer="g1" />
  <g
     inkscape:groupmode="layer"
     inkscape:label="Image"
     id="g1">
    <path
       style="fill:#000000"
       d="m 155.37854,268.35799 c -0.36512,-0.39396 -0.73782,-0.94939 -0.82825,-1.23429 -0.0904,-0.28489 -0.27431,-0.51799 -0.40864,-0.51799 -0.13433,0 -0.55802,-0.53541 -0.94152,-1.18981 -0.53099,-0.90606 -0.69865,-1.57654 -0.70303,-2.81143 -0.008,-2.33637 -1.09636,-5.71138 -2.98006,-9.24365 -0.90195,-1.69131 -2.27705,-4.55625 -3.05579,-6.36654 -1.30163,-3.02584 -1.56195,-3.99827 -2.34959,-8.77714 -0.0995,-0.60343 -0.55107,-2.39314 -1.00358,-3.97714 -0.76624,-2.68223 -0.81107,-3.08854 -0.65271,-5.91687 0.0935,-1.67028 0.34721,-3.62557 0.56376,-4.34509 0.36389,-1.20914 0.3537,-1.37385 -0.13454,-2.17456 -0.3652,-0.59894 -0.52916,-1.3743 -0.5312,-2.51205 -0.004,-2.09786 -0.93743,-6.02014 -1.64812,-6.92364 -0.67559,-0.85887 -1.36813,-3.12257 -1.36813,-4.47201 0,-0.59842 -0.22592,-1.29759 -0.55411,-1.71481 -1.1724,-1.49046 -0.50595,-6.65982 1.49231,-11.57526 1.52796,-3.75858 1.80229,-4.99736 1.91333,-8.64 0.1223,-4.01207 -0.1648,-6.30516 -0.97493,-7.78686 -0.52763,-0.96502 -0.56751,-1.34468 -0.41779,-3.97714 0.091,-1.60066 0.40261,-4.32971 0.69239,-6.06457 0.30219,-1.8092 0.46997,-3.79956 0.39346,-4.66748 -0.12184,-1.382 0.14178,-4.16005 0.70594,-7.43927 0.12041,-0.69985 0.59764,-1.87242 1.06051,-2.60571 0.46287,-0.73329 0.92811,-1.64182 1.03386,-2.01897 0.10574,-0.37714 0.69356,-1.5756 1.30625,-2.66325 1.72014,-3.05357 3.61241,-3.60198 5.40073,-1.5652 1.19458,1.36055 1.59291,2.25794 1.88591,4.24875 0.14268,0.96941 0.57503,2.96364 0.9608,4.43163 0.38576,1.46798 0.7824,3.56627 0.88142,4.66285 0.14141,1.5659 0.41804,2.45977 1.28899,4.16506 l 1.10895,2.17126 -0.20951,2.62874 c -0.22968,2.88188 -0.23255,3.27723 -0.0529,7.29176 0.0942,2.10661 0.28201,3.1248 0.80926,4.38857 0.3776,0.90505 0.7781,2.0735 0.89001,2.59654 0.11191,0.52305 0.30264,1.1402 0.42386,1.37143 1.12767,2.15122 2.72833,6.10141 2.7337,6.74638 0.004,0.44302 0.13167,1.34755 0.2844,2.01007 0.18598,0.80674 0.18861,2.61857 0.008,5.48572 -0.22434,3.56076 -0.19796,4.65034 0.15677,6.47541 0.23458,1.20685 0.45372,2.99657 0.48699,3.97714 0.0333,0.98057 0.25549,2.58514 0.49384,3.56571 0.90773,3.73441 1.11146,16.18609 0.31864,19.47429 -0.50524,2.09545 -0.57734,4.46491 -0.36723,12.06857 0.0825,2.98717 0.017,3.64816 -0.50953,5.13421 -0.33235,0.93809 -0.60427,1.94663 -0.60427,2.2412 0,0.6637 -1.01292,5.08444 -1.42101,6.20173 -0.16529,0.45258 -0.70686,1.68686 -1.20347,2.74286 -1.8468,3.92704 -2.31266,5.16584 -2.31266,6.14972 0,1.72936 -0.9388,2.1625 -2.06146,0.95113 z m -1.94916,-149.52371 c -0.0844,-0.264 -0.26012,-0.72685 -0.39055,-1.02857 -0.13042,-0.30171 -0.56244,-1.35085 -0.96003,-2.33143 -0.9046,-2.23098 -1.97554,-3.36383 -4.15227,-4.39228 -0.93825,-0.44331 -1.83571,-1.04854 -1.99435,-1.34496 -0.15865,-0.29643 -0.4348,-1.78636 -0.61367,-3.31097 l -0.32524,-2.77202 0.80622,-1.56222 c 0.44342,-0.85923 1.17932,-2.01541 1.63532,-2.569292 0.456,-0.553884 1.37283,-1.974187 2.03739,-3.156229 0.66456,-1.182042 1.39914,-2.374605 1.6324,-2.65014 0.23325,-0.275535 0.55071,-0.892678 0.70546,-1.371428 0.18042,-0.558144 0.48802,-0.899967 0.85733,-0.952707 0.46843,-0.0669 0.7378,0.256555 1.44279,1.732452 0.47676,0.998087 1.61224,2.680767 2.52328,3.73929 1.94591,2.260912 2.91035,4.279224 3.31803,6.943764 0.16239,1.06128 0.52835,2.75308 0.81325,3.75956 0.63107,2.22938 0.50697,2.62841 -1.39288,4.47861 -2.06354,2.00962 -3.86374,4.40688 -4.18017,5.56661 -0.15252,0.55894 -0.40301,1.17054 -0.55665,1.35911 -0.40176,0.49309 -1.02697,0.42197 -1.20566,-0.13715 z"
       id="path1" />
  </g>
</svg>
