<?xml version="1.0" encoding="UTF-8" standalone="no"?>
<!-- Created with Inkscape (http://www.inkscape.org/) -->

<svg
   version="1.1"
   id="svg1"
   width="294.58286"
   height="294.58286"
   viewBox="0 0 294.58286 294.58286"
   sodipodi:docname="one-hole-canine-body.svg"
   inkscape:version="1.4 (86a8ad7, 2024-10-11)"
   xmlns:inkscape="http://www.inkscape.org/namespaces/inkscape"
   xmlns:sodipodi="http://sodipodi.sourceforge.net/DTD/sodipodi-0.dtd"
   xmlns="http://www.w3.org/2000/svg"
   xmlns:svg="http://www.w3.org/2000/svg">
  <defs
     id="defs1" />
  <sodipodi:namedview
     id="namedview1"
     pagecolor="#ffffff"
     bordercolor="#000000"
     borderopacity="0.25"
     inkscape:showpageshadow="2"
     inkscape:pageopacity="0.0"
     inkscape:pagecheckerboard="0"
     inkscape:deskcolor="#d1d1d1"
     inkscape:zoom="2.766624"
     inkscape:cx="147.47215"
     inkscape:cy="147.29143"
     inkscape:window-width="1920"
     inkscape:window-height="1017"
     inkscape:window-x="-8"
     inkscape:window-y="-8"
     inkscape:window-maximized="1"
     inkscape:current-layer="g1" />
  <g
     inkscape:groupmode="layer"
     inkscape:label="Image"
     id="g1">
    <path
       style="fill:#000000"
       d="m 138.50902,277.99666 c -2.03947,-0.33994 -4.40797,-0.82152 -5.26334,-1.07019 -2.07351,-0.60278 -9.18015,-4.85815 -10.832,-6.48605 -1.77377,-1.74806 -4.70029,-7.58829 -5.70126,-11.37756 -0.8394,-3.17762 -1.37529,-8.79211 -0.94678,-9.9192 0.15281,-0.40191 0.26142,-1.23509 0.24136,-1.85149 -0.0711,-2.18424 0.99841,-6.80326 2.07293,-8.95268 0.56154,-1.12329 1.18738,-2.23163 1.39074,-2.46298 0.43023,-0.48943 2.95506,-5.5643 3.27049,-6.57365 0.11787,-0.37715 0.44145,-0.9766 0.71907,-1.33213 0.93679,-1.19967 1.89058,-3.56846 2.30142,-5.71572 0.22467,-1.17424 0.71575,-3.06199 1.09129,-4.195 1.15314,-3.47898 2.39127,-12.63929 2.31748,-17.14573 -0.0247,-1.50857 0.0472,-3.61776 0.15982,-4.68709 0.26243,-2.49199 -0.44525,-6.07579 -2.51321,-12.72734 -0.82124,-2.64149 -1.61709,-5.29642 -1.76857,-5.89985 -0.15147,-0.60343 -0.56479,-1.53753 -0.91848,-2.07577 -0.3537,-0.53824 -1.04168,-1.77253 -1.52885,-2.74286 -0.48717,-0.97032 -1.48772,-2.59548 -2.22344,-3.61146 -0.73573,-1.01597 -1.33769,-1.92308 -1.33769,-2.0158 0,-0.41134 -2.19856,-3.72386 -3.71667,-5.59983 -0.9156,-1.13142 -1.89491,-2.44975 -2.17625,-2.92961 -0.3234,-0.55158 -0.93071,-1.03256 -1.65123,-1.30773 -1.83319,-0.7001 -2.67088,-1.78094 -2.90245,-3.74495 -0.16758,-1.42124 -0.11151,-1.82798 0.36884,-2.67544 0.31156,-0.54968 0.75846,-1.15604 0.99311,-1.34749 0.38369,-0.31304 0.37413,-0.44556 -0.095,-1.31669 -0.2869,-0.53274 -0.96171,-1.37012 -1.49957,-1.86084 -0.53786,-0.49073 -1.14442,-1.09814 -1.34791,-1.34982 -0.58363,-0.72181 -0.84503,-2.31796 -0.52044,-3.1779 0.24448,-0.64768 0.1908,-0.90198 -0.34267,-1.62354 -0.94532,-1.27862 -1.13689,-3.12202 -0.50195,-4.83005 0.44528,-1.19782 0.47984,-1.64097 0.23767,-3.04736 -0.36292,-2.10766 -0.46893,-5.62536 -0.18736,-6.21744 0.15761,-0.33142 -0.0615,-0.74699 -0.79535,-1.50857 -1.27519,-1.32335 -2.02917,-2.97137 -2.32861,-5.08978 -0.22337,-1.58029 -0.18396,-1.76475 0.88364,-4.13575 0.94605,-2.10104 1.12241,-2.78042 1.14982,-4.42939 0.0315,-1.89458 0.005,-1.97522 -0.97405,-2.95611 -1.83349,-1.83707 -2.15808,-5.90401 -0.70644,-8.851535 0.84545,-1.716671 2.58181,-3.970689 4.37201,-5.675434 1.16973,-1.113888 1.59659,-1.703248 1.48996,-2.057143 -0.3276,-1.087299 -0.2308,-4.152475 0.18025,-5.707423 0.23928,-0.905143 0.753,-2.33865 1.1416,-3.185571 l 0.70655,-1.539858 -0.81837,-1.751571 c -0.45011,-0.963364 -0.93984,-2.612695 -1.0883,-3.665179 -0.25522,-1.809369 -0.22912,-1.99613 0.47929,-3.428571 0.59578,-1.204713 1.05021,-1.695095 2.21902,-2.394548 0.80839,-0.483771 2.1227,-1.015124 2.92068,-1.180785 0.79799,-0.16566 1.56419,-0.448705 1.70268,-0.628987 0.13849,-0.180283 0.58756,-1.253501 0.99792,-2.38493 0.41037,-1.131428 0.94533,-2.363536 1.18879,-2.738016 0.30978,-0.476482 0.46676,-1.464539 0.52292,-3.291429 0.0525,-1.706274 0.31489,-3.465653 0.75762,-5.079126 0.99344,-3.620477 1.36717,-6.691599 1.1307,-9.291468 -0.11149,-1.225693 -0.18833,-2.351961 -0.17077,-2.502818 0.0176,-0.150857 0.0893,-0.891428 0.15945,-1.645714 0.14677,-1.578514 0.78606,-4.635695 1.34665,-6.439931 0.70749,-2.277047 2.03913,-7.533674 2.22494,-8.782926 0.55128,-3.706426 1.83942,-6.117746 3.96772,-7.427303 0.75829,-0.466577 1.3787,-0.961163 1.3787,-1.099081 0,-0.137917 0.13933,-0.250759 0.30962,-0.250759 0.17028,0 0.80285,-0.445613 1.4057,-0.990252 1.80114,-1.627225 3.68365,-2.295126 7.31001,-2.593549 1.74921,-0.143947 3.44421,-0.32106 3.76667,-0.393584 0.32246,-0.07252 1.12474,-0.02147 1.78286,0.113444 0.65811,0.134919 1.93714,0.395047 2.84228,0.578064 0.90515,0.183017 2.14755,0.56521 2.76089,0.849318 0.61334,0.284107 1.25408,0.516559 1.42387,0.516559 0.68689,0 6.65865,6.32862 8.1528,8.64 0.48759,0.754286 1.05248,1.834286 1.25531,2.4 0.42404,1.182754 0.59485,1.24086 1.36974,0.46597 0.56775,-0.567752 1.09683,-0.557477 2.31739,0.045 2.25148,1.111344 3.99627,7.865117 3.39329,13.134742 -0.34815,3.042485 -0.11191,8.749449 0.43779,10.575949 0.46545,1.546578 2.38407,4.553064 3.84757,6.029146 3.36622,3.39518 4.42491,5.792762 3.88155,8.790453 -0.23873,1.317118 -0.2205,1.607208 0.10791,1.716678 0.21736,0.07245 0.73977,0.476312 1.16093,0.897467 0.74952,0.749521 0.75684,0.787037 0.34549,1.771519 -0.23113,0.55318 -0.42024,1.093954 -0.42024,1.20172 0,0.390822 2.92605,1.644997 4.83137,2.070838 2.20505,0.492833 2.95285,1.052027 3.71701,2.779545 0.49743,1.124518 0.5032,1.305886 0.10787,3.389913 -0.45526,2.399894 -0.88402,3.422912 -1.77103,4.225645 -0.74562,0.674779 -0.73834,0.726455 0.31478,2.233989 0.49029,0.701842 1.01486,1.477581 1.16571,1.723862 0.15086,0.246282 0.52115,0.62909 0.82286,0.850684 1.77696,1.305086 3.79531,3.569093 4.52025,5.070399 0.97886,2.027185 0.8859,3.097436 -0.30819,3.548156 -0.43092,0.162653 -0.78338,0.422959 -0.78324,0.578456 1.3e-4,0.155498 0.50503,0.772413 1.12198,1.370923 1.87415,1.8181 2.08811,2.49709 2.42761,7.70374 0.16677,2.55761 0.48659,5.25951 0.71072,6.00421 0.44721,1.48598 0.18558,3.9265 -0.57955,5.4061 -0.33599,0.64973 -0.33429,0.98497 0.0126,2.48062 0.34701,1.49629 0.34937,1.97642 0.0175,3.56245 -0.48839,2.33424 -1.03894,3.17734 -2.21945,3.39881 -0.50796,0.0953 -1.04614,0.32097 -1.19598,0.50151 -0.30934,0.37274 0.51529,3.74249 1.86724,7.63025 0.7876,2.26487 0.81206,2.45985 0.45675,3.64047 -0.35964,1.19497 -0.34215,1.31404 0.41583,2.83088 0.69098,1.38277 0.75614,1.71058 0.51422,2.58674 -0.41805,1.51406 -3.57364,5.18465 -5.27647,6.13761 -0.28864,0.16153 -0.52814,0.76916 -0.63875,1.62056 -0.0973,0.74918 -0.35274,1.56502 -0.56758,1.81299 -0.33869,0.39092 -0.33181,0.65317 0.0518,1.9727 0.77131,2.65324 -0.3054,4.86803 -2.55103,5.24742 -1.11024,0.18758 -1.14038,0.22327 -1.93782,2.29407 -0.98573,2.55974 -1.55857,4.73146 -1.96567,7.4521 -0.1693,1.13143 -0.66289,3.66171 -1.09687,5.62286 -2.02869,9.16761 -2.01477,9.05301 -2.01475,16.59428 2e-5,3.98705 0.14642,8.11463 0.34051,9.6 0.39836,3.04856 1.3912,7.21379 2.20658,9.25714 0.31604,0.792 0.83217,2.088 1.14696,2.88 0.31478,0.792 0.74678,1.53871 0.96,1.65935 0.21321,0.12064 0.38766,0.40106 0.38766,0.62316 0,1.00367 1.79817,4.13388 4.40052,7.66035 5.32819,7.22024 7.22874,10.68524 7.81958,14.25628 0.20028,1.21047 0.55121,3.15987 0.77984,4.33199 0.38698,1.98389 0.37823,2.36291 -0.12657,5.48572 -0.97181,6.01176 -2.16871,8.38726 -5.76075,11.4334 -1.67304,1.41877 -2.75913,2.39652 -6.83745,6.15533 -1.87665,1.72963 -3.53819,2.62241 -6.17231,3.31651 -3.14333,0.82827 -5.46643,0.98691 -8.32243,0.56833 -1.45695,-0.21354 -3.45231,-0.46999 -4.43414,-0.5699 l -1.78513,-0.18165 -1.59088,2.03109 c -1.82222,2.32644 -3.08807,3.24153 -5.64651,4.08185 -0.99521,0.32688 -2.17128,0.7774 -2.61347,1.00115 -0.4422,0.22375 -1.72121,0.52069 -2.84225,0.65987 -1.12104,0.13918 -3.04268,0.49387 -4.2703,0.78819 -1.22762,0.29433 -2.35547,0.52261 -2.50632,0.50729 -0.15086,-0.0153 -1.94294,-0.30599 -3.98241,-0.64593 z"
       id="path1" />
  </g>
</svg>
