<?xml version="1.0" encoding="UTF-8" standalone="no"?>
<!-- Created with Inkscape (http://www.inkscape.org/) -->

<svg
   version="1.1"
   id="svg1"
   width="294.58286"
   height="294.58286"
   viewBox="0 0 294.58286 294.58286"
   sodipodi:docname="one-hole-canine-marble.svg"
   inkscape:version="1.4 (86a8ad7, 2024-10-11)"
   xmlns:inkscape="http://www.inkscape.org/namespaces/inkscape"
   xmlns:sodipodi="http://sodipodi.sourceforge.net/DTD/sodipodi-0.dtd"
   xmlns="http://www.w3.org/2000/svg"
   xmlns:svg="http://www.w3.org/2000/svg">
  <defs
     id="defs1" />
  <sodipodi:namedview
     id="namedview1"
     pagecolor="#ffffff"
     bordercolor="#000000"
     borderopacity="0.25"
     inkscape:showpageshadow="2"
     inkscape:pageopacity="0.0"
     inkscape:pagecheckerboard="0"
     inkscape:deskcolor="#d1d1d1"
     inkscape:zoom="2.766624"
     inkscape:cx="147.47215"
     inkscape:cy="147.29143"
     inkscape:window-width="1920"
     inkscape:window-height="1017"
     inkscape:window-x="-8"
     inkscape:window-y="-8"
     inkscape:window-maximized="1"
     inkscape:current-layer="g1" />
  <g
     inkscape:groupmode="layer"
     inkscape:label="Image"
     id="g1">
    <path
       style="fill:#000000"
       d="m 151.13143,276.69892 c 0,-0.56977 1.81773,-3.50286 2.82915,-4.56511 1.2557,-1.31881 3.07651,-2.5199 5.03589,-3.32191 1.61324,-0.66033 1.93012,-0.96147 5.92924,-5.63476 6.84185,-7.99523 13.71256,-14.57204 21.04,-20.13999 2.90437,-2.20695 8.05008,-5.78001 8.32405,-5.78001 0.0641,0 0.19766,0.58629 0.29683,1.30286 0.0992,0.71657 0.43049,2.57289 0.73626,4.12516 0.30578,1.55227 0.47838,3.17553 0.38355,3.60725 -0.0948,0.43172 -0.22359,1.32168 -0.28615,1.9777 -0.53833,5.64435 -2.2082,9.16121 -5.77306,12.15843 -1.66301,1.39821 -5.66436,4.9774 -7.56392,6.76589 -1.30301,1.22681 -2.9873,2.0395 -5.62491,2.71409 -3.34953,0.85667 -5.54219,0.91762 -10.21674,0.28402 -2.32482,-0.31511 -4.24295,-0.54134 -4.26252,-0.50274 -0.2575,0.50808 -1.8546,2.52886 -2.72891,3.45283 -1.30687,1.3811 -2.39479,1.99079 -5.15848,2.89089 -1.10015,0.35831 -2.21628,0.74198 -2.48028,0.8526 -0.32584,0.13654 -0.48,0.0764 -0.48,-0.1872 z m -32.92879,-13.23553 c -1.00206,-2.20998 -2.06468,-6.08231 -2.45863,-8.95954 -0.31834,-2.32502 0.17976,-8.73535 0.96653,-12.43884 0.41,-1.92999 2.00136,-5.63642 2.7979,-6.51658 0.2373,-0.26222 0.75355,-1.14224 1.14722,-1.9556 0.56085,-1.15877 1.25007,-1.91234 3.18434,-3.48163 1.35771,-1.10153 5.24571,-4.42268 8.64,-7.38033 3.39428,-2.95766 7.71428,-6.66296 9.6,-8.23401 1.88571,-1.57105 5.44948,-4.65269 7.91947,-6.84809 7.70872,-6.85171 8.05229,-7.14382 11.14607,-9.47649 1.66091,-1.2523 5.9192,-4.22198 9.46286,-6.59928 l 6.44303,-4.32237 0.0632,1.07183 c 0.0347,0.5895 0.18624,4.21925 0.33667,8.06611 0.33721,8.62312 1.07304,12.55526 3.208,17.14286 0.35103,0.75428 0.63944,1.56517 0.64092,1.80196 0.001,0.2368 -1.01561,1.12306 -2.26018,1.96949 -2.57175,1.74902 -5.03373,3.79622 -11.62961,9.67033 -2.542,2.26383 -6.53496,5.71484 -8.87325,7.6689 -2.33828,1.95405 -6.16457,5.2327 -8.50286,7.28586 -7.08086,6.21747 -11.66593,9.97822 -14.89477,12.21694 -1.68902,1.17108 -5.53951,3.87855 -8.55665,6.0166 -3.01715,2.13805 -5.95106,4.16568 -6.5198,4.50585 l -1.03409,0.61848 z m 9.49038,-77.02292 c -0.93026,-3.39888 -2.95698,-9.67872 -3.33999,-10.34904 -0.21549,-0.37715 -0.83526,-1.54972 -1.37727,-2.60572 -0.54201,-1.056 -1.56284,-2.72228 -2.26851,-3.70285 -0.70567,-0.98058 -1.75924,-2.64686 -2.34127,-3.70286 -0.58202,-1.056 -1.40904,-2.32544 -1.83782,-2.82097 -0.42877,-0.49554 -0.77633,-0.98925 -0.77234,-1.09715 0.0125,-0.33891 7.54454,-8.77081 12.1623,-13.61538 8.42571,-8.83956 17.21029,-15.96878 29.65902,-24.0701 1.96114,-1.27627 4.86172,-3.16221 6.44572,-4.19098 1.584,-1.02877 6.08914,-3.99876 10.01142,-6.59997 12.51173,-8.29762 19.06286,-12.46115 19.06286,-12.11527 0,2.27204 0.67507,9.43826 0.99271,10.53808 0.47408,1.64152 0.31998,3.41081 -0.45328,5.20428 -0.45139,1.04693 -0.46212,1.30173 -0.11706,2.78085 0.29085,1.2468 0.31424,2.03714 0.0998,3.37318 -0.37887,2.36073 -0.93591,3.22186 -2.44219,3.77544 -0.67886,0.24948 -1.22975,0.57352 -1.22421,0.72008 0.0282,0.746 0.74454,3.66823 1.08872,4.44136 l 0.39329,0.88345 -1.70604,1.21284 c -0.93832,0.66706 -4.17462,2.81048 -7.19176,4.76316 -14.19663,9.188 -21.54754,14.29091 -26.60571,18.46939 -6.20213,5.12347 -18.05023,17.90231 -24.44023,26.36014 -1.55807,2.06226 -2.94481,3.81876 -3.08164,3.90333 -0.13683,0.0846 -0.45928,-0.61531 -0.71654,-1.55529 z m -22.35536,-57.53941 c 0.007,-0.36987 0.12109,-1.22792 0.25449,-1.90678 0.22986,-1.16971 0.19488,-1.28451 -0.66858,-2.19428 -1.14554,-1.20699 -1.91052,-2.73767 -2.30999,-4.62213 -0.36029,-1.69961 -0.16129,-2.70212 1.11846,-5.63438 1.06861,-2.44849 1.22494,-5.16568 0.33863,-5.88574 -1.69985,-1.381 -2.4756,-4.41996 -1.86809,-7.31815 0.20663,-0.98575 0.57742,-2.189273 0.82398,-2.674505 0.82509,-1.623783 3.07669,-4.461013 4.47779,-5.642435 0.76289,-0.64328 1.38708,-1.340696 1.38708,-1.549814 0,-0.711684 5.91826,-4.979708 15.08571,-10.879236 1.28229,-0.825189 4.53144,-3.13291 7.22035,-5.128267 6.77738,-5.029298 8.25672,-5.992641 19.93394,-12.980934 5.65714,-3.385548 11.92195,-7.24701 13.9218,-8.581027 1.99985,-1.334017 3.67789,-2.374869 3.72897,-2.313005 0.0511,0.06186 0.62628,0.914766 1.27822,1.895337 0.65195,0.980571 1.9627,2.613699 2.91279,3.629173 0.9501,1.015474 1.90871,2.126331 2.13026,2.468572 0.46325,0.715595 1.33352,4.262175 1.12762,4.595326 -0.0757,0.12256 -0.20086,0.725362 -0.27803,1.33956 -0.12857,1.02325 -0.0719,1.152083 0.67661,1.539171 1.21414,0.627854 1.478,1.301184 0.97845,2.496787 -0.22875,0.547471 -0.34628,1.108065 -0.26117,1.245765 0.30283,0.489997 2.74668,1.552399 4.31745,1.876903 l 1.59584,0.329681 -4.20155,2.806709 c -2.31085,1.54369 -9.09913,5.735443 -15.08507,9.315007 -8.53383,5.103189 -12.18062,7.467848 -16.89151,10.952822 -3.30439,2.444488 -7.83095,5.6171 -10.05902,7.05024 -8.95125,5.75763 -12.21079,8.27322 -19.76993,15.25768 -2.26505,2.09285 -5.2264,4.7926 -6.58078,5.99946 -1.35438,1.20686 -3.11144,2.86719 -3.90459,3.68963 -1.29866,1.34664 -1.44089,1.42848 -1.43013,0.82286 z M 120.96,40.105471 c 0,-0.436314 0.42813,-2.448823 0.95141,-4.472242 1.11827,-4.3242 2.08103,-8.204485 2.88636,-11.633229 0.74313,-3.163892 1.56363,-4.553473 3.37282,-5.712131 0.78618,-0.503488 2.04655,-1.450291 2.80084,-2.104007 2.20927,-1.914703 3.69947,-2.42513 8.39295,-2.874774 3.91061,-0.374645 4.22503,-0.366806 6.90356,0.172096 3.60338,0.724976 5.80959,1.753896 7.60025,3.544558 l 1.41616,1.416163 -0.7736,0.462488 c -0.42549,0.254369 -2.56332,1.433238 -4.75075,2.619709 -2.18743,1.186472 -5.39657,3.102643 -7.13143,4.25816 -1.73486,1.155516 -5.376,3.432841 -8.09143,5.060721 -5.33355,3.197426 -6.79793,4.239886 -10.90286,7.761512 -2.6033,2.233381 -2.67428,2.273219 -2.67428,1.500976 z"
       id="path1" />
  </g>
</svg>
