<?xml version="1.0" encoding="UTF-8" standalone="no"?>
<!-- Created with Inkscape (http://www.inkscape.org/) -->

<svg
   version="1.1"
   id="svg1"
   width="294.58286"
   height="294.58286"
   viewBox="0 0 294.58286 294.58286"
   sodipodi:docname="one-hole-canine-fur.svg"
   inkscape:version="1.4 (86a8ad7, 2024-10-11)"
   xmlns:inkscape="http://www.inkscape.org/namespaces/inkscape"
   xmlns:sodipodi="http://sodipodi.sourceforge.net/DTD/sodipodi-0.dtd"
   xmlns="http://www.w3.org/2000/svg"
   xmlns:svg="http://www.w3.org/2000/svg">
  <defs
     id="defs1" />
  <sodipodi:namedview
     id="namedview1"
     pagecolor="#ffffff"
     bordercolor="#000000"
     borderopacity="0.25"
     inkscape:showpageshadow="2"
     inkscape:pageopacity="0.0"
     inkscape:pagecheckerboard="0"
     inkscape:deskcolor="#d1d1d1"
     inkscape:zoom="2.766624"
     inkscape:cx="147.47215"
     inkscape:cy="147.29143"
     inkscape:window-width="1920"
     inkscape:window-height="1017"
     inkscape:window-x="-8"
     inkscape:window-y="-8"
     inkscape:window-maximized="1"
     inkscape:current-layer="g1" />
  <g
     inkscape:groupmode="layer"
     inkscape:label="Image"
     id="g1">
    <path
       style="fill:#000000"
       d="m 164.20571,176.18286 c -0.36181,-0.36182 -0.16378,-1.34753 0.50616,-2.51943 0.37533,-0.65654 0.68241,-1.30182 0.68241,-1.43396 0,-0.13214 -0.56873,0.12044 -1.26386,0.56127 -2.95996,1.87715 -4.96264,1.16519 -3.69759,-1.31451 0.76689,-1.50322 4.28138,-4.65396 5.58187,-5.00415 1.16536,-0.3138 1.57387,-0.17452 1.57387,0.5366 0,0.37736 0.17379,0.45937 0.78377,0.36985 1.47512,-0.2165 1.37588,1.32417 -0.10931,1.69693 -0.65136,0.16348 -0.95906,0.7074 -0.40017,0.7074 0.15085,0 0.27428,0.24685 0.27428,0.54857 0,0.31035 0.18286,0.54857 0.42108,0.54857 1.14758,0 2.29703,1.56389 1.50791,2.05159 -0.14592,0.0902 -0.19223,0.52933 -0.10292,0.97588 0.14793,0.73967 0.0678,0.85187 -0.90041,1.26087 -0.58454,0.24692 -1.59021,0.51028 -2.23481,0.58525 -0.64461,0.075 -1.23818,0.24337 -1.31905,0.37422 -0.17345,0.28066 -1.04097,0.3173 -1.30323,0.055 z m -33.50857,-5.88587 c -0.80852,-0.2608 -2.07776,-0.79403 -3.42495,-1.43889 -1.01019,-0.48355 -1.30001,-1.58153 -0.78896,-2.98903 0.63499,-1.74885 1.391,-1.70831 3.63448,0.19489 0.98846,0.83854 1.96137,1.52461 2.16203,1.52461 1.15314,0 1.35206,1.62143 0.30041,2.44866 -0.80615,0.63412 -0.74748,0.62603 -1.88301,0.25976 z m 51.85593,-8.44265 c -0.0982,-0.15884 -0.66649,-2.22976 -1.26292,-4.60204 -0.9435,-3.75268 -1.08444,-4.71465 -1.08444,-7.40191 0,-3.44084 0.49013,-7.51215 1.54399,-12.82538 l 0.70342,-3.54641 -0.45624,-3.58502 c -0.25093,-1.97175 -0.63381,-4.18745 -0.85084,-4.92377 -0.96709,-3.28106 -0.77636,-6.40797 0.59703,-9.78792 0.37132,-0.91382 0.81406,-2.64393 0.98387,-3.84469 0.31113,-2.20005 0.18149,-3.6568 -0.9255,-10.40006 -1.10286,-6.718117 -5.92633,-14.643281 -10.66693,-17.52621 -0.5142,-0.312706 -1.86183,-0.77288 -2.99471,-1.022609 -2.13106,-0.469761 -4.74478,-1.492426 -5.47905,-2.143777 -0.66576,-0.590582 -8.05055,-3.569979 -11.66647,-4.706845 -3.67116,-1.154236 -5.10108,-1.261566 -10.97142,-0.823523 -3.24441,0.242097 -3.32474,0.26451 -5.62286,1.568953 -3.01045,1.70877 -8.09133,3.981086 -9.47729,4.238523 -1.39887,0.259833 -2.317,0.867 -2.317,1.532249 0,0.887494 -0.97834,2.463656 -2.86793,4.620384 -1.04207,1.189399 -1.91806,2.480365 -2.07669,3.060468 -0.15089,0.551828 -1.25854,3.020399 -2.46145,5.485714 -1.2029,2.465314 -2.18684,4.667532 -2.18653,4.893823 3e-4,0.22628 -0.23782,1.21371 -0.52916,2.19428 -0.29135,0.98057 -0.79056,3.03486 -1.10936,4.56508 l -0.57965,2.78223 0.97459,1.88063 c 1.74335,3.36409 2.21432,7.89704 1.3638,13.12635 -0.63654,3.91365 -0.79675,6.33882 -0.43359,6.56327 0.2219,0.13714 0.13643,0.44729 -0.28724,1.04228 -0.73314,1.02959 -0.9773,3.30298 -0.5076,4.72619 0.1834,0.55571 1.04448,1.77297 1.91352,2.70503 0.86903,0.93206 2.0776,2.63675 2.6857,3.7882 1.02968,1.94968 1.08907,2.18226 0.86443,3.38471 -0.28357,1.51786 -1.26612,3.4105 -2.56696,4.9446 -1.07071,1.26271 -1.19274,1.20661 -2.08838,-0.96 -0.85594,-2.07058 -2.15945,-3.6162 -3.73246,-4.42567 -2.10722,-1.08438 -3.01277,-2.95622 -2.30418,-4.7629 0.15523,-0.3958 0.0162,-0.81052 -0.49928,-1.48916 -0.61979,-0.81597 -0.71191,-1.19751 -0.69535,-2.88 0.0115,-1.17259 0.18388,-2.25031 0.43588,-2.72573 0.36814,-0.69453 0.37068,-0.98272 0.0218,-2.46858 -0.25915,-1.10362 -0.35175,-2.54942 -0.26922,-4.20343 l 0.12579,-2.5212 -0.90271,-0.87494 c -0.49649,-0.48122 -1.1587,-1.47 -1.47157,-2.19728 -0.65165,-1.51481 -1.11111,-4.35718 -0.79771,-4.93494 1.00734,-1.85707 1.93508,-4.6597 2.06823,-6.24794 0.15313,-1.82644 0.14422,-1.85752 -0.82699,-2.88731 -1.28956,-1.36732 -1.67444,-2.58082 -1.66316,-5.24377 0.007,-1.65668 0.15787,-2.52724 0.61575,-3.553218 0.83945,-1.880994 2.52931,-4.122856 4.45455,-5.909644 l 1.62546,-1.508571 -0.26395,-2.071337 c -0.20619,-1.618033 -0.17954,-2.308336 0.1218,-3.154286 0.21217,-0.595622 0.39118,-1.309118 0.3978,-1.585546 0.007,-0.276429 0.38149,-1.344356 0.83304,-2.373173 l 0.821,-1.870575 -0.82634,-1.765852 c -0.85969,-1.837126 -1.49785,-5.344838 -1.05827,-5.816946 0.13344,-0.143314 0.24261,-0.45409 0.24261,-0.690614 0,-1.479728 3.15156,-3.841191 5.67564,-4.252764 1.3419,-0.218807 1.42107,-0.306477 2.23591,-2.47605 0.33995,-0.905143 0.88412,-2.185452 1.20927,-2.845131 0.43414,-0.880822 0.64178,-1.973679 0.78168,-4.114286 0.10478,-1.603178 0.3876,-3.532012 0.62848,-4.286297 0.87215,-2.730929 1.26056,-5.980228 1.23077,-10.296225 -0.0283,-4.097604 0.35508,-7.145503 1.16614,-9.271446 0.15306,-0.401209 0.38165,-1.223186 0.50798,-1.826615 0.12632,-0.603428 0.53906,-2.208 0.91719,-3.565714 0.37813,-1.357714 0.76956,-3.024 0.86986,-3.702857 0.32832,-2.222321 1.21694,-4.830975 2.02618,-5.948091 0.43677,-0.602945 1.36297,-1.429629 2.05823,-1.837077 0.69526,-0.407447 1.2641,-0.859039 1.2641,-1.003537 0,-0.144498 0.13933,-0.262724 0.30962,-0.262724 0.17028,0 0.80285,-0.445613 1.4057,-0.990252 1.98521,-1.793515 3.54623,-2.276631 8.42894,-2.608648 3.76241,-0.255837 4.54177,-0.236743 5.84906,0.143295 0.82954,0.241154 1.937,0.438462 2.46103,0.438462 0.52402,0 1.08984,0.165167 1.25738,0.367037 0.16754,0.20187 0.81094,0.518735 1.42978,0.704143 0.80538,0.2413 1.71494,0.936004 3.20039,2.444392 4.2357,4.30113 5.86894,6.476685 6.93573,9.238714 l 0.31781,0.822857 0.41859,-0.617143 c 0.94965,-1.40009 3.50436,-0.288138 4.58889,1.997336 1.07924,2.274325 1.33802,4.638373 1.38017,12.608378 0.0274,5.184882 0.14888,8.008347 0.37385,8.690654 0.3776,1.145186 3.36438,5.810096 3.94618,6.163328 0.96847,0.588 3.48531,3.970124 3.68291,4.949092 0.24298,1.203813 0.28715,3.419676 0.0917,4.598745 -0.10546,0.636069 -0.007,0.877431 0.45306,1.107851 1.5451,0.774284 1.79384,1.455602 1.05385,2.886577 -0.41299,0.798643 -0.40889,0.807397 0.70964,1.51349 0.61876,0.39061 2.19426,0.970012 3.50111,1.287559 3.866,0.939392 4.96497,2.5136 4.28078,6.13199 -0.48019,2.539486 -0.80819,3.328818 -1.74815,4.206871 l -0.79255,0.740356 1.00371,1.447431 c 0.55205,0.796087 1.13307,1.671781 1.29117,1.945987 0.1581,0.274206 0.89867,0.982086 1.64571,1.573067 2.3182,1.833909 4.07614,4.194709 4.24127,5.695759 0.15659,1.42342 -0.006,1.775074 -1.0147,2.196594 l -1.01169,0.422712 1.3939,1.432397 c 2.09357,2.151385 2.21872,2.531715 2.41993,7.353885 0.1072,2.56943 0.34273,4.75472 0.6006,5.57258 0.51472,1.6325 0.33852,4.62276 -0.35096,5.95607 -0.39272,0.75944 -0.41647,1.1023 -0.15483,2.23578 0.4097,1.77488 0.38533,3.04292 -0.093,4.8402 -0.46506,1.74742 -0.89336,2.24318 -2.27821,2.63701 -0.841,0.23916 -1.01642,0.41035 -0.98769,0.96384 0.0733,1.41254 0.7065,3.89309 1.3457,5.27192 0.99938,2.1558 1.32448,4.06386 0.97225,5.70625 -0.26399,1.23097 -0.23527,1.456 0.27368,2.1444 0.85388,1.15494 0.97312,2.73405 0.30529,4.0431 -0.72977,1.43047 -2.83548,3.75463 -4.33886,4.78898 -1.10295,0.75885 -1.19871,0.91933 -1.19871,2.00885 0,0.75921 -0.19218,1.42844 -0.53556,1.86498 -0.34944,0.44424 -0.44223,0.77419 -0.267,0.94942 0.3568,0.3568 0.64422,2.88155 0.4267,3.74821 -0.31641,1.26067 -1.49574,2.37549 -2.51297,2.37549 -0.61999,0 -1.04998,0.18549 -1.31841,0.56872 -0.24295,0.34686 -0.46797,0.45605 -0.57683,0.27991 z m -69.48131,-3.46447 c -0.34081,-0.52243 -0.83453,-0.95033 -1.09714,-0.9509 -0.77676,-0.002 -2.22464,-1.02434 -2.81039,-1.98504 -0.73304,-1.20228 -0.72981,-3.43763 0.007,-4.882 0.30478,-0.59742 0.65428,-1.08622 0.77666,-1.08622 0.409,0 2.01334,2.75419 2.9672,5.09382 0.69485,1.70435 0.92138,2.63621 0.85984,3.53709 l -0.0836,1.22311 z"
       id="path1" />
  </g>
</svg>
