<?xml version="1.0" encoding="UTF-8" standalone="no"?>
<!-- Created with Inkscape (http://www.inkscape.org/) -->

<svg
   version="1.1"
   id="svg1"
   width="294.58286"
   height="294.58286"
   viewBox="0 0 294.58286 294.58286"
   sodipodi:docname="one-hole-canine-internals.svg"
   inkscape:version="1.4 (86a8ad7, 2024-10-11)"
   xmlns:inkscape="http://www.inkscape.org/namespaces/inkscape"
   xmlns:sodipodi="http://sodipodi.sourceforge.net/DTD/sodipodi-0.dtd"
   xmlns="http://www.w3.org/2000/svg"
   xmlns:svg="http://www.w3.org/2000/svg">
  <defs
     id="defs1" />
  <sodipodi:namedview
     id="namedview1"
     pagecolor="#ffffff"
     bordercolor="#000000"
     borderopacity="0.25"
     inkscape:showpageshadow="2"
     inkscape:pageopacity="0.0"
     inkscape:pagecheckerboard="0"
     inkscape:deskcolor="#d1d1d1"
     inkscape:zoom="2.766624"
     inkscape:cx="147.47215"
     inkscape:cy="147.29143"
     inkscape:window-width="1920"
     inkscape:window-height="1017"
     inkscape:window-x="-8"
     inkscape:window-y="-8"
     inkscape:window-maximized="1"
     inkscape:current-layer="g1" />
  <g
     inkscape:groupmode="layer"
     inkscape:label="Image"
     id="g1">
    <path
       style="fill:#000000"
       d="m 145.96713,126.58176 c -1.67146,-1.39942 -3.12261,-1.88889 -4.83764,-1.6317 -1.0216,0.15319 -1.23787,0.0992 -1.49007,-0.37204 -0.22148,-0.41384 -0.19078,-0.80074 0.12314,-1.55205 0.22998,-0.55043 0.43147,-1.7822 0.44775,-2.73727 0.0259,-1.51984 -0.078,-1.89597 -0.83322,-3.01491 -0.92359,-1.3685 -1.11133,-2.4683 -0.46377,-2.7168 0.73097,-0.28049 1.5092,-2.28491 1.68689,-4.34475 0.0952,-1.10359 0.35406,-2.29575 0.57524,-2.64925 0.22118,-0.3535 0.46109,-1.58779 0.53313,-2.74286 0.21194,-3.39839 0.17922,-3.33442 1.70556,-3.33442 0.97535,0 1.45434,-0.14436 1.82014,-0.54857 0.56258,-0.62163 2.10137,-0.74484 2.55008,-0.20418 0.1572,0.18942 0.37671,0.71399 0.4878,1.16572 0.11109,0.45172 0.64558,1.2084 1.18776,1.6815 0.97577,0.85144 0.98501,0.87983 0.90895,2.79127 -0.0717,1.80177 -0.0368,1.93703 0.52056,2.01982 0.93608,0.13903 1.23216,0.8465 0.8903,2.12729 -0.24729,0.92646 -0.21506,1.23198 0.20237,1.91838 0.27307,0.44904 0.87224,1.01073 1.33148,1.24822 0.90601,0.46851 0.90092,0.45342 0.84072,2.49518 -0.0281,0.95308 0.0909,1.50126 0.37754,1.73915 0.337,0.27968 0.38693,0.75788 0.25617,2.45353 -0.1347,1.74674 -0.0861,2.16948 0.28479,2.47729 0.53182,0.44137 0.58289,1.22681 0.10434,1.60465 -0.18857,0.14889 -1.02171,0.33951 -1.85143,0.42361 -2.18678,0.22165 -3.99391,1.10149 -4.34787,2.11686 -0.40874,1.17253 -1.25505,1.05624 -3.01071,-0.41367 z"
       id="path1" />
  </g>
</svg>
