<?xml version="1.0" encoding="UTF-8" standalone="no"?>
<!-- Created with Inkscape (http://www.inkscape.org/) -->

<svg
   version="1.1"
   id="svg1"
   width="294.58286"
   height="294.58286"
   viewBox="0 0 294.58286 294.58286"
   sodipodi:docname="one-hole-canine-outline.svg"
   inkscape:version="1.4 (86a8ad7, 2024-10-11)"
   xmlns:inkscape="http://www.inkscape.org/namespaces/inkscape"
   xmlns:sodipodi="http://sodipodi.sourceforge.net/DTD/sodipodi-0.dtd"
   xmlns="http://www.w3.org/2000/svg"
   xmlns:svg="http://www.w3.org/2000/svg">
  <defs
     id="defs1" />
  <sodipodi:namedview
     id="namedview1"
     pagecolor="#ffffff"
     bordercolor="#000000"
     borderopacity="0.25"
     inkscape:showpageshadow="2"
     inkscape:pageopacity="0.0"
     inkscape:pagecheckerboard="0"
     inkscape:deskcolor="#d1d1d1"
     inkscape:zoom="2.766624"
     inkscape:cx="147.47215"
     inkscape:cy="147.29143"
     inkscape:window-width="1920"
     inkscape:window-height="1017"
     inkscape:window-x="-8"
     inkscape:window-y="-8"
     inkscape:window-maximized="1"
     inkscape:current-layer="g1" />
  <g
     inkscape:groupmode="layer"
     inkscape:label="Image"
     id="g1">
    <path
       style="fill:#000000;fill-opacity:1"
       d="m 142.21714,278.48767 c -7.65172,-0.90495 -9.70497,-1.45063 -13.20253,-3.50877 -5.98791,-3.52358 -7.28933,-4.66611 -8.82233,-7.74519 -0.58506,-1.17511 -1.29024,-2.56857 -1.56707,-3.09657 -1.05048,-2.00356 -1.19829,-2.4169 -2.01075,-5.62286 -1.13255,-4.46899 -1.25483,-5.75222 -0.88596,-9.29762 0.7412,-7.12422 1.74276,-10.70638 3.79373,-13.56849 0.41363,-0.57722 1.3552,-2.33362 2.09237,-3.90311 0.73718,-1.5695 1.51208,-3.1622 1.72201,-3.53935 1.46329,-2.62877 2.02339,-4.00349 2.30409,-5.6552 0.17645,-1.03821 0.6835,-2.9368 1.12679,-4.21908 0.46759,-1.3526 0.97148,-3.65573 1.20018,-5.48572 0.21682,-1.73485 0.51365,-3.77143 0.65963,-4.52571 0.41515,-2.14515 0.92567,-15.63794 0.61402,-16.22829 -0.14609,-0.27673 -0.41409,-1.24371 -0.59555,-2.14885 -0.38888,-1.9397 -2.86745,-10.30559 -3.28365,-11.08326 -0.15831,-0.2958 -0.28784,-0.87259 -0.28784,-1.28175 0,-0.40916 -0.43778,-1.40349 -0.97286,-2.20961 -0.53508,-0.80613 -1.16268,-1.91999 -1.39469,-2.47524 -0.232,-0.55526 -1.05935,-1.93378 -1.83856,-3.06338 -0.77921,-1.12959 -1.8551,-2.84146 -2.39086,-3.80414 -0.9155,-1.64499 -1.90346,-3.023 -4.04833,-5.64658 -0.49949,-0.61098 -1.0866,-1.45592 -1.30469,-1.87766 -0.27085,-0.52378 -0.73859,-0.8589 -1.47582,-1.05742 -1.30739,-0.35205 -2.94358,-2.13715 -3.197,-3.48798 -0.22336,-1.19064 0.34663,-3.21998 1.18391,-4.21503 0.60882,-0.72354 0.62657,-0.83197 0.25298,-1.54519 -0.22099,-0.42188 -0.98589,-1.32008 -1.69978,-1.99601 -1.67603,-1.58689 -2.09697,-2.56825 -1.72694,-4.02606 0.24997,-0.98482 0.20465,-1.2118 -0.42818,-2.14432 -0.84775,-1.24923 -0.95722,-3.34891 -0.26483,-5.07937 0.35514,-0.88759 0.38578,-1.33713 0.15459,-2.26841 -0.47614,-1.91798 -0.63442,-4.36621 -0.37932,-5.86727 0.23701,-1.39466 0.22623,-1.42811 -0.77283,-2.39772 -2.2449,-2.17874 -2.77681,-5.72631 -1.34703,-8.98393 0.85597,-1.95025 1.44224,-4.6442 1.27784,-5.87179 -0.05,-0.37351 -0.36377,-0.8702 -0.69723,-1.10376 -1.55303,-1.08779 -2.40719,-4.92998 -1.71451,-7.71227 0.44871,-1.802375 2.25747,-4.518353 4.47532,-6.720041 l 1.85168,-1.838188 v -2.561328 c 0,-2.761477 0.4593,-4.97816 1.5067,-7.271693 l 0.65799,-1.440825 -0.85617,-1.8296 c -0.658,-1.406111 -0.88475,-2.323192 -0.97962,-3.962064 -0.11133,-1.923192 -0.0536,-2.25166 0.58836,-3.347068 0.88951,-1.517838 2.88494,-2.832143 4.86377,-3.203562 1.7297,-0.324658 1.95147,-0.563985 2.75213,-2.96997 0.32831,-0.986561 0.81175,-2.171952 1.07432,-2.634202 0.32356,-0.569623 0.52829,-1.724325 0.63534,-3.583312 0.0969,-1.682085 0.41283,-3.591475 0.81703,-4.937143 0.90808,-3.023243 1.09513,-4.731759 1.12604,-10.285714 0.0289,-5.198529 -0.12078,-4.370797 2.48062,-13.714286 0.35702,-1.282286 0.73012,-2.886857 0.82912,-3.565714 0.62629,-4.294601 2.12456,-7.42784 4.07649,-8.524883 0.5937,-0.333679 1.27742,-0.777414 1.51938,-0.986079 3.72582,-3.213109 4.63937,-3.629016 8.6685,-3.946435 1.65943,-0.130731 3.51086,-0.305728 4.11429,-0.388882 0.62884,-0.08666 1.74106,0.02937 2.60571,0.271823 0.82972,0.232656 2.00229,0.494464 2.60572,0.581796 0.98142,0.142037 2.23869,0.60796 4.22559,1.565933 0.76472,0.368706 6.26624,6.317284 7.51778,8.128671 0.46652,0.675212 1.11873,1.893239 1.44936,2.706727 0.50417,1.240504 0.63089,1.385309 0.78563,0.897765 0.453,-1.427265 2.02806,-1.351437 3.55043,0.170927 2.07879,2.078795 2.80051,5.962356 2.52059,13.563228 -0.20151,5.471415 0.0871,8.952783 0.87115,10.50798 0.68526,1.359274 2.82932,4.323222 3.87883,5.362099 1.65967,1.642852 3.03036,3.59313 3.34959,4.765952 0.17458,0.641379 0.23783,1.995504 0.14843,3.177631 -0.15472,2.045914 -0.15043,2.063043 0.62963,2.510736 1.24705,0.715709 1.45013,1.350237 0.82473,2.576924 -0.41203,0.808177 -0.45719,1.100977 -0.19528,1.266279 0.81904,0.516937 3.76093,1.572439 5.18641,1.860795 2.4591,0.497446 4.02548,2.531773 3.67847,4.777413 -0.46929,3.036974 -0.8578,4.139554 -1.81394,5.147918 l -0.96974,1.022705 1.17546,1.673223 c 0.64649,0.920273 1.17545,1.781948 1.17545,1.914832 0,0.132885 0.40962,0.494769 0.91027,0.804187 1.15983,0.716813 3.82239,3.499816 4.36688,4.564418 1.08976,2.130716 0.74356,3.839957 -0.81402,4.018948 l -0.76028,0.08737 1.4598,1.508572 c 0.80289,0.829714 1.64536,1.859919 1.87217,2.289349 0.42548,0.80558 1.0711,7.52403 0.81657,8.49735 -0.0745,0.28477 0.11325,1.3228 0.41715,2.30672 0.48844,1.58139 0.51618,1.99967 0.23908,3.60492 -0.17241,0.99877 -0.49286,2.09236 -0.71211,2.43019 -0.40718,0.6274 -0.35235,1.6071 0.16628,2.97122 0.43294,1.13871 -0.32313,4.97534 -1.15681,5.87019 -0.27184,0.29178 -0.92673,0.61165 -1.45533,0.71081 -0.77107,0.14466 -0.96108,0.30629 -0.96108,0.81756 0,1.24994 0.80009,4.4017 1.51102,5.9523 0.84216,1.83681 1.13824,4.03407 0.73863,5.48136 -0.24222,0.87726 -0.20206,1.12197 0.28594,1.74236 0.88444,1.12438 0.96733,3.13347 0.18223,4.4167 -0.84195,1.37616 -3.12998,3.79707 -4.23287,4.47869 -0.74993,0.46348 -0.90096,0.74595 -1.04383,1.95227 -0.0919,0.77571 -0.35571,1.61887 -0.58631,1.87367 -0.37625,0.41576 -0.37537,0.6111 0.009,1.904 0.47514,1.59999 0.34906,2.70452 -0.46112,4.0395 -0.58416,0.96256 -1.84946,1.60852 -2.65188,1.35384 -0.45647,-0.14488 -0.64648,0.14672 -1.3689,2.10081 -1.23514,3.34099 -1.72946,5.29008 -2.1406,8.44048 -0.0886,0.67885 -0.51575,2.83885 -0.94923,4.8 -2.01093,9.09782 -2.04688,9.38626 -2.03367,16.32 0.0173,9.07972 0.64577,13.82404 2.45259,18.51428 0.40681,1.056 1.02133,2.65538 1.36561,3.55417 0.34428,0.89879 0.76498,1.68051 0.93489,1.73714 0.1699,0.0566 0.30892,0.28092 0.30892,0.4984 0,0.79965 2.0444,4.43109 3.92086,6.96458 1.06148,1.43314 2.38869,3.22285 2.94936,3.97714 0.56066,0.75429 1.22987,1.7873 1.48712,2.29558 0.25725,0.50828 0.87342,1.49571 1.36926,2.19429 1.1482,1.61767 1.9428,3.44367 2.30479,5.29641 0.15683,0.80269 0.49309,2.50796 0.74725,3.7895 0.82842,4.17708 0.14004,9.85953 -1.65138,13.63175 -1.04675,2.20414 -2.21795,3.47868 -7.26047,7.90104 -1.72012,1.50857 -3.6611,3.25729 -4.31328,3.88604 -1.386,1.33621 -4.25078,2.53596 -7.73828,3.24074 -2.51069,0.50738 -3.65716,0.47427 -8.94648,-0.25839 -2.61241,-0.36187 -3.58196,-0.40876 -3.65922,-0.17698 -0.0578,0.17343 -0.73805,1.11372 -1.51164,2.08953 -1.50577,1.89939 -3.48239,3.15055 -6.49789,4.11301 -0.82972,0.26482 -1.66089,0.60207 -1.84706,0.74944 -0.18617,0.14738 -1.32234,0.37803 -2.52483,0.51256 -1.20249,0.13453 -2.8982,0.43002 -3.76825,0.65664 -2.29203,0.597 -2.34125,0.60456 -3.24272,0.49794 z m 2.74286,-1.75625 c 0.60343,-0.14993 2.10148,-0.37946 3.32901,-0.51006 1.22753,-0.13061 2.5081,-0.3853 2.84572,-0.56599 0.33762,-0.18069 1.48022,-0.62319 2.5391,-0.98334 1.05889,-0.36015 2.44333,-0.95844 3.07654,-1.32952 1.07952,-0.63264 2.88906,-2.71837 3.70304,-4.26823 0.45089,-0.8585 0.84984,-1.13341 1.36751,-0.94234 0.50274,0.18555 6.15171,0.95047 8.39003,1.13608 3.54314,0.2938 8.79518,-1.3558 11.19416,-3.51596 0.7351,-0.66192 2.34711,-2.1292 3.58225,-3.26063 1.23514,-1.13143 3.02386,-2.72489 3.97493,-3.54102 3.00489,-2.57855 4.18295,-4.95188 4.9756,-10.02394 0.39456,-2.52471 0.4538,-3.6607 0.25747,-4.93714 -0.57182,-3.71749 -1.11847,-6.38778 -1.54664,-7.55505 -0.57657,-1.5718 -3.44318,-6.17621 -6.11709,-9.82542 -3.24433,-4.42766 -3.40922,-4.68431 -4.87743,-7.59172 -3.13764,-6.21328 -4.64913,-11.03567 -5.33013,-17.00571 -0.46494,-4.07599 -0.46959,-15.16786 -0.007,-17.14286 0.19426,-0.82971 0.53711,-2.55771 0.7619,-3.84 0.22478,-1.28229 0.71443,-3.66111 1.08811,-5.28629 0.37368,-1.62517 0.72729,-3.41488 0.78581,-3.97714 0.20835,-2.002 1.03033,-5.44602 1.84783,-7.74228 0.45651,-1.28229 1.034,-2.9165 1.28331,-3.63159 0.47319,-1.35722 1.04974,-1.66269 1.68759,-0.89413 0.53301,0.64225 1.05759,0.48952 1.64872,-0.48 0.61636,-1.0109 0.67411,-1.6751 0.25116,-2.88838 l -0.2944,-0.84452 -1.11151,0.39217 c -0.61133,0.21569 -1.45531,0.39216 -1.8755,0.39216 -1.0445,0 -2.18419,-1.37061 -2.18419,-2.62676 0,-1.24507 0.38839,-1.19576 0.70591,0.0896 0.21415,0.86687 0.38267,1.04318 1.07199,1.1215 1.91982,0.21812 4.25639,-1.19339 4.25639,-2.57126 0,-0.39692 -0.0926,-0.67657 -0.20572,-0.62144 -0.11314,0.0551 -0.54397,0.26983 -0.95741,0.47713 -0.7019,0.35194 -0.79971,0.32509 -1.47672,-0.40541 -0.97254,-1.0494 -1.74644,-2.35022 -1.7477,-2.93767 -0.002,-0.80595 0.37919,-0.54062 1.05633,0.73581 0.35474,0.66869 0.79997,1.27528 0.98939,1.34797 0.58374,0.224 4.28412,-1.81341 5.5056,-3.03135 0.63616,-0.63432 1.54812,-1.74431 2.02659,-2.46666 0.95839,-1.44691 0.95243,-2.05594 -0.0332,-3.38903 -0.38453,-0.52011 -0.54795,-1.08576 -0.48733,-1.68677 0.26409,-2.61789 0.0621,-4.49646 -0.65063,-6.05165 -0.72611,-1.58433 -1.4565,-4.59932 -1.60737,-6.63508 l -0.0804,-1.08533 1.46008,-0.28609 c 1.65025,-0.32336 1.78027,-0.48124 2.23939,-2.71933 0.2591,-1.26299 0.25782,-1.86945 -0.006,-2.81142 -0.39836,-1.4228 -0.8613,-1.5244 -2.34822,-0.51535 -1.91147,1.29716 -4.09926,0.67276 -4.77064,-1.36154 -0.23367,-0.70803 -0.22975,-1.35318 0.0158,-2.60143 0.17961,-0.91294 0.40852,-1.65989 0.50869,-1.65989 0.10017,0 0.18809,-0.83314 0.19537,-1.85143 0.0147,-2.0558 0.50758,-4.18285 0.96925,-4.18285 0.19943,0 0.23675,0.39034 0.11146,1.16571 -0.44436,2.74986 -0.4819,3.71506 -0.16738,4.30276 0.29506,0.55132 0.37214,0.57057 0.78534,0.19612 0.252,-0.22836 1.13703,-1.34865 1.96675,-2.48954 1.32358,-1.81998 2.19428,-2.55631 2.19428,-1.85564 0,0.12226 -0.83786,1.32568 -1.86191,2.67429 -1.65292,2.17678 -1.95903,2.45182 -2.72713,2.4503 -0.78781,-0.002 -0.89117,0.10133 -1.15523,1.15003 -0.42227,1.677 -0.36017,2.39137 0.27847,3.20326 0.80864,1.02803 2.26996,0.99151 3.70266,-0.0925 0.59258,-0.44837 1.2207,-0.81866 1.39582,-0.82286 0.48068,-0.0115 1.41364,-2.16104 1.61047,-3.71049 0.11008,-0.8666 0.0472,-1.67432 -0.17083,-2.19428 -0.18978,-0.45257 -0.41611,-2.05714 -0.50297,-3.56571 l -0.15792,-2.74286 -1.01309,0.0883 c -0.59073,0.0515 -1.52149,-0.13663 -2.23258,-0.45118 l -1.21949,-0.53944 -0.58706,0.79404 c -0.73589,0.99534 -2.18632,1.09835 -3.06686,0.21781 -0.74587,-0.74586 -1.70476,-2.9165 -1.5112,-3.4209 0.23064,-0.60103 0.716,-0.46437 0.716,0.20161 0,0.76104 1.22318,2.85709 1.79545,3.07669 0.66087,0.2536 1.37133,-0.24737 1.88452,-1.32883 0.52446,-1.10522 0.7948,-1.1936 1.32698,-0.43381 0.773,1.10362 3.00701,1.47497 3.48625,0.5795 0.76517,-1.42972 0.0789,-3.54284 -1.71582,-5.28336 -2.18617,-2.12013 -2.41157,-3.566408 -0.60851,-3.904663 1.10064,-0.206481 1.14856,-0.420194 0.43467,-1.938576 -0.62276,-1.324575 -2.16478,-2.989415 -3.92926,-4.242227 -0.71657,-0.508779 -1.30286,-1.023881 -1.30286,-1.14467 0,-0.393359 -2.85985,-4.473642 -3.49557,-4.987297 -0.76397,-0.617275 -0.82658,-1.557235 -0.10372,-1.557235 0.28324,0 0.66864,0.185143 0.85644,0.411429 0.95447,1.150074 2.02988,-0.159152 2.6266,-3.197698 0.4646,-2.365792 0.46407,-2.378574 -0.13911,-3.354544 -0.60391,-0.977147 -1.00687,-1.16693 -3.58464,-1.68826 -0.528,-0.106784 -1.79211,-0.564993 -2.80915,-1.018244 -1.36033,-0.606247 -1.95926,-1.044824 -2.26571,-1.659103 -0.38719,-0.776144 -0.37768,-0.876388 0.13487,-1.421972 0.75188,-0.800341 0.69443,-1.14928 -0.27143,-1.64875 -0.45258,-0.234034 -0.83858,-0.576632 -0.85779,-0.76133 -0.0192,-0.184697 -0.0501,-1.577089 -0.0686,-3.094205 -0.0332,-2.72561 -0.0461,-2.776517 -1.08272,-4.28358 -0.577,-0.838854 -1.40761,-1.79026 -1.84581,-2.114235 -1.45711,-1.077286 -5.18073,-6.977706 -5.16631,-8.18649 0.15666,-13.132864 -0.17272,-17.962674 -1.38739,-20.343611 -0.54018,-1.058853 -1.7897,-2.18398 -2.09091,-1.882767 -0.0767,0.07674 -0.38215,0.80317 -0.67869,1.614298 l -0.53917,1.474777 0.80168,1.508571 c 1.01361,1.907375 2.10777,5.760028 2.49272,8.777143 0.1636,1.282286 0.36772,2.732572 0.45359,3.222857 0.13595,0.776225 0.0804,0.891429 -0.42975,0.891429 -0.73934,0 -0.98993,-0.660403 -1.2417,-3.272407 -0.26334,-2.732065 -1.30037,-6.724267 -2.22001,-8.546279 -1.00259,-1.986362 -3.15202,-4.429768 -4.68933,-5.33069 -1.04153,-0.610378 -1.45058,-0.703668 -2.43688,-0.555763 -0.65189,0.09776 -1.32245,0.343051 -1.49013,0.545098 -0.16769,0.202047 -0.56908,1.874221 -0.89198,3.715942 -0.57172,3.260811 -0.94923,4.046867 -1.62096,3.375138 -0.3912,-0.391199 0.76113,-6.902143 1.37333,-7.75961 0.33072,-0.463224 0.99355,-0.815326 2.04283,-1.085175 1.51557,-0.389765 1.58915,-0.381864 3.03144,0.325501 0.81299,0.398729 1.92196,1.114618 2.46438,1.590864 l 0.98621,0.865902 -0.40897,-1.159139 c -0.78275,-2.218545 -2.08601,-4.076922 -5.35376,-7.634178 l -3.28805,-3.579342 -1.98579,-0.58049 c -1.09219,-0.31927 -2.75387,-0.812787 -3.69262,-1.096703 -1.5547,-0.470202 -2.05587,-0.489731 -5.62286,-0.219108 -2.15382,0.163407 -4.42859,0.479107 -5.05505,0.701555 -0.62646,0.222448 -2.06597,1.175115 -3.1989,2.117038 -1.13293,0.941923 -2.432,1.866726 -2.88682,2.055118 -1.52948,0.63353 -2.65504,3.010672 -3.45023,7.286728 -0.43263,2.326409 -1.06375,4.854461 -2.12226,8.501012 -1.1747,4.046831 -1.42029,6.093621 -1.23442,10.287559 0.17227,3.887114 -0.0226,5.331116 -1.25831,9.325714 -0.33778,1.09191 -0.6021,2.899003 -0.68202,4.662858 -0.10811,2.386059 -0.24322,3.076544 -0.78783,4.025984 -0.36153,0.630292 -0.65734,1.3509 -0.65734,1.601351 0,0.844189 -1.57761,3.83227 -2.22907,4.222001 -0.35532,0.212563 -1.14085,0.439887 -1.74563,0.505164 -1.33189,0.14376 -3.27183,1.216144 -3.88052,2.145124 -0.64235,0.980349 -0.84301,2.251804 -0.60293,3.820376 0.22298,1.456819 1.26725,3.977142 1.6479,3.977142 0.44158,0 0.2181,1.163649 -0.57062,2.971169 -1.19552,2.739809 -1.44304,3.970208 -1.41831,7.050428 l 0.0225,2.803268 -2.26309,2.319414 c -3.13639,3.214452 -4.09399,4.892052 -4.25885,7.460989 -0.20534,3.19959 0.73876,5.19166 2.62479,5.53838 0.55918,0.1028 1.1022,0.31925 1.20672,0.481 0.26325,0.40744 -0.28449,0.99821 -0.92552,0.99821 -0.29214,0 -0.4691,0.10043 -0.39324,0.22318 0.31594,0.5112 -0.47849,4.39926 -1.22522,5.99642 -0.58538,1.25206 -0.80033,2.12461 -0.80033,3.2488 0,2.93035 2.05725,5.87604 3.54698,5.07877 0.28868,-0.1545 0.83336,-0.67507 1.21039,-1.15683 0.58629,-0.74914 0.74815,-0.82392 1.11835,-0.51669 0.23807,0.19758 0.43285,0.46325 0.43285,0.59039 0,0.45764 -1.66032,2.10974 -2.4482,2.43609 -0.73569,0.30473 -0.82097,0.48252 -0.99043,2.06494 -0.23439,2.18876 0.29647,5.65426 0.83453,5.44778 0.24569,-0.0943 0.39894,0.11787 0.45808,0.63416 0.0798,0.69673 0.2051,0.78432 1.22868,0.85892 1.2048,0.0878 3.11162,-0.54281 3.11162,-1.02908 0,-0.15855 0.20105,-0.28828 0.44677,-0.28828 0.37362,0 0.41935,-0.2133 0.27935,-1.30286 -0.4835,-3.76257 -0.49535,-4.32219 -0.10265,-4.84456 0.59583,-0.79258 1.38866,-0.38214 1.17152,0.60649 -0.18311,0.8337 0.54121,7.35135 0.93088,8.37624 0.13167,0.34632 1.30021,1.68098 2.59676,2.96591 2.30904,2.28835 2.85953,3.25021 1.86014,3.25021 -0.75034,0 -5.81134,-5.26446 -5.81134,-6.04496 0,-0.34985 -0.14399,-1.03428 -0.31997,-1.52096 -0.30889,-0.85421 -0.33502,-0.86662 -0.75429,-0.35822 -0.6249,0.75775 -3.33998,1.28111 -4.45763,0.85924 -0.47139,-0.17793 -0.95242,-0.26458 -1.06896,-0.19255 -0.11654,0.072 -0.34779,0.76462 -0.51388,1.53909 -0.26641,1.2422 -0.23508,1.54637 0.26589,2.58122 0.31233,0.6452 0.96642,1.47707 1.45353,1.84861 0.48711,0.37153 1.12619,1.15287 1.42019,1.73631 0.294,0.58343 0.8955,1.38155 1.33666,1.77358 0.83195,0.73929 0.79432,1.34435 -0.0836,1.34435 -0.59833,0 -1.9404,-1.00899 -1.94183,-1.4599 -5.7e-4,-0.17763 -0.26423,-0.75472 -0.58592,-1.28242 -0.58365,-0.95744 -0.58541,-0.95808 -0.82757,-0.30347 -0.29115,0.78706 0.068,1.41061 1.82428,3.16684 0.84686,0.84686 1.75291,2.30384 2.94395,4.73402 1.065,2.17302 1.87733,3.51065 2.132,3.51065 0.22628,0 0.74591,-0.67886 1.15472,-1.50857 0.57451,-1.166 0.73022,-1.85116 0.68572,-3.01715 -0.0513,-1.34262 0.002,-1.50857 0.48841,-1.50857 0.44522,0 0.58742,0.26024 0.77042,1.40993 0.19338,1.21487 0.12369,1.65126 -0.50371,3.15429 -0.88558,2.12153 -1.63246,2.97864 -2.59556,2.97864 -0.91603,0 -1.57616,-0.73629 -2.76563,-3.0847 -0.51547,-1.01773 -1.0361,-1.85087 -1.15694,-1.85143 -0.32275,-0.001 -1.01458,1.7865 -1.01458,2.62214 0,1.52936 1.54198,3.0885 2.88096,2.91303 0.48264,-0.0632 0.77932,0.20304 1.37862,1.23733 0.42001,0.72485 1.53197,2.25254 2.47103,3.39487 0.93906,1.14233 2.2985,3.05547 3.02097,4.25143 0.72247,1.19596 1.41592,2.21561 1.541,2.2659 0.12508,0.0503 0.22904,0.23543 0.23101,0.41143 0.002,0.176 0.61912,1.23929 1.37143,2.36287 0.75231,1.12358 1.36784,2.18444 1.36784,2.35748 0,0.17303 0.4942,1.07922 1.09821,2.01375 0.60402,0.93453 1.20549,2.15709 1.33659,2.71681 0.13111,0.55971 0.92584,3.30109 1.76608,6.09195 0.84023,2.79085 1.61034,5.568 1.71134,6.17142 0.101,0.60343 0.34069,1.34878 0.53264,1.65634 0.24506,0.39267 0.32204,1.49535 0.25849,3.70286 -0.14484,5.03099 -0.43812,11.86163 -0.54128,12.60652 -1.0761,7.77023 -1.42105,9.64647 -2.03829,11.08642 -0.27752,0.64743 -0.74923,2.39842 -1.04823,3.89108 -0.47654,2.37888 -0.90159,3.42068 -3.44305,8.43878 -1.59467,3.14866 -3.083,5.92773 -3.30741,6.1757 -0.87544,0.96735 -2.06711,4.10635 -2.45873,6.47659 -0.71077,4.30187 -1.07568,8.57781 -0.87979,10.30921 0.39297,3.47344 1.65914,7.3829 3.69709,11.41526 2.29029,4.53164 2.74497,4.98068 8.36778,8.26389 3.47318,2.02802 5.56759,2.76864 9.07428,3.2088 0.90514,0.11361 2.26285,0.29894 3.01714,0.41184 1.40503,0.2103 1.92983,0.16846 3.84,-0.30615 z m 9.40791,-14.30856 c -0.88679,-0.70043 -1.84372,-2.67421 -2.70567,-5.58075 -1.50468,-5.07388 -1.71472,-8.06497 -0.56633,-8.06497 0.43327,0 0.52549,0.31219 0.66848,2.26286 0.0912,1.24457 0.40234,3.00343 0.69136,3.90857 0.28903,0.90514 0.73211,2.3534 0.98462,3.21835 0.2525,0.86495 0.8891,2.13595 1.41464,2.82446 0.92034,1.2057 1.01321,1.77433 0.2898,1.77433 -0.18855,0 -0.53816,-0.15428 -0.7769,-0.34285 z M 136.86862,233.76 c 7e-5,-1.10677 0.6505,-4.39561 2.18337,-11.04 1.90606,-8.26203 3.22051,-15.22877 3.57081,-18.92572 0.16438,-1.73485 0.35027,-3.56575 0.41309,-4.06865 0.23534,-1.88415 -0.37957,-12.51111 -0.80413,-13.89706 -0.23106,-0.75429 -0.42144,-1.61388 -0.42308,-1.9102 -0.003,-0.4726 0.046,-0.48945 0.39568,-0.13715 0.86325,0.86971 1.26281,3.58218 1.43546,9.7448 0.18334,6.54413 -0.11641,11.11318 -1.04254,15.89112 -0.29241,1.50857 -0.83335,4.34743 -1.20209,6.30857 -0.36873,1.96115 -1.15653,5.54057 -1.75066,7.95429 -0.59412,2.41371 -1.28003,5.49943 -1.52423,6.85714 -0.68113,3.78687 -0.72893,3.97714 -0.99924,3.97714 -0.13887,0 -0.25247,-0.33942 -0.25244,-0.75428 z m 16.32393,-12.6052 c -0.10925,-0.42143 -0.23602,-4.03709 -0.28171,-8.0348 -0.0457,-3.99772 -0.21071,-8.19429 -0.3667,-9.32572 -0.64989,-4.71376 -0.89063,-11.17139 -0.59534,-15.96899 0.68027,-11.05226 1.30505,-15.46286 2.08054,-14.68738 0.0652,0.0652 -0.0603,1.34271 -0.27885,2.83889 -1.17464,8.04068 -1.48285,19.79531 -0.66825,25.48606 0.15116,1.056 0.37085,5.86971 0.48821,10.69714 0.11735,4.82743 0.26458,8.94686 0.32717,9.15428 0.0626,0.20743 -0.0257,0.42881 -0.19632,0.49195 -0.17056,0.0631 -0.3995,-0.23 -0.50875,-0.65143 z m 10.15927,-0.33106 c -0.0973,-0.15745 0.0726,-0.62835 0.37751,-1.04644 1.68168,-2.30561 2.5573,-13.71722 1.53156,-19.96016 -0.66464,-4.04516 -0.41992,-8.32158 0.45943,-8.02846 0.32971,0.1099 0.32824,0.16375 -0.0547,2.00852 -0.26093,1.25689 -0.22904,2.01604 0.18707,4.45328 0.37822,2.21531 0.49861,4.32132 0.48936,8.56095 -0.013,5.97201 -0.39978,9.63876 -1.26179,11.96269 -0.55758,1.50319 -1.42812,2.53551 -1.72841,2.04962 z m -15.65254,-5.96098 c 0.10548,-1.01274 -0.0405,-3.12482 -0.39548,-5.7199 -0.3095,-2.26286 -0.71018,-7.53766 -0.89039,-11.72177 -0.34048,-7.90489 -0.21262,-11.00769 0.75953,-18.43222 0.21603,-1.64984 0.39277,-3.95403 0.39277,-5.12043 0,-2.23873 0.1722,-3.08391 0.57732,-2.83354 0.4272,0.26403 0.26837,3.67931 -0.46602,10.02076 -0.65779,5.68008 -0.69968,6.72463 -0.55443,13.82434 0.0967,4.72584 0.33951,9.10433 0.63129,11.38286 0.58765,4.58917 0.66037,9.90855 0.13786,10.08443 -0.28167,0.0948 -0.32342,-0.22721 -0.19245,-1.48453 z m 9.46643,-4.46529 c 0,-0.16482 0.48309,-1.44025 1.07353,-2.83428 1.35447,-3.1979 3.1594,-10.15676 3.60982,-13.91748 0.18971,-1.584 0.41699,-3.48737 0.50508,-4.22972 0.16378,-1.38037 0.84095,-2.12465 0.85159,-0.93599 0.034,3.80295 -2.46639,15.20394 -4.23882,19.32741 -1.01154,2.35332 -1.8012,3.48882 -1.8012,2.59006 z m 13.51697,-12.84319 0.11184,-10.62857 1.10093,-4.20268 c 0.64324,-2.45548 1.30191,-4.394 1.58435,-4.66286 0.58711,-0.55888 0.64892,-0.92802 -0.95626,5.71126 l -1.16051,4.8 0.0445,9.80571 c 0.0401,8.83989 0.001,9.80572 -0.3961,9.80572 -0.39889,0 -0.42997,-1.00511 -0.32871,-10.62858 z m -34.11338,5.76 c -0.0137,-0.11314 -0.005,-1.38642 0.0205,-2.82951 0.0439,-2.53486 -7.2e-4,-2.74455 -1.31656,-6.18562 -0.74911,-1.95899 -1.85612,-4.54285 -2.46001,-5.74191 -0.60389,-1.19905 -1.18977,-2.48867 -1.30195,-2.86581 -0.11218,-0.37715 -0.49553,-1.32581 -0.85189,-2.10814 -0.70063,-1.53812 -0.83002,-2.38684 -0.33891,-2.22314 0.16996,0.0566 0.72801,1.14694 1.24012,2.42285 0.51211,1.27592 1.54419,3.61586 2.29352,5.19986 2.20452,4.66013 3.36712,7.9136 3.50333,9.80386 0.14547,2.01876 -0.1462,4.73328 -0.50859,4.73328 -0.14,0 -0.26579,-0.0926 -0.27953,-0.20572 z m 4.03786,-6.72 c -0.091,-0.33942 -0.16707,-1.31001 -0.16913,-2.15684 -0.005,-2.20505 -0.41374,-4.06805 -1.48656,-6.78167 -1.18843,-3.00603 -1.70357,-5.19624 -1.31384,-5.58597 0.19827,-0.19827 0.38389,0.0816 0.60585,0.9136 0.33255,1.24648 0.96152,3.15057 2.10962,6.38647 0.73817,2.08054 1.25453,7.84156 0.70284,7.84156 -0.15586,0 -0.35781,-0.27772 -0.44878,-0.61715 z m 23.55845,-20.49665 c -0.3628,-0.40089 -0.44891,-0.80071 -0.3301,-1.53281 0.13897,-0.8564 0.0976,-0.96473 -0.30597,-0.80049 -2.56507,1.04401 -3.89526,0.5762 -3.89526,-1.3699 0,-0.90213 0.21166,-1.43845 0.94851,-2.40348 1.17772,-1.54241 4.93228,-4.59667 5.65062,-4.59667 0.73286,0 0.66961,0.50995 -0.0995,0.80237 -0.3475,0.13212 -1.44797,0.93693 -2.44547,1.78847 -3.01663,2.57519 -4.01335,4.26791 -3.06908,5.21218 0.60078,0.60078 1.61076,0.42413 3.15746,-0.55227 0.91127,-0.57526 1.18862,-0.64604 1.37647,-0.35129 0.12939,0.20301 0.18604,0.49254 0.1259,0.6434 -0.0601,0.15086 -0.30225,0.7249 -0.53801,1.27565 -0.56689,1.32431 -0.13522,1.73364 1.61967,1.53583 1.3476,-0.15189 1.83228,0.14676 0.97917,0.60333 -0.91097,0.48754 -2.62747,0.35002 -3.17439,-0.25432 z m -35.33968,-6.08664 c -0.99657,-0.99658 -0.55716,-1.49537 0.4685,-0.53181 0.33836,0.31788 0.88893,0.57796 1.22349,0.57796 0.83486,0 2.51065,-0.72856 2.51065,-1.09153 0,-0.79527 -4.77626,-4.20793 -5.54695,-3.96332 -0.32543,0.10329 -0.48734,0.0119 -0.48734,-0.27524 0,-1.2903 3.50537,0.39342 5.85454,2.8121 1.31099,1.34977 1.236,1.91971 -0.35837,2.72371 -1.70823,0.86141 -2.61345,0.79919 -3.66452,-0.25187 z m 22.66353,-10.33351 c -0.15287,-0.0992 -0.34523,-1.18735 -0.42747,-2.41813 -0.0823,-1.23079 -0.27711,-2.46508 -0.43302,-2.74286 -0.24355,-0.4339 -0.40567,-0.24421 -1.15065,1.34637 -0.62514,1.33469 -1.01306,1.85142 -1.38989,1.85142 -0.74569,0 -0.66127,-0.73225 0.30804,-2.67202 0.95295,-1.90701 1.34119,-2.29522 2.67793,-2.6777 1.40032,-0.40069 1.84625,-1.78524 1.39396,-4.32812 -0.24051,-1.35219 -0.24858,-1.94308 -0.0295,-2.16213 0.49299,-0.49299 1.16104,-0.0383 1.1627,0.79137 8.4e-4,0.41959 0.13036,1.2268 0.28782,1.79379 0.3866,1.3921 -0.35302,4.11218 -1.32631,4.87778 -0.66189,0.52064 -0.67405,0.589 -0.37222,2.09195 0.60922,3.03348 0.30126,4.89882 -0.70136,4.24828 z m 6.14312,-1.05658 c -0.0731,-0.1215 -0.17715,-1.08258 -0.23129,-2.13574 -0.0848,-1.65047 -0.0323,-1.92778 0.38077,-2.00853 0.65765,-0.12858 1.07473,1.07378 0.97336,2.806 -0.0604,1.03144 -0.19751,1.40862 -0.53556,1.47284 -0.24994,0.0475 -0.51421,-0.0131 -0.58728,-0.13457 z m -17.27041,-9.75233 c -0.11704,-0.34056 -0.0157,-0.69347 1.30441,-4.54206 0.37824,-1.10271 0.6877,-2.41656 0.6877,-2.91968 0,-1.3224 1.02182,-4.46582 1.94293,-5.97705 1.09427,-1.79532 2.32957,-4.57649 2.54663,-5.7335 0.23741,-1.2655 -0.62236,-2.56694 -2.26984,-3.43585 -1.34247,-0.70805 -3.47819,-0.85791 -4.19999,-0.29472 -0.38174,0.29787 -2.8207,3.81656 -3.66009,5.28043 -0.33297,0.58068 -1.21678,0.40015 -1.21678,-0.24855 0,-0.22137 0.67886,-1.4167 1.50857,-2.65631 0.82972,-1.2396 1.50857,-2.35836 1.50857,-2.48612 0,-1.14987 -6.9666,1.71481 -9.22999,3.79538 -1.70042,1.56307 -4.21001,7.10923 -4.21001,9.30407 0,0.46159 -0.15433,0.65682 -0.51922,0.65682 -0.71709,0 -0.88148,-0.60249 -0.58073,-2.12835 0.67487,-3.42396 2.89462,-7.68843 4.78662,-9.19581 2.31752,-1.84638 7.55377,-4.03584 9.65203,-4.03584 0.76186,0 1.0267,-1.01739 0.96164,-3.69411 -0.0599,-2.46358 -0.89949,-4.40105 -1.78723,-4.12423 -0.31992,0.0997 -1.76753,0.28563 -3.21691,0.41305 -3.20041,0.28137 -4.28947,0.56259 -7.65048,1.97551 -1.43314,0.60247 -2.91343,1.16504 -3.28952,1.25016 -1.7877,0.40462 -5.24466,5.16929 -5.66705,7.81083 -0.16349,1.02238 -0.69494,1.29026 -0.86111,0.43405 -0.12929,-0.66614 0.97185,-3.32549 2.09733,-5.06526 2.72508,-4.21242 8.73276,-7.25317 15.2032,-7.69499 1.92481,-0.13143 2.62094,-0.30217 3.46591,-0.85006 1.306,-0.84683 1.94267,-2.12465 1.94267,-3.89903 0,-1.25502 -0.0566,-1.37003 -0.75429,-1.53171 -0.41486,-0.0961 -1.26529,-0.46604 -1.88985,-0.82198 -1.4189,-0.80864 -4.75501,-3.5272 -5.30781,-4.32528 -0.22757,-0.32855 -1.86405,-2.06422 -3.63662,-3.85705 C 126.00672,98.232146 124.8,96.800091 124.8,96.446664 c 0,-0.31073 -0.56974,-1.143405 -1.2661,-1.850388 -0.70535,-0.716127 -1.20201,-1.449163 -1.1214,-1.655135 0.0933,-0.238291 0.9577,0.507794 2.43181,2.098858 1.25791,1.357715 4.32599,4.505143 6.81794,6.994291 4.7824,4.777 6.79825,6.24493 8.12026,5.91313 1.79635,-0.45086 2.03364,-5.15599 0.36047,-7.14742 -1.05734,-1.258452 -2.55712,-3.609382 -3.47363,-5.444974 -0.53845,-1.078408 -1.20071,-2.246333 -1.4717,-2.59539 -0.51237,-0.65997 -0.43524,-1.422494 0.14388,-1.422494 0.53438,0 1.44461,1.127954 2.04737,2.537089 0.80114,1.872918 3.22656,5.564374 4.18697,6.372509 1.12136,0.94355 2.43439,0.91979 3.5295,-0.0639 0.64366,-0.578164 0.96618,-1.249746 1.38121,-2.876168 0.70348,-2.756747 1.34198,-6.387639 1.34837,-7.667648 0.005,-1.099434 0.26177,-1.41382 0.9403,-1.153446 0.28832,0.110641 0.43618,0.506274 0.43618,1.167147 0,1.019067 -0.78164,5.427109 -1.38206,7.794097 -0.31594,1.2455 -0.28938,1.396726 0.5418,3.085098 0.48072,0.97647 1.09784,1.89519 1.3714,2.04159 0.44301,0.23709 0.61054,-0.0551 1.53293,-2.673675 1.28405,-3.645257 1.73381,-4.391941 4.54428,-7.544319 1.1292,-1.266566 1.74338,-0.984252 0.65994,0.303345 -0.37931,0.450789 -0.84382,1.170954 -1.03224,1.600367 -0.18842,0.429413 -0.68525,1.286694 -1.10408,1.905069 -0.95545,1.410654 -2.93575,7.112913 -3.13261,9.020293 -0.2012,1.94938 0.29856,3.43253 1.1566,3.43253 0.74025,0 1.18274,-0.39001 2.32333,-2.04781 0.94908,-1.37944 4.13332,-4.50955 5.11912,-5.03211 0.37344,-0.19795 0.88786,-0.31622 1.14314,-0.26282 0.33814,0.0707 0.16627,0.28867 -0.63298,0.8027 -1.22546,0.78814 -3.70286,3.33303 -3.70286,3.80374 0,0.4782 -1.33628,2.20407 -2.78806,3.60091 -1.66922,1.60606 -1.7353,2.34584 -0.29765,3.33219 1.42392,0.97693 2.25125,1.12057 3.80512,0.66064 1.40443,-0.4157 4.55722,-0.19829 5.65657,0.39007 0.9581,0.51276 3.08482,1.05512 4.14904,1.05809 0.91288,0.003 1.01417,0.0608 0.7207,0.4144 -0.1878,0.22629 -0.66577,0.41009 -1.06216,0.40846 -0.84973,-0.004 -2.94527,-0.61121 -4.05259,-1.17527 -0.43032,-0.2192 -1.60667,-0.48464 -2.61411,-0.58987 -1.64035,-0.17134 -1.89197,-0.13106 -2.40857,0.38553 -0.31727,0.31728 -0.97415,0.64998 -1.45972,0.73933 -1.96405,0.36143 -2.07131,1.74532 -0.26571,3.42822 0.99396,0.92642 1.97099,1.46431 4.12091,2.26872 1.54992,0.57993 2.88407,1.16123 2.96476,1.29179 0.0807,0.13056 0.38628,0.23738 0.67909,0.23738 0.29281,0 0.53238,0.18514 0.53238,0.41143 0,0.28138 -0.28198,0.41142 -0.89213,0.41142 -1.12187,0 -6.22635,-1.9276 -7.25317,-2.73901 l -0.76898,-0.60766 -0.0906,0.75315 c -0.0498,0.41423 0.10597,1.26793 0.34625,1.8971 1.08435,2.83932 4.10102,4.21584 9.90199,4.51834 1.96611,0.10252 3.75583,0.29032 3.97714,0.41733 0.64263,0.3688 1.63668,1.32148 1.63668,1.56857 0,0.40803 -0.63847,0.23763 -1.24514,-0.3323 -0.82438,-0.77447 -3.1611,-1.1144 -4.4635,-0.64931 -1.36181,0.48629 -1.81721,0.47144 -4.12528,-0.13453 -1.21369,-0.31864 -1.88237,-0.39824 -1.72817,-0.20571 1.87118,2.33624 3.05924,4.16814 3.05924,4.71713 0,0.98585 -0.94088,0.88776 -1.36766,-0.14257 -0.37381,-0.90246 -1.10091,-1.65676 -1.10091,-1.14211 0,0.16808 0.61229,1.51005 1.36066,2.98216 1.6854,3.31537 2.20505,4.76763 2.20505,6.16248 0,1.65373 -0.64888,1.14974 -0.87985,-0.68338 -0.21941,-1.74136 -1.34715,-4.17927 -2.26853,-4.90403 -0.77445,-0.60919 -1.63644,-2.59789 -2.09754,-4.83927 -0.31558,-1.53397 -0.51779,-1.88258 -1.78993,-3.08572 -1.26996,-1.20106 -1.57178,-1.35637 -2.63601,-1.35637 -3.79392,0 -6.33286,2.52824 -5.23132,5.20927 0.45955,1.11848 0.86589,4.80663 0.6366,5.77794 -0.10034,0.42503 -0.35213,0.66993 -0.68879,0.66993 -0.47578,0 -0.53958,-0.23872 -0.61723,-2.30947 -0.11971,-3.19238 -0.33515,-3.41204 -1.30619,-1.33179 -0.44191,0.9467 -1.07844,2.15326 -1.41453,2.68126 -0.84343,1.32507 -1.42954,3.09193 -1.72687,5.20575 -0.38034,2.70401 -2.22256,7.95997 -2.78997,7.95997 -0.25213,0 -0.51143,-0.15429 -0.57624,-0.34286 z m 10.03435,-24.07507 c 0.65433,-0.28944 1.89605,-0.60928 2.75937,-0.71074 1.28936,-0.15154 1.53921,-0.26317 1.39908,-0.62505 -0.51499,-1.32993 -0.73574,-3.01826 -0.49074,-3.75326 0.20995,-0.62984 0.15142,-0.98429 -0.28456,-1.72321 -0.47863,-0.81122 -0.50895,-1.07501 -0.23691,-2.06146 0.28565,-1.03587 0.26076,-1.17298 -0.29541,-1.62675 -2.25045,-1.83613 -2.19761,-1.75286 -2.00997,-3.16733 0.14458,-1.08992 0.0844,-1.40236 -0.34504,-1.79099 -0.69581,-0.6297 -1.23792,-2.66323 -1.0612,-3.98076 0.12605,-0.93976 0.0484,-1.13662 -0.65277,-1.65502 -0.43771,-0.32362 -1.12877,-1.10826 -1.5357,-1.74366 -0.40692,-0.6354 -0.77633,-1.20719 -0.82092,-1.27064 -0.0446,-0.0635 -0.35828,0.14433 -0.69712,0.46173 -0.74594,0.69876 -1.902,1.16239 -2.89677,1.16171 -0.72545,-4.9e-4 -0.73508,0.0234 -0.64567,1.60258 0.10765,1.9014 -0.32469,3.70613 -1.06523,4.44667 -0.41122,0.41123 -0.5341,0.91476 -0.5341,2.18863 0,1.77053 -0.50919,3.3248 -1.39978,4.27279 l -0.55073,0.58623 0.68676,1.012 c 0.84365,1.24319 1.10756,2.86645 0.91731,5.64219 l -0.14549,2.12261 1.87115,0.13388 c 1.94985,0.13951 3.68434,0.90588 4.77311,2.10896 l 0.5288,0.58433 0.77141,-0.84459 c 0.42428,-0.46452 1.30678,-1.0814 1.96112,-1.37085 z m -27.29859,21.74364 c -1.66259,-1.7724 -3.37684,-7.06182 -2.51931,-7.7735 0.5718,-0.47456 0.87195,-0.0731 1.20131,1.60686 0.42843,2.18534 0.75533,2.98009 1.9768,4.80603 0.58425,0.87338 0.989,1.70652 0.89944,1.85143 -0.28365,0.45896 -0.82819,0.28744 -1.55824,-0.49082 z m 59.48712,-0.85747 c -0.87879,-0.41478 -1.71004,-0.93153 -1.84722,-1.14834 -0.29152,-0.4607 -0.3362,-1.92796 -0.0791,-2.59792 0.1963,-0.51155 2.80031,-1.82934 3.16702,-1.6027 0.39099,0.24165 -0.0551,0.6569 -1.19615,1.11346 -1.14924,0.45984 -1.74365,1.40004 -1.4567,2.30415 0.26508,0.83519 2.97955,1.89739 4.84883,1.89739 1.18585,0 1.6043,0.0942 1.52222,0.34286 -0.0709,0.21465 -0.72047,0.362 -1.73714,0.39405 -1.27323,0.0401 -1.96902,-0.11167 -3.22175,-0.70295 z m -2.03648,-22.65937 c -0.72259,-0.52184 -0.78046,-1.36541 -0.22032,-3.2112 0.50627,-1.66828 0.88284,-2.38171 1.74515,-3.30624 1.3227,-1.41816 1.63136,-0.68986 0.33391,0.78787 -0.85984,0.9793 -1.75191,3.51578 -1.60365,4.55978 0.14492,1.0205 1.56886,0.95942 3.94551,-0.16925 1.11501,-0.52952 2.09037,-0.86069 2.16747,-0.73594 0.18527,0.29977 -0.24475,0.62453 -1.98119,1.49621 -1.88913,0.94832 -3.56839,1.16987 -4.38688,0.57877 z m -66.5309,-0.0426 c -0.22424,-0.22424 0.0367,-1.92113 0.40523,-2.63481 0.28742,-0.55669 0.93527,-0.6361 1.11881,-0.13715 0.22585,0.61398 -0.45928,2.80284 -0.90366,2.88705 -0.23364,0.0443 -0.51281,-0.008 -0.62038,-0.11509 z m -0.81962,-4.38533 c -0.10578,-0.10579 -0.19505,-1.06663 -0.19836,-2.1352 -0.007,-2.19205 -0.60937,-3.854 -1.79609,-4.95382 -0.74616,-0.69152 -0.75806,-1.51475 -0.0219,-1.51475 0.63605,0 2.05476,1.65147 2.5737,2.99594 0.64702,1.67629 0.68798,5.59259 0.0598,5.71643 -0.23365,0.046 -0.51136,-0.003 -0.61715,-0.1086 z m 5.49557,-2.08948 c -0.18617,-0.48802 1.32041,-4.12856 1.84451,-4.45715 1.15128,-0.72181 0.88262,1.22971 -0.55092,4.00188 -0.42779,0.82725 -1.06601,1.05186 -1.29359,0.45527 z m -10.43918,-5.3227 c -0.3393,-0.3393 -0.19221,-1.19159 0.20565,-1.19159 0.21534,0 0.64734,-0.32522 0.96,-0.7227 0.69843,-0.88792 0.7799,-3.45177 0.15705,-4.94246 -0.5013,-1.19978 -0.52525,-1.92942 -0.0686,-2.08872 0.58302,-0.20337 1.02812,0.10544 1.03829,0.72037 0.005,0.32329 0.18612,0.89637 0.40171,1.27351 0.50292,0.87976 0.52544,3.86255 0.0379,5.01452 -0.55932,1.32148 -2.1908,2.47825 -2.73199,1.93707 z m 5.02556,-6.13718 c 0,-0.63431 -0.31627,-1.13804 -1.33464,-2.12572 -1.08201,-1.04938 -1.39353,-1.56954 -1.64572,-2.7479 -0.40192,-1.878027 -0.39227,-2.159511 0.0803,-2.340854 0.55103,-0.211451 0.88563,0.306697 1.12181,1.737208 0.16109,0.975646 0.47548,1.497556 1.50034,2.490666 1.75762,1.70317 2.20643,3.81791 0.81028,3.81791 -0.40988,0 -0.53238,-0.19129 -0.53238,-0.83131 z m 9.23428,0.37416 c -0.48859,-0.48859 -0.0335,-1.00825 1.53143,-1.74857 0.94286,-0.44605 1.89943,-0.81171 2.12572,-0.81257 0.47767,-0.002 -0.27875,-0.66344 -3.36,-2.938837 -2.04033,-1.506711 -2.66405,-2.230614 -1.64572,-1.910039 2.35626,0.741759 3.26194,1.304249 6.24189,3.876676 1.05704,0.91248 2.2805,1.91899 2.7188,2.23668 0.55585,0.4029 0.74237,0.71975 0.6166,1.04749 -0.21957,0.5722 -1.1196,0.36705 -2.02538,-0.46166 -0.51326,-0.46959 -0.84708,-0.53169 -2.14066,-0.39818 -0.84291,0.087 -1.96489,0.41326 -2.4933,0.72502 -1.03087,0.60823 -1.28336,0.67001 -1.56938,0.38399 z m 55.50676,-12.559849 c -0.18252,-0.219918 -1.64685,-1.053061 -3.25407,-1.851429 l -2.92222,-1.451577 h -3.2938 -3.29381 l -2.19428,1.187672 c -1.20686,0.65322 -2.4491,1.424649 -2.76054,1.714286 -0.5977,0.55586 -1.21661,0.696627 -1.21661,0.27671 0,-0.467312 1.726,-1.704337 3.91058,-2.802723 2.15474,-1.083382 2.21449,-1.095819 5.51103,-1.14703 l 3.33268,-0.05177 2.70429,1.305542 c 3.1293,1.510726 4.28999,2.27571 4.28999,2.827421 0,0.50617 -0.39009,0.502765 -0.81324,-0.0071 z m -65.7085,-0.983639 c -0.28995,-0.469164 0.63464,-1.601773 1.72778,-2.116493 0.96683,-0.455246 1.05945,-0.617007 1.76414,-3.080961 0.40906,-1.430268 0.82658,-3.280951 0.92782,-4.112629 0.10125,-0.831678 0.4232,-2.293914 0.71545,-3.249414 0.29225,-0.955501 0.64371,-2.427549 0.78102,-3.271219 0.26117,-1.60467 0.72318,-2.198065 1.27144,-1.633017 0.38013,0.391771 0.0855,2.405772 -0.73084,4.995795 -0.2853,0.905143 -0.65367,2.571428 -0.81861,3.702857 -0.37119,2.546124 -1.55945,6.556313 -2.13345,7.2 -0.23541,0.264 -0.58457,0.48 -0.7759,0.48 -0.19133,0 -0.71459,0.308571 -1.1628,0.685714 -0.88244,0.74253 -1.28976,0.846403 -1.56605,0.399367 z m 65.25615,-1.97651 c -1.38231,-1.958844 -5.4966,-4.32 -7.52755,-4.32 -0.34447,0 -0.52923,-0.138626 -0.45697,-0.342857 0.17512,-0.494946 1.77588,-0.333163 3.34081,0.337645 0.91838,0.393664 1.42545,0.484498 1.61978,0.290162 0.32921,-0.329204 -0.10668,-0.701724 -1.83401,-1.567391 -1.79965,-0.901909 -7.5616,-2.632668 -9.35164,-2.809019 -1.96361,-0.19345 -2.47896,-0.848168 -0.66197,-0.840982 2.17378,0.0086 9.04725,2.116145 11.23417,3.444625 1.5697,0.953542 1.95191,1.58631 1.33239,2.205826 -0.18934,0.189345 0.11858,0.564778 0.95714,1.166983 1.05272,0.756012 2.88773,2.944768 2.88773,3.444428 0,0.532702 -0.84038,-0.01819 -1.53988,-1.00942 z M 153.87428,87.782 c 0,-0.145042 0.46286,-0.379522 1.02858,-0.521066 2.78201,-0.696069 2.73037,-0.675959 2.04037,-0.794541 -0.34866,-0.05992 -0.69489,-0.267825 -0.7694,-0.462013 -0.10604,-0.27633 -0.7622,-0.206172 -3.01887,0.322783 -1.58585,0.37172 -2.94912,0.610102 -3.02949,0.529737 -0.36977,-0.369774 0.36096,-0.731604 2.31418,-1.145885 1.16619,-0.247353 2.6916,-0.644496 3.38979,-0.882542 1.26599,-0.431633 2.34698,-0.325756 2.02318,0.198161 -0.0939,0.151922 -0.44114,0.288323 -0.77167,0.303113 -0.34038,0.01523 0.0163,0.22336 0.82263,0.48 0.78297,0.24921 1.51325,0.545681 1.62286,0.658824 0.1096,0.113143 0.48727,0.205714 0.83927,0.205714 0.352,0 0.64,0.113605 0.64,0.252454 0,0.13885 -0.83314,0.326118 -1.85143,0.416152 -1.01828,0.09003 -2.44713,0.285001 -3.17521,0.43326 -1.65938,0.337902 -2.10479,0.339139 -2.10479,0.0058 z m -32.22976,-6.869652 c -0.21247,-0.343781 -0.0673,-0.385948 3.24806,-0.943305 1.89993,-0.319406 3.4013,-0.783492 5.07429,-1.568505 2.12604,-0.997603 5.0291,-1.735999 5.3933,-1.371795 0.36164,0.361643 0.0273,0.576338 -1.16589,0.748574 -2.92628,0.422422 -1.5732,0.527141 5.77854,0.44722 6.36138,-0.06916 7.66685,-0.02059 7.37314,0.274285 -0.26999,0.271068 -1.80615,0.365259 -6.30857,0.386814 -3.27342,0.01567 -6.93911,0.129786 -8.14596,0.253589 -1.20686,0.123804 -2.34557,0.198832 -2.53048,0.166729 -0.1849,-0.0321 -0.68919,0.124177 -1.12064,0.347288 -0.76126,0.393666 -5.90868,1.535329 -6.92233,1.535329 -0.27651,0 -0.57957,-0.1243 -0.67346,-0.276223 z M 128.64,65.597717 c 0,-0.168997 0.33943,-0.376944 0.75428,-0.462105 1.74617,-0.358452 3.02533,-0.779102 4.24232,-1.395076 1.576,-0.797692 2.12064,-0.84828 1.47712,-0.1372 -1.10496,1.220975 -6.47372,2.874944 -6.47372,1.994381 z m -6.89533,-2.488393 c -0.74502,-0.604001 -0.47743,-1.129135 0.32122,-0.63037 0.71598,0.447131 1.72252,0.418695 2.92218,-0.08255 0.54631,-0.228266 1.04842,-0.359906 1.11579,-0.292534 0.46532,0.465316 -1.56018,1.53042 -2.91038,1.53042 -0.4407,0 -1.09267,-0.236232 -1.44881,-0.524961 z m 10.66676,-1.954286 c -0.79966,-0.484571 -0.54459,-0.729043 0.73174,-0.70134 0.95066,0.02063 1.48427,-0.165769 2.47659,-0.865127 1.46564,-1.03294 1.95234,-1.144911 1.5277,-0.351463 -0.35768,0.668343 -2.37106,1.873107 -3.452,2.065609 -0.44222,0.07875 -1.02003,0.0123 -1.28403,-0.147679 z m 21.32571,-2.986777 c -1.20686,-0.419028 -2.99657,-1.171461 -3.97714,-1.672072 -0.98057,-0.500612 -2.27657,-0.995169 -2.88,-1.099017 -0.60343,-0.103848 -1.41306,-0.275316 -1.79917,-0.381041 -0.5436,-0.148847 -1.02256,0.02347 -2.12238,0.763599 -0.78734,0.529839 -1.49348,0.837496 -1.58444,0.690318 -0.25297,-0.409305 0.4055,-1.041812 1.84277,-1.770135 1.29036,-0.653873 1.33578,-0.657245 3.29694,-0.244702 1.09371,0.230069 2.7344,0.831691 3.64599,1.336939 1.74877,0.969259 5.50599,2.356421 6.38251,2.356421 0.28525,0 0.75824,0.181217 1.05107,0.402705 0.49628,0.375369 0.45795,0.401896 -0.56472,0.39078 -0.60343,-0.0066 -2.08457,-0.354767 -3.29143,-0.773795 z M 131.21559,57.12 c 0.094,-0.414858 0.24898,-1.161432 0.34432,-1.659056 l 0.17334,-0.904769 -1.45211,0.551756 c -1.36833,0.519926 -1.91543,0.536501 -1.91543,0.05803 0,-0.333133 3.50511,-1.475797 3.85799,-1.257703 0.59061,0.365015 -0.19572,3.966023 -0.86603,3.966023 -0.2001,0 -0.25136,-0.27215 -0.14208,-0.754285 z m 28.91178,-0.323878 c -0.86024,-0.27505 -2.10845,-0.819123 -2.77381,-1.209051 -1.20759,-0.707696 -2.9307,-2.432603 -2.9307,-2.933758 0,-0.513231 0.59184,-0.255401 1.27361,0.554833 1.06983,1.271416 2.25219,1.999969 4.46536,2.751472 1.11987,0.380262 2.08673,0.843195 2.14857,1.028741 0.14921,0.447631 -0.30763,0.407401 -2.18303,-0.192237 z m -31.86665,-2.435533 c -0.0755,-0.122247 -0.005,-0.742942 0.15632,-1.379322 0.24525,-0.966192 0.21999,-1.238494 -0.1531,-1.650758 -0.55408,-0.612253 -0.56616,-0.861938 -0.0417,-0.861938 0.22281,0 0.60528,0.305512 0.84994,0.678914 0.3882,0.592458 0.39986,0.854425 0.0916,2.057143 -0.33617,1.31166 -0.59897,1.648042 -0.90309,1.155961 z m 22.52785,-3.699859 c -0.72542,-0.286649 -1.06009,-1.015016 -0.46638,-1.015016 0.48813,0 1.90638,0.821462 1.90638,1.104187 0,0.329107 -0.45236,0.301095 -1.44,-0.08917 z m -25.28355,-1.22847 c -0.0904,-0.284866 0.0225,-1.04775 0.25101,-1.695298 0.5228,-1.481772 0.52372,-1.931248 0.004,-1.931248 -0.22629,0 -0.41143,-0.185143 -0.41143,-0.411429 0,-0.542285 0.93311,-0.528148 1.38889,0.02104 0.29408,0.354343 0.29522,0.639261 0.006,1.577143 -0.19393,0.629569 -0.38285,1.50856 -0.41983,1.953313 -0.0782,0.94103 -0.58005,1.239127 -0.81893,0.486476 z m 27.69946,-3.557975 c -1.38656,-2.635637 -4.79353,-6.766557 -5.66612,-6.870132 -0.6142,-0.07291 -0.73804,0.07993 -1.16676,1.44 -0.30452,0.966027 -0.63148,1.521561 -0.89553,1.521561 -0.44547,0 -0.44163,-0.02322 0.38625,-2.331429 0.40445,-1.127653 0.62152,-1.386623 1.22121,-1.456909 0.40114,-0.04702 0.97685,0.04698 1.27937,0.208884 1.36234,0.729101 6.33424,7.822238 6.33424,9.036707 0,0.768675 -0.60228,0.143788 -1.49266,-1.548682 z m -27.85591,-1.725212 c 0,-0.307724 0.23102,-1.017439 0.51338,-1.577143 0.28236,-0.559705 0.60433,-1.311383 0.7155,-1.670397 0.19785,-0.638971 0.17543,-0.648751 -1.06195,-0.463194 -0.84297,0.126411 -1.26407,0.09033 -1.26407,-0.108322 0,-0.383508 1.18356,-0.832874 2.19366,-0.832874 1.19765,0 1.25299,0.755342 0.22969,3.135071 -0.89222,2.074877 -1.32621,2.571257 -1.32621,1.516859 z m 32.43182,-4.446216 c -0.15144,-0.188572 -0.59171,-0.973262 -0.97839,-1.743756 -0.38667,-0.770495 -1.0273,-1.786254 -1.42361,-2.257243 -0.90281,-1.072933 -0.63633,-1.72525 0.33484,-0.819629 0.37616,0.350774 0.99611,1.254914 1.37767,2.009199 0.38155,0.754286 0.92477,1.699054 1.20713,2.099485 0.28237,0.400431 0.5134,0.801573 0.5134,0.891428 0,0.299233 -0.75167,0.168381 -1.03104,-0.179484 z m -15.15985,-4.937143 c -0.71357,-1.159634 -2.17105,-5.686183 -1.98607,-6.168226 0.0787,-0.205145 0.3436,-0.335713 0.58861,-0.290151 0.29842,0.05549 0.73402,0.974599 1.31945,2.783997 0.48068,1.485636 1.08194,2.930964 1.33613,3.211839 0.52088,0.575573 0.35674,1.35397 -0.28551,1.35397 -0.23324,0 -0.67091,-0.401143 -0.97261,-0.891429 z m -3.95615,-10.059026 c -0.18782,-0.303904 1.34351,-1.453071 1.59765,-1.198933 0.18995,0.189946 -0.87988,1.452245 -1.23081,1.452245 -0.11566,0 -0.28073,-0.113991 -0.36684,-0.253312 z m -2.61868,-0.397469 c 0,-0.207073 0.57839,-0.909633 1.2853,-1.561244 1.67375,-1.542806 1.95774,-0.9241 0.33485,0.729505 -1.24157,1.265072 -1.62015,1.45942 -1.62015,0.831739 z m -3.29143,-0.680085 c 0,-1.211286 2.395,-3.606277 3.60628,-3.606277 0.77671,0 0.60518,0.441771 -0.3204,0.825158 -0.90421,0.374535 -2.10332,1.657337 -2.48321,2.656523 -0.28816,0.757911 -0.80267,0.837776 -0.80267,0.124596 z"
       id="path1" />
  </g>
</svg>
