<?xml version="1.0" encoding="UTF-8" standalone="no"?>
<!-- Created with Inkscape (http://www.inkscape.org/) -->

<svg
   version="1.1"
   id="svg1"
   width="294.58286"
   height="294.58286"
   viewBox="0 0 294.58286 294.58286"
   sodipodi:docname="terlingua-anal-ring.svg"
   inkscape:version="1.4 (86a8ad7, 2024-10-11)"
   xmlns:inkscape="http://www.inkscape.org/namespaces/inkscape"
   xmlns:sodipodi="http://sodipodi.sourceforge.net/DTD/sodipodi-0.dtd"
   xmlns="http://www.w3.org/2000/svg"
   xmlns:svg="http://www.w3.org/2000/svg">
  <defs
     id="defs1" />
  <sodipodi:namedview
     id="namedview1"
     pagecolor="#ffffff"
     bordercolor="#000000"
     borderopacity="0.25"
     inkscape:showpageshadow="2"
     inkscape:pageopacity="0.0"
     inkscape:pagecheckerboard="0"
     inkscape:deskcolor="#d1d1d1"
     inkscape:zoom="2.766624"
     inkscape:cx="147.47215"
     inkscape:cy="147.29143"
     inkscape:window-width="1920"
     inkscape:window-height="1017"
     inkscape:window-x="-8"
     inkscape:window-y="-8"
     inkscape:window-maximized="1"
     inkscape:current-layer="g1" />
  <g
     inkscape:groupmode="layer"
     inkscape:label="Image"
     id="g1">
    <path
       style="fill:#000000"
       d="m 143.31428,86.828405 c -3.61206,-3.329233 -3.86285,-3.615075 -4.38466,-4.997569 -0.27568,-0.730389 -0.73858,-1.574837 -1.02867,-1.876551 -2.31709,-2.409941 -3.7663,-6.07858 -3.77316,-9.551639 -0.002,-1.263783 -1.08304,-4.582951 -2.18798,-6.720947 -0.85196,-1.648493 -0.94114,-2.428085 -0.73416,-6.417892 0.0973,-1.875565 0.27047,-2.447737 1.50711,-4.979605 0.76845,-1.573306 1.68669,-3.088305 2.04052,-3.366665 0.91409,-0.719113 4.30958,-5.012344 4.30958,-5.449003 0,-0.337614 0.81587,-0.901685 3.31664,-2.293024 0.96509,-0.536939 1.49587,-1.033915 3.91635,-3.666939 0.65872,-0.716571 1.42143,-1.302857 1.69489,-1.302857 0.7262,0 4.89418,4.529287 5.9179,6.430905 0.48289,0.896998 1.53671,2.483468 2.34181,3.525489 0.80511,1.04202 1.46383,2.165713 1.46383,2.497094 0,0.331382 0.10452,0.719769 0.23227,0.863083 0.12775,0.143315 0.63616,1.280892 1.1298,2.527951 0.49364,1.247058 1.11492,2.543754 1.38063,2.881546 0.26571,0.337793 0.82634,1.581013 1.24585,2.762713 0.75149,2.116811 0.75772,2.187006 0.42206,4.752588 -0.18738,1.432224 -0.45967,2.945356 -0.60509,3.362516 -0.30792,0.883305 -1.52264,5.892725 -1.87154,7.71808 -0.13176,0.689367 -0.43566,1.722726 -0.67534,2.296354 -0.23968,0.573628 -0.43578,1.207548 -0.43578,1.408711 0,0.617812 -1.29232,2.348603 -3.3678,4.510448 -1.08942,1.134756 -2.84477,2.97164 -3.90077,4.081965 -1.94886,2.049117 -3.61023,3.05172 -5.02845,3.034565 -0.52125,-0.0063 -1.36235,-0.590258 -2.92584,-2.031317 z"
       id="path1" />
  </g>
</svg>
