<?xml version="1.0" encoding="UTF-8" standalone="no"?>
<!-- Created with Inkscape (http://www.inkscape.org/) -->

<svg
   version="1.1"
   id="svg1"
   width="294.58286"
   height="294.58286"
   viewBox="0 0 294.58286 294.58286"
   sodipodi:docname="terlingua-fur.svg"
   inkscape:version="1.4 (86a8ad7, 2024-10-11)"
   xmlns:inkscape="http://www.inkscape.org/namespaces/inkscape"
   xmlns:sodipodi="http://sodipodi.sourceforge.net/DTD/sodipodi-0.dtd"
   xmlns="http://www.w3.org/2000/svg"
   xmlns:svg="http://www.w3.org/2000/svg">
  <defs
     id="defs1" />
  <sodipodi:namedview
     id="namedview1"
     pagecolor="#ffffff"
     bordercolor="#000000"
     borderopacity="0.25"
     inkscape:showpageshadow="2"
     inkscape:pageopacity="0.0"
     inkscape:pagecheckerboard="0"
     inkscape:deskcolor="#d1d1d1"
     inkscape:zoom="2.766624"
     inkscape:cx="147.47215"
     inkscape:cy="147.29143"
     inkscape:window-width="1920"
     inkscape:window-height="1017"
     inkscape:window-x="-8"
     inkscape:window-y="-8"
     inkscape:window-maximized="1"
     inkscape:current-layer="g1" />
  <g
     inkscape:groupmode="layer"
     inkscape:label="Image"
     id="g1">
    <path
       style="fill:#000000"
       d="m 130.43677,199.30742 c -0.57996,-0.57996 -0.66718,-0.98721 -0.84326,-3.93742 -0.18933,-3.17222 -0.22234,-3.30565 -0.91781,-3.71004 -1.87081,-1.08781 -3.69952,-0.81221 -4.01067,0.60445 -0.10219,0.46523 -0.46049,1.18234 -0.79624,1.59359 -0.33575,0.41124 -0.75522,1.24882 -0.93215,1.86128 -0.17694,0.61246 -0.63235,1.40541 -1.01203,1.7621 l -0.69033,0.64853 -0.71181,-0.66496 c -0.3915,-0.36572 -1.03599,-1.22038 -1.43219,-1.89924 -0.39621,-0.67885 -0.98459,-1.62757 -1.30751,-2.10826 -1.2848,-1.91249 -2.23191,-6.03917 -2.73664,-11.92384 l -0.18017,-2.10068 -1.13584,-0.28991 c -1.33742,-0.34136 -2.52989,-1.67631 -2.75187,-3.08064 -0.0809,-0.51202 -0.22102,-2.70084 -0.31131,-4.86404 -0.1355,-3.24634 -0.26447,-4.12554 -0.73865,-5.03528 -0.31598,-0.6062 -0.63123,-1.69256 -0.70056,-2.41412 -0.12309,-1.28105 -0.15092,-1.3159 -1.18252,-1.48086 -1.26573,-0.2024 -1.80641,-0.95451 -1.32834,-1.8478 0.61316,-1.1457 2.73686,-4.32782 2.99466,-4.48715 0.63466,-0.39224 0.8336,-2.25899 0.44277,-4.15465 -0.21333,-1.03474 -0.32602,-2.49848 -0.25041,-3.25277 0.11272,-1.12455 0.034,-1.49007 -0.4375,-2.03054 -0.9067,-1.0394 -0.66381,-1.82357 0.67582,-2.18184 0.63694,-0.17035 0.86219,-0.45086 1.14696,-1.42837 0.38099,-1.30781 0.25226,-2.50722 -0.32009,-2.98222 -0.28769,-0.23876 -0.23085,-0.67481 0.29743,-2.28181 0.56918,-1.73143 0.61383,-2.14521 0.34757,-3.22093 -0.27946,-1.12907 -0.23324,-1.40966 0.54212,-3.29143 0.4662,-1.13143 0.84806,-2.148 0.84857,-2.25905 5.2e-4,-0.11106 0.62202,-1.23752 1.38112,-2.50327 0.75909,-1.26574 1.42704,-2.65602 1.48432,-3.08952 0.0573,-0.43349 0.24282,-1.147 0.4123,-1.58559 0.16948,-0.43858 0.36537,-1.3643 0.4353,-2.05714 0.28191,-2.79275 0.39418,-3.25386 1.24167,-5.09972 0.9201,-2.00396 1.0078,-2.58651 1.19749,-7.95428 0.0587,-1.65943 0.24467,-3.71038 0.41339,-4.55767 0.33391,-1.67686 0.20743,-2.195964 -0.90524,-3.715415 -0.55531,-0.758315 -0.65725,-1.303121 -0.81082,-4.333106 -0.1608,-3.172723 -0.86598,-7.204079 -1.96905,-11.256667 -0.20531,-0.754285 -0.45345,-2.235428 -0.55143,-3.291428 -0.22754,-2.452448 -0.90368,-7.821222 -1.20902,-9.6 -0.13438,-0.782807 -0.13133,-1.56861 0.007,-1.83084 0.13339,-0.252676 0.23372,-0.74639 0.22296,-1.097143 -0.0108,-0.350752 0.11808,-1.18083 0.28629,-1.844617 0.39424,-1.555723 0.11579,-3.361092 -0.70491,-4.570461 -1.08782,-1.602993 -1.40152,-2.385882 -1.58667,-3.959796 -0.14554,-1.237184 -0.0785,-1.668937 0.37246,-2.4 0.30245,-0.490286 0.65996,-0.891429 0.79446,-0.891429 0.13449,0 0.514,-0.626393 0.84335,-1.391985 l 0.59882,-1.391985 -0.55553,-1.830872 c -0.30554,-1.00698 -0.69386,-2.652274 -0.86294,-3.65621 -0.3344,-1.985637 -0.22593,-2.395793 1.03414,-3.910053 0.5067,-0.608921 0.64341,-1.053869 0.57639,-1.875999 -0.0834,-1.023025 -0.0252,-1.113254 1.14643,-1.776939 0.67886,-0.384554 1.62518,-0.808469 2.10293,-0.942032 0.85082,-0.237858 0.87258,-0.284837 1.06038,-2.288944 0.10546,-1.125356 0.11075,-2.58617 0.0118,-3.246253 -0.1656,-1.104239 -0.0952,-1.307354 0.88059,-2.541582 0.58331,-0.737787 1.50847,-1.682939 2.05592,-2.100338 1.02813,-0.783893 4.55894,-1.860315 8.39624,-2.55972 2.02221,-0.368577 2.03309,-0.367298 3.9199,0.460829 1.16813,0.512693 2.10379,0.763235 2.44541,0.654808 0.30434,-0.09659 1.03665,-0.699952 1.62736,-1.340796 0.63966,-0.693946 1.50461,-1.294178 2.13871,-1.48416 0.58557,-0.175443 1.49843,-0.613336 2.02856,-0.973094 2.94677,-1.999732 3.42623,-2.176444 5.44573,-2.007136 1.53361,0.128572 2.20673,0.34802 3.48207,1.135208 0.86953,0.536704 1.9391,0.975825 2.37682,0.975825 0.43771,0 1.01368,0.197136 1.27992,0.43808 0.78365,0.709196 2.24376,0.59793 3.24856,-0.247554 0.4831,-0.406504 0.98392,-0.739098 1.11293,-0.739098 0.39607,0 1.39253,1.588892 2.02897,3.235275 0.59008,1.526449 0.64637,1.579596 2.30105,2.172621 1.62635,0.582874 1.75229,0.58977 3.05965,0.16754 1.35375,-0.437214 1.37448,-0.434788 2.90612,0.340153 2.08242,1.053608 2.74055,1.907022 3.11096,4.034078 0.41549,2.385964 0.40507,2.488567 -0.41795,4.112715 -1.01237,1.997823 -0.95767,3.208709 0.20571,4.553141 0.51086,0.59036 1.19721,1.395378 1.52522,1.788929 0.95363,1.144168 2.51967,0.906264 4.29497,-0.652471 0.94965,-0.833808 0.997,-0.844897 1.81074,-0.424095 1.76225,0.911295 2.18003,2.867587 1.26815,5.938231 -0.23506,0.79154 -0.43057,1.75619 -0.43447,2.143666 -0.006,0.634514 -0.46771,2.073937 -1.72948,5.396168 -0.37945,0.999113 -0.3831,1.316825 -0.0323,2.820342 0.75216,3.224233 0.99596,5.429205 0.71343,6.452443 -0.19619,0.710559 -0.16317,1.364961 0.12206,2.419089 0.4277,1.580608 0.35342,2.475548 -0.48369,5.827507 -0.55816,2.23498 -0.52612,3.200142 0.15495,4.668954 0.20985,0.452571 0.53883,1.162286 0.73106,1.577143 0.28852,0.622656 0.28159,0.88135 -0.0397,1.482414 -0.39454,0.738097 -1.72357,1.466157 -2.67639,1.466157 -0.44741,0 -0.54936,0.283955 -0.71397,1.988571 -0.10562,1.093715 -0.50035,3.45748 -0.87719,5.252813 -0.62616,2.98321 -0.65189,3.365266 -0.29884,4.437664 0.4531,1.376314 0.14872,2.42714 -0.95436,3.294826 -0.36873,0.290041 -0.7499,0.924754 -0.84704,1.410474 -0.21403,1.070126 0.44262,7.971924 1.01162,10.632794 0.22582,1.056 0.5525,3.27771 0.72596,4.93714 0.43863,4.19617 1.23501,7.12966 2.12578,7.83034 0.38618,0.30376 0.92166,1.04263 1.18998,1.64192 l 0.48784,1.08963 -0.72402,0.67134 c -0.63979,0.59325 -0.72212,0.87291 -0.70771,2.40389 0.013,1.38011 0.15627,1.93881 0.70439,2.74651 0.37845,0.55768 0.77213,1.57435 0.87484,2.25928 0.11337,0.756 0.5313,1.70287 1.06362,2.40978 1.10231,1.46383 1.40776,2.15647 1.85018,4.19548 0.41647,1.91944 0.37667,2.44445 -0.26997,3.56041 -0.26498,0.45728 -0.56667,1.36234 -0.67043,2.01124 -0.10376,0.64889 -0.48723,1.769 -0.85214,2.48913 -0.71239,1.40582 -0.67987,2.23013 0.1251,3.17105 0.92588,1.08226 1.65783,3.09988 1.93949,5.34623 0.15762,1.257 0.39132,2.48147 0.51934,2.72104 0.26314,0.49244 -0.47777,3.7953 -1.14371,5.09845 -0.23127,0.45257 -0.50849,1.78375 -0.61605,2.95817 -0.16621,1.81482 -0.29138,2.19809 -0.83394,2.5536 -0.35111,0.23005 -0.70353,0.58804 -0.78315,0.79552 -0.20507,0.53442 0.36337,3.97835 0.7953,4.81835 0.54436,1.05865 1.94867,5.44385 2.17667,6.797 0.11039,0.65517 0.11959,1.84047 0.0204,2.63401 l -0.18027,1.44279 -1.45283,0.34853 -1.45283,0.34853 -0.32467,2.99348 c -0.37137,3.42398 -0.87348,4.72055 -2.01048,5.19151 -1.0401,0.43083 -1.34105,0.11365 -1.4969,-1.57764 -0.20314,-2.20452 -0.32247,-2.48212 -1.31985,-3.07059 -1.24943,-0.73719 -3.15874,-0.92503 -3.15874,-0.31078 0,0.15223 -0.70972,1.59179 -1.57715,3.19902 -1.60434,2.97265 -2.53447,3.92671 -3.83034,3.9289 -0.33413,5.6e-4 -0.73559,0.24037 -0.89215,0.5329 -0.18843,0.35209 -0.71185,0.59593 -1.54854,0.7214 -1.50635,0.22589 -1.84627,-0.1 -1.5934,-1.52756 0.0935,-0.528 0.21107,-1.824 0.26121,-2.88 0.28304,-5.96087 0.41944,-7.31268 0.79596,-7.88813 0.66506,-1.01643 1.28754,-3.76465 1.40333,-6.19559 0.06,-1.25919 0.18492,-2.69388 0.27766,-3.1882 0.33977,-1.81114 -1.31302,-9.44019 -3.04227,-14.0427 -0.4059,-1.08033 -0.74584,-2.8647 -0.94055,-4.93714 -0.90561,-9.63858 -1.07752,-12.19687 -0.93693,-13.94253 0.1306,-1.62165 0.004,-2.51669 -0.81796,-5.76 -1.24179,-4.90287 -1.8802,-8.64709 -1.80054,-10.56 0.0571,-1.37186 -0.11343,-1.8705 -1.8822,-5.50253 -1.06977,-2.19668 -2.08334,-4.54324 -2.25239,-5.21459 -0.24311,-0.96547 -0.51899,-1.34365 -1.31983,-1.8092 -0.55687,-0.32372 -1.81477,-1.292 -2.79534,-2.15174 -2.10283,-1.84371 -3.04837,-2.37112 -3.23691,-1.8055 -0.32085,0.96255 -4.03509,6.10105 -5.5248,7.64333 -1.25869,1.30311 -1.66115,1.91346 -1.66115,2.51921 0,1.05283 -0.68718,4.2877 -1.2327,5.80285 -0.2384,0.66214 -0.6644,2.66176 -0.94667,4.4436 -0.50321,3.17647 -0.54603,3.28945 -2.19381,5.78839 -2.85521,4.33002 -3.61482,6.60358 -4.13161,12.36618 -0.13529,1.50858 -0.4293,3.48343 -0.65334,4.38858 -0.22405,0.90514 -0.4671,3.2643 -0.54012,5.24258 l -0.13276,3.59687 -1.32449,2.43742 -1.3245,2.43741 0.007,5.48572 c 0.006,4.44341 0.0941,5.72023 0.46608,6.72 0.25259,0.67885 0.60101,2.16 0.77427,3.29142 0.28975,1.89213 0.4187,2.16716 1.60749,3.42858 2.38629,2.53206 2.76687,3.31683 2.80141,5.77665 0.0923,6.57012 -0.0556,9.26471 -0.52798,9.62374 -0.64611,0.49104 -0.81098,0.46167 -1.54848,-0.27583 z M 152.47821,89.36445 c 5.53877,-5.777756 7.10314,-8.391117 9.3477,-15.615879 0.48604,-1.56448 1.10572,-3.279677 1.37707,-3.811549 0.27134,-0.531872 0.58053,-1.581286 0.68708,-2.332031 0.10656,-0.750745 0.3437,-2.043849 0.52697,-2.873563 0.89571,-4.055063 -1.37859,-12.116606 -4.42916,-15.699716 -1.14423,-1.343979 -2.45476,-3.123035 -5.20514,-7.065998 -0.99968,-1.433143 -2.33337,-3.222857 -2.96376,-3.977143 -0.63039,-0.754286 -1.33212,-1.68 -1.5594,-2.057143 -0.22727,-0.377143 -0.82256,-1.344232 -1.32285,-2.149086 l -0.90962,-1.463373 -0.62254,1.476278 c -0.79024,1.873926 -4.07825,5.546377 -5.87313,6.559828 -2.39469,1.352123 -3.03567,1.859594 -4.46377,3.53403 -0.83791,0.982437 -2.27401,2.278437 -3.19134,2.88 -0.91733,0.601564 -1.6712,1.278895 -1.67527,1.50518 -0.013,0.723026 -0.99264,2.610055 -1.87925,3.619856 -0.59614,0.67896 -0.85985,1.260925 -0.86191,1.902068 -0.002,0.508085 -0.18456,1.522331 -0.40651,2.25388 -0.27942,0.921005 -0.32069,1.484887 -0.13417,1.833396 0.35217,0.658043 0.34236,2.366275 -0.0234,4.071711 -0.28315,1.320283 -0.25244,1.44892 0.93644,3.922072 1.47166,3.061403 1.91591,4.609602 1.70671,5.947908 -0.10487,0.670881 0.15053,2.196093 0.77969,4.656292 0.8368,3.272075 1.05435,3.793689 2.05917,4.937142 1.43688,1.635118 2.79998,3.554444 4.12215,5.804247 0.78793,1.340725 1.38748,1.986917 2.41762,2.605714 0.75343,0.452571 1.66396,1.171263 2.02342,1.597093 0.89667,1.062245 3.3027,1.883786 4.89146,1.670194 1.14265,-0.153616 1.46122,-0.409492 4.64573,-3.731408 z"
       id="path1" />
  </g>
</svg>
