<?xml version="1.0" encoding="UTF-8" standalone="no"?>
<!-- Created with Inkscape (http://www.inkscape.org/) -->

<svg
   version="1.1"
   id="svg1"
   width="294.58286"
   height="294.58286"
   viewBox="0 0 294.58286 294.58286"
   sodipodi:docname="terlingua-marble.svg"
   inkscape:version="1.4 (86a8ad7, 2024-10-11)"
   xmlns:inkscape="http://www.inkscape.org/namespaces/inkscape"
   xmlns:sodipodi="http://sodipodi.sourceforge.net/DTD/sodipodi-0.dtd"
   xmlns="http://www.w3.org/2000/svg"
   xmlns:svg="http://www.w3.org/2000/svg">
  <defs
     id="defs1" />
  <sodipodi:namedview
     id="namedview1"
     pagecolor="#ffffff"
     bordercolor="#000000"
     borderopacity="0.25"
     inkscape:showpageshadow="2"
     inkscape:pageopacity="0.0"
     inkscape:pagecheckerboard="0"
     inkscape:deskcolor="#d1d1d1"
     inkscape:zoom="2.766624"
     inkscape:cx="147.47215"
     inkscape:cy="147.29143"
     inkscape:window-width="1920"
     inkscape:window-height="1017"
     inkscape:window-x="-8"
     inkscape:window-y="-8"
     inkscape:window-maximized="1"
     inkscape:current-layer="g1" />
  <g
     inkscape:groupmode="layer"
     inkscape:label="Image"
     id="g1">
    <path
       style="fill:#000000"
       d="m 155.26608,280.018 c -0.86422,-0.52556 -1.6824,-2.01338 -2.0649,-3.75489 -0.17819,-0.8113 -0.0782,-0.98596 1.2684,-2.21568 0.80402,-0.73422 2.25241,-1.99507 3.21866,-2.80189 l 1.75682,-1.46695 -0.21251,2.45928 c -0.11688,1.3526 -0.21139,2.64441 -0.21002,2.8707 0.001,0.22629 -0.109,0.96686 -0.24527,1.64571 -0.6373,3.17483 -1.83171,4.28506 -3.51118,3.26372 z m -12.19311,-40.63514 c -0.22956,-0.792 -0.50289,-2.304 -0.60739,-3.36 -0.10451,-1.056 -0.40116,-2.59886 -0.65921,-3.42858 -0.25806,-0.82971 -0.74287,-2.98971 -1.07737,-4.8 -0.97401,-5.27129 -2.20854,-10.5682 -2.61161,-11.20542 -0.20487,-0.32387 -0.5243,-1.51455 -0.70985,-2.64594 -0.18554,-1.13139 -0.50562,-2.53398 -0.71127,-3.11687 l -0.37392,-1.05979 1.32808,-1.68313 c 1.43627,-1.82025 4.48781,-6.32102 6.35813,-9.37772 1.59933,-2.61382 7.6656,-10.69805 11.51493,-15.34541 13.60733,-16.42834 15.31842,-18.393 18.64794,-21.4114 2.44135,-2.21322 9.06159,-7.52574 9.37826,-7.52574 0.12196,0 0.22174,0.30053 0.22174,0.66785 0,0.36733 0.11548,0.97161 0.25663,1.34285 0.31569,0.83034 -0.26507,3.52541 -1.12011,5.19793 -0.40859,0.79922 -0.60974,1.74387 -0.65039,3.05436 -0.0544,1.75284 -0.1235,1.95122 -0.90785,2.60572 -0.84857,0.70809 -0.84887,0.70932 -0.61238,2.55396 0.13013,1.01505 0.49128,2.37276 0.80256,3.01715 0.72123,1.49302 1.8731,5.46153 2.09619,7.22198 0.0945,0.74544 0.0664,1.84475 -0.0625,2.44292 -0.221,1.02628 -0.31848,1.11197 -1.72934,1.5202 -1.42667,0.41281 -1.49668,0.47605 -1.52876,1.38099 -0.14874,4.19562 -0.79214,6.56846 -1.92045,7.08255 -1.25344,0.57111 -1.40478,0.42652 -1.61171,-1.53989 -0.21601,-2.05273 -0.55763,-2.59128 -2.16367,-3.41096 -1.60226,-0.81774 -2.07051,-0.53452 -3.32826,2.01308 -1.92166,3.89236 -2.42797,4.55288 -3.75606,4.90008 -0.6496,0.16982 -1.34033,0.51587 -1.53496,0.769 -0.20882,0.27158 -1.05203,0.57265 -2.05714,0.73451 l -1.70327,0.27429 0.0754,1.50857 c 0.0415,0.82971 0.25149,2.31086 0.46664,3.29143 1.66333,7.58083 2.28829,12.26479 1.80577,13.53391 -0.46252,1.21653 -4.44269,6.9725 -7.62104,11.02125 -2.59639,3.30742 -13.05957,15.21627 -13.36909,15.21627 -0.0591,0 -0.2952,-0.648 -0.52476,-1.44 z m -22.50122,-41.70914 c -0.28313,-0.20703 -0.92486,-1.04374 -1.42606,-1.85935 -2.74584,-4.46833 -3.38909,-6.73785 -4.09391,-14.44417 l -0.18199,-1.9898 -1.07193,-0.17141 c -1.32231,-0.21145 -2.71215,-1.65535 -2.71215,-2.81766 0,-0.85777 1.8934,-4.33398 4.79463,-8.80276 1.02837,-1.584 3.1601,-5.04 4.73718,-7.68 3.19962,-5.35609 4.63522,-7.3555 8.51435,-11.85819 1.46433,-1.69971 3.46373,-4.07781 4.44312,-5.28467 6.78716,-8.36352 14.23128,-16.31791 17.83072,-19.05292 3.70641,-2.8163 7.9353,-5.50566 13.26809,-8.43786 6.51447,-3.58193 9.41102,-5.22794 10.40485,-5.91273 0.42354,-0.29184 0.83141,-0.46928 0.90638,-0.39431 0.075,0.075 0.30869,1.66215 0.51936,3.52707 0.4622,4.09133 1.03376,6.13325 2.02397,7.23075 0.40832,0.45257 0.95105,1.2863 1.20606,1.85272 l 0.46365,1.02986 -0.84621,0.753 c -0.81333,0.72374 -0.83926,0.81463 -0.66724,2.3393 0.0984,0.87247 0.41125,1.98333 0.69514,2.46857 0.28389,0.48525 0.66282,1.49941 0.84208,2.2537 0.17926,0.75428 0.68337,1.83004 1.12025,2.39057 0.43688,0.56054 0.89755,1.29818 1.0237,1.63921 0.24593,0.66479 -0.13038,0.91482 -6.82293,4.5333 -3.86572,2.09008 -7.95833,4.9745 -10.38813,7.32142 -2.17414,2.09998 -8.29894,9.04318 -12.04303,13.65223 -0.9419,1.15948 -3.01885,3.62806 -4.61545,5.48571 -1.98892,2.3141 -3.63753,4.6162 -5.23605,7.31152 -1.28322,2.16368 -3.42327,5.646 -4.75566,7.73848 -1.33239,2.09248 -3.80024,6.21591 -5.48411,9.16318 -1.68387,2.94726 -3.17318,5.35866 -3.30958,5.35866 -0.13639,0 -0.24799,-0.60874 -0.24799,-1.35275 0,-1.18132 -0.10136,-1.42492 -0.79978,-1.92224 -1.84015,-1.3103 -3.56935,-0.98128 -4.09691,0.77954 -0.18502,0.61756 -0.59847,1.36698 -0.91876,1.66538 -0.3203,0.2984 -0.61623,0.86026 -0.65763,1.24857 -0.099,0.92831 -0.99307,2.43922 -1.50137,2.5371 -0.22103,0.0426 -0.63353,-0.092 -0.91666,-0.29902 z M 109.2392,146.39576 c -0.52944,-0.74857 -0.56318,-0.93949 -0.24954,-1.41186 0.42039,-0.63314 1.83384,-1.11776 1.80051,-0.61732 -0.0117,0.17552 -0.22769,0.89866 -0.48,1.60697 l -0.45874,1.28783 z m 1.95411,-5.88789 -0.55904,-0.96393 0.63995,-1.95373 c 0.59955,-1.83042 0.61425,-2.02911 0.23295,-3.14816 -0.35708,-1.04799 -0.35798,-1.28919 -0.007,-1.96733 0.21983,-0.42509 0.65701,-1.49266 0.97151,-2.37238 0.65868,-1.8424 1.40922,-3.33083 2.46692,-4.89224 0.84572,-1.2485 1.44841,-3.36629 1.90315,-6.68754 0.1926,-1.40669 0.6343,-2.98816 1.14729,-4.10778 0.77122,-1.68321 0.86341,-2.22382 1.22258,-7.16907 0.21366,-2.94171 0.45975,-5.79933 0.54687,-6.35027 0.12348,-0.78082 0.0356,-1.12454 -0.39869,-1.558801 -1.18296,-1.182958 -1.35652,-1.774402 -1.54252,-5.25664 -0.10072,-1.885714 -0.42734,-4.477714 -0.7258,-5.76 -0.29847,-1.282285 -0.73498,-3.257142 -0.97001,-4.388571 l -0.42734,-2.057143 1.26138,-1.073229 c 2.13958,-1.820432 8.37748,-6.085065 11.50192,-7.863456 3.00039,-1.70778 3.45877,-2.093422 13.48753,-11.347285 2.81587,-2.598296 3.98309,-4.079954 11.13831,-14.138887 1.98523,-2.790857 4.70716,-6.432 6.04874,-8.091428 1.89214,-2.340413 2.90173,-3.939957 4.5012,-7.131429 1.13407,-2.262857 2.33374,-4.513539 2.66594,-5.001517 1.10297,-1.620177 2.46312,-1.67777 4.96713,-0.210324 1.08967,0.638592 1.31311,0.928816 1.65689,2.15213 0.84463,3.005617 0.8283,3.781161 -0.11913,5.65801 -1.00523,1.99136 -0.95833,2.548981 0.35317,4.198327 1.92842,2.425178 2.33831,2.744037 3.28836,2.558009 0.48425,-0.09482 1.18901,-0.418497 1.56616,-0.719284 1.80091,-1.436304 1.77398,-1.427535 2.83297,-0.922539 1.70706,0.81404 2.07541,2.803868 1.1139,6.017336 -0.26822,0.896419 -0.45682,1.790571 -0.41911,1.987006 0.1075,0.559955 -0.76374,3.322168 -1.51623,4.807133 -0.42384,0.836421 -0.6231,1.586135 -0.52521,1.976161 0.11787,0.469634 -0.13998,0.998435 -1.02037,2.09257 -1.19764,1.488391 -3.94853,5.288494 -7.41364,10.241268 -2.71058,3.874288 -6.74199,9.052981 -8.46054,10.868272 -0.80319,0.848406 -2.57063,2.514692 -3.92764,3.702857 -1.35702,1.188164 -4.1398,3.703156 -6.18397,5.588871 -4.64634,4.286188 -5.93152,5.270326 -9.86483,7.554111 -3.32406,1.930031 -7.65865,4.855271 -9.20052,6.209052 -0.89206,0.78324 -1.66888,1.79325 -5.34187,6.94541 -0.96792,1.35771 -2.76281,3.73513 -3.98864,5.28314 -3.10442,3.92033 -6.60319,11.00312 -8.56834,17.34543 -0.77125,2.48914 -1.93615,5.96258 -2.58866,7.71876 l -1.18639,3.19304 z m 1.13654,-83.730728 c -0.21911,-1.743977 0.10837,-2.844701 1.07183,-3.602555 0.36193,-0.284696 0.87238,-1.078824 1.13433,-1.764729 0.44164,-1.156415 0.44406,-1.314654 0.0332,-2.176115 -0.61451,-1.28865 -1.36411,-5.479956 -1.15244,-6.443713 0.0961,-0.437729 0.54327,-1.259525 0.99362,-1.826215 0.68769,-0.865348 0.79175,-1.190545 0.6498,-2.030741 -0.16682,-0.987397 -0.15008,-1.009424 1.28823,-1.695289 0.80148,-0.382191 1.78445,-0.770042 2.18437,-0.861892 0.72277,-0.165997 0.72819,-0.186331 0.90446,-3.391446 0.0975,-1.773446 0.23436,-3.497454 0.30405,-3.831129 0.0697,-0.333675 0.73862,-1.218593 1.48651,-1.966485 1.05353,-1.053531 1.71706,-1.459565 2.94597,-1.802733 0.87239,-0.243612 2.17409,-0.626877 2.89265,-0.851701 0.71857,-0.224824 2.31586,-0.584985 3.54955,-0.800358 l 2.24307,-0.391588 1.87892,0.824662 c 1.0334,0.453565 2.10192,0.753884 2.37448,0.667377 0.27256,-0.08651 0.88715,-0.644563 1.36575,-1.240124 0.56333,-0.70099 1.23092,-1.18036 1.89312,-1.359385 0.5626,-0.1521 1.88691,-0.836183 2.94291,-1.520185 1.056,-0.684002 2.39332,-1.373489 2.97182,-1.532194 1.65805,-0.454864 3.93951,-0.06339 5.66818,0.972608 0.82972,0.497248 2.00229,0.987276 2.60572,1.088951 1.03251,0.173973 2.2947,0.840899 2.03712,1.076383 -0.96316,0.880527 -9.86546,6.410588 -12.81272,7.959187 -8.06047,4.235281 -10.89179,6.457358 -21.06422,16.531668 -6.0497,5.991343 -7.97408,8.122597 -9.75192,10.800244 -0.44858,0.675622 -0.449,0.675071 -0.63841,-0.832503 z"
       id="path1" />
  </g>
</svg>
