<?xml version="1.0" encoding="UTF-8" standalone="no"?>
<!-- Created with Inkscape (http://www.inkscape.org/) -->

<svg
   version="1.1"
   id="svg1"
   width="294.58286"
   height="294.58286"
   viewBox="0 0 294.58286 294.58286"
   sodipodi:docname="terlingua-internals.svg"
   inkscape:version="1.4 (86a8ad7, 2024-10-11)"
   xmlns:inkscape="http://www.inkscape.org/namespaces/inkscape"
   xmlns:sodipodi="http://sodipodi.sourceforge.net/DTD/sodipodi-0.dtd"
   xmlns="http://www.w3.org/2000/svg"
   xmlns:svg="http://www.w3.org/2000/svg">
  <defs
     id="defs1" />
  <sodipodi:namedview
     id="namedview1"
     pagecolor="#ffffff"
     bordercolor="#000000"
     borderopacity="0.25"
     inkscape:showpageshadow="2"
     inkscape:pageopacity="0.0"
     inkscape:pagecheckerboard="0"
     inkscape:deskcolor="#d1d1d1"
     inkscape:zoom="2.766624"
     inkscape:cx="147.47215"
     inkscape:cy="147.29143"
     inkscape:window-width="1920"
     inkscape:window-height="1017"
     inkscape:window-x="-8"
     inkscape:window-y="-8"
     inkscape:window-maximized="1"
     inkscape:current-layer="g1" />
  <g
     inkscape:groupmode="layer"
     inkscape:label="Image"
     id="g1">
    <path
       style="fill:#000000"
       d="m 155.21425,279.86026 c -0.9833,-0.61033 -1.71446,-2.47493 -2.99257,-7.63169 -1.23534,-4.98416 -3.07933,-10.69839 -3.66386,-11.35371 -0.21614,-0.24232 -0.67187,-1.36629 -1.01274,-2.49772 -0.34086,-1.13143 -0.84324,-2.55086 -1.11639,-3.15428 -0.3148,-0.69544 -0.49885,-1.75844 -0.50267,-2.90328 -0.003,-1.01694 -0.23584,-2.51505 -0.53199,-3.42857 -0.81875,-2.52555 -1.12349,-3.80688 -1.54987,-6.51662 -0.21735,-1.38134 -0.5685,-3.00525 -0.78032,-3.60868 -0.21182,-0.60343 -0.46521,-2.07506 -0.56308,-3.27029 -0.0979,-1.19523 -0.29612,-2.39396 -0.44056,-2.66385 -0.30323,-0.56659 -1.24352,-4.8564 -1.76546,-8.05443 -0.50464,-3.09204 -1.65932,-7.75211 -2.03213,-8.20133 -0.1726,-0.20797 -0.49853,-1.47175 -0.72429,-2.8084 -0.22575,-1.33665 -0.52083,-2.67713 -0.65573,-2.97884 -0.31834,-0.71197 -2.00122,-6.47332 -2.76409,-9.46286 -0.51993,-2.0375 -0.59553,-3.08554 -0.59971,-8.31315 l -0.005,-5.98172 -1.09958,-1.64663 c -0.60476,-0.90564 -1.45727,-1.91108 -1.89445,-2.2343 -0.8427,-0.62304 -1.60571,-2.60417 -1.60571,-4.1692 0,-0.46813 -0.24685,-1.55351 -0.54857,-2.41194 -0.46097,-1.31155 -0.54857,-2.2639 -0.54857,-5.96403 0,-4.38652 0.003,-4.40969 0.85713,-6.1012 0.47142,-0.93388 1.45509,-2.66209 2.18594,-3.84045 0.73085,-1.17837 1.46888,-2.66264 1.64007,-3.29839 0.17118,-0.63575 0.54798,-1.61993 0.83732,-2.18708 l 0.52607,-1.03119 -0.69184,-1.2996 c -0.74707,-1.40337 -0.85847,-2.71716 -0.39929,-4.70921 0.21593,-0.93682 0.1799,-1.60659 -0.15916,-2.95858 -0.24106,-0.96118 -0.3585,-2.02083 -0.26099,-2.35475 0.60476,-2.07098 1.79891,-4.54015 3.41094,-7.05286 2.70611,-4.21809 2.89015,-4.56651 3.83519,-7.26062 0.47472,-1.35334 1.17643,-2.87138 1.55936,-3.37342 0.38292,-0.50204 0.632,-1.08017 0.55351,-1.28472 -0.0785,-0.20455 0.0277,-1.18627 0.23592,-2.1816 0.39644,-1.8948 1.61456,-4.04153 3.10072,-5.46449 1.74992,-1.67551 4.13135,-1.05123 5.50892,1.44412 1.1364,2.05851 3.67542,8.98609 3.43566,9.37404 -0.0805,0.13026 0.30872,1.75041 0.86495,3.60033 0.55623,1.84993 1.17011,3.98064 1.36418,4.73493 0.19406,0.75428 0.79871,2.37998 1.34367,3.61266 1.14011,2.57892 1.41892,4.43936 1.67553,11.18063 0.17795,4.6748 0.63942,7.09787 1.86618,9.79896 0.80101,1.76365 2.7717,8.72425 3.16706,11.18626 0.51548,3.20997 -0.24391,9.78786 -1.34758,11.67292 -0.94912,1.62108 -1.3324,15.79694 -0.47866,17.70338 0.47877,1.06911 1.22605,4.79592 1.62007,8.07947 0.14482,1.20686 0.31102,5.03315 0.36933,8.50286 0.0583,3.46972 0.11299,6.67886 0.12151,7.13143 0.0223,1.18434 -0.47188,5.50248 -0.83182,7.26857 -0.1691,0.82972 -0.66119,2.37257 -1.09353,3.42857 -0.50974,1.24504 -0.94457,3.07709 -1.23694,5.21143 -0.24797,1.81029 -0.54614,3.97029 -0.6626,4.8 -0.11645,0.82972 -0.46547,2.22276 -0.77559,3.09566 -0.99361,2.79678 -1.15396,5.06223 -1.00398,14.18434 0.18003,10.94974 0.17961,10.982 -0.17677,13.43802 -0.59997,4.13479 -1.66043,5.38623 -3.56337,4.2051 z M 145.71697,79.48342 c -0.194,-0.239308 -0.20845,-1.888631 -0.0451,-5.151992 0.22941,-4.58353 0.2134,-4.868033 -0.35505,-6.308571 -0.32741,-0.829715 -0.88107,-1.968976 -1.23034,-2.531693 -0.77827,-1.253874 -0.77808,-1.300946 0.008,-2.046177 0.66556,-0.630622 1.5508,-2.972411 1.5508,-4.102437 0,-0.364665 0.20728,-1.12192 0.46061,-1.682789 0.35319,-0.781942 0.47595,-1.977532 0.5264,-5.126657 0.0436,-2.72123 0.16893,-4.141274 0.37147,-4.208788 0.56688,-0.18896 1.11009,0.559277 1.11009,1.529073 0,0.529849 0.11841,1.718164 0.26314,2.640701 0.14472,0.922536 0.46931,4.174171 0.72132,7.225856 0.4284,5.187848 0.4283,5.802962 -0.002,9.462857 -0.57187,4.868465 -1.15032,7.672579 -1.90663,9.242606 -0.63594,1.320174 -1.03102,1.603846 -1.47353,1.058011 z"
       id="path1" />
  </g>
</svg>
