<?xml version="1.0" encoding="UTF-8" standalone="no"?>
<!-- Created with Inkscape (http://www.inkscape.org/) -->

<svg
   version="1.1"
   id="svg1"
   width="294.58286"
   height="294.58286"
   viewBox="0 0 294.58286 294.58286"
   sodipodi:docname="terlingua-outline.svg"
   inkscape:version="1.4 (86a8ad7, 2024-10-11)"
   xmlns:inkscape="http://www.inkscape.org/namespaces/inkscape"
   xmlns:sodipodi="http://sodipodi.sourceforge.net/DTD/sodipodi-0.dtd"
   xmlns="http://www.w3.org/2000/svg"
   xmlns:svg="http://www.w3.org/2000/svg">
  <defs
     id="defs1" />
  <sodipodi:namedview
     id="namedview1"
     pagecolor="#ffffff"
     bordercolor="#000000"
     borderopacity="0.25"
     inkscape:showpageshadow="2"
     inkscape:pageopacity="0.0"
     inkscape:pagecheckerboard="0"
     inkscape:deskcolor="#d1d1d1"
     inkscape:zoom="2.766624"
     inkscape:cx="147.47215"
     inkscape:cy="147.29143"
     inkscape:window-width="1920"
     inkscape:window-height="1017"
     inkscape:window-x="-8"
     inkscape:window-y="-8"
     inkscape:window-maximized="1"
     inkscape:current-layer="g1" />
  <g
     inkscape:groupmode="layer"
     inkscape:label="Image"
     id="g1">
    <path
       style="fill:#000000;fill-opacity:1"
       d="m 155.01307,280.79906 c -1.50677,-0.77126 -1.81585,-1.38734 -2.76376,-5.50899 -0.84263,-3.6639 -3.44658,-11.63803 -4.50001,-13.78045 -1.28413,-2.61162 -2.42301,-6.46336 -2.66391,-9.00946 -0.139,-1.46918 -0.52062,-3.24628 -0.93151,-4.3379 -0.38282,-1.01704 -0.81756,-2.86847 -0.96609,-4.11429 -0.14853,-1.24581 -0.45268,-2.85152 -0.67588,-3.56823 -0.22321,-0.71671 -0.54096,-2.32129 -0.70612,-3.56571 -0.16516,-1.24443 -0.6534,-3.74375 -1.08496,-5.55403 -0.43157,-1.81029 -0.91546,-4.09372 -1.07531,-5.07429 -0.52685,-3.23183 -1.07617,-5.63599 -1.75954,-7.70076 -0.37068,-1.12001 -1.06908,-3.69794 -1.55198,-5.72873 -0.48291,-2.03079 -1.0539,-4.11329 -1.26887,-4.62778 -0.21496,-0.51449 -0.39085,-1.16574 -0.39085,-1.44723 0,-0.40518 -0.91962,-3.58825 -1.80485,-6.24712 -0.10127,-0.30417 -0.23633,-0.28087 -0.67543,0.11651 -0.51982,0.47043 -0.60012,0.47226 -1.51802,0.0345 -1.37175,-0.65415 -1.7617,-1.77457 -1.7617,-5.06191 v -2.70294 l -1.11427,-0.72954 c -1.03313,-0.67641 -1.16061,-0.69917 -1.75066,-0.31255 -0.35001,0.22933 -0.71406,0.80532 -0.80898,1.27996 -0.19359,0.96791 -0.8852,1.85897 -1.44288,1.85897 -0.24393,0 -0.36892,0.35105 -0.36892,1.03611 0,0.9661 -0.54495,2.12632 -1.21839,2.59398 -0.1596,0.11083 -0.61525,0.2034 -1.01255,0.20571 -1.04189,0.006 -2.32419,-1.54543 -4.04319,-4.89197 -1.67014,-3.25141 -2.33849,-6.00359 -2.64997,-10.91217 l -0.1938,-3.05406 -1.07466,-0.14414 c -0.59107,-0.0793 -1.26311,-0.30054 -1.49342,-0.49168 -1.20258,-0.99805 -2.15261,-4.51549 -1.87536,-6.94338 0.29719,-2.60236 0.19906,-3.57915 -0.54688,-5.44369 -0.38676,-0.96676 -0.70321,-2.12452 -0.70321,-2.5728 0,-0.96656 -0.43297,-1.47334 -1.25875,-1.47334 -0.33026,0 -0.87285,-0.22055 -1.20574,-0.49011 -0.56283,-0.45575 -0.58219,-0.57586 -0.27606,-1.71275 0.46397,-1.72305 1.13464,-2.94471 2.61268,-4.75916 1.12136,-1.37659 1.25913,-1.68408 1.09729,-2.44897 -0.1018,-0.4811 -0.2515,-1.98364 -0.33266,-3.33898 -0.12402,-2.07106 -0.25224,-2.58866 -0.80359,-3.2439 -0.36081,-0.42881 -0.65602,-1.02653 -0.65602,-1.32827 0,-0.63808 1.41424,-2.15214 2.01026,-2.15214 0.23532,0 0.57945,-0.50689 0.81655,-1.20274 0.40583,-1.19104 0.40311,-1.2058 -0.27895,-1.51657 -0.7575,-0.34514 -0.76191,-0.23544 0.1348,-3.35613 0.35438,-1.23327 0.44087,-1.97276 0.26707,-2.28333 -0.69783,-1.24695 0.59631,-5.62264 2.67632,-9.04912 1.56675,-2.58096 2.32473,-4.53915 2.33787,-6.03967 0.013,-1.48338 0.60601,-4.06288 1.35666,-5.90101 1.0428,-2.55357 1.13195,-3.04012 1.2401,-6.76795 0.0577,-1.98751 0.24088,-4.3639 0.40716,-5.28087 0.29734,-1.63971 0.28878,-1.68416 -0.51893,-2.694909 -1.00971,-1.263544 -1.37676,-2.809326 -1.20279,-5.065453 0.12824,-1.663221 -0.41884,-5.021733 -1.39885,-8.587417 -0.37778,-1.37452 -0.58223,-2.852945 -1.40233,-10.140547 -0.23767,-2.112 -0.55072,-4.366343 -0.69568,-5.009651 -0.38489,-1.708176 -0.32242,-3.781368 0.14788,-4.906941 0.66608,-1.594168 0.50442,-2.616076 -0.83358,-5.269093 -1.49964,-2.973514 -1.80567,-4.750735 -1.09097,-6.33565 0.26659,-0.591208 0.64537,-1.136574 0.84173,-1.211923 0.19636,-0.07535 0.60236,-0.691644 0.90223,-1.369545 l 0.54521,-1.232546 -0.68779,-2.143754 c -1.10642,-3.448565 -0.95657,-6.280232 0.41549,-7.851281 0.27187,-0.311301 0.40495,-0.888213 0.35726,-1.54875 -0.066,-0.914224 0.0437,-1.142142 0.83435,-1.733165 0.50069,-0.374283 1.55835,-0.842394 2.35035,-1.040247 l 1.44,-0.359733 0,-3.484195 0,-3.484196 1.26996,-1.412495 c 1.83131,-2.036864 3.67682,-2.857277 8.68651,-3.861568 3.61947,-0.725592 4.73695,-0.694517 6.65841,0.185154 1.53572,0.70308 1.60627,0.711092 1.88457,0.214053 0.54934,-0.981097 1.85094,-2.034824 2.85112,-2.308153 0.55205,-0.150863 1.71744,-0.761161 2.58976,-1.356219 2.20956,-1.507266 3.96716,-2.04914 5.87381,-1.81092 1.83143,0.228822 3.4163,0.762252 4.44854,1.497273 0.41997,0.299044 1.27831,0.659368 1.90743,0.800722 0.62912,0.141353 1.43287,0.446379 1.78612,0.677834 0.60715,0.397819 0.67381,0.378154 1.2193,-0.359654 0.66428,-0.89849 1.94677,-1.279597 2.78908,-0.828809 0.31879,0.170616 0.99303,1.217359 1.4983,2.326096 1.26504,2.775948 1.70151,3.022768 5.34804,3.024229 2.41671,9.68e-4 3.04908,0.0933 3.84842,0.561908 1.32242,0.77526 2.44991,2.714875 2.80231,4.820809 0.26578,1.588304 0.23066,1.922516 -0.3854,3.667553 -0.3728,1.056 -0.7639,2.112364 -0.8691,2.347476 -0.12657,0.282871 0.24866,1.001955 1.10923,2.125715 1.53766,2.007914 2.2061,2.155199 3.97284,0.87538 0.6823,-0.494262 1.47546,-0.822447 1.98619,-0.821832 1.22521,0.0015 2.59755,0.94397 3.08975,2.121969 0.38577,0.923266 0.38093,1.235154 -0.0541,3.491137 -0.84009,4.356125 -1.95409,8.386695 -2.53521,9.172712 l -0.56424,0.763166 0.56165,1.619281 c 0.38424,1.107793 0.60632,2.615638 0.70308,4.773567 0.0778,1.734857 0.19439,4.17177 0.2591,5.415362 0.0972,1.867791 -0.007,2.685826 -0.60084,4.70305 l -0.7185,2.441974 0.83481,1.316364 c 0.68507,1.080236 0.83482,1.604175 0.83482,2.920846 0,1.33781 -0.1119,1.716379 -0.67325,2.277729 -0.37029,0.370285 -0.95657,0.692046 -1.30286,0.715024 -0.34628,0.02298 -0.81475,0.05384 -1.04104,0.06857 -0.31233,0.02034 -0.4608,0.571745 -0.61644,2.289416 -0.11276,1.244443 -0.45711,3.394372 -0.76522,4.777621 -0.54174,2.432095 -0.54431,2.559199 -0.078,3.85587 0.47851,1.330677 0.47719,1.350267 -0.17349,2.576809 -0.36062,0.679766 -0.96603,1.48007 -1.34536,1.778452 l -0.68969,0.542514 0.34558,4.034489 c 0.19006,2.21896 0.57421,4.96019 0.85366,6.09162 0.27944,1.13143 0.64881,3.35314 0.82082,4.93714 0.50696,4.66864 1.0607,6.61405 2.14907,7.55024 0.56939,0.48976 1.04849,1.44761 1.60402,3.20685 0.0941,0.29797 -0.16478,0.78499 -0.70374,1.32395 -1.0651,1.06509 -1.12477,2.29961 -0.1893,3.91584 0.36482,0.63029 0.80602,1.70141 0.98045,2.38027 0.17443,0.67885 0.59968,1.66904 0.94499,2.20042 1.9008,2.92499 2.55214,5.42757 2.07181,7.96033 -0.1521,0.80204 -0.46066,1.6617 -0.68569,1.91035 -0.22503,0.24865 -0.40914,0.85767 -0.40914,1.35338 0,0.4957 -0.32557,1.49947 -0.7235,2.23058 l -0.7235,1.32931 0.82975,0.94502 c 1.49812,1.70627 2.41407,5.58662 2.37175,10.04775 -0.0126,1.32482 -0.20706,2.20174 -0.75705,3.41332 -0.42747,0.94167 -0.79742,2.33213 -0.87575,3.29142 -0.18259,2.23632 -0.32631,2.65962 -1.13396,3.33981 -0.58942,0.49641 -0.64458,0.66786 -0.37619,1.16935 0.20121,0.37597 0.22356,0.75015 0.062,1.03877 -0.1821,0.32539 0.0442,1.06966 0.81211,2.67065 0.5855,1.22075 1.25428,3.13028 1.48616,4.24341 0.42812,2.05512 0.60479,6.33645 0.28297,6.85717 -0.097,0.15696 -0.85103,0.49805 -1.6756,0.75798 l -1.49923,0.47259 -3.2e-4,1.25276 c -4.1e-4,1.56244 -0.6224,4.89203 -1.07018,5.7287 -0.35101,0.65588 -1.83585,1.69271 -2.42664,1.69447 -0.78348,0.002 -1.43991,-1.08391 -1.44972,-2.39897 -0.0123,-1.65378 -0.43537,-2.40588 -1.81649,-3.22948 l -1.10253,-0.65747 -1.55644,3.25569 c -1.30893,2.73795 -1.71943,3.35211 -2.58135,3.86204 -0.83964,0.49675 -1.16125,0.55514 -1.77919,0.32304 -0.68381,-0.25684 -0.75428,-0.22545 -0.75428,0.33606 0,0.71188 -0.78503,1.52726 -1.47041,1.52726 -0.25697,0 -0.91071,-0.1853 -1.45276,-0.41179 l -0.98555,-0.41178 0.16699,0.75464 c 2.53043,11.43521 2.43843,10.60574 2.47467,22.3124 0.0229,7.40383 -0.059,10.70209 -0.27239,10.97143 -0.16784,0.2118 -0.37743,1.00224 -0.46576,1.75653 -0.0883,0.75429 -0.48173,2.17371 -0.87422,3.15429 -0.8157,2.03789 -1.1684,3.60318 -1.51419,6.72 -0.37785,3.4058 -1.03057,6.5506 -1.6906,8.14536 -0.57931,1.39972 -0.60157,1.79635 -0.58953,10.50606 0.007,4.97829 0.0373,9.91543 0.0676,10.97143 0.14448,5.03063 -0.91317,8.92021 -2.61943,9.63312 -1.09944,0.45938 -0.83113,0.48794 -2.25282,-0.23977 z m 1.85419,-1.0147 c 1.35318,-0.7242 1.97239,-5.43975 1.66602,-12.6874 -0.11026,-2.60847 -0.17273,-7.21125 -0.13881,-10.22839 0.0577,-5.1344 0.10617,-5.60106 0.75662,-7.28674 0.38223,-0.99057 0.90385,-3.21228 1.15917,-4.93715 0.92505,-6.24945 1.30438,-8.07377 2.09,-10.05146 0.461,-1.16049 0.79974,-2.52893 0.79974,-3.23078 0,-0.66965 0.1955,-1.7934 0.43445,-2.49721 0.37696,-1.11031 0.41394,-2.59069 0.27945,-11.18673 -0.10799,-6.90175 -0.271,-10.44791 -0.53737,-11.68993 -0.21029,-0.98057 -0.65209,-3.07886 -0.98176,-4.66286 -0.32967,-1.584 -0.73307,-3.33664 -0.89643,-3.89477 -0.29139,-0.99547 -0.20398,-2.58298 0.31413,-5.70523 0.13769,-0.82971 0.25935,-2.89393 0.27036,-4.58714 0.0178,-2.73401 0.10996,-3.30497 0.82356,-5.10135 1.16672,-2.93705 1.59193,-5.19452 1.13813,-6.04245 -0.28164,-0.52626 -0.28949,-0.87468 -0.0369,-1.63995 0.57308,-1.73645 -0.36229,-6.7326 -2.42218,-12.93768 -2.21053,-6.65885 -2.38196,-7.70619 -2.64963,-16.18816 -0.0965,-3.05875 -0.51681,-5.1682 -1.19648,-6.0053 -0.80117,-0.98674 -1.66629,-3.02228 -1.82786,-4.30078 -0.10308,-0.81559 -0.66532,-2.79436 -1.24943,-4.39726 -0.5841,-1.60289 -1.06201,-3.24862 -1.06201,-3.65716 0,-0.40855 -0.37029,-1.66756 -0.82286,-2.7978 -0.45257,-1.13024 -0.82286,-2.29744 -0.82286,-2.59376 0,-0.75921 -0.96857,-2.59795 -2.25892,-4.28835 -0.94715,-1.24079 -1.22863,-1.44 -2.03467,-1.44 -1.81166,0 -3.93498,1.45596 -3.93498,2.69822 0,0.23647 -0.40114,0.84403 -0.89143,1.35014 -0.86086,0.88863 -0.89142,0.9986 -0.89142,3.20708 0,1.79349 -0.10362,2.40139 -0.48024,2.81758 -0.26412,0.29188 -0.80095,1.32314 -1.19294,2.29169 -0.392,0.96855 -1.15046,2.37263 -1.68548,3.12016 -0.99437,1.38936 -2.2642,3.99185 -2.2642,4.64044 0,0.1986 -0.26122,0.59623 -0.5805,0.88361 -1.31126,1.18028 -2.15755,2.81896 -2.60648,5.04694 -0.4257,2.11269 -0.42385,2.32498 0.032,3.66617 0.40927,1.20405 0.43606,1.6467 0.17371,2.87001 -0.46005,2.14514 -0.38909,3.08292 0.28782,3.80346 l 0.59803,0.63656 -0.58202,1.84969 c -0.3201,1.01732 -0.66716,2.15825 -0.77123,2.53539 -0.29022,1.05174 -2.22852,4.61365 -3.31907,6.09927 -0.81459,1.10969 -1.01002,1.65455 -1.18587,3.30612 -0.32206,3.02496 -0.11876,7.79963 0.40365,9.47991 0.25105,0.80748 0.43647,1.98005 0.41204,2.60571 -0.0943,2.41551 -0.0412,2.55102 1.77805,4.5334 2.49291,2.71648 3.28252,3.96452 2.9277,4.62749 -0.16413,0.30668 -0.2725,2.55274 -0.26044,5.39762 0.0222,5.24583 -0.0524,4.8242 2.31034,13.04763 0.36843,1.28228 1.08411,3.936 1.5904,5.89714 0.50629,1.96114 1.29568,4.92343 1.7542,6.58286 0.78218,2.83085 1.13208,4.41889 2.08499,9.46285 0.21375,1.13143 0.58151,2.73887 0.81724,3.5721 0.23573,0.83322 0.6084,2.74637 0.82815,4.25143 0.21976,1.50506 0.64897,3.90904 0.9538,5.34219 0.30483,1.43314 0.67383,3.22285 0.81999,3.97714 0.14616,0.75429 0.52407,2.08081 0.83979,2.94784 0.31613,0.86814 0.622,2.49461 0.68078,3.62004 0.10996,2.10547 1.51597,7.00304 2.25486,7.85441 0.55884,0.64391 4.33384,12.28727 5.06171,15.612 0.53183,2.42927 0.76819,3.01951 1.51027,3.77142 0.97095,0.98383 1.03132,1.00577 1.73331,0.63008 z m -3.43651,-25.59008 c 0.42983,-4.73026 2.36716,-12.62382 4.30474,-17.5395 0.79748,-2.02322 1.82105,-7.60926 1.97147,-10.75906 0.0376,-0.78662 0.20755,-1.39708 0.40732,-1.46285 0.47267,-0.1556 0.44431,2.42809 -0.0595,5.41856 -0.73156,4.34256 -0.99849,5.49852 -1.6962,7.34554 -1.9557,5.1772 -3.35713,10.96524 -4.38113,18.09446 -0.0704,0.49028 -0.2629,0.89143 -0.42773,0.89143 -0.20579,0 -0.24307,-0.62309 -0.11899,-1.98858 z M 147.87084,242.4 c -0.49119,-1.14924 -1.38551,-4.81987 -2.08835,-8.57143 -0.19784,-1.056 -0.54957,-2.66057 -0.78163,-3.56571 -0.23205,-0.90515 -0.55726,-2.75658 -0.72268,-4.11429 -0.16542,-1.35771 -0.41375,-3.27086 -0.55185,-4.25143 -0.13809,-0.98057 -0.33586,-2.92457 -0.43949,-4.32 -0.16688,-2.24725 -0.1369,-2.53714 0.26238,-2.53714 0.37553,0 0.45078,0.32259 0.45078,1.93239 0,1.06282 0.17854,3.13025 0.39676,4.59429 0.21822,1.46404 0.52638,3.64932 0.68481,4.85618 0.26498,2.01854 0.77847,4.57139 1.84822,9.18857 0.22719,0.98057 0.57668,2.59611 0.77664,3.5901 0.19996,0.99398 0.55868,2.2742 0.79714,2.84492 0.50748,1.21456 0.53747,1.51926 0.14954,1.51926 -0.15622,0 -0.50824,-0.52457 -0.78227,-1.16571 z m 3.82926,-13.65381 c -0.0492,-7.23695 0.41744,-14.6121 0.914,-14.44575 0.31317,0.10492 0.30517,1.57841 -0.0301,5.53956 -0.10215,1.20686 -0.19305,5.14568 -0.20201,8.75294 -0.0115,4.62253 -0.10789,6.5896 -0.32661,6.66344 -0.22441,0.0758 -0.32277,-1.72646 -0.35529,-6.51019 z m 9.03021,-10.75762 c -0.001,-2.91672 -0.48739,-9.54729 -0.82922,-11.31429 -0.75712,-3.91368 -1.0186,-4.99642 -1.35723,-5.62016 -0.42445,-0.78181 -0.7193,-5.48814 -0.43783,-6.98852 0.11387,-0.60696 0.31759,-0.95607 0.51542,-0.88321 0.17991,0.0662 0.2785,0.29018 0.21907,0.49761 -0.0594,0.20743 -0.10142,1.63016 -0.0933,3.16163 0.0117,2.20561 0.13391,3.05394 0.58805,4.08058 0.31532,0.71285 0.57466,1.61983 0.57629,2.01551 0.002,0.39568 0.1911,1.33656 0.42103,2.09085 0.48465,1.58987 0.94965,6.70968 1.06497,11.72571 0.0645,2.80614 0.007,3.49715 -0.29286,3.49715 -0.28456,0 -0.37352,-0.53769 -0.37437,-2.26286 z m -18.1859,-9.87077 c -0.22901,-1.24263 -0.35819,-2.35349 -0.28706,-2.46857 0.3404,-0.55078 0.61631,-0.0516 0.90767,1.6422 0.17517,1.01828 0.38636,2.12914 0.46932,2.46857 0.10587,0.43314 0.028,0.61714 -0.26136,0.61714 -0.29968,0 -0.52586,-0.61672 -0.82857,-2.25934 z m 7.93014,0.81934 c -0.21738,-0.33943 -0.7937,-1.65896 -1.28071,-2.93229 -1.03131,-2.69646 -1.43701,-3.44815 -3.56924,-6.61324 -1.67651,-2.48861 -3.17227,-5.3868 -2.91362,-5.64545 0.30194,-0.30194 0.79217,0.24903 1.32259,1.48644 0.2952,0.68869 1.19661,2.19387 2.00313,3.34486 1.86888,2.66709 2.91032,4.6258 4.01317,7.54783 0.48405,1.28252 0.98714,2.33185 1.11797,2.33185 0.13083,0 0.23856,-1.512 0.2394,-3.36 0.001,-3.22759 0.29195,-5.17114 0.88093,-5.89412 0.5358,-0.65772 0.72946,-0.0448 0.33715,1.06715 -0.2648,0.75053 -0.398,2.27611 -0.40049,4.58717 -0.004,3.98701 -0.132,4.69694 -0.84478,4.69694 -0.28065,0 -0.68812,-0.27771 -0.9055,-0.61714 z m 6.85221,0.0231 c -1.03821,-1.47384 -1.86544,-4.92199 -2.01254,-8.38883 -0.19048,-4.4891 0.29327,-4.39411 0.69839,0.13714 0.30216,3.37972 1.21324,6.96669 2.01483,7.93255 0.22321,0.26896 0.23428,0.47544 0.0361,0.67362 -0.19818,0.19817 -0.42403,0.0895 -0.73679,-0.35448 z m -11.79385,-0.84786 c -0.16605,-1.10728 -1.12392,-3.35922 -1.8603,-4.37353 -0.55474,-0.76412 0.0517,-0.96364 0.66525,-0.21887 1.37099,1.66414 2.63284,5.76 1.77453,5.76 -0.26558,0 -0.46449,-0.40079 -0.57948,-1.1676 z m -4.65361,-7.27031 c -0.96594,-1.86793 -1.68284,-5.63556 -2.07389,-10.89923 -0.13449,-1.81029 -0.33112,-3.56915 -0.43696,-3.90858 -0.14244,-0.45682 -0.0823,-0.61714 0.23154,-0.61714 0.53441,0 0.91066,1.87049 1.13107,5.62286 0.22888,3.89676 0.82119,7.17375 1.62529,8.99195 0.5357,1.21132 0.6049,1.56805 0.30417,1.56805 -0.21411,0 -0.56566,-0.34106 -0.78122,-0.75791 z m 6.37614,-5.67222 c -2.35592,-1.60089 -3.35469,-6.98647 -1.90116,-10.2515 0.63998,-1.43757 0.64222,-1.47344 0.15396,-2.46857 -1.0366,-2.11268 -0.75077,-9.49776 0.38201,-9.87019 0.29505,-0.097 0.33658,0.0538 0.18296,0.66459 -0.36792,1.46287 -0.50058,7.00739 -0.19229,8.03639 0.52861,1.76435 2.79856,2.51826 4.21873,1.40115 1.01848,-0.80114 1.52313,-2.09701 1.73739,-4.46143 0.15564,-1.71759 0.10819,-2.23899 -0.25407,-2.79186 -0.54085,-0.82545 -0.0294,-1.35322 0.54723,-0.56466 0.54517,0.74556 0.78863,0.26934 0.74649,-1.4602 -0.0254,-1.0403 -0.24494,-1.92269 -0.67394,-2.70799 -0.63405,-1.16069 -0.51972,-2.0299 0.14706,-1.11803 0.52518,0.71823 0.61955,0.60735 0.76418,-0.89789 0.13904,-1.44698 0.29272,-1.79151 0.68971,-1.54616 0.1321,0.0816 0.15073,0.86543 0.0414,1.74175 -0.10934,0.87631 -0.20922,2.7262 -0.22195,4.11085 -0.0165,1.79624 -0.1359,2.63032 -0.41671,2.91112 -0.21647,0.21647 -0.47504,1.18186 -0.57462,2.14531 -0.33325,3.22445 -0.8378,4.30088 -2.5918,5.52943 -0.74944,0.52492 -1.96864,0.61686 -2.73578,0.2063 -0.42862,-0.22939 -0.5919,-0.0635 -1.14769,1.16571 -0.51788,1.14542 -0.64797,1.90123 -0.64797,3.76458 0,2.04472 0.10119,2.53226 0.82286,3.96449 1.06384,2.11131 2.31677,2.86106 3.76796,2.25472 0.59001,-0.24653 1.09784,-0.73464 1.37007,-1.31689 1.43781,-3.07525 1.60279,-4.12902 0.90713,-5.79398 -0.22031,-0.52727 -0.32316,-1.03605 -0.22857,-1.13064 0.34702,-0.34703 0.87108,-0.15737 1.04055,0.37659 0.0958,0.30171 0.27933,0.54857 0.40793,0.54857 0.40087,0 1.13573,-3.86035 1.22702,-6.44572 0.10836,-3.06902 0.64221,-9.42743 0.81499,-9.707 0.22952,-0.37137 0.79133,-5.07508 0.73745,-6.1743 -0.0343,-0.69924 -0.63486,-2.19564 -1.73367,-4.31949 l -1.68123,-3.24961 -0.0101,-3.36051 c -0.008,-2.66778 0.11225,-3.77258 0.58335,-5.35949 0.57707,-1.94388 0.57946,-2.01294 0.0868,-2.50565 -0.68137,-0.68137 -1.45575,-2.82816 -2.33266,-6.4668 -0.39992,-1.65943 -0.90742,-3.7041 -1.12778,-4.54371 -0.43956,-1.67483 -0.52784,-4.56803 -0.15723,-5.15289 0.14282,-0.22538 0.0199,-1.08617 -0.31346,-2.19428 -0.30166,-1.00288 -0.76419,-2.99598 -1.02785,-4.42912 l -0.47937,-2.60572 0.0625,8.91429 c 0.0556,7.93129 0.12653,9.20162 0.64321,11.52 1.07623,4.82918 1.28128,8.13345 0.88814,14.31171 -0.36834,5.78857 -0.61461,6.80829 -1.64425,6.80829 -0.54406,0 -1.79818,-1.30294 -2.04463,-2.12424 -0.0795,-0.26481 -0.33805,-2.20948 -0.57463,-4.32148 -0.23659,-2.112 -0.56193,-4.52678 -0.72299,-5.36618 -0.37831,-1.97161 -0.2152,-4.32378 0.55988,-8.07382 0.5466,-2.64459 0.60968,-3.61001 0.5109,-7.81853 -0.15983,-6.80874 -0.25015,-6.86222 -2.77013,-1.6402 -1.65598,3.43162 -2.26281,4.4185 -3.1598,5.13873 -1.24727,1.00149 -1.41666,1.06055 -1.41666,0.49396 0,-0.21861 0.4328,-0.72758 0.96178,-1.13105 0.62366,-0.47569 1.31339,-1.46897 1.96193,-2.82539 0.55008,-1.15049 1.54623,-3.17898 2.21366,-4.50774 1.21278,-2.4145 1.21355,-2.41794 1.29428,-5.76 0.0444,-1.83924 0.0966,-3.68349 0.11599,-4.09835 0.0382,-0.81775 0.89158,-1.85143 1.52853,-1.85143 0.21789,0 0.84086,0.4074 1.38437,0.90532 0.866,0.79336 1.02111,1.13769 1.25432,2.7844 0.28686,2.02565 1.15252,5.61684 1.74475,7.23813 0.20162,0.55197 0.51847,1.86758 0.70412,2.92358 0.31842,1.8113 1.18019,3.76237 2.16059,4.89164 0.30926,0.35622 0.50532,1.43714 0.67163,3.70286 0.33963,4.62666 0.26154,6.53489 -0.35034,8.56192 -0.4346,1.43974 -0.52647,2.43045 -0.46273,4.98982 0.0778,3.12323 0.10112,3.22842 1.06168,4.78644 1.29749,2.10454 2.40517,4.55809 2.41389,5.34689 0.004,0.34909 0.43587,1.30786 0.96,2.13058 0.95016,1.49143 0.95298,1.50551 0.95298,4.74946 0,3.34932 0.16312,4.01733 1.20599,4.93886 l 0.57687,0.50975 -0.75429,-0.1175 c -0.74337,-0.1158 -0.75428,-0.0963 -0.75428,1.34748 0,1.66043 -0.69222,3.67037 -1.26407,3.67037 -0.47626,0 -0.47523,-0.0293 0.0471,-1.33475 0.50846,-1.27076 0.51807,-1.55348 0.25782,-7.57953 -0.19316,-4.47235 -0.48455,-5.89715 -1.20603,-5.89715 -0.12789,0 -0.31992,0.89486 -0.42675,1.98858 -0.10683,1.09371 -0.36114,2.72914 -0.56513,3.63428 -0.204,0.90514 -0.45591,3.744 -0.5598,6.30857 -0.14486,3.57608 -0.34461,5.27018 -0.85703,7.26857 -0.36747,1.43315 -0.78468,2.64686 -0.92713,2.69715 -0.14244,0.0503 -0.25899,0.36843 -0.25899,0.70699 0,0.6762 -1.17049,3.71421 -1.80286,4.67932 -0.89221,1.36169 -2.99073,1.62604 -4.5417,0.57213 z M 148.53112,153.6 c 0.16028,-4.97815 0.11455,-6.02808 -0.39884,-9.15697 -0.31894,-1.94375 -0.66413,-3.67042 -0.7671,-3.83703 -0.23887,-0.38649 -1.16549,4.29377 -1.35582,6.84809 -0.0797,1.07003 -0.001,2.85975 0.17414,3.97714 0.17551,1.11739 0.49041,3.47848 0.69979,5.24686 0.20937,1.76838 0.53387,3.49638 0.72111,3.84 0.33332,0.61172 0.34466,0.60472 0.54306,-0.33523 0.11144,-0.528 0.28409,-3.49029 0.38366,-6.58286 z m 5.33455,-9.19627 c -0.13892,-0.5992 -0.25553,-2.12244 -0.25913,-3.38499 -0.006,-2.12699 -0.0759,-2.40977 -0.95146,-3.85106 -1.13913,-1.8752 -1.54036,-2.82627 -1.80404,-4.27625 l -0.19952,-1.09715 -0.0343,1.04667 c -0.0706,2.15101 2.88732,13.26597 3.39515,12.75814 0.0583,-0.0583 -0.008,-0.59617 -0.14667,-1.19536 z m -6.9969,-18.50659 c -0.0935,-4.87011 -0.18191,-5.89777 -0.4246,-4.93714 -0.27256,1.0789 -0.29352,4.37227 -0.041,6.44571 0.14799,1.21517 0.18538,1.27767 0.32816,0.54857 0.0886,-0.45257 0.15048,-1.37828 0.13745,-2.05714 z m 1.81429,62.79579 c -0.46368,-0.6401 -0.84306,-1.26143 -0.84306,-1.38075 0,-0.44257 0.55818,-0.54343 0.717,-0.12957 0.24263,0.63231 0.57153,0.52215 0.76706,-0.2569 0.0947,-0.37714 0.29697,-0.68571 0.44958,-0.68571 0.29532,0 0.22547,3.14375 -0.0766,3.44578 -0.094,0.094 -0.55034,-0.35276 -1.01402,-0.99285 z m -5.36076,-5.2822 c -0.52591,-0.80265 -1.30742,-4.60588 -1.75764,-8.55359 -0.37923,-3.32526 -0.38918,-4.25143 -0.0457,-4.25143 0.31496,0 0.44896,0.73301 0.9581,5.24111 0.40489,3.58492 1.08293,6.70482 1.59065,7.31909 0.20717,0.25064 0.20747,0.44001 0.001,0.64646 -0.20646,0.20646 -0.42512,0.0888 -0.74647,-0.40164 z m 3.48913,-2.0741 c -1.02704,-0.95132 -1.00697,-0.87201 -0.5173,-2.04396 0.72497,-1.7351 2.90445,-2.98106 3.13356,-1.79138 0.12368,0.64221 -0.73145,1.42787 -1.16369,1.06915 -0.43969,-0.36491 -1.20455,0.4388 -1.3091,1.37559 -0.0709,0.63565 -0.009,0.66655 1.17959,0.58473 0.89782,-0.0618 1.35852,0.039 1.62037,0.35448 0.4734,0.5704 0.10749,0.94153 -1.11568,1.1316 -0.77282,0.1201 -1.09198,0.001 -1.82775,-0.68021 z m -13.36264,-1.8852 c 0.11254,-0.264 0.26192,-1.16088 0.33196,-1.99306 0.11481,-1.36412 0.0141,-1.73465 -1.0233,-3.76444 -0.63285,-1.23826 -1.21721,-2.74774 -1.29858,-3.35438 -0.16739,-1.24801 0.33072,-3.37324 1.0305,-4.39669 0.25787,-0.37715 0.80363,-1.35011 1.21282,-2.16214 0.40918,-0.81203 1.28689,-2.05685 1.95047,-2.76627 1.36297,-1.45713 2.26631,-3.57655 3.02073,-7.08729 0.46999,-2.18713 0.46996,-2.31112 -7.2e-4,-3.10792 -0.47883,-0.81059 -1.25553,-3.93269 -1.25553,-5.04686 0,-0.30758 -0.24686,-1.04344 -0.54857,-1.63524 -0.65549,-1.2857 -0.64951,-1.23428 -0.14347,-1.23428 0.66643,0 1.20861,1.13687 1.50862,3.16334 0.40312,2.72291 0.68048,3.7605 1.22899,4.59765 0.53188,0.81174 0.4867,1.68576 -0.22976,4.44472 -0.78702,3.03073 -1.74624,5.05793 -3.10364,6.55921 -0.72484,0.80166 -1.91156,2.62189 -2.63716,4.04494 -1.73661,3.40583 -1.7444,4.09998 -0.0846,7.53312 0.80139,1.65762 1.26619,2.98908 1.26523,3.62432 -0.002,1.51886 -0.50652,3.06127 -1.00071,3.06127 -0.3026,0 -0.36797,-0.14054 -0.22326,-0.48 z m 14.75761,-5.1613 c -0.22861,-0.59573 0.35175,-1.15598 0.76716,-0.74057 0.3511,0.3511 0.13359,1.17044 -0.3107,1.17044 -0.16033,0 -0.36574,-0.19344 -0.45646,-0.42987 z m -0.831,-1.54708 c -0.26263,-0.33637 -2.81247,-7.04742 -3.77324,-9.93098 -0.44012,-1.32095 -0.39627,-2.26477 0.0912,-1.96348 0.13521,0.0836 0.3293,0.49253 0.43131,0.90882 0.25678,1.04788 2.71246,7.86784 3.42454,9.51067 0.55619,1.28317 0.44081,2.26218 -0.17384,1.47497 z m 2.00411,-2.5864 c -0.18529,-1.57654 0.47678,-6.28537 0.95626,-6.80122 0.50785,-0.54638 0.54681,0.16027 0.13114,2.37857 -0.23795,1.26981 -0.43263,3.13227 -0.43263,4.1388 0,2.23061 -0.40531,2.40631 -0.65477,0.28385 z m -9.03665,-3.57379 C 140.24228,166.48228 140.16,164.744 140.16,162.72 c 0,-2.82133 0.08,-3.65334 0.34272,-3.56576 0.24647,0.0822 0.36499,1.16709 0.422,3.86286 0.072,3.40554 -0.0422,4.10544 -0.58186,3.56576 z m 0.23659,-15.98703 c -0.3848,-0.62261 1.08778,-12.30878 1.61782,-12.83882 0.39101,-0.39101 0.60661,0.33744 0.40504,1.36851 -0.54209,2.77283 -1.05335,6.57302 -1.21854,9.05734 -0.1632,2.4544 -0.37886,3.10138 -0.80432,2.41297 z m -8.64192,48.4583 c 0.3088,-0.24712 0.41594,-0.87504 0.41143,-2.41123 l -0.006,-2.0771 -1.02858,-0.43967 -1.02857,-0.43968 -0.055,1.28249 c -0.15997,3.72932 0.41924,5.1156 1.70683,4.08519 z m -9.99186,-2.18556 c 0.10987,-0.33943 0.17447,-1.13678 0.14355,-1.77189 -0.0532,-1.09301 -0.008,-1.16717 0.84728,-1.38728 0.70385,-0.18115 0.92268,-0.3957 0.99029,-0.97097 0.0477,-0.40614 -0.0353,-0.73843 -0.18462,-0.73843 -0.46778,0 -1.88589,-1.59013 -2.0691,-2.3201 -0.0963,-0.38359 -0.94509,-1.46878 -1.88624,-2.41153 -0.94116,-0.94274 -2.23434,-2.49892 -2.87375,-3.45816 l -1.16255,-1.74407 0.16582,2.1555 c 0.37939,4.93198 1.48287,8.17497 4.16328,12.2355 0.76411,1.15754 1.56719,1.3346 1.86604,0.41143 z m 43.2815,-1.73058 c -0.0165,-0.14189 -0.31339,-1.44585 -0.65977,-2.89768 -0.67452,-2.82715 -0.6182,-3.53174 0.28232,-3.53174 0.41939,0 0.74677,0.38012 1.24022,1.44 0.36873,0.792 0.67208,1.56343 0.67412,1.71429 0.002,0.15085 0.25072,0.67943 0.55264,1.17462 0.4752,0.7794 0.62411,0.8601 1.10868,0.60076 0.79596,-0.42598 3.6336,-6.43416 3.67988,-7.79144 0.0392,-1.1503 0.68758,-1.75586 0.70475,-0.65823 0.01,0.60688 0.93018,1.35818 2.93572,2.39563 0.84728,0.43829 1.49822,1.80692 1.69158,3.55659 l 0.16269,1.47223 0.63866,-0.51846 c 0.81432,-0.66106 1.36813,-2.97725 1.44153,-6.02884 0.0525,-2.18396 0.009,-2.3695 -0.90566,-3.87124 -1.0604,-1.74081 -2.02814,-4.10658 -1.78095,-4.35378 0.31194,-0.31194 0.70877,0.19794 1.14937,1.47681 0.24626,0.7148 0.91126,1.97849 1.47779,2.8082 0.91917,1.34619 1.12741,1.50387 1.93464,1.46487 0.49753,-0.024 1.04539,-0.18555 1.21747,-0.35892 0.43485,-0.43811 0.31615,-3.84719 -0.21338,-6.12848 -0.51692,-2.22692 -2.26879,-5.9489 -2.80004,-5.9489 -0.20712,0 -0.37657,0.12026 -0.37657,0.26725 0,0.42724 -1.62375,1.14812 -2.18492,0.97002 -0.28147,-0.0893 -0.59116,-0.034 -0.68819,0.12301 -0.3443,0.55709 -2.43853,0.3172 -3.49439,-0.40028 -1.40718,-0.9562 -2.13536,-0.91495 -2.13536,0.12096 0,0.44367 -0.13291,0.88881 -0.29536,0.98921 -0.45642,0.28208 -2.82493,-0.7053 -2.49156,-1.03868 0.18619,-0.18619 0.55968,-0.17816 1.14107,0.0245 l 0.86428,0.30129 -0.0892,-1.0215 c -0.0955,-1.09376 0.0281,-1.15533 1.55209,-0.77283 0.57655,0.1447 0.74545,0.053 0.96486,-0.52413 0.54562,-1.43509 -0.76684,-3.83521 -3.86747,-7.07254 -1.26549,-1.32127 -1.6937,-1.93426 -1.42363,-2.03789 0.46239,-0.17744 1.52303,0.79738 3.52663,3.24126 1.95439,2.38387 2.68669,4.04935 2.52418,5.74072 -0.11384,1.18472 -0.0594,1.33551 0.6285,1.74188 0.93978,0.55515 1.4634,0.56287 1.90717,0.0282 0.23995,-0.28912 0.61363,-0.3665 1.22032,-0.25269 0.65138,0.1222 1.04402,0.02 1.53915,-0.40055 0.36559,-0.31053 0.9602,-0.79248 1.32137,-1.071 l 0.65667,-0.50639 -0.76201,-0.70658 c -0.5678,-0.52649 -1.38322,-0.82724 -3.19932,-1.17999 -2.21879,-0.43097 -2.98502,-0.75877 -2.62204,-1.12176 0.0734,-0.0734 1.24161,0.079 2.59601,0.33859 2.10948,0.40439 2.64482,0.42103 3.73399,0.11608 0.6993,-0.1958 1.27146,-0.50706 1.27146,-0.69171 0,-0.18464 -0.55328,-1.51971 -1.22952,-2.96682 -1.20381,-2.57607 -2.00699,-5.90625 -1.70397,-7.06502 0.0737,-0.28182 -0.0183,-0.63879 -0.20439,-0.79325 -0.18612,-0.15446 -0.67772,-1.14571 -1.09244,-2.20278 -0.41473,-1.05706 -0.85975,-1.98725 -0.98893,-2.0671 -0.34593,-0.21379 -3.28361,-5.19994 -3.28361,-5.57329 0,-0.65339 0.4385,-0.2738 1.37143,1.18722 0.95803,1.50032 1.82116,2.05948 3.17903,2.05948 0.34573,0 0.69535,-0.10801 0.77694,-0.24002 0.15121,-0.24466 -1.21232,-2.30045 -1.74356,-2.62878 -0.42464,-0.26244 -0.35827,-0.69691 0.10646,-0.69691 0.56072,0 2.34399,2.41742 2.34399,3.17754 0,0.81618 -0.37808,1.02817 -1.83373,1.02817 -1.15797,0 -1.17836,0.0152 -0.76666,0.57143 0.23262,0.31429 0.88647,1.54655 1.45301,2.73836 l 1.03005,2.16692 0.78065,-1.83679 c 0.6638,-1.56187 0.75433,-2.06068 0.60484,-3.33264 -0.18843,-1.60322 0.18124,-2.0479 0.65863,-0.79228 0.45734,1.20291 0.30227,2.22291 -0.73011,4.80229 -0.89547,2.23732 -0.98113,2.66894 -0.83667,4.21593 0.16882,1.80781 1.33246,5.10792 1.99496,5.65775 0.31284,0.25963 0.38789,0.21329 0.38789,-0.23952 0,-0.30878 0.3858,-1.52492 0.85734,-2.70253 0.78953,-1.97176 0.84104,-2.29337 0.65133,-4.06644 -0.1133,-1.05893 -0.23148,-2.41905 -0.26262,-3.02248 -0.0905,-1.75324 -0.92701,-3.86324 -2.08918,-5.26964 -0.59228,-0.71674 -1.07687,-1.40938 -1.07687,-1.53921 0,-0.12983 0.25814,-0.56409 0.57364,-0.96503 l 0.57365,-0.72898 -1.81923,-0.29929 c -1.00058,-0.16462 -1.96843,-0.45809 -2.15079,-0.65216 -0.26922,-0.28652 0.0382,-0.32052 1.63494,-0.18084 2.31833,0.2028 2.8335,0.0589 2.8335,-0.79163 0,-0.68754 -2.11993,-2.77834 -3.49818,-3.4501 -1.22461,-0.59688 -4.15664,-2.55579 -4.16994,-2.78598 -0.0263,-0.45566 1.03958,-0.16105 2.0598,0.56932 0.59543,0.42627 1.69747,1.12707 2.44897,1.55735 l 1.36637,0.78232 -0.52952,-0.80306 c -0.29123,-0.44169 -0.83266,-1.3585 -1.20317,-2.03735 -0.37051,-0.67886 -0.97321,-1.56018 -1.33934,-1.95849 -0.36613,-0.39831 -0.55225,-0.7943 -0.41361,-0.87999 0.48479,-0.29961 1.35425,0.62641 2.59804,2.76704 1.47031,2.53049 2.57297,3.91144 3.12318,3.91144 0.62025,0 0.99479,-1.36959 0.82795,-3.02762 -0.17897,-1.77858 -0.71596,-3.17305 -1.79613,-4.66418 -0.42779,-0.59054 -0.9166,-1.62494 -1.08624,-2.29868 -0.46199,-1.8347 -1.26685,-2.5963 -3.30771,-3.12993 -0.96553,-0.25246 -1.81259,-0.63025 -1.88236,-0.83955 -0.0971,-0.29126 0.0585,-0.33797 0.66324,-0.19912 0.43454,0.0998 1.27343,0.25968 1.8642,0.35533 0.94335,0.15274 1.05188,0.11595 0.89143,-0.30218 -0.10048,-0.26184 -0.18269,-0.76383 -0.18269,-1.11551 0,-0.60309 -0.10189,-0.64021 -1.79272,-0.65319 -1.89894,-0.0146 -2.43883,-0.17088 -2.15827,-0.62484 0.10573,-0.17107 0.76983,-0.20936 1.71952,-0.0991 1.51084,0.17535 1.57439,0.15491 2.6993,-0.86806 l 1.15203,-1.04763 -0.5429,-1.16414 c -0.29859,-0.64028 -0.87906,-1.37334 -1.28993,-1.62904 -1.2631,-0.78605 -3.07846,-2.30379 -3.07846,-2.57375 0,-0.44403 0.62639,-0.27844 1.2841,0.33944 0.34855,0.32745 0.6835,0.54345 0.74433,0.48 0.0608,-0.0635 -0.0566,-0.97937 -0.26095,-2.03537 -0.20435,-1.056 -0.51448,-3.21393 -0.6892,-4.79541 -0.17471,-1.58148 -0.43368,-3.18057 -0.57548,-3.55354 -0.36508,-0.96024 -1.03957,-5.90183 -1.05055,-7.696761 -0.01,-1.604809 -0.32603,-2.50332 -0.67964,-1.931167 -0.39459,0.638472 -2.38549,1.89585 -2.76889,1.748728 -0.77057,-0.295694 -0.35634,-0.843421 2.23216,-2.951563 1.46434,-1.192591 2.8128,-2.532373 3.05053,-3.030888 0.39625,-0.830956 0.38566,-1.001448 -0.15145,-2.436982 -0.31762,-0.848935 -0.88807,-2.035496 -1.26766,-2.636801 -0.37959,-0.601305 -0.69016,-1.175595 -0.69016,-1.276198 0,-0.100604 -0.42211,-0.698052 -0.93803,-1.327662 -0.60606,-0.739614 -0.85952,-1.27178 -0.71619,-1.503694 0.25834,-0.418014 -1.50516,-3.895719 -2.92184,-5.761991 -0.95192,-1.254016 -1.07901,-2.010526 -0.35793,-2.130626 0.53258,-0.0887 1.86917,1.715377 3.50713,4.733803 0.7228,1.331973 1.45927,2.470132 1.6366,2.529241 0.46611,0.155369 1.39133,-1.504936 1.59482,-2.86188 0.13435,-0.89593 0.0351,-1.452195 -0.43075,-2.414555 -0.99994,-2.065599 -0.25131,-2.840927 0.96639,-1.000856 1.22668,1.853635 3.53944,2.447061 4.26359,1.093982 0.32065,-0.599138 0.0945,-2.60002 -0.323,-2.858063 -0.13989,-0.08646 -0.50763,-0.653669 -0.8172,-1.260477 -0.46399,-0.909511 -0.51148,-1.25065 -0.27036,-1.94232 0.40864,-1.172233 0.37564,-1.305304 -0.32466,-1.309015 -0.33943,-0.0018 -1.35771,-0.435853 -2.26285,-0.964565 -0.90515,-0.528712 -2.56543,-1.399452 -3.68952,-1.934976 -1.37057,-0.652946 -1.92672,-1.046048 -1.68835,-1.193367 0.48017,-0.296764 2.1854,0.394565 4.86033,1.970464 1.2163,0.716571 2.47833,1.302857 2.8045,1.302857 0.5029,0 0.59264,-0.156337 0.5904,-1.028571 -0.002,-0.807605 -0.30139,-1.426312 -1.39327,-2.88 -0.76485,-1.018286 -1.52129,-1.851429 -1.68098,-1.851429 -0.15969,0 -0.8374,-0.504265 -1.50603,-1.120588 -1.49773,-1.380556 -4.11638,-2.635235 -6.09154,-2.918654 -0.8706,-0.124924 -1.53859,-0.371331 -1.61317,-0.595061 -0.10429,-0.312863 0.18772,-0.34621 1.61631,-0.184583 0.95898,0.108496 1.86272,0.218844 2.00831,0.245219 0.14559,0.02637 0.31139,-0.165163 0.36845,-0.425637 0.15571,-0.710835 -1.11303,-1.808482 -2.52772,-2.186854 -1.36287,-0.364511 -1.55619,-0.962961 -0.26236,-0.812141 2.05414,0.239448 3.92376,2.048295 3.57077,3.454711 -0.13334,0.531281 -0.025,0.700548 0.58954,0.921113 0.41409,0.148623 1.29698,0.685051 1.96197,1.192063 0.66498,0.507012 1.52788,1.116413 1.91753,1.354224 0.38966,0.23781 1.38844,1.332775 2.21951,2.433254 l 1.51103,2.000872 0.0857,-1.317935 c 0.12533,-1.92836 -0.0662,-2.388198 -1.75469,-4.211932 -0.84058,-0.907922 -1.44964,-1.778089 -1.35346,-1.933705 0.31948,-0.51693 1.06573,-0.293256 1.98086,0.593726 l 0.90449,0.876663 -0.006,-1.356663 c -0.007,-1.763149 -0.54665,-4.082232 -1.62222,-6.976815 C 177.27761,51.001848 177.2115,48.96 178.148,48.96 c 0.46249,0 0.55666,0.20184 0.60353,1.293601 0.0305,0.711481 0.23352,1.633293 0.45105,2.048471 l 0.39552,0.75487 0.5468,-1.774186 c 0.30074,-0.975802 0.89701,-3.4667 1.32504,-5.535329 l 0.77824,-3.761144 -0.54972,-0.736289 c -0.9355,-1.252997 -1.56668,-1.299752 -3.12019,-0.231128 -0.8249,0.567429 -1.70886,0.946848 -2.20594,0.946848 -0.66172,0 -0.82947,0.117356 -0.82947,0.580258 0,0.610006 -2.07249,2.711171 -2.67417,2.711171 -0.62969,0 -0.35356,-0.514219 0.75417,-1.40441 0.60342,-0.484928 1.09714,-1.027043 1.09714,-1.2047 0,-0.555482 -0.91635,-1.184641 -2.24166,-1.539107 -1.12524,-0.300956 -1.51026,-0.272144 -3.2862,0.24592 -1.12911,0.329379 -2.11553,0.48291 -2.24847,0.349967 -0.32576,-0.325758 0.44389,-0.684135 2.63364,-1.226326 1.41982,-0.351553 2.08782,-0.39324 2.86458,-0.178767 0.55714,0.153833 1.05091,0.241761 1.09728,0.195395 0.0464,-0.04637 -0.36119,-0.656106 -0.90568,-1.354979 -1.1445,-1.469023 -1.15506,-2.170043 -0.0758,-5.035769 0.59621,-1.583136 0.61387,-1.799779 0.27937,-3.428571 -0.66744,-3.249987 -2.12343,-4.340855 -5.18342,-3.883547 -3.17875,0.475055 -5.47603,-0.810312 -6.51795,-3.646893 -0.88945,-2.42149 -1.60306,-2.605224 -2.59172,-0.667291 -0.3116,0.610778 -0.68316,1.110506 -0.82571,1.110506 -0.14254,0 -0.6646,-0.354548 -1.16014,-0.787885 -0.49553,-0.433336 -1.32409,-0.87997 -1.84123,-0.99252 -0.51715,-0.112549 -1.75144,-0.628007 -2.74286,-1.145462 -2.07452,-1.082754 -4.32866,-1.438292 -5.87768,-0.927068 -0.54987,0.181471 -1.64397,0.773087 -2.43133,1.314701 -0.78737,0.541613 -2.1141,1.248479 -2.9483,1.570811 -1.24306,0.480321 -1.63385,0.797444 -2.16595,1.757665 -0.35708,0.644383 -0.8227,1.238172 -1.03472,1.319532 -0.21202,0.08136 -1.21587,-0.255828 -2.23077,-0.749305 -2.08581,-1.01419 -2.82567,-1.061381 -6.18677,-0.394614 -4.2559,0.844274 -5.92382,1.512659 -7.55353,3.026916 l -1.49281,1.387056 0.0549,3.12816 c 0.0302,1.720488 0.10392,3.177231 0.1639,3.237208 0.06,0.05998 1.10857,0.458873 2.3302,0.886436 2.75717,0.964992 4.11889,1.783714 4.11889,2.476454 0,0.670807 -0.55128,0.667912 -1.69861,-0.0089 -1.95167,-1.151338 -4.6906,-1.992683 -5.93767,-1.82394 -1.78085,0.240967 -3.60944,1.128177 -3.60944,1.751259 0,1.862606 3.26773,6.007061 6.23079,7.902507 1.41887,0.907642 1.82331,1.63039 1.07337,1.918167 -0.4344,0.166696 -3.38327,-1.824742 -4.93545,-3.333029 -0.58293,-0.566442 -1.49042,-1.70295 -2.01664,-2.525573 -0.88896,-1.389662 -0.98881,-1.46359 -1.40871,-1.042973 -0.35035,0.350952 -0.44228,0.928126 -0.40899,2.567848 0.0551,2.712527 1.12505,5.898757 2.33748,6.960572 1.05504,0.923986 0.79297,1.57226 -0.3163,0.782393 -0.42755,-0.304445 -0.83591,-0.553537 -0.90747,-0.553537 -0.0716,0 -0.28543,0.401143 -0.47529,0.891429 -0.18985,0.490286 -0.65372,1.156392 -1.03081,1.480237 -1.42214,1.221324 -1.0448,4.135416 0.90048,6.954048 0.90109,1.305645 1.16682,3.631049 0.5764,5.044119 -0.24294,0.581438 -0.44171,1.542883 -0.44171,2.136543 0,1.00559 0.10367,1.8678 0.83778,6.967408 0.15378,1.068296 0.34573,2.85801 0.42656,3.977143 0.18546,2.568048 0.81693,6.325299 1.3331,7.93193 0.80346,2.50087 1.30197,6.085385 1.12349,8.078452 -0.19501,2.177721 0.34931,3.767417 1.35335,3.952472 0.83833,0.154512 0.91314,0.488964 0.51957,2.322741 -0.38675,1.80202 -0.48838,3.97679 -0.21867,4.67963 0.14238,0.37104 0.2989,0.34896 1.19924,-0.16921 0.99109,-0.5704 1.06621,-0.57583 1.7519,-0.12655 0.39402,0.25817 0.79518,0.7833 0.89147,1.16695 0.14925,0.59468 -0.0571,0.91361 -1.39929,2.16274 -0.8659,0.80585 -1.51989,1.63211 -1.45332,1.83613 0.0666,0.20401 0.45135,0.53195 0.85507,0.72875 0.40372,0.19681 0.73403,0.50973 0.73403,0.69538 0,0.18565 -0.93343,1.23776 -2.07429,2.33803 -1.14086,1.10027 -2.31297,2.39192 -2.60469,2.87034 -0.48395,0.79369 -0.74006,2.37843 -0.38438,2.37843 0.35434,0 2.25217,-1.09574 2.57815,-1.48852 0.19696,-0.23732 0.57473,-0.43148 0.8395,-0.43148 0.26477,0 0.63042,-0.17955 0.81255,-0.399 0.18213,-0.21946 0.89427,-0.72902 1.58253,-1.13237 l 1.25139,-0.73336 -0.88258,-0.3711 c -0.92976,-0.39093 -0.9178,-1.07736 0.0136,-0.78174 1.07829,0.34223 2.71273,-0.18094 3.97306,-1.27174 1.24787,-1.08003 1.75229,-1.30687 1.75229,-0.78802 0,0.37856 -1.80808,1.97369 -2.6602,2.34689 -0.37439,0.16397 -0.77578,0.45194 -0.89196,0.63993 -0.11618,0.18799 -0.99834,0.85676 -1.96035,1.48617 -1.95852,1.28138 -2.41978,2.11141 -1.15903,2.08567 0.67135,-0.0137 2.96471,-0.57842 4.95725,-1.22067 0.40122,-0.12933 0.61714,-0.0869 0.61714,0.12135 0,0.78261 -5.07729,2.13403 -6.35031,1.69025 -0.65904,-0.22974 -0.94913,-0.17028 -1.71934,0.3524 -0.84028,0.57023 -1.6799,0.95797 -2.94301,1.3591 -0.2723,0.0865 -0.52628,0.57949 -0.63742,1.23732 -0.10162,0.60146 -0.9757,2.43063 -1.9424,4.06482 -0.96671,1.63418 -1.8391,3.40324 -1.93864,3.93124 -0.0996,0.528 -0.34863,1.20347 -0.55351,1.50103 -0.20488,0.29757 -0.37251,0.91133 -0.37251,1.36392 v 0.82289 l 1.18234,-1.34364 c 0.72964,-0.82918 1.30725,-1.26644 1.50857,-1.14201 0.54333,0.33579 0.37413,0.88287 -0.65345,2.1128 -0.53883,0.64494 -1.21479,1.63345 -1.50213,2.19669 -0.52548,1.03002 -1.19359,3.52149 -0.99703,3.71805 0.058,0.058 0.92655,-0.27872 1.93005,-0.74831 1.00351,-0.4696 2.3488,-0.92138 2.98953,-1.00396 0.64074,-0.0826 1.47355,-0.36467 1.85069,-0.62688 0.37714,-0.2622 0.99429,-0.47648 1.37143,-0.47616 1.15049,9.6e-4 4.46341,-1.10752 5.57259,-1.86456 1.06166,-0.7246 1.83312,-0.73358 1.83312,-0.0213 0,0.62087 -2.48651,2.05116 -4.55351,2.61925 -1.04071,0.28603 -2.56931,0.77865 -3.3969,1.09471 -0.82758,0.31607 -1.78415,0.57467 -2.12571,0.57467 -0.52214,0 -0.62102,0.14696 -0.62102,0.92301 0,2.44258 2.22218,3.10306 4.73859,1.40841 1.54628,-1.04132 1.98351,-1.15898 2.20098,-0.59226 0.19498,0.50812 0.002,0.7177 -1.74821,1.89512 -1.28917,0.86744 -1.75676,1.02857 -2.98476,1.02857 -1.30667,0 -1.54832,-0.0978 -2.35457,-0.95265 -0.56421,-0.59823 -0.96789,-1.36355 -1.08507,-2.05714 -0.10263,-0.60747 -0.23328,-1.10449 -0.29033,-1.10449 -0.0571,0 -0.53256,0.20449 -1.05668,0.45443 -0.68235,0.32539 -1.10824,0.81218 -1.49979,1.71428 l -0.54684,1.25986 1.36764,0.0834 c 0.89922,0.0548 1.42132,0.22329 1.52437,0.49183 0.25195,0.65657 -0.0982,0.78737 -2.54221,0.94966 -1.27115,0.0844 -2.46152,0.3038 -2.64527,0.48755 -0.92902,0.92902 1.8934,2.54328 4.8498,2.77381 1.46749,0.11442 1.93521,0.25003 1.93521,0.56109 0,0.60642 -2.08406,0.97311 -3.58218,0.6303 -0.6698,-0.15328 -1.21782,-0.18806 -1.21782,-0.0773 0,0.11075 0.25865,0.78608 0.57477,1.50073 0.31612,0.71465 0.5163,1.60526 0.44483,1.97913 -0.12294,0.64312 -0.0784,0.6701 0.82546,0.50052 1.37694,-0.25831 1.05059,0.43619 -0.42869,0.91228 -1.11268,0.3581 -1.90764,1.12966 -3.74666,3.63637 -0.98257,1.33932 -2.09108,3.65873 -1.79651,3.75899 0.13815,0.047 0.81894,-0.10726 1.51286,-0.34286 0.69393,-0.23559 1.67214,-0.42835 2.17382,-0.42835 0.5261,0 1.34962,-0.29688 1.94582,-0.70147 1.04654,-0.7102 1.78573,-0.72484 1.78573,-0.0354 0,0.84418 -2.28368,2.10826 -3.80876,2.10826 -1.26173,0 -1.7552,0.26094 -1.37037,0.72463 0.17632,0.21245 0.34698,0.85416 0.37925,1.42602 0.092,1.63076 0.68284,2.5817 1.77944,2.864 0.89482,0.23036 2.9414,-0.013 4.18615,-0.49782 0.32941,-0.1283 0.48,-0.0553 0.48,0.23255 0,0.43144 -0.98781,0.83096 -2.81143,1.13709 -1.1561,0.19408 -1.21309,0.31668 -0.52809,1.13612 1.11877,1.33833 2.97738,1.57686 5.12238,0.65741 1.50329,-0.64438 1.78286,-0.67384 1.78286,-0.18787 0,0.44774 -3.10509,1.56584 -4.33804,1.56208 -0.5002,-0.002 -1.1482,-0.13055 -1.44,-0.28672 -0.60689,-0.3248 -0.65672,-0.19006 -0.2268,0.61325 0.16706,0.31215 0.5449,1.75432 0.83964,3.20483 1.19376,5.87468 4.34085,11.36646 7.48817,13.06711 1.19982,0.64832 1.60926,0.7538 1.99349,0.51359 0.87426,-0.54657 0.68892,-1.31983 -0.769,-3.20835 -1.34403,-1.74101 -1.60392,-2.66792 -0.74464,-2.65583 0.89673,0.0126 4.3286,5.53491 4.3286,6.96524 0,0.33395 0.33943,0.92238 0.75429,1.30763 0.85906,0.79775 4.4186,2.82359 4.61542,2.62677 0.0714,-0.0715 0.0507,-0.80398 -0.0461,-1.62784 l -0.17605,-1.49791 -1.90514,-0.92613 c -1.04782,-0.50937 -1.97152,-1.03353 -2.05265,-1.16481 -0.3823,-0.61858 0.35626,-0.50813 1.99024,0.29762 0.98501,0.48573 1.90676,0.81155 2.04834,0.72406 0.14157,-0.0875 0.25741,-0.56413 0.25741,-1.05918 0,-0.73039 -0.36889,-1.30909 -1.95663,-3.06952 -1.07614,-1.1932 -2.04079,-2.26392 -2.14366,-2.3794 -0.10287,-0.11547 -0.58561,-0.0111 -1.07276,0.23192 -0.84945,0.42376 -0.94588,0.41242 -2.35449,-0.27675 -2.26207,-1.10672 -4.81532,-4.62919 -4.81532,-6.64321 0,-1.30315 0.37612,-1.13853 0.77087,0.33741 0.7283,2.72301 4.07846,6.3185 5.67485,6.0904 0.45171,-0.0645 0.5448,-0.2787 0.5272,-1.21289 -0.022,-1.16926 -0.96746,-3.72997 -1.6724,-4.5297 -0.30569,-0.34678 -0.32098,-0.50105 -0.0653,-0.65904 0.40601,-0.25093 0.90787,0.3661 1.79664,2.20895 l 0.66141,1.37143 -0.12933,-1.37143 c -0.0711,-0.75428 -0.31424,-2.18159 -0.54026,-3.17179 -0.47417,-2.07743 -0.38574,-8.49849 0.13894,-10.08828 0.17343,-0.5255 0.72465,-1.4917 1.22493,-2.1471 1.10822,-1.45185 3.40679,-5.97877 3.40679,-6.70952 0,-0.29122 0.17973,-0.95965 0.3994,-1.48539 0.36862,-0.88223 0.35518,-1.03086 -0.17442,-1.92845 -0.49792,-0.84391 -0.54474,-1.19698 -0.35405,-2.66957 0.3126,-2.41399 0.27715,-3.49361 -0.14709,-4.47996 -0.31085,-0.7227 -0.31175,-1.1907 -0.006,-2.88 0.20109,-1.10939 0.52138,-2.40815 0.71175,-2.88614 0.40822,-1.02495 0.29997,-1.18808 -0.78838,-1.18808 -1.03333,0 -1.5418,-0.66393 -1.55294,-2.02776 -0.008,-0.92163 0.17115,-1.24068 1.3057,-2.33142 2.58744,-2.48754 5.96031,-4.91637 6.32126,-4.55199 0.20559,0.20756 -0.52002,0.84392 -3.65854,3.2086 -2.74207,2.06598 -3.55925,3.12886 -3.17752,4.1329 0.20207,0.53146 0.537,0.76688 1.29278,0.90867 0.94786,0.17782 1.07979,0.11712 1.86383,-0.85747 0.46407,-0.57686 1.18032,-1.83437 1.59166,-2.79447 0.41133,-0.9601 1.24165,-2.43517 1.84514,-3.27794 0.60349,-0.84276 1.35176,-2.21253 1.66283,-3.04393 0.31106,-0.8314 0.8044,-1.81525 1.0963,-2.18634 0.43916,-0.5583 0.50242,-0.94558 0.36665,-2.24452 -0.13227,-1.26554 -0.0516,-1.80504 0.41607,-2.78349 1.50794,-3.1547 2.72505,-4.70167 4.27083,-5.42827 2.33129,-1.09583 3.92872,-0.68165 5.63063,1.45992 1.06259,1.3371 2.47787,4.26416 2.47816,5.12529 1.2e-4,0.35558 0.3704,1.42902 0.82286,2.38542 0.45245,0.9564 0.82264,2.14957 0.82264,2.65149 0,0.50191 0.49371,2.2908 1.09714,3.97531 0.60343,1.6845 1.09714,3.4074 1.09714,3.82867 0,0.78324 0.95112,3.03204 1.93601,4.57745 0.5633,0.88387 1.12148,4.11289 1.20209,6.95388 0.0235,0.82971 0.14541,3.14723 0.27081,5.15003 0.22571,3.60485 0.23785,3.65449 1.20772,4.93715 0.53884,0.71262 1.20168,1.45696 1.47297,1.65409 0.27129,0.19712 0.49326,0.47484 0.49326,0.61714 0,0.40549 -0.59282,0.30371 -1.1458,-0.19673 -0.2768,-0.2505 -0.58035,-0.37838 -0.67456,-0.28418 -0.0942,0.0942 0.32604,1.62602 0.93389,3.40404 1.67489,4.8992 2.56434,8.84294 2.54501,11.28425 -0.0217,2.74053 -0.0225,2.7182 0.15393,4.15421 0.12048,0.9805 -0.0569,1.82644 -0.86252,4.11428 -0.9096,2.58304 -1.03717,3.2901 -1.23719,6.85715 -0.12266,2.18743 -0.33952,4.56553 -0.48192,5.28468 -0.2486,1.25549 -0.22608,1.33516 0.56599,2.00164 0.78289,0.65875 1.74638,0.79639 1.68177,0.24024 z m 7.43569,-11.0193 c -1.21374,-0.54344 -2.0597,-0.72972 -3.22286,-0.70967 -1.99603,0.0344 -2.21959,-0.60478 -0.3116,-0.8909 1.0774,-0.16157 1.56913,-0.0564 3.30757,0.70762 1.57981,0.69428 2.11598,0.82345 2.36874,0.57069 0.52995,-0.52995 0.33573,-3.48993 -0.44092,-6.72001 -0.66893,-2.78203 -0.72604,-3.82775 -0.17869,-3.27175 0.31888,0.32393 1.56461,6.01371 1.64165,7.49819 0.10345,1.99316 0.0212,2.43776 -0.55818,3.01714 -0.68254,0.68254 -0.62112,0.68728 -2.60571,-0.20131 z m -3.71888,-3.3502 c -1.1767,-0.35706 -1.97592,-0.87502 -1.72771,-1.11969 0.28427,-0.28022 3.19733,0.6663 3.33661,1.08414 0.11174,0.3352 -0.57162,0.3503 -1.6089,0.0356 z m 1.84864,-3.44485 c -1.18473,-1.64688 -1.6853,-2.884 -0.99408,-2.4568 0.47722,0.29493 2.72717,3.50027 2.72717,3.88518 0,0.71225 -0.47447,0.32119 -1.73309,-1.42838 z m 5.42023,-7.6555 c -0.29259,-0.21395 -0.44788,-0.47311 -0.34508,-0.57591 0.24557,-0.24558 2.14366,0.38477 2.14366,0.7119 0,0.39027 -1.20329,0.2993 -1.79858,-0.13599 z m 1.13963,-5.74225 c -0.68328,-0.59048 -0.95245,-0.98901 -0.75177,-1.11304 0.3501,-0.21637 2.53571,1.49162 2.33151,1.82201 -0.22142,0.35827 -0.47805,0.24309 -1.57974,-0.70897 z m -64.34677,0.097 c 0,-0.15086 0.22076,-0.27429 0.49058,-0.27429 0.26982,0 0.97477,-0.24686 1.56657,-0.54857 1.28554,-0.65541 1.23428,-0.64942 1.23428,-0.14419 0,0.22241 -0.36415,0.5927 -0.80923,0.82286 -0.911,0.47109 -2.4822,0.56236 -2.4822,0.14419 z m 9.98766,-0.0385 c -0.20864,-0.33759 -0.34181,-0.25899 1.92544,-1.13648 1.91313,-0.74044 2.29747,-0.77758 1.93231,-0.18675 -0.40574,0.65651 -3.59394,1.75008 -3.85775,1.32323 z m 49.571,-3.10986 c -1.31394,-0.66519 -3.87866,-2.76493 -3.87866,-3.17547 0,-0.53145 0.65968,-0.22653 1.81619,0.83951 0.98405,0.90707 3.80442,2.46778 4.45794,2.4669 0.0944,-1.3e-4 0.17159,-0.88654 0.17159,-1.96981 v -1.96957 l -1.8577,-1.52734 c -1.71327,-1.40859 -4.01341,-4.35337 -4.03169,-5.16162 -0.004,-0.18857 -0.16719,-0.34286 -0.36205,-0.34286 -0.19485,0 -0.69227,-0.68913 -1.10536,-1.53141 -0.91726,-1.87025 -2.58663,-4.16609 -3.72704,-5.12568 -0.83442,-0.70212 -1.1018,-1.29719 -0.58285,-1.29719 0.88105,0 4.1958,4.08617 5.2668,6.49249 0.28003,0.62916 0.60359,1.18459 0.71904,1.23429 0.11544,0.0497 0.77864,0.95965 1.47378,2.02212 0.77938,1.19125 1.85389,2.37723 2.80305,3.09385 2.19935,1.66053 2.47455,2.16984 2.21239,4.09447 -0.11814,0.86738 -0.18632,1.79306 -0.15149,2.05706 0.0909,0.68886 -1.68617,0.57876 -3.22394,-0.19974 z m -7.77768,-6.68583 c -0.49554,-0.4305 -1.4301,-1.11378 -2.07681,-1.5184 -0.6467,-0.40462 -1.10561,-0.84929 -1.01978,-0.98816 0.23679,-0.38314 0.94031,-0.0497 2.67598,1.26843 0.86763,0.65889 1.70078,1.19799 1.85143,1.19799 0.15065,0 0.27392,-0.55895 0.27392,-1.24211 0,-1.21768 -1.16142,-4.03479 -2.10581,-5.1078 -0.47868,-0.54388 0.006,-0.99782 0.5678,-0.53166 0.71348,0.59213 2.16928,3.88707 2.29486,5.19398 0.23561,2.45208 -0.79509,3.1755 -2.46159,1.72773 z m -44.8272,-1.12591 c -0.32399,-0.13597 -0.66194,-0.36512 -0.751,-0.50922 -0.34862,-0.56409 0.47751,-2.01114 1.57505,-2.75884 1.27649,-0.8696 6.12895,-2.58328 6.34141,-2.2395 0.22932,0.37103 -0.4476,0.7469 -2.45536,1.36337 -3.16372,0.9714 -5.3699,2.58223 -4.59622,3.3559 0.47941,0.47941 6.06331,-0.29009 7.69235,-1.06006 1.49187,-0.70513 2.268,-0.64246 1.28528,0.10378 -1.11387,0.84584 -2.80001,1.37814 -4.93672,1.55847 -1.20685,0.10186 -2.50285,0.24103 -2.88,0.30926 -0.37714,0.0682 -0.95079,0.0128 -1.27479,-0.12316 z m 49.27479,-9.28772 c 0,-0.5869 -2.09328,-2.5597 -3.82847,-3.60812 -1.94758,-1.17674 -2.50202,-1.85533 -1.26153,-1.54399 1.82219,0.45734 6.22535,4.37522 5.76119,5.12625 -0.19268,0.31176 -0.67119,0.3302 -0.67119,0.0259 z m 2.30018,-0.57699 c -0.54162,-0.91688 -4.27016,-4.18847 -5.90796,-5.18389 -1.32904,-0.80777 -2.97507,-2.6561 -2.97507,-3.34071 0,-0.73877 0.5046,-0.69518 0.80307,0.0694 0.28069,0.719 1.71532,2.12524 2.91029,2.85268 0.45835,0.27902 1.81729,1.33534 3.01986,2.34737 2.32184,1.95396 3.39728,3.36201 2.92702,3.83228 -0.18286,0.18286 -0.44193,-0.01 -0.77721,-0.5771 z m -43.44303,-0.14413 c 0,-0.48883 1.66609,-1.79682 2.28874,-1.79682 0.70473,0 0.53623,0.49202 -0.32015,0.93487 -0.42584,0.22022 -0.93467,0.59367 -1.13073,0.8299 -0.44658,0.53811 -0.83786,0.55307 -0.83786,0.032 z m 37.44,-0.72731 c -2.16742,-1.46159 -4.05007,-3.30059 -3.71844,-3.63221 0.15905,-0.15906 0.91377,0.34059 1.98744,1.31573 0.95205,0.8647 2.17125,1.79855 2.70935,2.07524 0.53809,0.27669 1.13949,0.69723 1.33644,0.93454 0.70521,0.84972 -0.61139,0.4554 -2.31479,-0.6933 z m 10.30676,-0.95675 c -0.46415,-0.39055 -0.84391,-0.88426 -0.84391,-1.09714 0,-0.56256 0.22766,-0.48482 1.2762,0.43581 0.51545,0.45257 1.05631,0.82286 1.20192,0.82286 0.14561,0 0.26474,0.12343 0.26474,0.27428 0,0.5166 -1.05476,0.27453 -1.89895,-0.43581 z m -48.56962,-1.35108 c 0,-0.2204 1.74259,-1.22808 2.12571,-1.22922 0.61762,-0.002 0.3596,0.5248 -0.46637,0.95193 -0.79469,0.41095 -1.65934,0.55544 -1.65934,0.27729 z m 39.55103,-3.48606 c -1.52233,-0.74593 -2.18635,-1.20716 -2.00253,-1.39097 0.31953,-0.31953 4.96579,1.79759 4.96579,2.26271 0,0.4696 -0.56495,0.3034 -2.96326,-0.87174 z m 5.57971,-2.51268 c -0.69439,-1.11409 -1.93744,-2.66394 -2.76235,-3.4441 -1.4577,-1.37863 -1.80579,-1.93598 -1.20911,-1.93598 0.9457,0 5.74358,5.93109 5.74358,7.10017 0,0.7424 -0.60077,0.15928 -1.77212,-1.72009 z m -1.90749,0.69183 c -0.0804,-0.13016 -0.70805,-0.39395 -1.39468,-0.5862 -0.68663,-0.19224 -1.31192,-0.45228 -1.38953,-0.57787 -0.0776,-0.12558 -0.97485,-0.47663 -1.99385,-0.7801 -1.79205,-0.53369 -3.33662,-1.65786 -3.33662,-2.42846 0,-0.53525 0.39736,-0.37856 1.22152,0.48168 0.42657,0.44524 1.15937,0.88824 1.62846,0.98444 0.76357,0.1566 3.58949,1.28401 5.3566,2.13706 0.77852,0.37581 1.0745,1.00611 0.47247,1.00611 -0.22996,0 -0.48392,-0.1065 -0.56437,-0.23666 z m -10.40039,-0.76905 c -0.3156,-0.31561 -0.19975,-0.64 0.22857,-0.64 0.22628,0 0.41143,-0.22699 0.41143,-0.50441 0,-0.60998 -1.37768,-2.48874 -1.83524,-2.50274 -0.53911,-0.0165 -0.70122,-0.54974 -0.22292,-0.73328 0.87446,-0.33556 2.88101,2.14411 2.88101,3.56032 0,0.78262 -0.96137,1.32158 -1.46285,0.82011 z m -36.11341,-1.66858 c -9.4e-4,-0.36544 0.31785,-0.42037 2.05626,-0.35431 1.36722,0.052 2.05715,0.24643 2.05715,0.57986 0,0.14337 -0.90988,0.22622 -2.05626,0.18724 -1.42428,-0.0484 -2.05654,-0.1753 -2.05715,-0.41279 z m 53.21055,-2.4 c -0.74137,-0.39698 -1.7272,-0.67027 -2.46857,-0.68433 -1.28925,-0.0245 -4.15944,-1.09685 -4.33355,-1.61916 -0.1662,-0.49861 0.81458,-0.33894 2.37221,0.38617 0.80698,0.37567 1.9454,0.68304 2.52981,0.68304 1.21252,0 3.54581,1.02867 3.54581,1.56323 0,0.48261 -0.20762,0.44111 -1.64571,-0.32895 z M 124.8,129.72315 c 0,-0.31476 1.64767,-1.08315 2.32262,-1.08315 0.80317,0 0.41331,0.47669 -0.75465,0.92274 -1.37913,0.52669 -1.56797,0.54601 -1.56797,0.16041 z m -7.88572,-0.17678 c -1.79083,-0.0837 -2.26285,-0.19228 -2.26285,-0.52077 0,-0.35595 0.41995,-0.38952 2.94857,-0.2357 1.8643,0.11341 3.22237,0.0723 3.69315,-0.11193 0.81569,-0.31912 1.24967,-0.006 0.66473,0.47916 -0.47029,0.39031 -2.18605,0.52272 -5.0436,0.38924 z m 43.4054,-0.084 c -0.0934,-0.15114 0.14616,-0.39494 0.53239,-0.54178 0.96336,-0.36627 0.88471,-0.81886 -0.39493,-2.2726 -1.8145,-2.06138 -1.34995,-2.64156 0.50435,-0.62989 1.45463,1.57809 1.71658,2.53777 0.87804,3.21678 -0.68941,0.55825 -1.26242,0.64402 -1.51985,0.22749 z m 3.42889,0.0299 c 0,-0.29712 0.67725,-0.57792 1.39386,-0.57792 0.28938,0 0.52614,-0.17567 0.52614,-0.39038 0,-0.6759 -1.38041,-2.06483 -2.28518,-2.29928 -0.47755,-0.12374 -0.90745,-0.42847 -0.95535,-0.67718 -0.0799,-0.41464 0.0112,-0.41801 1.09672,-0.0405 1.55538,0.54086 1.9582,0.87021 2.66383,2.17798 l 0.58934,1.09225 -0.58507,0.48 c -0.60239,0.49422 -2.44429,0.67135 -2.44429,0.23506 z m -33.40556,-0.57772 c -0.71638,-0.30226 -1.42229,-1.74842 -1.22385,-2.50724 0.22254,-0.85101 1.99548,-2.19424 4.35661,-3.30071 1.23164,-0.57716 2.43716,-1.04939 2.67893,-1.04939 0.7025,0 0.50824,0.53278 -0.3147,0.86308 -2.39686,0.96204 -4.69793,2.22517 -5.41167,2.97064 -0.78046,0.81517 -0.79848,0.88724 -0.399,1.59572 0.37606,0.66693 0.56973,0.74104 1.91452,0.73261 0.82288,-0.005 2.09818,-0.11411 2.83399,-0.2421 1.06553,-0.18536 1.31313,-0.15858 1.21642,0.13156 -0.22921,0.68761 -4.49112,1.29533 -5.65125,0.80583 z m -7.60349,-0.82845 c -0.1038,-0.16796 -0.14552,-0.33316 -0.0927,-0.36712 3.29803,-2.11993 5.16417,-3.03478 5.5018,-2.69715 0.1702,0.1702 -0.35613,0.60092 -1.47334,1.20571 -0.95598,0.5175 -2.19014,1.21609 -2.74258,1.55243 -0.68695,0.41823 -1.06409,0.51499 -1.19318,0.30613 z m -3.64916,-1.01353 c 0.20431,-1.06088 3.1896,-2.39288 4.97515,-2.21983 1.39418,0.13511 1.00733,0.61841 -0.63694,0.79574 -1.57587,0.16995 -2.94464,0.73467 -3.5507,1.46493 -0.47238,0.56918 -0.90071,0.54696 -0.78751,-0.0408 z m 50.03545,-1.51822 c -2.21863,-1.52173 -2.37456,-1.58031 -3.04213,-1.1429 -0.32782,0.2148 -0.65951,0.32707 -0.73709,0.2495 -0.0776,-0.0776 -1.4446,-0.24278 -3.03783,-0.36712 -2.56798,-0.20042 -3.04775,-0.32295 -4.22664,-1.07944 -1.71329,-1.09942 -2.61536,-1.94628 -2.41628,-2.2684 0.0869,-0.14062 0.79936,0.21706 1.58323,0.79483 2.1945,1.61752 2.49813,1.71874 5.57238,1.85759 l 2.8743,0.12982 -0.39694,-0.76758 c -0.55928,-1.08153 -1.18359,-1.57729 -2.98569,-2.37094 -1.70347,-0.75021 -5.14741,-3.08773 -5.14741,-3.49372 0,-0.48533 0.54952,-0.23513 2.70066,1.22963 1.19531,0.81391 2.54331,1.56111 2.99558,1.66044 1.16067,0.25493 3.00253,1.91275 3.21873,2.89713 0.14814,0.67445 0.28619,0.79261 0.78101,0.66842 0.42031,-0.10549 0.97052,0.13654 1.82968,0.80486 1.46099,1.13648 2.50943,1.57675 3.01327,1.26536 0.28846,-0.17829 0.18258,-0.51122 -0.49276,-1.54942 -0.5491,-0.84414 -0.76502,-1.41749 -0.59705,-1.58546 0.30109,-0.30108 0.75098,0.21967 1.68023,1.94489 0.51764,0.96103 0.55722,1.20903 0.25171,1.57714 -0.59153,0.71276 -1.98991,0.52692 -3.42096,-0.45463 z m -33.90295,0.31577 c 0,-0.42117 1.62199,-1.89291 2.08615,-1.89291 0.62779,0 0.43368,0.36067 -0.70122,1.30286 -1.15708,0.96061 -1.38493,1.05768 -1.38493,0.59005 z m -15.76343,-1.87996 c -0.109,-0.17636 0.24478,-0.47903 0.86369,-0.7389 1.50715,-0.63284 4.79426,-1.51666 4.97364,-1.33729 0.30918,0.30918 -0.42169,0.68859 -2.55792,1.32785 -1.20465,0.36049 -2.39378,0.74356 -2.64253,0.85126 -0.24874,0.1077 -0.53533,0.0614 -0.63688,-0.10292 z m 8.08343,-1.20952 c 0,-0.3564 0.36803,-1.11111 0.81785,-1.67713 0.44982,-0.56603 1.1852,-1.78643 1.63418,-2.712 1.02701,-2.1172 1.76248,-3.0571 2.18692,-2.79478 0.23311,0.14406 0.13855,0.44759 -0.3327,1.06801 -0.3621,0.47672 -0.92933,1.4839 -1.26053,2.23819 -0.33119,0.75428 -0.9758,1.83821 -1.43246,2.40873 -0.45666,0.57052 -0.79046,1.15386 -0.74178,1.29631 0.0487,0.14245 1.07468,-0.17006 2.27999,-0.69445 2.54295,-1.10637 2.33424,-1.05463 2.33424,-0.57875 0,0.48229 -3.59071,2.09387 -4.66527,2.09387 -0.67955,0 -0.82044,-0.11128 -0.82044,-0.648 z m 46.88776,-1.61486 c -0.9398,-0.49028 -1.6603,-1.01485 -1.6011,-1.16571 0.0592,-0.15086 0.26173,-0.25717 0.45009,-0.23626 0.18836,0.0209 -0.28882,-0.65269 -1.06038,-1.49691 -1.50237,-1.64383 -2.10624,-2.66989 -1.76523,-2.99942 0.11642,-0.1125 0.41311,0.10402 0.6593,0.48116 1.1655,1.78547 3.17217,3.58653 4.31718,3.87485 1.31942,0.33223 2.45909,1.36659 2.21283,2.00834 -0.25483,0.66408 -1.3513,0.50502 -3.21269,-0.46605 z m 1.86823,-0.27428 c -0.0619,-0.18857 -0.47335,-0.37558 -0.91429,-0.41558 l -0.8017,-0.0727 0.68571,0.40586 c 0.84923,0.50264 1.17686,0.52885 1.03028,0.0824 z m -6.37885,0.69449 c -1.26537,-0.30748 -3.16624,-1.27325 -3.06157,-1.55549 0.0622,-0.16759 0.28271,-0.25261 0.49014,-0.18892 3.42498,1.0516 5.26742,1.97939 3.792,1.90953 -0.3696,-0.0175 -0.91886,-0.0918 -1.22057,-0.16512 z m -48.35351,-0.93914 c 0.0679,-0.20487 0.60717,-0.45614 1.19845,-0.55838 0.59128,-0.10224 1.91419,-0.33282 2.93979,-0.51241 1.82003,-0.3187 2.62152,-0.19729 1.84908,0.28009 -0.36084,0.22302 -2.14923,0.58255 -4.91226,0.98754 -0.94171,0.13803 -1.17202,0.0959 -1.07506,-0.19684 z m 11.51694,-1.38735 c -0.18103,-0.18103 -0.32915,-0.6688 -0.32915,-1.08394 0,-0.78057 0.87206,-1.78889 3.22286,-3.72648 0.64114,-0.52844 1.16572,-1.05152 1.16572,-1.16239 0,-0.11087 -0.80161,-0.27644 -1.78135,-0.36792 -0.97973,-0.0915 -2.02888,-0.29883 -2.33142,-0.46075 -0.63728,-0.34105 -0.72154,-1.16278 -0.16647,-1.62344 0.40931,-0.3397 0.7357,-2.49165 0.37791,-2.49165 -0.32782,0 -0.25221,-1.80804 0.10874,-2.60025 0.24608,-0.54009 0.24608,-0.78169 0,-1.02777 -0.44944,-0.44944 -0.40135,-2.50754 0.0858,-3.67356 0.53664,-1.284361 2.00528,-3.121281 2.49551,-3.121281 0.56309,0 0.50291,0.145536 -0.67797,1.639456 -1.12863,1.427825 -1.96618,3.940595 -1.47663,4.430135 0.17078,0.17078 0.88489,-0.32625 2.00538,-1.39576 1.2291,-1.17318 1.82537,-1.57505 2.0303,-1.36836 0.20468,0.20642 -0.13578,0.66022 -1.15572,1.54048 -1.56261,1.34859 -2.80555,3.20039 -2.80555,4.17984 0,0.54373 0.19094,0.45052 1.71428,-0.83679 0.94286,-0.79677 2.17696,-1.87926 2.74245,-2.40553 0.73498,-0.68401 1.11247,-0.87255 1.32382,-0.66121 0.21134,0.21135 -0.1541,0.67684 -1.28157,1.63241 -3.15769,2.67627 -3.62798,3.14988 -4.08574,4.11454 -0.55497,1.16951 -0.3542,1.46293 1.13069,1.65246 0.89848,0.11468 1.50472,-0.0972 3.94178,-1.37741 1.584,-0.83211 3.28744,-1.93349 3.78542,-2.44751 0.89914,-0.92811 1.62036,-2.79977 1.8979,-4.92532 0.0826,-0.63282 0.28152,-1.02857 0.51692,-1.02857 0.5509,0 0.47514,0.85161 -0.30255,3.40128 -0.8674,2.84374 -1.69863,3.67926 -5.76055,5.79024 -2.92534,1.5203 -3.05693,1.56013 -4.325,1.30902 -1.0131,-0.20062 -1.37735,-0.17525 -1.61623,0.11258 -0.1696,0.20436 -0.25051,0.42942 -0.17979,0.50014 0.36068,0.36068 2.96677,0.62258 3.94284,0.39623 1.43959,-0.33384 1.49247,-0.32866 1.49247,0.14616 0,0.41891 -2.92021,3.43237 -4.05973,4.18938 -0.34714,0.23061 -0.81,0.76511 -1.02857,1.18778 -0.35555,0.68756 -0.34959,0.79526 0.0566,1.02256 0.92309,0.51659 5.62484,-1.44408 7.77012,-3.24021 1.41808,-1.18728 1.65018,-1.29242 1.65018,-0.74753 0,0.45605 -2.03783,2.15871 -3.43812,2.87264 -3.4524,1.76018 -5.93412,2.37777 -6.65559,1.6563 z m 35.19085,-1.17186 c -0.77546,-0.47733 -1.33839,-0.63274 -1.92,-0.53006 -1.62721,0.28726 -5.42372,-1.02486 -6.87141,-2.37483 -0.30957,-0.28867 -1.17357,-0.64183 -1.92,-0.78479 -0.74644,-0.14296 -1.83442,-0.46065 -2.41775,-0.70597 -0.58332,-0.24532 -1.23914,-0.37752 -1.45737,-0.29378 -1.00943,0.38736 -2.55905,-1.15032 -6.1204,-6.07324 -0.89613,-1.23873 -1.50995,-2.32601 -1.36405,-2.41618 0.4026,-0.24883 0.56914,-0.0773 2.31659,2.38564 2.27362,3.20459 3.90247,5.10027 4.56231,5.30969 0.77449,0.24582 1.88923,-0.82945 1.88923,-1.82233 0,-0.73952 -2.8505,-5.28698 -4.28908,-6.84244 -0.64647,-0.699 -0.8508,-1.35642 -0.42159,-1.35642 0.38049,0 1.319,1.13087 3.19166,3.84587 0.98421,1.4269 1.96782,2.59559 2.18582,2.5971 0.60621,0.004 2.89725,3.11012 2.90947,3.94431 0.007,0.49486 0.28708,0.91381 0.89143,1.33458 1.68625,1.17403 4.24458,2.28487 5.64386,2.4506 1.2632,0.14961 1.40843,0.11259 1.40843,-0.35894 0,-0.76052 -0.7246,-1.68048 -1.73094,-2.19763 -1.01996,-0.52415 -1.97258,-1.21782 -3.56712,-2.59746 -0.63121,-0.54614 -1.66385,-1.25409 -2.29476,-1.57322 -1.26872,-0.64175 -1.72695,-1.13664 -1.05244,-1.13664 0.78013,0 2.55985,1.06718 4.81199,2.88543 2.49571,2.0149 3.53197,2.37586 2.34206,0.81581 -0.4034,-0.52889 -0.65795,-1.08379 -0.56566,-1.23312 0.0923,-0.14933 -0.14773,-0.41527 -0.53338,-0.59098 -0.38565,-0.17572 -0.70118,-0.48481 -0.70118,-0.68688 0,-0.53467 0.29428,-0.46056 1.6927,0.42629 0.68833,0.43653 1.53324,0.94447 1.87757,1.12874 0.60837,0.32559 0.62149,0.30698 0.46471,-0.65915 -0.0887,-0.54682 -0.41576,-1.35152 -0.72673,-1.78823 -0.6279,-0.8818 -0.69224,-1.12077 -0.30179,-1.12077 0.79384,0 1.83581,2.05054 2.0466,4.02762 0.0373,0.34987 0.1499,0.7182 0.25023,0.81853 0.27917,0.27917 0.21709,0.63956 -0.11016,0.63956 -0.16093,0 -0.69715,-0.30857 -1.19161,-0.68571 -1.17507,-0.89627 -1.68768,-0.90256 -1.10518,-0.0136 0.24223,0.36968 0.48554,0.95597 0.54069,1.30285 0.29732,1.87014 0.80158,2.66017 2.10092,3.2915 0.71383,0.34685 1.30267,0.78491 1.30854,0.97349 0.0162,0.52037 -0.55884,0.41158 -1.77221,-0.33529 z M 157.9029,113.1297 c 0.0519,-0.15809 -0.40125,-0.95181 -1.00709,-1.76382 -1.07058,-1.4349 -1.10153,-1.45359 -1.10153,-0.66502 0,0.44625 -0.19773,1.09367 -0.4394,1.4387 -0.50325,0.7185 -0.51613,0.69424 0.57655,1.08631 0.97167,0.34865 1.83922,0.30633 1.97147,-0.0962 z m 14.74924,1.18661 c -0.5221,-1.08946 -0.94928,-2.20032 -0.94928,-2.46857 0,-0.62799 0.51713,-0.6335 0.72601,-0.008 0.0881,0.264 0.51626,1.26529 0.9514,2.22508 0.8624,1.90221 0.9372,2.23206 0.50616,2.23206 -0.15675,0 -0.71218,-0.89137 -1.23429,-1.98083 z M 130.56,114.47809 c 0,-0.55967 1.05394,-2.29523 1.3938,-2.29523 0.38534,0 0.3004,0.63157 -0.17653,1.31248 -0.38839,0.55451 -0.38839,0.62704 0,0.77609 0.7117,0.2731 0.48192,0.65428 -0.39441,0.65428 -0.57815,0 -0.82286,-0.13312 -0.82286,-0.44762 z m -4.66286,-1.62898 c 0,-0.33723 2.60155,-3.08502 2.80297,-2.96053 0.38501,0.23795 0.23003,0.55332 -0.90628,1.84423 -0.96128,1.09207 -1.89669,1.64261 -1.89669,1.1163 z m -1.47678,-0.34053 c -0.0856,-0.13849 0.59517,-1.03986 1.51279,-2.00305 1.04973,-1.10184 1.7185,-1.6192 1.80347,-1.39515 0.0743,0.19585 -0.52476,1.05985 -1.33122,1.92 -1.63189,1.74055 -1.7627,1.83796 -1.98504,1.4782 z m 46.15377,-0.53144 c -0.0174,-0.11314 -0.009,-0.42389 0.0181,-0.69054 0.0273,-0.26666 -0.14419,-1.15159 -0.3811,-1.96651 -0.48296,-1.66135 -1.53303,-2.67769 -3.78823,-3.66654 -0.71658,-0.3142 -1.30286,-0.70164 -1.30286,-0.86098 0,-0.39451 0.299,-0.36537 1.54364,0.15041 l 1.06207,0.44013 -0.61714,-0.66352 c -0.33943,-0.36493 -0.61714,-0.89017 -0.61714,-1.16719 0,-0.38479 0.34909,-0.18639 1.47898,0.84053 0.81344,0.73932 1.4923,1.50114 1.50857,1.69295 0.0163,0.19181 0.36409,0.85419 0.77291,1.47197 0.5602,0.84652 0.77079,1.55459 0.85481,2.87412 0.0747,1.17276 0.0104,1.75089 -0.19475,1.75089 -0.16843,0 -0.32045,-0.0926 -0.33782,-0.20572 z m -46.55127,-2.22198 c 0.16784,-0.42851 4.38551,-4.20394 4.53233,-4.05711 0.40791,0.40791 -3.41012,4.29052 -4.21914,4.29052 -0.22254,0 -0.36348,-0.10503 -0.31319,-0.23341 z m 31.0914,-2.71516 c -0.086,-0.56571 -0.2849,-1.584 -0.44206,-2.26286 -0.5355,-2.31313 -0.58596,-2.74285 -0.32208,-2.74285 0.14509,0 0.47868,0.52457 0.74131,1.16571 0.57915,1.41386 0.91823,4.86857 0.47785,4.86857 -0.16429,0 -0.36905,-0.46286 -0.45502,-1.02857 z m 4.59888,0.46297 c -1.66276,-0.21639 -3.64457,-0.94501 -3.64457,-1.33994 0,-0.47729 0.39253,-0.48009 1.461,-0.0104 1.26613,0.55654 5.12186,1.03909 5.12186,0.641 0,-0.70352 -1.07284,-1.48283 -4.08499,-2.96734 -1.8264,-0.90013 -3.32073,-1.79498 -3.32073,-1.98857 0,-0.19359 0.0583,-0.35199 0.12955,-0.35199 0.0712,0 1.64497,0.74073 3.49714,1.64606 3.30032,1.61317 4.59772,2.63991 4.60052,3.64073 0.001,0.46592 -1.04175,1.06074 -1.73078,0.987 -0.17875,-0.0191 -1.0918,-0.13457 -2.029,-0.25653 z m 11.89829,-2.08583 c -0.10057,-0.10057 -0.18286,-0.45863 -0.18286,-0.79568 0,-0.33705 -0.55543,-1.3517 -1.23429,-2.25478 -0.67885,-0.90308 -1.23428,-1.77931 -1.23428,-1.94718 0,-0.534898 0.67103,-0.32722 1.09714,0.33956 0.22629,0.35409 0.81257,1.24203 1.30286,1.97321 0.49028,0.73118 0.89143,1.67554 0.89143,2.09857 0,0.73914 -0.25425,0.97205 -0.64,0.5863 z m -2.88472,-1.75537 c -0.91003,-1.46393 -1.04437,-1.90177 -0.58353,-1.90177 0.33427,0 1.91396,2.42133 1.91396,2.9337 0,0.70699 -0.48173,0.33335 -1.33043,-1.03193 z m -5.87534,-0.28125 c -0.71037,-0.41357 -0.30845,-0.80565 0.63287,-0.61739 0.47247,0.0945 0.98071,0.0219 1.21643,-0.17371 0.65042,-0.53981 -0.18677,-1.82838 -1.64968,-2.53912 -1.35171,-0.65671 -1.36686,-0.68241 -0.82441,-1.398157 0.36654,-0.48364 0.40159,-0.481114 0.95128,0.06857 0.31389,0.313893 0.67774,0.570714 0.80855,0.570714 0.41448,0 1.68216,2.154222 1.68216,2.858562 0,1.18816 -1.65116,1.90937 -2.8172,1.23053 z m -33.93709,-0.32374 c 0,-0.52022 1.62575,-2.39392 2.07712,-2.39392 0.57252,0 0.49949,0.1777 -0.62663,1.5249 -1.03936,1.24341 -1.45049,1.48973 -1.45049,0.86902 z m 12.61832,-1.91392 c 6.5e-4,-0.18857 0.37757,-0.89829 0.8376,-1.577146 1.07314,-1.583591 2.17837,-3.714276 2.17837,-4.199493 0,-0.20775 -0.864,-1.712265 -1.92,-3.343364 -1.056,-1.6311 -1.92,-3.137641 -1.92,-3.347868 0,-0.62294 -0.83124,-2.063808 -1.83943,-3.188452 -0.51799,-0.577832 -1.16254,-1.565551 -1.43233,-2.194929 -0.26978,-0.629378 -1.07347,-1.822892 -1.78598,-2.652252 -0.7125,-0.82936 -1.48801,-1.878214 -1.72336,-2.330785 -0.23534,-0.452572 -0.64933,-1.107091 -0.91998,-1.454488 -0.27065,-0.347397 -0.82102,-1.619327 -1.22305,-2.826511 -0.71679,-2.152319 -0.72208,-2.219852 -0.27282,-3.482655 0.83679,-2.352104 0.83399,-2.385332 -0.25527,-3.028014 -0.61508,-0.362907 -1.16109,-0.983406 -1.42415,-1.618443 -0.66176,-1.597544 -0.83276,-1.727579 -1.68624,-1.282314 -0.40714,0.212403 -1.11449,0.386949 -1.5719,0.387878 -0.45741,9.29e-4 -1.50655,0.178115 -2.33143,0.393746 -1.51211,0.395281 -2.42114,0.17444 -1.44104,-0.35009 0.29097,-0.155727 1.38422,-0.420408 2.42944,-0.588179 3.05098,-0.489722 3.13084,-0.516086 2.95459,-0.97537 -0.0884,-0.230367 0.0495,-0.651133 0.30642,-0.935036 0.41011,-0.453168 0.43414,-0.78917 0.19682,-2.752196 -0.21631,-1.789231 -0.19353,-2.382817 0.11402,-2.97074 0.22804,-0.435938 0.36984,-1.450369 0.34867,-2.494483 -0.0329,-1.625099 0.0224,-1.802011 0.72249,-2.312029 0.43419,-0.316288 1.18224,-1.461543 1.75063,-2.680201 0.82568,-1.770314 1.22087,-2.283735 2.35152,-3.055066 0.84738,-0.578078 1.58014,-1.366264 1.94628,-2.093479 0.74888,-1.487413 2.21511,-3.048044 2.86368,-3.048044 0.8637,0 5.67375,-2.595083 6.3817,-3.443006 0.37123,-0.444632 0.8603,-1.178708 1.08681,-1.63128 0.58362,-1.166091 1.37442,-4.60529 1.26557,-5.503988 -0.1449,-1.19627 0.53787,-1.131509 0.72991,0.06923 0.64769,4.049802 1.21664,5.016745 4.81176,8.177612 3.62896,3.190621 3.42978,2.984509 4.49843,4.655083 0.50623,0.791357 1.29281,1.704 1.74796,2.028095 0.79246,0.564285 3.34314,4.12614 3.34314,4.668481 0,0.143431 0.432,1.162216 0.96,2.263967 0.528,1.101751 0.96303,2.253523 0.96674,2.559493 0.004,0.30597 0.2567,1.296881 0.56219,2.202024 0.3055,0.905143 0.62764,2.639518 0.71587,3.854167 0.13679,1.883044 0.0742,2.403474 -0.42504,3.532009 -0.32201,0.727957 -0.58548,1.661508 -0.58548,2.074558 0,0.672517 -0.57678,1.662269 -1.57088,2.695589 -0.35059,0.364423 -0.77671,1.661575 -0.58777,1.789252 1.1791,0.796809 2.98151,2.266293 2.98151,2.430787 0,0.442704 -0.64629,0.192915 -1.92,-0.742076 -0.71928,-0.528 -1.36776,-0.96 -1.44108,-0.96 -0.0733,0 -0.20909,0.524571 -0.30174,1.165714 -0.37956,2.626538 -0.66121,3.681713 -1.22634,4.594286 -0.32698,0.528 -0.59496,1.137187 -0.59553,1.35375 -5.6e-4,0.216563 -0.24045,0.648611 -0.53309,0.960108 -0.57943,0.616779 -2.48508,4.199493 -2.48508,4.672081 0,0.16063 -0.56132,0.933726 -1.24737,1.717992 -1.20234,1.374448 -1.23725,1.463569 -0.96676,2.468078 0.15434,0.573177 0.66186,1.643297 1.12783,2.378045 0.50656,0.798763 0.74723,1.43588 0.59856,1.58455 -0.32086,0.320861 -0.7064,-0.153968 -1.82518,-2.247914 l -0.89538,-1.675831 -1.13165,1.731713 c -0.62241,0.952442 -1.56683,2.331476 -2.09871,3.06452 -1.17448,1.618687 -1.20649,2.36663 -0.18772,4.386352 0.73849,1.464062 0.79306,1.823698 0.27672,1.823698 -0.38825,0 -1.60858,-2.695139 -1.77712,-3.924835 -0.15044,-1.097527 -0.067,-1.303488 1.21298,-2.994589 0.75599,-0.9988 1.95945,-2.720244 2.67437,-3.825431 0.71491,-1.105187 1.83782,-2.624453 2.49535,-3.376148 0.65753,-0.751694 1.19551,-1.527226 1.19551,-1.723404 0,-0.480231 1.28538,-3.020329 2.04504,-4.041307 1.22995,-1.653036 2.45768,-5.150102 2.98512,-8.502857 0.23245,-1.477535 0.88263,-2.842621 1.63629,-3.435449 0.5441,-0.427994 0.73927,-0.827938 0.73927,-1.514972 0,-0.513405 0.24639,-1.337589 0.54754,-1.831521 0.74417,-1.220555 0.73774,-4.111921 -0.0148,-6.663994 -0.31044,-1.052735 -0.67356,-2.420233 -0.80693,-3.038885 -0.13338,-0.618652 -0.89695,-2.47008 -1.69682,-4.114286 -1.11805,-2.298228 -1.81187,-3.338282 -3.00066,-4.498036 -0.85049,-0.829714 -1.92443,-2.128347 -2.38654,-2.885851 -0.46211,-0.757504 -1.23227,-1.667145 -1.71146,-2.021424 -2.6261,-1.941561 -5.4102,-4.735657 -6.2171,-6.239421 -0.54058,-1.007434 -0.91107,-1.452598 -0.99462,-1.195094 -0.0732,0.225699 -0.33316,1.027505 -0.57761,1.78179 -0.67066,2.069437 -1.82772,3.160378 -5.04769,4.759285 -1.56413,0.776679 -3.00961,1.412144 -3.21218,1.412144 -0.51291,0 -1.36206,0.968867 -2.28967,2.612502 -0.50211,0.8897 -1.28867,1.737923 -2.16996,2.340096 -1.13351,0.774503 -1.51817,1.262094 -2.13673,2.70846 -0.4149,0.970153 -1.13213,2.19466 -1.59384,2.721126 -0.91988,1.048899 -0.93145,1.126838 -1.05178,7.089371 -0.0405,2.006612 -0.18019,3.189916 -0.40292,3.412937 -0.27177,0.272127 -0.22529,0.464476 0.2291,0.948154 0.31352,0.333724 0.72667,1.062394 0.91811,1.619265 0.24315,0.707283 0.66948,1.19278 1.41429,1.61057 0.58642,0.328941 1.10804,0.815267 1.15916,1.080723 0.0511,0.265456 -0.18446,1.151949 -0.52351,1.969984 l -0.61647,1.487336 0.59558,1.981096 c 0.32758,1.089603 0.81106,2.286876 1.07442,2.660607 0.26336,0.373732 0.75362,1.167428 1.08947,1.76377 0.33585,0.596343 1.10388,1.619358 1.70672,2.273368 0.60285,0.65401 1.39184,1.80218 1.75332,2.551487 0.36148,0.749308 1.17523,1.97669 1.80833,2.727516 0.63311,0.750825 1.32823,1.953675 1.54471,2.672999 0.21648,0.719325 1.12651,2.37792 2.02227,3.685767 0.89576,1.307848 1.70764,2.692606 1.80418,3.077241 0.19421,0.773804 -0.60854,2.567767 -2.26612,5.064261 -0.94669,1.42583 -1.44239,1.81085 -1.44002,1.11851 z m 18.10377,-0.0661 c -0.195,-0.23495 -0.26932,-0.51241 -0.16516,-0.61657 0.23231,-0.23232 1.02852,0.23813 1.02768,0.60721 -0.001,0.4536 -0.48944,0.4589 -0.86252,0.009 z m -3.0488,-1.315661 c -1.71297,-1.525254 -3.30081,-3.430396 -3.00924,-3.610592 0.25341,-0.156618 4.68453,3.952403 4.68453,4.344023 0,0.4116 -0.76591,0.0763 -1.67529,-0.733431 z m -2.37043,0.445791 c -0.39403,-0.159 -0.46923,-0.915492 -0.091,-0.915492 0.56269,0 1.11957,0.355674 1.11957,0.715062 0,0.3832 -0.38817,0.45883 -1.02857,0.20043 z m -22.0054,-1.806921 c 0.0137,-0.777311 1.09376,-2.638027 2.42805,-4.182857 0.78179,-0.905143 1.69493,-2.232 2.02921,-2.948571 0.62378,-1.337145 1.50782,-1.867357 1.14331,-0.685714 -0.35781,1.159919 -0.9214,2.055122 -2.30891,3.667442 -0.76324,0.886907 -1.70851,2.260558 -2.1006,3.052558 -0.67521,1.363892 -1.20431,1.851271 -1.19106,1.097142 z m -2.42473,-2.057142 c -1.53725,-2.270684 -1.94214,-3.153648 -2.02955,-4.425922 -0.0426,-0.620158 -0.15339,-1.127741 -0.24619,-1.127962 -0.0928,-2.21e-4 -0.49065,0.252826 -0.88411,0.562327 -1.16194,0.91398 -3.05951,1.440415 -4.4438,1.232827 -1.42742,-0.214055 -1.42805,-0.216802 -0.83101,-3.609231 0.40376,-2.294229 0.88595,-3.678716 1.61309,-4.631608 0.78131,-1.023875 0.82049,-0.155744 0.0686,1.519713 -0.41187,0.917778 -0.861,2.460581 -0.99807,3.428451 -0.13707,0.967871 -0.28094,1.91667 -0.31973,2.108442 -0.0954,0.471969 1.58299,0.610961 2.83848,0.235057 0.54395,-0.162862 1.5676,-0.805418 2.27478,-1.427902 0.70718,-0.622485 1.35003,-1.067543 1.42855,-0.989019 0.0785,0.07852 0.14206,0.556591 0.14119,1.062371 -0.003,2.004171 0.33719,3.054041 1.63671,5.044713 0.74081,1.134804 1.34693,2.182891 1.34693,2.329082 0,0.647066 -0.60856,0.147002 -1.59585,-1.311339 z m 32.78856,-1.769189 c -0.75764,-1.168461 -0.97218,-2.139383 -0.47271,-2.139383 0.15085,0 0.27428,0.104855 0.27428,0.233011 0,0.128156 0.36804,0.776156 0.81787,1.44 0.90949,1.342213 0.99102,1.618418 0.4777,1.618418 -0.19257,0 -0.68629,-0.518421 -1.09714,-1.152046 z m 5.82847,-0.836526 c -0.62228,-1.012431 -1.20594,-2.923818 -0.96607,-3.163687 0.24766,-0.24766 0.56561,0.235687 1.08687,1.652279 0.2631,0.715012 0.59248,1.37055 0.73196,1.456753 0.13948,0.0862 0.64192,-0.467949 1.11654,-1.231449 0.83598,-1.344807 1.32952,-1.737796 1.32952,-1.058654 0,0.181239 -0.39637,0.983525 -0.88081,1.782857 -1.0296,1.69883 -1.63303,1.839056 -2.41801,0.561901 z m -36.11285,-1.290974 c -0.9969,-0.606253 -1.29832,-1.580725 -0.92164,-2.979619 0.31657,-1.175648 2.43649,-3.495939 2.83236,-3.10007 0.15441,0.154408 -0.17919,0.685087 -0.85633,1.362222 -1.67714,1.67714 -1.89176,3.610436 -0.46118,4.15434 0.69085,0.262663 0.89443,0.668503 0.46765,0.93227 -0.1238,0.07651 -0.60119,-0.0896 -1.06086,-0.369143 z m 33.79482,-0.629026 c -0.0626,-0.188571 -0.30334,-1.577143 -0.53486,-3.085714 -0.29535,-1.924434 -0.68072,-3.255297 -1.29152,-4.460245 -0.85083,-1.678455 -0.90802,-2.382087 -0.14193,-1.746289 0.75482,0.626442 1.7989,3.512378 2.21955,6.13501 0.23566,1.469233 0.42846,2.857804 0.42846,3.085714 0,0.499474 -0.51935,0.554125 -0.6797,0.07152 z m -20.56789,-1.835979 c -0.091,-0.147281 -0.14109,-0.859009 -0.11125,-1.581617 0.0298,-0.722608 -0.0968,-3.041832 -0.28138,-5.153832 -0.18459,-2.112 -0.31356,-5.012572 -0.2866,-6.445715 0.072,-3.828011 0.0858,-3.742901 -0.51763,-3.196796 -0.53527,0.484408 -1.14412,0.603465 -1.14412,0.223725 0,-0.126617 0.432,-0.623325 0.96,-1.103794 0.6034,-0.549081 0.96,-1.125825 0.96,-1.552643 0,-0.742769 -0.28753,-0.838067 -1.14462,-0.379367 -0.38756,0.207414 -0.64779,0.211891 -0.84514,0.01454 -0.19736,-0.197353 0.0229,-0.46689 0.71516,-0.87536 0.55017,-0.324611 1.00032,-0.691206 1.00032,-0.814656 0,-0.123449 -0.23692,-0.777165 -0.52649,-1.452703 -0.50055,-1.167738 -0.59177,-1.235876 -1.85143,-1.383042 -1.61156,-0.188279 -5.13732,-0.07789 -7.32757,0.229426 -1.33282,0.187007 -1.59177,0.159376 -1.48613,-0.158572 0.18562,-0.558681 2.61119,-0.889244 6.32304,-0.861722 1.77258,0.01314 3.22286,-0.03286 3.22286,-0.102219 0,-0.500781 -1.11695,-1.63175 -2.04132,-2.066931 -0.61213,-0.288185 -1.60668,-0.827012 -2.21011,-1.197393 -1.87809,-1.152763 -4.30943,-1.82182 -6.57743,-1.809979 -1.70346,0.0089 -2.06257,-0.06486 -2.06257,-0.423588 0,-0.373654 0.35457,-0.417536 2.53715,-0.314 1.98149,0.094 2.92759,0.287594 4.32,0.883975 0.98057,0.41999 2.41402,0.985821 3.18545,1.257403 0.77143,0.271582 1.7773,0.687551 2.23527,0.924376 1.10282,0.57029 1.29067,0.322513 2.02084,-2.665478 l 0.57646,-2.359008 -0.57815,-0.979896 c -1.11521,-1.890141 -3.56459,-4.666783 -4.81047,-5.453212 -0.69189,-0.436733 -1.25798,-0.89959 -1.25798,-1.028572 0,-0.521391 1.029,-0.174346 2.16829,0.731293 0.66456,0.528265 1.26806,0.900712 1.34111,0.827661 0.23,-0.230004 -1.36429,-2.12167 -2.17837,-2.584689 -0.90931,-0.517185 -1.0054,-0.854491 -0.24343,-0.854491 1.03766,0 2.42378,1.631624 4.03155,4.74561 l 1.58585,3.071533 0.2561,-1.465879 c 0.17855,-1.021967 0.16525,-1.522029 -0.0439,-1.651296 -0.165,-0.10198 -0.42751,-0.520784 -0.58336,-0.930677 -0.4276,-1.124693 -2.77693,-4.593005 -3.35619,-4.954763 C 140.98811,46.774184 140.78457,46.08 141.19611,46.08 c 0.76655,0 4.17532,4.412239 4.17532,5.404444 0,0.195556 0.10558,0.355556 0.23462,0.355556 0.12904,0 0.30937,-0.800423 0.40072,-1.778718 0.17406,-1.863925 -0.0578,-2.871056 -1.15696,-5.025599 -0.57344,-1.124028 -0.76081,-2.257004 -0.36981,-2.236129 0.11314,0.006 0.60485,0.878563 1.09269,1.938937 0.91768,1.994682 1.52298,2.312242 1.25456,0.658184 -0.16517,-1.017841 0.36781,-5.02551 0.75074,-5.64511 0.48957,-0.792143 0.60192,0.08986 0.26348,2.068409 -0.40548,2.370486 -0.2486,4.853898 0.38176,6.042883 0.23994,0.452571 0.43701,1.028762 0.43794,1.280424 0.005,1.256827 0.34069,1.357546 1.0337,0.309811 0.94316,-1.42592 2.2923,-2.824521 2.72465,-2.824521 0.56473,0 0.43491,0.26623 -0.7641,1.567001 -1.66249,1.803597 -2.4912,3.800183 -2.3895,5.756979 l 0.0827,1.590306 0.90824,-1.571347 c 0.49954,-0.864241 1.03232,-1.648029 1.18397,-1.741752 0.56091,-0.346662 0.62473,0.220457 0.12018,1.067949 -1.62108,2.722953 -2.10548,3.803069 -2.02001,4.504273 0.0874,0.7174 0.13122,0.684529 0.81711,-0.613409 0.39859,-0.754286 1.00651,-1.669735 1.35093,-2.034332 0.90098,-0.953767 1.00736,-0.22413 0.14869,1.019836 -1.37158,1.987034 -2.10375,4.047937 -1.91843,5.39998 0.0933,0.680555 0.22548,1.237373 0.29377,1.237373 0.0683,0 0.76124,-0.557783 1.53987,-1.239517 1.6367,-1.43303 3.29341,-2.120701 6.60335,-2.740927 2.5837,-0.484142 4.03395,-0.459374 4.20835,0.07187 0.0804,0.244813 -0.29606,0.342857 -1.31635,0.342857 -2.15816,0 -6.30296,1.036262 -6.11403,1.528599 0.10427,0.271735 -0.10972,0.445359 -0.69258,0.561931 -1.13666,0.227332 -3.46441,2.708791 -3.85263,4.107028 -0.4735,1.705361 -0.43377,1.784532 0.79671,1.58777 0.67807,-0.108427 1.09715,-0.06849 1.09715,0.104556 0,0.322537 -0.64452,0.612973 -1.36028,0.612973 -0.7188,0 -1.0129,0.509401 -1.21574,2.105747 -0.16749,1.318147 -0.13721,1.426384 0.42202,1.508571 0.95124,0.139798 0.96317,0.774253 0.0146,0.774253 -0.86557,0 -1.14065,0.472997 -1.14825,1.974413 -0.007,1.482008 -1.36675,5.095037 -2.36737,6.292698 l -0.98019,1.173207 0.1949,4.158437 c 0.13131,2.801874 0.1013,4.216277 -0.092,4.335743 -0.15779,0.09752 -0.36137,0.0568 -0.45239,-0.09048 z m 1.50663,-12.564021 c 0.60558,-1.603579 0.99083,-3.643383 1.7994,-9.527297 0.3434,-2.498879 0.38334,-3.584318 0.16655,-4.525715 -0.32603,-1.415733 -1.0507,-7.460387 -1.33227,-11.112702 l -0.19031,-2.468571 -0.20814,1.645714 c -0.88627,7.007398 -1.57615,10.340895 -2.46879,11.929139 l -0.54297,0.966075 0.90183,1.918107 0.90184,1.918108 0.0918,5.417142 c 0.0505,2.979429 0.13537,5.417143 0.18864,5.417143 0.0533,0 0.36486,-0.709714 0.69244,-1.577143 z m -23.96001,12.351303 c -0.0761,-0.123149 0.1685,-0.715428 0.54357,-1.316176 0.37507,-0.600748 0.94419,-1.647698 1.26472,-2.326555 0.55871,-1.183336 0.58698,-1.203032 0.68479,-0.477142 0.15475,1.148441 -2.06374,4.814554 -2.49308,4.119873 z m 3.02198,-1.62458 c -0.0969,-0.09687 0.28766,-0.63993 0.85452,-1.206791 0.56687,-0.566861 1.32551,-1.660172 1.68588,-2.42958 0.64857,-1.38471 1.11002,-1.79144 1.11002,-0.978376 0,0.710327 -1.29931,3.030853 -2.20307,3.934617 -0.87104,0.871032 -1.13323,0.994243 -1.44735,0.68013 z m 12.84545,-4.201996 c -0.22243,-0.359899 1.76153,-3.30187 2.22666,-3.30187 0.53947,0 0.48894,0.133069 -0.73477,1.93505 -1.17095,1.724309 -1.2348,1.782806 -1.49189,1.36682 z m 30.74571,-1.42041 c -0.63633,-1.276938 -0.72594,-2.274456 -0.15269,-1.699644 0.24566,0.246325 1.62909,2.782893 1.62909,2.986984 0,0.06745 -0.1741,0.122629 -0.38689,0.122629 -0.21279,0 -0.70307,-0.634486 -1.08951,-1.409969 z m -46.97421,0.721049 c -0.36955,-0.96305 0.89256,-3.915153 3.24455,-7.589064 1.28496,-2.007159 3.20338,-4.064873 3.78971,-4.064873 0.53298,0 0.25641,0.456715 -1.17105,1.933803 -2.17984,2.255609 -5.13831,7.609483 -5.13831,9.298666 0,0.698646 -0.50571,0.992673 -0.7249,0.421468 z m 4.83919,-0.424678 c 0,-0.401391 1.90583,-2.863545 2.21652,-2.863545 0.47654,0 0.25821,0.551155 -0.73339,1.851429 -0.96054,1.259547 -1.48313,1.616174 -1.48313,1.012116 z m -6.39275,-0.747869 c -1.32035,-1.458972 -1.5944,-3.762735 -0.79189,-6.656848 0.49835,-1.797199 2.08975,-4.342519 2.72749,-4.362416 0.54976,-0.01715 0.40694,0.365598 -0.63589,1.704119 -2.08861,2.680821 -2.38143,7.445629 -0.55093,8.96481 0.23458,0.194678 0.35886,0.463402 0.27619,0.597166 -0.22777,0.368528 -0.53504,0.294529 -1.02497,-0.246831 z m 52.89014,-2.67021 c -0.65258,-1.431992 -0.88744,-2.239416 -0.70459,-2.422273 0.18286,-0.182857 0.60058,0.44171 1.25316,1.873702 0.65258,1.431991 0.88744,2.239416 0.70458,2.422273 -0.18285,0.182857 -0.60057,-0.44171 -1.25315,-1.873702 z m -9.95319,-0.03436 c -0.9725,-1.028409 -1.3729,-1.640695 -1.19152,-1.822074 0.18138,-0.18138 0.76233,0.259311 1.72882,1.311434 1.6159,1.759076 1.80307,2.059536 1.28295,2.059536 -0.19555,0 -1.01466,-0.697003 -1.82025,-1.548896 z m 2.29914,-0.371894 c -0.88682,-0.981606 -1.35134,-2.112644 -0.76945,-1.873496 0.40658,0.167102 2.24611,2.347079 2.24611,2.661816 0,0.572145 -0.47819,0.316861 -1.47666,-0.78832 z m -29.79192,0.179208 c 0,-0.680999 3.25645,-5.088796 3.77143,-5.104863 0.61036,-0.01904 0.37091,0.466437 -1.16938,2.370923 -0.83174,1.028394 -1.58569,2.147522 -1.67545,2.486951 -0.17504,0.661888 -0.9266,0.862219 -0.9266,0.246989 z m 18.55459,-1.069846 c -0.74654,-1.200486 -2.37173,-4.076797 -2.37173,-4.197553 0,-0.06735 0.1778,-0.122447 0.3951,-0.122447 0.35841,0 2.89633,4.111767 2.89633,4.692438 0,0.461609 -0.53603,0.244543 -0.9197,-0.372438 z m -1.75718,-0.476279 c -0.43777,-0.70099 -0.42843,-0.826579 0.0615,-0.826579 0.35105,0 0.96965,0.775924 0.96965,1.216254 0,0.377606 -0.7225,0.104574 -1.03117,-0.389675 z m 16.31996,-2.324733 c -0.86888,-0.953287 -2.1302,-2.147897 -2.80295,-2.65469 C 165.84733,71.8476 165.30907,71.04 165.83754,71.04 c 0.81609,0 5.86532,4.822972 5.86532,5.602494 0,0.704776 -0.32846,0.483631 -1.99121,-1.340649 z m -32.84308,-0.01631 c 0,-0.257593 2.78768,-3.696969 2.99647,-3.696969 0.6033,0 0.40037,0.50095 -0.84475,2.085332 -0.75841,0.965067 -1.55281,1.754668 -1.76533,1.754668 -0.21251,0 -0.38639,-0.06436 -0.38639,-0.143031 z m 38.04903,-0.976554 c -1.36113,-1.445379 -1.02282,-2.004744 0.38252,-0.632464 0.97249,0.949609 1.37539,1.76616 0.85988,1.742679 -0.11314,-0.0052 -0.67222,-0.50475 -1.2424,-1.110215 z m 1.00379,-1.377454 c -0.7153,-0.619086 -1.5868,-1.256041 -1.93668,-1.415456 -0.58593,-0.266969 -0.90542,-1.026487 -0.43043,-1.023243 0.68808,0.0047 4.18286,2.746518 4.18286,3.281644 0,0.524324 -0.50903,0.288011 -1.81575,-0.842945 z m -57.1451,-0.644503 c -0.49817,-0.600256 -1.10772,-2.838642 -1.10772,-4.067752 0,-1.279222 1.28013,-4.310706 1.82032,-4.310706 0.50013,0 0.48573,0.07197 -0.34065,1.70275 -0.59477,1.173729 -0.6964,1.68968 -0.606,3.076596 0.0597,0.916502 0.31961,2.086474 0.57748,2.599938 0.25787,0.513463 0.46885,1.038034 0.46885,1.165714 0,0.364049 -0.44819,0.272157 -0.81228,-0.16654 z m 1.36085,-0.47722 c 0,-0.558545 2.80688,-3.060061 4.38239,-3.905615 1.68219,-0.902815 4.30929,-1.612958 4.54658,-1.22901 0.167,0.270208 -0.49277,0.578669 -2.23002,1.042605 -1.44776,0.386624 -4.12608,2.126476 -5.25057,3.410794 -0.89256,1.019429 -1.44838,1.280849 -1.44838,0.681226 z m 14.42464,-0.181368 c -0.38791,-0.627654 3.13655,-2.640294 5.21392,-2.977405 1.56343,-0.253709 1.05676,0.449286 -0.72433,1.004997 -1.7928,0.559363 -3.05407,1.192742 -3.53922,1.77731 -0.39737,0.478806 -0.73251,0.547605 -0.95037,0.195098 z m 24.3967,-0.851781 c -0.2676,-0.295694 -1.15073,-0.995067 -1.96251,-1.554163 -1.48318,-1.021499 -1.8147,-1.473926 -1.08005,-1.473926 0.57573,0 3.83971,2.573991 3.94419,3.110407 0.11955,0.613769 -0.30692,0.574833 -0.90163,-0.08232 z m 7.52686,-0.504011 c -1.71447,-1.52146 -1.28561,-2.022534 0.49284,-0.575829 0.78829,0.641242 1.43325,1.267499 1.43325,1.39168 0,0.511584 -0.82316,0.162912 -1.92609,-0.815851 z m 7.54894,-4.442275 c -0.60342,-0.282006 -1.31314,-0.579047 -1.57714,-0.660091 -0.65344,-0.200596 -0.60852,-0.713141 0.0625,-0.713141 0.64921,0 3.57179,1.393343 3.57179,1.702853 0,0.358099 -0.89111,0.215315 -2.05715,-0.329621 z m -13.91877,-2.173725 c -2.06203,-1.122669 -2.57139,-1.530533 -2.19892,-1.760736 0.13756,-0.08501 1.10489,0.282679 2.14962,0.817098 2.07609,1.062001 2.58522,1.412101 2.58522,1.777716 0,0.412753 -0.62098,0.208509 -2.53592,-0.834078 z m 8.43306,0.336761 c -1.31071,-0.329929 -1.03548,-0.660268 0.48315,-0.579899 0.86917,0.046 1.60974,0.20706 1.64572,0.357917 0.0719,0.301339 -1.26134,0.440355 -2.12887,0.221982 z m -50.09738,-1.186121 c -1.98111,-1.0467 -2.79707,-4.51728 -1.6094,-6.845321 0.59448,-1.165273 0.97856,-1.524942 1.2168,-1.139459 0.0845,0.13673 -0.16897,0.825824 -0.56328,1.53132 -0.54467,0.974523 -0.68341,1.532599 -0.57743,2.322718 0.2239,1.66932 1.01306,3.040931 2.02809,3.524965 0.50429,0.240478 0.91689,0.599515 0.91689,0.79786 0,0.471499 -0.2097,0.442965 -1.41167,-0.192083 z m 52.70309,-0.02422 c -0.82971,-0.292348 -2.03314,-0.657178 -2.67428,-0.810734 -1.23621,-0.296077 -1.58479,-0.807659 -0.54857,-0.80509 1.54456,0.0038 5.14285,1.26604 5.14285,1.804013 0,0.476303 -0.0472,0.471673 -1.92,-0.188189 z m -46.83333,-0.657976 c -2.02664,-0.494866 -2.39703,-0.662235 -2.10396,-0.950728 0.14987,-0.147529 0.97238,-0.09234 2.03444,0.136499 2.10627,0.453837 2.55159,0.485376 2.35468,0.166761 -0.0804,-0.130163 -0.71124,-0.394844 -1.40176,-0.588178 -0.91963,-0.257479 -1.21376,-0.460289 -1.09948,-0.758105 0.0858,-0.223622 0.0245,-0.565096 -0.13631,-0.75883 -0.49441,-0.595721 0.12907,-0.685408 1.77837,-0.25582 1.7951,0.467565 2.61878,0.856263 2.61878,1.235816 0,0.349692 -0.20472,0.330844 -1.50857,-0.138884 -0.60343,-0.217392 -1.344,-0.390933 -1.64571,-0.385644 -0.31138,0.0055 -0.0742,0.180952 0.54857,0.405885 0.60343,0.217948 1.40571,0.641747 1.78286,0.941776 0.6709,0.533724 0.67421,0.554317 0.15329,0.953504 -0.62429,0.478394 -1.40327,0.477459 -3.3752,-0.0041 z m 51.05473,-3.43508 c -0.73777,-0.615238 -1.68565,-1.190286 -2.1064,-1.277885 -0.91995,-0.191531 -0.82327,-0.804909 0.1095,-0.694645 0.8711,0.102975 2.58716,1.258876 3.15457,2.124846 0.72795,1.110996 0.28781,1.053086 -1.15767,-0.152316 z m -40.83854,-0.467741 c -0.45257,-0.249099 -1.54053,-0.715877 -2.4177,-1.037284 -1.63267,-0.598239 -2.06925,-1.135764 -0.84467,-1.039981 0.84297,0.06593 4.38285,1.673081 4.80471,2.181398 0.44461,0.535722 -0.4951,0.472277 -1.54234,-0.104133 z m 17.82826,-0.07421 c -0.0934,-0.151139 0.1153,-0.382914 0.46381,-0.515054 2.91567,-1.105513 4.61079,-1.422084 4.61079,-0.861086 0,0.147983 -0.33943,0.341527 -0.75429,0.430098 -0.41485,0.08857 -1.41327,0.399494 -2.21869,0.69094 -1.6813,0.608386 -1.86919,0.631192 -2.10162,0.255102 z M 125.62397,56.62155 c -1.51482,-0.939421 -2.00641,-1.491095 -1.32683,-1.488987 0.52308,0.0016 3.31822,1.724941 3.45284,2.12882 0.18783,0.563467 -0.53785,0.345073 -2.12601,-0.639833 z m 34.1018,0.567021 c 0.12849,-0.385712 3.26576,-0.351107 3.39528,0.03745 0.0713,0.214036 -0.45874,0.299999 -1.69137,0.274286 -1.05923,-0.0221 -1.75783,-0.149906 -1.70391,-0.311736 z m 8.3428,-1.573166 c -1.01829,-0.150612 -1.85143,-0.382835 -1.85143,-0.516052 0,-0.526846 4.71586,-0.0885 4.77138,0.443504 0.0392,0.375841 -0.73871,0.395169 -2.91995,0.07255 z M 132.3643,54.612506 c -1.2817,-0.198732 -1.6867,-0.854363 -0.5243,-0.848761 1.19583,0.0058 2.01143,0.295259 2.01143,0.713959 0,0.208691 -0.0926,0.361923 -0.20572,0.340516 -0.11314,-0.02141 -0.68978,-0.113979 -1.28141,-0.205714 z m 37.34998,-1.119338 c -0.8117,-0.950867 -0.59366,-1.136188 1.23429,-1.049114 1.19201,0.05678 1.6934,0.186115 1.64571,0.424517 -0.0377,0.188572 0.18858,0.342857 0.50286,0.342857 0.33466,0 0.52453,0.142062 0.45823,0.342857 -0.0694,0.210043 -0.74227,0.373523 -1.73714,0.422019 -1.35756,0.06618 -1.70268,-0.01308 -2.10395,-0.483136 z m -33.80571,-0.28174 c -0.45257,-0.11516 -1.48114,-0.223985 -2.28571,-0.241833 -1.04116,-0.0231 -1.42828,-0.131289 -1.3429,-0.37531 0.0833,-0.238159 0.71593,-0.326236 2.0716,-0.288428 1.97752,0.05515 3.21352,0.444303 2.91993,0.919333 -0.17706,0.286488 -0.1832,0.286426 -1.36292,-0.01376 z m 30.30857,-0.804862 c 0,-0.376269 1.35455,-0.968858 2.81143,-1.229949 1.58931,-0.284823 1.34831,0.491901 -0.27429,0.884003 -0.71657,0.173161 -1.58057,0.393898 -1.92,0.490527 -0.38795,0.110445 -0.61714,0.05675 -0.61714,-0.144581 z m 8.52527,-0.394338 c -1.04512,-0.183663 -1.81244,-0.465894 -1.8884,-0.694578 -0.10321,-0.310711 0.12568,-0.350442 1.18358,-0.205441 2.24179,0.307272 3.57177,0.741233 3.12953,1.021137 -0.21449,0.135754 -0.45169,0.233646 -0.52712,0.217539 -0.0754,-0.01611 -0.92935,-0.168503 -1.89759,-0.338657 z m -6.0567,-1.608038 c 0,-0.223647 0.46357,-0.536247 1.0604,-0.71506 1.28023,-0.383568 3.87675,-0.420971 3.87675,-0.05584 0,0.25574 -0.65475,0.405111 -2.88,0.657028 -0.60343,0.06831 -1.31315,0.211287 -1.57715,0.31772 -0.3253,0.13115 -0.48,0.06546 -0.48,-0.203843 z m -14.47649,-0.552762 c 0.16198,-0.52211 1.86347,-1.27004 3.09364,-1.359877 1.64017,-0.119779 1.40108,0.418333 -0.36397,0.819198 -0.84941,0.192913 -1.66427,0.470627 -1.81078,0.617143 -0.38334,0.38334 -1.04447,0.328325 -0.91889,-0.07646 z m 12.00792,-0.470456 c 0,-0.145608 0.38307,-0.701036 0.85127,-1.234285 l 0.85127,-0.969544 h -0.80746 c -0.4441,0 -1.57504,0.383563 -2.51319,0.852364 -0.93815,0.4688 -1.77251,0.785583 -1.85413,0.703962 -0.61914,-0.619136 2.59637,-2.177064 4.56938,-2.213886 1.28022,-0.02389 1.50276,0.04478 1.47018,0.453662 -0.0799,1.003068 -2.56732,3.335826 -2.56732,2.407727 z m 1.64572,-0.02354 c 0,-0.32518 1.51957,-1.016776 2.79417,-1.271696 1.44102,-0.288204 0.77554,0.496872 -0.88933,1.049137 -1.76236,0.584607 -1.90484,0.601255 -1.90484,0.222559 z m -51.7909,-2.724825 c -0.63044,-0.456683 -1.14625,-1.014703 -1.14625,-1.240042 0,-0.57692 0.15687,-0.525331 1.45609,0.47888 0.63229,0.488723 1.20311,0.92278 1.26848,0.964571 0.0654,0.04179 -0.005,0.199946 -0.15661,0.351455 -0.18444,0.184437 -0.65426,0.0011 -1.42171,-0.554864 z m 13.12219,-1.090252 c -0.57526,-1.12759 -0.71417,-1.930927 -0.3339,-1.930927 0.12113,0 0.48527,0.524572 0.80919,1.165715 0.56253,1.113419 0.58187,1.125724 0.43118,0.274285 -0.21624,-1.221811 0.37149,-1.168766 0.89353,0.08064 0.45604,1.09145 0.29064,1.70992 -0.32143,1.201946 -0.27824,-0.230919 -0.38701,-0.234662 -0.38701,-0.01332 0,0.658711 -0.56337,0.256993 -1.09156,-0.778346 z M 127.45942,44.64 c -0.67943,-1.157712 -3.28881,-3.795404 -5.12799,-5.183632 -0.528,-0.398539 -0.86724,-0.820017 -0.75387,-0.936619 0.77887,-0.801084 7.06244,5.363075 7.06244,6.928236 0,0.690719 -0.50309,0.346403 -1.18058,-0.807985 z m 26.84484,0.921431 c -0.15771,-0.255177 0.98752,-1.127146 1.48037,-1.127146 0.48445,0 0.31305,0.497074 -0.32566,0.944447 -0.69798,0.488886 -0.94165,0.527439 -1.15471,0.182699 z m 6.42717,-0.252707 c 0,-0.122487 0.36825,-0.494961 0.81833,-0.82772 0.78565,-0.58086 1.81837,-2.164301 1.57214,-2.41053 -0.0652,-0.0652 -0.68011,0.12217 -1.36648,0.416379 -1.16166,0.497947 -1.57256,0.500791 -1.57256,0.01089 0,-0.109672 0.83314,-0.532389 1.85142,-0.939372 1.01829,-0.406982 1.99473,-0.858101 2.16987,-1.002486 0.20343,-0.167704 0.37855,-0.165255 0.48487,0.0068 0.25881,0.418764 -1.72122,3.804301 -2.58442,4.418959 -0.8047,0.572992 -1.37317,0.70841 -1.37317,0.327106 z m -7.68,-0.334677 c 0,-0.566382 0.80244,-2.185476 1.08314,-2.185476 0.39055,0 0.36262,0.388291 -0.10915,1.517381 -0.37163,0.889436 -0.97399,1.302618 -0.97399,0.668095 z M 166.00476,44.64 c 0.15559,-0.495707 3.04673,-2.381013 3.78087,-2.465504 0.34236,-0.0394 0.67722,0.08265 0.74413,0.271218 0.0669,0.188571 -0.0507,0.342857 -0.26136,0.342857 -0.21067,0 -1.20163,0.493714 -2.20212,1.097143 -1.96372,1.184374 -2.22672,1.280603 -2.06152,0.754286 z m -51.57505,-1.049143 c 0.0541,-0.162172 0.18777,-0.2856 0.29715,-0.274286 0.10937,0.01131 0.384,0.02057 0.61028,0.02057 0.22629,0 0.41143,0.123428 0.41143,0.274285 0,0.150857 -0.31886,0.274286 -0.70857,0.274286 -0.38972,0 -0.66434,-0.132686 -0.61029,-0.294857 z m 44.27135,-1.856107 c -0.24683,-0.399374 2.29985,-3.298036 2.9218,-3.325625 0.52803,-0.02342 0.0813,0.7148 -1.27005,2.0989 -0.83579,0.856023 -1.55208,1.387999 -1.65175,1.226725 z M 120.96,40.436103 c -0.98057,-0.672861 -2.184,-1.369326 -2.67429,-1.547701 -0.49028,-0.178375 -0.89143,-0.40238 -0.89143,-0.497789 0,-0.811218 1.4836,-0.285237 4.04572,1.434329 1.87049,1.255379 2.43234,1.887159 1.64571,1.850515 -0.18857,-0.0088 -1.14514,-0.566493 -2.12571,-1.239354 z m 8.90853,0.599326 c -0.6372,-0.97249 -1.30279,-4.042311 -0.95241,-4.392689 0.25429,-0.254291 0.82102,0.869745 0.82102,1.628387 0,0.211193 0.19276,0.951742 0.42835,1.645664 0.53465,1.57476 0.38104,2.153393 -0.29696,1.118638 z m 28.28923,-0.937856 c -0.20248,-0.327623 1.06841,-2.862864 1.73963,-3.470311 1.00809,-0.912313 1.10322,-0.145325 0.1387,1.118271 -0.52271,0.684781 -0.95038,1.405632 -0.95038,1.601891 0,0.476299 -0.73165,1.067763 -0.92795,0.750149 z m -1.26633,-0.776102 c 0,-0.717142 1.11668,-2.757562 1.94179,-3.548065 1.15305,-1.104694 1.55102,-0.544104 0.4693,0.661068 -0.49638,0.553039 -1.13727,1.530097 -1.42418,2.17124 -0.5333,1.19174 -0.98691,1.52072 -0.98691,0.715757 z m -1.92,-0.575467 c 0,-0.894291 0.86918,-3.123856 1.27915,-3.281175 0.64368,-0.247005 0.70843,0.08924 0.20376,1.058253 -0.26265,0.504305 -0.55264,1.277975 -0.64442,1.719268 -0.18951,0.911141 -0.83849,1.300965 -0.83849,0.503654 z m 11.52,0.260651 c 0,-0.297214 2.36674,-2.25237 2.72652,-2.25237 0.5863,0 0.26163,0.535601 -0.90334,1.490209 -1.14545,0.93861 -1.82318,1.221927 -1.82318,0.762161 z m -28.87672,-1.60215 c -0.98212,-1.491339 -1.26303,-2.295934 -0.80158,-2.295934 0.23759,0 2.2085,2.984532 2.25961,3.421714 0.0874,0.747572 -0.54681,0.257891 -1.45803,-1.12578 z M 139.68,36.916208 c -0.64114,-0.80181 -1.16572,-1.536542 -1.16572,-1.632737 0,-0.853771 2.71114,1.762998 2.73161,2.636529 0.018,0.768744 -0.32369,0.549695 -1.56589,-1.003792 z m 2.41924,0.592363 c -0.16367,-0.490286 -0.72673,-1.430921 -1.25125,-2.090302 -0.9967,-1.252968 -1.04469,-2.080551 -0.0707,-1.218994 0.87919,0.777694 2.12555,2.870276 2.12555,3.56871 0,0.921009 -0.45902,0.772833 -0.80362,-0.259414 z m 16.98647,-3.825695 c 0,-0.383446 0.6738,-1.258518 1.85143,-2.404493 1.01829,-0.990911 2.11908,-2.169694 2.44622,-2.619518 0.32713,-0.449824 0.67783,-0.734818 0.77933,-0.633319 0.40752,0.407519 -0.29283,1.477366 -2.18699,3.340813 -1.09541,1.077645 -2.06647,2.175355 -2.15793,2.439355 -0.23542,0.67962 -0.73206,0.596286 -0.73206,-0.122838 z m 7.13143,-0.0965 c 0,-0.849352 0.56981,-2.003779 1.32748,-2.68946 0.98759,-0.89376 1.22567,-0.358773 0.33762,0.758687 -0.49715,0.625579 -0.84224,1.381524 -0.84224,1.844966 0,0.515047 -0.14154,0.785142 -0.41143,0.785142 -0.25814,0 -0.41143,-0.260561 -0.41143,-0.699335 z M 123.33077,32.98554 c -1.18474,-0.986365 -1.60318,-1.716969 -0.98338,-1.716969 0.15964,0 0.85779,0.536223 1.55144,1.191606 1.59821,1.510036 1.13224,1.940974 -0.56806,0.525363 z m 12.79306,0.141777 c -4.52901,-3.857127 -6.54091,-5.973031 -5.67945,-5.973031 0.0873,0 1.22898,0.977048 2.53714,2.171219 1.30816,1.194171 2.89668,2.582743 3.53004,3.085715 1.08451,0.861255 1.50711,1.600208 0.91513,1.600208 -0.14561,0 -0.7319,-0.39785 -1.30286,-0.884111 z m 19.305,-0.14446 c -0.15717,-0.261731 1.41638,-5.605136 1.75144,-5.947429 0.63846,-0.652251 0.54226,0.352706 -0.29973,3.131274 -0.84878,2.800949 -1.13149,3.34937 -1.45171,2.816155 z M 126.44571,30.85093 c -0.37714,-0.219012 -1.33371,-0.593682 -2.12571,-0.832601 -1.43554,-0.433053 -1.92362,-0.944043 -0.90172,-0.944043 0.79999,0 3.46156,1.051471 4.1819,1.652088 0.59641,0.497278 0.60047,0.523916 0.0798,0.523353 -0.30172,-3.27e-4 -0.85714,-0.179786 -1.23429,-0.398797 z m 13.37733,-0.06236 C 139.41167,30.32064 138.24,28.146378 138.24,27.850927 c 0,-0.08144 0.1664,-0.14807 0.36977,-0.14807 0.20338,0 0.59076,0.490056 0.86085,1.089013 0.27009,0.598958 0.72084,1.296945 1.00166,1.551083 0.28082,0.254138 0.51058,0.566367 0.51058,0.693843 0,0.404542 -0.72175,0.250073 -1.15982,-0.248225 z M 125.60108,190.51766 c 0.18407,-0.22179 0.24278,-0.69159 0.1384,-1.1075 -0.16926,-0.67437 -0.22144,-0.696 -0.78622,-0.32595 -0.3327,0.218 -0.90444,0.43866 -1.27052,0.49036 l -0.6656,0.094 0.61714,0.61714 c 0.70266,0.70266 1.49828,0.79649 1.9668,0.23195 z M 114.24556,178.08 c -0.10465,-0.264 -0.4398,-1.65257 -0.74478,-3.08572 -0.30661,-1.44078 -0.87766,-3.15752 -1.27734,-3.84 l -0.72282,-1.23428 -0.17407,1.92 c -0.35707,3.93862 0.59103,6.72 2.29067,6.72 0.66926,0 0.7839,-0.0876 0.62834,-0.48 z m -3.40734,-26.87138 c -0.24951,-0.42868 -0.28542,-0.4017 -0.29274,0.21995 -0.005,0.38971 0.0842,0.80193 0.19738,0.91604 0.32951,0.33231 0.40772,-0.59934 0.0954,-1.13599 z m 8.96597,-38.00332 c 0.53877,-0.57349 0.5567,-0.70713 0.2245,-1.67344 l -0.36103,-1.05017 -0.30889,1.2267 c -0.16989,0.67468 -0.38603,1.42773 -0.48032,1.67344 -0.24678,0.6431 0.24359,0.54959 0.92574,-0.17653 z m 2.60178,-6.57967 c -0.0608,-0.11476 -0.37677,-0.0222 -0.70215,0.20571 -0.32538,0.22791 -0.93442,0.41437 -1.35342,0.41437 -0.68055,0 -0.76183,0.0975 -0.76183,0.91429 0,0.50286 0.0607,0.97494 0.13479,1.04907 0.19298,0.19299 2.81552,-2.3326 2.68261,-2.58344 z m 54.35678,-22.433645 0.18944,-2.043414 -0.59833,1.170035 c -0.32907,0.643519 -0.9001,1.407413 -1.26894,1.697541 -0.65753,0.517213 -0.66161,0.545228 -0.2092,1.435679 0.83972,1.652771 1.0183,1.745655 1.37505,0.715194 0.1774,-0.512391 0.40779,-1.851157 0.51198,-2.975035 z"
       id="path1" />
  </g>
</svg>
