<?xml version="1.0" encoding="UTF-8" standalone="no"?>
<!-- Created with Inkscape (http://www.inkscape.org/) -->

<svg
   version="1.1"
   id="svg1"
   width="294.58286"
   height="294.58286"
   viewBox="0 0 294.58286 294.58286"
   sodipodi:docname="terlingua-body.svg"
   inkscape:version="1.4 (86a8ad7, 2024-10-11)"
   xmlns:inkscape="http://www.inkscape.org/namespaces/inkscape"
   xmlns:sodipodi="http://sodipodi.sourceforge.net/DTD/sodipodi-0.dtd"
   xmlns="http://www.w3.org/2000/svg"
   xmlns:svg="http://www.w3.org/2000/svg">
  <defs
     id="defs1" />
  <sodipodi:namedview
     id="namedview1"
     pagecolor="#ffffff"
     bordercolor="#000000"
     borderopacity="0.25"
     inkscape:showpageshadow="2"
     inkscape:pageopacity="0.0"
     inkscape:pagecheckerboard="0"
     inkscape:deskcolor="#d1d1d1"
     inkscape:zoom="2.766624"
     inkscape:cx="147.47215"
     inkscape:cy="147.29143"
     inkscape:window-width="1920"
     inkscape:window-height="1017"
     inkscape:window-x="-8"
     inkscape:window-y="-8"
     inkscape:window-maximized="1"
     inkscape:current-layer="g1" />
  <g
     inkscape:groupmode="layer"
     inkscape:label="Image"
     id="g1">
    <path
       style="fill:#000000"
       d="m 155.14621,279.7987 c -0.98367,-0.64852 -1.65055,-2.11575 -2.07607,-4.56766 -0.52738,-3.03884 -3.6897,-12.9822 -4.54289,-14.28434 -0.78475,-1.19768 -2.53387,-7.03741 -2.70824,-9.04191 -0.0931,-1.07064 -0.42085,-2.73396 -0.72827,-3.69625 -0.30741,-0.96229 -0.75538,-2.80173 -0.99549,-4.08765 -0.2401,-1.28592 -0.61476,-3.07861 -0.83258,-3.98375 -0.21782,-0.90514 -0.55873,-2.81828 -0.75757,-4.25143 -0.19885,-1.43314 -0.48265,-2.91428 -0.63066,-3.29143 -0.30102,-0.76701 -1.23253,-5.16523 -1.71101,-8.0787 -0.4549,-2.76992 -1.5326,-7.08118 -1.99932,-7.99816 -0.22163,-0.43544 -0.54867,-1.64196 -0.72676,-2.68117 -0.17809,-1.0392 -0.86262,-3.75463 -1.52118,-6.03428 -0.65856,-2.27966 -1.40357,-4.94711 -1.65558,-5.92769 -0.25201,-0.98057 -0.58571,-1.93714 -0.74155,-2.12571 -0.35493,-0.42947 -1.37546,-0.44529 -1.79296,-0.0278 -0.43044,0.43044 -1.66314,-0.38459 -1.83001,-1.20996 -0.0682,-0.33752 -0.19576,-1.90967 -0.28336,-3.49367 -0.1816,-3.28323 -0.43074,-3.67381 -2.55035,-3.99823 -1.4598,-0.22343 -2.39076,0.32022 -2.6344,1.53841 -0.0956,0.47781 -0.48294,1.23621 -0.86085,1.68533 -0.37791,0.44912 -0.68711,1.11373 -0.68711,1.47692 0,0.36319 -0.34128,1.0423 -0.7584,1.50914 l -0.75839,0.84879 -0.73059,-0.57468 c -0.40182,-0.31607 -1.00354,-1.03551 -1.33716,-1.59875 -0.33362,-0.56324 -0.89039,-1.45607 -1.23726,-1.98407 -1.12588,-1.71379 -2.23499,-5.65089 -2.5885,-9.18857 -0.53303,-5.33432 -0.5679,-5.46399 -1.51193,-5.62286 -1.06548,-0.17931 -1.54393,-0.50084 -2.30696,-1.55034 -0.56773,-0.78087 -0.6516,-1.31223 -0.86588,-5.48571 -0.18519,-3.60714 -0.35531,-4.89192 -0.77529,-5.85538 -0.29593,-0.67886 -0.61436,-1.8201 -0.70764,-2.53609 -0.14721,-1.13005 -0.26691,-1.32341 -0.90722,-1.4655 -1.46583,-0.32527 -1.64035,-0.41258 -1.76313,-0.88208 -0.11504,-0.43991 2.1824,-4.3929 3.2185,-5.53777 0.64526,-0.71301 0.79878,-2.23733 0.39166,-3.88878 -0.19813,-0.80366 -0.36701,-2.27229 -0.37531,-3.26362 -0.0112,-1.33618 -0.13923,-1.92658 -0.49507,-2.28245 -0.264,-0.26402 -0.48,-0.64754 -0.48,-0.85228 0,-0.54526 0.78031,-1.23429 1.39781,-1.23429 0.99617,0 1.69014,-2.86102 0.96311,-3.97062 -0.48232,-0.73611 -0.42736,-1.33797 0.30716,-3.36407 0.35563,-0.98098 0.36752,-1.35687 0.0758,-2.39866 -0.32459,-1.15931 -0.2919,-1.37482 0.53077,-3.49959 1.00143,-2.58642 1.69027,-3.9603 2.82376,-5.63193 0.43763,-0.6454 0.86625,-1.63283 0.95249,-2.19429 0.0862,-0.56146 0.2555,-1.2146 0.37614,-1.45143 0.12064,-0.23683 0.36015,-1.53283 0.53226,-2.88 0.20997,-1.64352 0.58734,-3.03599 1.14699,-4.23226 0.88494,-1.89159 1.03829,-2.92307 1.20302,-8.09143 0.0529,-1.65943 0.22055,-3.51086 0.37258,-4.11429 0.44428,-1.76343 0.35522,-2.830342 -0.28068,-3.362681 -1.01225,-0.847394 -1.27101,-1.784335 -1.45747,-5.277315 -0.16629,-3.115038 -0.4187,-4.561251 -1.9388,-11.108572 -0.21015,-0.905143 -0.52525,-3.312 -0.70021,-5.348571 -0.17497,-2.036571 -0.50058,-4.752 -0.72357,-6.034286 -0.50353,-2.895393 -0.50406,-2.757497 0.0193,-5.074183 0.7107,-3.145727 0.52822,-4.179278 -1.21574,-6.885894 -0.63408,-0.984075 -1.20625,-3.709287 -0.94898,-4.519873 0.0965,-0.304222 0.58845,-0.966025 1.0931,-1.470674 1.22368,-1.223686 1.73694,-2.907104 1.24563,-4.085496 -0.56149,-1.346686 -1.43338,-5.71477 -1.27036,-6.364316 0.0804,-0.320551 0.52733,-1.062305 0.99305,-1.648342 0.67782,-0.852926 0.82955,-1.277354 0.76048,-2.127227 -0.0808,-0.994352 -0.0131,-1.102951 1.06718,-1.711833 0.6344,-0.35757 1.55283,-0.753614 2.04095,-0.880098 1.14489,-0.296671 1.37551,-1.083026 1.27345,-4.342119 -0.0742,-2.369002 -0.0383,-2.550361 0.72289,-3.648686 1.27755,-1.843505 2.65735,-2.757618 5.23143,-3.46582 1.27577,-0.350998 2.42476,-0.703185 2.55332,-0.782639 0.33038,-0.204188 3.88514,-0.776607 4.7558,-0.765823 0.39908,0.0049 1.35155,0.326181 2.1166,0.713863 1.91256,0.969166 2.35641,0.904884 3.66269,-0.530453 0.69005,-0.758232 1.50483,-1.338235 2.10968,-1.501782 0.54199,-0.146549 1.84944,-0.82609 2.90544,-1.510092 1.056,-0.684002 2.352,-1.361614 2.88,-1.505805 1.50257,-0.410334 4.06116,0.07174 5.61676,1.058266 0.73548,0.466429 1.7783,0.928785 2.31738,1.027457 0.53908,0.09867 1.22361,0.347033 1.52118,0.551915 0.82743,0.569709 1.90553,0.445772 2.72447,-0.313203 1.32101,-1.224263 2.07372,-0.748509 3.03773,1.92 0.61213,1.694478 1.15115,2.189047 3.03191,2.781905 1.36256,0.429508 1.56065,0.431432 2.59482,0.0252 1.26638,-0.497447 2.10201,-0.322886 3.931,0.821173 1.20214,0.751954 1.68805,1.733229 2.08798,4.216536 0.26748,1.660914 0.24054,1.836482 -0.53652,3.497028 -1.01516,2.169338 -1.02258,2.8004 -0.0464,3.940043 0.42448,0.495535 1.04981,1.301821 1.38964,1.791746 0.33983,0.489925 0.92943,0.96897 1.31022,1.064543 0.96508,0.242218 2.60933,-0.30625 3.38118,-1.127846 1.14333,-1.21702 2.4976,-0.77574 3.31915,1.081528 0.50975,1.152366 0.50988,1.217645 0.006,3.199399 -0.28263,1.112667 -0.59861,2.57846 -0.70219,3.257317 -0.24327,1.594506 -0.90373,3.688946 -1.60012,5.074261 -0.58702,1.167753 -0.56951,1.370577 0.63279,7.327816 0.11314,0.560572 0.0885,1.568638 -0.0547,2.240149 -0.19675,0.922533 -0.15655,1.570623 0.16451,2.651758 0.40485,1.363272 0.39272,1.57062 -0.25691,4.391467 -0.37501,1.62835 -0.68183,3.300868 -0.68183,3.716708 0,0.660708 0.58134,2.222407 1.39108,3.736976 0.39388,0.736726 0.3085,1.16836 -0.37756,1.908627 -0.38095,0.411053 -1.08165,0.754024 -1.76313,0.862997 l -1.13094,0.180843 -0.18158,1.577056 c -0.16796,1.458734 -0.97247,6.239517 -1.37369,8.163041 -0.0973,0.466626 -0.002,1.320346 0.2192,1.96227 0.46156,1.339693 0.14837,2.403482 -0.96557,3.279711 -0.37459,0.294649 -0.77091,0.818787 -0.88071,1.164751 -0.28701,0.904266 0.34933,8.009139 0.9501,10.608139 0.28054,1.21361 0.65341,3.55875 0.82862,5.21142 0.43027,4.05858 1.24579,7.12335 2.06747,7.76969 0.35236,0.27716 0.85294,1.03451 1.11242,1.68301 0.46817,1.17007 0.46687,1.18305 -0.17053,1.69918 -1.01507,0.82196 -1.09926,3.09045 -0.17993,4.84864 0.3899,0.74565 0.8521,1.95296 1.02713,2.6829 0.17503,0.72994 0.68536,1.79781 1.13407,2.37306 1.73099,2.21916 2.53008,6.39231 1.51938,7.93483 -0.25867,0.39479 -0.54937,1.25105 -0.646,1.90282 -0.0966,0.65176 -0.46976,1.70072 -0.82918,2.33101 -0.81816,1.43472 -0.8212,2.03679 -0.0152,3.01582 1.11054,1.34903 1.81796,3.20111 2.13541,5.59069 0.16923,1.27384 0.40434,2.50122 0.52246,2.7275 0.25047,0.4798 -0.53429,3.85191 -1.19193,5.12174 -0.24791,0.47867 -0.52775,1.77467 -0.62188,2.88 -0.15211,1.78622 -0.2618,2.0872 -0.98643,2.70675 l -0.81529,0.69706 0.2903,2.0458 c 0.15966,1.12519 0.53635,2.53951 0.83709,3.14294 0.60401,1.21195 1.7757,5.15943 2.02687,6.82865 0.0884,0.58776 0.0869,1.60753 -0.003,2.26616 -0.16099,1.17457 -0.19232,1.20571 -1.63498,1.6251 -0.80895,0.23517 -1.47468,0.44968 -1.47939,0.47669 -0.005,0.027 -0.17982,1.48879 -0.38916,3.24839 -0.41213,3.46436 -0.6372,4.11045 -1.66696,4.78517 -1.04396,0.68403 -1.39803,0.34481 -1.59365,-1.52679 -0.22287,-2.13229 -0.49429,-2.62328 -1.82563,-3.30248 -1.69856,-0.86654 -2.76639,-0.67529 -3.05795,0.54768 -0.19108,0.80148 -2.48342,4.91519 -3.12431,5.60673 -0.37589,0.40559 -0.95095,0.70184 -1.36235,0.70184 -0.39232,0 -0.98308,0.28881 -1.31596,0.64334 -0.42893,0.45684 -1.03528,0.69327 -2.09161,0.81557 -0.81816,0.0947 -1.61025,0.29491 -1.7602,0.44486 -0.31314,0.31313 0.0141,2.82059 0.89713,6.87337 1.34335,6.1658 1.71041,9.51343 1.33376,12.16404 -0.16083,1.13181 -0.1962,3.23805 -0.0836,4.97882 0.23061,3.56527 0.22447,3.91635 -0.12469,7.13143 -0.39153,3.60526 -0.92797,6.09172 -1.71611,7.95428 -0.43036,1.01704 -0.87972,2.95546 -1.1763,5.07429 -0.76188,5.44294 -0.87925,6.06993 -1.4827,7.92019 -0.81657,2.50374 -1.26649,6.2328 -0.9508,7.88038 0.14146,0.73826 0.17047,1.89772 0.0645,2.57657 -0.2793,1.7888 -0.2635,5.70157 0.0377,9.32572 0.42401,5.10241 -0.40108,10.72934 -1.70745,11.64435 -0.79085,0.55394 -1.27322,0.53293 -2.22881,-0.0971 z"
       id="path1" />
  </g>
</svg>
