<?xml version="1.0" encoding="UTF-8" standalone="no"?>
<!-- Created with Inkscape (http://www.inkscape.org/) -->

<svg
   version="1.1"
   id="svg1"
   width="294.58286"
   height="294.58286"
   viewBox="0 0 294.58286 294.58286"
   sodipodi:docname="two-hole-pony-body.svg"
   inkscape:version="1.4 (86a8ad7, 2024-10-11)"
   xmlns:inkscape="http://www.inkscape.org/namespaces/inkscape"
   xmlns:sodipodi="http://sodipodi.sourceforge.net/DTD/sodipodi-0.dtd"
   xmlns="http://www.w3.org/2000/svg"
   xmlns:svg="http://www.w3.org/2000/svg">
  <defs
     id="defs1" />
  <sodipodi:namedview
     id="namedview1"
     pagecolor="#ffffff"
     bordercolor="#000000"
     borderopacity="0.25"
     inkscape:showpageshadow="2"
     inkscape:pageopacity="0.0"
     inkscape:pagecheckerboard="0"
     inkscape:deskcolor="#d1d1d1"
     inkscape:zoom="2.766624"
     inkscape:cx="147.47215"
     inkscape:cy="147.29143"
     inkscape:window-width="1920"
     inkscape:window-height="1017"
     inkscape:window-x="-8"
     inkscape:window-y="-8"
     inkscape:window-maximized="1"
     inkscape:current-layer="g1" />
  <g
     inkscape:groupmode="layer"
     inkscape:label="Image"
     id="g1">
    <path
       style="fill:#000000"
       d="m 152.09143,271.95058 c -1.20686,-0.20875 -2.93486,-0.625 -3.84,-0.92499 -3.91622,-1.29796 -6.17355,-2.16446 -6.90069,-2.64889 -0.42862,-0.28556 -1.64467,-0.89859 -2.70232,-1.36229 -1.05766,-0.4637 -2.60336,-1.3457 -3.4349,-1.96 -0.83155,-0.6143 -2.02525,-1.37879 -2.65267,-1.69888 -0.62743,-0.32009 -1.22312,-0.71522 -1.32377,-0.87807 -0.10064,-0.16285 -1.37416,-1.1664 -2.83004,-2.23011 -3.95203,-2.8875 -9.66925,-9.05899 -12.91278,-13.93878 -0.65177,-0.98057 -1.45396,-2.09143 -1.78265,-2.46857 -0.85748,-0.98389 -2.07733,-2.8601 -2.07733,-3.19509 0,-0.15708 -0.24685,-0.50901 -0.54857,-0.78205 -0.30171,-0.27305 -0.54857,-0.61507 -0.54857,-0.76005 0,-0.14498 -0.40595,-0.83557 -0.90212,-1.53463 -1.73898,-2.45013 -2.96931,-5.4351 -4.0645,-9.8611 -1.61278,-6.5178 -2.24418,-12.35806 -1.76976,-16.36994 0.10703,-0.90514 0.24926,-2.13943 0.31605,-2.74286 0.36868,-3.33077 0.56089,-4.76232 0.93398,-6.95618 0.1632,-0.95962 0.28398,-2.37905 0.26841,-3.15429 -0.0431,-2.14571 0.19887,-6.67791 0.37142,-6.95711 0.0841,-0.13612 0.21792,-0.98018 0.2973,-1.87567 0.0794,-0.8955 0.34047,-2.35115 0.58017,-3.23478 0.23971,-0.88364 0.37115,-1.6713 0.29209,-1.75035 -0.079,-0.0791 -0.0276,-0.3607 0.11429,-0.62587 0.14191,-0.26516 0.318,-1.08469 0.39131,-1.82117 0.0733,-0.73648 0.39475,-2.18553 0.7143,-3.22011 0.31955,-1.03459 0.57595,-2.26626 0.56977,-2.73705 -0.0195,-1.48548 -0.58004,-14.68135 -0.79075,-18.6146 -0.11108,-2.07352 -0.10225,-4.23352 0.0196,-4.8 0.12186,-0.56648 0.10097,-2.29403 -0.0464,-3.83901 -0.17943,-1.88072 -0.17475,-3.46701 0.0142,-4.8 0.15518,-1.09502 0.21002,-3.04009 0.12187,-4.32238 -0.0881,-1.28228 -0.29108,-4.18106 -0.45095,-6.44172 -0.21173,-2.99389 -0.20674,-4.63287 0.0184,-6.03428 0.22754,-1.41657 0.22968,-3.1284 0.008,-6.49067 -0.2583,-3.91976 -0.24056,-4.80232 0.1252,-6.23003 l 0.42613,-1.66336 -0.93354,-2.27282 c -2.14653,-5.22602 -2.72283,-6.90712 -3.59998,-10.5014 -0.0736,-0.301716 -0.37783,-1.536002 -0.67601,-2.742859 -0.29817,-1.206857 -0.72863,-3.613714 -0.95658,-5.348572 -0.41918,-3.190423 -0.91422,-10.647614 -0.77383,-11.657142 0.0419,-0.301715 0.13006,-1.597715 0.1958,-2.88 0.13607,-2.654277 0.27374,-3.751184 0.68285,-5.440567 0.15838,-0.654026 0.26243,-1.332883 0.23121,-1.508571 -0.20106,-1.131409 1.93426,-8.534084 3.35285,-11.623553 0.56889,-1.23898 1.23668,-2.96698 1.48396,-3.84 0.61266,-2.162958 1.97553,-5.435518 2.8222,-6.776726 0.65489,-1.037416 2.54809,-3.153814 6.48334,-7.247699 0.9199,-0.956985 2.96855,-2.64732 4.55255,-3.7563 1.584,-1.10898 3.11858,-2.230863 3.41019,-2.493073 0.2916,-0.26221 1.71103,-0.990735 3.15428,-1.618945 1.44326,-0.628209 3.36467,-1.517496 4.26981,-1.976193 2.02091,-1.024129 7.28293,-2.681709 9.87429,-3.110481 2.09166,-0.34609 4.05088,-0.34432 12.27846,0.0111 2.98173,0.128805 5.75887,0.141035 6.17143,0.02718 0.48958,-0.135113 1.22644,-0.04078 2.12154,0.271588 0.75428,0.263232 2.976,0.996296 4.93714,1.629032 4.82916,1.558062 8.0808,3.148871 12.48,6.105627 3.00447,2.019341 4.20546,3.0364 6.36766,5.392447 5.1184,5.577289 9.20251,11.527271 10.93602,15.932283 0.62336,1.584 1.42223,3.558857 1.77529,4.388571 1.69317,3.979155 3.7276,9.469253 4.08537,11.024773 0.21878,0.951232 0.53245,3.27237 0.69704,5.158084 0.16458,1.885714 0.32135,3.613714 0.34836,3.84 0.14661,1.228044 -0.98463,10.413494 -1.61976,13.152124 -0.22804,0.983307 -0.58759,3.182113 -0.79899,4.886238 -0.23111,1.86303 -0.7184,4.05197 -1.22217,5.49002 -0.46079,1.31539 -0.94875,2.82362 -1.08434,3.35162 -0.22009,0.85705 -0.97285,17.96012 -0.91145,20.70857 0.0135,0.60343 0.0119,1.65257 -0.003,2.33143 -0.081,3.57113 0.53294,33.56291 0.87266,42.63368 0.11558,3.08615 0.0914,6.90944 -0.0554,8.77715 -0.18084,2.29991 -0.15936,4.77311 0.0705,8.10917 0.79116,11.48493 0.86123,13.29463 0.70091,18.10285 -0.14561,4.36715 -0.7339,11.02784 -1.09015,12.34286 -0.0613,0.22629 -0.24538,1.83086 -0.40906,3.56572 -0.32219,3.41495 -1.61502,8.32746 -3.53936,13.44885 -1.31108,3.48927 -5.26362,11.29925 -7.29772,14.41983 -1.77591,2.72448 -5.84345,6.91125 -8.50759,8.75694 -1.056,0.73159 -2.75016,2.02546 -3.76481,2.87528 -4.03224,3.37721 -11.48208,6.44187 -16.94376,6.97019 -0.98058,0.0949 -2.27658,0.2228 -2.88,0.28432 -0.60343,0.0615 -2.08458,-0.0589 -3.29143,-0.26769 z"
       id="path1" />
  </g>
</svg>
