<?xml version="1.0" encoding="UTF-8" standalone="no"?>
<!-- Created with Inkscape (http://www.inkscape.org/) -->

<svg
   version="1.1"
   id="svg1"
   width="294.58286"
   height="294.58286"
   viewBox="0 0 294.58286 294.58286"
   sodipodi:docname="two-hole-canine-marble.svg"
   inkscape:version="1.4 (86a8ad7, 2024-10-11)"
   xmlns:inkscape="http://www.inkscape.org/namespaces/inkscape"
   xmlns:sodipodi="http://sodipodi.sourceforge.net/DTD/sodipodi-0.dtd"
   xmlns="http://www.w3.org/2000/svg"
   xmlns:svg="http://www.w3.org/2000/svg">
  <defs
     id="defs1" />
  <sodipodi:namedview
     id="namedview1"
     pagecolor="#ffffff"
     bordercolor="#000000"
     borderopacity="0.25"
     inkscape:showpageshadow="2"
     inkscape:pageopacity="0.0"
     inkscape:pagecheckerboard="0"
     inkscape:deskcolor="#d1d1d1"
     inkscape:zoom="2.766624"
     inkscape:cx="147.47215"
     inkscape:cy="147.29143"
     inkscape:window-width="1920"
     inkscape:window-height="1017"
     inkscape:window-x="-8"
     inkscape:window-y="-8"
     inkscape:window-maximized="1"
     inkscape:current-layer="g1" />
  <g
     inkscape:groupmode="layer"
     inkscape:label="Image"
     id="g1">
    <path
       style="fill:#000000"
       d="m 137.52586,265.15599 c -2.41412,-1.39381 -4.83464,-4.57494 -5.75065,-7.55769 -0.36608,-1.19204 -0.96399,-2.70788 -1.3287,-3.36854 -0.3647,-0.66065 -1.16651,-2.32677 -1.78179,-3.70247 -0.61529,-1.37571 -1.55688,-3.22714 -2.09243,-4.11429 -0.53555,-0.88715 -0.92526,-1.79814 -0.86601,-2.02443 0.16126,-0.61591 6.78551,-9.8504 8.89596,-12.40135 3.07605,-3.71808 7.35022,-6.99883 12.43284,-9.54313 0.9707,-0.48593 2.96093,-1.55717 4.42272,-2.38054 1.46179,-0.82337 4.91779,-2.51236 7.68,-3.7533 9.71231,-4.36331 13.8337,-7.56816 20.15174,-15.67025 2.79828,-3.58844 6.13947,-8.24662 7.32399,-10.21088 1.16477,-1.9315 1.61775,-2.36937 1.28885,-1.24584 -1.56177,5.33494 -2.46441,7.61629 -3.57636,9.03897 -0.42813,0.54777 -0.43481,0.76036 -0.0776,2.46857 0.70984,3.39421 0.45667,8.57101 -0.56992,11.65355 -0.36816,1.10545 -0.92176,2.93831 -1.23022,4.07302 -0.66208,2.43549 -3.19761,8.19842 -4.35734,9.90366 -0.44847,0.65942 -1.35069,2.12466 -2.00493,3.25609 -0.65424,1.13143 -1.84596,2.93155 -2.64825,4.00028 -1.44919,1.93044 -1.48066,1.95259 -4.81968,3.39158 -1.84853,0.79666 -4.90383,2.28659 -6.78954,3.31097 -1.88571,1.02438 -4.416,2.39871 -5.62286,3.05406 -1.20685,0.65536 -2.74971,1.7568 -3.42857,2.44766 -1.09235,1.11165 -11.55554,15.48575 -13.50253,18.54946 -0.81405,1.28097 -0.89368,1.31853 -1.74875,0.82484 z m -22.64723,-35.64965 c -4.16407,-6.21588 -7.9726,-15.33322 -9.39738,-22.49657 -0.50592,-2.54365 -0.58638,-3.47644 -0.37853,-4.38857 0.14518,-0.63709 0.19169,-1.62043 0.10337,-2.18521 -0.13753,-0.87936 0.0807,-1.50977 1.51924,-4.38857 1.87325,-3.74878 5.92224,-10.7763 8.02115,-13.92171 4.6469,-6.9638 11.017,-12.72193 18.34282,-16.58064 1.24889,-0.65782 4.55413,-2.02525 7.34498,-3.03875 2.79086,-1.01349 5.8912,-2.25283 6.88965,-2.75409 1.8052,-0.90627 8.37746,-5.18345 18.07035,-11.76005 2.79086,-1.89359 6.18515,-4.13894 7.54286,-4.98966 1.35772,-0.85072 3.81145,-2.59859 5.45275,-3.88415 4.44769,-3.48372 9.814,-7.01116 10.06016,-6.61286 0.32899,0.53231 0.58613,3.6769 0.40564,4.96065 -0.0917,0.6519 -0.21141,1.70132 -0.26614,2.33206 -0.0547,0.63073 -0.18017,1.27731 -0.27876,1.43684 -0.0986,0.15952 0.0706,0.85494 0.37603,1.54536 0.30541,0.69043 0.92243,2.63585 1.37116,4.32317 0.6817,2.56329 0.77513,3.27883 0.5681,4.35077 -0.32026,1.65822 -0.94025,3.12571 -1.79275,4.2434 l -0.68112,0.89299 0.54596,1.43685 c 0.30027,0.79026 0.51803,1.45645 0.48389,1.48042 -0.99592,0.69922 -13.68787,9.12647 -17.33342,11.50912 -2.76982,1.81029 -6.36326,4.1957 -7.98543,5.30092 -4.7464,3.23383 -8.30579,4.88506 -18.41175,8.54132 -3.49739,1.26533 -8.40064,5.16206 -10.99001,8.73401 -1.63308,2.25279 -5.84652,9.41813 -7.61131,12.94375 -1.6443,3.2849 -3.67607,7.99815 -5.20248,12.06857 -1.11528,2.97408 -5.07586,12.95148 -5.19809,13.09491 -0.0311,0.0365 -0.73802,-0.95094 -1.57094,-2.19428 z m -14.44201,-37.71206 c -0.83054,-1.82079 -1.071482,-3.86971 -0.83055,-7.06285 0.113826,-1.50857 0.337619,-4.84115 0.49732,-7.40572 0.38217,-6.13728 0.78751,-10.6985 1.07802,-12.13095 0.22494,-1.10915 0.19484,-1.19029 -0.6928,-1.86732 -1.927474,-1.47016 -2.449207,-3.67792 -2.01844,-8.54122 0.149326,-1.68586 0.28419,-3.90758 0.299698,-4.93714 0.03139,-2.08402 0.537129,-5.71071 1.362692,-9.77202 l 0.54654,-2.68866 -0.82574,-1.00177 c -0.955801,-1.15955 -1.14093,-0.67665 1.92296,-5.01596 2.83759,-4.01878 5.79526,-7.47695 11.91511,-13.93138 3.83835,-4.04819 12.37407,-10.28983 20.66144,-15.10841 1.1055,-0.64278 3.08036,-1.93599 4.38857,-2.873791 2.8841,-2.067503 5.26237,-3.517358 6.9713,-4.249889 0.70249,-0.301124 3.47422,-1.999382 6.1594,-3.773907 3.82989,-2.531016 5.47738,-3.82017 7.64385,-5.981279 2.43604,-2.430012 2.94859,-3.117352 4.34653,-5.828772 0.87166,-1.690645 2.2668,-4.148814 3.10033,-5.462597 1.78559,-2.814417 2.95747,-5.30095 5.73049,-12.159132 1.85384,-4.584886 2.68923,-6.402623 2.17712,-4.737207 -0.14073,0.45765 0.001,0.860359 0.53156,1.508572 0.39795,0.486345 1.71462,2.55055 2.92593,4.587122 1.21132,2.036571 2.84932,4.566857 3.64001,5.622857 1.90402,2.542891 1.89205,2.515488 2.75657,6.308571 0.4126,1.810286 0.97286,3.970286 1.24501,4.8 0.27214,0.829714 0.60779,2.268083 0.74588,3.196375 0.24755,1.664205 0.23618,1.712144 -0.81314,3.428572 -0.58531,0.957422 -1.50126,2.594501 -2.03545,3.637953 -2.41052,4.708601 -3.94381,6.794917 -7.89075,10.736782 -2.12399,2.12126 -5.11579,4.77497 -6.64846,5.89715 -4.0951,2.99831 -10.59139,7.15909 -13.25905,8.49222 -1.28229,0.64081 -3.504,1.99879 -4.93714,3.01773 -1.43315,1.01894 -4.20554,2.80808 -6.16087,3.97587 -9.28444,5.54496 -12.96698,8.46266 -18.66199,14.78603 -4.00638,4.44842 -9.18492,11.40236 -11.27661,15.14265 -0.52719,0.9427 -1.92461,4.2823 -3.10537,7.42134 -1.18076,3.13903 -2.88735,7.3119 -3.79242,9.27304 -0.90507,1.96114 -2.39278,5.17579 -3.30602,7.14365 -2.14493,4.62191 -2.42197,5.71498 -2.01214,7.93917 0.56296,3.05529 0.37447,4.75862 -0.84259,7.61432 -0.30539,0.71658 -0.64239,1.30286 -0.74888,1.30286 -0.1065,0 -0.46106,-0.58628 -0.78792,-1.30286 z m -2.393119,-79.33714 c 0.106503,-0.67886 0.35401,-4.50514 0.550017,-8.50285 0.196006,-3.997719 0.396089,-7.392005 0.444629,-7.542862 0.04854,-0.150857 -0.0081,-1.62803 -0.125866,-3.282607 -0.18933,-2.660034 -0.290841,-3.085043 -0.876801,-3.671003 -1.728578,-1.728578 -1.354533,-4.497218 0.999015,-7.394608 1.649985,-2.031249 2.600625,-4.208359 3.114015,-7.131509 0.2226,-1.267444 0.83171,-3.093771 1.52666,-4.577416 2.04425,-4.364257 2.45637,-5.716431 2.15017,-7.05483 -0.51449,-2.248883 0.33523,-5.556721 1.95168,-7.597662 0.58816,-0.74261 0.94329,-1.576118 1.11127,-2.608207 0.2998,-1.842046 1.0364,-3.56189 2.02789,-4.734813 0.90559,-1.071304 3.78483,-2.553059 4.96092,-2.553059 0.47507,0 1.07471,-0.154286 1.33253,-0.342857 0.43445,-0.317753 0.43699,-0.423761 0.0347,-1.447778 -0.40336,-1.026744 -0.39842,-1.201402 0.0698,-2.468571 0.39176,-1.060218 0.79142,-1.556737 1.79612,-2.231394 1.96885,-1.32209 3.49436,-1.546293 6.85587,-1.007602 1.8685,0.299433 3.33972,0.383852 4.38787,0.251779 1.42366,-0.179389 1.59122,-0.270065 1.72463,-0.933278 0.32593,-1.620356 1.06973,-2.646291 2.36863,-3.267079 1.21274,-0.57961 1.34486,-0.590157 2.46076,-0.196443 0.64857,0.228828 1.42959,0.644408 1.7356,0.92351 0.73779,0.672923 1.39722,0.401655 2.31536,-0.952469 1.20686,-1.779935 3.70761,-2.205522 5.35327,-0.911038 0.36398,0.286301 0.88114,1.105506 1.14925,1.820455 0.26811,0.714949 0.60766,1.382051 0.75454,1.482449 0.14688,0.100398 1.57265,0.263531 3.16837,0.362518 1.59572,0.09899 3.17992,0.264003 3.52046,0.366701 0.61495,0.185456 0.61228,0.196937 -0.39254,1.68901 -2.64088,3.92148 -6.63228,6.834486 -11.29503,8.243344 -1.54034,0.465417 -2.56488,1.027489 -4.33547,2.378479 -1.27516,0.972974 -3.63837,2.586656 -5.25158,3.585961 -7.18745,4.452275 -9.81014,6.647013 -12.76609,10.682982 -1.30049,1.775655 -3.26123,4.418034 -4.3572,5.871954 -1.09597,1.45392 -2.94451,4.107634 -4.10786,5.897143 -1.16335,1.789509 -3.23128,4.904894 -4.5954,6.923078 -2.22016,3.28469 -2.59394,4.025154 -3.56486,7.062192 -0.67215,2.102478 -1.45653,5.5575 -2.06249,9.084859 -1.18186,6.879641 -1.85251,9.699271 -2.95224,12.412091 -1.042961,2.57279 -1.441764,3.03605 -1.180609,1.37143 z"
       id="path1" />
  </g>
</svg>
