<?xml version="1.0" encoding="UTF-8" standalone="no"?>
<!-- Created with Inkscape (http://www.inkscape.org/) -->

<svg
   version="1.1"
   id="svg1"
   width="294.58286"
   height="294.58286"
   viewBox="0 0 294.58286 294.58286"
   sodipodi:docname="two-hole-cheval-outline.svg"
   inkscape:version="1.4 (86a8ad7, 2024-10-11)"
   xmlns:inkscape="http://www.inkscape.org/namespaces/inkscape"
   xmlns:sodipodi="http://sodipodi.sourceforge.net/DTD/sodipodi-0.dtd"
   xmlns="http://www.w3.org/2000/svg"
   xmlns:svg="http://www.w3.org/2000/svg">
  <defs
     id="defs1" />
  <sodipodi:namedview
     id="namedview1"
     pagecolor="#ffffff"
     bordercolor="#000000"
     borderopacity="0.25"
     inkscape:showpageshadow="2"
     inkscape:pageopacity="0.0"
     inkscape:pagecheckerboard="0"
     inkscape:deskcolor="#d1d1d1"
     inkscape:zoom="2.766624"
     inkscape:cx="147.47215"
     inkscape:cy="147.29143"
     inkscape:window-width="1920"
     inkscape:window-height="1017"
     inkscape:window-x="-8"
     inkscape:window-y="-8"
     inkscape:window-maximized="1"
     inkscape:current-layer="g1" />
  <g
     inkscape:groupmode="layer"
     inkscape:label="Image"
     id="g1">
    <path
       style="fill:#000000;fill-opacity:1"
       d="m 145.64571,261.65137 c -5.57814,-0.52442 -6.12858,-0.62254 -9.05143,-1.61352 -4.10093,-1.39041 -10.96035,-5.8204 -14.67552,-9.47785 -6.26189,-6.1646 -12.20375,-16.6146 -14.50415,-25.50857 -1.18569,-4.58421 -2.36512,-13.94675 -2.34972,-18.65252 0.032,-9.77357 1.14615,-17.27424 4.6649,-31.40463 l 1.0587,-4.25142 -0.14129,-4.8 c -0.0777,-2.64 -0.18872,-14.05715 -0.24668,-25.37143 -0.058,-11.31429 -0.23372,-22.73143 -0.39057,-25.37143 -0.15686,-2.64 -0.28755,-6.4118 -0.29043,-8.38179 -0.006,-3.83962 -0.20363,-4.65637 -2.45659,-10.132496 -0.43445,-1.056 -0.99883,-2.537143 -1.25416,-3.291429 -0.25534,-0.754286 -0.74299,-2.173714 -1.08367,-3.154286 -0.34068,-0.980571 -0.88832,-3.510857 -1.21699,-5.622857 -0.32867,-2.112 -0.71266,-4.518857 -0.85332,-5.348571 -0.35764,-2.109682 -0.35617,-9.752974 0.003,-12.987756 0.16478,-1.486122 0.71208,-4.263265 1.21622,-6.171428 0.50414,-1.908163 1.1234,-4.395102 1.37615,-5.52653 0.80514,-3.604318 2.37246,-7.73766 3.95224,-10.422857 1.68498,-2.864034 5.26618,-7.722029 6.84669,-9.287739 0.5547,-0.549509 1.50594,-1.554282 2.11386,-2.232827 2.12635,-2.373401 3.87542,-3.795257 6.03923,-4.90944 1.19965,-0.617715 2.34153,-1.12338 2.53752,-1.1237 0.19599,-3.19e-4 2.07638,-0.879729 4.17866,-1.954246 3.50125,-1.789558 4.02427,-1.975605 6.22652,-2.214855 2.75386,-0.299178 12.50445,-0.07845 15.15848,0.343156 3.49391,0.555022 11.09891,3.24114 13.15996,4.648159 0.3803,0.259625 2.11089,1.405504 3.84575,2.546397 5.91268,3.88835 14.19797,13.221676 17.3716,19.568993 1.27438,2.548779 2.84537,6.868502 3.57822,9.838959 0.62606,2.537606 1.28395,8.111005 1.44077,12.205714 0.078,2.036571 0.25609,3.949714 0.39575,4.251429 0.45721,0.987702 2.12079,14.679082 2.30121,18.939102 0.0578,1.365078 0.19024,7.104508 0.29429,12.754288 0.10405,5.64978 0.23732,10.35388 0.29616,10.45356 0.27541,0.46659 -0.0254,30.16666 -0.36761,36.29876 -0.13471,2.41372 -0.20932,6.11657 -0.1658,8.22857 0.0435,2.112 -0.0599,5.69143 -0.22981,7.95429 -0.37441,4.98623 -0.35,17.46005 0.0368,18.77979 0.15332,0.52317 0.57891,2.68317 0.94577,4.8 0.63165,3.64467 0.66297,4.34336 0.59058,13.1745 -0.0595,7.25613 -0.17342,9.78224 -0.51341,11.38285 -0.7422,3.4942 -1.5902,6.9105 -1.9697,7.93531 -0.1994,0.53844 -0.88638,2.63953 -1.52663,4.6691 -1.69053,5.35889 -4.09937,10.8848 -5.64298,12.94508 -2.04029,2.72321 -5.75792,6.69511 -7.8943,8.43424 -1.99399,1.62321 -6.41372,4.41627 -6.9883,4.41627 -0.1763,0 -1.15619,0.42083 -2.17754,0.93517 -4.1615,2.0957 -12.72273,4.30754 -16.43004,4.24479 -1.0226,-0.0173 -4.26612,-0.25774 -7.20784,-0.5343 z m 11.96981,-1.35539 c 6.80768,-1.3838 14.43037,-4.57296 18.94229,-7.92503 3.20157,-2.37857 9.14108,-8.91378 10.11274,-11.12699 2.75372,-6.27234 5.99039,-15.59483 6.57418,-18.93539 0.10546,-0.60343 0.45482,-2.14629 0.77636,-3.42857 0.54758,-2.18372 0.5826,-2.97442 0.5527,-12.48 -0.0309,-9.8219 -0.0552,-10.26335 -0.75645,-13.71429 -1.94535,-9.57382 -2.86478,-12.6554 -4.86928,-16.32 -0.45384,-0.82971 -1.26643,-2.43428 -1.80576,-3.56571 -0.53932,-1.13143 -1.64998,-3.21735 -2.46813,-4.63538 -2.96377,-5.13682 -5.29131,-10.28125 -5.29131,-11.69505 0,-0.29265 0.19487,-0.40991 0.58417,-0.3515 0.44814,0.0672 0.72521,0.50278 1.18989,1.8705 0.68058,2.00319 3.03292,6.7718 4.87095,9.87429 0.6703,1.13142 1.73393,3.1566 2.36361,4.50038 0.62969,1.34378 1.21691,2.37122 1.30494,2.2832 0.2803,-0.28031 -0.64833,-3.0032 -2.93468,-8.60496 -3.06606,-7.51212 -5.2314,-13.91949 -7.27967,-21.54103 -0.27064,-1.00703 -0.57261,-1.7812 -0.67105,-1.72036 -0.26145,0.16158 -0.50666,1.91926 -0.93551,6.70562 -0.23133,2.58195 -0.60623,4.95154 -0.95469,6.03429 -1.16277,3.61298 -1.40027,4.11428 -1.94922,4.11428 -0.68364,0 -0.6715,-0.14474 0.27355,-3.26102 1.00524,-3.31473 1.04915,-3.55702 1.39373,-7.68941 0.15628,-1.87417 0.34896,-3.91074 0.42818,-4.52572 l 0.14404,-1.11813 -0.5301,1.23428 c -2.0351,4.73856 -2.79073,6.17143 -3.25453,6.17143 -0.77604,0 -0.53877,-1.11929 0.85855,-4.05023 0.69181,-1.4511 1.25784,-2.79471 1.25784,-2.98578 0,-0.19108 0.61715,-1.55356 1.37145,-3.02774 1.38332,-2.70353 2.37452,-5.884 3.70217,-11.8791 1.36218,-6.15111 2.30862,-10.77202 2.75272,-13.44 0.25111,-1.50858 0.51483,-3.05143 0.58604,-3.42858 0.0712,-0.37714 -0.55967,0.60225 -1.40197,2.17642 -0.8423,1.57418 -1.71508,3.06504 -1.9395,3.31303 -0.22443,0.24799 -0.40806,0.57394 -0.40806,0.72434 0,0.45542 -1.3099,1.53662 -1.62541,1.34162 -0.50347,-0.31116 -0.33224,-0.87705 0.7656,-2.53029 2.39353,-3.60445 5.19905,-9.93405 6.36081,-14.35083 0.41665,-1.584 1.21558,-4.175999 1.7754,-5.759999 1.78874,-5.06118 2.74734,-10.835211 3.07375,-18.514286 0.48254,-11.352495 -1.11549,-20.345884 -4.99661,-28.119846 -1.46679,-2.938008 -2.35326,-4.183037 -6.44076,-9.045868 -4.18501,-4.978848 -6.83139,-7.469509 -10.56992,-9.947992 -4.13884,-2.743871 -6.83861,-4.105162 -10.53101,-5.310006 -4.35831,-1.42213 -6.65966,-1.762467 -13.05756,-1.931024 -7.90542,-0.208274 -9.00091,-0.02825 -13.30286,2.186051 -1.88571,0.970617 -3.92228,1.921146 -4.52571,2.112287 -2.4757,0.784194 -7.045,4.182956 -8.67498,6.452663 -0.47194,0.657159 -1.01164,1.253766 -1.19934,1.325793 -0.54678,0.209821 -4.62248,5.611911 -6.25069,8.284907 -1.49081,2.447441 -3.04842,6.200402 -3.86285,9.307321 -0.23727,0.905143 -1.01482,3.990857 -1.72788,6.857143 l -1.29648,5.211428 -0.0139,6.857143 c -0.0119,5.862462 0.0764,7.414165 0.60853,10.697143 0.81666,5.038296 1.34889,7.156203 2.14905,8.551699 0.36141,0.630292 0.6571,1.409543 0.6571,1.731669 0,0.322126 0.47759,1.78129 1.06132,3.242586 0.58373,1.461297 1.28067,3.274046 1.54876,4.028328 0.26808,0.75429 0.83316,2.0648 1.25571,2.91224 0.42256,0.84745 1.09276,2.69888 1.48935,4.11429 0.39659,1.41541 0.95849,2.82829 1.24868,3.13972 0.29018,0.31144 0.52761,0.78682 0.52761,1.05641 0,0.80012 2.92277,6.00674 4.42549,7.88355 1.53005,1.91095 2.57907,3.88479 2.30247,4.33234 -0.37835,0.61219 -0.9865,0.23325 -1.63003,-1.01569 -0.36922,-0.71657 -1.18582,-1.91738 -1.81466,-2.66847 -0.62884,-0.75109 -1.44177,-1.95452 -1.8065,-2.67429 -0.36474,-0.71977 -0.70236,-1.30867 -0.75028,-1.30867 -0.18142,0 0.3962,3.51625 0.92099,5.60651 0.30074,1.19786 0.54716,2.67901 0.54759,3.29143 4.3e-4,0.61242 0.24694,2.59463 0.54778,4.40492 0.30085,1.81028 0.5537,4.40228 0.56188,5.76 0.008,1.35771 0.10599,3.28705 0.21736,4.28741 0.23563,2.11651 0.17189,2.43259 -0.49052,2.43259 -0.61462,0 -0.77466,-1.02537 -1.11307,-7.13143 -0.13795,-2.48914 -0.37361,-4.93744 -0.52369,-5.44067 -0.15008,-0.50322 -0.35273,-1.98437 -0.45034,-3.29143 -0.0976,-1.30706 -0.40189,-3.30219 -0.6762,-4.43361 -0.58954,-2.43173 -1.09113,-5.62389 -1.09113,-6.94413 0,-0.51804 -0.3141,-1.65214 -0.69801,-2.52022 -0.3839,-0.86808 -0.99447,-2.58058 -1.35683,-3.80556 l -0.65882,-2.22724 -0.0106,2.33143 c -0.006,1.28229 0.11893,4.49143 0.27726,7.13143 0.15832,2.64 0.32619,13.93371 0.37304,25.09714 0.1055,25.14322 0.0985,24.71718 0.39935,24.39772 0.45918,-0.48762 1.70939,-4.36332 2.90291,-8.99913 0.6548,-2.54335 1.31441,-4.74814 1.46581,-4.89953 0.36349,-0.3635 0.87162,-0.0302 0.87162,0.57171 0,0.95286 -2.17727,9.02373 -3.22893,11.96923 -0.59248,1.65943 -1.83949,6.10286 -2.77113,9.87429 -2.40553,9.73798 -2.47355,10.04276 -2.32674,10.42535 0.0727,0.18955 -0.0555,1.0071 -0.28486,1.81678 -0.66084,2.3324 -1.7826,8.12521 -2.03618,10.51482 -0.12755,1.20204 -0.26126,4.85891 -0.29713,8.12637 -0.0665,6.05432 0.11471,8.00847 1.52332,16.43096 0.45186,2.70186 1.65548,7.33792 2.02948,7.81715 0.11774,0.15085 0.48886,1.07657 0.82473,2.05714 1.93112,5.63796 7.29066,13.93744 12.04452,18.65143 2.48731,2.46645 7.70163,6.19437 10.88749,7.7839 3.12299,1.55816 6.16229,2.37562 10.37829,2.79137 8.1119,0.79993 10.05142,0.8173 13.47838,0.12071 z m -7.30695,-1.37303 c -0.82971,-0.31293 -1.94057,-0.70127 -2.46857,-0.86296 -2.35947,-0.72258 -5.3696,-2.6573 -9.81585,-6.309 -1.33177,-1.09378 -6.08571,-6.67985 -6.09061,-7.15671 -0.004,-0.34234 0.60287,-0.23075 0.92765,0.17071 3.53436,4.36886 4.64802,5.56911 6.67777,7.19705 4.57381,3.66837 5.9513,4.48162 9.94675,5.87245 3.16964,1.10337 5.13804,1.16716 8.50286,0.27558 2.82565,-0.74872 3.06528,-0.77738 3.20512,-0.3833 0.17536,0.49418 -4.16711,1.53532 -6.90798,1.65624 -2.01473,0.0889 -2.74592,0.004 -3.97714,-0.46006 z m 5.76,-1.71904 c 0,-0.25855 0.38221,-0.48255 1.02857,-0.60283 1.47049,-0.27363 5.42394,-1.93339 7.24134,-3.04011 1.59626,-0.97205 2.27641,-1.17706 2.09449,-0.63132 -0.28767,0.863 -6.87788,4.03161 -9.34951,4.49529 -0.80389,0.15081 -1.01489,0.10486 -1.01489,-0.22103 z m 7.68,-5.38531 c 0,-0.13748 0.70971,-0.73382 1.57714,-1.3252 1.12213,-0.76502 2.07413,-1.78098 3.29976,-3.52146 0.94744,-1.34542 1.96213,-2.74627 2.25487,-3.11298 0.72508,-0.90831 2.11887,-4.84152 2.45953,-6.94068 0.15336,-0.94506 0.27977,-3.03785 0.28091,-4.65067 0.001,-1.65668 0.1214,-3.00613 0.27636,-3.1019 0.15986,-0.0988 0.27429,-1.64158 0.27429,-3.69812 0,-3.64756 0.36756,-6.15459 1.0046,-6.85208 0.47882,-0.52426 0.47602,-0.27938 -0.0296,2.59038 -0.2121,1.20381 -0.31425,2.79153 -0.227,3.52825 0.15748,1.32964 -0.23512,7.25008 -0.77427,11.67613 -0.30347,2.49125 -2.32616,8.45586 -2.91246,8.58839 -0.184,0.0416 -1.11005,1.17561 -2.0579,2.52004 -1.17422,1.6655 -2.20407,2.77765 -3.23193,3.4902 -1.49302,1.035 -2.19429,1.29377 -2.19429,0.8097 z m -1.37143,-2.67448 c -1.10292,-0.35601 -1.65824,-0.79939 -2.05904,-1.64401 -0.40987,-0.86373 -0.36874,-1.46583 0.10013,-1.46583 0.11165,0 0.35425,0.41828 0.53911,0.92951 0.43551,1.20438 1.67501,1.78877 2.66744,1.25763 0.78431,-0.41975 1.23076,-0.15048 0.65604,0.39567 -0.48758,0.46334 -1.35608,0.70378 -1.90368,0.52703 z m -10.50943,-1.73017 c -0.39921,-0.44803 -1.22189,-1.06769 -1.8282,-1.377 -1.04555,-0.5334 -1.40112,-1.15708 -0.85286,-1.49592 0.84883,-0.52461 4.66771,2.35476 4.3211,3.25803 -0.25095,0.65397 -0.83679,0.5164 -1.64004,-0.38511 z m 1.36657,-0.73967 c -0.43228,-0.43228 -0.10152,-0.91284 1.08458,-1.57576 1.82882,-1.02215 3.93473,-1.60767 4.39835,-1.2229 0.30163,0.25034 0.3685,0.002 0.3685,-1.36742 v -1.67326 l -1.22336,0.77583 c -0.67285,0.42671 -1.89666,0.98761 -2.71957,1.24645 -1.76088,0.55387 -3.49576,0.33727 -6.26817,-0.78255 -0.93155,-0.37627 -1.72346,-0.65439 -1.75981,-0.61805 -0.0363,0.0364 0.0955,0.98862 0.29307,2.11616 0.30072,1.71654 0.29847,2.1151 -0.0138,2.44975 -0.56441,0.6048 -0.90186,0.0733 -1.22416,-1.92794 -0.30562,-1.89773 -1.0231,-3.76324 -1.64531,-4.27794 -0.33045,-0.27336 -0.37483,0.11991 -0.30175,2.67429 0.0821,2.86981 0.0621,2.99477 -0.48,2.99477 -0.31112,0 -0.56615,-0.0926 -0.56672,-0.20571 -0.0131,-2.58397 -0.35658,-5.83473 -0.77526,-7.33714 -0.29428,-1.056 -0.622,-2.53395 -0.72826,-3.28433 -0.1893,-1.33678 -0.20091,-1.35062 -0.5751,-0.68571 -0.54739,0.97268 -1.14173,3.17198 -1.34496,4.97693 -0.29048,2.57969 -1.75767,3.57107 -3.89961,2.63495 -1.79282,-0.78353 -3.37291,-1.92241 -3.37291,-2.43109 0,-0.60422 0.49563,-0.70787 0.71027,-0.14852 0.16719,0.43569 2.48456,1.74969 3.70106,2.09858 0.66888,0.19183 0.93622,0.13164 1.37816,-0.31031 0.44367,-0.44366 0.51577,-0.76799 0.37783,-1.6994 -0.23056,-1.55677 0.20419,-3.30137 1.50503,-6.03939 1.43316,-3.01656 3.02479,-7.20963 3.02479,-7.96868 0,-0.3323 -0.24499,-1.08472 -0.54442,-1.67204 -0.29944,-0.58732 -0.4899,-1.12238 -0.42326,-1.18903 0.28273,-0.28273 0.99762,0.26365 1.26675,0.96815 l 0.29084,0.76131 0.37475,-0.68571 c 0.20611,-0.37714 0.51927,-1.30286 0.69591,-2.05714 0.17665,-0.75429 0.47371,-1.61829 0.66014,-1.92 0.61168,-0.9899 0.9558,-2.43517 1.09057,-4.58022 0.073,-1.16141 0.31664,-3.19798 0.54147,-4.52572 0.57683,-3.40636 0.77257,-6.12245 0.5072,-7.03811 l -0.22723,-0.78404 -0.46585,0.92119 c -0.25621,0.50665 -0.65598,1.40589 -0.88837,1.99832 -0.2722,0.69392 -0.51692,0.98273 -0.68787,0.81177 -0.35366,-0.35365 0.57639,-2.88062 1.51137,-4.10645 0.61751,-0.80959 0.74906,-1.34308 0.95827,-3.88615 0.13338,-1.62126 0.30757,-3.44145 0.38708,-4.04488 0.0795,-0.60343 0.33185,-2.51657 0.56075,-4.25143 0.22891,-1.73485 0.60239,-4.88228 0.82997,-6.99428 0.22758,-2.112 0.4854,-4.45715 0.57293,-5.21143 0.0875,-0.75429 0.15814,-3.34291 0.1569,-5.75251 -0.001,-2.40959 0.10721,-4.51297 0.241,-4.67418 0.13379,-0.16121 0.37841,-1.9543 0.5436,-3.98464 0.16518,-2.03034 0.48057,-4.94536 0.70086,-6.47782 0.32383,-2.25282 0.3666,-4.82665 0.22336,-13.4428 -0.15882,-9.55371 -0.13192,-10.69404 0.25989,-11.01921 1.41235,-1.17215 2.41885,1.64228 2.48761,6.95602 0.0389,3.00266 0.0966,3.35022 0.64795,3.9016 0.63316,0.63315 0.65511,0.70405 1.15551,3.73285 0.38785,2.34751 0.87937,3.13696 2.02209,3.24775 1.01464,0.0984 1.06254,0.59371 0.0695,0.71842 -1.63417,0.20522 -2.53973,-1.11968 -2.88802,-4.22538 -0.19107,-1.70373 -0.35375,-2.16637 -0.95908,-2.72736 -0.40093,-0.37158 -0.79447,-0.6756 -0.87453,-0.6756 -0.15337,0 0.0135,1.51001 0.46987,4.25143 0.74922,4.5007 0.7874,7.01119 0.13982,9.19183 -0.23626,0.79558 -0.50935,2.44717 -0.60686,3.6702 -0.0975,1.22303 -0.28032,2.35524 -0.40625,2.51603 -0.65182,0.83231 -0.0437,16.11691 0.84501,21.23908 0.82233,4.73953 0.94717,6.88654 0.58381,10.04054 -0.2142,1.85924 -0.22952,3.36151 -0.0486,4.77089 0.37363,2.91146 2.29921,8.97343 3.88445,12.22875 0.7408,1.52124 1.34691,2.97152 1.34691,3.22286 0,0.66457 -0.52296,0.55958 -0.79786,-0.16018 -0.12964,-0.33943 -0.79459,-1.78971 -1.47767,-3.22286 -0.68309,-1.43314 -1.63087,-3.90171 -2.10618,-5.48571 -1.33519,-4.44951 -1.42396,-4.70862 -1.56497,-4.56761 -0.0726,0.0726 0.018,1.59288 0.20133,3.37838 l 0.33335,3.24637 2.59989,5.21143 c 1.42994,2.86629 2.8945,5.52675 3.25457,5.91215 0.74077,0.79288 0.81858,1.08214 0.29106,1.08214 -0.67383,0 -1.49041,-1.21593 -3.49985,-5.21143 -1.18836,-2.3629 -2.04317,-3.78142 -2.10605,-3.49493 -0.0582,0.26522 0.0303,0.89468 0.19665,1.3988 0.16638,0.50412 0.41955,1.63574 0.56261,2.51472 0.14305,0.87897 0.3556,1.66894 0.47232,1.75548 0.20161,0.14948 1.06718,1.97543 2.21997,4.68307 0.28902,0.67886 1.15746,2.0936 1.92986,3.14388 0.90855,1.23542 1.3103,2.00364 1.13795,2.176 -0.14653,0.14652 -0.30839,0.21292 -0.35969,0.14755 -1.76265,-2.24597 -2.82308,-3.85495 -3.37567,-5.12182 -0.37901,-0.86894 -0.85857,-1.95018 -1.06568,-2.40275 l -0.37657,-0.82286 -0.0175,0.71265 c -0.0313,1.27165 0.99249,5.58368 1.6241,6.8404 0.33836,0.67325 1.30209,2.38273 2.14162,3.79883 1.20679,2.0356 1.55173,2.87993 1.64728,4.03224 0.12622,1.52197 -0.559,5.02166 -1.17841,6.01871 -0.19036,0.30641 -0.39402,1.50586 -0.45257,2.66545 -0.10807,2.14008 -0.50715,3.05956 -1.07951,2.4872 -0.36553,-0.36554 -3.06385,0.39513 -4.45791,1.25671 -0.98235,0.60713 -1.34471,0.69381 -1.645,0.39352 z m 3.14994,-5.73524 c 1.91263,-0.9692 3.68978,-2.80761 4.06651,-4.20666 0.58305,-2.16528 0.13545,-3.89162 -1.9551,-7.5406 -1.03624,-1.80871 -2.0371,-3.38576 -2.22413,-3.50455 -0.67329,-0.4276 -2.44156,-0.21114 -3.76864,0.46134 -1.42654,0.72288 -2.19429,0.86711 -2.19429,0.41222 0,-0.15042 -0.44636,-0.76757 -0.99192,-1.37143 -1.26902,-1.40466 -2.65834,-1.52661 -3.91496,-0.34365 -0.89119,0.83896 -2.77531,5.43464 -2.77394,6.76611 0.001,1.22013 0.54839,4.33554 0.88066,5.01446 0.42958,0.87777 3.33254,3.0458 5.32962,3.98035 3.07617,1.43951 5.17866,1.53213 7.54619,0.33241 z M 152.50286,224.64 c 0.60786,-0.31011 1.61657,-0.54857 2.3205,-0.54857 1.34802,0 1.4131,-0.10394 0.98966,-1.58039 -0.14055,-0.49008 -0.46557,-2.64927 -0.72225,-4.79819 -0.25669,-2.14893 -0.6354,-4.38551 -0.84159,-4.97019 -0.20619,-0.58468 -0.3749,-1.6012 -0.3749,-2.25892 0,-0.65773 -0.11879,-1.72221 -0.26398,-2.36552 -0.50553,-2.2399 -1.0317,-7.7437 -0.77232,-8.07846 0.13891,-0.17928 0.36738,-1.537 0.50772,-3.01715 0.14033,-1.48015 0.34921,-3.49347 0.46419,-4.47404 0.11497,-0.98057 0.12665,-2.46171 0.026,-3.29143 -0.34741,-2.86246 -1.02841,-7.28307 -1.31073,-8.50832 -0.15573,-0.67585 -0.29841,-2.70996 -0.31707,-4.52025 -0.0187,-1.81029 -0.11569,-4.34057 -0.21561,-5.62286 -0.16368,-2.10023 -0.20147,-1.80103 -0.38113,3.01715 -0.19231,5.15728 -0.62205,9.83699 -1.46089,15.90857 -0.71318,5.1621 -1.20369,11.31479 -1.16986,14.67428 0.0195,1.93777 -0.14178,4.25028 -0.39218,5.62286 -0.23392,1.28229 -0.50594,3.0072 -0.60448,3.83314 -0.0985,0.82595 -0.27427,1.62823 -0.3905,1.78286 -0.22822,0.3036 -0.93497,3.22435 -0.99722,4.12114 -0.0209,0.30172 -0.18097,1.04229 -0.3556,1.64572 -0.44223,1.52804 -0.4532,1.50845 0.84513,1.50959 1.30022,0.001 2.61913,0.68067 3.3993,1.75138 0.6193,0.84993 0.67182,0.85429 2.01785,0.1676 z m -2.09416,-6.01209 c -0.9345,-0.56983 -1.93906,-2.68877 -1.64187,-3.46324 0.27108,-0.70641 0.78575,-0.32729 1.53378,1.12982 0.89638,1.74607 1.73994,1.84593 2.72569,0.32265 0.68029,-1.05125 1.67084,-1.39566 1.67084,-0.58095 0,0.61606 -1.01698,2.20798 -1.72924,2.70687 -0.78505,0.54987 -1.52305,0.51667 -2.5592,-0.11515 z m 3.46138,-65.55363 c 0.006,-1.24011 -0.15692,-1.00313 -0.35067,0.51146 -0.10097,0.78928 -0.0674,1.07981 0.0952,0.82286 0.1382,-0.21844 0.25316,-0.81889 0.25547,-1.33432 z m -0.34595,-15.17714 c -0.0608,-0.49028 -0.11062,-0.0891 -0.11062,0.89143 0,0.98057 0.0498,1.38171 0.11062,0.89143 0.0608,-0.49029 0.0608,-1.29257 0,-1.78286 z m 9.53904,107.30658 c -0.92044,-0.28607 -1.50889,-0.94532 -1.50889,-1.69043 0,-0.65986 0.5631,-0.63698 0.73751,0.03 0.20708,0.79187 1.52092,1.21816 3.10626,1.00785 0.82995,-0.11009 1.36766,-0.0762 1.36766,0.0861 0,0.14715 -0.0926,0.32453 -0.20571,0.39417 -0.48163,0.29645 -2.73945,0.40772 -3.49683,0.17233 z m 1.43969,-3.49169 c -0.41486,-0.25721 -0.75429,-0.62422 -0.75429,-0.81556 0,-0.45676 0.0698,-0.4457 1.32944,0.21088 1.11009,0.57861 1.41521,0.54425 3.67627,-0.41404 0.9492,-0.40229 0.49049,0.57152 -0.4893,1.03874 -1.23308,0.58802 -2.79483,0.5797 -3.76212,-0.02 z m 1.72159,-3.8572 c -1.64372,-1.73123 -2.41671,-2.94598 -2.08185,-3.27156 0.11661,-0.11337 0.53851,0.22375 0.93756,0.74916 1.33446,1.75699 2.84864,3.29614 3.24268,3.29614 0.21456,0 0.74727,-0.18469 1.18379,-0.41042 1.14043,-0.58974 1.33298,0.002 0.22123,0.67946 -1.37667,0.83933 -1.8503,0.69836 -3.50341,-1.04278 z m -31.48159,-1.05363 c -0.18858,-0.0761 -0.34282,-0.28234 -0.34277,-0.45834 1e-4,-0.34777 3.66494,-0.44926 4.00334,-0.11086 0.48804,0.48804 -2.65175,0.97627 -3.66057,0.5692 z m 0.0674,-2.01457 c -0.0939,-0.15192 0.0531,-0.34913 0.32667,-0.43824 0.27356,-0.0891 0.96274,-0.3351 1.53151,-0.54664 1.27587,-0.47452 1.57159,-0.48159 1.57159,-0.0376 0,0.19088 -0.60285,0.56116 -1.33967,0.82286 -1.54826,0.54989 -1.85547,0.57923 -2.0901,0.19958 z m 33.18857,0 c -0.17497,-0.2831 0.0242,-0.38676 1.25703,-0.65429 0.76193,-0.16534 1.34988,-1.13954 1.34988,-2.23668 0,-0.81241 0.42722,-0.89219 0.62978,-0.11759 0.23188,0.88669 -0.30767,2.3675 -1.03666,2.84516 -0.75401,0.49404 -1.94119,0.58222 -2.20003,0.1634 z m -38.63483,-0.46266 c -0.0965,-0.0965 -0.1754,-0.4396 -0.1754,-0.7625 0,-1.10616 -1.37377,-7.6144 -2.09667,-9.933 -0.72034,-2.31038 -0.72118,-2.3237 -0.27294,-4.36362 0.24729,-1.12538 0.44961,-2.30479 0.44961,-2.62089 0,-0.3161 -0.55543,-2.10691 -1.23429,-3.97957 -1.30778,-3.60758 -1.50645,-4.75582 -0.82285,-4.75582 0.25126,0 0.41143,0.25589 0.41143,0.65734 0,0.36153 0.44002,1.87353 0.97782,3.36 1.62076,4.4797 1.59544,4.31167 1.07029,7.10155 l -0.4737,2.51658 0.70517,2.16512 c 0.66232,2.03357 1.59055,6.3312 1.98611,9.19555 0.16173,1.17115 -0.0904,1.8534 -0.52458,1.41926 z m 5.1046,-1.38556 c -0.49029,-0.24401 -0.89143,-0.6064 -0.89143,-0.80532 0,-0.48491 0.42432,-0.45572 1.25118,0.0861 0.49917,0.32707 1.01395,0.40239 1.91035,0.27953 1.28346,-0.17592 1.62664,0.13673 0.6965,0.63453 -0.74901,0.40086 -1.92488,0.32365 -2.9666,-0.1948 z m 30.80872,-1.68295 c -0.24357,-0.39411 0.14548,-0.51488 2.10132,-0.65226 1.84412,-0.12954 2.45785,-0.57932 2.92696,-2.14506 0.19228,-0.64176 0.47043,-1.06188 0.65924,-0.9957 0.67941,0.23811 -0.26396,2.68286 -1.29626,3.35924 -0.86437,0.56636 -4.1111,0.88708 -4.39126,0.43378 z m -1.25443,-7.16059 c 0,-0.29483 2.01484,-1.64916 2.45347,-1.64916 0.14854,0 0.4022,-0.24685 0.56367,-0.54857 0.39166,-0.73183 0.88309,-0.69955 0.77336,0.0508 -0.0568,0.38834 -0.61881,0.91574 -1.59622,1.49789 -1.55952,0.92887 -2.19428,1.11663 -2.19428,0.64904 z m -32.50585,-0.65028 c -0.1186,-0.28034 -0.13865,-2.07005 -0.0446,-3.97715 0.13163,-2.66814 0.0464,-4.41585 -0.36961,-7.58173 -0.56478,-4.29766 -0.71583,-8.64 -0.30055,-8.64 0.38336,0 0.57238,1.06949 0.58174,3.29143 0.005,1.13143 0.18938,3.22972 0.41025,4.66286 0.42168,2.73604 0.52082,10.84503 0.14756,12.06857 -0.18861,0.61825 -0.2304,0.63557 -0.42483,0.17602 z m 5.47256,-1.14474 c 0.29283,-0.22149 1.10446,-0.40271 1.80361,-0.40271 1.46896,0 1.94084,-0.40007 3.15426,-2.67428 0.78374,-1.46892 1.23174,-1.81939 1.22713,-0.96 -0.004,0.72331 -1.52253,3.22531 -2.35528,3.88035 -0.58093,0.45696 -1.11023,0.57498 -2.54771,0.56807 -1.65516,-0.008 -1.7677,-0.0441 -1.28201,-0.41143 z m 34.15968,-1.10367 c -0.48392,-1.4663 -0.40492,-4.17834 0.25921,-8.89904 0.59791,-4.24993 0.97145,-5.76 1.42482,-5.76 0.30371,0 0.32952,-0.31165 -0.2878,3.4757 -1.04737,6.42573 -1.23013,8.89598 -0.77343,10.45393 0.22671,0.77337 0.34502,1.4733 0.26293,1.55539 -0.3322,0.3322 -0.57965,0.10144 -0.88573,-0.82598 z m -27.69782,-3.33247 c 0,-0.13153 0.23941,-0.70874 0.53202,-1.28269 0.29262,-0.57394 0.61541,-1.7109 0.71732,-2.52656 0.10191,-0.81567 0.3114,-1.48303 0.46553,-1.48303 0.45953,0 0.056,3.43783 -0.51908,4.42254 -0.49775,0.85227 -1.19579,1.35998 -1.19579,0.86974 z m -1.24378,-1.62315 c 0.22229,-1.79545 0.30425,-1.97552 0.7131,-1.56667 0.38806,0.38806 -0.0519,2.89172 -0.53652,3.05327 -0.30474,0.10158 -0.33826,-0.18063 -0.17658,-1.4866 z m -4.09853,0.29026 c -0.92541,-0.48254 -1.23029,-0.86708 -1.23635,-1.55939 -0.006,-0.64209 0.56046,-0.61486 0.73044,0.0351 0.14382,0.54998 1.16304,1.13058 1.98467,1.13058 0.27856,0 0.82015,-0.48496 1.22528,-1.09714 0.70212,-1.06099 1.26684,-1.4161 1.26684,-0.79663 0,0.37568 -1.03994,1.91514 -1.60353,2.37377 -0.56438,0.45928 -1.3779,0.42961 -2.36735,-0.0863 z m 1.04475,-4.6663 c -0.52623,-0.52623 -0.62755,-0.78627 -0.39642,-1.0174 0.23113,-0.23113 0.41898,-0.15561 0.73493,0.29548 0.4724,0.67444 1.22578,0.77593 2.0303,0.2735 0.74179,-0.46326 1.02316,-0.0595 0.4217,0.60507 -0.69952,0.77296 -1.92998,0.70388 -2.79051,-0.15665 z m 22.30899,-0.29881 c -0.39468,-0.39468 -0.14511,-0.64 0.6511,-0.64 0.45868,0 1.19774,-0.26894 1.64234,-0.59766 1.14235,-0.84457 1.40937,-0.34354 0.33061,0.62033 -0.84189,0.75223 -2.17543,1.06596 -2.62405,0.61733 z m -17.59145,-1.72331 c -0.10478,-0.16953 -0.1068,-0.80375 -0.004,-1.40935 0.242,-1.4324 0.85258,-1.27504 0.72617,0.18714 -0.10089,1.16693 -0.42091,1.70889 -0.72169,1.22221 z m 17.68499,-1.17954 c 0.002,-0.38481 2.15468,-1.70606 2.39222,-1.46853 0.22828,0.22829 -0.47112,0.97277 -1.33217,1.41804 -0.93053,0.4812 -1.06275,0.48749 -1.06005,0.0505 z m -20.64056,-2.05846 c -0.81204,-0.50349 -1.5787,-1.85499 -1.5787,-2.783 0,-0.69718 0.50518,-0.76431 0.72003,-0.0957 0.48189,1.4996 0.75341,1.93055 1.49072,2.3661 0.44884,0.26513 0.74489,0.59723 0.6579,0.73798 -0.21679,0.35078 -0.41716,0.31576 -1.28995,-0.22539 z m 27.49797,-6.83297 c 0.003,-5.48039 0.19191,-8.04572 0.59395,-8.04572 0.38658,0 0.11155,12.97547 -0.27778,13.10525 -0.23442,0.0781 -0.31792,-1.25815 -0.31617,-5.05953 z m -24.83781,4.09143 c 0.31897,-1.43076 2.02589,-5.67682 2.32172,-5.77543 0.50762,-0.16921 0.33173,0.69933 -0.66344,3.27615 -0.528,1.36716 -0.96,2.65851 -0.96,2.86966 0,0.21114 -0.19495,0.3839 -0.43322,0.3839 -0.33051,0 -0.39335,-0.17882 -0.26506,-0.75428 z m -5.87438,-3.19605 c -0.15646,-0.41153 -0.28448,-1.2442 -0.28448,-1.85038 0,-1.65343 0.65137,-1.18555 0.85061,0.61099 0.18597,1.67685 -0.13372,2.37671 -0.56613,1.23939 z m 22.20695,-0.57538 c 0,-0.22629 0.22288,-0.41143 0.49528,-0.41143 0.27241,0 0.91353,-0.30857 1.42472,-0.68572 1.26742,-0.93506 1.95866,-0.91833 1.07638,0.0261 -1.202,1.28663 -2.99638,1.92805 -2.99638,1.07108 z m -1.64571,-1.92 c 0,-0.25101 0.25573,-0.41143 0.65585,-0.41143 0.36101,0 1.2527,-0.49321 1.98354,-1.09714 1.31249,-1.08459 1.74918,-1.30391 1.74918,-0.87853 0,0.30735 -1.93501,2.12257 -2.65626,2.49181 -0.85105,0.4357 -1.73231,0.38243 -1.73231,-0.10471 z m -18.32229,-3.20915 c -0.39149,-0.39148 -0.43961,-1.31657 -0.0685,-1.31657 0.14337,0 0.36802,0.19184 0.49923,0.4263 0.21486,0.38394 0.40465,0.38013 1.91002,-0.0384 1.44569,-0.40194 2.89983,-0.38048 2.48271,0.0366 -0.14787,0.14786 -3.9021,1.22118 -4.27143,1.22118 -0.12259,0 -0.37101,-0.14812 -0.55204,-0.32915 z m 18.048,-0.59657 c 0,-0.3832 1.5993,-0.85784 1.89481,-0.56233 0.23428,0.23428 -0.81559,0.93948 -1.39866,0.93948 -0.27288,0 -0.49615,-0.16972 -0.49615,-0.37715 z m -20.67295,-2.45991 c -0.97488,-2.33321 -1.33973,-6.21437 -0.58419,-6.21437 0.31305,0 0.4122,0.3443 0.41468,1.44 0.002,0.792 0.19713,2.11885 0.43409,2.94857 0.69643,2.43858 0.74315,2.74286 0.42117,2.74286 -0.16642,0 -0.47501,-0.41268 -0.68575,-0.91706 z m 5.79295,-0.56191 c -0.4492,-0.34099 -0.66499,-0.98961 -0.32924,-0.98961 0.38186,0 1.76924,0.86588 1.76924,1.10419 0,0.38329 -0.87596,0.31359 -1.44,-0.11458 z m -3.40665,-1.70696 c -0.67062,-1.02206 -0.91989,-6.13979 -0.29905,-6.13979 0.30362,0 0.39141,0.45336 0.39141,2.02119 0,1.11165 0.16104,2.59633 0.35785,3.29929 0.42792,1.52835 0.23973,1.87082 -0.45021,0.81931 z m 3.88665,-2.62287 c -0.75583,-0.42216 -0.76156,-0.42944 -0.57485,-0.73154 0.22717,-0.36756 1.80914,0.24745 1.80914,0.70333 0,0.42798 -0.49816,0.43937 -1.23429,0.0282 z m 2.93486,-0.55463 c -0.37203,-0.37203 -0.44258,-1.04229 -0.10972,-1.04229 0.34182,0 0.87772,0.61963 0.87772,1.01486 0,0.4461 -0.33729,0.45814 -0.768,0.0274 z m 11.328,-3.84808 c -1.93485,-0.65572 -2.02614,-0.72718 -2.21498,-1.73376 -0.23087,-1.23067 0.25358,-2.97026 1.16245,-4.17416 1.03515,-1.37116 1.2537,-0.78943 0.34933,0.9298 -0.77628,1.47574 -1.01632,2.91591 -0.59546,3.57267 0.31793,0.49613 2.44609,0.96096 3.49701,0.76381 1.14298,-0.21442 1.32654,0.30296 0.25236,0.71136 -0.83718,0.3183 -1.34871,0.30375 -2.45071,-0.0697 z m -15.64676,-0.61031 c -0.70324,-0.70324 -0.95134,-2.20691 -0.33039,-2.00241 0.18858,0.0621 0.38113,0.37199 0.4279,0.68865 0.14403,0.97516 0.78798,1.31725 1.77693,0.94396 1.08438,-0.40931 1.5643,-0.001 0.70583,0.59987 -0.89905,0.62972 -1.80088,0.54931 -2.58027,-0.23007 z m -1.4144,-3.7839 c -0.30937,-0.33943 -0.90653,-1.17257 -1.32701,-1.85143 -0.42049,-0.67885 -1.23519,-1.85889 -1.81045,-2.6223 -2.06131,-2.73548 -4.23036,-8.78727 -5.04978,-14.08918 -0.10323,-0.66789 -0.53506,-2.02561 -0.95963,-3.01715 -0.46938,-1.09618 -0.67352,-1.90314 -0.52082,-2.0588 0.31196,-0.318 0.25259,-0.40559 1.30384,1.9236 0.48204,1.06803 0.87644,2.26592 0.87644,2.66198 0,1.3399 1.96868,8.50115 2.89709,10.53841 0.81868,1.79648 1.62867,3.05353 4.7722,7.4062 0.83274,1.15304 1.03423,1.72581 0.60709,1.72581 -0.12456,0 -0.4796,-0.27771 -0.78897,-0.61714 z m 2.45544,-2.39699 c -0.86644,-0.52828 -1.18222,-1.10015 -0.60749,-1.10015 0.15617,0 0.58177,0.19515 0.9458,0.43367 0.36402,0.23851 1.06939,0.41115 1.56749,0.38364 1.36795,-0.0756 1.50242,-0.0135 0.92178,0.4257 -0.73345,0.55475 -1.76924,0.50242 -2.82758,-0.14286 z m 13.99033,-3.86905 c -0.64017,-0.45344 -1.23504,-1.1077 -1.32194,-1.45391 -0.23017,-0.91706 -0.0286,-2.78347 0.29161,-2.69984 0.2969,0.0775 0.33186,0.23839 0.37979,1.74724 0.0423,1.33013 1.56799,2.57047 3.11212,2.52998 0.70632,-0.0185 1.03381,0.0921 1.03381,0.34916 0,0.73438 -2.21396,0.43502 -3.49539,-0.47263 z m -10.2189,-0.0766 c 0,-0.20732 0.17877,-0.88362 0.39726,-1.50289 0.21849,-0.61927 0.59088,-2.6405 0.82753,-4.49162 0.23665,-1.85113 0.47975,-3.75218 0.54022,-4.22457 0.0605,-0.47239 -0.0761,-1.21296 -0.3035,-1.64571 -0.35775,-0.68087 -0.36993,-1.31174 -0.0904,-4.68437 0.4536,-5.47271 0.18176,-6.36527 -2.37873,-7.81032 -1.35538,-0.76493 -1.85105,-1.32072 -1.17785,-1.32072 1.24939,0 3.96009,2.20524 4.28064,3.48245 0.0991,0.39495 0.10872,2.73525 0.0213,5.20068 -0.0957,2.69971 -0.0573,4.48259 0.0966,4.48259 0.60374,0 -0.14647,8.4145 -0.97251,10.90797 l -0.38788,1.17082 0.5947,-0.41654 c 1.13135,-0.79242 1.47621,-0.19833 0.40406,0.69609 -0.72473,0.60459 -1.85143,0.69962 -1.85143,0.15614 z m 12.76969,-3.16385 c -0.21092,-0.34127 0.70551,-0.84777 1.53391,-0.84777 0.54388,0 0.57304,0.0498 0.22375,0.38199 -0.5557,0.52852 -1.55519,0.79339 -1.75766,0.46578 z m 8.20476,-0.0385 c -0.10124,-0.1638 0.29982,-0.71202 0.89125,-1.21826 0.65171,-0.55784 1.59616,-1.90118 2.39744,-3.41 0.72717,-1.36925 1.49001,-2.48956 1.69521,-2.48956 0.20519,0 0.37308,0.0715 0.37308,0.15881 0,0.31106 -2.25742,4.38204 -2.90522,5.23921 -0.8891,1.17647 -2.21343,2.10543 -2.45176,1.7198 z m -11.31071,-3.44731 c -1.3388,-1.39725 -1.33099,-1.32363 -0.47627,-4.49336 0.40555,-1.50395 0.43251,-2.04526 0.17236,-3.4602 -0.55638,-3.02607 -0.39679,-3.87644 1.01072,-5.38552 1.353,-1.45063 1.62132,-0.67841 0.29081,0.83695 -0.85153,0.96984 -0.85694,0.99514 -0.65251,3.05335 0.28013,2.82042 0.20651,4.25977 -0.31283,6.11622 -0.40568,1.45012 -0.40489,1.62557 0.0102,2.25903 0.92397,1.41016 2.00662,1.75134 3.52809,1.11181 0.78799,-0.33122 0.57687,0.54759 -0.21862,0.91004 -1.32436,0.60342 -2.0662,0.39354 -3.35193,-0.94832 z m 10.90769,-4.56837 c 0,-0.36231 4.11074,-4.58785 4.46321,-4.58785 0.60418,0 -0.0343,0.93112 -1.93214,2.81786 -2.15302,2.1404 -2.53107,2.40477 -2.53107,1.76999 z m -3.84,-2.56484 c 0,-0.0942 1.01829,-1.3053 2.26286,-2.69134 1.24457,-1.38603 2.75657,-3.15544 3.36,-3.93201 0.99729,-1.28345 1.78285,-1.80978 1.78285,-1.19454 0,0.62104 -6.48159,7.98917 -7.0279,7.98917 -0.2078,0 -0.37781,-0.0771 -0.37781,-0.17128 z m -42.19399,-1.11632 c -0.60421,-1.51223 -0.85119,-3.3402 -1.12515,-8.32755 -0.19891,-3.62113 -0.49435,-6.07266 -1.03938,-8.62485 -0.52879,-2.4761 -0.76148,-4.36198 -0.76148,-6.17143 0,-1.43315 -0.0874,-3.28457 -0.19429,-4.11429 -0.49286,-3.82678 -0.51064,-4.66286 -0.0992,-4.66286 0.26209,0 0.44498,0.39619 0.53814,1.16572 0.43073,3.55801 0.53893,5.25161 0.47822,7.48524 -0.0371,1.36374 0.0655,2.82894 0.22782,3.25599 0.16237,0.42705 0.41593,1.53298 0.56348,2.45761 0.14755,0.92464 0.39328,2.36002 0.54608,3.18973 0.1528,0.82971 0.39799,3.73029 0.54487,6.44571 0.14688,2.71543 0.45782,5.66769 0.69097,6.56058 0.44834,1.71698 0.17538,2.7056 -0.37008,1.3404 z m 19.86006,-5.62073 c -0.0621,-0.19814 -0.37547,-1.99491 -0.69638,-3.99283 -0.32091,-1.99792 -0.74741,-4.17729 -0.94777,-4.84304 -0.85343,-2.83573 -5.59363,-8.50655 -9.68363,-11.58478 -1.1025,-0.82976 -1.92935,-1.63033 -1.83745,-1.77903 0.53157,-0.8601 7.02486,4.93934 9.70715,8.66987 2.18934,3.04494 2.37426,3.4763 3.13507,7.31356 0.92143,4.64732 1.09606,6.1685 0.73382,6.39238 -0.16384,0.10126 -0.34871,0.022 -0.41081,-0.17613 z m 21.37482,-0.53346 c 0.38852,-1.83242 1.29155,-3.5089 2.2914,-4.254 0.54952,-0.40951 1.52095,-1.21635 2.15872,-1.79296 1.19526,-1.08064 1.73185,-1.30269 1.70501,-0.70554 -0.0133,0.29486 -1.47787,1.6232 -3.76699,3.4165 -0.34547,0.27064 -0.91617,1.28916 -1.26822,2.26338 -0.70222,1.94319 -1.45798,2.66703 -1.11992,1.07262 z M 116.29953,148.32 c 0.003,-2.30474 0.29443,-4.59429 0.58439,-4.59429 0.26597,0 0.31859,4.73845 0.0632,5.69143 -0.3152,1.17618 -0.64997,0.60903 -0.64759,-1.09714 z m 41.75761,0.1612 c -0.18857,-0.0761 -0.34286,-0.29804 -0.34286,-0.49322 0,-0.26015 0.34779,-0.31753 1.30286,-0.21494 1.48373,0.15938 1.56262,0.19523 1.31414,0.59728 -0.18254,0.29536 -1.64076,0.36645 -2.27414,0.11088 z m -31.4009,-2.49263 c -0.23268,-0.264 -1.0511,-1.776 -1.8187,-3.36 -0.76761,-1.584 -1.83158,-3.62057 -2.3644,-4.52571 -1.51985,-2.58194 -2.06171,-4.67584 -2.06171,-7.96699 0,-1.55921 0.10619,-2.90056 0.23599,-2.98078 0.25448,-0.15727 0.58686,2.39901 0.58686,4.5134 0,1.93393 0.9086,4.52628 2.50022,7.13343 0.77832,1.27494 1.77162,3.17584 2.20733,4.22422 0.4357,1.04838 0.97417,2.10725 1.1966,2.35303 0.44331,0.48985 0.53833,1.0894 0.17265,1.0894 -0.12747,0 -0.42215,-0.216 -0.65484,-0.48 z m 10.31216,-0.3998 c -0.14351,-0.19497 -0.74153,-1.32333 -1.32895,-2.50748 -1.2163,-2.4519 -4.25761,-5.92223 -5.94411,-6.78262 -1.12579,-0.57433 -1.3812,-1.07581 -0.54792,-1.07581 0.75297,0 2.43265,1.31531 4.34545,3.40279 1.84641,2.01503 4.44567,6.60838 3.9947,7.05935 -0.16148,0.16148 -0.35602,0.12542 -0.51917,-0.0962 z m 20.60754,-0.49357 c -0.0939,-0.15192 0.0531,-0.3471 0.32667,-0.43374 0.82976,-0.26278 1.56117,-0.62891 2.24212,-1.12238 0.61956,-0.44897 0.64322,-0.4466 0.54668,0.0547 -0.20005,1.03878 -2.66671,2.22749 -3.11547,1.50138 z m -10.50688,-3.48915 c -1.39161,-0.17143 -0.92753,-0.76329 0.51673,-0.65901 1.32265,0.0955 1.62564,0.20743 1.62564,0.60058 0,0.2577 -0.42966,0.26942 -2.14237,0.0584 z m 18.46077,-0.62578 c -0.16269,-0.26324 0.37969,-1.83191 1.97656,-5.71664 1.36729,-3.32622 4.19947,-6.47353 7.17872,-7.97745 0.91127,-0.46001 2.09453,-1.22066 2.62947,-1.69034 0.9298,-0.81637 1.79399,-0.92442 1.79399,-0.2243 0,0.54721 -1.99511,2.17153 -3.70286,3.01467 -3.44707,1.70188 -5.98046,4.94625 -7.52216,9.63324 -0.81422,2.47532 -1.84916,3.77721 -2.35372,2.96082 z m -21.1382,-2.12313 c -0.45713,-1.57034 -2.40538,-4.76581 -3.88877,-6.37824 -1.61586,-1.75643 -2.03822,-2.46747 -1.46569,-2.46747 0.13674,0 1.03159,0.84732 1.98858,1.88293 2.47964,2.68338 4.90226,7.44278 3.7885,7.44278 -0.15559,0 -0.34577,-0.216 -0.42262,-0.48 z m 12.01408,-0.12 c 0.13312,-0.39936 1.54536,-0.90036 1.80529,-0.64043 0.25971,0.25972 -0.76017,0.96615 -1.39485,0.96615 -0.28546,0 -0.47015,-0.14658 -0.41044,-0.32572 z m 13.52591,-1.0269 c -0.26542,-0.42947 0.22123,-1.14814 1.73859,-2.56744 1.24992,-1.16916 2.14373,-1.66446 1.90693,-1.05672 -0.2503,0.64241 -3.49485,3.86794 -3.64552,3.62416 z m -25.02505,-3.43851 c -1.27615,-0.55498 -3.4606,-2.63884 -3.12159,-2.97785 0.18286,-0.18286 0.69469,0.11323 1.5355,0.88826 0.69367,0.6394 1.69074,1.34202 2.21571,1.56136 0.52497,0.21935 0.88052,0.51851 0.79011,0.6648 -0.21022,0.34013 -0.35577,0.32613 -1.41973,-0.13657 z m 3.8036,-5.15173 c 0.13206,-2.03541 0.89888,-3.74188 1.93951,-4.31615 0.6991,-0.38579 0.84113,-0.36832 2.00003,0.24606 1.20937,0.64112 3.41886,2.94156 3.41886,3.55958 0,0.65311 -0.80811,0.25627 -1.38764,-0.68143 -0.68862,-1.11422 -2.56117,-2.57949 -3.29646,-2.57949 -0.85112,0 -1.57206,1.2937 -1.91882,3.44322 -0.40385,2.50347 -0.9109,2.72375 -0.75548,0.32821 z m 11.53714,-1.37143 c 0.0606,-0.18857 0.77514,-0.744 1.58787,-1.23429 1.28179,-0.77325 1.72475,-0.89142 3.34126,-0.89142 1.05951,0 1.86356,0.11834 1.86356,0.27428 0,0.27194 -0.189,0.30379 -2.35383,0.39666 -0.71435,0.0306 -1.63409,0.36465 -2.54126,0.92283 -1.5124,0.93059 -2.07651,1.08872 -1.8976,0.53194 z m -0.61303,-2.33228 c 0,-0.35642 0.65984,-0.61629 1.56484,-0.61629 0.38342,0 1.99587,-0.43459 3.58324,-0.96576 1.58737,-0.53116 2.92858,-0.9233 2.98048,-0.8714 0.0519,0.0519 -0.0587,0.29104 -0.24568,0.53143 -0.71972,0.92517 -7.88288,2.67171 -7.88288,1.92202 z m 12.89143,-0.59166 c 0,-0.50084 2.17652,-2.98605 3.1327,-3.577 1.18925,-0.735 1.94599,-0.62646 1.00234,0.14376 -1.90707,1.5566 -2.53821,2.17245 -2.96254,2.89078 -0.44185,0.74799 -1.1725,1.08602 -1.1725,0.54246 z m -30.58059,-1.66668 c -0.092,-0.14884 -1.05584,-0.53503 -2.1419,-0.85819 -2.65006,-0.78855 -5.44839,-2.27233 -6.76097,-3.5849 -1.2638,-1.2638 -2.58286,-3.40446 -2.33997,-3.79746 0.25196,-0.40767 0.62557,-0.0777 1.21084,1.06957 1.22296,2.3972 3.60428,4.08414 7.61206,5.39241 2.35884,0.77 3.47897,1.38911 3.23309,1.78695 -0.20974,0.33937 -0.60072,0.33534 -0.81315,-0.008 z m -16.05748,-1.00488 c -0.60953,-0.55067 -2.0121,-2.12438 -3.11683,-3.49714 -2.24012,-2.7836 -2.70533,-3.26139 -6.03559,-6.19879 -2.24337,-1.97871 -2.79757,-2.92151 -1.89248,-3.21943 0.50944,-0.16768 6.77832,5.79322 8.75573,8.32558 0.97333,1.24649 2.39567,2.82915 3.16075,3.51703 0.89848,0.80781 1.33513,1.39644 1.2331,1.66232 -0.25544,0.66567 -0.92193,0.47897 -2.10468,-0.58957 z m 30.59308,-2.56333 c -0.1862,-0.30127 -0.049,-0.36813 3.70082,-1.80397 2.87834,-1.10213 5.3573,-1.70979 5.67578,-1.3913 0.26005,0.26004 -0.43604,0.71575 -1.10182,0.72133 -0.2759,0.002 -2.14845,0.62134 -4.16122,1.37563 -4.07094,1.52559 -3.88085,1.47483 -4.11356,1.09831 z m 13.57642,-0.42763 c 0,-0.33682 0.26932,-0.40888 1.28142,-0.34285 1.82996,0.11938 1.92532,0.76931 0.11287,0.76931 -1.07835,0 -1.39429,-0.0966 -1.39429,-0.42646 z m -22.49143,-0.78332 c -2.18451,-0.82567 -5.14432,-2.3475 -6.17143,-3.17314 -0.60342,-0.48506 -1.45075,-1.06556 -1.88294,-1.28999 -0.52779,-0.27408 -0.69506,-0.4988 -0.50945,-0.68441 0.33602,-0.33602 1.0315,-0.004 2.94097,1.40192 1.50264,1.10677 6.03009,3.30969 6.80208,3.30969 0.2666,0 1.11004,-0.31687 1.87431,-0.70416 1.35704,-0.68766 1.85098,-0.73162 1.48023,-0.13173 -0.23213,0.3756 -2.75059,1.66282 -3.22179,1.6467 -0.19359,-0.007 -0.78398,-0.17532 -1.31198,-0.37488 z m 6.71181,-1.27204 c -0.2636,-0.42653 1.50967,-1.31832 4.67105,-2.3491 2.38838,-0.77874 3.49727,-0.99234 5.32105,-1.02499 1.47844,-0.0265 2.342,0.068 2.41022,0.26372 0.0707,0.20281 -0.74686,0.35583 -2.44105,0.45688 -2.57406,0.15353 -5.16645,0.85462 -8.32464,2.25132 -0.81488,0.36037 -1.55071,0.54119 -1.63663,0.40217 z m 14.89534,-1.6805 c 0.41385,-0.41415 3.30605,-0.48961 3.41523,-0.0891 0.0432,0.15843 -0.73627,0.30915 -1.84523,0.35683 -1.55752,0.067 -1.85393,0.0164 -1.57,-0.26772 z m -18.04143,-1.06021 c 0,-0.3028 1.07635,-1.93046 1.46438,-2.21444 0.32889,-0.2407 1.54807,0.37693 1.55062,0.78554 0.001,0.18857 -0.31952,0.34286 -0.71267,0.34286 -0.43577,0 -0.92537,0.26768 -1.25419,0.68571 -0.55859,0.71012 -1.04814,0.8971 -1.04814,0.40033 z m -3.61931,-3.15106 c -0.0798,-0.0798 0.024,-0.85119 0.23057,-1.71428 0.20657,-0.8631 0.30288,-2.0276 0.21404,-2.58778 -0.18281,-1.15254 0.0798,-1.87667 0.46193,-1.27363 0.33482,0.52841 0.29954,3.06373 -0.0626,4.50211 -0.28823,1.14467 -0.50149,1.41598 -0.84389,1.07358 z m 8.71202,-1.00331 c -0.10937,-0.34308 -0.6907,-3.50149 -0.79289,-4.30786 -0.0266,-0.21005 0.0945,-0.43255 0.2692,-0.49444 0.30786,-0.10908 1.19098,3.06033 1.19098,4.2743 0,0.64789 -0.50235,1.04538 -0.66729,0.528 z m -18.41407,-1.68097 c -0.16031,-0.41776 0.8556,-2.82237 1.31142,-3.10408 0.6395,-0.39524 0.59503,0.3406 -0.10439,1.72721 -0.95225,1.88786 -0.99307,1.93442 -1.20703,1.37687 z m 22.22837,-3.15568 c -0.70708,-0.76759 -2.14138,-2.52437 -3.18733,-3.90393 -1.50959,-1.99109 -1.83658,-2.586817 -1.58577,-2.889031 0.46197,-0.556639 0.90644,-0.200628 2.66705,2.136251 0.86061,1.14231 2.17131,2.77589 2.91266,3.63018 1.22989,1.41726 1.30986,1.59129 0.91344,1.98771 -0.39641,0.39642 -0.54701,0.31226 -1.72005,-0.96118 z m -23.60481,-0.82671 c 0.85595,-1.65522 5.13673,-6.628311 5.70557,-6.628311 0.53985,0 0.0885,0.751124 -1.42098,2.364771 -0.89984,0.96193 -2.15843,2.48966 -2.79686,3.39495 -1.22801,1.74133 -2.24654,2.33598 -1.48773,0.86859 z m 10.30923,-1.1498 c 0,-0.15483 0.15157,-1.08054 0.33683,-2.05715 0.22357,-1.17855 0.46595,-1.775646 0.72077,-1.775646 0.41229,0 0.32921,1.045366 -0.24523,3.085716 -0.26237,0.93191 -0.81237,1.4377 -0.81237,0.74708 z M 166.08,101.37389 c -2.41865,-2.478239 -6.41675,-5.696922 -8.29614,-6.67884 -1.60425,-0.838165 -1.87779,-1.319552 -0.6052,-1.065032 1.1058,0.221159 2.77316,1.37299 6.46336,4.464959 3.14736,2.637123 4.59719,4.226573 4.44542,4.873483 -0.0517,0.2204 -0.87211,-0.43127 -2.00744,-1.59457 z m 4.71281,-1.32818 c -2.49109,-3.356936 -4.36422,-5.242179 -5.80776,-5.845328 -1.02795,-0.429504 -1.38354,-0.819974 -0.97608,-1.071804 0.4354,-0.269087 2.45329,0.90216 3.92335,2.277225 1.32932,1.243423 5.15976,6.287877 5.50186,7.245627 0.4214,1.17973 -0.52539,0.24571 -2.64137,-2.60572 z M 132.48,102.61042 c 0,-0.60766 3.58845,-5.488314 4.04571,-5.502581 0.5752,-0.01795 0.39754,0.38344 -0.97869,2.211256 -0.72686,0.965355 -1.55576,2.156335 -1.842,2.646615 -0.4817,0.82507 -1.22502,1.21627 -1.22502,0.64471 z m 19.09908,-0.78185 c -1.1578,-0.96385 -1.6012,-1.71428 -1.01291,-1.71428 0.14169,0 0.82805,0.49371 1.52526,1.09714 0.6972,0.60343 1.38357,1.09714 1.52525,1.09714 0.14168,0 0.2576,0.12343 0.2576,0.27429 0,0.59214 -1.11997,0.22408 -2.2952,-0.75429 z m -23.48765,-0.0409 c 0,-0.39438 1.962,-3.203981 3.42724,-4.907843 2.58863,-3.010194 6.20584,-5.768248 7.61276,-5.804576 0.64251,-0.01659 0.61315,0.45695 -0.0412,0.664635 -1.10449,0.350551 -3.96763,2.418662 -5.42959,3.921921 -1.61761,1.663298 -4.74635,5.698813 -4.74635,6.121943 0,0.13779 -0.18514,0.25054 -0.41142,0.25054 -0.22629,0 -0.41143,-0.11098 -0.41143,-0.24662 z m -11.09634,-3.025015 c -0.24305,-0.393265 3.23928,-4.592025 5.30951,-6.401852 4.10445,-3.588169 12.42203,-8.65417 15.0041,-9.138569 l 1.00041,-0.187679 -0.1464,-1.402992 c -0.24139,-2.313312 -1.0525,-5.254447 -1.95393,-7.085027 -0.68511,-1.391305 -1.14074,-1.915425 -2.36286,-2.718061 -2.67603,-1.757494 -12.349,-5.415294 -16.68957,-6.311098 -1.73968,-0.359036 -2.30578,-0.820517 -1.72229,-1.404006 0.92584,-0.925844 15.54857,4.145391 19.3012,6.693751 l 1.60058,1.086932 1.45566,-0.832844 c 3.22014,-1.842376 5.06227,-4.073361 5.63224,-6.821151 0.46987,-2.265169 0.71377,-9.20436 0.35561,-10.116922 -0.16721,-0.426011 -0.98809,-2.56428 -1.8242,-4.751709 -0.8361,-2.187428 -1.91818,-4.741577 -2.40464,-5.675886 -0.90416,-1.736584 -0.86227,-2.678907 0.0645,-1.451444 0.64145,0.849552 1.27396,2.252758 2.90362,6.441616 0.70428,1.810286 1.36296,3.384231 1.46374,3.497657 0.30276,0.34078 1.09799,-8.46805 1.0809,-11.973248 -0.0158,-3.237356 0.22199,-7.264518 0.48341,-8.187266 0.0748,-0.264 0.39043,-0.48 0.70141,-0.48 0.54457,0 0.55885,0.09862 0.38709,2.674286 -0.0981,1.470857 -0.24333,4.834285 -0.32277,7.474285 -0.0794,2.64 -0.31316,6.256548 -0.51937,8.036773 -0.34202,2.952737 -0.3303,3.506333 0.13356,6.308572 0.57786,3.49099 0.79919,4.312322 1.56365,5.802403 l 0.54334,1.059085 0.19413,-1.757702 c 0.36337,-3.290029 1.95709,-8.682777 2.86633,-9.698906 0.27642,-0.308909 0.90067,-1.271368 1.38724,-2.138796 0.48657,-0.867429 0.99176,-1.577143 1.12264,-1.577143 0.55431,0 0.46029,0.517051 -0.30909,1.69982 -1.88679,2.900548 -3.97056,10.514259 -3.74405,13.680027 0.0755,1.055856 0.22182,2.004199 0.32505,2.107429 0.37631,0.376309 2.58312,-1.105582 4.61721,-3.100494 1.14624,-1.124159 2.19737,-2.043925 2.33585,-2.043925 0.13848,0 0.47518,-0.246857 0.74823,-0.548571 0.57373,-0.633962 0.96,-0.707496 0.96,-0.182754 0,0.53461 -3.97431,4.724904 -5.66826,5.976293 -1.35993,1.004643 -1.44912,1.142239 -1.38277,2.133181 0.078,1.164736 1.03846,2.411391 3.21753,4.176266 1.87697,1.520203 2.91319,1.964918 4.07191,1.747542 0.54704,-0.102626 1.05662,-0.28057 1.13239,-0.395431 0.35885,-0.54395 5.20465,-3.987075 8.77777,-6.236935 4.49884,-2.832746 9.99851,-5.633634 10.82843,-5.514736 0.81411,0.116633 0.71721,1.093008 -0.13128,1.322868 -2.31078,0.625998 -13.17257,6.988444 -15.90858,9.318663 l -0.68571,0.584015 0.96,-0.148083 c 5.33483,-0.822915 13.41557,-0.931431 14.75941,-0.198204 0.84489,0.460994 0.68351,1.295209 -0.23083,1.193182 -6.18301,-0.689935 -13.4426,-0.281513 -16.31144,0.917676 -1.55564,0.650267 -6.38442,6.002355 -6.88614,7.632423 -0.0977,0.31729 -0.57798,1.132319 -1.06736,1.811176 -0.48939,0.678857 -1.10373,1.654082 -1.3652,2.167166 -1.08058,2.12044 -2.33844,7.02318 -2.33844,9.114512 0,1.333633 -0.40219,2.158322 -1.0526,2.158322 -0.54394,0 -3.61026,-3.16438 -3.61026,-3.725723 0,-0.776018 -2.21593,-5.415879 -3.0432,-6.372056 -2.21603,-2.56133 -4.11869,-3.074415 -6.78975,-1.83097 -0.80698,0.375669 -1.63979,0.683035 -1.85069,0.683035 -0.82266,0 -4.04437,1.761439 -6.74306,3.686694 -3.92348,2.799031 -5.93633,4.604323 -7.86191,7.051219 -1.79231,2.277555 -2.11442,2.573925 -2.36201,2.173314 z m 33.32525,-10.636401 c 0.77343,-2.35092 1.6182,-4.037791 2.7034,-5.398256 0.4678,-0.586458 0.85054,-1.2151 0.85054,-1.396984 0,-0.508855 2.54818,-3.98859 3.81071,-5.203823 0.61954,-0.59633 1.12588,-1.151759 1.12521,-1.234286 -6.8e-4,-0.08253 -0.4384,-0.17253 -0.97272,-0.200007 -2.97461,-0.15297 -8.13756,-5.393222 -11.03059,-11.195756 -0.75214,-1.508571 -1.42469,-2.928 -1.49456,-3.154285 -0.0699,-0.226286 -0.21695,0.822857 -0.32686,2.331428 -0.17504,2.402428 -0.31512,2.949847 -1.12862,4.410583 -1.08229,1.943397 -2.59571,3.417159 -5.01733,4.885862 -1.32398,0.802989 -1.68719,1.156251 -1.54206,1.499831 1.19375,2.826178 2.30258,7.148378 2.32104,9.047385 0.006,0.573054 0.2294,0.830115 1.05287,1.209203 2.17429,1.00095 3.85049,3.146872 5.39384,6.905371 0.55325,1.347314 1.39159,2.929598 1.86298,3.516185 l 0.85708,1.066523 0.46102,-2.612788 c 0.25356,-1.437033 0.73688,-3.451317 1.07405,-4.476186 z m -9.33748,8.370718 c 0,-0.51346 1.19734,-2.138737 1.57714,-2.140813 0.49817,-0.0027 0.42922,0.25545 -0.38016,1.423383 -0.72417,1.044971 -1.19698,1.328362 -1.19698,0.71743 z m -1.92,-1.691815 c 0,-0.467389 1.85354,-2.919443 2.20685,-2.919443 0.48519,0 0.26686,0.555938 -0.75683,1.927124 -1.03148,1.38163 -1.45002,1.668057 -1.45002,0.992319 z m 37.13985,-1.714931 c -5.08599,-3.425393 -6.97128,-4.98201 -5.71874,-4.721767 0.63442,0.131816 6.66464,4.415622 6.84043,4.85937 0.25576,0.645636 -0.007,0.613461 -1.12169,-0.137603 z M 112.8854,93.01008 c -0.29201,-0.472469 1.36707,-2.390118 3.60959,-4.17217 2.81609,-2.237843 7.73686,-4.487202 8.38922,-3.834841 0.2852,0.285198 0.11395,0.395625 -1.3185,0.850227 -3.20464,1.017025 -7.26636,3.699081 -9.42323,6.222396 -0.6724,0.786646 -1.13561,1.130944 -1.25708,0.934388 z m 16.30317,0.0092 c 0,-0.22365 2.01636,-1.682163 2.32555,-1.682163 0.0787,0 0.14302,0.175076 0.14302,0.389058 0,0.213982 -0.41571,0.645982 -0.9238,0.96 -0.97744,0.604088 -1.54477,0.726425 -1.54477,0.333105 z m 50.46857,-2.447692 c -0.48228,-0.167547 -6.80971,-4.69582 -7.00653,-5.014282 -0.0736,-0.119113 -0.0127,-0.291418 0.13528,-0.3829 0.21958,-0.135707 2.56446,1.433439 7.2634,4.860522 0.56316,0.410731 0.29636,0.775849 -0.39215,0.53666 z m -11.52,-3.398855 c -0.37714,-0.319231 -1.45714,-0.933496 -2.4,-1.365034 -1.57611,-0.721373 -2.20768,-1.33158 -1.37143,-1.325045 1.02744,0.008 5.14286,2.431435 5.14286,3.028422 0,0.434839 -0.64638,0.275371 -1.37143,-0.338343 z m 3.56689,-0.927851 c -2.42845,-1.714058 -6.48628,-3.462704 -9.05167,-3.900651 -1.40136,-0.23923 -1.83942,-0.881399 -0.60125,-0.881399 2.51543,0 11.02317,3.944489 11.02317,5.110734 0,0.517827 -0.25892,0.455718 -1.37025,-0.328684 z m 10.97143,-1.371429 c -1.49436,-1.054756 -4.84027,-2.704776 -7.47546,-3.686491 -1.41095,-0.525636 -2.4,-1.048642 -2.4,-1.269113 0,-0.20626 0.0792,-0.375017 0.17602,-0.375017 0.43054,0 6.63103,2.575311 7.75978,3.222947 2.03225,1.166029 3.5842,2.27027 3.5842,2.550229 0,0.43956 -0.63804,0.26786 -1.64454,-0.442555 z m -76.09721,-1.461099 c -0.55518,-0.898291 8.09917,-6.869369 12.18746,-8.408752 1.13143,-0.426023 2.20962,-0.888586 2.39597,-1.02792 0.19747,-0.147638 1.59932,-0.17099 3.36,-0.05597 2.40993,0.157432 3.02118,0.280314 3.02118,0.607361 0,0.344283 -0.34072,0.380663 -2.12572,0.226974 -2.48317,-0.213802 -4.93289,0.262917 -7.626,1.484032 -2.78751,1.263919 -7.23372,4.127412 -9.05695,5.832959 -1.76998,1.655732 -1.9084,1.741849 -2.15594,1.341317 z m 0.11889,-7.257489 c 0,-0.927106 7.79143,-3.503007 11.90004,-3.934233 1.31641,-0.138167 1.59063,-0.09824 1.48594,0.216383 -0.0789,0.237174 -0.7348,0.462211 -1.70241,0.584106 -2.52838,0.318512 -7.83911,1.794006 -9.66008,2.683885 -1.91182,0.934273 -2.02349,0.959099 -2.02349,0.449859 z m 73.50857,-0.768338 c -0.528,-0.141424 -2.9249,-0.34411 -5.32644,-0.450415 -3.36813,-0.14909 -4.39551,-0.280953 -4.49354,-0.576742 -0.10665,-0.321786 0.55153,-0.358181 4.09216,-0.226281 4.41981,0.164652 7.45891,0.627921 7.29742,1.112392 -0.13491,0.404704 -0.47211,0.435006 -1.5696,0.141046 z m -9.72269,-5.694599 c -0.48414,-0.783364 5.84496,-1.770615 9.32782,-1.455008 2.97382,0.26948 2.69332,0.770977 -0.367,0.656129 -2.06876,-0.07764 -6.26819,0.401753 -8.19003,0.934943 -0.3224,0.08945 -0.66926,0.02822 -0.77079,-0.136064 z M 131.91508,59.451428 c -0.5662,-1.413041 -7.72517,-8.3896 -10.2008,-9.940874 -1.16914,-0.732608 -2.12571,-1.4339 -2.12571,-1.558427 0,-1.124348 4.20157,1.79403 8.26831,5.743109 3.26785,3.173294 4.8974,5.218335 4.8974,6.146074 0,0.793348 -0.4486,0.584933 -0.8392,-0.389882 z m 36.22206,-0.479686 c 0,-1.046827 7.27846,-6.583171 8.6547,-6.583171 0.6907,0 0.42983,0.517867 -0.4947,0.982028 -1.73592,0.871524 -4.73379,3.014148 -6.20542,4.435115 -1.46717,1.416663 -1.95458,1.707431 -1.95458,1.166028 z m -41.94141,-1.794655 c -0.96721,-0.815724 -2.54047,-1.887416 -3.49613,-2.381539 -0.95566,-0.494123 -1.73803,-1.052691 -1.73859,-1.241263 -0.001,-0.487655 0.1218,-0.452422 2.15317,0.615566 2.10721,1.107867 5.25153,3.591106 5.25153,4.147421 0,0.597137 -0.29188,0.443773 -2.16998,-1.140185 z m 9.34166,-2.964576 c -0.60856,-1.108834 -1.854,-3.133626 -2.76765,-4.499538 -0.91364,-1.365912 -1.66117,-2.556971 -1.66117,-2.646797 0,-0.08982 0.16662,-0.163319 0.37026,-0.163319 0.60157,0 4.98057,6.912555 5.51675,8.708571 0.38433,1.287362 -0.39333,0.541317 -1.45819,-1.398917 z m 1.39847,-5.200244 c -0.13591,-0.179604 -0.56593,-0.881982 -0.95559,-1.560839 -0.38966,-0.678857 -1.08977,-1.596806 -1.5558,-2.039888 -0.87711,-0.833915 -1.08595,-1.620258 -0.52277,-1.968324 0.58589,-0.362099 4.06401,4.028086 4.06401,5.129709 0,0.580667 -0.69768,0.878304 -1.02985,0.439342 z m 21.327,-5.406665 c 0,-0.344776 2.01712,-2.375529 5.5855,-5.623231 2.92902,-2.665809 3.19164,-2.850416 3.19164,-2.243592 0,0.220901 -1.67787,1.927226 -3.72859,3.791834 -2.05073,1.864609 -3.84479,3.607301 -3.9868,3.872649 -0.27675,0.517121 -1.06175,0.66672 -1.06175,0.20234 z m -5.75853,-2.119888 c 0.002,-0.334853 3.00987,-6.146567 3.64952,-7.052411 0.81202,-1.149947 1.64788,-1.802883 1.94127,-1.516427 0.14051,0.137191 -0.11474,0.596373 -0.60285,1.084476 -0.46559,0.465597 -1.6244,2.385804 -2.57512,4.267128 -0.95072,1.881323 -1.88287,3.421119 -2.07144,3.421768 -0.18857,6.49e-4 -0.34219,-0.09139 -0.34138,-0.204534 z m -23.31576,-0.34203 c 0,-0.150403 -0.864,-1.183026 -1.92,-2.29472 -1.78255,-1.876562 -2.27001,-2.64325 -1.68058,-2.64325 0.47625,0 4.14915,4.128372 4.14915,4.663684 0,0.30126 -0.12343,0.547745 -0.27428,0.547745 -0.15086,0 -0.27429,-0.123057 -0.27429,-0.273459 z m 6.74923,-2.853635 c -0.52119,-0.814759 -1.77078,-2.353962 -2.77685,-3.420452 -2.45366,-2.601007 -2.16029,-3.238835 0.33164,-0.721026 1.91644,1.936347 3.92455,4.636141 3.92455,5.276339 0,0.726635 -0.56661,0.291964 -1.47934,-1.134861 z m 57.2884,125.184231 c 0.0581,-4.14857 0.24507,-10.50514 0.41551,-14.12571 0.17043,-3.62057 0.27871,-8.24914 0.24062,-10.28571 -0.0381,-2.03658 -0.0435,-7.69238 -0.0119,-12.56847 0.0316,-4.87608 0.007,-8.94923 -0.0538,-9.05143 -0.0611,-0.1022 -0.1922,-4.93782 -0.29125,-10.74582 -0.0991,-5.808 -0.23568,-11.423998 -0.30363,-12.479998 -0.21183,-3.291988 -0.68872,-7.936588 -1.04585,-10.185963 l -0.34245,-2.156894 -0.21285,1.645714 c -0.6999,5.411522 -1.63919,9.862871 -2.74918,13.028572 -0.66118,1.885714 -1.5367,4.724569 -1.9456,6.308569 -0.40889,1.584 -0.86316,3.10519 -1.00949,3.38042 -0.14632,0.27524 -0.31577,1.13924 -0.37655,1.92 -0.28295,3.63481 -0.4651,5.1122 -0.82807,6.7166 -0.21543,0.95222 -0.39169,2.04163 -0.39169,2.42092 0,0.37928 -0.30099,2.00705 -0.66887,3.61726 -0.36788,1.61021 -1.04399,4.65566 -1.50247,6.76766 -0.45849,2.112 -1.19117,5.15151 -1.62819,6.75447 -0.72954,2.67589 -0.77577,3.11373 -0.56465,5.34857 0.13998,1.48177 0.71821,4.09745 1.47794,6.68553 0.68639,2.33829 1.54556,5.30552 1.90926,6.59385 0.74273,2.63093 1.54552,4.77833 4.8153,12.88044 1.34802,3.34022 2.59445,6.95903 3.07036,8.91428 1.41991,5.83361 1.427,5.83651 1.67447,0.68572 0.11959,-2.48915 0.26496,-7.92 0.32305,-12.06858 z"
       id="path1" />
  </g>
</svg>
