<?xml version="1.0" encoding="UTF-8" standalone="no"?>
<!-- Created with Inkscape (http://www.inkscape.org/) -->

<svg
   version="1.1"
   id="svg1"
   width="294.58286"
   height="294.58286"
   viewBox="0 0 294.58286 294.58286"
   sodipodi:docname="two-hole-cheval-bovine-spots.svg"
   inkscape:version="1.4 (86a8ad7, 2024-10-11)"
   xmlns:inkscape="http://www.inkscape.org/namespaces/inkscape"
   xmlns:sodipodi="http://sodipodi.sourceforge.net/DTD/sodipodi-0.dtd"
   xmlns="http://www.w3.org/2000/svg"
   xmlns:svg="http://www.w3.org/2000/svg">
  <defs
     id="defs1" />
  <sodipodi:namedview
     id="namedview1"
     pagecolor="#ffffff"
     bordercolor="#000000"
     borderopacity="0.25"
     inkscape:showpageshadow="2"
     inkscape:pageopacity="0.0"
     inkscape:pagecheckerboard="0"
     inkscape:deskcolor="#d1d1d1"
     inkscape:zoom="2.766624"
     inkscape:cx="147.47215"
     inkscape:cy="147.29143"
     inkscape:window-width="1920"
     inkscape:window-height="1017"
     inkscape:window-x="-8"
     inkscape:window-y="-8"
     inkscape:window-maximized="1"
     inkscape:current-layer="g1" />
  <g
     inkscape:groupmode="layer"
     inkscape:label="Image"
     id="g1">
    <path
       style="fill:#000000"
       d="m 146.24926,260.82616 c -5.60345,-0.55191 -8.03707,-1.16863 -12.12355,-3.07234 -2.29052,-1.06705 -6.68608,-3.95682 -9.3664,-6.15774 -5.44771,-4.47334 -11.17935,-12.84352 -14.45932,-21.11561 -1.80833,-4.56059 -2.70891,-8.22916 -3.33822,-13.59844 -0.15531,-1.32517 -0.40182,-3.03916 -0.5478,-3.80887 -0.44083,-2.32452 -0.30787,-7.37752 0.29264,-11.12074 0.68754,-4.28573 1.99793,-7.54943 5.45728,-13.59201 3.93803,-6.87871 7.10983,-11.36565 10.11918,-14.31492 4.7832,-4.68772 9.72504,-8.27791 12.85894,-9.3419 1.99716,-0.67806 6.90785,-1.06647 9.19377,-0.72719 2.12422,0.31528 4.97643,1.56725 5.85898,2.57178 0.53809,0.61247 0.5461,0.8195 0.30549,7.89753 -0.30098,8.85443 -0.30321,9.25279 -0.065,11.65715 0.13199,1.33261 0.0655,2.46543 -0.21725,3.70285 -1.63612,7.15946 -1.56008,6.33563 -1.48091,16.04572 l 0.0738,9.05143 0.75676,1.35855 c 0.41622,0.7472 0.95749,1.58034 1.20281,1.85143 0.64141,0.70875 1.62105,0.61524 2.19965,-0.20997 0.27104,-0.38656 0.78426,-1.06871 1.14048,-1.51588 0.35623,-0.44717 0.75422,-1.27261 0.88443,-1.8343 0.30391,-1.31098 -0.19629,-5.52874 -0.72496,-6.11291 -0.27396,-0.30272 -0.39572,-1.09913 -0.39572,-2.58835 0,-1.5553 -0.1174,-2.28083 -0.4239,-2.6195 -0.36662,-0.40512 -0.38339,-0.83421 -0.12407,-3.17588 0.1649,-1.48911 0.41327,-5.17605 0.55193,-8.19319 0.21623,-4.70505 0.19485,-5.52906 -0.15021,-5.79024 -0.31628,-0.2394 -0.40232,-1.04591 -0.40232,-3.77143 v -3.46691 l 1.44,0.005 c 2.18369,0.007 4.9575,0.68921 7.14914,1.75774 4.05783,1.97838 9.22075,6.87795 12.73872,12.08892 1.12029,1.65943 2.89817,4.25143 3.95085,5.76 2.09366,3.00038 4.45041,7.61516 5.53303,10.83429 0.38052,1.13143 1.00158,2.79771 1.38015,3.70286 1.2243,2.92724 2.34867,10.34875 2.55562,16.86857 0.11884,3.74391 0.0475,5.10961 -0.41322,7.90578 -0.30629,1.85903 -0.7524,3.64875 -0.99137,3.97714 -0.23896,0.32839 -0.72857,1.03662 -1.08801,1.57384 -2.22599,3.32698 -8.24983,9.1063 -11.61933,11.14768 -5.81822,3.52491 -14.39009,6.35294 -20.49843,6.76283 -1.056,0.0709 -4.30212,-0.10578 -7.2136,-0.39254 z m -31.6664,-97.23447 c -0.91632,-0.49712 -0.92105,-0.62653 -0.11037,-3.01793 0.64023,-1.88857 1.0918,-3.70582 1.40899,-5.67022 0.18827,-1.16597 1.1568,-1.85211 2.61436,-1.85211 1.32443,0 1.79825,0.40151 2.72942,2.3129 0.76585,1.57206 0.83157,1.88868 0.58422,2.81491 -0.15328,0.57399 -0.35134,1.50829 -0.44013,2.07623 -0.22203,1.42016 -1.66212,2.80658 -3.47417,3.34471 -1.74685,0.51875 -2.34327,0.51723 -3.31232,-0.008 z m 77.91078,-14.88234 c -0.75288,-0.69398 -1.5518,-1.82004 -2.02815,-2.85861 -0.73555,-1.60374 -0.78629,-1.9422 -0.79143,-5.27931 -0.003,-2.23459 0.17693,-4.58966 0.48317,-6.30857 0.26876,-1.50858 0.59221,-4.61001 0.71878,-6.89209 0.25197,-4.54315 0.70392,-6.03922 2.43338,-8.05506 l 0.82239,-0.95857 0.18499,3.15286 c 0.10175,1.73407 0.20838,4.38714 0.23697,5.89571 0.0792,4.18199 -0.41137,21.3235 -0.62743,21.92147 -0.17215,0.47649 -0.30994,0.41706 -1.43267,-0.61783 z m -65.63955,-26.74539 c -2.34006,-0.87026 -3.71249,-1.91184 -6.99123,-5.30585 -2.47873,-2.56588 -3.12491,-3.43885 -4.63775,-6.2654 -0.96676,-1.80628 -2.40699,-4.395 -3.20051,-5.75271 -1.80782,-3.0932 -2.77992,-5.29247 -4.84947,-10.971429 -2.50504,-6.873943 -2.80723,-9.101248 -2.0096,-14.811429 0.59025,-4.225492 1.58467,-6.389608 4.24224,-9.232199 2.08634,-2.231597 4.50963,-3.814587 7.04505,-4.602113 1.93049,-0.599626 3.10183,-0.422984 6.70146,1.010594 1.13143,0.450599 3.3173,1.208029 4.85749,1.683177 1.54018,0.475148 2.8979,1.0223 3.01714,1.215894 0.11924,0.193594 0.82616,0.703988 1.57093,1.134209 3.33916,1.928901 5.47373,5.137252 5.86707,8.818477 0.24194,2.264263 1.13654,3.887662 3.63669,6.599366 0.95732,1.038332 1.73774,2.202038 2.02338,3.017143 0.25574,0.729785 0.78462,2.005738 1.17528,2.835452 1.01347,2.152483 1.15918,5.593197 0.3704,8.746258 -0.31654,1.26529 -0.57552,2.8522 -0.57552,3.52646 0,0.67427 -0.17582,2.04588 -0.39072,3.04804 -0.2149,1.00215 -0.5329,2.61571 -0.70665,3.58568 -0.42849,2.39194 -1.61651,4.63219 -3.46232,6.5289 -0.84665,0.86999 -1.85268,1.98906 -2.23562,2.48682 -0.88038,1.14437 -2.59013,2.15091 -4.79002,2.81991 -2.279,0.69306 -4.59189,0.65302 -6.65772,-0.11525 z m 48.96305,-46.297216 c -2.96433,-0.604379 -7.10337,-1.682663 -8.37983,-2.183076 l -1.38555,-0.543179 -1.58526,0.725756 c -1.45239,0.664928 -1.8196,0.717081 -4.38131,0.622254 -5.12963,-0.189885 -6.93325,-1.67534 -10.93801,-9.008499 -3.17799,-5.819236 -3.8014,-7.301923 -4.95956,-11.795502 -0.9018,-3.49894 -0.97132,-4.099666 -1.26947,-10.970213 -0.32317,-7.446916 -0.25093,-8.671187 0.66305,-11.236726 0.71817,-2.015915 1.6694,-3.403753 3.48521,-5.084865 2.16314,-2.002687 3.68009,-2.714012 5.24917,-2.461421 5.10889,0.822429 10.58438,3.111911 15.88171,6.640668 3.57661,2.382513 6.41906,5.012808 10.35705,9.584014 5.65228,6.561147 7.723,10.01677 9.87585,16.48079 1.06238,3.189841 2.19838,8.851098 2.19838,10.95563 0,2.362394 -2.49124,5.825601 -5.1758,7.19516 -2.50854,1.279766 -6.47371,1.723872 -9.63563,1.079209 z"
       id="path1" />
  </g>
</svg>
