<?xml version="1.0" encoding="UTF-8" standalone="no"?>
<!-- Created with Inkscape (http://www.inkscape.org/) -->

<svg
   version="1.1"
   id="svg1"
   width="294.58286"
   height="294.58286"
   viewBox="0 0 294.58286 294.58286"
   sodipodi:docname="two-hole-canine-outline.svg"
   inkscape:version="1.4 (86a8ad7, 2024-10-11)"
   xmlns:inkscape="http://www.inkscape.org/namespaces/inkscape"
   xmlns:sodipodi="http://sodipodi.sourceforge.net/DTD/sodipodi-0.dtd"
   xmlns="http://www.w3.org/2000/svg"
   xmlns:svg="http://www.w3.org/2000/svg">
  <defs
     id="defs1" />
  <sodipodi:namedview
     id="namedview1"
     pagecolor="#ffffff"
     bordercolor="#000000"
     borderopacity="0.25"
     inkscape:showpageshadow="2"
     inkscape:pageopacity="0.0"
     inkscape:pagecheckerboard="0"
     inkscape:deskcolor="#d1d1d1"
     inkscape:zoom="2.766624"
     inkscape:cx="147.47215"
     inkscape:cy="147.29143"
     inkscape:window-width="1920"
     inkscape:window-height="1017"
     inkscape:window-x="-8"
     inkscape:window-y="-8"
     inkscape:window-maximized="1"
     inkscape:current-layer="g1" />
  <g
     inkscape:groupmode="layer"
     inkscape:label="Image"
     id="g1">
    <path
       style="fill:#000000;stroke:none;fill-opacity:1"
       d="m 141.94286,266.62331 c -0.60343,-0.12581 -1.678,-0.29742 -2.38794,-0.38135 -1.50902,-0.17841 -2.0555,-0.43384 -3.95878,-1.85039 -2.3248,-1.73029 -3.99897,-4.65953 -6.10248,-10.67729 -2.32571,-6.65341 -4.18554,-9.77904 -9.52556,-16.00863 -1.45882,-1.70184 -4.74971,-6.19185 -6.59926,-9.00389 -2.38044,-3.61919 -5.734,-10.899 -7.11481,-15.44462 -0.91835,-3.02321 -1.78792,-8.01426 -1.91151,-10.97143 -0.0976,-2.33531 -0.1616,-2.55741 -1.18554,-4.11428 -1.15522,-1.75649 -3.12587,-6.43671 -3.611587,-8.57737 -0.476543,-2.10025 -0.392513,-13.54061 0.116495,-15.86035 0.258931,-1.18004 0.446032,-3.52245 0.475242,-5.94979 0.041,-3.40929 -0.0195,-4.07118 -0.407784,-4.45947 -1.825677,-1.82568 -2.604533,-6.46771 -1.861705,-11.09588 0.181595,-1.13143 0.44788,-3.41486 0.591744,-5.07429 0.143864,-1.65942 0.442006,-4.06628 0.662537,-5.34857 0.711295,-4.13585 0.716363,-4.52658 0.07158,-5.51853 -1.153958,-1.77528 -2.400367,-3.96791 -3.099718,-5.4529 -1.036552,-2.20098 -0.954851,-4.42984 0.267494,-7.29738 0.507689,-1.19101 1.020777,-2.53576 1.140195,-2.98833 0.119419,-0.45257 0.250104,-4.032 0.290412,-7.95429 0.04045,-3.93589 0.208781,-7.71425 0.375666,-8.43212 0.355312,-1.52839 0.08422,-14.196446 -0.303797,-14.196446 -0.133634,0 -0.545932,-0.302961 -0.916218,-0.673247 -0.553896,-0.553896 -0.673247,-0.944507 -0.673247,-2.203404 0,-1.789411 0.713029,-3.388052 2.791931,-6.259626 1.353584,-1.869696 1.543184,-2.404767 2.414924,-6.815002 0.16864,-0.853203 0.84533,-2.642917 1.50375,-3.977143 1.50332,-3.046361 2.30095,-5.476614 2.14652,-6.54015 -0.17918,-1.23398 0.67427,-6.058808 1.28268,-7.25139 0.29331,-0.574925 0.93423,-1.382694 1.42428,-1.795042 0.76808,-0.646297 0.88016,-0.899806 0.81244,-1.837645 -0.14587,-2.020353 2.3508,-5.901642 4.33826,-6.744198 0.53715,-0.22772 1.6555,-0.493506 2.48521,-0.590636 1.13431,-0.132786 1.48348,-0.276395 1.40744,-0.578844 -0.0556,-0.221234 -0.16282,-0.914108 -0.23821,-1.539719 -0.18279,-1.516977 0.94172,-3.619859 2.50219,-4.679217 1.08264,-0.734974 1.27375,-0.767739 4.6943,-0.804806 7.60391,-0.0824 6.97434,-0.0087 7.28956,-0.852788 0.84711,-2.268222 1.40893,-3.065092 2.55067,-3.617799 1.8744,-0.907384 4.02841,-0.632012 5.09333,0.651142 0.19606,0.236233 0.44806,0.429514 0.56,0.429514 0.11194,0 1.23204,-0.793594 2.48911,-1.763542 1.75648,-1.3553 2.39256,-1.706283 2.74775,-1.516191 0.83392,0.446296 2.96432,3.018001 3.32391,4.012429 l 0.35214,0.9738 2.47105,-0.11889 c 2.79595,-0.134521 5.44049,0.313531 6.9897,1.184236 1.86239,1.046723 3.18109,3.880822 2.50063,5.374268 -0.25562,0.561018 -0.23568,0.824385 0.10134,1.338744 0.40539,0.618709 0.45781,0.626832 1.55253,0.240594 2.59457,-0.91542 5.35284,-0.172075 6.6533,1.793045 0.90558,1.368427 1.33144,3.211929 1.00495,4.350328 -0.13607,0.474434 -0.16344,0.871326 -0.0608,0.881982 0.10261,0.01066 1.11738,0.0035 2.25505,-0.01592 1.83486,-0.0313 2.14941,0.0397 2.7849,0.628654 1.418,1.314156 2.00586,3.392873 1.45253,5.136255 -0.11955,0.376663 0.0844,0.874823 0.65131,1.590549 0.45395,0.573165 1.36106,2.145027 2.01579,3.493028 1.75208,3.607276 3.47612,6.428054 3.92879,6.428054 0.62859,0 1.95556,2.060243 2.15813,3.35071 0.10144,0.646252 0.61773,2.482461 1.1473,4.080463 0.52958,1.598002 1.30029,4.560288 1.71271,6.582857 0.41242,2.022569 0.955,3.98597 1.20575,4.363113 1.23099,1.851531 2.68002,6.016945 2.68002,7.704042 0,1.050757 -0.66886,1.525781 -1.63494,1.161129 l -0.7681,-0.289926 -0.15426,2.638092 c -0.0848,1.45095 -0.11361,3.687238 -0.0639,4.969518 0.0497,1.28229 -0.0144,4.49143 -0.14251,7.13143 -0.22622,4.66342 -0.21409,4.85463 0.42652,6.72 1.72896,5.03452 1.47457,7.11852 -1.14996,9.42065 l -1.52506,1.33772 1.11561,1.47796 c 1.68783,2.23606 1.74566,2.52303 1.6505,8.19124 l -0.0853,5.081 1.04757,2.17231 c 0.90185,1.87014 1.04674,2.43158 1.04167,4.03631 -0.007,2.33852 -0.40556,3.86586 -1.42668,5.47254 -0.43984,0.69206 -0.7997,1.4209 -0.7997,1.61964 0,0.19873 0.45467,1.73078 1.01038,3.40455 0.8524,2.56738 1.00918,3.40834 1.0027,5.37831 -0.004,1.28429 -0.15644,2.78578 -0.33824,3.33664 -0.26984,0.81763 -0.25249,1.30274 0.0944,2.64165 0.94043,3.62922 0.28967,9.10006 -1.16787,9.81821 -0.60786,0.2995 -0.63579,0.4568 -0.70682,3.98154 -0.0663,3.2896 -0.16692,3.95385 -0.97135,6.41259 -1.02122,3.12138 -2.63585,6.90324 -3.24674,7.60466 -0.36739,0.42184 -0.35912,0.72589 0.0761,2.79972 0.59646,2.84224 0.45816,8.32485 -0.25992,10.30419 -0.24628,0.67886 -0.7577,2.19089 -1.13648,3.36008 -1.39848,4.31674 -3.517,9.22468 -5.63179,13.04706 -3.12146,5.64188 -4.51936,7.64715 -9.69089,13.90143 -2.71582,3.28443 -6.4571,8.43054 -9.67131,13.30286 -1.44303,2.18743 -2.94253,4.45428 -3.33224,5.03745 -1.06499,1.59368 -4.61439,4.75167 -6.58237,5.85651 -1.42085,0.79767 -2.0765,0.99295 -3.56571,1.06203 -1.00361,0.0465 -2.31846,-0.0183 -2.92188,-0.14411 z m 5.26464,-1.68907 c 1.70584,-0.82579 6.45615,-5.18463 7.35472,-6.74863 1.16127,-2.02127 4.25525,-6.54393 8.4066,-12.28847 4.03065,-5.57752 4.1933,-5.79005 4.54415,-5.93776 0.87553,-0.36858 6.63354,-8.44591 8.37874,-11.75367 0.51736,-0.98057 1.44482,-2.70857 2.06103,-3.84 1.13419,-2.08251 3.07636,-6.88603 4.10328,-10.14857 1.65574,-5.26027 1.7258,-5.60446 1.75883,-8.64 0.0248,-2.28394 -0.10976,-3.56149 -0.55387,-5.25713 -0.32268,-1.23199 -0.58911,-2.46627 -0.59206,-2.74285 -0.008,-0.75023 -2.33231,-6.28422 -2.99123,-7.12191 -0.39662,-0.50422 -0.48811,-0.82808 -0.29849,-1.05656 0.15039,-0.1812 0.3053,-1.62216 0.34426,-3.20212 0.0667,-2.70691 0.0289,-2.93609 -0.65532,-3.97192 -0.41129,-0.62264 -1.60057,-1.68401 -2.74286,-2.44787 -2.00614,-1.34153 -4.13672,-2.97604 -5.44528,-4.17741 -0.37714,-0.34625 -1.36457,-1.0123 -2.19429,-1.4801 -0.82971,-0.46781 -2.08614,-1.32631 -2.79206,-1.90777 -0.70592,-0.58147 -1.46084,-1.05722 -1.6776,-1.05722 -0.21675,0 -0.81175,-0.52902 -1.32222,-1.17561 -0.59422,-0.75267 -1.10076,-1.14015 -1.408,-1.07705 -0.863,0.17724 -4.52698,-0.72845 -6.42075,-1.58712 -1.01938,-0.46221 -2.24554,-1.26848 -2.72481,-1.79173 -0.64246,-0.7014 -1.1139,-0.95932 -1.79441,-0.9817 -1.58805,-0.0522 -2.26369,0.0391 -3.25443,0.43996 -0.528,0.21363 -1.76229,0.51188 -2.74286,0.66278 -5.90665,0.90895 -7.3473,1.23413 -9.19198,2.07478 -1.6983,0.77394 -3.10226,1.93002 -2.75977,2.27251 0.0573,0.0573 0.76418,-0.18094 1.57083,-0.52944 1.48793,-0.64285 2.78411,-0.73398 5.10092,-0.35862 0.64114,0.10388 1.16571,0.28612 1.16571,0.40499 0,0.52494 -2.02902,0.76412 -2.33142,0.27483 -0.28109,-0.45482 -2.11577,-0.29786 -3.41674,0.2923 -1.32243,0.59989 -5.59178,1.6277 -6.7612,1.6277 -0.68428,0 -1.85441,0.9851 -3.19734,2.69178 -0.26611,0.33819 -0.85932,0.68999 -1.31823,0.78177 -0.85497,0.171 -1.02382,0.35034 -2.51609,2.67247 -2.20104,3.42505 -4.96066,5.55412 -8.37115,6.45844 -0.64312,0.17052 -1.61925,0.7051 -2.16918,1.18794 -0.9916,0.87064 -2.27653,3.18222 -2.28168,4.10474 -0.001,0.264 -0.16835,0.48 -0.37084,0.48 -0.87686,0 -2.28434,8.66695 -2.02036,12.44096 0.2146,3.06809 0.9369,7.33684 1.66316,9.82923 1.20804,4.14577 5.00899,12.78767 5.93116,13.4852 0.22938,0.1735 0.84906,1.15276 1.37706,2.17614 1.09935,2.1308 4.90709,7.32377 7.13143,9.72581 3.43273,3.70697 7.82381,11.37943 9.22237,16.11409 1.34983,4.56967 3.23257,7.80766 5.61332,9.65394 1.2518,0.97078 1.82802,1.21209 3.67859,1.54053 3.37954,0.5998 5.51186,0.56534 6.91036,-0.11166 z m -5.36688,-5.46449 c -1.20885,-0.51449 -2.79519,-1.97148 -3.36714,-3.09259 -0.31274,-0.61303 -0.63548,-1.85194 -0.7172,-2.75315 -0.12394,-1.3668 -0.20352,-1.56343 -0.47981,-1.18557 -0.37045,0.50662 -1.10747,0.60008 -1.37091,0.17384 -0.0949,-0.15354 0.22763,-0.78438 0.7167,-1.40189 0.48907,-0.6175 1.35682,-1.81874 1.92834,-2.66942 0.57152,-0.85068 1.39967,-2.0404 1.84034,-2.64383 1.63261,-2.2356 2.82054,-4.74884 3.07408,-6.50366 0.16886,-1.16879 0.11214,-3.9357 -0.17593,-8.58205 -0.23383,-3.77143 -0.459,-7.536 -0.50038,-8.36572 -0.22431,-4.49725 -0.56428,-7.32185 -1.42453,-11.83528 -0.11025,-0.57842 -0.34105,-0.76471 -1.13103,-0.91291 -1.31646,-0.24697 -4.9367,-2.13181 -8.98744,-4.6792 -3.07109,-1.93133 -5.54481,-3.22981 -9.18118,-4.81929 -1.55716,-0.68064 -5.04156,-3.13336 -6.42388,-4.52185 -0.4365,-0.43845 -1.3971,-2.03368 -2.13465,-3.54496 -1.17882,-2.41543 -1.31506,-2.87274 -1.12637,-3.78091 0.27325,-1.31515 0.79109,-1.20719 0.6773,0.14121 -0.0668,0.79152 0.22963,1.63256 1.33131,3.77729 1.20849,2.35268 1.65235,2.93997 3.01366,3.98747 0.87804,0.67564 1.7891,1.22843 2.02457,1.22843 0.23548,0 1.01629,0.35804 1.73512,0.79563 0.71884,0.4376 1.89938,0.99364 2.62343,1.23565 1.73424,0.57966 3.15371,1.30303 5.81498,2.96333 5.50263,3.43296 6.71201,4.1476 8.62865,5.09874 l 2.04579,1.01522 3.57706,-0.015 c 1.96739,-0.008 4.21083,-0.17143 4.98542,-0.36262 2.02514,-0.49986 6.56772,-3.13147 8.32879,-4.82503 1.3372,-1.28595 1.67396,-1.46886 2.96446,-1.61015 1.50882,-0.16519 3.91689,-1.34173 4.84482,-2.36707 0.59056,-0.65257 1.25709,-0.7043 2.28434,-0.17729 1.07935,0.55373 4.89917,1.34853 5.61617,1.16857 0.33812,-0.0849 0.78602,-0.0485 0.99532,0.0809 0.6079,0.3757 0.14864,1.03319 -0.82112,1.17552 -1.09592,0.16085 -4.42053,-0.44192 -5.78117,-1.04816 -0.98308,-0.43801 -1.02661,-0.4322 -1.93157,0.25805 -1.2035,0.91795 -3.62908,2.00972 -5.01696,2.25815 -0.74904,0.13409 -1.5402,0.59695 -2.49355,1.45884 -1.72217,1.55694 -5.49823,3.82035 -7.51788,4.50629 -0.82971,0.2818 -2.15861,0.57955 -2.95309,0.66167 -1.25189,0.12939 -1.46732,0.24013 -1.61547,0.8304 -0.23916,0.95289 0.0877,4.76936 0.6045,7.05836 0.33976,1.50488 0.45248,4.02529 0.52135,11.65715 0.0944,10.46093 0.19982,11.39919 1.64925,14.67662 0.38298,0.86597 0.69632,1.80382 0.69632,2.08412 0,0.28029 0.54027,1.07348 1.2006,1.76264 1.19453,1.24668 1.20771,1.25207 2.60571,1.06662 0.88794,-0.11779 1.40512,-0.0842 1.40512,0.0912 0,0.35403 -0.94287,0.60736 -2.27833,0.61215 -0.90315,0.003 -1.23066,-0.19057 -2.42706,-1.43625 -0.76067,-0.792 -1.62361,-1.872 -1.91764,-2.4 l -0.53461,-0.96 0.1545,1.17206 c 0.3179,2.41155 0.75739,3.91824 1.43354,4.91461 l 0.69651,1.02637 -0.5806,0.38551 c -0.46739,0.31033 -0.5806,0.66355 -0.5806,1.81143 0,1.664 -1.09023,4.07324 -2.21042,4.8847 -0.82259,0.59588 -3.39237,0.87733 -4.33753,0.47507 z m 3.57464,-1.39035 c 0.98155,-0.52531 1.68612,-2.61325 1.75066,-5.18797 0.0322,-1.28229 -0.0515,-2.54235 -0.18591,-2.80014 -0.47628,-0.91354 -0.99666,-4.78219 -1.02536,-7.62272 -0.016,-1.584 -0.14514,-3.79809 -0.28696,-4.92019 -0.14183,-1.1221 -0.18824,-5.13353 -0.10315,-8.91429 0.10627,-4.72196 0.0527,-7.4752 -0.17101,-8.79409 -0.71585,-4.21976 -1.10884,-7.19536 -1.11391,-8.43429 -0.005,-1.2679 -0.0277,-1.30285 -0.84062,-1.30285 -0.92531,0 -0.91853,-0.0916 -0.24823,3.35399 0.59374,3.05205 1.57763,17.50229 1.67655,24.62315 0.0365,2.62615 -0.56286,4.22902 -2.89428,7.74044 -0.96652,1.4557 -1.7055,2.69853 -1.64218,2.76185 0.0633,0.0633 -0.19487,0.78106 -0.57376,1.59499 -1.33193,2.86124 -0.72998,5.73005 1.54865,7.38068 1.21495,0.88011 3.01302,1.10826 4.10951,0.52144 z m 12.71758,-37.39015 c -0.9338,-0.99012 -1.42955,-2.20145 -3.00728,-7.3481 -1.12012,-3.65388 -1.48687,-5.70687 -1.0195,-5.70687 0.16849,0 0.38215,0.33943 0.4748,0.75429 0.75463,3.37893 1.30852,5.00571 1.70435,5.00571 0.57772,0 3.59297,1.9834 4.57752,3.01105 1.27121,1.32686 0.5912,1.26509 -1.28034,-0.1163 -0.95203,-0.70269 -2.12431,-1.52523 -2.60508,-1.82787 l -0.87411,-0.55025 0.69843,2.27883 c 0.83803,2.73429 1.18559,3.44145 2.12088,4.31521 0.39148,0.36573 0.71177,0.76687 0.71177,0.89143 0,0.49306 -0.66481,0.17995 -1.50144,-0.70713 z m -27.69043,-5.0752 c -0.71466,-1.13818 0.4269,-4.24895 2.2489,-6.12834 0.54844,-0.56571 1.09554,-1.02857 1.21578,-1.02857 0.48593,0 0.16933,0.76703 -0.62981,1.52583 -1.09952,1.04401 -2.18038,3.18018 -2.41049,4.76399 -0.12775,0.87934 -0.25432,1.13794 -0.42438,0.86709 z m -12.77384,-4.63814 c 0,-0.1648 0.46286,-0.37733 1.02857,-0.47229 2.43213,-0.40829 4.26882,-1.37739 6.48886,-3.42375 1.20516,-1.11088 1.87306,-1.14886 1.11268,-0.0633 -0.54686,0.78074 -3.58362,3.03321 -4.74176,3.51711 -1.28822,0.53825 -3.88835,0.83395 -3.88835,0.4422 z m -1.37143,-1.24504 c 0,-0.20459 0.42977,-0.93484 0.95505,-1.62278 l 0.95505,-1.25079 -2.0189,-0.18918 c -1.11039,-0.10406 -2.40417,-0.10457 -2.87505,-0.001 -1.04962,0.23054 -1.1675,-0.27401 -0.17019,-0.72842 0.51145,-0.23303 1.32236,-0.23418 3.18761,-0.005 l 2.50165,0.30801 1.9139,-1.49752 c 1.95056,-1.52621 3.30503,-1.82275 1.56131,-0.34183 -3.10076,2.63343 -4.2103,3.69878 -4.83437,4.64181 -0.7158,1.08165 -1.17606,1.35027 -1.17606,0.68637 z m -6.79284,-7.08948 c 0.0605,-0.18152 1.33361,-0.54593 2.82913,-0.80981 2.87769,-0.50776 4.64152,-1.06648 6.06771,-1.92203 1.07855,-0.64701 1.46306,-0.21189 0.48949,0.55392 -0.88872,0.69906 -3.46565,1.55521 -6.29635,2.09186 -2.64982,0.50237 -3.23418,0.51864 -3.08998,0.0861 z m 36.01878,-2.3526 c -0.3693,-0.36929 -0.0662,-0.6224 1.0955,-0.91493 0.68594,-0.17272 1.99488,-0.79732 2.90877,-1.38799 0.91388,-0.59067 2.00584,-1.14279 2.42656,-1.22694 0.91935,-0.18387 4.11466,1.15512 4.11466,1.72424 0,0.49826 -0.0754,0.48397 -1.64571,-0.31174 -1.83477,-0.92975 -2.35687,-0.89037 -2.72728,0.20571 -0.38964,1.15297 -1.28737,2.31678 -1.56949,2.03467 -0.121,-0.121 0.0594,-0.70544 0.40086,-1.29876 0.34147,-0.59332 0.53541,-1.07877 0.43097,-1.07877 -0.10444,0 -0.76655,0.37004 -1.47135,0.82231 -1.31464,0.8436 -3.69276,1.70293 -3.96349,1.4322 z m -13.52741,-1.98826 c -0.49266,-0.44815 -1.09701,-0.81482 -1.34298,-0.81482 -0.24598,0 -1.01976,-0.52457 -1.71953,-1.16571 -0.69976,-0.64114 -1.83649,-1.55178 -2.52607,-2.02364 -1.43219,-0.98001 -2.83783,-2.68116 -2.57149,-3.11211 0.10516,-0.17015 0.76951,0.30876 1.60066,1.15386 1.55853,1.58471 4.12339,3.50189 4.68491,3.50189 0.2562,0 0.40614,-0.7595 0.53345,-2.7021 0.20615,-3.1457 0.42713,-4.42933 0.76252,-4.42933 0.31026,0 0.29767,1.85607 -0.0279,4.10875 -0.33599,2.32499 0.0319,3.78354 1.25303,4.96706 1.54257,1.49511 0.94977,1.96829 -0.64662,0.51615 z m 27.93536,-4.50782 c -1.03714,-0.49764 -1.39918,-0.8 -1.19835,-1.00082 0.20083,-0.20083 0.60837,-0.12687 1.34897,0.24482 1.50059,0.75311 3.19806,0.91917 5.66191,0.55392 1.61533,-0.23947 2.20925,-0.23897 2.45029,0.002 0.17498,0.17499 0.25277,0.38353 0.17287,0.46344 -0.0799,0.0799 -1.67625,0.21376 -3.54743,0.29746 -3.25798,0.14572 -3.46512,0.12196 -4.88826,-0.56089 z m 13.14325,-2.0459 c 0,-0.13925 0.37978,-0.63297 0.84396,-1.09714 0.46418,-0.46418 0.95789,-0.84396 1.09714,-0.84396 0.48331,0 0.24889,0.59508 -0.54857,1.39253 -0.79745,0.79746 -1.39253,1.03188 -1.39253,0.54857 z m -14.88576,-2.28776 c -0.18092,-0.47146 -3.42075,-1.4508 -6.09709,-1.84304 -2.15577,-0.31595 -2.2327,-0.30677 -4.38232,0.52263 -2.92,1.12664 -4.51922,1.13209 -6.27065,0.0214 -1.05998,-0.67222 -1.59074,-0.82286 -2.89922,-0.82286 -0.88093,0 -2.12692,-0.18531 -2.76885,-0.41179 -0.9424,-0.3325 -2.90331,-0.41546 -10.18306,-0.43083 -8.20839,-0.0173 -10.14381,-0.16256 -8.39876,-0.63021 1.05415,-0.28251 16.17183,-0.15682 17.62286,0.14651 0.75428,0.15768 2.29654,0.34627 3.42723,0.4191 1.13069,0.0728 2.11812,0.21417 2.19428,0.3141 0.27051,0.35491 2.3455,1.35898 3.15563,1.52698 0.87095,0.18061 1.29546,0.0807 4.45201,-1.04769 1.85341,-0.66256 2.11415,-0.68932 3.97714,-0.40821 1.97984,0.29874 6.3889,1.528 6.94891,1.93738 0.1608,0.11754 0.96308,0.29215 1.78286,0.38802 1.26852,0.14835 1.93469,0.0256 4.47294,-0.82448 l 2.98242,-0.99879 4.03655,0.42138 c 2.2201,0.23177 4.17972,0.42139 4.35472,0.42139 0.17499,0 0.31816,0.14091 0.31816,0.31314 0,0.23065 -0.88511,0.25008 -3.36,0.0737 -5.29427,-0.37721 -6.16839,-0.32282 -8.20678,0.51068 -1.54864,0.63324 -2.22866,0.74814 -4.42779,0.74814 -1.84072,0 -2.63694,-0.10106 -2.73119,-0.34666 z m -4.5166,-7.54768 c -1.24273,-0.41011 -2.26102,-0.89994 -2.26286,-1.08851 -0.005,-0.46949 0.15877,-0.44501 2.48598,0.37243 1.71951,0.60399 2.32192,0.68929 3.87139,0.54819 1.18086,-0.10754 1.89954,-0.0627 2.01604,0.12581 0.25954,0.41995 0.19128,0.44199 -1.93104,0.62351 -1.63278,0.13965 -2.25801,0.0527 -4.17951,-0.58143 z m -30.10995,-1.71171 c -0.4022,-0.65078 6.33113,-2.67228 6.92451,-2.07889 0.30355,0.30354 -0.13851,0.47991 -2.492,0.99421 -1.28632,0.2811 -2.71032,0.70322 -3.16443,0.93805 -0.9755,0.50445 -1.04217,0.51216 -1.26808,0.14663 z m 16.02204,-1.67319 c -0.66378,-0.47101 -1.50167,-1.16291 -1.86199,-1.53755 -0.54197,-0.56353 -0.828,-0.65353 -1.65614,-0.5211 -1.40854,0.22523 -2.87251,-0.24168 -3.30777,-1.05496 -0.4801,-0.89708 -1.95389,-1.3986 -2.71436,-0.92368 -0.67766,0.42321 -1.06434,0.12762 -0.58639,-0.44827 0.20443,-0.24633 0.7951,-0.41805 1.43794,-0.41805 0.89986,0 1.26637,0.18019 2.09213,1.02857 0.99865,1.02601 1.00791,1.02891 3.7222,1.16571 1.72871,0.0871 2.75979,0.25447 2.82724,0.45885 0.0584,0.17694 -0.17865,0.36309 -0.52678,0.41366 -0.55161,0.0801 -0.43956,0.22385 0.87196,1.1183 0.84301,0.57492 1.83828,1.02633 2.26286,1.02633 0.41687,0 0.75795,0.12343 0.75795,0.27429 0,0.63987 -2.12104,0.26786 -3.31885,-0.5821 z m 16.21027,-1.32103 c -0.37714,-0.11564 -1.45362,-0.59874 -2.39217,-1.07356 -1.04091,-0.5266 -2.12147,-0.86331 -2.7705,-0.86331 -1.25347,0 -2.79161,-0.48499 -2.79161,-0.88021 0,-0.17695 0.37384,-0.1991 1.02857,-0.061 0.56571,0.11937 1.52229,0.23665 2.12571,0.26063 0.63168,0.0251 1.96662,0.46963 3.14655,1.04778 1.64033,0.80374 2.36576,1.00418 3.63429,1.00418 1.59754,0 2.10965,0.34396 0.96774,0.64998 -0.80546,0.21585 -2.08894,0.17906 -2.94858,-0.0845 z m -5.76,-7.45767 c -0.528,-0.13927 -2.84228,-0.17767 -5.14285,-0.0853 -2.78352,0.11172 -4.18286,0.0738 -4.18286,-0.11333 0,-0.31572 1.15982,-0.49116 4.87121,-0.73685 2.85849,-0.18923 6.3745,0.30332 6.3745,0.89298 0,0.39838 -0.52671,0.41005 -1.92,0.0425 z m -45.27642,25.93327 c 0.0249,-1.09228 1.85387,-7.77334 2.26285,-8.26613 0.17209,-0.20736 0.47206,-0.31594 0.66659,-0.24129 0.19633,0.0753 0.59897,-0.26111 0.90494,-0.75618 0.98833,-1.59916 2.24476,-2.49995 4.23729,-3.03793 3.23184,-0.87257 5.38816,-2.69838 8.02338,-6.79357 1.00865,-1.56747 1.32711,-1.86414 2.17109,-2.02247 0.74615,-0.13998 1.15032,-0.441 1.6457,-1.22574 0.36115,-0.5721 0.78507,-1.11956 0.94204,-1.21658 0.15697,-0.097 0.2854,-0.41112 0.2854,-0.69803 0,-0.44513 0.19112,-0.51572 1.30286,-0.48126 0.71657,0.0222 2.00593,-0.11342 2.86524,-0.30141 1.39315,-0.30476 1.61597,-0.45142 2.05714,-1.35398 0.40189,-0.82219 0.89665,-1.20903 2.63582,-2.06089 1.17758,-0.57679 2.94666,-1.19739 3.93128,-1.37911 l 1.79023,-0.33041 -1.59986,-1.37766 c -0.87992,-0.75772 -2.54911,-2.08655 -3.70931,-2.95295 -1.1602,-0.8664 -2.71408,-2.11888 -3.45305,-2.78329 -2.15601,-1.93843 -4.79274,-6.05695 -5.66454,-8.84788 -0.1337,-0.42803 -0.0806,-0.61714 0.17331,-0.61714 0.20135,0 0.66485,0.75217 1.03,1.67148 0.79563,2.0031 2.65962,4.87706 4.22345,6.51186 0.62559,0.65398 2.2984,2.06568 3.71736,3.13712 1.41896,1.07144 3.25475,2.53859 4.07953,3.26034 1.81772,1.59064 2.48937,1.85403 2.98821,1.17182 0.43764,-0.5985 0.46679,-1.11942 0.0762,-1.36085 -0.17734,-0.1096 -0.19161,-0.29984 -0.0372,-0.49619 0.1377,-0.17514 0.31999,-1.19345 0.40509,-2.2629 l 0.15472,-1.94447 -1.20003,-1.52897 c -1.00973,-1.28651 -1.4307,-1.59645 -2.65463,-1.95453 -1.696,-0.49618 -5.89515,-2.6112 -7.27729,-3.66541 -1.14649,-0.87447 -4.18873,-4.79871 -4.18873,-5.40311 0,-0.76774 0.38647,-0.42332 2.08054,1.85416 1.56544,2.10455 3.61675,4.02679 4.29716,4.02679 0.16543,0 0.0447,-0.27771 -0.26836,-0.61714 -0.53549,-0.58067 -3.0922,-5.77317 -3.0922,-6.28006 0,-0.12882 0.13148,-0.23422 0.29217,-0.23422 0.1607,0 0.90085,1.30019 1.64477,2.88931 0.98096,2.09546 1.71083,3.23822 2.6564,4.15917 1.63343,1.5909 3.86338,2.66548 5.00915,2.41383 0.78641,-0.17273 0.82037,-0.24098 0.82037,-1.64911 0,-1.93476 -0.34256,-2.76489 -1.23319,-2.98842 -0.77009,-0.19328 -5.07539,-4.25135 -5.07539,-4.78394 0,-0.62693 0.54459,-0.28632 1.97305,1.23406 1.95604,2.08192 3.41792,3.11367 4.41174,3.11367 0.80679,0 0.81452,-0.0142 0.63344,-1.16572 -0.43916,-2.7926 -0.62533,-3.13926 -1.78549,-3.32477 -0.76423,-0.12221 -1.50212,-0.56343 -2.56149,-1.53163 -1.13369,-1.03613 -1.56421,-1.28377 -1.808,-1.03998 -0.24379,0.24379 -0.66225,0.14614 -1.75733,-0.41007 -0.79054,-0.40152 -2.23963,-1.09665 -3.2202,-1.54472 -0.98057,-0.44807 -2.43086,-1.19707 -3.22286,-1.66444 -0.792,-0.46737 -1.44,-0.72384 -1.44,-0.56993 0,0.1539 -0.24686,0.52669 -0.54857,0.8284 -0.72138,0.72138 -2.17021,0.70919 -3.64521,-0.0307 -1.72444,-0.86497 -5.13193,-3.48968 -5.13193,-3.953 0,-0.22269 0.0521,-0.4049 0.11579,-0.4049 0.0637,0 1.1572,0.78546 2.43005,1.74546 2.38741,1.80063 4.52026,2.83212 5.26507,2.54631 0.23424,-0.0899 0.54666,-0.48107 0.69426,-0.86929 0.40696,-1.07038 -0.2703,-2.36233 -2.38859,-4.55649 -1.4243,-1.47532 -2.35262,-2.15415 -4.05074,-2.96208 -2.03688,-0.9691 -3.71156,-2.23178 -3.71156,-2.79846 0,-0.13028 -0.52457,-0.23877 -1.16571,-0.24108 -1.21007,-0.004 -2.11835,-0.36888 -1.7749,-0.71233 0.10878,-0.10878 1.0129,-0.16824 2.00914,-0.13212 2.11395,0.0766 2.15234,0.30533 -0.51457,-3.06577 -1.91878,-2.42542 -2.51304,-2.94272 -3.38048,-2.94272 -0.77745,0 -3.20149,-1.68171 -2.88305,-2.00015 0.1861,-0.18609 0.70783,0.005 1.59315,0.58249 l 1.31642,0.85919 0.0913,-0.72706 c 0.13739,-1.09461 -0.48319,-2.99382 -1.38507,-4.23883 -0.44205,-0.61024 -0.74217,-1.17109 -0.66692,-1.24633 0.0752,-0.0752 0.58479,0.0252 1.13232,0.22317 0.84994,0.30734 1.03282,0.30099 1.25062,-0.0434 0.45167,-0.71418 0.30059,-1.8728 -0.28506,-2.18624 -0.30551,-0.1635 -0.54858,-0.5743 -0.54858,-0.92713 0,-0.34846 -0.24685,-0.85696 -0.54857,-1.13001 -0.55127,-0.4989 -0.75724,-1.50857 -0.30774,-1.50857 0.13246,0 0.42394,0.27578 0.64775,0.61284 0.38386,0.57813 0.42697,0.47802 0.76105,-1.76751 l 0.35414,-2.38037 -0.83891,-0.95545 c -0.4614,-0.52551 -0.90294,-0.89143 -0.98121,-0.81316 -0.55185,0.55186 -3.44801,-1.8075 -4.32222,-3.5211 -0.78706,-1.542769 -1.31661,-4.128232 -1.5211,-7.426678 -0.13135,-2.11871 -0.0955,-2.948571 0.1275,-2.948571 0.40333,0 0.52683,0.668438 0.71951,3.894372 0.16434,2.75156 0.87672,5.573689 1.7296,6.851986 0.507,0.759891 2.44521,2.419361 2.82573,2.419361 0.1187,0 -0.0217,-0.67578 -0.312,-1.50172 -0.6116,-1.740132 -0.71057,-3.54184 -0.18495,-3.367271 0.18857,0.06263 0.4185,0.723518 0.51096,1.468641 0.2791,2.24923 1.57492,4.45341 3.07381,5.22852 0.91558,0.47346 1.55808,0.12142 1.55808,-0.85372 0,-0.76566 -1.11306,-4.055579 -1.88212,-5.563073 -0.32255,-0.63224 -0.58645,-1.339588 -0.58645,-1.571883 0,-0.903191 0.57282,-0.346724 1.3299,1.29193 2.25297,4.876456 2.36554,7.611426 0.31329,7.611426 -0.7129,0 -0.77744,0.10245 -1.07995,1.71429 -0.45346,2.41609 -0.42948,3.44651 0.11453,4.92257 0.64589,1.75248 0.30096,2.75686 -1.17147,3.41113 -0.0453,0.0201 0.17075,0.78764 0.48,1.70563 0.30925,0.91799 0.56227,1.99392 0.56227,2.39095 0,0.48588 0.39852,1.1261 1.21901,1.95835 1.34567,1.36495 4.26671,5.08756 4.26671,5.43756 0,0.12212 -0.20218,0.44545 -0.44929,0.71849 -0.64168,0.70906 -0.20818,1.12147 2.56241,2.43778 1.27174,0.6042 2.89026,1.63135 3.59671,2.28256 1.35172,1.24602 1.17049,1.17945 8.41588,3.09148 1.50857,0.3981 3.48343,0.81504 4.38857,0.92653 1.75705,0.21642 4.29769,1.08822 5.0365,1.72823 0.24707,0.21403 1.05047,0.46717 1.78533,0.56254 0.73486,0.0954 2.09257,0.57486 3.01714,1.06554 l 1.68103,0.89215 2.05715,-1.1464 c 1.13142,-0.63052 2.54154,-1.41546 3.13358,-1.74431 2.16343,-1.20169 4.78401,-0.38262 6.21839,1.94357 0.3627,0.5882 0.72117,1.0696 0.7966,1.06977 0.0754,1.7e-4 0.55474,-0.61529 1.06513,-1.36767 1.54894,-2.28334 5.51537,-5.84725 7.75418,-6.96728 1.09269,-0.54665 2.7483,-1.69967 3.67913,-2.56226 0.93083,-0.86259 2.23838,-2.01748 2.90567,-2.56644 0.93767,-0.77139 1.58443,-1.73704 2.84743,-4.25142 l 1.63417,-3.25334 v -5.82717 -5.82717 l -0.72063,-0.5333 c -0.41791,-0.30928 -0.7928,-0.91798 -0.89242,-1.44903 -0.27924,-1.48843 0.30813,-5.03787 1.31306,-7.934762 0.88448,-2.549667 0.90712,-2.702851 0.39947,-2.702851 -0.75621,0 -2.05755,-0.717626 -2.26053,-1.246575 -0.52262,-1.361943 0.35411,-5.409826 2.07871,-9.597364 0.53196,-1.291666 0.60837,-1.723906 0.3478,-1.967316 -0.18367,-0.171571 -0.4226,-0.903179 -0.53096,-1.625794 -0.33506,-2.234315 -0.9263,-3.36641 -1.9903,-3.810979 -1.54287,-0.644652 -3.51157,-2.477661 -5.108,-4.755938 -1.44995,-2.069226 -1.51751,-2.124016 -2.48051,-2.011591 -0.77965,0.09102 -0.98997,0.235726 -0.98997,0.681111 0,0.868804 -0.80049,1.568731 -1.79412,1.568731 -1.09364,0 -3.69816,-1.682069 -5.30688,-3.427329 -0.62679,-0.679984 -1.76043,-2.214178 -2.51921,-3.409319 l -1.37959,-2.172985 -0.75552,0.433607 c -1.61756,0.928352 -2.92448,-0.01672 -5.6373,-4.076493 -1.09537,-1.639234 -2.07357,-2.898441 -2.17377,-2.798239 -0.1002,0.100203 -0.18219,0.486724 -0.18219,0.858936 0,1.719775 -0.62517,2.804758 -2.58378,4.484158 -3.07745,2.638741 -4.18006,2.918639 -6.74193,1.711435 -0.82971,-0.390978 -2.30541,-0.812958 -3.27932,-0.937732 -1.64301,-0.210497 -1.8005,-0.183755 -2.18302,0.370692 -1.58776,2.301368 -4.70976,4.816333 -6.12309,4.932535 -0.39429,0.03242 -1.37838,0.780353 -2.49072,1.893022 -1.92505,1.925603 -3.26953,2.582015 -4.40463,2.150453 -0.54113,-0.20574 -0.69917,-0.05097 -1.48638,1.455664 -0.48447,0.927234 -1.56681,2.488167 -2.40519,3.468738 -0.83838,0.980572 -1.97758,2.523429 -2.53155,3.428572 -1.2411,2.027824 -1.24928,2.823338 -0.0695,6.754452 0.46969,1.565051 0.92969,3.559028 1.02221,4.43106 0.14948,1.408878 0.0973,1.660973 -0.46811,2.262858 -0.40723,0.433472 -0.9379,0.677344 -1.47391,0.677344 -1.73325,0 -5.42078,-4.963758 -7.5718,-10.192349 -1.16943,-2.842587 -1.97553,-5.922487 -1.60933,-6.148811 0.27348,-0.169019 0.48224,0.325075 1.34079,3.173414 1.29574,4.298695 4.24731,9.519771 6.56588,11.614456 1.00628,0.909116 1.16621,0.967585 1.82525,0.667304 0.6908,-0.314751 0.71643,-0.402677 0.58706,-2.014363 -0.12313,-1.533929 -1.06478,-5.152511 -2.84127,-10.918501 -0.36631,-1.188938 -1.23584,-3.348938 -1.93228,-4.8 -1.35302,-2.819056 -1.36473,-2.854702 -0.98018,-2.982885 0.34832,-0.116107 1.8939,2.849151 3.08755,5.923581 0.99144,2.553599 0.99606,2.559671 1.43725,1.886337 0.24344,-0.37153 0.38862,-0.907218 0.32264,-1.190418 -0.066,-0.283199 -0.29877,-2.428051 -0.51729,-4.766336 -0.35226,-3.769321 -0.69338,-5.359444 -1.66225,-7.748572 -0.13344,-0.329047 -0.0665,-0.48 0.21268,-0.48 0.24747,0 0.62921,0.618948 0.9727,1.577143 0.88422,2.466599 0.91808,2.655174 1.24758,6.948233 l 0.31108,4.053021 1.78285,-2.168313 c 2.45773,-2.989084 3.5324,-4.977224 3.47614,-6.430845 -0.0333,-0.859866 0.23086,-1.684477 1.049,-3.274836 0.6014,-1.169072 1.19521,-2.188465 1.31956,-2.265317 0.65062,-0.402107 0.44796,0.441949 -0.60871,2.535162 -0.84233,1.668629 -1.12923,2.524106 -1.00821,3.006287 0.20272,0.807706 1.11675,1.100994 2.17607,0.698243 0.80785,-0.307147 4.37722,-3.680573 4.1426,-3.915194 -0.0764,-0.07641 -5.5e-4,-0.495479 0.16859,-0.931258 0.16914,-0.435779 0.33286,-2.088326 0.36383,-3.672326 0.0489,-2.501307 0.15781,-3.103505 0.82824,-4.579783 0.86632,-1.907614 1.33066,-2.424206 2.42432,-2.697153 0.58824,-0.146808 0.75429,-0.09113 0.75429,0.252916 0,0.252768 -0.22576,0.441163 -0.52866,0.441163 -1.36714,0 -2.76277,3.36613 -2.76277,6.663529 0,1.239908 -0.12223,2.680586 -0.27163,3.201506 -0.16623,0.579587 -0.17327,1.045493 -0.0182,1.200606 0.73802,0.738014 6.25196,-4.236548 5.90559,-5.327887 -0.0999,-0.314799 -0.0377,-0.526325 0.15481,-0.526325 0.17703,0 0.56459,-0.308572 0.86125,-0.685715 0.29666,-0.377143 0.65385,-0.685714 0.79376,-0.685714 0.4002,0 0.2971,0.720232 -0.15705,1.097143 -0.69193,0.574253 -0.47538,0.740627 1.16572,0.895608 0.86742,0.08192 2.256,0.468141 3.08571,0.858273 1.89409,0.890604 3.19014,0.913155 4.32583,0.07527 l 0.86669,-0.639423 -0.92329,-0.440284 c -0.50781,-0.242157 -1.24199,-0.858122 -1.63151,-1.368811 -0.76713,-1.005759 -2.47898,-4.549813 -2.78328,-5.762229 -0.27228,-1.08486 0.37366,-0.964336 0.75889,0.141598 0.68423,1.964323 2.46822,5.148289 3.25605,5.811203 1.01429,0.853472 1.67255,0.882599 2.89347,0.128031 1.1816,-0.730269 1.67385,-1.687697 1.76665,-3.436088 0.0566,-1.06692 -0.0647,-1.580408 -0.52644,-2.22893 -0.70494,-0.989999 -1.96224,-3.621003 -1.96609,-4.114216 -0.001,-0.188571 0.18246,-0.342857 0.40874,-0.342857 0.22629,0 0.41143,0.198723 0.41143,0.441606 0,0.861857 1.73862,3.721577 2.42013,3.980686 1.43339,0.544975 2.03881,-0.217072 1.76923,-2.226941 -0.11976,-0.892899 -0.0636,-1.098208 0.30024,-1.098208 0.36354,0 0.44755,0.305216 0.44755,1.626122 0,1.577654 -0.30909,2.271191 -1.13486,2.546449 -0.40214,0.134046 3.28277,5.683953 4.31084,6.492634 0.4059,0.31928 1.01481,0.580509 1.35314,0.580509 1.05758,0 1.28489,-0.606738 1.19557,-3.191264 -0.056,-1.619039 0.0188,-2.426094 0.23132,-2.496933 0.43216,-0.14405 0.73235,2.073408 0.55119,4.071372 -0.10942,1.206631 -0.0576,1.616825 0.20423,1.616825 0.19296,0 1.00096,0.990264 1.79556,2.200587 1.62687,2.478025 3.91511,4.735327 5.82881,5.749995 1.23205,0.653247 1.3068,0.66147 1.77239,0.194959 0.35389,-0.354587 0.47682,-0.881807 0.45199,-1.938485 -0.0405,-1.722856 -0.0859,-1.815795 -2.40839,-4.928989 C 162.94183,61.960599 162.6688,61.44 163.20127,61.44 c 0.47013,0 4.32642,5.406955 4.53562,6.359444 0.26117,1.189104 0.85815,1.624395 1.70106,1.24034 0.42155,-0.192071 0.58379,-0.439117 0.47477,-0.722926 -0.49305,-1.283529 -1.22701,-4.381987 -1.22701,-5.179917 0,-1.150521 0.65161,-1.058819 0.7608,0.107068 0.32887,3.511721 1.80001,6.424562 3.24476,6.424562 0.54424,0 0.6573,-0.13847 0.6573,-0.805001 0,-0.442751 -0.11808,-1.115582 -0.26241,-1.495181 -0.42439,-1.116241 -0.49231,-7.916021 -0.0805,-8.053743 0.35107,-0.117392 0.51919,1.95805 0.36666,4.526516 -0.0381,0.641783 0.14005,2.135797 0.39592,3.320033 0.59315,2.745276 0.32882,3.47897 -1.166,3.236394 -0.53211,-0.08635 -1.21698,-0.378274 -1.52194,-0.648723 -0.53803,-0.477156 -0.54586,-0.475292 -0.26406,0.06291 1.38329,2.642001 5.07218,6.272663 6.2084,6.110388 0.48247,-0.06891 0.58926,-0.303483 0.66178,-1.453595 0.0475,-0.754286 -0.15947,-2.482286 -0.46005,-3.84 -0.76406,-3.451205 -0.89742,-4.385162 -0.69974,-4.900322 0.30361,-0.791183 0.66174,-0.479507 0.66682,0.580322 0.003,0.565714 0.30907,2.324571 0.68078,3.908571 0.73787,3.144304 0.82438,4.32015 0.42124,5.725818 -0.19733,0.688053 -0.16451,1.115536 0.12929,1.683683 0.21658,0.418817 0.47554,1.299014 0.57546,1.955993 0.20479,1.346431 0.63416,2.364277 0.64853,1.537363 0.005,-0.264 0.19348,-0.48 0.41977,-0.48 0.58112,0 0.5522,0.134463 -0.81495,3.789242 -2.82703,7.557416 -2.89988,9.650758 -0.33587,9.650758 0.55735,0 0.72514,-0.203744 1.01222,-1.229073 0.39202,-1.400161 1.0986,-2.230446 1.0986,-1.290939 0,0.310365 -0.12037,0.880907 -0.2675,1.267871 -0.14712,0.386963 -0.16391,0.70357 -0.0373,0.70357 0.47262,0 1.69484,-2.160158 3.06503,-5.417143 0.77744,-1.848 1.52357,-3.36 1.65808,-3.36 0.49747,0 0.23397,0.973924 -1.03895,3.84 -1.84587,4.15611 -2.38991,5.004474 -3.80309,5.930429 -0.37038,0.242678 -0.67341,0.65898 -0.67341,0.925114 0,0.266134 -0.30012,1.146796 -0.66693,1.957026 -1.11975,2.473402 -1.87568,7.240556 -1.36087,8.582136 0.24185,0.63026 1.29401,0.53139 1.95055,-0.18328 0.70252,-0.76472 2.44468,-4.22023 3.14601,-6.239996 0.39871,-1.14825 0.52131,-2.245593 0.51329,-4.594286 -0.0108,-3.152659 0.31889,-4.098247 0.63209,-1.813146 0.32759,2.389967 0.18649,4.743206 -0.38633,6.443608 -0.82957,2.46253 -2.65022,6.01776 -3.56997,6.97117 -0.75888,0.78664 -0.80641,0.96854 -0.80641,3.08571 0,1.4863 0.10492,2.2498 0.30918,2.2498 0.2173,0 0.24558,0.42793 0.0952,1.44 -0.50648,3.40786 -0.0333,6.66897 1.07392,7.40151 0.76792,0.50807 1.82364,0.20607 2.38246,-0.68151 0.52701,-0.83706 0.5544,-1.21765 0.44906,-6.24 -0.0617,-2.94171 -0.20585,-5.56457 -0.32033,-5.82857 -0.14551,-0.33554 -0.0851,-0.48 0.20063,-0.48 0.63267,0 0.76531,0.86162 0.93868,6.09782 0.13921,4.20462 0.0969,5.03151 -0.31245,6.10332 -0.86813,2.27316 -2.60048,2.74297 -4.13087,1.12027 l -0.8879,-0.94144 -1.61306,3.17451 c -1.19867,2.35899 -1.91675,3.42878 -2.7952,4.1643 -3.2566,2.72673 -4.14473,3.52532 -4.76127,4.28122 -0.92688,1.13638 -2.26731,4.6971 -3.10864,8.25776 -0.38792,1.64172 -1.14423,3.97305 -1.6807,5.18073 -1.29889,2.92405 -1.52309,4.10796 -1.09539,5.78452 0.51321,2.01177 1.1242,1.84349 2.57322,-0.70873 1.96118,-3.45431 3.43693,-7.41491 4.03693,-10.83428 0.24272,-1.38321 1.9304,-5.07429 2.32014,-5.07429 0.4455,0 0.35604,0.44069 -0.3872,1.9074 -0.37362,0.73732 -0.84859,2.16371 -1.05549,3.16976 -0.32135,1.56263 -0.32024,1.85063 0.008,1.97642 0.47088,0.1807 1.72725,-0.95017 1.72725,-1.55472 0,-0.46384 0.91407,-1.38457 1.37456,-1.38457 0.37744,0 0.3416,0.20753 -0.1918,1.1105 -0.36582,0.6193 -0.40898,1.00221 -0.20571,1.82518 0.35723,1.4463 0.99779,1.35813 1.40088,-0.19282 0.4174,-1.60607 0.44686,-5.26053 0.058,-7.19678 -0.26107,-1.29997 -0.23502,-1.71654 0.1744,-2.7886 0.55819,-1.4616 1.1404,-1.72923 0.80255,-0.36891 -0.12177,0.49029 -0.19892,1.44686 -0.17143,2.12571 0.28749,7.10015 0.0212,9.54777 -1.11575,10.25755 -0.65312,0.40773 -1.36022,-0.0594 -1.71906,-1.13575 l -0.27906,-0.83702 -0.64275,0.52047 c -0.35352,0.28626 -0.92165,0.52047 -1.26252,0.52047 -0.52534,0 -0.73459,0.32385 -1.37348,2.12571 -0.78559,2.21559 -2.46596,5.72721 -3.60079,7.5249 -0.53115,0.84139 -0.82552,1.04653 -1.50179,1.04653 h -0.84114 l 0.0903,2.49068 c 0.081,2.23294 0.0335,2.53223 -0.45828,2.89223 -0.3118,0.22824 -0.82101,0.3333 -1.17978,0.24342 -0.59715,-0.14959 -0.62119,-0.10214 -0.44548,0.8792 0.10216,0.57053 0.4772,1.96304 0.83343,3.09447 0.80092,2.54382 0.82509,3.91096 0.0902,5.10005 l -0.5645,0.91337 0.61608,0.83329 c 0.70763,0.95713 0.96336,1.00864 1.86659,0.376 0.62822,-0.44003 0.67703,-0.42922 1.29223,0.28599 l 0.63934,0.74329 0.55064,-0.90314 c 0.30285,-0.49672 0.55109,-1.05261 0.55166,-1.23531 5.6e-4,-0.18269 0.26048,-0.57389 0.57759,-0.86932 0.31711,-0.29543 0.9725,-1.68881 1.45642,-3.0964 l 0.87987,-2.55925 -1.16811,0.0951 c -0.95999,0.0781 -1.29278,-0.0296 -1.86786,-0.60468 -0.7786,-0.7786 -0.98745,-2.3704 -0.311,-2.3704 0.59627,0 1.29645,-2.16067 1.20248,-3.71074 -0.11807,-1.94778 0.41692,-1.96446 0.68828,-0.0214 0.20868,1.49423 0.16041,1.74908 -0.63875,3.3724 -1.01487,2.0615 -0.84634,2.55407 0.87387,2.55407 0.76747,0 1.26315,-0.18713 1.72859,-0.65257 0.91342,-0.91342 2.33964,-3.83611 2.33964,-4.79453 0,-0.98864 -1.39061,-4.04115 -2.79097,-6.12642 -0.57697,-0.85915 -1.04903,-1.6923 -1.04903,-1.85143 0,-1.22774 2.12493,1.69355 3.68007,5.05923 0.96547,2.08949 1.00516,2.28822 0.83102,4.161 -0.16995,1.82777 -0.12239,2.09473 0.67326,3.77872 0.56394,1.19357 1.09638,1.92148 1.56005,2.13274 0.94587,0.43096 1.64907,-0.0202 1.54236,-0.98951 -0.0838,-0.76097 0.18057,-0.91733 0.68985,-0.40806 0.30218,0.30219 0.42149,0.004 0.99068,-2.47499 0.45958,-2.00173 -2.00469,-10.94441 -3.31126,-12.01633 -0.89513,-0.73437 -0.59971,-1.18514 0.40655,-0.62034 1.26046,0.70748 3.24498,6.91916 3.54795,11.10532 0.13997,1.93395 0.0761,2.40577 -0.5282,3.90186 l -0.68743,1.70189 0.60966,1.30956 c 0.70862,1.52216 2.1963,3.21256 2.60499,2.95998 0.15504,-0.0958 0.28188,-0.4221 0.28188,-0.72508 0,-0.41544 0.1275,-0.5104 0.51861,-0.38626 0.67904,0.21552 1.1271,-1.01674 1.1271,-3.09977 0,-1.23206 -0.23942,-2.03103 -1.26806,-4.23157 -0.81594,-1.74551 -1.17357,-2.80724 -1.00302,-2.97779 0.17055,-0.17055 0.73858,0.69269 1.59313,2.42108 1.22112,2.46979 1.32951,2.85236 1.34588,4.75011 0.017,1.97675 -0.65991,4.38173 -1.23337,4.38173 -0.35973,0 -0.22784,2.54876 0.2027,3.91729 0.56403,1.79283 2.20139,4.68421 3.47177,6.13071 1.16138,1.32239 1.4054,1.42643 1.68347,0.71771 0.70487,-1.79653 0.65702,-5.27031 -0.12368,-8.97914 -0.23003,-1.09276 -0.20443,-1.57634 0.12735,-2.40555 0.60401,-1.50956 0.51035,-3.66468 -0.27274,-6.27566 -0.37839,-1.26166 -0.8894,-3.0345 -1.13556,-3.93965 l -0.44757,-1.64571 0.9975,-1.65892 c 1.06572,-1.77238 1.69892,-4.29861 1.45468,-5.80366 -0.0795,-0.48961 -0.58469,-1.86521 -1.12275,-3.0569 -0.53806,-1.19169 -0.9783,-2.42889 -0.9783,-2.74933 0,-0.39073 -0.17264,-0.58262 -0.52419,-0.58262 -0.75417,0 -1.86022,-1.44402 -2.37348,-3.09872 -0.4899,-1.5794 -0.8406,-6.05069 -0.56173,-7.16181 0.37293,-1.48587 0.65883,-0.61075 0.64143,1.96339 -0.0195,2.89013 0.51797,5.46306 1.38342,6.62224 1.18655,1.58925 1.43793,0.80331 1.42724,-4.46224 l -0.007,-3.6 -1.23959,-1.6418 c -1.06036,-1.40441 -1.22785,-1.80007 -1.15841,-2.73644 0.0575,-0.7748 0.24455,-1.17666 0.64027,-1.37535 2.07199,-1.04027 2.99125,-2.59576 2.73579,-4.62925 -0.26738,-2.1284 -0.94748,-4.38751 -1.43374,-4.76252 -0.36677,-0.28286 -0.39538,-0.63944 -0.18707,-2.33143 0.13527,-1.09862 0.23935,-6.93464 0.23131,-12.96892 -0.0153,-11.480444 -0.26107,-15.143327 -1.24423,-18.543862 -0.2882,-0.996836 -0.524,-2.12697 -0.524,-2.51141 0,-0.38444 -0.50451,-2.160847 -1.12113,-3.947572 -0.61662,-1.786724 -1.21368,-3.769791 -1.32681,-4.406814 -0.1606,-0.904372 -0.53107,-1.475478 -1.6903,-2.605715 -1.16307,-1.13398 -1.92353,-2.308889 -3.51108,-5.424632 -1.11456,-2.187428 -2.4002,-4.374454 -2.85699,-4.860056 -0.82478,-0.876823 -0.82819,-0.893311 -0.49318,-2.39026 0.29173,-1.303589 0.27593,-1.636726 -0.11686,-2.46447 -0.61075,-1.287072 -1.00171,-1.564376 -2.2368,-1.586544 -2.24812,-0.04035 -2.15373,-0.117515 -2.05223,1.677638 0.0766,1.354376 -0.003,1.71766 -0.48,2.194785 -0.32538,0.325378 -0.92635,0.571764 -1.39462,0.571764 -0.45257,0 -0.82286,0.07628 -0.82286,0.169505 0,0.09323 0.37029,0.591237 0.82286,1.106687 1.18486,1.349489 1.08419,1.874625 -0.46029,2.400882 -2.49995,0.851819 -4.53451,0.505528 -7.21725,-1.228415 -1.17722,-0.760871 -1.63304,-1.202082 -1.44065,-1.39447 0.19239,-0.192388 0.7247,0.02348 1.68239,0.682254 0.77052,0.530028 1.84529,1.110331 2.38836,1.289562 1.15799,0.382171 4.35788,0.241837 4.8107,-0.210977 0.40671,-0.406713 -0.68079,-1.733427 -2.6109,-3.185215 -1.74423,-1.311974 -1.6276,-1.187686 -1.42388,-1.517306 0.10282,-0.166362 0.65383,0.04692 1.3701,0.530323 0.65896,0.444729 1.51161,0.808599 1.89477,0.808599 1.00366,0 2.00158,-0.435164 2.20328,-0.960786 0.26104,-0.68026 -0.11905,-2.604928 -0.51443,-2.604928 -0.18965,0 -0.56115,-0.330158 -0.82555,-0.733685 -0.41004,-0.6258 -0.43187,-0.868815 -0.14843,-1.652664 0.66163,-1.829696 -0.44132,-4.219278 -2.33389,-5.056451 -0.9942,-0.439781 -1.36845,-0.472642 -2.53459,-0.222552 -0.75248,0.161379 -1.58467,0.532673 -1.84931,0.825098 -0.71608,0.791256 -1.14573,0.653463 -1.76844,-0.567159 -0.30832,-0.604362 -0.80455,-1.251195 -1.10272,-1.437407 -0.70919,-0.442895 -0.69103,-1.204764 0.038,-1.594938 0.47251,-0.25288 0.55197,-0.484163 0.42825,-1.246542 -0.22927,-1.412831 -1.10854,-2.431781 -2.71494,-3.146217 -1.31721,-0.585823 -1.7859,-0.638713 -5.19821,-0.586601 l -3.75046,0.05728 -0.3381,-1.027651 c -0.44014,-1.337769 -1.51344,-2.949373 -2.31326,-3.473436 -0.60627,-0.397241 -0.72549,-0.343028 -2.68454,1.220756 -1.12755,0.900052 -2.29385,1.636458 -2.59177,1.636458 -0.29793,0 -1.02152,-0.382374 -1.60798,-0.849718 -0.93932,-0.748544 -1.22385,-0.834751 -2.38962,-0.72401 -1.60099,0.152084 -1.93719,0.460267 -2.78713,2.554864 -0.60595,1.493307 -0.75464,1.653106 -1.84009,1.977637 -0.79034,0.236297 -2.5869,0.332148 -5.4323,0.289826 -4.834,-0.0719 -5.50618,0.117607 -6.71213,1.892334 -0.79144,1.164707 -0.86391,2.160201 -0.29491,4.05087 0.21928,0.728587 0.35219,1.39992 0.29538,1.491852 -0.0568,0.09193 -0.93668,0.191846 -1.95525,0.222031 -1.01857,0.03019 -2.25421,0.18764 -2.74585,0.349898 -1.16374,0.384066 -2.73679,2.144921 -3.5994,4.029113 -0.56734,1.239232 -0.6332,1.615672 -0.37993,2.171538 0.51191,1.123524 0.35084,1.579658 -0.73404,2.078731 -1.77274,0.815503 -2.48863,2.766016 -2.64544,7.207728 -0.0674,1.908034 -0.28975,3.060545 -0.97919,5.074448 -0.49062,1.433143 -1.11867,2.856086 -1.39565,3.162095 -0.69271,0.765284 -1.30015,2.580183 -1.78238,5.325329 -0.4936,2.809899 -1.07159,4.174414 -2.572579,6.073307 -1.376427,1.741311 -2.092195,3.092047 -2.340838,4.417431 -0.228456,1.217776 0.156354,1.994705 1.274311,2.572823 l 0.844413,0.436663 -0.128178,1.966176 c -0.0705,1.081397 -0.01435,3.919628 0.124764,6.30718 0.207122,3.554651 0.175278,4.793131 -0.175794,6.836901 -0.991023,5.76927 -0.356595,11.78206 1.823091,17.27838 1.98925,5.01609 3.18267,6.11601 3.72097,3.42943 0.38934,-1.94316 0.0344,-3.72445 -1.46209,-7.33714 -0.68747,-1.65966 -1.01272,-4.95967 -0.50553,-5.12912 0.18969,-0.0634 0.36594,0.58026 0.47308,1.72759 0.12369,1.32453 0.50314,2.55575 1.37654,4.46649 0.66318,1.45084 1.36632,3.06989 1.56254,3.59789 1.37774,3.70725 4.00729,7.56741 6.92864,10.17116 1.59482,1.42145 2.8577,3.16264 2.53055,3.48898 -0.17616,0.17572 -0.91602,-0.54524 -1.83332,-1.78647 -0.20291,-0.27456 -0.87532,-0.92931 -1.49426,-1.455 -2.01329,-1.71 -4.38349,-4.86487 -5.71923,-7.61263 l -0.88664,-1.82391 -0.19585,1.47638 c -0.32267,2.43239 -0.73152,2.83333 -2.20476,2.16208 -0.96289,-0.43873 -1.40938,-1.20729 -3.08173,-5.30472 -1.238118,-3.03351 -1.456338,-3.41279 -1.45836,-2.53475 -0.0013,0.56789 -0.426548,2.08446 -0.944979,3.37015 -1.352127,3.35322 -1.677859,4.99327 -1.255741,6.32262 0.388642,1.22392 1.849286,3.97524 3.21766,6.0609 0.79949,1.21857 0.9463,1.69776 1.00837,3.29143 0.0793,2.03559 0.79856,3.80603 1.7895,4.40468 0.65013,0.39276 0.7576,0.8891 0.1925,0.8891 -0.50789,0 -2.08754,-1.63969 -2.09803,-2.17778 -0.007,-0.37502 -0.0373,-0.37706 -0.24258,-0.0165 -0.31343,0.5505 -0.698699,3.15694 -1.432533,9.69146 -0.58525,5.21145 -0.590803,5.47739 -0.132152,6.32906 0.299411,0.55597 0.413436,1.14932 0.304373,1.58386 -0.217148,0.86519 0.374127,2.328 1.371792,3.39381 0.75225,0.80364 0.7551,0.82151 0.59334,3.7191 -0.0894,1.60138 -0.0532,3.29292 0.0805,3.759 0.17183,0.59913 0.0983,1.43367 -0.25087,2.84841 -0.27165,1.10056 -0.57961,3.17891 -0.68435,4.61855 -0.17403,2.39205 -0.14213,2.6756 0.37035,3.29143 l 0.56079,0.67389 0.009,-1.69643 c 0.01,-1.83533 0.35955,-3.10357 0.85572,-3.10357 0.21655,0 0.2441,0.31376 0.0903,1.02857 -0.4368,2.03054 0.10758,5.98326 0.79258,5.75492 0.41809,-0.13936 1.2145,-2.2801 1.6872,-4.53516 0.2022,-0.9646 0.49283,-1.87902 0.64584,-2.03203 0.39474,-0.39474 0.9798,0.0121 0.62763,0.43648 -0.15047,0.18131 -0.40426,0.94175 -0.56398,1.68986 -0.15971,0.74812 -0.35351,1.63793 -0.43066,1.97736 -0.23001,1.01188 0.78002,0.76046 1.82682,-0.45475 1.77255,-2.0577 2.48773,-3.35517 2.57929,-4.67925 0.10777,-1.55865 0.88053,-3.57457 1.37022,-3.57457 0.278,0 0.23966,0.34491 -0.16692,1.50172 -0.63899,1.81804 -0.67213,3.10732 -0.10083,3.92296 0.47281,0.67504 1.12518,0.76784 1.79767,0.25572 0.60524,-0.4609 1.84275,-2.99 1.68354,-3.44063 -0.0892,-0.25234 0.0718,-0.33748 0.5184,-0.27428 0.43241,0.0612 0.64786,0.27277 0.64818,0.63656 6.5e-4,0.71509 0.80767,0.85196 1.67451,0.28398 l 0.68802,-0.45081 -0.6853,-0.53905 c -0.9716,-0.76426 -1.07122,-1.332 -0.59443,-3.38785 0.60087,-2.59092 3.12491,-7.27749 3.92243,-7.28307 0.52856,-0.004 0.42412,0.26547 -0.89035,2.29456 -1.94865,3.00805 -3.063,6.56 -2.33374,7.4387 0.46441,0.55958 0.73236,0.51903 0.90386,-0.13679 0.0846,-0.32352 0.2982,-0.49043 0.51911,-0.40566 0.40117,0.15394 1.68507,-1.78637 2.63472,-3.98178 0.53151,-1.22876 1.15497,-4.98729 1.15497,-6.9628 0,-0.70895 0.1085,-1.00038 0.34285,-0.92085 0.37752,0.12811 0.38659,0.93354 0.0602,5.33995 -0.18875,2.548 -0.16307,2.82203 0.28045,2.99223 0.73007,0.28015 1.2167,-0.14709 2.96409,-2.60238 1.45251,-2.04093 2.11244,-2.65858 2.11244,-1.9771 0,0.39391 -2.97511,4.47904 -3.65325,5.01628 -0.80121,0.63475 -1.71582,0.60822 -2.18626,-0.0634 -0.36757,-0.52477 -0.4084,-0.49729 -0.90698,0.61048 -0.28715,0.638 -1.01775,1.84185 -1.62356,2.67523 -0.6058,0.83338 -1.30596,1.83573 -1.55589,2.22745 -0.63105,0.98903 -1.9656,1.51365 -2.83862,1.11588 -0.61788,-0.28153 -0.71273,-0.2246 -1.19274,0.71589 -1.02557,2.00944 -2.44356,2.67361 -3.66196,1.71522 l -0.72694,-0.57181 -1.07926,1.58487 c -1.37158,2.01414 -1.98305,2.55583 -2.9641,2.62583 -0.58126,0.0415 -0.93324,0.30769 -1.34357,1.0162 -0.80377,1.38784 -1.60689,1.40567 -2.29798,0.051 -0.30318,-0.59428 -0.73073,-1.14938 -0.9501,-1.23357 -0.55336,-0.21234 -0.88896,4.27379 -0.48352,6.4636 0.3413,1.84334 2.62935,7.79446 3.27561,8.5197 0.42862,0.481 0.45033,0.481 0.63997,0 0.10797,-0.27384 0.20498,-0.878 0.21558,-1.34257 z m 9.51818,-27.87944 0.0799,-4.46446 -0.37265,2.91799 c -0.44529,3.48665 -0.63404,4.16158 -1.11251,3.97797 -0.20376,-0.0782 -0.42277,0.10349 -0.50533,0.41919 -0.25688,0.98231 -0.80593,0.25733 -0.6326,-0.83531 0.0867,-0.54677 0.28868,-2.47527 0.44877,-4.28555 0.16009,-1.81029 0.35908,-3.63086 0.44221,-4.04572 0.17546,-0.87564 0.65613,-1.01842 0.65613,-0.1949 0,0.44905 0.0708,0.4932 0.35921,0.22383 0.19757,-0.18455 0.35186,-0.55465 0.34286,-0.82244 -0.0276,-0.82124 0.47946,-0.69595 0.71378,0.17637 0.34936,1.30064 0.56417,7.78946 0.31706,9.57737 -0.12339,0.8927 -0.35765,1.66742 -0.52058,1.7216 -0.20618,0.0686 -0.27193,-1.25872 -0.21629,-4.36594 z m -1.1314,-1.99305 0.10796,-2.74569 -0.24325,2.19428 c -0.13378,1.20686 -0.30584,2.74972 -0.38236,3.42857 -0.1138,1.00972 -0.0892,1.11004 0.13529,0.55141 0.15091,-0.37559 0.32298,-1.91844 0.38236,-3.42857 z m -10.201,4.22693 c -0.85797,-0.31741 -1.18364,-1.09718 -1.18364,-2.83404 0,-2.21605 1.78923,-6.7443 2.66485,-6.7443 0.40106,0 0.47416,0.44088 0.11038,0.66571 -0.13306,0.0822 -0.65316,1.16952 -1.15578,2.41619 -1.28624,3.19029 -1.19902,5.96953 0.18734,5.96953 0.67225,0 1.002,-1.15601 1.24022,-4.34782 0.2187,-2.93027 0.50291,-4.02343 0.88523,-3.40483 0.0848,0.13719 0.0395,1.0428 -0.10067,2.01247 -0.14015,0.96967 -0.25731,2.3309 -0.26034,3.02496 -0.0107,2.44331 -0.98191,3.76215 -2.38759,3.24213 z m 29.90889,-3.53142 c -3.4619,-0.82554 -6.90434,-5.61611 -7.49363,-10.42829 -0.34836,-2.84482 -0.36877,-5.49291 -0.0423,-5.49291 0.35504,0 0.57228,1.02934 0.57889,2.74285 0.0169,4.38471 1.39482,7.94215 4.06145,10.48568 1.0439,0.99571 1.99078,1.63645 2.68498,1.81689 2.05475,0.53406 2.16194,0.51812 2.25954,-0.33598 0.0495,-0.43324 -0.0431,-0.92078 -0.20571,-1.08343 -0.35627,-0.35627 -0.39578,-1.55744 -0.0512,-1.55744 0.31969,0 1.12693,2.02767 1.12693,2.83069 0,1.20532 -0.87104,1.51029 -2.9189,1.02194 z m -24.92967,-2.21638 c -0.59256,-0.65478 -0.66787,-3.22952 -0.15014,-5.1334 0.40115,-1.4752 0.99236,-1.58627 0.72994,-0.13714 -0.52119,2.87819 -0.51033,4.02942 0.0445,4.71382 l 0.5416,0.6681 0.701,-0.701 c 0.83843,-0.83843 2.12049,-4.68189 2.1151,-6.34079 -0.007,-2.17042 -0.0895,-2.26098 -2.08773,-2.29448 -2.16406,-0.0363 -2.71687,-0.45724 -3.8156,-2.90553 -1.44181,-3.21279 -2.41564,-11.59948 -1.80178,-15.51711 0.3169,-2.02238 1.18027,-4.16015 1.68014,-4.16015 0.3941,0 0.33569,0.32765 -0.32388,1.81656 -1.51859,3.42808 -0.64335,14.2845 1.4727,18.26722 0.7762,1.46093 1.53403,2.09461 2.09234,1.74956 0.12897,-0.0797 0.24849,-1.6614 0.2656,-3.51485 0.0406,-4.40302 1.30103,-10.83312 2.06791,-10.54984 0.17429,0.0644 0.26775,0.28678 0.20769,0.49421 -0.70609,2.43832 -1.41999,6.75164 -1.53783,9.29142 l -0.14635,3.15429 0.56229,-1.21211 c 0.38268,-0.82491 0.65178,-1.12263 0.84242,-0.93199 0.19064,0.19064 0.10036,0.75307 -0.2826,1.76068 -0.65543,1.72446 -0.63562,1.61771 -0.30028,1.61771 0.50781,0 1.61103,-2.36464 2.62334,-5.62286 0.56245,-1.81029 1.1306,-3.40869 1.26257,-3.552 0.62535,-0.67914 0.1208,1.7591 -1.02597,4.95796 -1.29264,3.60578 -1.41841,4.34372 -1.07067,6.28205 0.35581,1.9833 -1.37068,7.4252 -2.55717,8.06019 -0.83705,0.44797 -1.54733,0.36024 -2.10911,-0.26052 z m 12.98769,-4.32849 c -0.0821,-1.13519 -0.41971,-2.23896 -1.13094,-3.69753 -0.55764,-1.14359 -1.0139,-2.27201 -1.0139,-2.5076 0,-0.94729 0.5145,-0.30863 1.61224,2.00131 0.88832,1.86927 1.16768,2.79571 1.2112,4.0167 0.078,2.18747 -0.52194,2.35289 -0.6786,0.18712 z m -19.60091,-3.20744 c -0.63818,-1.66308 1.54544,-9.02352 2.41812,-8.15085 0.17844,0.17844 0.0864,0.63336 -0.26957,1.33218 -0.83912,1.6474 -1.4239,3.89936 -1.4239,5.48337 0,1.44299 -0.40028,2.18058 -0.72465,1.3353 z m 20.05487,-0.1458 c -0.33347,-0.53956 -0.4943,-6.45992 -0.19025,-7.00323 0.2724,-0.48677 0.30087,-0.47627 0.43694,0.16116 0.24344,1.14033 0.35846,7.12755 0.13692,7.12755 -0.11394,0 -0.28657,-0.12847 -0.38361,-0.28548 z m 62.63578,-2.66309 c -1.70948,-1.59847 -2.83777,-3.2078 -3.78253,-5.39523 -0.39614,-0.9172 -1.11388,-2.2742 -1.59496,-3.01556 -1.12458,-1.73297 -1.7767,-3.45186 -1.662,-4.38079 0.1402,-1.13559 0.62193,-0.86795 0.79159,0.4398 0.19605,1.51108 1.12954,3.29447 2.03501,3.88776 0.7072,0.46337 0.71225,0.46111 1.11294,-0.49787 0.22138,-0.52984 0.39737,-1.43017 0.39108,-2.00073 -0.0211,-1.91951 -1.25371,-7.04102 -2.09794,-8.71738 -1.09733,-2.1789 -1.26218,-2.9441 -0.77344,-3.58994 0.3722,-0.49184 0.39734,-0.4682 0.40552,0.38126 0.005,0.49809 0.44137,1.74165 0.97016,2.76347 0.63638,1.22971 1.15982,2.84779 1.54818,4.78581 0.3227,1.61038 0.69234,2.92797 0.82142,2.92797 0.12907,0 0.23468,0.44695 0.23468,0.99322 0,0.69105 0.41502,1.71329 1.36413,3.36 1.50054,2.60344 2.37124,4.87474 2.63714,6.87923 0.17358,1.30852 -0.17212,2.48183 -0.73124,2.48183 -0.15202,0 -0.9034,-0.58628 -1.66974,-1.30285 z m 1.1317,-3.30623 c -0.32687,-1.01015 -1.16215,-2.84293 -1.85618,-4.07284 l -1.26187,-2.23622 -0.47927,1.0705 c -0.2636,0.58878 -0.60874,1.0705 -0.76698,1.0705 -1.03504,0 1.11965,4.29951 3.21559,6.41643 l 1.571,1.58673 0.086,-0.99923 c 0.0473,-0.54958 -0.18143,-1.82572 -0.50831,-2.83587 z m -66.01638,-1.6922 c -0.48642,-0.29658 -1.26534,-1.21423 -1.73094,-2.03923 -0.55401,-0.98164 -1.05079,-1.52952 -1.43761,-1.58545 -0.32509,-0.047 -0.87417,-0.50656 -1.22017,-1.02122 -1.45831,-2.16915 -2.65277,-8.86095 -1.44883,-8.11687 0.15192,0.0939 0.27805,0.62629 0.28028,1.1831 0.008,2.05104 1.59725,7.18381 2.22401,7.18381 0.28124,0 0.36188,-1.27273 0.25632,-4.04571 -0.0416,-1.09372 0.0365,-1.98858 0.17358,-1.98858 0.26258,0 0.90593,3.88699 0.91032,5.49995 0.004,1.54233 2.05937,4.64863 3.0756,4.64863 0.59268,0 0.0905,-1.99444 -1.02561,-4.07331 -1.14232,-2.12768 -1.51735,-3.3449 -1.02399,-3.32348 0.11314,0.005 0.3986,0.40606 0.63436,0.89143 0.23575,0.48538 0.83134,1.63569 1.32352,2.55627 1.1385,2.12943 1.41921,3.88053 0.7057,4.40226 -0.64324,0.47035 -0.64378,0.47029 -1.69654,-0.1716 z m 62.96527,-14.44475 c -1.04459,-2.36147 -0.90404,-6.60694 0.25029,-7.56038 0.38149,-0.3151 0.40782,-0.261 0.22702,0.46641 -0.11248,0.45257 -0.26727,1.74857 -0.34396,2.88 -0.1126,1.66108 -0.0289,2.3476 0.43445,3.56572 0.65589,1.72408 0.68491,1.92 0.28447,1.92 -0.15934,0 -0.54286,-0.57229 -0.85227,-1.27175 z m -2.05771,-1.6746 c -0.59734,-1.42963 -0.35331,-4.54031 0.58652,-7.47651 0.41044,-1.28229 0.85568,-2.44663 0.98942,-2.58743 0.63583,-0.66936 0.54021,0.36883 -0.27318,2.96626 -0.75831,2.42153 -0.87398,3.14915 -0.77394,4.86839 0.0647,1.11175 0.21278,2.29907 0.32909,2.63849 0.3656,1.06697 -0.39214,0.70554 -0.85791,-0.4092 z M 158.4,125.79049 c -1.52276,-0.66523 -2.63029,-1.87492 -5.0239,-5.48732 l -2.38182,-3.5946 -0.0823,1.57814 c -0.0453,0.86797 0.0604,2.2874 0.23475,3.15428 0.48362,2.40422 0.46915,2.67329 -0.14368,2.67329 -0.70428,0 -1.19134,-1.57676 -1.22854,-3.97714 -0.0576,-3.71727 -0.83472,-4.98612 -3.2572,-5.31815 -1.2207,-0.16732 -1.29991,-0.13277 -2.59688,1.13278 -1.59839,1.55966 -2.76775,3.74146 -3.24582,6.05608 -0.26174,1.26719 -0.46663,1.69501 -0.8118,1.69501 -0.66096,0 -0.77447,-0.7775 -0.34191,-2.34189 0.54252,-1.96207 0.89407,-4.63434 0.90439,-6.87469 0.007,-1.57702 -0.10856,-2.12148 -0.60817,-2.85886 -0.87035,-1.28456 -1.16166,-1.27192 -1.56258,0.0678 -1.04988,3.50831 -5.38583,9.9812 -6.30535,9.4129 -0.2113,-0.13059 0.0533,-0.59858 0.79065,-1.39854 2.48069,-2.69123 4.97073,-7.53474 5.13856,-9.99531 0.0566,-0.82971 0.21941,-1.87885 0.36183,-2.33142 0.47374,-1.5055 -0.36558,-3.51961 -2.25337,-5.40741 -0.60321,-0.60321 -1.61689,-0.61702 -3.2326,-0.044 -0.96164,0.34104 -1.84014,0.40158 -3.97714,0.27407 -4.02578,-0.24021 -9.71967,-1.94411 -8.97732,-2.686469 0.18286,-0.182857 0.57016,-0.121286 1.1619,0.184714 1.76482,0.912625 5.9777,1.781965 8.6355,1.781965 2.26148,0 2.69079,-0.0842 4.01054,-0.78649 1.20849,-0.64309 1.61464,-1.055669 2.22764,-2.262856 0.80282,-1.58099 0.90817,-2.282276 0.50297,-3.34804 -0.28613,-0.752586 -1.99105,-2.06102 -3.85837,-2.961086 -0.67886,-0.327217 -1.67849,-0.821403 -2.2214,-1.098193 -1.1047,-0.563206 -5.42883,-1.662674 -5.75249,-1.462646 -0.11476,0.07092 -0.53578,0.0046 -0.93561,-0.147436 -0.39983,-0.152014 -1.56746,-0.45164 -2.59474,-0.665834 -1.95425,-0.407472 -4.67862,-1.620678 -4.67862,-2.083464 0,-0.417606 0.45527,-0.325402 1.86055,0.37681 1.84362,0.921252 2.55108,1.053922 6.09374,1.142773 4.21715,0.105767 11.16264,1.684638 11.94015,2.714274 0.29123,0.385663 2.0761,0.977947 2.95527,0.980662 0.32061,9.9e-4 0.67557,-0.4098 1.00596,-1.164185 0.79464,-1.814429 2.26816,-8.169442 2.09499,-9.035297 -0.0845,-0.422225 -0.8208,-1.724869 -1.63635,-2.894764 -1.92571,-2.762431 -2.77854,-4.495576 -3.18845,-6.479649 -0.28358,-1.372625 -0.27198,-1.670292 0.0788,-2.021027 0.61365,-0.613651 0.91878,-0.246462 1.13158,1.361724 0.23582,1.782188 0.85587,3.216534 2.36457,5.469893 2.05404,3.067881 1.79932,3.033195 3.46543,0.47188 1.26484,-1.94443 2.5538,-5.041736 2.5538,-6.136638 0,-0.529006 0.655,-0.963666 1.06776,-0.708568 0.28924,0.178762 0.30305,0.507314 0.0675,1.605777 -0.47057,2.19418 -1.21227,3.876496 -2.72623,6.183623 -0.77538,1.18161 -1.48655,2.557566 -1.58037,3.057679 -0.42815,2.282223 1.42736,6.71607 3.61406,8.636022 0.98511,0.864933 1.05635,0.882614 2.82111,0.700191 0.99577,-0.102932 2.16888,-0.362195 2.60691,-0.57614 0.43804,-0.213945 0.9693,-0.388991 1.18057,-0.388991 0.51256,0 6.68805,-2.041654 7.51769,-2.485388 1.41861,-0.758755 3.25455,-2.318654 4.22191,-3.587141 0.98359,-1.289766 1.57171,-1.61872 1.91139,-1.069103 0.23562,0.381238 -0.97519,2.186871 -2.21767,3.307143 -2.3037,2.077105 -3.21249,2.56697 -7.41903,3.999098 -2.35037,0.80019 -4.4867,1.64792 -4.7474,1.883844 -0.61247,0.554283 -1.10674,2.221966 -1.10674,3.734199 0,1.358909 0.73132,3.517562 1.36,4.014339 0.95947,0.758155 4.66807,0.242685 7.37818,-1.025528 1.89747,-0.887936 2.23325,-0.967528 2.23325,-0.529372 0,0.158293 -0.90885,0.719418 -2.01967,1.246944 -1.60423,0.761841 -2.57749,1.017611 -4.73143,1.243401 -1.49147,0.15634 -3.06578,0.41852 -3.49848,0.58262 -1.2262,0.46504 -1.81746,1.69423 -1.81377,3.77066 0.003,1.87424 0.27233,2.66844 0.79448,2.34574 0.17186,-0.10622 0.85793,0.0709 1.5246,0.39367 1.42196,0.68835 3.79208,3.7251 6.31789,8.09487 0.87198,1.50857 1.88868,3.15211 2.25932,3.6523 0.37064,0.5002 0.60503,0.9783 0.52087,1.06246 -0.41723,0.41723 -1.13657,-0.46387 -3.12888,-3.83244 -3.21337,-5.43312 -5.04788,-7.80638 -6.54682,-8.46943 -0.95057,-0.42049 -1.31794,-0.47204 -1.61383,-0.22647 -0.21071,0.17488 -0.48981,0.25201 -0.62022,0.17141 -0.60281,-0.37256 -1.942,0.92273 -2.50231,2.4203 -0.91835,2.45452 -0.84435,2.69065 1.20682,3.85068 1.6723,0.94575 1.77158,1.06067 4.66995,5.4056 2.45779,3.68445 3.59203,4.83179 5.25089,5.31154 0.5601,0.16199 1.06676,0.4397 1.1259,0.61714 0.14285,0.42854 -0.95427,0.39647 -1.99531,-0.0583 z m -13.66375,-12.20417 c 0.32951,-0.16848 0.86137,-0.30632 1.1819,-0.30632 0.33422,0 0.50748,-0.12186 0.40622,-0.28571 -0.0971,-0.15714 0.0812,-1.13452 0.39635,-2.17195 0.47019,-1.54799 0.79407,-2.08091 1.80611,-2.97173 1.21027,-1.06533 1.23317,-1.11684 1.23317,-2.774 0,-1.94306 0.4855,-3.30444 1.52054,-4.26369 l 0.72551,-0.67237 -0.57445,-1.659941 c -0.67142,-1.940105 -0.72194,-3.274821 -0.19076,-5.039778 l 0.38369,-1.274925 -1.85766,0.05599 c -1.66433,0.05017 -1.96417,-0.02524 -2.88102,-0.724553 -1.11107,-0.847455 -3.28646,-4.000904 -3.58754,-5.200499 -0.2517,-1.002858 -0.39066,-0.787836 -0.82264,1.272942 -0.55897,2.666636 -1.45528,4.82726 -2.20681,5.31968 -0.65371,0.428323 -0.95107,0.420869 -3.26315,-0.0818 -0.79611,-0.173084 -0.80759,-0.161675 -0.35331,0.351041 0.61404,0.693029 1.31337,2.384158 1.3131,3.175339 -1.2e-4,0.344274 -0.37505,1.41828 -0.83318,2.38668 l -0.83295,1.760723 0.92729,0.98213 c 2.00591,2.12454 2.24762,2.68856 2.24762,5.24459 0,2.22454 0.0445,2.39858 0.88321,3.45766 1.1797,1.48958 1.44822,2.28433 1.44822,4.28628 v 1.68496 l 1.16572,-1.12221 c 0.64114,-0.61722 1.43531,-1.26006 1.76482,-1.42854 z m 21.16164,9.30838 c -1.10494,-0.21435 -2.42361,-0.97197 -2.42361,-1.39245 0,-0.39387 0.30826,-0.33297 1.51915,0.30013 0.90644,0.47391 1.38213,0.53996 2.86943,0.3984 1.55215,-0.14774 1.72961,-0.11891 1.37142,0.22283 -0.52868,0.50439 -2.05432,0.71981 -3.33639,0.47109 z m -37.53218,-5.58189 c 0,-0.19567 0.50419,-0.84367 1.12042,-1.44 2.07353,-2.00658 2.80577,-3.16515 3.68897,-5.83682 0.47738,-1.44407 1.00999,-2.67292 1.18357,-2.73079 0.48615,-0.16205 0.38543,0.45393 -0.50493,3.08797 -0.97447,2.88284 -1.24312,3.3242 -3.38497,5.56111 -1.65024,1.72348 -2.10306,2.01599 -2.10306,1.35853 z m -1.92,-3.34339 c 0,-0.28649 9.79542,-10.01513 10.08387,-10.01513 0.60173,0 0.59835,0.49562 -0.006,0.91326 -0.97925,0.67646 -2.66441,2.34162 -4.79923,4.74225 -2.27437,2.55757 -5.27842,5.03871 -5.27842,4.35962 z m 43.26857,-0.48735 c -1.33009,-0.34838 -2.12571,-0.69571 -2.12571,-0.92799 0,-0.20417 0.0995,-0.37122 0.22108,-0.37122 0.62916,0 4.37977,1.27215 4.42742,1.50171 0.0871,0.41968 -0.2509,0.39255 -2.52279,-0.2025 z m -2.79623,-1.54892 c -0.23143,-0.37445 0.55753,-1.55248 1.47934,-2.20887 0.63842,-0.45459 2.62136,-1.07632 4.95118,-1.55239 l 0.68571,-0.14011 -0.65182,0.57045 c -0.35851,0.31374 -0.97565,0.6362 -1.37143,0.71658 -2.22737,0.45232 -2.97778,0.80001 -3.91587,1.81432 -0.5712,0.61762 -1.07727,0.96157 -1.17711,0.80002 z m -64.06502,-3.32178 c -1.30063,-1.82656 -2.41148,-6.84154 -2.05834,-9.2924 0.52448,-3.639895 0.86905,-3.28822 0.84645,0.86389 -0.0208,3.81812 0.65015,6.64647 1.89536,7.99008 0.38064,0.41071 0.69207,0.86382 0.69207,1.00691 0,0.55627 -0.81427,0.21975 -1.37554,-0.56848 z m 2.5443,-2.90299 c -0.75818,-0.79702 -1.1991,-1.63672 -1.64647,-3.13559 -0.92038,-3.08373 -1.27497,-5.204114 -0.92824,-5.550837 0.36479,-0.364792 0.43615,-0.162501 0.95905,2.718595 0.50893,2.804182 1.37826,4.848332 2.44281,5.744092 0.6119,0.51488 0.74581,0.77478 0.51705,1.00355 -0.22876,0.22876 -0.57689,0.0268 -1.3442,-0.77981 z m 64.38553,-2.00601 c 0,-0.13855 0.42793,-0.51639 0.95097,-0.83965 0.52303,-0.32325 1.92548,-1.62932 3.11656,-2.902367 1.88662,-2.016465 3.0397,-2.882419 2.74389,-2.060643 -0.19796,0.549964 -3.95862,4.52446 -4.98351,5.26689 -1.09079,0.79017 -1.82791,1.00622 -1.82791,0.53577 z m -4.3827,-4.342371 c 0.003,-0.113143 1.05646,-0.814742 2.34053,-1.559109 1.28406,-0.744367 3.06236,-2.011924 3.95177,-2.816793 2.05122,-1.856254 2.58647,-1.410863 0.57451,0.478066 -2.36501,2.220389 -6.89228,4.790217 -6.86681,3.897836 z m -40.7676,-12.585197 c -1.09395,-0.740688 -4.4942,-4.188355 -4.49498,-4.55766 -0.001,-0.532637 0.68692,-0.0022 3.29099,2.537143 2.82434,2.75413 3.18743,3.363462 1.20399,2.020517 z m 7.78722,-4.853249 c -0.37889,-0.351145 -0.83849,-1.091717 -1.02132,-1.645714 -0.24855,-0.753105 -0.48429,-1.007268 -0.93424,-1.007268 -0.33099,0 -1.44185,-0.232938 -2.46858,-0.51764 -1.96514,-0.544918 -3.46993,-1.651118 -3.46993,-2.550819 0,-0.710089 0.507,-0.614318 0.86101,0.162642 0.16536,0.362944 0.68729,0.858636 1.15983,1.101537 0.8779,0.451272 4.31895,1.315923 4.5033,1.131571 0.0561,-0.05609 0.12311,-1.593499 0.14892,-3.416461 0.0258,-1.822962 0.14257,-3.314942 0.25945,-3.315511 0.53254,-0.0026 0.73042,1.601844 0.56864,4.610635 -0.1463,2.720819 -0.10114,3.358821 0.29149,4.11809 0.25554,0.494156 0.64331,0.967034 0.8617,1.050842 0.4229,0.162279 0.55692,0.916542 0.16286,0.916542 -0.12883,0 -0.54424,-0.2873 -0.92313,-0.638446 z m 24.47462,-3.116795 c 0.002,-0.272903 0.1907,-1.11333 0.42015,-1.867616 0.29784,-0.97909 0.36532,-1.901085 0.23588,-3.222857 -0.11616,-1.186135 -0.0815,-1.851428 0.0964,-1.851428 0.72088,0 0.84039,3.906599 0.1789,5.847962 -0.46445,1.363087 -0.93628,1.917285 -0.93135,1.093939 z M 119.09486,65.225142 c -0.45182,-0.451813 -0.41436,-3.85202 0.0622,-5.642044 0.6395,-2.402257 2.47612,-5.241395 3.03142,-4.686095 0.0867,0.08668 -0.27796,0.804844 -0.81032,1.595921 -0.53235,0.791077 -1.14456,2.073505 -1.36046,2.849841 -0.55567,1.998039 -0.77545,4.61914 -0.42885,5.114377 0.24118,0.344603 0.43161,0.244362 1.17243,-0.617155 0.94218,-1.095675 1.29591,-1.26946 1.29591,-0.63666 0,0.522123 -1.74282,2.350958 -2.24038,2.350958 -0.21602,0 -0.54088,-0.148114 -0.7219,-0.329143 z M 155.65714,54.26787 c -1.39293,-0.757453 -2.60571,-1.713334 -2.60571,-2.053745 0,-0.512122 0.0299,-0.501465 1.64571,0.585875 0.78461,0.528 1.65667,0.96 1.93791,0.96 1.17099,0 1.34171,-2.249689 0.37799,-4.98115 -0.40836,-1.157438 -0.32799,-2.20799 0.1313,-1.716144 0.39572,0.423776 1.13777,3.355169 1.19821,4.733478 0.0979,2.23261 -1.09906,3.334321 -2.68541,2.471686 z m -29.87755,-0.938891 c -0.5345,-0.534505 -0.53392,-0.62949 0.0175,-2.842884 0.82518,-3.312078 2.73393,-6.600381 3.83129,-6.600381 0.57683,0 0.48078,0.21619 -0.68396,1.539396 -1.74161,1.978575 -3.38936,7.21683 -2.39068,7.600058 0.57617,0.2211 3.89024,-1.540541 5.11494,-2.718919 0.91986,-0.885076 1.63415,-1.198127 1.63415,-0.716201 0,0.487909 -2.16901,2.272903 -3.87794,3.191367 -1.98242,1.065449 -2.97791,1.214981 -3.64533,0.547564 z m 22.19755,-2.005897 c -0.45257,-0.115874 -1.13143,-0.371631 -1.50857,-0.568349 -0.56702,-0.295757 -5.34565,-3.425478 -5.74171,-3.760485 -0.0654,-0.05529 0.004,-0.223645 0.15472,-0.374114 0.18192,-0.181917 0.81909,0.111784 1.90171,0.876585 3.21134,2.26859 5.11504,3.246138 6.32163,3.246138 0.6739,0 1.275,-0.166905 1.4768,-0.410056 0.45574,-0.549137 -0.0104,-1.237672 -2.81659,-4.160706 -2.0959,-2.183133 -2.54531,-2.95469 -1.34769,-2.313744 0.82736,0.442789 4.43835,4.432557 4.93384,5.451379 0.41269,0.848562 0.4064,0.928783 -0.1136,1.448778 -0.62743,0.627431 -2.05177,0.874061 -3.26054,0.564574 z M 129.89479,49.6789 c -0.27205,-0.440192 0.99863,-2.27485 2.41558,-3.487707 2.05975,-1.763066 2.13253,-0.996768 0.10106,1.064012 -0.792,0.803427 -1.63501,1.753862 -1.87335,2.112077 -0.3113,0.46787 -0.49248,0.555633 -0.64329,0.311618 z m 56.33576,141.5967 c 1.31501,-3.86202 1.7861,-7.03982 1.39948,-9.44049 -0.19353,-1.20172 -0.18129,-1.81555 0.0434,-2.17533 0.25989,-0.41614 0.16827,-0.66606 -0.53986,-1.47258 -1.91508,-2.18115 -4.33331,-7.32199 -4.17291,-8.87106 0.097,-0.93654 -0.014,-1.179 -0.53956,-1.179 -0.73199,0 -1.97594,-1.31719 -2.88932,-3.05942 l -0.76871,-1.46629 h -1.47302 c -0.81016,0 -1.47299,0.028 -1.47296,0.0623 4.8e-4,0.53746 1.63763,4.12397 2.36373,5.17824 1.06539,1.54691 1.76842,3.30815 1.54888,3.88028 -0.078,0.20328 -0.49813,0.44085 -0.93361,0.52795 -0.56996,0.11399 -0.83592,0.35986 -0.94936,0.87764 -0.5937,2.71007 -1.13675,2.84393 -3.28706,0.81025 -0.84609,-0.8002 -1.71926,-1.80476 -1.94038,-2.23234 -0.32006,-0.61893 -0.47974,-0.71294 -0.78321,-0.46108 -0.20965,0.174 -0.63463,0.23591 -0.9444,0.1376 -0.80645,-0.25596 -2.20597,-1.49187 -2.20597,-1.94809 0,-0.55768 -0.21984,-0.48093 -0.90539,0.31606 -0.6713,0.78044 -1.42889,0.70067 -1.70836,-0.17988 -0.19388,-0.61083 -0.67768,-0.70376 -0.67768,-0.13016 0,0.47551 1.82738,1.971 3.70286,3.03033 0.75429,0.42605 1.88368,1.24069 2.50977,1.81031 1.07091,0.97435 2.28962,1.88888 6.00127,4.50343 0.89891,0.63321 1.85715,1.60838 2.2661,2.30614 0.72972,1.24508 0.73009,1.24913 0.54727,5.92244 -0.0297,0.75935 0.17185,1.43492 0.65467,2.19428 0.38368,0.60343 1.17791,2.34982 1.76497,3.88087 l 1.06738,2.78373 0.60721,-1.17669 c 0.33396,-0.64718 1.10561,-2.64043 1.71477,-4.42945 z m -9.18451,-16.89846 c 0.32975,-2.32449 -0.0444,-5.01018 -1.18192,-8.48412 -0.6085,-1.8583 -1.33083,-4.15016 -1.60518,-5.09302 -0.27436,-0.94286 -0.56057,-1.71334 -0.63603,-1.71217 -0.0755,0.001 -0.4225,0.50166 -0.77121,1.11222 -0.34871,0.61056 -0.80377,1.17526 -1.01125,1.25487 -0.20748,0.0796 -0.31518,0.3065 -0.23932,0.50418 0.16265,0.42387 -1.34631,4.82182 -2.06811,6.02762 -0.58948,0.98474 -0.39539,2.05164 0.5578,3.06627 1.04469,1.11203 1.25035,0.84824 1.40119,-1.7972 0.10288,-1.80438 0.28691,-2.68683 0.70073,-3.36 0.30866,-0.50211 0.6458,-1.36933 0.7492,-1.92714 0.204,-1.10047 0.80384,-2.10859 1.08647,-1.82596 0.0969,0.0969 -0.20162,1.47281 -0.66329,3.05764 -0.93505,3.20986 -1.04578,4.92641 -0.41561,6.44276 0.45483,1.09445 3.04145,3.89977 3.59574,3.89977 0.18582,0 0.40918,-0.51994 0.50079,-1.16572 z m 1.90912,-2.46857 c -0.1047,-0.33943 -0.38453,-0.98743 -0.62183,-1.44 -0.35605,-0.67905 -0.45028,-0.73418 -0.53921,-0.31547 -0.0593,0.27907 -0.029,0.92707 0.0672,1.44 0.13047,0.69547 0.31599,0.93261 0.72958,0.93261 0.44872,0 0.51827,-0.11784 0.36425,-0.61714 z m -17.40088,-4.04571 c 0,-0.15086 0.18198,-0.27429 0.40439,-0.27429 0.42074,0 1.24133,-1.32858 1.24133,-2.00979 0,-0.21522 -0.37411,-1.60666 -0.83135,-3.09209 -0.45725,-1.48543 -0.87697,-3.19776 -0.93272,-3.80517 -0.0558,-0.60741 -0.11364,-1.13524 -0.12864,-1.17295 -0.015,-0.0377 -0.27415,0.17829 -0.57586,0.48 -0.30172,0.30171 -0.74692,0.54857 -0.98935,0.54857 -0.30172,0 -0.38447,0.14673 -0.26229,0.46511 0.82223,2.14272 0.81594,6.94061 -0.009,6.94061 -0.33097,0 -0.3464,0.11191 -0.0851,0.61714 0.51968,1.0048 1.12304,1.57714 1.66263,1.57714 0.27834,0 0.50606,-0.12343 0.50606,-0.27428 z m -2.46857,-0.14807 c 0,-0.0814 -0.24281,-0.62403 -0.53958,-1.20575 -0.34119,-0.66879 -1.2533,-1.57678 -2.48073,-2.46954 -2.41689,-1.7579 -2.99967,-2.41254 -3.73493,-4.19546 l -0.58382,-1.4157 -0.55249,1.08297 c -0.68961,1.35172 -3.08278,3.77169 -4.30214,4.35031 -0.50478,0.23954 -1.54713,0.43552 -2.31633,0.43552 -0.7692,0 -1.39855,0.11742 -1.39855,0.26092 0,0.38941 2.99734,0.11701 4.17405,-0.37934 1.16112,-0.48978 3.12411,-0.56175 4.1969,-0.15387 0.39966,0.15195 1.09965,0.64926 1.55553,1.10515 0.93546,0.93545 1.93184,1.49851 3.92495,2.218 1.41298,0.51006 2.05714,0.62492 2.05714,0.36679 z m 0.27429,-4.32002 c 0,-0.94888 -0.18514,-2.43604 -0.41143,-3.30481 -0.57537,-2.20899 -0.54718,-2.37568 0.40178,-2.37568 1.69164,0 1.72314,-1.43154 0.12283,-5.58181 -0.97977,-2.54094 -1.13554,-3.30754 -0.63841,-3.14183 0.64524,0.21508 2.8687,6.91858 2.56087,7.72078 -0.1477,0.38489 1.39317,1.11409 1.92386,0.91045 0.40709,-0.15622 0.41326,-2.86233 0.0162,-7.09841 l -0.1984,-2.11654 -0.77787,0.40225 c -1.11159,0.57483 -2.17465,0.49741 -2.95078,-0.21489 -0.5512,-0.50586 -0.69728,-0.54296 -0.81017,-0.20571 -0.0757,0.22629 -0.85196,1.13176 -1.72493,2.01217 -0.87298,0.8804 -1.66064,1.79206 -1.75038,2.0259 -0.14509,0.37812 -0.21955,0.37413 -0.67279,-0.036 -0.48644,-0.44021 -0.55117,-0.38884 -1.42169,1.12838 -0.50163,0.87428 -0.88438,1.68961 -0.85056,1.81185 0.0338,0.12224 0.11367,0.77886 0.17744,1.45915 0.16919,1.80488 0.87254,3.71393 1.72896,4.69281 0.72969,0.83404 4.62967,3.63722 5.06034,3.63722 0.11834,0 0.21516,-0.77635 0.21516,-1.72523 z m -12.75429,-0.1994 c 1.82421,-0.6951 4.8,-4.71032 4.8,-6.47663 v -0.63364 l -1.01761,0.69057 c -0.7155,0.48556 -1.30587,0.66632 -1.98857,0.60888 -0.84416,-0.071 -0.98279,-0.18539 -1.06159,-0.87579 -0.0498,-0.43675 0.12347,-1.35473 0.38516,-2.03994 0.26169,-0.68521 0.63181,-1.76427 0.82251,-2.39789 l 0.34671,-1.15205 -1.01597,0.39908 c -0.64595,0.25374 -1.14567,0.69207 -1.37205,1.2035 -0.19583,0.44242 -0.96285,1.7339 -1.70447,2.86996 -0.74162,1.13605 -1.3484,2.19921 -1.3484,2.36257 0,0.16337 0.26881,0.77531 0.59735,1.35988 0.62582,1.1135 0.53361,1.66614 -0.1793,1.07449 -0.36731,-0.30485 -0.41805,-0.12893 -0.41805,1.44937 0,1.47916 0.0848,1.81894 0.48,1.92435 0.52364,0.13967 1.8073,-0.0364 2.67428,-0.36671 z m -0.57611,-11.49934 c 0.82707,-1.74953 0.8504,-1.90613 0.8504,-5.70746 0,-2.81667 0.0903,-3.90857 0.32312,-3.90857 0.67654,0 0.82721,6.18402 0.20036,8.22336 l -0.20917,0.68051 0.80284,-0.51236 c 1.19669,-0.76369 1.97523,-1.75563 2.84741,-3.62787 0.77357,-1.66057 1.37575,-2.39306 1.39273,-1.69411 0.006,0.23848 0.13108,0.19786 0.3731,-0.12096 0.36583,-0.48193 0.99806,-0.6589 0.97989,-0.27429 -0.005,0.11315 -0.18612,0.51429 -0.40171,0.89143 -0.80045,1.40024 -0.29998,4.93715 0.69861,4.93715 0.31025,0 0.53568,0.18641 0.53568,0.44297 0,0.40752 0.0542,0.40744 0.67753,-9.6e-4 1.54825,-1.01445 2.56464,-2.3484 3.16581,-4.15493 0.68966,-2.07242 0.63815,-4.1512 -0.11328,-4.57172 -0.32666,-0.18281 -0.37356,-0.37589 -0.17941,-0.73866 0.35886,-0.67052 -0.61055,-2.59263 -1.74336,-3.45666 -0.47612,-0.36316 -1.35525,-0.73579 -1.95363,-0.82808 -0.93157,-0.14368 -1.32449,-0.0235 -2.73366,0.836 -0.90515,0.55209 -2.2089,1.2911 -2.89723,1.64224 -0.68834,0.35114 -1.41658,0.83731 -1.61831,1.08039 -0.33485,0.40346 -0.41697,0.39496 -0.94277,-0.0976 -1.10445,-1.03461 -4.82741,-2.4477 -4.82741,-1.8323 0,0.0632 0.19856,0.89004 0.44125,1.83733 0.28051,1.09494 0.37818,2.1771 0.26814,2.97073 -0.10814,0.77988 0.002,2.06134 0.29291,3.41463 l 0.466,2.16626 -0.61463,0.4977 c -0.56667,0.45886 -0.60018,0.64442 -0.42936,2.37793 0.1535,1.55783 0.10677,1.95874 -0.27256,2.33807 -0.42758,0.42758 -0.39944,0.53047 0.42581,1.5574 l 0.88364,1.09957 1.23043,-1.83414 c 0.67673,-1.00877 1.61311,-2.64363 2.08083,-3.63301 z m 3.44015,4.79223 c 0.86998,-0.44989 2.14108,-1.95332 3.14343,-3.71798 l 0.66332,-1.1678 -0.54184,-1.03954 c -0.29801,-0.57175 -0.61069,-1.70671 -0.69485,-2.52214 l -0.15302,-1.4826 -0.96041,1.80661 c -1.02369,1.92563 -3.13541,7.95109 -2.91283,8.31125 0.19483,0.31523 0.57934,0.26564 1.4562,-0.1878 z m 12.17472,-8.19954 c 0.49249,-0.20577 1.21927,-0.759 1.61508,-1.22939 0.94586,-1.12409 2.26165,-4.58127 3.10984,-8.17098 0.37507,-1.58735 0.98797,-3.61317 1.36199,-4.50182 0.37403,-0.88864 0.68005,-1.75076 0.68005,-1.91582 0,-1.16827 -6.32565,4.3484 -8.28189,7.22274 -1.07825,1.58429 -1.08155,1.59735 -0.83403,3.29143 0.13667,0.93546 0.19701,2.25765 0.13408,2.93821 -0.0894,0.96724 0.0146,1.40137 0.47648,1.98857 0.68939,0.87643 0.5932,0.85556 1.7384,0.37706 z m -20.47561,-6.08362 c -0.20229,-2.16625 -0.68381,-3.27686 -1.42485,-3.28636 -0.34843,-0.004 -0.52983,-0.17992 -0.50458,-0.48803 0.0467,-0.56998 -0.82662,-1.06282 -3.00628,-1.69646 -2.33984,-0.68021 -2.69583,-0.40493 -1.35602,1.04859 0.68915,0.74763 1.16229,1.5719 1.28851,2.24473 0.35228,1.87779 2.56937,3.95111 4.23974,3.9648 l 0.93109,0.008 z m -5.84823,-0.88426 c 0.0716,-0.11582 -0.17539,-0.70211 -0.54884,-1.30286 -0.37344,-0.60075 -0.97005,-1.73279 -1.3258,-2.51565 -0.55678,-1.22523 -0.79314,-1.4622 -1.69783,-1.70218 -1.94863,-0.51689 -6.81053,-1.62921 -6.86837,-1.57137 -0.0315,0.0316 0.22967,0.65293 0.58049,1.38084 0.55283,1.14707 0.94435,1.50127 2.93736,2.65742 1.26472,0.73368 3.13184,1.65536 4.14914,2.04818 1.0173,0.39283 1.91944,0.82717 2.00476,0.96522 0.18898,0.30578 0.59199,0.32695 0.76909,0.0404 z M 190.08,93.697463 c 0,-0.573188 -1.08205,-3.964195 -1.3103,-4.106306 -0.10905,-0.0679 -0.1596,0.760031 -0.11232,1.83984 0.0619,1.414721 0.21069,2.059087 0.53242,2.306145 0.58332,0.447939 0.8902,0.43426 0.8902,-0.03968 z"
       id="path1" />
  </g>
</svg>
