<?xml version="1.0" encoding="UTF-8" standalone="no"?>
<!-- Created with Inkscape (http://www.inkscape.org/) -->

<svg
   version="1.1"
   id="svg1"
   width="294.58286"
   height="294.58286"
   viewBox="0 0 294.58286 294.58286"
   sodipodi:docname="two-hole-pony-anal-ring.svg"
   inkscape:version="1.4 (86a8ad7, 2024-10-11)"
   xmlns:inkscape="http://www.inkscape.org/namespaces/inkscape"
   xmlns:sodipodi="http://sodipodi.sourceforge.net/DTD/sodipodi-0.dtd"
   xmlns="http://www.w3.org/2000/svg"
   xmlns:svg="http://www.w3.org/2000/svg">
  <defs
     id="defs1" />
  <sodipodi:namedview
     id="namedview1"
     pagecolor="#ffffff"
     bordercolor="#000000"
     borderopacity="0.25"
     inkscape:showpageshadow="2"
     inkscape:pageopacity="0.0"
     inkscape:pagecheckerboard="0"
     inkscape:deskcolor="#d1d1d1"
     inkscape:zoom="2.766624"
     inkscape:cx="147.47215"
     inkscape:cy="147.29143"
     inkscape:window-width="1920"
     inkscape:window-height="1017"
     inkscape:window-x="-8"
     inkscape:window-y="-8"
     inkscape:window-maximized="1"
     inkscape:current-layer="g1" />
  <g
     inkscape:groupmode="layer"
     inkscape:label="Image"
     id="g1">
    <path
       style="fill:#000000"
       d="m 151.70322,134.27999 c -1.29169,-0.95298 -4.11422,-2.02499 -6.33375,-2.4056 -1.48847,-0.25525 -2.34448,-0.25257 -3.92062,0.0123 -3.41776,0.57429 -7.31094,-0.25677 -12.26028,-2.61714 -5.73296,-2.73408 -6.64324,-3.21764 -8.02546,-4.26322 -0.79057,-0.59803 -2.48654,-1.76906 -3.76883,-2.60229 -2.87093,-1.86553 -5.37716,-4.0042 -5.918,-5.05007 -0.22383,-0.43285 -1.0687,-1.44872 -1.87749,-2.25751 -0.80879,-0.80879 -1.55353,-1.76435 -1.65499,-2.12348 -0.10146,-0.35912 -0.52986,-1.51695 -0.95199,-2.57295 -2.40107,-6.00643 -2.67001,-6.84192 -4.10566,-12.754286 -1.16242,-4.787175 -1.99473,-14.765327 -1.61296,-19.337143 0.61683,-7.386833 2.42554,-15.327355 4.52915,-19.883688 0.52288,-1.132543 1.18467,-2.861455 1.47063,-3.842026 0.65636,-2.250678 1.81118,-5.033105 2.66314,-6.41657 0.36173,-0.587399 2.26113,-2.777211 4.22089,-4.866249 2.64148,-2.81574 4.31923,-4.327671 6.48595,-5.844917 1.60752,-1.125667 3.26044,-2.307217 3.67315,-2.625666 0.41271,-0.31845 1.51732,-0.890636 2.45469,-1.271525 0.93738,-0.380889 2.63972,-1.162835 3.78299,-1.737659 2.43001,-1.221787 8.36231,-3.138121 11.11479,-3.590456 2.02432,-0.33267 3.63899,-0.334299 12.06857,-0.01217 2.86629,0.109531 5.62457,0.110518 6.12953,0.0022 0.98148,-0.21055 1.96443,0.03934 7.85904,1.997989 6.715,2.231243 13.83004,6.51685 17.97186,10.825012 2.45872,2.557465 6.3387,7.533952 8.61122,11.044815 1.19222,1.841871 3.55454,7.164869 5.12434,11.546633 0.29725,0.829715 0.65654,1.755429 0.79841,2.057143 0.88262,1.877037 2.18934,5.534543 2.55589,7.153966 0.4465,1.972614 1.13838,8.518459 1.02681,9.714605 -0.0352,0.377143 -0.071,0.994286 -0.0796,1.371429 -0.0557,2.43971 -0.87674,8.932086 -1.4518,11.47957 -0.37556,1.663702 -0.68283,3.567946 -0.68283,4.231653 0,1.488569 -0.83702,4.831859 -1.78277,7.120909 -0.39004,0.94404 -0.74902,2.18934 -0.79773,2.76732 -0.0487,0.57799 -0.35016,1.38028 -0.66987,1.78286 -1.10311,1.38902 -5.17634,7.31713 -5.61326,8.16945 -0.66169,1.29077 -7.97845,6.74202 -11.84494,8.82491 -1.81029,0.9752 -3.6139,2.00059 -4.00804,2.27863 -1.3856,0.97748 -7.49745,2.4365 -11.40742,2.72317 -4.18343,0.30673 -6.8796,0.66287 -9.34278,1.23412 -2.44803,0.56774 -3.37767,0.51233 -4.42997,-0.26403 z m 4.30547,-35.690635 c 0.93454,-0.654576 3.07091,-4.089739 4.25438,-6.840784 1.13948,-2.6488 3.7183,-6.413769 5.61121,-8.192147 1.46581,-1.377116 1.58209,-2.412736 0.34286,-3.053567 -0.45257,-0.234034 -0.82286,-0.541018 -0.82286,-0.682186 0,-0.141169 -0.51109,-0.394292 -1.13575,-0.562497 -1.45491,-0.391767 -5.51264,-3.427502 -8.90178,-6.659751 -1.45237,-1.385133 -2.90806,-2.612134 -3.23487,-2.726669 -0.32682,-0.114535 -1.27577,-1.225392 -2.10878,-2.468571 -1.31534,-1.962992 -1.6192,-2.260326 -2.30989,-2.260326 -0.75529,0 -0.81067,0.08282 -1.10043,1.645714 -0.16781,0.905143 -0.53434,2.077714 -0.81452,2.605714 -0.28017,0.528 -0.60081,1.392 -0.71253,1.92 -0.64832,3.064039 -3.00335,7.57432 -5.57824,10.683278 -1.65925,2.003413 -1.74862,2.575519 -0.75988,4.864404 1.30198,3.013993 1.96418,5.3165 2.07089,7.200585 0.1455,2.569061 0.55254,2.834425 3.98808,2.599998 2.98827,-0.203907 4.36451,0.09102 7.00839,1.50187 1.77227,0.945736 3.2473,1.09484 4.20372,0.424935 z"
       id="path1" />
  </g>
</svg>
