<?xml version="1.0" encoding="UTF-8" standalone="no"?>
<!-- Created with Inkscape (http://www.inkscape.org/) -->

<svg
   version="1.1"
   id="svg1"
   width="294.58286"
   height="294.58286"
   viewBox="0 0 294.58286 294.58286"
   sodipodi:docname="two-hole-pony-outline.svg"
   inkscape:version="1.4 (86a8ad7, 2024-10-11)"
   xmlns:inkscape="http://www.inkscape.org/namespaces/inkscape"
   xmlns:sodipodi="http://sodipodi.sourceforge.net/DTD/sodipodi-0.dtd"
   xmlns="http://www.w3.org/2000/svg"
   xmlns:svg="http://www.w3.org/2000/svg">
  <defs
     id="defs1" />
  <sodipodi:namedview
     id="namedview1"
     pagecolor="#ffffff"
     bordercolor="#000000"
     borderopacity="0.25"
     inkscape:showpageshadow="2"
     inkscape:pageopacity="0.0"
     inkscape:pagecheckerboard="0"
     inkscape:deskcolor="#d1d1d1"
     inkscape:zoom="2.766624"
     inkscape:cx="147.47215"
     inkscape:cy="147.29143"
     inkscape:window-width="1920"
     inkscape:window-height="1017"
     inkscape:window-x="-8"
     inkscape:window-y="-8"
     inkscape:window-maximized="1"
     inkscape:current-layer="g1" />
  <g
     inkscape:groupmode="layer"
     inkscape:label="Image"
     id="g1">
    <path
       style="fill:#000000;fill-opacity:1"
       d="m 153.46286,273.0195 c -3.31583,-0.41703 -5.3759,-0.89562 -8.3154,-1.93178 -3.34247,-1.1782 -4.44697,-1.64812 -4.71318,-2.00527 -0.0754,-0.10119 -1.00114,-0.52627 -2.05714,-0.94461 -1.056,-0.41833 -2.66057,-1.28736 -3.56571,-1.93116 -0.90515,-0.64381 -2.13943,-1.42141 -2.74286,-1.728 -0.60343,-0.3066 -1.344,-0.83215 -1.64571,-1.16788 -0.30172,-0.33574 -1.59772,-1.34763 -2.88,-2.24866 -2.57707,-1.81082 -5.7433,-4.95325 -9.19987,-9.13071 -2.52919,-3.05667 -3.98641,-5.09325 -8.63533,-12.06857 -1.5076,-2.26204 -2.82146,-4.80339 -3.7448,-7.24346 -1.66512,-4.40033 -3.63389,-15.77896 -3.25493,-18.81207 0.0996,-0.79686 0.23598,-2.17235 0.30315,-3.05665 0.172,-2.2642 0.61557,-5.84523 1.08251,-8.73925 0.21906,-1.35772 0.46405,-4.44343 0.54442,-6.85715 0.0804,-2.41371 0.26503,-4.88228 0.41037,-5.48571 0.14533,-0.60343 0.26719,-1.61443 0.27079,-2.24667 0.004,-0.63224 0.11279,-1.21519 0.24264,-1.29544 0.12985,-0.0803 0.45022,-1.53782 0.71192,-3.23905 0.26171,-1.70122 0.71974,-3.8289 1.01785,-4.72818 0.33142,-0.99972 0.47951,-1.9683 0.38113,-2.49269 -0.0885,-0.47171 -0.227,-3.99422 -0.30781,-7.82781 -0.0808,-3.83359 -0.24517,-10.11759 -0.36526,-13.96445 -0.12083,-3.87056 -0.1112,-7.91302 0.0216,-9.05142 0.23041,-1.9757 0.0655,-7.82011 -0.23431,-8.30525 -0.24644,-0.39874 -0.27617,-19.70417 -0.0332,-21.57197 0.21422,-1.64693 0.16357,-1.9357 -0.76966,-4.38857 -0.54943,-1.4441 -1.35431,-3.43777 -1.78863,-4.43038 -0.43432,-0.9926 -0.78967,-1.99217 -0.78967,-2.22126 0,-0.22909 -0.43152,-2.13239 -0.95893,-4.229554 -1.51895,-6.039812 -1.90781,-9.630628 -1.91294,-17.664448 -0.003,-4.617695 0.12115,-7.739883 0.3652,-9.188571 1.20948,-7.179348 2.15184,-10.687141 4.01589,-14.948572 0.56091,-1.282285 1.26892,-3.195428 1.57338,-4.251428 1.05699,-3.666196 2.5212,-6.269668 5.06351,-9.003245 4.86276,-5.228612 5.68178,-6.001065 8.40038,-7.922749 1.53486,-1.084936 3.18121,-2.305074 3.65856,-2.711416 0.47735,-0.406343 1.34135,-0.892513 1.92,-1.080378 0.57865,-0.187866 2.40981,-0.986942 4.06924,-1.775725 1.65943,-0.788782 3.81943,-1.687202 4.8,-1.996488 6.42561,-2.026727 4.73551,-1.844387 16.81043,-1.813621 7.05123,0.01797 11.128,0.130496 11.52,0.317981 0.33369,0.159596 2.42925,0.873999 4.65679,1.587563 4.45364,1.426664 9.99861,3.977244 12.13278,5.580844 0.75428,0.566765 1.97838,1.384343 2.72022,1.81684 1.88111,1.096705 6.42541,5.837055 8.80345,9.183251 0.58965,0.829714 1.60595,2.173372 2.25843,2.985907 1.80019,2.241763 3.23262,4.813214 4.61129,8.277992 0.68633,1.724856 1.47671,3.629815 1.7564,4.233244 0.27969,0.603428 0.70302,1.68196 0.94072,2.396736 0.23771,0.714777 0.55186,1.517062 0.69812,1.782857 0.14626,0.265795 0.69664,1.606401 1.22305,2.979123 2.67581,6.977666 2.72882,16.769546 0.15743,29.07821 -0.12965,0.620595 -0.26301,1.793166 -0.29637,2.605717 -0.0662,1.61408 -1.03312,5.55596 -1.86281,7.59453 -0.58373,1.43426 -1.2284,5.14949 -0.96695,5.57253 0.0925,0.14968 0.0164,4.06073 -0.16915,8.69122 -0.2705,6.75086 -0.26611,12.03328 0.0221,26.65908 0.19772,10.032 0.3943,24.07652 0.43685,31.21005 0.0471,7.8989 0.19452,13.58277 0.37701,14.53714 0.1648,0.8619 0.36279,5.26995 0.43998,9.79566 0.13212,7.74628 0.098,8.55814 -0.58209,13.85143 -0.39734,3.09257 -0.82983,6.88961 -0.96108,8.43785 -0.23914,2.82077 -0.74084,4.79356 -2.73695,10.76215 -1.50651,4.50467 -1.43637,4.34714 -5.12391,11.50694 -0.50133,0.97339 -0.91151,1.98139 -0.91151,2.24 0,0.25861 -0.0955,0.51135 -0.21231,0.56163 -0.11677,0.0503 -0.92711,1.17177 -1.80076,2.49217 -1.81402,2.74165 -6.26536,7.36868 -8.44493,8.77824 -0.81038,0.52409 -2.39914,1.71467 -3.53057,2.64573 -3.69688,3.04219 -10.76748,6.2178 -15.60859,7.01027 -2.66291,0.43591 -6.06554,0.68192 -7.29426,0.52738 z m 7.63546,-1.91588 c 1.0315,-0.2124 2.82122,-0.70311 3.97714,-1.09045 2.77725,-0.93063 8.24293,-3.66142 8.57674,-4.28514 0.14533,-0.27156 0.41506,-0.49375 0.59939,-0.49375 0.18434,0 1.01314,-0.56031 1.84178,-1.24515 0.82865,-0.68483 2.18549,-1.69174 3.0152,-2.23758 1.975,-1.29927 6.18041,-5.53103 7.62768,-7.67547 0.6293,-0.93244 1.96529,-3.27758 2.96888,-5.21142 1.00358,-1.93385 2.17751,-4.18178 2.60872,-4.99539 2.0052,-3.78341 5.70175,-15.20508 5.35284,-16.53931 -0.0684,-0.26155 0.0456,-1.56008 0.25326,-2.88561 1.27105,-8.11205 1.52565,-11.80002 1.38775,-20.10149 -0.0739,-4.45029 -0.25939,-8.95543 -0.41213,-10.01143 -0.15275,-1.056 -0.35207,-4.24756 -0.44294,-7.09235 -0.14957,-4.68219 -0.2534,-5.51394 -1.09569,-8.77714 -0.51175,-1.98264 -1.13005,-4.16023 -1.374,-4.83908 -0.24394,-0.67886 -0.56707,-1.78344 -0.71807,-2.45462 -0.15099,-0.67119 -0.7153,-2.21404 -1.25403,-3.42857 -0.53872,-1.21454 -1.34281,-3.3181 -1.78686,-4.67458 -0.44405,-1.35649 -1.28298,-3.33135 -1.86429,-4.38857 -1.17572,-2.13828 -2.93568,-7.75822 -2.65701,-8.48441 0.23417,-0.61023 0.7316,-0.29218 0.7316,0.46777 0,0.60486 0.83247,3.56631 1.55894,5.54583 0.22146,0.60343 0.75196,1.65257 1.17889,2.33143 0.42694,0.67886 1.1761,2.46857 1.66481,3.97714 0.48871,1.50858 1.23035,3.42817 1.64811,4.26577 0.41775,0.8376 0.96427,2.25703 1.21449,3.15429 0.25022,0.89725 0.76755,2.59677 1.14963,3.7767 0.38207,1.17994 0.91861,3.03136 1.19229,4.11429 l 0.49762,1.96895 -0.0916,-6.58285 c -0.0504,-3.62057 -0.2413,-14.48229 -0.4243,-24.13715 -0.26502,-13.9824 -0.2625,-19.46776 0.0124,-26.95821 0.29724,-8.09934 0.28127,-10.19889 -0.0733,-9.63607 -2.46646,3.91507 -3.77855,5.50205 -8.14132,9.84694 -6.56474,6.53782 -8.16396,7.95877 -8.9572,7.95877 -0.91738,0 -0.85961,-0.85834 0.0962,-1.42989 0.41486,-0.24806 2.35886,-2.00874 4.32,-3.91261 1.96114,-1.90388 4.05724,-3.91311 4.658,-4.46496 3.28134,-3.01424 6.2002,-7.09591 8.77627,-12.27254 1.38944,-2.79209 1.94629,-4.70789 2.20947,-7.60155 0.1,-1.099147 0.4793,-3.321293 0.84295,-4.938107 0.36365,-1.616813 0.7884,-4.506263 0.94388,-6.421001 0.15548,-1.914737 0.35091,-3.59172 0.43429,-3.726628 0.24808,-0.401396 0.1324,-6.564309 -0.17488,-9.317377 -0.36328,-3.254748 -0.87063,-5.240254 -2.08723,-8.168276 -0.53505,-1.287739 -1.25652,-3.152308 -1.60326,-4.143487 -0.34674,-0.99118 -0.76317,-2.040323 -0.9254,-2.331429 -0.16223,-0.291106 -0.85539,-1.940529 -1.54035,-3.665385 -1.27705,-3.215862 -3.26177,-6.875327 -3.72885,-6.875327 -0.14412,0 -0.26203,-0.126452 -0.26203,-0.281003 0,-0.154551 -1.2441,-1.948372 -2.76466,-3.986268 -3.15328,-4.226117 -6.43847,-7.657523 -8.70682,-9.094348 -0.8564,-0.542467 -2.01154,-1.341161 -2.56698,-1.774876 -2.06831,-1.615046 -7.12175,-3.925976 -11.88154,-5.433408 -5.61609,-1.778621 -5.39852,-1.755215 -16.45715,-1.770425 -10.9611,-0.01508 -9.93272,-0.120329 -15.22285,1.558054 -1.4753,0.468063 -8.64876,3.597392 -9.78847,4.270089 -2.51414,1.483944 -8.92834,6.32039 -9.34083,7.043194 -0.11432,0.200308 -1.30051,1.539391 -2.63599,2.975741 -1.33548,1.436349 -2.62301,2.889764 -2.86119,3.229811 -0.90184,1.287555 -2.49896,4.92527 -3.05956,6.968676 -0.32052,1.168328 -1.0086,3.00346 -1.52906,4.07807 -1.07728,2.224311 -2.46099,6.556348 -2.88962,9.046631 -0.58525,3.400324 -0.79772,4.748505 -1.08675,6.895776 -0.36103,2.682252 -0.19838,13.514453 0.25741,17.142857 0.43374,3.452904 2.60871,12.675966 3.28897,13.947046 0.15498,0.28958 0.71046,1.72589 1.2344,3.1918 1.10069,3.07961 2.55284,5.62835 4.52748,7.94643 1.42739,1.67565 1.7592,2.61758 0.92208,2.61758 -0.48273,0 -0.91816,-0.44879 -2.87452,-2.96272 -0.62268,-0.80015 -1.21081,-1.32603 -1.30769,-1.16928 -0.29638,0.47955 -0.1126,19.39953 0.2253,23.19486 0.23326,2.62001 0.23843,4.29271 0.0195,6.30684 -0.16388,1.50761 -0.22942,3.23561 -0.14563,3.84 0.15446,1.11425 0.43586,11.53491 0.52351,19.38664 0.0264,2.36457 0.0896,4.25755 0.14055,4.20664 0.0509,-0.0509 0.62687,-1.86212 1.2799,-4.02491 0.65304,-2.1628 1.45633,-4.61121 1.7851,-5.44093 0.32877,-0.82971 0.82649,-2.80457 1.10605,-4.38857 0.27956,-1.584 0.75589,-3.56606 1.05852,-4.40458 0.66811,-1.85125 1.11738,-4.48993 1.14143,-6.70399 0.0245,-2.25852 0.32584,-3.77033 0.78169,-3.92228 0.31287,-0.10429 0.34119,0.13983 0.15647,1.3489 -0.12405,0.81193 -0.20825,1.84652 -0.18712,2.29909 0.0801,1.71613 -0.52878,5.35193 -1.29035,7.70457 -0.43513,1.3442 -0.87489,3.18458 -0.97726,4.08972 -0.10236,0.90514 -0.31301,2.05783 -0.4681,2.56153 -0.15509,0.5037 -0.3108,1.30599 -0.34601,1.78286 -0.0352,0.47687 -0.38727,1.91618 -0.78237,3.19847 -2.06032,6.68677 -2.45982,8.0153 -3.09308,10.28571 -0.62105,2.22664 -1.35578,5.85922 -2.02493,10.01143 -0.13371,0.82971 -0.38024,2.00229 -0.54785,2.60571 -0.1676,0.60343 -0.36332,2.85858 -0.43492,5.01145 -0.0716,2.15286 -0.32266,5.30029 -0.55788,6.99428 -0.81359,5.8591 -0.98412,7.47911 -1.04722,9.94869 -0.0349,1.36407 -0.16179,2.63935 -0.28206,2.83396 -0.49089,0.79428 0.53532,8.26826 1.89804,13.82346 1.4518,5.9184 2.56289,8.01747 9.69136,18.30893 1.74921,2.52536 4.27167,5.69065 5.35712,6.72236 0.32255,0.30657 1.50365,1.58199 2.62467,2.83426 1.21841,1.36106 3.09868,3.02874 4.67476,4.1462 1.4501,1.02815 2.80807,2.07604 3.01772,2.32865 0.20965,0.25261 0.87887,0.71319 1.48715,1.02351 0.60829,0.31033 1.75383,1.05336 2.54565,1.65119 0.79181,0.59782 2.39826,1.45918 3.56988,1.91412 1.17162,0.45494 2.41805,1.05358 2.76985,1.3303 0.35179,0.27672 1.09477,0.64558 1.65105,0.81968 0.55629,0.17411 1.7576,0.60695 2.66958,0.96187 4.38486,1.70651 9.9664,2.09885 15.02875,1.05643 z m -5.85261,-1.10125 c -2.41997,-0.44882 -5.62259,-1.2882 -6.88659,-1.8049 -1.98645,-0.81203 -6.82769,-3.52127 -6.82769,-3.82089 0,-0.44647 0.52234,-0.2423 4.1783,1.63317 4.5592,2.33882 7.66821,3.2024 11.45598,3.18208 1.43315,-0.008 3.09943,-0.17803 3.70286,-0.37855 1.13056,-0.37569 4.53729,-2.00996 6.09096,-2.92195 0.6447,-0.37843 0.96086,-0.43495 1.18413,-0.21168 0.22327,0.22328 0.025,0.46 -0.74239,0.88662 -1.95539,1.08699 -5.64289,2.78006 -6.63837,3.04791 -1.20961,0.32546 -4.57767,0.56244 -5.51719,0.38819 z M 153.6,263.31951 c 0,-0.29111 0.58147,-0.44803 2.40108,-0.64797 0.64173,-0.0705 2.12288,-0.57713 3.29143,-1.12583 1.8035,-0.84683 2.28258,-1.22387 3.16965,-2.49452 0.97304,-1.39379 1.49031,-1.75015 1.91866,-1.3218 0.0963,0.0963 -0.0577,0.43574 -0.34226,0.75429 -0.28455,0.31855 -0.98295,1.11334 -1.55199,1.7662 -1.12961,1.29601 -2.71883,2.21161 -5.02778,2.89667 -1.65421,0.4908 -3.85879,0.58962 -3.85879,0.17296 z m -6.7331,-2.5662 c -3.73348,-2.51568 -6.30635,-4.17744 -6.72598,-4.34416 -0.72714,-0.28888 -2.16082,-3.1578 -2.78592,-5.57487 -0.50599,-1.95652 -0.53222,-2.40217 -0.24202,-4.11288 0.46624,-2.74856 1.38296,-4.57783 2.84263,-5.67235 4.18116,-3.13519 6.16449,-4.91322 6.58049,-5.89932 0.55311,-1.31113 1.29757,-6.69596 1.32339,-9.57234 0.0107,-1.19442 0.12649,-3.22082 0.25725,-4.50311 0.60417,-5.92452 1.11952,-10.41304 1.35417,-11.79428 0.75229,-4.42823 0.88058,-6.54769 0.52615,-8.69257 -0.19464,-1.17794 -0.36449,-3.93143 -0.37743,-6.11886 -0.0249,-4.20361 -0.36047,-6.0415 -1.87825,-10.28571 -0.37763,-1.056 -0.88464,-2.69545 -1.12668,-3.64322 -0.64743,-2.53521 -2.36176,-6.31013 -4.39119,-9.66934 -0.98408,-1.62887 -1.78923,-3.15705 -1.78923,-3.39594 0,-0.72256 0.50649,-0.48901 0.99121,0.45707 0.2512,0.49028 1.17294,2.08731 2.04831,3.54894 1.73179,2.89162 3.02488,5.86135 3.85892,8.86249 0.29348,1.056 0.7862,2.59885 1.09495,3.42857 0.30874,0.82971 0.78022,2.36357 1.04773,3.40857 l 0.48637,1.89999 0.18249,-2.58571 c 0.54385,-7.70561 0.69063,-13.03049 0.38857,-14.09664 -0.33965,-1.19884 -0.39666,-6.26831 -0.0908,-8.07841 0.23412,-1.38571 2.12399,-3.54424 3.15802,-3.60694 1.32397,-0.0803 1.58175,0.0255 1.88403,0.77342 0.66942,1.65627 0.31684,8.92078 -0.62996,12.97954 -0.23125,0.99132 -0.42684,2.90447 -0.43465,4.25143 -0.0144,2.49049 0.42378,12.09717 0.57465,12.5976 0.0455,0.15086 -0.0568,1.32343 -0.22734,2.60572 -0.17052,1.28228 -0.44856,3.38057 -0.61787,4.66286 -0.57749,4.37381 -0.67899,12.08547 -0.19598,14.89034 0.7719,4.48247 1.3128,7.67056 1.8264,10.76483 1.13169,6.81813 2.78931,10.32093 7.10905,15.02251 3.5647,3.87979 5.79267,7.39534 5.79553,9.14485 0.004,2.51531 -1.79453,6.30527 -2.7207,5.73287 -0.42822,-0.26465 -0.36069,-1.12481 0.11961,-1.52342 0.48454,-0.40213 1.31999,-3.09721 1.29001,-4.16143 -0.0454,-1.60979 -2.99641,-5.99728 -5.47043,-8.1332 -0.79487,-0.68623 -1.44521,-1.35882 -1.44521,-1.49464 0,-0.13582 -0.42507,-0.74354 -0.94461,-1.35051 -0.51954,-0.60696 -1.42239,-2.01895 -2.00635,-3.13775 l -1.06174,-2.03419 -0.3235,2.13415 c -0.17793,1.17379 -0.57488,3.92387 -0.88212,6.1113 -0.63523,4.52263 -0.89409,5.49746 -1.63882,6.17143 -0.29036,0.26277 -0.66768,0.90123 -0.83849,1.4188 -0.42431,1.28566 -0.9137,1.00929 -1.09371,-0.61765 -0.0821,-0.74235 -0.35156,-1.72872 -0.59873,-2.19194 -0.66431,-1.24496 -1.5962,-5.13551 -1.87495,-7.82765 -0.13447,-1.29872 -0.32222,-2.56386 -0.41722,-2.81143 -0.21825,-0.56874 -0.66262,-0.58737 -0.66262,-0.0278 0,0.80647 -1.08968,2.55206 -1.98236,3.17559 -1.00533,0.70221 -3.4865,2.69226 -3.91207,3.13771 -0.15235,0.15947 -0.74099,0.62947 -1.3081,1.04446 -1.96815,1.44023 -3.06113,5.07001 -2.42417,8.05066 0.35105,1.64271 1.88772,5.01494 2.28522,5.01494 0.12441,0 0.82779,0.46286 1.56308,1.02857 0.73529,0.56572 2.41679,1.70743 3.73666,2.53715 2.99107,1.88028 3.25979,2.12954 2.84048,2.63477 -0.43497,0.52412 -0.50419,0.50609 -2.04612,-0.53289 z m 6.42353,-16.29617 c 0.14307,-0.56571 0.46393,-2.63314 0.71301,-4.59428 0.79372,-6.24934 1.26537,-8.64 1.70457,-8.64 0.28983,0 0.34227,-0.1672 0.19356,-0.61715 -0.11218,-0.33943 -0.46036,-1.62417 -0.77374,-2.85498 l -0.56978,-2.23783 -0.64655,0.52355 c -0.39477,0.31966 -1.07267,0.52355 -1.74074,0.52355 -0.87866,0 -1.27789,-0.1837 -2.02676,-0.93257 l -0.93257,-0.93257 -0.002,1.54971 c -0.002,1.39776 -0.29809,3.84418 -0.71072,5.86971 -0.11531,0.56604 -0.0469,0.75429 0.27399,0.75429 0.76159,0 1.52234,2.0237 1.81244,4.82136 0.36774,3.54633 1.57957,7.79578 2.22316,7.79578 0.12213,0 0.33912,-0.46285 0.4822,-1.02857 z m -0.51914,-19.26544 c 0.27866,-0.14914 0.71342,-0.81254 0.96612,-1.47424 0.43628,-1.14236 0.4315,-1.34671 -0.0946,-4.04884 -0.30471,-1.56517 -0.63414,-3.5643 -0.73205,-4.44251 -0.0979,-0.87821 -0.36086,-2.03433 -0.58432,-2.56916 -0.22347,-0.53483 -0.34107,-1.14241 -0.26134,-1.35019 0.0797,-0.20777 0.19695,-2.44594 0.26049,-4.97369 0.10761,-4.28106 0.29534,-6.4271 1.04989,-12.00164 0.16335,-1.20686 0.28926,-2.44115 0.27979,-2.74286 -0.009,-0.30171 -0.10732,-2.21486 -0.21743,-4.25143 -0.46065,-8.51969 -0.44329,-10.40371 0.1224,-13.28583 0.29794,-1.51794 0.64183,-3.74731 0.76422,-4.95417 0.25481,-2.51274 0.30792,-6.8766 0.0864,-7.09787 -0.3545,-0.35407 -1.37529,0.23489 -2.00937,1.15931 -0.61652,0.89884 -0.6913,1.29644 -0.73001,3.88142 -0.0237,1.584 0.045,4.66891 0.15279,6.85536 0.19072,3.86993 -0.0819,10.92073 -0.73883,19.10832 -0.24548,3.05946 -0.23698,4.3401 0.0401,6.03429 0.46143,2.82176 0.40157,5.25195 -0.23954,9.72457 -0.28947,2.01946 -0.60545,4.65917 -0.70216,5.86603 -0.0967,1.20686 -0.30151,3.16739 -0.45509,4.35675 -0.19581,1.51636 -0.19188,2.24982 0.0132,2.45486 0.16082,0.16081 0.29239,0.58848 0.29239,0.95037 0,0.96898 0.76402,2.41041 1.45442,2.74397 0.77588,0.37486 0.69567,0.37129 1.28259,0.0572 z m -3.14843,32.77601 c -0.75429,-0.22525 -1.69378,-0.48414 -2.08777,-0.57532 -2.19763,-0.5086 -5.21638,-4.10352 -6.31796,-7.52383 -0.55072,-1.70993 -0.58622,-2.1114 -0.32268,-3.64989 0.41857,-2.44364 2.17828,-5.93652 2.79788,-5.55359 0.16654,0.10293 -0.16133,1.0183 -0.82033,2.29033 -1.43241,2.76487 -1.63908,4.52112 -0.81795,6.95072 0.69528,2.05724 2.23677,4.41276 3.60082,5.50233 3.00264,2.39846 9.239,2.77298 13.129,0.78845 1.49341,-0.76188 3.1936,-2.79185 3.56128,-4.25207 0.75755,-3.0085 0.11782,-5.12241 -2.89571,-9.56858 -1.84072,-2.71581 -2.85823,-4.58096 -2.66747,-4.88963 0.19644,-0.31784 0.65803,-0.28839 0.65803,0.042 0,0.27278 1.47723,2.66212 3.7754,6.10652 1.24148,1.86067 2.25888,4.73836 2.25888,6.38914 0,2.54731 -2.14388,5.93387 -4.35541,6.87996 -3.14004,1.34331 -7.08095,1.78466 -9.49601,1.06347 z m 7.69642,-82.21914 c 0.72644,-2.35293 1.53716,-4.17269 2.37002,-5.31978 0.53178,-0.73241 1.62263,-2.56593 2.42413,-4.07451 1.72595,-3.2486 2.92203,-5.07428 3.32435,-5.07428 0.16028,0 1.19166,-0.44492 2.29194,-0.98871 1.68884,-0.83467 2.37355,-1.01199 4.39476,-1.13809 1.97536,-0.12323 2.37198,-0.0822 2.26703,0.23443 -0.0877,0.26473 -0.81785,0.44164 -2.35336,0.57023 -2.51145,0.21033 -4.1738,0.84365 -6.1298,2.33531 -1.03629,0.79029 -1.62773,1.59553 -2.76713,3.7674 -0.79702,1.51926 -1.86327,3.37943 -2.36945,4.13371 -1.18343,1.76349 -1.7718,2.94498 -2.35621,4.73143 -0.288,0.88037 -0.62959,1.44 -0.87895,1.44 -0.29657,0 -0.35587,-0.1684 -0.21733,-0.61714 z M 141.2021,160.18974 c -1.75302,-0.88003 -3.47606,-1.68881 -3.82899,-1.79729 -0.97282,-0.29902 -3.80397,-1.60755 -7.88324,-3.64353 -3.81963,-1.9064 -7.11144,-4.44423 -6.83608,-5.2703 0.0959,-0.28766 0.3383,-0.17826 0.93218,0.4207 1.69077,1.7052 3.43368,2.78631 8.20831,5.09151 2.71543,1.31102 5.24572,2.47703 5.62286,2.59114 1.15023,0.34801 7.40572,3.4937 7.40572,3.7241 0,0.57081 -0.67381,0.36306 -3.62076,-1.11633 z m 25.31777,-1.1726 c 0.0607,-0.73197 5.15348,-5.09337 7.67468,-6.57256 3.77789,-2.21647 4.94146,-2.76686 5.23301,-2.4753 0.15544,0.15544 -1.15101,1.04059 -3.3727,2.28508 -2.90941,1.62971 -4.15733,2.533 -6.31155,4.5685 -2.59313,2.45022 -3.28367,2.92029 -3.22344,2.19428 z m -22.11703,-3.78756 c -0.90042,-0.91402 -2.06913,-1.90471 -2.59713,-2.20153 -1.67384,-0.94098 -6.38363,-3.00925 -8.09143,-3.55329 -1.85381,-0.59056 -8.13059,-4.05634 -8.30073,-4.58333 -0.0609,-0.18857 0.0288,-0.34286 0.19937,-0.34286 0.29419,0 3.16533,1.55459 5.20494,2.81824 0.51896,0.32153 2.24696,1.05821 3.84,1.63707 2.78342,1.01142 3.05159,1.05586 6.87357,1.1391 2.18743,0.0476 4.01884,0.19696 4.06982,0.33182 0.15434,0.40835 -2.16038,0.6895 -4.34411,0.52763 l -2.05714,-0.15248 1.73155,0.81738 c 2.43891,1.15128 6.58862,5.2241 5.32272,5.2241 -0.11787,0 -0.95101,-0.74783 -1.85143,-1.66185 z m 16.50334,-0.99768 c -0.0961,-0.0961 -0.17475,-0.26755 -0.17475,-0.38096 0,-0.40273 1.80421,-1.2927 3.22217,-1.5894 1.68314,-0.35219 4.47473,-1.57217 6.15496,-2.68984 0.65058,-0.43276 1.6501,-0.99952 2.22117,-1.25947 1.17722,-0.53587 5.44474,-4.54208 6.9729,-6.54593 0.63738,-0.83579 1.11091,-1.2339 1.27385,-1.07096 0.41068,0.41067 -0.46511,1.54192 -3.63144,4.69074 -2.97887,2.96239 -4.31331,3.8694 -9.26605,6.29806 -1.23256,0.6044 -2.87796,1.21971 -3.65645,1.36735 -0.77849,0.14764 -1.75882,0.51294 -2.17852,0.81179 -0.4197,0.29885 -0.84172,0.46473 -0.93784,0.36862 z m -5.93475,-3.7364 c 0,-1.5255 -0.77894,-3.71023 -1.44923,-4.06472 -0.33435,-0.17682 -1.09703,-0.73783 -1.69484,-1.24668 -1.37599,-1.17124 -3.50289,-2.16577 -5.04903,-2.36091 -0.65935,-0.0832 -2.81935,0.0368 -4.8,0.26677 -1.98066,0.22994 -5.60467,0.47664 -8.05337,0.54821 l -4.45218,0.13014 -2.40496,-1.26948 c -2.83082,-1.49427 -3.85079,-2.21872 -3.54887,-2.52064 0.12062,-0.12062 0.6125,0.0101 1.09304,0.29042 4.16508,2.42996 4.36297,2.49051 8.45268,2.58645 2.09466,0.0491 4.70229,-0.0502 5.79475,-0.22079 1.09246,-0.17057 3.41324,-0.38273 5.1573,-0.47147 3.77866,-0.19225 5.15691,0.15831 7.59429,1.93162 3.39526,2.47021 4.45527,2.46163 8.16042,-0.066 1.056,-0.7204 3.03085,-1.779 4.38857,-2.35244 1.35771,-0.57344 3.27086,-1.38486 4.25143,-1.80316 0.98057,-0.4183 3.94285,-1.89081 6.58285,-3.27225 4.74289,-2.48182 5.99608,-2.93805 6.23291,-2.26911 0.0671,0.18963 -0.0924,0.34285 -0.357,0.34285 -0.26312,0 -2.77283,1.1854 -5.57715,2.63421 -4.94004,2.5522 -8.46662,4.19683 -11.50114,5.36358 -0.80589,0.30986 -2.24215,1.09527 -3.1917,1.74535 -0.94955,0.65009 -2.09885,1.37455 -2.55399,1.60992 -1.14906,0.5942 -1.92834,1.98256 -2.14433,3.82032 -0.12253,1.04248 -0.30677,1.55805 -0.55679,1.55805 -0.24029,0 -0.37366,-0.32487 -0.37366,-0.91021 z m 10.97143,-1.52617 c 0,-0.13315 0.68343,-0.57647 1.51873,-0.98515 2.19913,-1.07593 5.61743,-3.69468 8.1332,-6.23082 1.4727,-1.48462 2.27869,-2.11531 2.46507,-1.92893 0.32693,0.32694 -3.22152,3.96784 -5.80318,5.95439 -3.11837,2.39953 -6.31382,4.01426 -6.31382,3.19051 z m 13.30286,-0.58074 c -0.12945,-0.20947 0.6068,-1.15529 1.99734,-2.56589 3.01931,-3.06284 4.80415,-6.76901 5.2263,-10.85228 0.22833,-2.20848 0.86778,-2.64807 0.86778,-0.59656 0,1.63474 -1.34346,6.06677 -2.50719,8.27113 -0.96111,1.82056 -5.26985,6.25227 -5.58423,5.7436 z m -16.18406,-4.11624 c -0.0939,-0.15193 -0.009,-0.32737 0.18953,-0.38988 3.87056,-1.22111 5.43896,-1.80352 7.54454,-2.80157 1.38679,-0.65735 2.65194,-1.19519 2.81143,-1.19519 1.57258,0 -3.8141,2.76943 -7.67846,3.94768 -2.67337,0.81512 -2.63791,0.8097 -2.86704,0.43896 z m 24.0012,-1.95976 c 0,-0.47551 0.56725,-2.72808 1.26057,-5.00572 0.69332,-2.27764 1.34903,-4.44201 1.45714,-4.80973 0.10812,-0.36771 0.35985,-0.723 0.55942,-0.78952 0.5097,-0.1699 0.23894,1.10311 -1.237,5.81582 -0.66676,2.12896 -1.21341,4.27199 -1.21478,4.76227 -0.002,0.60842 -0.13312,0.89143 -0.41393,0.89143 -0.27869,0 -0.41142,-0.27892 -0.41142,-0.86455 z m -34.01143,-2.41889 c -0.528,-0.0967 -1.61753,-0.62876 -2.42118,-1.18241 -2.03685,-1.40325 -4.45367,-2.06487 -9.23597,-2.52841 -7.15845,-0.69387 -8.53311,-0.94287 -12.73053,-2.30602 -3.66218,-1.18932 -4.46258,-1.56874 -7.48334,-3.54741 -3.72479,-2.43983 -5.32412,-3.8769 -5.0653,-4.55137 0.25166,-0.65581 0.81953,-0.5166 1.70786,0.41866 0.81089,0.85374 4.41128,3.37019 6.70274,4.68481 0.67886,0.38947 2.34515,1.04675 3.70286,1.46062 1.35771,0.41388 3.17701,0.98537 4.04288,1.26999 0.9974,0.32784 3.45997,0.67151 6.72,0.93782 6.87175,0.56135 10.03035,1.36042 12.56078,3.17763 0.90029,0.64654 1.60385,0.90989 2.66414,0.9972 1.9267,0.15865 4.54706,-0.35184 5.53354,-1.07804 0.44073,-0.32445 1.24302,-0.63715 1.78285,-0.69489 0.53984,-0.0577 1.90724,-0.41471 3.03867,-0.79326 1.13143,-0.37856 2.61257,-0.80984 3.29143,-0.95841 2.02097,-0.44229 8.81218,-2.73311 10.23881,-3.45376 1.04217,-0.52645 1.40761,-0.60013 1.71428,-0.34561 0.62194,0.51616 0.47209,0.75424 -0.91309,1.45065 -1.62016,0.81455 -8.09933,3.0287 -10.49143,3.58528 -0.98057,0.22815 -2.69934,0.72721 -3.81947,1.10903 -1.12014,0.38181 -2.21909,0.6942 -2.44211,0.6942 -0.22302,0 -1.07873,0.31849 -1.90159,0.70777 -0.82285,0.38927 -1.8839,0.75478 -2.35789,0.81224 -2.01626,0.24443 -3.94335,0.29767 -4.83894,0.13369 z m 1.23428,-4.63979 c -0.97904,-0.25358 -2.72802,-1.09302 -4.8,-2.30379 l -1.50857,-0.88155 -4.93714,-0.0225 c -6.16012,-0.028 -10.24234,-0.79053 -15.49714,-2.89462 -2.80757,-1.12419 -8.22858,-4.29917 -8.22858,-4.81932 0,-0.87361 0.97034,-0.59273 3.76812,1.09074 5.83415,3.51049 13.76045,5.6522 19.52475,5.27564 4.05294,-0.26476 6.54675,0.15851 8.23191,1.39718 2.81325,2.06789 4.86275,2.45889 7.31498,1.39553 0.88957,-0.38574 1.92596,-0.78581 2.3031,-0.88905 0.37714,-0.10323 1.33309,-0.49019 2.12432,-0.85992 1.67026,-0.78047 2.67568,-0.76093 2.67568,0.052 0,0.3755 -0.19315,0.55832 -0.6122,0.57946 -0.33671,0.017 -0.78372,0.17324 -0.99336,0.34722 -0.20964,0.17399 -1.23737,0.60756 -2.28385,0.96349 -1.04648,0.35593 -2.27731,0.84086 -2.73517,1.07764 -1.02151,0.52824 -3.238,0.77902 -4.34685,0.49182 z m 29.21143,-0.95409 c 0,-0.35681 0.79963,-1.80709 1.77696,-3.22285 0.97733,-1.41576 1.97816,-3.03697 2.22407,-3.60269 0.24591,-0.56571 0.61885,-1.02857 0.82875,-1.02857 0.20991,0 0.38165,0.0466 0.38165,0.10365 0,0.48943 -1.0934,2.471 -2.21226,4.0093 -0.75013,1.03133 -1.61415,2.44096 -1.92007,3.13252 -0.60499,1.36769 -1.0791,1.6351 -1.0791,0.60864 z m -17.91908,-10.66554 c -1.35572,-1.91225 -2.65235,-4.35488 -2.65235,-4.99659 0,-0.83892 0.44821,-0.38542 1.27864,1.29374 0.4663,0.94285 1.35679,2.38982 1.97887,3.21547 1.10449,1.46593 1.39544,2.20167 0.87064,2.20167 -0.14324,0 -0.80735,-0.77143 -1.4758,-1.71429 z m -5.33518,-1.15549 c -0.98445,-2.89409 -1.03088,-3.1659 -0.54002,-3.16128 0.18969,0.002 0.74107,1.21014 1.23428,2.70499 1.01682,3.0818 1.01151,3.05178 0.54003,3.05178 -0.19872,0 -0.73501,-1.12771 -1.23429,-2.59549 z m -10.92929,-4.13639 c -0.0251,-3.05449 0.0527,-4.23386 0.27429,-4.16056 0.62203,0.20577 0.83548,6.54223 0.27003,8.01579 -0.38639,1.00689 -0.51171,0.1193 -0.54432,-3.85523 z m 8.30284,-0.71201 c -0.0999,-0.95552 -0.34674,-1.81568 -0.57072,-1.98857 -0.21709,-0.16757 -0.91011,-2.09439 -1.54003,-4.28182 -1.10426,-3.83459 -1.28937,-4.55014 -1.95124,-7.54286 -0.16682,-0.75428 -0.64397,-2.05217 -1.06032,-2.88418 -0.73412,-1.467011 -0.8263,-1.540888 -3.04842,-2.443192 -2.02922,-0.823975 -2.65234,-0.944466 -5.4457,-1.053022 -1.73486,-0.06742 -3.30944,-0.248958 -3.49906,-0.403415 -0.38185,-0.311026 -0.49983,-0.236669 -5.44099,3.429149 -4.24785,3.15145 -7.28162,5.71866 -9.8798,8.36038 -1.22406,1.24457 -2.35066,2.26285 -2.50356,2.26285 -0.1529,0 -0.41851,-0.16931 -0.59026,-0.37625 -0.24811,-0.29896 0.15605,-0.8484 1.96719,-2.67429 3.2374,-3.26378 5.94055,-5.49809 12.53052,-10.357149 1.51037,-1.113659 2.87944,-2.185468 3.04238,-2.381797 0.5136,-0.618855 -2.0234,-9.737917 -3.05498,-10.980898 -0.17205,-0.207301 -0.24116,-0.563627 -0.15359,-0.791834 0.19742,-0.514462 -0.10692,-0.515501 -2.01785,-0.0069 -0.92663,0.24663 -2.88406,0.410108 -5.07429,0.423785 -1.96114,0.01225 -4.49143,0.199091 -5.62285,0.415209 -1.13143,0.216117 -3.42341,0.504323 -5.09329,0.640458 -1.66987,0.136135 -3.74537,0.471085 -4.61221,0.744333 -1.36403,0.42997 -1.60924,0.443185 -1.82252,0.09821 -0.59569,-0.963519 1.96317,-1.825073 6.52467,-2.19682 1.84931,-0.150713 4.00931,-0.402733 4.8,-0.560045 0.7907,-0.157312 3.28906,-0.350803 5.55192,-0.42998 2.26285,-0.07918 4.78822,-0.317355 5.61191,-0.529285 0.8237,-0.21193 2.05798,-0.385954 2.74286,-0.386719 l 1.24523,-0.0014 1.36766,-2.124322 c 0.75222,-1.168378 1.51188,-2.510126 1.68813,-2.981663 0.17625,-0.471537 0.90086,-2.014394 1.61024,-3.428571 0.70937,-1.414178 1.75582,-4.064302 2.32542,-5.889166 0.56961,-1.824864 1.18487,-3.596752 1.36725,-3.937528 0.27134,-0.507005 0.22099,-1.075364 -0.27705,-3.12778 -0.64401,-2.653935 -3.08264,-9.198273 -5.11306,-13.721479 -1.20472,-2.683777 -1.31955,-3.460993 -0.51136,-3.460993 0.77326,0 5.54915,11.478701 6.61901,15.908571 1.03915,4.302729 0.90712,4.031269 1.51616,3.11745 0.83693,-1.255749 1.61331,-4.129452 1.61331,-5.971485 0,-1.733358 0.31833,-2.42853 0.99342,-2.169471 0.59609,0.228741 0.48217,3.531344 -0.19774,5.732642 -0.31666,1.025234 -0.94669,2.521338 -1.40007,3.324676 -0.57818,1.024488 -0.77346,1.663272 -0.65397,2.139326 0.0937,0.373291 1.526,2.057492 3.18292,3.74267 1.65692,1.685178 3.01258,3.164576 3.01258,3.28755 0,0.298103 3.72379,3.064391 4.93715,3.667656 0.528,0.262514 1.47586,0.895051 2.10635,1.405638 0.63049,0.510587 1.98571,1.404575 3.0116,1.98664 l 1.86524,1.058301 1.10269,-0.697667 c 0.60648,-0.383717 2.39869,-1.157485 3.98269,-1.719485 6.28807,-2.230992 9.77683,-4.29611 13.13746,-7.776507 1.86551,-1.931993 2.7089,-2.401653 2.95973,-1.648179 0.0533,0.160151 -0.85632,1.317268 -2.02141,2.57137 -3.20201,3.446658 -7.62729,6.075368 -13.66435,8.116908 -2.78372,0.941363 -4.57961,1.935555 -5.13873,2.844757 -0.24113,0.392108 -1.24882,1.885496 -2.23931,3.318639 -3.49972,5.063744 -4.8543,7.196555 -5.93219,9.340364 -1.02379,2.036219 -1.08961,2.313148 -1.08709,4.573547 0.002,1.938502 0.12663,2.672602 0.64051,3.777522 0.35081,0.75428 0.9151,2.23542 1.25397,3.29142 0.33887,1.056 1.08607,2.84572 1.66044,3.97715 1.32045,2.60111 1.73523,3.8683 1.38185,4.22169 -0.32904,0.32904 -0.17722,0.52821 -1.91412,-2.51106 -0.79861,-1.39744 -1.79536,-3.55744 -2.21499,-4.8 -0.41964,-1.24256 -1.03623,-2.87635 -1.3702,-3.63063 -0.33397,-0.75429 -0.68406,-2.09504 -0.77797,-2.97944 -0.16384,-1.542964 -0.18976,-1.586916 -0.64086,-1.086465 -0.44677,0.495641 -0.41777,0.670895 0.58375,3.528015 0.57963,1.65355 1.49167,3.99389 2.02676,5.20074 0.71324,1.60865 1.04602,2.85313 1.2469,4.66286 0.1605,1.44595 0.17272,2.57279 0.0295,2.72015 -0.14688,0.15113 -0.28626,0.0964 -0.34906,-0.13714 -0.0575,-0.2138 -0.2585,-0.82072 -0.44665,-1.34872 -0.18816,-0.528 -0.50064,-1.63886 -0.69441,-2.46858 -0.19377,-0.82971 -0.68805,-2.24914 -1.09841,-3.15428 -0.71275,-1.57213 -2.37403,-5.93019 -2.73335,-7.17039 -0.14405,-0.49722 -1.18043,-1.08123 -1.44653,-0.81513 -0.0463,0.0463 0.0904,0.50424 0.30367,1.01769 0.2133,0.51345 0.6303,2.0444 0.92667,3.40212 0.29637,1.35771 1.03982,4.19657 1.65212,6.30857 1.28782,4.44205 1.83876,7.06891 1.60845,7.66907 -0.33208,0.8654 -0.65496,0.37209 -0.82571,-1.26154 z m -1.19738,-19.687974 c 0.37616,-0.447043 1.26677,-1.961825 1.97913,-3.366183 0.71236,-1.404357 2.88648,-4.926208 4.83137,-7.826335 1.94489,-2.900127 3.53616,-5.335762 3.53616,-5.412522 0,-0.07676 -0.59712,-0.442148 -1.32693,-0.811973 -0.72982,-0.369824 -1.93324,-1.136995 -2.67429,-1.704824 -0.74104,-0.567828 -2.08801,-1.470752 -2.99327,-2.006497 -1.96672,-1.16394 -4.79979,-3.283308 -4.79979,-3.590638 0,-0.12057 -1.14172,-1.387262 -2.53715,-2.814872 -1.39542,-1.427609 -3.02758,-3.164094 -3.627,-3.858856 l -1.08987,-1.263203 -1.03734,3.201453 c -0.57054,1.760799 -1.21671,3.475198 -1.43593,3.809775 -0.21922,0.334577 -0.96397,1.866289 -1.65498,3.403805 -0.69102,1.537516 -1.48003,3.123366 -1.75336,3.524111 -0.27333,0.400746 -0.96349,1.431992 -1.53368,2.291659 -0.5702,0.859667 -1.32438,1.83327 -1.67596,2.163563 -0.4941,0.464189 -0.57847,0.714072 -0.37159,1.100627 0.88156,1.647224 3.00257,9.149655 3.00257,10.620714 0,0.489026 0.24429,0.545399 2.81143,0.648792 2.94516,0.118617 5.47055,0.799163 9.10875,2.454635 1.80915,0.823205 2.12066,0.769082 3.24173,-0.563231 z m -26.40762,17.811034 c 0,-0.38742 4.39453,-5.18618 5.73236,-6.25965 0.62115,-0.49841 1.24393,-0.8354 1.38394,-0.74886 0.23212,0.14346 -6.58755,7.27792 -6.95681,7.27792 -0.0877,0 -0.15949,-0.12124 -0.15949,-0.26941 z m 34.00413,-9.10486 c -1.56085,-1.2778 -2.14224,-2.00763 -1.84004,-2.30982 0.10472,-0.10473 0.7175,0.29395 1.36173,0.88595 0.64422,0.59199 1.47486,1.28775 1.84586,1.54613 0.48388,0.33699 0.59064,0.55369 0.3777,0.76663 -0.21295,0.21294 -0.70625,-0.0383 -1.74525,-0.88889 z m -16.54104,-0.42697 c -0.071,-0.11561 -0.11138,-1.47533 -0.0897,-3.02162 0.0288,-2.05489 0.13225,-2.81143 0.38444,-2.81143 0.25516,0 0.34503,0.74597 0.34503,2.86381 0,2.52498 -0.237,3.62496 -0.63976,2.96924 z m 35.53162,-8.989677 c -3.24154,-1.59711 -4.27613,-2.329086 -3.29198,-2.329086 0.64562,0 7.32651,3.433926 7.33751,3.771428 0.006,0.188571 -0.0863,0.342857 -0.20553,0.342857 -0.11919,0 -1.84719,-0.803339 -3.84,-1.785199 z m -69.17757,0.300697 c 0,-0.418074 11.04638,-5.646926 11.9296,-5.646926 0.0764,0 0.13897,0.170093 0.13897,0.377986 0,0.21405 -0.7435,0.649416 -1.71428,1.00382 -1.61165,0.588365 -3.622,1.53581 -7.47429,3.522516 -1.41859,0.731596 -2.88,1.108418 -2.88,0.742604 z m 53.41654,-4.755498 c -1.15477,-0.565714 -2.10533,-1.191174 -2.11235,-1.389912 -0.0161,-0.455643 0.72761,-0.237865 2.61968,0.767121 0.76899,0.408452 1.67626,0.815367 2.01617,0.904254 0.62151,0.162528 0.55588,0.747109 -0.0839,0.747109 -0.18701,0 -1.28484,-0.462857 -2.43962,-1.028572 z M 120.96,91.10456 c 0,-0.397488 1.72545,-0.835931 4.55505,-1.157452 2.22958,-0.253342 2.85066,-0.198102 2.85066,0.253542 0,0.111408 -1.26514,0.35583 -2.81143,0.543159 -1.54628,0.187329 -3.21257,0.411472 -3.70285,0.498097 -0.55055,0.09727 -0.89143,0.04475 -0.89143,-0.137346 z m 66.03428,-5.681122 c -2.63216,-1.336247 -3.54423,-2.040581 -2.64242,-2.040581 0.45009,0 6.49284,2.975432 6.68973,3.294 0.41085,0.664766 -1.33207,0.124999 -4.04731,-1.253419 z m -1.32221,-5.720111 c 0.42862,-0.516456 1.48746,-0.589955 1.32392,-0.0919 -0.0619,0.188571 -0.46632,0.384212 -0.89866,0.434756 -0.69032,0.08071 -0.74213,0.03894 -0.42526,-0.342857 z m -18.90636,-2.874391 c 0,-0.134943 1.2373,-0.945915 2.74956,-1.802161 1.51225,-0.856246 3.07313,-1.856696 3.46862,-2.223222 0.92758,-0.859651 1.25845,-0.847856 0.8582,0.03059 -0.18757,0.411665 -1.22382,1.240261 -2.53126,2.024026 -3.55904,2.133508 -4.54512,2.561072 -4.54512,1.970763 z m 20.09143,0.06369 c -0.18857,-0.07609 -0.34286,-0.310117 -0.34286,-0.52006 0,-0.282602 0.23146,-0.337656 0.89143,-0.21203 1.11859,0.212924 1.25283,0.329864 0.74635,0.650172 -0.43741,0.276627 -0.76156,0.297133 -1.29492,0.08192 z m -56.61137,-7.61697 c -2.81283,-1.421174 -6.02197,-2.851383 -7.13143,-3.178242 -1.10946,-0.32686 -2.1324,-0.704151 -2.2732,-0.838426 -0.56931,-0.542925 0.18141,-0.543678 2.15525,-0.0022 2.4111,0.661474 13.15552,5.938009 12.90774,6.338927 -0.0908,0.146905 -0.25036,0.26637 -0.3546,0.265478 -0.10424,-8.91e-4 -2.49093,-1.1644 -5.30376,-2.585574 z M 140.16,64.579635 c -1.64096,-2.020138 -4.44979,-4.082043 -7.06112,-5.183422 -4.54972,-1.918932 -7.89729,-3.805058 -7.60184,-4.283113 0.0852,-0.137866 1.41352,0.415762 2.9518,1.230285 1.53828,0.814523 3.7695,1.880679 4.95827,2.369234 1.18877,0.488556 2.9925,1.51808 4.00829,2.287832 1.74826,1.324803 4.6646,4.370059 4.6646,4.870796 0,0.621505 -0.80691,0.07869 -1.92,-1.291612 z m 18.92571,1.100113 c 0,-0.23271 0.48122,-1.929853 1.06938,-3.771429 1.38311,-4.330662 1.43672,-4.569495 1.63941,-7.303569 0.12033,-1.623191 0.28574,-2.347424 0.55658,-2.437027 0.62479,-0.206702 0.20954,4.539433 -0.64327,7.352277 -0.38878,1.282285 -0.9835,3.287065 -1.32162,4.455065 -0.3428,1.184181 -0.76644,2.124555 -0.95762,2.125714 -0.18857,0.0011 -0.34286,-0.188321 -0.34286,-0.421031 z"
       id="path1" />
  </g>
</svg>
