<?xml version="1.0" encoding="UTF-8" standalone="no"?>
<!-- Created with Inkscape (http://www.inkscape.org/) -->

<svg
   version="1.1"
   id="svg1"
   width="294.58286"
   height="294.58286"
   viewBox="0 0 294.58286 294.58286"
   sodipodi:docname="two-hole-canine-fur.svg"
   xmlns="http://www.w3.org/2000/svg"
   inkscape:version="1.4 (86a8ad7, 2024-10-11)"
   xmlns:inkscape="http://www.inkscape.org/namespaces/inkscape"
   xmlns:sodipodi="http://sodipodi.sourceforge.net/DTD/sodipodi-0.dtd"
   xmlns:svg="http://www.w3.org/2000/svg">
  <defs
     id="defs1" />
  <sodipodi:namedview
     id="namedview1"
     pagecolor="#ffffff"
     bordercolor="#000000"
     borderopacity="0.25"
     inkscape:showpageshadow="2"
     inkscape:pageopacity="0.0"
     inkscape:pagecheckerboard="0"
     inkscape:deskcolor="#d1d1d1"
     showgrid="false"
     inkscape:zoom="2.766624"
     inkscape:cx="147.47215"
     inkscape:cy="147.29143"
     inkscape:window-width="1920"
     inkscape:window-height="1017"
     inkscape:window-x="-8"
     inkscape:window-y="-8"
     inkscape:window-maximized="1"
     inkscape:current-layer="g1" />
  <g
     inkscape:groupmode="layer"
     inkscape:label="Image"
     id="g1">
    <path
       style="fill:none;fill-opacity:1;stroke:none"
       d="m 102.45165,182.68958 c -0.42032,-1.08313 -0.67082,-1.3776 -1.22704,-1.44242 -1.460889,-0.17024 -1.771105,-3.7333 -0.58666,-6.73826 0.43961,-1.11531 0.55142,-2.16128 0.61139,-5.71976 l 0.0734,-4.35486 -1.358512,-2.88 -1.358514,-2.88 v -4.38857 c 0,-2.75132 0.121867,-4.69555 0.32666,-5.21143 0.179663,-0.45257 0.393478,-1.62514 0.475145,-2.60571 0.08167,-0.98057 0.289177,-2.52343 0.461133,-3.42857 0.171958,-0.90514 0.328428,-2.82064 0.347708,-4.25665 0.0348,-2.59362 0.0284,-2.62028 -0.975253,-4.02095 -0.555676,-0.7755 -1.523964,-2.37772 -2.151752,-3.56049 -1.084834,-2.04385 -1.132387,-2.23209 -0.959007,-3.7962 0.100335,-0.90514 0.48717,-2.38628 0.859634,-3.29143 0.975938,-2.37167 1.46377,-6.07322 1.58761,-12.04638 0.05968,-2.87849 0.237045,-5.78904 0.394147,-6.4679 0.163545,-0.7067 0.273193,-4.27725 0.25652,-8.353236 l -0.02912,-7.11895 -1.050999,-1.030188 c -1.725317,-1.691157 -1.505321,-2.944544 1.310842,-7.468266 1.124258,-1.80595 2.057598,-4.345316 2.833538,-7.70936 0.17398,-0.754286 0.85124,-2.544 1.50501,-3.977143 1.5662,-3.433266 1.49185,-3.176108 2.10141,-7.268572 0.74097,-4.974754 1.18317,-6.35902 2.38224,-7.457317 0.90258,-0.826737 0.98342,-1.021838 0.91983,-2.219955 -0.0523,-0.985752 0.0715,-1.49306 0.49606,-2.032835 0.31118,-0.395602 0.56579,-0.833837 0.56579,-0.973857 0,-0.14002 0.44473,-0.825421 0.9883,-1.523114 1.3211,-1.695694 2.80011,-2.387207 5.10574,-2.387207 h 1.80655 l -0.40213,-1.302857 c -0.80969,-2.62325 0.0719,-4.609168 2.54976,-5.743555 1.35454,-0.620129 1.80081,-0.670372 6.29581,-0.708812 4.08408,-0.03493 4.85989,-0.107081 4.97887,-0.463074 0.51462,-1.539649 1.55753,-3.349469 2.2809,-3.958143 1.47512,-1.24123 3.52197,-0.845973 5.05521,0.976186 l 0.74722,0.888019 1.57902,-1.701025 c 1.49647,-1.612098 1.6453,-1.701025 2.84684,-1.701025 1.60032,0 2.69087,0.921293 3.4091,2.88 l 0.50289,1.371429 1.73283,-0.08227 c 3.74872,-0.177986 8.35417,1.073059 9.10332,2.472867 0.59442,1.110679 0.73945,2.109175 0.46399,3.194405 -0.25975,1.023337 -0.21721,1.17526 0.63876,2.281388 0.50438,0.651773 0.92675,1.214033 0.9386,1.249467 0.0118,0.03543 0.50209,-0.180567 1.08941,-0.48 1.3182,-0.672061 3.45964,-0.714306 4.51798,-0.08913 1.57056,0.927754 2.33404,3.356069 1.63404,5.19721 -0.45961,1.208861 0.18501,1.616067 2.55826,1.616067 2.25829,0 3.73623,0.573321 4.3279,1.678879 0.43227,0.807702 0.42154,2.5746 -0.0207,3.400853 -0.26677,0.498462 -0.0132,1.025919 1.93304,4.020428 1.23205,1.895683 2.40634,3.844587 2.60953,4.330898 0.20319,0.486311 0.90032,1.536284 1.54918,2.333273 2.71156,3.330605 2.88568,3.777284 5.2954,13.58424 0.85256,3.469714 1.78273,6.678857 2.06704,7.131428 2.10341,3.348238 2.41817,4.908027 1.18602,5.877235 -0.39749,0.312664 -0.93594,0.56848 -1.19656,0.56848 -0.43791,0 -0.4665,0.473409 -0.37692,6.240003 0.0533,3.432 0.17617,6.7044 0.27301,7.272 0.0987,0.5788 -0.0366,2.35396 -0.30825,4.04227 -0.32327,2.00926 -0.39452,3.12542 -0.21428,3.35657 0.14852,0.19046 0.6111,1.39003 1.02795,2.6657 1.22372,3.74488 0.67511,5.83026 -2.06248,7.83983 -0.7463,0.54783 -1.35691,1.04589 -1.35691,1.10678 0,0.0609 0.53326,0.82181 1.18503,1.69093 1.81789,2.42411 1.92918,2.86385 1.70185,6.72424 -0.3394,5.7636 -0.32128,5.92958 0.9266,8.48381 0.96341,1.97198 1.12345,2.55289 1.12213,4.07322 -0.002,2.13355 -0.32346,3.40743 -1.43685,5.69104 l -0.84032,1.72354 0.7591,2.24176 c 1.12445,3.32075 1.44881,5.86189 1.19944,9.39688 -0.13265,1.88034 -0.10839,3.37885 0.0644,3.97714 0.15247,0.528 0.39641,2.05547 0.5421,3.39437 0.30731,2.82408 0.0192,4.37709 -0.90347,4.87091 -0.52275,0.27977 -0.66917,0.2235 -1.1564,-0.44441 -0.30682,-0.42061 -1.02475,-1.33408 -1.59539,-2.02995 -0.57064,-0.69586 -1.11495,-1.56827 -1.20959,-1.93868 -0.0946,-0.3704 -0.59085,-1.57988 -1.1027,-2.68772 -0.51185,-1.10784 -1.00302,-2.62535 -1.09148,-3.37224 -0.0884,-0.7469 -0.29985,-1.35799 -0.46976,-1.35799 -0.69468,0 -2.18482,-1.04415 -2.59978,-1.82168 -0.2439,-0.457 -0.73755,-1.38974 -1.097,-2.07276 -0.6252,-1.188 -0.68718,-1.22916 -1.42907,-0.94913 -0.61252,0.2312 -0.98158,0.19447 -1.75576,-0.17471 -0.53913,-0.25709 -1.04011,-0.46744 -1.11329,-0.46744 -0.43114,0 1.73389,5.49586 2.77145,7.03524 1.41427,2.0983 1.49992,3.60756 0.19675,3.4672 -0.43254,-0.0466 -0.58201,0.18832 -0.78405,1.23216 -0.16973,0.87693 -0.40119,1.31838 -0.72318,1.37929 -0.744,0.14072 -2.40954,-1.30595 -3.51586,-3.05383 -0.7566,-1.19537 -1.0542,-1.48418 -1.18313,-1.1482 -0.12148,0.31657 -0.43558,0.42352 -1.06557,0.3628 -0.755,-0.0728 -1.0091,-0.29842 -1.64119,-1.45752 -0.41133,-0.75428 -0.75076,-1.17455 -0.75429,-0.93393 -0.0156,1.06361 -1.78995,1.75934 -2.45212,0.96147 -0.21718,-0.26168 -0.66026,-0.33806 -1.39189,-0.23993 -1.04638,0.14035 -1.08828,0.1131 -1.67139,-1.08711 -0.56666,-1.16636 -0.63731,-1.21627 -1.3441,-0.94949 -1.04679,0.39512 -1.53601,0.12231 -2.21427,-1.23478 -0.64019,-1.28094 -0.99782,-1.6259 -3.27549,-3.15945 -1.85095,-1.24624 -2.22342,-1.67634 -3.3325,-3.8482 -0.48148,-0.94286 -0.95617,-1.71429 -1.05486,-1.71429 -0.0987,0 -0.89683,1.002 -1.77364,2.22667 -1.35242,1.88898 -1.82769,2.33493 -3.13374,2.94046 -1.07198,0.497 -1.93523,0.69868 -2.8424,0.66406 -1.09986,-0.042 -1.30286,0.0289 -1.30286,0.45453 0,0.74311 -0.70489,1.20907 -1.51966,1.00458 -0.38717,-0.0972 -1.28363,-0.78274 -1.99214,-1.52347 -0.70851,-0.74074 -2.1522,-1.91429 -3.2082,-2.6079 -1.81806,-1.19414 -1.92492,-1.22933 -2.01273,-0.66265 -0.0887,0.57228 0.37525,1.96164 1.21171,3.62881 0.21427,0.42708 0.38959,0.93252 0.38959,1.1232 0,0.48202 -0.90676,1.25457 -1.47252,1.25457 -0.63484,0 -2.55616,-0.99489 -3.77838,-1.9565 -0.54971,-0.4325 -1.05374,-0.78636 -1.12007,-0.78636 -0.30313,0 -2.42474,2.20856 -3.48107,3.62373 -1.39116,1.86374 -1.99196,2.13118 -3.04263,1.35439 l -0.76346,-0.56445 -0.34597,0.83526 c -0.46704,1.12753 -2.26799,3.88807 -3.49129,5.35153 -1.07289,1.28351 -1.97281,1.53258 -2.80766,0.77705 -0.42168,-0.38162 -0.53506,-0.27695 -1.34399,1.24076 -1.32784,2.49127 -2.93598,3.18018 -3.5,1.49935 -0.21349,-0.63623 -0.32138,-0.55573 -2.22253,1.65827 -1.59418,1.85653 -2.1487,2.32712 -2.74286,2.32771 -0.57543,5.7e-4 -0.86941,0.23017 -1.29328,1.01006 -0.30172,0.55512 -0.67527,1.04959 -0.83011,1.09882 -0.15485,0.0492 -0.5192,-0.52294 -0.80967,-1.27147 z m 58.0437,-43.93594 c 2.17655,-2.88714 5.1583,-5.56042 7.4824,-6.7083 3.70605,-1.83044 7.72526,-5.84633 9.54797,-9.54007 1.84088,-3.73059 1.71999,-3.04996 1.71999,-9.684 0,-4.18702 -0.0933,-6.12401 -0.29504,-6.12406 -0.517,-1.2e-4 -1.54305,-1.30508 -1.54675,-1.96721 -0.005,-0.86694 0.40351,-2.86843 1.22155,-5.987144 1.12014,-4.270466 1.12968,-4.388571 0.3544,-4.388571 -0.36496,0 -1.00988,-0.297949 -1.43315,-0.662108 -1.26069,-1.084639 -1.00051,-2.683116 1.50491,-9.24555 0.77332,-2.025574 0.78303,-2.110513 0.31253,-2.734265 -0.26707,-0.354063 -0.56163,-1.203045 -0.65458,-1.886628 -0.31672,-2.329149 -0.83015,-3.090412 -2.69105,-3.990019 -2.0971,-1.013791 -3.31204,-2.237675 -4.7271,-4.761888 -0.70386,-1.255557 -1.22809,-1.907359 -1.46244,-1.818325 -0.20091,0.07633 -0.75633,0.141455 -1.23428,0.144719 -0.70317,0.0048 -0.94751,0.171471 -1.28043,0.873399 -0.62967,1.327621 -1.13099,1.506684 -2.49554,0.89136 -1.56557,-0.705976 -5.56758,-4.689717 -5.98656,-5.959238 -0.43083,-1.305446 -2.00274,-2.527232 -2.74226,-2.131455 -0.29362,0.157142 -0.9119,0.285713 -1.37396,0.285713 -1.0225,0 -2.80157,-1.50357 -3.33008,-2.81439 -0.19702,-0.488657 -0.84099,-1.443896 -1.43104,-2.122753 -0.59005,-0.678857 -1.24873,-1.573715 -1.46373,-1.988572 -0.57893,-1.11707 -0.9254,-0.918433 -0.9254,0.530545 0,2.341716 -1.16876,4.037601 -4.10803,5.960771 -1.98565,1.29922 -3.50088,1.346917 -5.24498,0.165104 -1.00511,-0.681071 -1.48323,-0.818701 -2.8586,-0.822857 l -1.65161,-0.005 -1.89557,2.092945 c -1.86153,2.055359 -3.8901,3.374291 -5.22406,3.396573 -0.31613,0.0053 -0.89621,0.478915 -1.36897,1.117766 -1.41964,1.918346 -3.26607,2.898152 -5.21389,2.766735 -0.40188,-0.02711 -0.82593,0.437199 -1.58576,1.73631 -0.57045,0.975327 -1.62048,2.484786 -2.3334,3.354353 -1.96614,2.398165 -2.64325,3.377076 -3.32905,4.812907 -0.75094,1.572194 -0.69274,2.031448 0.81634,6.442218 1.10205,3.221093 1.16577,4.182415 0.36274,5.47272 -0.20869,0.335319 -0.77738,0.712787 -1.26375,0.838819 -0.67401,0.174654 -0.94411,0.437641 -1.13575,1.105854 -0.20875,0.727875 -0.10771,1.190797 0.59522,2.726896 0.47261,1.032793 0.92478,2.577247 1.02349,3.495907 0.15476,1.4402 0.10446,1.72236 -0.40278,2.25953 -0.3188,0.33761 -0.86847,0.68632 -1.22151,0.77493 -0.54689,0.13726 -0.66448,0.3801 -0.79462,1.64104 -0.084,0.81397 -0.31365,1.92494 -0.51032,2.46882 -0.32367,0.89509 -0.29962,1.0896 0.25364,2.0509 0.33617,0.58412 0.61122,1.36036 0.61122,1.72498 0,0.75309 -0.95807,2.10837 -1.49044,2.10837 -0.41677,0 -0.25658,1.21079 0.27216,2.05714 0.18849,0.30171 0.42877,1.0828 0.53395,1.73575 0.14356,0.89123 0.51925,1.54082 1.507,2.60572 3.40562,3.67162 3.98696,4.66091 3.50483,5.96425 -0.20518,0.55464 -0.1028,0.77186 0.66352,1.40774 0.49837,0.41355 1.55746,1.08563 2.35353,1.49353 0.79607,0.4079 1.90779,1.1357 2.47048,1.61734 0.56268,0.48165 1.94792,1.2579 3.07831,1.72502 2.0837,0.86108 11.3274,3.33636 12.45928,3.33636 0.3393,0 1.34634,0.35951 2.23786,0.7989 0.89152,0.4394 2.42324,0.99817 3.40381,1.24172 0.98057,0.24355 2.37104,0.80584 3.08992,1.24953 l 1.30707,0.80672 1.28378,-0.81415 c 0.70607,-0.44778 1.44962,-0.81414 1.65232,-0.81414 0.2027,0 1.01003,-0.432 1.79407,-0.96 2.38216,-1.60425 4.90749,-1.25117 6.36212,0.8895 0.38146,0.56138 0.69358,1.24919 0.69358,1.52845 0,0.8621 0.62083,0.37067 2.23249,-1.76717 z"
       id="path1" />
  </g>
</svg>
