<?xml version="1.0" encoding="UTF-8" standalone="no"?>
<!-- Created with Inkscape (http://www.inkscape.org/) -->

<svg
   version="1.1"
   id="svg1"
   width="294.58286"
   height="294.58286"
   viewBox="0 0 294.58286 294.58286"
   sodipodi:docname="two-hole-canine-vat.svg"
   xmlns="http://www.w3.org/2000/svg"
   inkscape:version="1.4 (86a8ad7, 2024-10-11)"
   xmlns:inkscape="http://www.inkscape.org/namespaces/inkscape"
   xmlns:sodipodi="http://sodipodi.sourceforge.net/DTD/sodipodi-0.dtd"
   xmlns:svg="http://www.w3.org/2000/svg">
  <defs
     id="defs1" />
  <sodipodi:namedview
     id="namedview1"
     pagecolor="#ffffff"
     bordercolor="#000000"
     borderopacity="0.25"
     inkscape:showpageshadow="2"
     inkscape:pageopacity="0.0"
     inkscape:pagecheckerboard="0"
     inkscape:deskcolor="#d1d1d1"
     inkscape:zoom="2.766624"
     inkscape:cx="147.29143"
     inkscape:cy="147.29143"
     inkscape:window-width="1920"
     inkscape:window-height="1017"
     inkscape:window-x="-8"
     inkscape:window-y="-8"
     inkscape:window-maximized="1"
     inkscape:current-layer="g1" />
  <g
     inkscape:groupmode="layer"
     inkscape:label="Image"
     id="g1">
    <path
       style="fill:none;stroke:none"
       d="m 139.33714,266.0848 c -1.13143,-0.25114 -2.20316,-0.54742 -2.38162,-0.6584 -0.74936,-0.46599 -3.74691,-4.50778 -4.59065,-6.18988 -0.50193,-1.00066 -1.34786,-3.24691 -1.87985,-4.99168 -1.07912,-3.53919 -3.72015,-9.062 -5.63146,-11.77627 -0.69049,-0.98057 -2.20969,-2.80902 -3.376,-4.06321 -1.16632,-1.25419 -2.59304,-2.98219 -3.17049,-3.84 -0.57746,-0.85781 -1.66707,-2.25837 -2.42136,-3.11236 -1.59162,-1.802 -4.59956,-6.9883 -6.19943,-10.68905 -1.77123,-4.09713 -3.72828,-10.34155 -4.21006,-13.4331 -0.50515,-3.24159 -0.45987,-8.73297 0.0933,-11.31748 0.27051,-1.26384 0.27341,-1.78111 0.0135,-2.40865 -0.19947,-0.48156 -0.27635,-1.48022 -0.19346,-2.51286 0.30185,-3.76047 2.96883,-6.85177 8.91108,-10.32885 2.09429,-1.22546 3.01418,-2.13217 5.01364,-4.94181 2.14608,-3.01565 5.54088,-5.37555 9.38884,-6.52667 1.36555,-0.40851 2.29354,-0.9276 3.56571,-1.99459 2.33194,-1.95581 4.21326,-2.77113 9.53688,-4.13305 3.54665,-0.90732 5.03009,-1.15926 6.85715,-1.16458 2.60354,-0.008 3.50017,0.28561 6.17142,2.01806 0.90515,0.58703 2.63315,1.44822 3.84,1.91376 1.20686,0.46554 2.87315,1.10756 3.70286,1.42672 0.82972,0.31915 2.37257,1.154 3.42857,1.85522 9.89562,6.57101 13.8609,9.88643 15.50946,12.96768 0.81405,1.52147 0.93627,2.02447 1.03675,4.26656 0.0935,2.08717 0.005,2.87919 -0.49281,4.42864 l -0.60672,1.88691 0.93806,2.4285 c 1.34983,3.49452 1.58098,4.27352 1.58098,5.32807 0,0.51735 0.16982,1.75231 0.37739,2.74437 0.58072,2.77553 -0.0543,7.83574 -1.46024,11.63606 -1.42298,3.84639 -4.50701,11.09059 -5.18956,12.18996 -0.42686,0.68752 -1.09089,1.80546 -1.47562,2.48432 -0.38474,0.67886 -1.17483,1.79125 -1.75575,2.47198 -0.58092,0.68073 -1.22846,1.54473 -1.43898,1.92 -0.56982,1.01578 -2.63073,3.82403 -5.10398,6.95479 -2.6343,3.33464 -6.21881,8.17531 -7.54183,10.18484 -0.528,0.80197 -1.27868,1.93229 -1.66817,2.51183 -0.38949,0.57954 -1.06835,1.63295 -1.50857,2.34092 -1.6299,2.62119 -4.83597,6.53139 -6.49562,7.92219 -2.60132,2.17993 -3.97185,2.72275 -6.78479,2.6872 -1.28228,-0.0162 -3.25714,-0.23495 -4.38857,-0.48609 z m -0.11653,-130.61735 c -4.96456,-0.72355 -13.72586,-7.23239 -17.49728,-12.99888 -2.63128,-4.0232 -3.91072,-6.94206 -5.55802,-12.6798 -1.76428,-6.14517 -2.1479,-8.44216 -1.9135,-11.457342 0.34938,-4.494373 3.28111,-14.332032 5.21143,-17.48742 2.195,-3.588029 6.51808,-8.126691 11.49546,-12.068714 2.83166,-2.242635 7.4986,-4.05179 11.91222,-4.617814 3.14006,-0.402697 5.2291,-0.05926 7.68215,1.262927 1.85415,0.999383 7.03407,3.539382 9.49264,4.654759 2.02631,0.919273 3.53038,2.126213 4.81255,3.861821 0.6278,0.849818 2.15937,2.551363 3.40349,3.781211 2.44861,2.420511 3.07892,3.507585 4.95439,8.544659 1.62134,4.354548 1.87149,6.387646 1.6874,13.714285 -0.0954,3.794848 -0.33005,7.276608 -0.58899,8.737998 -0.7797,4.40029 -3.37891,10.47922 -5.43753,12.71705 -2.80547,3.04972 -11.32906,9.27995 -15.19366,11.10566 -1.80651,0.85343 -9.17213,2.79922 -11.46622,3.02905 -0.75428,0.0756 -2.10272,0.0308 -2.99653,-0.0994 z"
       id="path1" />
  </g>
</svg>
