<?xml version="1.0" encoding="UTF-8" standalone="no"?>
<!-- Created with Inkscape (http://www.inkscape.org/) -->

<svg
   version="1.1"
   id="svg1"
   width="294.58286"
   height="294.58286"
   viewBox="0 0 294.58286 294.58286"
   sodipodi:docname="two-hole-pony-marble.svg"
   inkscape:version="1.4 (86a8ad7, 2024-10-11)"
   xmlns:inkscape="http://www.inkscape.org/namespaces/inkscape"
   xmlns:sodipodi="http://sodipodi.sourceforge.net/DTD/sodipodi-0.dtd"
   xmlns="http://www.w3.org/2000/svg"
   xmlns:svg="http://www.w3.org/2000/svg">
  <defs
     id="defs1" />
  <sodipodi:namedview
     id="namedview1"
     pagecolor="#ffffff"
     bordercolor="#000000"
     borderopacity="0.25"
     inkscape:showpageshadow="2"
     inkscape:pageopacity="0.0"
     inkscape:pagecheckerboard="0"
     inkscape:deskcolor="#d1d1d1"
     inkscape:zoom="2.766624"
     inkscape:cx="147.47215"
     inkscape:cy="147.29143"
     inkscape:window-width="1920"
     inkscape:window-height="1017"
     inkscape:window-x="-8"
     inkscape:window-y="-8"
     inkscape:window-maximized="1"
     inkscape:current-layer="g1" />
  <g
     inkscape:groupmode="layer"
     inkscape:label="Image"
     id="g1">
    <path
       style="fill:#000000"
       d="m 142.21714,269.21452 c -0.75428,-0.3725 -1.55657,-0.79866 -1.78286,-0.94703 -0.22628,-0.14837 -1.33714,-0.70173 -2.46857,-1.22969 -1.13143,-0.52797 -2.82247,-1.48917 -3.75787,-2.13601 -0.9354,-0.64684 -2.06768,-1.42293 -2.51618,-1.72465 -1.45906,-0.98154 -6.18569,-4.57843 -6.9853,-5.3157 -0.42864,-0.39522 -1.01539,-1.04686 -1.30388,-1.44809 l -0.52454,-0.7295 5.12504,-5.85335 c 13.64555,-15.58473 22.53983,-24.33937 32.7296,-32.21577 3.59496,-2.7788 6.25477,-4.5536 13.71313,-9.1503 5.14243,-3.16935 18.36978,-12.69353 23.33194,-16.79985 0.68857,-0.5698 1.31917,-1.03601 1.40134,-1.03601 0.1545,0 0.29167,1.60886 0.79513,9.32571 0.5246,8.04085 -0.26744,21.23005 -1.36713,22.76572 -0.66248,0.92513 -4.48766,3.5244 -12.08553,8.21232 -8.91301,5.49935 -13.69671,9.18156 -21.49896,16.54864 -4.04733,3.82159 -10.84259,11.09704 -16.90822,18.10303 -2.03657,2.3523 -3.888,4.28386 -4.11428,4.29235 -0.22629,0.008 -1.02857,-0.28933 -1.78286,-0.66182 z M 104.40984,224.16 c -0.68244,-3.24784 -1.30241,-8.96426 -1.13035,-10.42233 0.0846,-0.71686 0.21856,-1.98224 0.2977,-2.81196 0.37731,-3.95582 0.74647,-6.89905 1.19932,-9.5619 0.16319,-0.95962 0.28397,-2.37904 0.2684,-3.15428 -0.0434,-2.16233 0.25168,-6.4055 0.59401,-8.54096 0.30235,-1.88608 0.34954,-1.96576 2.67157,-4.50998 4.8477,-5.31158 17.30647,-17.60471 21.03442,-20.75477 2.12255,-1.79353 7.42998,-6.31217 11.79428,-10.04141 4.3643,-3.72925 9.29281,-7.83644 10.95224,-9.1271 5.98249,-4.65301 13.69739,-9.59042 20.57143,-13.16539 8.22689,-4.27856 11.84164,-6.39656 21.25714,-12.45526 l 4.8,-3.08871 0.0809,2.69702 c 0.0445,1.48337 -0.0377,4.53689 -0.18263,6.7856 -0.14496,2.24871 -0.16443,4.34929 -0.0433,4.66794 0.12115,0.31865 0.1173,1.2308 -0.009,2.02699 -0.12586,0.79619 -0.12416,4.2499 0.004,7.67492 0.12794,3.42501 0.21398,6.24726 0.1912,6.27166 -0.35426,0.37935 -8.26409,4.83739 -12.65857,7.13447 -11.37989,5.94848 -15.57015,8.90294 -29.10889,20.52402 -3.16352,2.71543 -7.72076,6.59787 -10.1272,8.62766 -5.44322,4.59125 -14.47209,13.64143 -23.8108,23.86701 -3.93065,4.30393 -8.58439,9.36819 -10.34164,11.2539 -1.75725,1.88572 -4.14773,4.50857 -5.31217,5.82857 -1.16444,1.32 -2.21358,2.4 -2.33142,2.4 -0.11783,0 -0.41524,-0.95657 -0.6609,-2.12571 z m 3.247,-65.9017 c -0.11007,-1.68505 -0.17165,-3.66936 -0.13684,-4.40958 0.0678,-1.44235 0.075,-2.21013 0.0661,-7.10586 -0.003,-1.73486 0.01,-4.20343 0.0291,-5.48572 0.0192,-1.28228 -0.12303,-4.54573 -0.31601,-7.25209 -0.26191,-3.673 -0.27497,-5.41167 -0.0515,-6.85714 0.20352,-1.31652 0.21983,-3.16585 0.0509,-5.77648 l -0.24843,-3.84 1.26345,-1.50709 c 2.27511,-2.71382 8.06028,-8.30293 12.93617,-12.49776 5.49465,-4.727153 9.48796,-7.79124 15.893,-12.19477 2.48914,-1.71131 5.87464,-4.094667 7.52333,-5.296347 1.64868,-1.20168 5.72183,-3.974607 9.05142,-6.16206 3.3296,-2.187453 6.91782,-4.574922 7.97382,-5.305487 10.18414,-7.045622 15.71076,-10.368689 26.05714,-15.667742 4.37486,-2.240648 8.06325,-4.097816 8.19643,-4.12704 0.21294,-0.04673 2.56856,5.417994 3.99703,9.27258 0.27953,0.754286 0.96344,2.482286 1.51979,3.84 1.33253,3.251852 1.99863,5.918017 2.22383,8.901103 l 0.18421,2.440232 -3.94636,1.972044 c -6.92269,3.459354 -16.57621,9.159453 -20.81493,12.290563 -1.13143,0.835777 -4.21714,2.927264 -6.85714,4.64775 -6.99315,4.557434 -7.37396,4.814914 -12.48,8.438244 -2.56457,1.81986 -6.51429,4.58589 -8.77715,6.14672 -10.90567,7.52234 -18.54791,14.33859 -27.54125,24.56455 -5.24732,5.96651 -6.48643,7.7824 -11.69316,17.13594 -1.63752,2.94171 -3.18557,5.69745 -3.4401,6.12387 -0.45827,0.76774 -0.46474,0.74542 -0.66293,-2.28843 z M 101.0844,85.260932 c -0.34407,-5.322954 -0.0999,-10.152344 0.67521,-13.352928 0.15838,-0.654026 0.26242,-1.332883 0.2312,-1.508571 -0.20106,-1.131409 1.93427,-8.534083 3.35285,-11.623553 0.5689,-1.23898 1.23668,-2.96698 1.48396,-3.84 0.61266,-2.162958 1.97553,-5.435518 2.8222,-6.776725 0.65489,-1.037416 2.54809,-3.153815 6.48334,-7.2477 0.91991,-0.956985 2.96855,-2.64732 4.55255,-3.7563 1.584,-1.10898 3.11859,-2.230863 3.41019,-2.493073 0.29161,-0.26221 1.71103,-0.990735 3.15429,-1.618944 1.44325,-0.62821 3.36467,-1.517497 4.26981,-1.976194 2.12756,-1.078177 7.30297,-2.67257 10.33054,-3.182536 1.82907,-0.308089 2.9028,-0.338232 4.66286,-0.1309 1.25763,0.148147 3.79955,0.191331 5.6487,0.09596 2.12969,-0.109834 3.94692,-0.05834 4.95751,0.140483 1.13946,0.224175 1.89352,0.231564 2.63854,0.02585 0.84057,-0.232093 1.34261,-0.189843 2.58535,0.217574 0.84822,0.278078 2.99266,0.970129 4.76544,1.537891 l 3.22322,1.032295 -3.90894,1.946786 c -4.5215,2.251864 -19.2646,11.123123 -26.26322,15.803174 -8.78127,5.872131 -17.79161,13.099038 -22.78603,18.275959 -2.1749,2.254379 -6.23851,7.54865 -12.17918,15.867653 -1.9391,2.715429 -3.61594,5.041705 -3.72629,5.169504 -0.11036,0.127798 -0.2832,-1.044773 -0.3841,-2.605714 z"
       id="path1" />
  </g>
</svg>
