<?xml version="1.0" encoding="UTF-8" standalone="no"?>
<!-- Created with Inkscape (http://www.inkscape.org/) -->

<svg
   version="1.1"
   id="svg1"
   width="294.58286"
   height="294.58286"
   viewBox="0 0 294.58286 294.58286"
   sodipodi:docname="two-hole-cheval-marble.svg"
   inkscape:version="1.4 (86a8ad7, 2024-10-11)"
   xmlns:inkscape="http://www.inkscape.org/namespaces/inkscape"
   xmlns:sodipodi="http://sodipodi.sourceforge.net/DTD/sodipodi-0.dtd"
   xmlns="http://www.w3.org/2000/svg"
   xmlns:svg="http://www.w3.org/2000/svg">
  <defs
     id="defs1" />
  <sodipodi:namedview
     id="namedview1"
     pagecolor="#ffffff"
     bordercolor="#000000"
     borderopacity="0.25"
     inkscape:showpageshadow="2"
     inkscape:pageopacity="0.0"
     inkscape:pagecheckerboard="0"
     inkscape:deskcolor="#d1d1d1"
     inkscape:zoom="2.766624"
     inkscape:cx="147.47215"
     inkscape:cy="147.29143"
     inkscape:window-width="1920"
     inkscape:window-height="1017"
     inkscape:window-x="-8"
     inkscape:window-y="-8"
     inkscape:window-maximized="1"
     inkscape:current-layer="g1" />
  <g
     inkscape:groupmode="layer"
     inkscape:label="Image"
     id="g1">
    <path
       style="fill:#000000"
       d="m 157.44,261.50208 c 0,-0.25666 3.39548,-5.09046 6.1156,-8.70617 1.34467,-1.7874 4.26273,-5.79883 6.48458,-8.91429 12.61227,-17.68483 11.69938,-16.49342 19.89243,-25.96162 5.38978,-6.22863 6.49306,-7.3785 6.10218,-6.35988 -0.0918,0.23923 -0.18916,1.62815 -0.21634,3.08648 -0.051,2.73713 -1.1228,8.55031 -2.16949,11.767 -0.29618,0.91023 -1.08038,3.32126 -1.74266,5.35783 -1.54401,4.74797 -3.85517,10.2895 -4.80455,11.52 -0.40737,0.528 -0.93704,1.26857 -1.17704,1.64571 -0.24,0.37714 -1.4491,1.83002 -2.68689,3.22861 -2.48721,2.81032 -5.77338,5.59542 -8.34721,7.07444 -0.92355,0.53071 -1.86433,1.0749 -2.09061,1.20931 -2.49423,1.48152 -9.45811,4.04637 -13.0559,4.80857 -2.1579,0.45716 -2.3041,0.47265 -2.3041,0.24401 z m -29.36177,-5.90455 c -3.43114,-2.31882 -6.57725,-4.94096 -8.07823,-6.73283 -2.03446,-2.42873 -4.93298,-6.54371 -6.40111,-9.08755 l -1.45877,-2.5276 1.30822,-1.84763 c 0.71952,-1.0162 2.18878,-3.02021 3.26503,-4.45335 2.37367,-3.16082 4.69124,-6.60083 7.68876,-11.41256 2.47183,-3.96787 9.65482,-14.34703 13.88175,-20.05862 3.38787,-4.57782 5.88499,-7.19116 11.04174,-11.55565 4.45994,-3.77473 9.91137,-8.51861 13.75723,-11.97164 3.69013,-3.31321 3.85344,-3.43174 16.73664,-12.14704 2.90919,-1.96803 5.9702,-3.63455 10.98696,-5.98168 l 3.60644,-1.68731 0.19529,2.98948 c 0.18392,2.8154 0.0628,6.9779 -0.35805,12.30502 -0.1013,1.28229 -0.15565,4.98514 -0.12077,8.22857 l 0.0634,5.89714 -5.41638,3.62291 c -5.66538,3.78946 -6.0301,4.07809 -13.27405,10.50496 -2.46686,2.18861 -5.59606,4.8969 -6.95377,6.01841 -4.55715,3.76434 -6.76197,5.86552 -8.48837,8.0894 -2.76469,3.56137 -11.17737,15.66081 -13.66427,19.65249 -3.25923,5.23134 -5.91405,9.14044 -9.15114,13.47467 -3.20627,4.29295 -3.9283,5.45477 -5.1815,8.33757 -0.4915,1.1306 -0.94417,2.10619 -1.00594,2.16796 -0.0618,0.0618 -1.40238,-0.75953 -2.97912,-1.82512 z M 105.32682,197.6056 c 0.003,-2.04888 2.74024,-16.10894 4.32223,-22.19989 l 0.99735,-3.84 -0.0633,-8.47296 -0.0633,-8.47296 16.79439,-16.7554 c 20.28229,-20.2352 25.26619,-24.6442 34.65162,-30.65445 8.23986,-5.27665 12.96359,-7.746854 20.02286,-10.470664 5.2307,-2.018256 8.84043,-3.129902 10.97993,-3.381359 l 1.44166,-0.169438 0.18945,3.120046 c 0.10419,1.716025 0.2099,7.666395 0.23491,13.223045 l 0.0455,10.10299 -3.97714,1.57326 c -4.70702,1.86199 -6.39905,2.7029 -10.97143,5.45263 -6.64949,3.99887 -9.37641,6.01657 -16.73143,12.37989 -1.13143,0.97888 -10.87327,10.61068 -21.64852,21.404 -14.37602,14.40012 -20.10291,20.31789 -21.5129,22.22994 -4.48348,6.07994 -6.68097,8.44966 -13.95858,15.05257 l -0.75429,0.68435 z m 4.8646,-70.50426 c -0.0878,-1.64288 -0.0575,-3.6042 0.0674,-4.35848 0.12486,-0.75429 0.12049,-2.35886 -0.01,-3.56572 -0.26688,-2.47404 -0.70828,-13.20338 -0.60367,-14.67387 0.0701,-0.98556 -0.98438,-4.3544 -2.27534,-7.269133 -0.40086,-0.905061 -0.94732,-2.346142 -1.21437,-3.202401 l -0.48554,-1.556835 3.46206,-3.398561 c 1.90414,-1.869209 4.69635,-4.452719 6.20492,-5.741135 1.50857,-1.288415 4.34743,-3.872259 6.30857,-5.741874 1.96115,-1.869615 4.24457,-3.960906 5.07429,-4.647312 0.82971,-0.686407 2.53997,-2.105274 3.80056,-3.153037 1.2606,-1.047764 3.22173,-2.954672 4.35807,-4.237575 1.13634,-1.282903 4.05466,-4.488539 6.48515,-7.123635 10.11677,-10.968425 12.45028,-13.111116 19.64193,-18.035771 5.08784,-3.484012 7.20764,-4.730334 10.40219,-6.115885 l 2.58189,-1.11983 1.61889,1.591285 c 1.88886,1.856669 6.12265,6.777207 8.24221,9.57915 2.13753,2.825707 5.78814,10.578235 5.21383,11.072211 -0.12046,0.103603 -1.57672,0.651917 -3.23615,1.218476 -4.1866,1.429381 -5.97877,2.365134 -10.56,5.513738 -5.03313,3.45919 -9.18143,7.56744 -21.17787,20.973425 -2.45432,2.742689 -5.48363,5.570062 -9.11862,8.51074 -1.20021,0.970963 -4.10078,3.570445 -6.44571,5.776625 -2.34493,2.206181 -5.18923,4.792774 -6.32066,5.747994 -1.13143,0.95521 -5.17462,4.83003 -8.98487,8.6107 l -6.92774,6.87394 -2.58218,5.21143 c -1.4202,2.86628 -2.75715,5.44475 -2.97101,5.72991 -0.34604,0.46142 -0.40641,0.18973 -0.54849,-2.46857 z m -7.67351,-51.176582 c -0.2144,-2.163849 -0.0226,-6.546053 0.43577,-9.959044 0.47333,-3.523956 2.73988,-12.673384 4.21275,-17.005714 1.79855,-5.290293 5.60957,-10.828115 11.65192,-16.93151 2.70057,-2.72785 3.40714,-3.281026 5.46411,-4.277877 1.29935,-0.629694 2.47192,-1.144644 2.60571,-1.144332 0.13379,3.12e-4 1.97126,-0.868045 4.08326,-1.929681 3.61248,-1.815884 4.01173,-1.951674 6.73842,-2.291852 1.59414,-0.198881 3.26042,-0.319115 3.70286,-0.267187 0.44244,0.05193 3.22784,0.2188 6.18978,0.370824 4.22274,0.216737 5.9639,0.426731 8.06534,0.972732 3.86342,1.003799 3.85821,0.996091 1.48031,2.192626 -1.12176,0.564458 -4.26128,2.352061 -6.97671,3.972452 -2.71543,1.620391 -6.16601,3.66743 -7.66796,4.548975 -1.98604,1.165677 -3.73903,2.540107 -6.4276,5.039535 -2.03324,1.890198 -4.75603,4.374744 -6.05064,5.521214 -1.29461,1.14647 -3.64219,3.553327 -5.21683,5.348572 -1.57464,1.795244 -5.34585,5.794366 -8.38048,8.886937 -7.04533,7.17986 -9.46766,10.28214 -12.48796,15.99333 l -1.27777,2.416187 z"
       id="path1" />
  </g>
</svg>
