<?xml version="1.0" encoding="UTF-8" standalone="no"?>
<!-- Created with Inkscape (http://www.inkscape.org/) -->

<svg
   version="1.1"
   id="svg1"
   width="294.58286"
   height="294.58286"
   viewBox="0 0 294.58286 294.58286"
   sodipodi:docname="two-hole-canine-internals.svg"
   xmlns="http://www.w3.org/2000/svg"
   inkscape:version="1.4 (86a8ad7, 2024-10-11)"
   xmlns:inkscape="http://www.inkscape.org/namespaces/inkscape"
   xmlns:sodipodi="http://sodipodi.sourceforge.net/DTD/sodipodi-0.dtd"
   xmlns:svg="http://www.w3.org/2000/svg">
  <defs
     id="defs1" />
  <sodipodi:namedview
     id="namedview1"
     pagecolor="#ffffff"
     bordercolor="#000000"
     borderopacity="0.25"
     inkscape:showpageshadow="2"
     inkscape:pageopacity="0.0"
     inkscape:pagecheckerboard="0"
     inkscape:deskcolor="#d1d1d1"
     inkscape:zoom="2.766624"
     inkscape:cx="147.29143"
     inkscape:cy="147.29143"
     inkscape:window-width="1920"
     inkscape:window-height="1017"
     inkscape:window-x="-8"
     inkscape:window-y="-8"
     inkscape:window-maximized="1"
     inkscape:current-layer="g1" />
  <g
     inkscape:groupmode="layer"
     inkscape:label="Image"
     id="g1"
     style="stroke:none;stroke-opacity:1;fill:#000000;fill-opacity:1">
    <path
       style="fill:none;stroke:none;stroke-opacity:1;fill-opacity:1"
       d="m 141.25057,258.03428 c -1.51415,-1.02623 -2.00059,-2.18907 -2.20873,-5.28 l -0.18471,-2.74285 1.35192,-2.46205 c 1.58455,-2.88571 2.57906,-4.25795 3.08585,-4.25795 0.95477,0 1.26629,-7.78286 0.56477,-14.11014 -0.22804,-2.05679 -0.38428,-5.43199 -0.3472,-7.50045 0.0399,-2.22405 -0.0755,-4.48937 -0.28241,-5.5437 -1.04974,-5.34988 -1.0161,-6.30857 0.22137,-6.30857 0.75069,0 1.11047,0.64187 1.4117,2.51862 0.15298,0.95305 0.38228,2.34995 0.50957,3.10424 0.61783,3.66115 0.74238,5.0401 0.5619,6.22117 -0.30403,1.98968 -0.0614,20.13169 0.29708,22.2093 0.17315,1.00362 0.24956,2.0743 0.1698,2.3793 -0.0797,0.305 0.095,1.397 0.3883,2.42667 0.74884,2.62867 0.76463,5.88905 0.0364,7.51965 -1.02557,2.29645 -3.62573,3.14835 -5.57564,1.82676 z M 141.6,115.8412 c -0.23067,-0.0931 -0.34286,-0.79851 -0.34286,-2.15595 0,-1.94868 -0.0363,-2.05953 -1.06221,-3.24489 -1.05968,-1.22436 -1.06189,-1.23192 -0.92374,-3.16265 0.12233,-1.70978 0.0517,-2.11267 -0.6059,-3.45678 -0.47178,-0.9643 -1.03749,-1.67301 -1.54483,-1.93537 -0.96698,-0.50004 -1.06546,-1.485 -0.25189,-2.519288 0.81928,-1.041546 0.75189,-3.400135 -0.14531,-5.085515 -0.5491,-1.03148 -0.63293,-1.417333 -0.40178,-1.849247 0.29906,-0.558784 1.32837,-0.734777 1.79509,-0.306923 0.48399,0.443685 1.67471,0.576722 2.10531,0.235222 0.72129,-0.572046 1.87677,-5.181537 1.62102,-6.466679 -0.0879,-0.441522 0.73521,-1.413131 1.1971,-1.413131 0.56279,0 1.23428,0.969937 1.23428,1.782858 0,0.428814 0.21317,1.015202 0.4737,1.303084 0.26052,0.287882 0.7851,1.161601 1.16571,1.941597 0.66074,1.354064 0.75987,1.432952 2.19284,1.74504 1.26595,0.275713 1.64119,0.260256 2.39778,-0.09877 1.82842,-0.867643 2.4465,0.186254 1.29858,2.214232 -0.94322,1.66634 -1.07398,3.853725 -0.31972,5.348385 0.64822,1.284534 0.59801,1.730914 -0.3533,3.140484 -0.99036,1.46743 -1.26689,2.63621 -0.82088,3.46958 0.41662,0.77848 0.0361,1.57235 -1.12046,2.33729 -1.26622,0.83751 -2.44567,2.85561 -2.44567,4.18468 0,1.17833 -0.68176,1.98011 -1.6837,1.98011 -0.25547,0 -0.85552,0.49371 -1.33345,1.09714 -0.81634,1.03072 -1.31157,1.244 -2.12571,0.91549 z"
       id="path1" />
  </g>
</svg>
