<?xml version="1.0" encoding="UTF-8" standalone="no"?>
<!-- Created with Inkscape (http://www.inkscape.org/) -->

<svg
   version="1.1"
   id="svg1"
   width="294.58286"
   height="294.58286"
   viewBox="0 0 294.58286 294.58286"
   sodipodi:docname="two-hole-pony-bovine-spots.svg"
   inkscape:version="1.4 (86a8ad7, 2024-10-11)"
   xmlns:inkscape="http://www.inkscape.org/namespaces/inkscape"
   xmlns:sodipodi="http://sodipodi.sourceforge.net/DTD/sodipodi-0.dtd"
   xmlns="http://www.w3.org/2000/svg"
   xmlns:svg="http://www.w3.org/2000/svg">
  <defs
     id="defs1" />
  <sodipodi:namedview
     id="namedview1"
     pagecolor="#ffffff"
     bordercolor="#000000"
     borderopacity="0.25"
     inkscape:showpageshadow="2"
     inkscape:pageopacity="0.0"
     inkscape:pagecheckerboard="0"
     inkscape:deskcolor="#d1d1d1"
     inkscape:zoom="2.766624"
     inkscape:cx="147.47215"
     inkscape:cy="147.29143"
     inkscape:window-width="1920"
     inkscape:window-height="1017"
     inkscape:window-x="-8"
     inkscape:window-y="-8"
     inkscape:window-maximized="1"
     inkscape:current-layer="g1" />
  <g
     inkscape:groupmode="layer"
     inkscape:label="Image"
     id="g1">
    <path
       style="fill:#000000"
       d="m 152.06656,271.94705 c -3.27145,-0.56473 -10.04709,-2.85062 -10.94225,-3.69158 -0.32353,-0.30394 -0.74266,-0.55261 -0.93139,-0.55261 -0.60643,0 -4.23129,-1.86259 -5.98508,-3.07536 -0.9354,-0.64684 -2.06768,-1.42293 -2.51618,-1.72464 -2.86678,-1.92855 -6.50967,-4.90316 -8.35132,-6.8193 -2.68089,-2.78932 -6.28966,-7.15913 -7.84608,-9.5007 -0.65177,-0.98058 -1.45396,-2.09143 -1.78265,-2.46858 -0.75828,-0.87005 -2.07733,-2.84581 -2.07733,-3.11156 0,-0.11114 -0.22529,-0.53651 -0.50065,-0.94526 -1.8285,-2.71424 -2.25887,-3.43483 -3.1931,-5.34637 l -1.04327,-2.13462 0.30397,-3.48823 c 0.57889,-6.64313 4.98637,-19.70292 8.62888,-25.56824 0.51528,-0.82972 1.81602,-3.00665 2.89055,-4.83762 2.20039,-3.74944 4.36327,-6.00602 7.92922,-8.27273 1.11588,-0.70931 3.22288,-2.23854 4.68221,-3.39828 2.84654,-2.26217 8.62144,-5.63266 10.92194,-6.37454 2.24277,-0.72325 4.14135,-0.92736 6.33643,-0.6812 3.41933,0.38347 3.1816,0.0828 2.98552,3.77611 -0.0933,1.75669 -0.30295,4.1814 -0.46597,5.38826 -0.55566,4.11364 -0.74559,8.34109 -0.54837,12.20571 0.12086,2.36814 -0.003,5.07385 -0.3887,8.50286 -0.85979,7.64058 -1.09768,12.17479 -0.69034,13.1582 0.87165,2.10435 2.20848,2.92984 3.56713,2.20271 1.06621,-0.57062 1.85943,-5.56443 0.99748,-6.27979 -0.25781,-0.21396 -0.41634,-1.22674 -0.50537,-3.22853 -0.10311,-2.31833 -0.22473,-2.98624 -0.59277,-3.25536 -0.4177,-0.30543 -0.43504,-0.64393 -0.17699,-3.45648 0.15733,-1.71484 0.31541,-3.92018 0.35127,-4.90075 l 0.0652,-1.78286 1.31393,-0.084 c 1.58754,-0.10155 6.65239,1.45022 8.96336,2.7462 4.42693,2.4826 8.2162,5.69666 11.08988,9.40642 4.17759,5.39304 10.47885,16.99947 12.85111,23.67073 0.82567,2.32196 0.85161,2.54199 0.96033,8.14642 l 0.11174,5.76 -1.34666,2.05714 c -1.66824,2.54838 -5.36607,6.34204 -7.89841,8.1031 -1.04948,0.72984 -2.7383,2.02227 -3.75294,2.87209 -1.85923,1.5572 -5.92623,3.8523 -8.7152,4.91818 -2.14349,0.8192 -6.40982,1.84857 -8.50285,2.05157 -0.98058,0.0951 -2.27658,0.22324 -2.88,0.28476 -0.60343,0.0615 -2.09577,-0.0605 -3.3163,-0.27122 z M 111.08571,168.81807 c 0,-0.71447 1.1089,-5.65156 1.78551,-7.9495 0.35535,-1.20686 0.78294,-3.11482 0.9502,-4.23991 0.16726,-1.12509 0.35362,-2.09513 0.41413,-2.15564 0.0605,-0.0605 0.46576,0.14331 0.90057,0.45292 1.99458,1.42027 3.62959,5.21933 3.62959,8.43361 0,2.989 -0.6633,4.25684 -2.8005,5.35286 -1.32536,0.67968 -4.8795,0.75664 -4.8795,0.10566 z m 85.98857,-14.30164 c -1.20224,-0.63269 -2.30908,-1.73533 -2.90512,-2.89408 -0.72284,-1.40528 -0.66535,-3.40036 0.18766,-6.51235 0.54156,-1.97577 0.72103,-3.314 0.75409,-5.62286 0.0385,-2.69115 0.12669,-3.19964 0.78837,-4.54693 0.40975,-0.83431 1.08861,-1.84582 1.50858,-2.2478 l 0.76357,-0.73087 0.0623,6.0878 c 0.0343,3.34829 0.14116,8.52552 0.23754,11.50494 0.1918,5.92897 0.22385,5.81512 -1.39699,4.96215 z m -38.73623,-22.72592 c -1.51379,-1.56675 -2.27276,-2.65083 -3.21311,-4.58947 -1.59744,-3.29333 -2.06902,-5.31118 -2.25981,-9.66961 -0.17196,-3.92849 0.047,-5.82909 1.26387,-10.97143 0.42839,-1.81029 0.9378,-4.08323 1.13203,-5.05099 0.28133,-1.40174 0.74503,-2.349954 2.28028,-4.662854 1.05992,-1.596815 2.30667,-3.832262 2.77055,-4.967661 2.25074,-5.50897 6.68048,-9.382385 13.17385,-11.519348 1.056,-0.347529 3.03086,-1.20235 4.38857,-1.899603 3.56674,-1.831693 6.64651,-2.779647 9.60448,-2.956262 4.52179,-0.269988 7.2869,0.785677 10.58085,4.039575 2.69574,2.662966 3.3527,4.0669 4.18863,8.951295 l 0.64453,3.765976 -0.67254,3.03565 c -0.3699,1.669608 -0.71608,3.903856 -0.76929,4.965002 -0.0932,1.85792 -1.12541,5.7292 -1.96194,7.35799 -0.22159,0.43147 -0.43781,1.27466 -0.48048,1.87375 -0.0427,0.59909 -0.33985,1.41864 -0.66039,1.82122 -0.88812,1.11543 -5.33076,7.5761 -5.81719,8.4596 -0.6834,1.24127 -8.17153,6.77353 -11.86572,8.76645 -1.82193,0.98289 -3.62723,2.00508 -4.01177,2.27154 -1.3094,0.90732 -6.7659,2.1736 -10.71059,2.4856 -2.03658,0.16107 -4.13486,0.34956 -4.66286,0.41887 -0.89495,0.11746 -1.09429,-0.013 -2.94195,-1.92529 z M 106.97143,85.461769 c -0.67886,-0.193949 -1.54286,-0.479789 -1.92,-0.6352 -1.04305,-0.429814 -3.66867,-2.481173 -3.86904,-3.02282 -0.25651,-0.693421 0.21533,-5.564037 1.02817,-10.613218 0.77125,-4.790885 2.11519,-9.567415 3.59178,-12.765648 0.52288,-1.132543 1.18467,-2.861455 1.47063,-3.842026 0.65636,-2.250678 1.81118,-5.033105 2.66314,-6.41657 0.36173,-0.587399 2.26113,-2.777211 4.22089,-4.866249 2.64148,-2.81574 4.31923,-4.327671 6.48595,-5.844917 1.60752,-1.125667 3.26044,-2.307217 3.67315,-2.625666 0.41271,-0.31845 1.51732,-0.890636 2.45469,-1.271525 0.93738,-0.380889 2.63972,-1.162835 3.78299,-1.737659 2.15458,-1.083301 8.75059,-3.294557 9.82742,-3.294557 1.4574,0 4.46258,3.751236 5.9206,7.390435 0.78853,1.968175 0.83075,2.272481 0.83932,6.049565 0.008,3.641649 -0.0556,4.168375 -0.75643,6.244116 l -0.76544,2.266974 0.62774,1.710169 c 0.51221,1.3954 0.62788,2.265497 0.62844,4.727312 8.4e-4,3.698246 -0.49758,8.811698 -1.10196,11.305435 -1.72543,7.119334 -8.6329,15.137529 -14.6649,17.023015 -0.98807,0.308852 -2.40762,0.470111 -4.11429,0.467378 -2.43791,-0.0039 -2.74578,-0.07046 -4.78081,-1.033544 -1.85581,-0.878264 -2.29871,-0.990641 -3.01715,-0.765536 -0.46312,0.145109 -1.58261,0.347299 -2.48775,0.449312 -0.90514,0.102012 -2.53148,0.479238 -3.61407,0.83828 -2.18141,0.723458 -4.20716,0.810517 -6.12307,0.263144 z"
       id="path1" />
  </g>
</svg>
