<?xml version="1.0" encoding="UTF-8" standalone="no"?>
<!-- Created with Inkscape (http://www.inkscape.org/) -->

<svg
   version="1.1"
   id="svg1"
   width="294.58286"
   height="294.58286"
   viewBox="0 0 294.58286 294.58286"
   sodipodi:docname="two-hole-cheval-full-face.svg"
   inkscape:version="1.4 (86a8ad7, 2024-10-11)"
   xmlns:inkscape="http://www.inkscape.org/namespaces/inkscape"
   xmlns:sodipodi="http://sodipodi.sourceforge.net/DTD/sodipodi-0.dtd"
   xmlns="http://www.w3.org/2000/svg"
   xmlns:svg="http://www.w3.org/2000/svg">
  <defs
     id="defs1" />
  <sodipodi:namedview
     id="namedview1"
     pagecolor="#ffffff"
     bordercolor="#000000"
     borderopacity="0.25"
     inkscape:showpageshadow="2"
     inkscape:pageopacity="0.0"
     inkscape:pagecheckerboard="0"
     inkscape:deskcolor="#d1d1d1"
     inkscape:zoom="2.766624"
     inkscape:cx="147.47215"
     inkscape:cy="147.29143"
     inkscape:window-width="1920"
     inkscape:window-height="1017"
     inkscape:window-x="-8"
     inkscape:window-y="-8"
     inkscape:window-maximized="1"
     inkscape:current-layer="g1" />
  <g
     inkscape:groupmode="layer"
     inkscape:label="Image"
     id="g1">
    <path
       style="fill:#000000"
       d="m 146.24926,260.82616 c -7.47761,-0.7365 -11.1179,-2.01724 -16.92355,-5.9541 -5.38831,-3.65386 -7.78152,-5.88574 -11.11567,-10.36635 -6.29417,-8.45844 -10.1799,-17.75744 -11.10926,-26.58571 -0.0953,-0.90514 -0.3621,-2.75657 -0.59293,-4.11429 -0.49417,-2.90676 -0.55952,-14.81317 -0.0971,-17.69143 0.79219,-4.93072 3.01403,-15.78687 4.26633,-20.84571 0.35477,-1.43314 0.73218,-3.71343 0.83869,-5.06731 0.16343,-2.0774 0.37278,-2.84797 1.34137,-4.93714 0.63125,-1.36155 1.47726,-3.33955 1.88004,-4.39555 0.9844,-2.58088 2.10535,-8.9936 2.10961,-12.06857 0.002,-1.35772 0.12819,-3.55762 0.28069,-4.88868 0.39025,-3.40629 -0.38993,-12.28152 -1.3664,-15.5438 -0.15774,-0.527 -0.28681,-1.75386 -0.28681,-2.72634 0,-0.97249 -0.11873,-2.45445 -0.26386,-3.29324 -0.14512,-0.8388 -0.40636,-2.32737 -0.58054,-3.30794 -0.17417,-0.98057 -0.40462,-2.64686 -0.5121,-3.70286 -0.10748,-1.056 -0.39558,-2.30323 -0.6402,-2.77162 -0.24463,-0.46839 -0.57197,-1.86596 -0.72742,-3.1057 -0.38906,-3.10281 -0.68871,-4.14377 -2.05859,-7.15125 -1.66264,-3.650201 -2.52418,-5.84202 -4.78565,-12.17499 -1.293,-3.620904 -3.01712,-16.121421 -2.4485,-17.75257 0.16422,-0.471085 0.16467,-1.095573 0.001,-1.687578 -0.15764,-0.570949 -0.16109,-1.115579 -0.009,-1.387746 0.13789,-0.246389 0.3083,-1.407249 0.37869,-2.57969 0.0704,-1.172441 0.55835,-3.736282 1.08436,-5.697425 0.526,-1.961143 1.15071,-4.475433 1.38823,-5.587312 1.46394,-6.852909 5.03973,-13.400131 10.65984,-19.517991 0.76633,-0.834203 1.77463,-1.94506 2.24066,-2.468572 1.89866,-2.132831 4.1221,-3.877717 6.27546,-4.924783 1.24574,-0.605738 2.36073,-1.101342 2.47776,-1.101342 0.11703,0 1.95498,-0.874214 4.08434,-1.942697 4.57891,-2.297644 5.8894,-2.544138 12.2351,-2.301345 6.50551,0.248908 9.03512,0.607767 12.82515,1.819418 4.43477,1.417767 7.10832,2.711021 11.09786,5.368269 3.57645,2.382102 6.41878,5.012209 10.35705,9.583739 4.174,4.845168 5.70578,6.990159 7.3081,10.233708 3.05365,6.181427 4.42051,11.753755 5.21542,21.261765 0.22702,2.715429 0.47207,5.492571 0.54456,6.171429 0.0725,0.678857 -0.11559,2.592 -0.41796,4.251428 -1.1396,6.254106 -2.07405,10.80761 -2.64551,12.891429 -0.20686,0.754285 -0.63829,2.605714 -0.95874,4.114285 -0.32045,1.508571 -0.94504,3.893251 -1.38798,5.299291 -0.45515,1.4448 -0.86677,3.47239 -0.9466,4.66286 -0.21273,3.17226 -1.67146,9.97269 -3.95256,18.42642 -0.46812,1.73486 -0.96743,4.01829 -1.10958,5.07429 -0.14215,1.056 -0.39854,2.59885 -0.56974,3.42857 -0.42043,2.03749 -0.14765,5.18489 0.67868,7.83102 0.3745,1.19923 0.88369,2.98269 1.13154,3.96326 0.24785,0.98057 0.79602,2.46639 1.21816,3.30181 0.42214,0.83542 0.85858,2.18101 0.96988,2.9902 0.25945,1.88648 1.31035,4.96261 3.28529,9.61656 0.86423,2.03658 1.72948,4.21849 1.92277,4.84871 0.19328,0.63022 0.60426,1.50092 0.91328,1.93489 0.30901,0.43398 0.81792,1.79199 1.1309,3.01782 0.31298,1.22582 0.94012,3.28009 1.39365,4.56503 0.74844,2.12049 0.83644,2.7366 0.95279,6.67063 0.10026,3.39001 0.3152,5.26062 0.98656,8.58578 0.47211,2.33829 0.82819,4.49829 0.7913,4.8 -0.0369,0.30172 -0.0591,1.01143 -0.0492,1.57714 0.01,0.56572 0.043,4.392 0.0737,8.50286 0.0554,7.40773 0.0483,7.51093 -0.79886,11.58857 -1.28935,6.20619 -5.99252,19.99916 -7.55238,22.1488 -0.24621,0.3393 -0.74175,1.05646 -1.10119,1.59368 -1.14838,1.71638 -5.47588,6.37119 -7.58518,8.1589 -4.78829,4.05823 -12.64066,7.63071 -20.00687,9.10224 -3.92368,0.78382 -5.94074,0.82795 -11.73931,0.25683 z"
       id="path1" />
  </g>
</svg>
