<?xml version="1.0" encoding="UTF-8" standalone="no"?>
<!-- Created with Inkscape (http://www.inkscape.org/) -->

<svg
   version="1.1"
   id="svg1"
   width="294.58286"
   height="294.58286"
   viewBox="0 0 294.58286 294.58286"
   sodipodi:docname="two-hole-pony-internals.svg"
   inkscape:version="1.4 (86a8ad7, 2024-10-11)"
   xmlns:inkscape="http://www.inkscape.org/namespaces/inkscape"
   xmlns:sodipodi="http://sodipodi.sourceforge.net/DTD/sodipodi-0.dtd"
   xmlns="http://www.w3.org/2000/svg"
   xmlns:svg="http://www.w3.org/2000/svg">
  <defs
     id="defs1" />
  <sodipodi:namedview
     id="namedview1"
     pagecolor="#ffffff"
     bordercolor="#000000"
     borderopacity="0.25"
     inkscape:showpageshadow="2"
     inkscape:pageopacity="0.0"
     inkscape:pagecheckerboard="0"
     inkscape:deskcolor="#d1d1d1"
     inkscape:zoom="2.766624"
     inkscape:cx="147.47215"
     inkscape:cy="147.29143"
     inkscape:window-width="1920"
     inkscape:window-height="1017"
     inkscape:window-x="-8"
     inkscape:window-y="-8"
     inkscape:window-maximized="1"
     inkscape:current-layer="g1" />
  <g
     inkscape:groupmode="layer"
     inkscape:label="Image"
     id="g1">
    <path
       style="fill:#000000"
       d="m 150.03428,257.44765 c -2.42422,-0.44644 -3.57617,-1.05935 -5.5046,-2.92882 -4.34826,-4.21532 -4.25057,-9.4077 0.29382,-15.61597 3.33265,-4.55287 4.01337,-7.07409 4.25824,-15.77143 0.14766,-5.24446 0.5049,-8.96677 1.13795,-11.85715 0.46561,-2.12588 0.54955,-5.87169 0.3305,-14.74857 -0.0447,-1.81028 0.0918,-4.95771 0.30315,-6.99428 0.514,-4.9518 0.5514,-18.09865 0.0558,-19.61143 -0.30248,-0.92327 -0.29254,-1.50655 0.0627,-3.68053 0.6364,-3.8943 2.00599,-5.60994 3.62931,-4.5463 l 0.70001,0.45867 -0.19272,4.29551 c -0.1395,3.10917 -0.37218,4.99587 -0.84246,6.8314 -0.35736,1.39473 -0.60079,2.69073 -0.54096,2.88 0.29184,0.92326 0.39506,15.56209 0.1204,17.07553 -0.16426,0.90515 -0.33239,3.43543 -0.37363,5.62286 -0.0412,2.18743 -0.23738,5.97888 -0.43589,8.42545 -0.27349,3.37062 -0.28464,4.59996 -0.0461,5.07428 0.17319,0.34429 0.63072,2.90941 1.01675,5.70027 0.94842,6.8569 1.20473,8.22984 1.71042,9.16182 0.36305,0.6691 0.39847,1.34733 0.22202,4.25143 -0.11546,1.90043 -0.2092,3.70218 -0.20831,4.00389 8.9e-4,0.30172 0.4613,1.22743 1.02312,2.05715 0.56183,0.82971 1.13452,1.80307 1.27264,2.16301 0.13813,0.35994 0.92759,1.61433 1.75437,2.78753 3.62165,5.13914 4.05608,8.73855 1.4897,12.3427 -0.68873,0.96723 -2.41684,1.76711 -5.33914,2.4713 -2.47649,0.59676 -3.35725,0.61941 -5.89715,0.15168 z M 153.7296,99.198884 c -1.0159,-0.688803 -4.67035,-2.067406 -6.71022,-2.531366 -1.38851,-0.315809 -2.62902,-0.413542 -3.89835,-0.307126 -2.03398,0.170521 -2.41246,-0.07212 -2.41246,-1.546619 0,-1.126276 -1.3444,-5.941036 -2.34667,-8.404189 -1.11974,-2.751878 -1.16214,-3.236003 -0.30229,-3.451811 0.90712,-0.227674 3.00195,-2.822068 3.91823,-4.852641 0.42603,-0.944109 1.34942,-2.827418 2.05199,-4.185132 1.58072,-3.054733 3.29996,-7.180892 3.24186,-7.780405 -0.0899,-0.927446 0.0322,-1.35426 0.43117,-1.507356 0.56676,-0.217487 1.23428,0.07748 1.23428,0.545414 0,1.126915 4.09648,5.794653 7.51534,8.563357 2.1586,1.748105 5.22153,3.881847 5.57229,3.881847 0.12447,0 1.14952,0.676331 2.27791,1.502959 1.12838,0.826628 2.20155,1.505485 2.38481,1.508572 0.18327,0.0031 0.46615,0.254022 0.62864,0.557634 0.24991,0.466951 0.14991,0.688867 -0.64885,1.44 -0.88232,0.829712 -5.9951,8.647265 -8.60124,13.151491 -1.32584,2.29146 -2.6351,3.782201 -3.32177,3.782201 -0.2605,0 -0.7171,-0.165073 -1.01467,-0.36683 z"
       id="path1" />
  </g>
</svg>
