<?xml version="1.0" encoding="UTF-8" standalone="no"?>
<!-- Created with Inkscape (http://www.inkscape.org/) -->

<svg
   version="1.1"
   id="svg1"
   width="294.58286"
   height="294.58286"
   viewBox="0 0 294.58286 294.58286"
   sodipodi:docname="two-hole-pony-full-face.svg"
   inkscape:version="1.4 (86a8ad7, 2024-10-11)"
   xmlns:inkscape="http://www.inkscape.org/namespaces/inkscape"
   xmlns:sodipodi="http://sodipodi.sourceforge.net/DTD/sodipodi-0.dtd"
   xmlns="http://www.w3.org/2000/svg"
   xmlns:svg="http://www.w3.org/2000/svg">
  <defs
     id="defs1" />
  <sodipodi:namedview
     id="namedview1"
     pagecolor="#ffffff"
     bordercolor="#000000"
     borderopacity="0.25"
     inkscape:showpageshadow="2"
     inkscape:pageopacity="0.0"
     inkscape:pagecheckerboard="0"
     inkscape:deskcolor="#d1d1d1"
     inkscape:zoom="2.766624"
     inkscape:cx="147.47215"
     inkscape:cy="147.29143"
     inkscape:window-width="1920"
     inkscape:window-height="1017"
     inkscape:window-x="-8"
     inkscape:window-y="-8"
     inkscape:window-maximized="1"
     inkscape:current-layer="g1" />
  <g
     inkscape:groupmode="layer"
     inkscape:label="Image"
     id="g1">
    <path
       style="fill:#000000"
       d="m 152.09143,271.95058 c -1.20686,-0.20875 -2.93486,-0.625 -3.84,-0.92499 -3.91622,-1.29796 -6.17355,-2.16446 -6.90069,-2.64889 -0.42862,-0.28556 -1.64467,-0.89859 -2.70232,-1.36229 -1.05766,-0.4637 -2.60336,-1.3457 -3.4349,-1.96 -0.83155,-0.6143 -2.02525,-1.37879 -2.65267,-1.69888 -0.62743,-0.32009 -1.22312,-0.71522 -1.32377,-0.87807 -0.10064,-0.16285 -1.37416,-1.1664 -2.83004,-2.23011 -3.95203,-2.8875 -9.66925,-9.05899 -12.91278,-13.93878 -0.65177,-0.98057 -1.45396,-2.09143 -1.78265,-2.46857 -0.85748,-0.98389 -2.07733,-2.8601 -2.07733,-3.19509 0,-0.15708 -0.24685,-0.50901 -0.54857,-0.78205 -0.30171,-0.27305 -0.54857,-0.61507 -0.54857,-0.76005 0,-0.14498 -0.40595,-0.83557 -0.90212,-1.53463 -1.73898,-2.45013 -2.96931,-5.4351 -4.0645,-9.8611 -1.61278,-6.5178 -2.24418,-12.35806 -1.76976,-16.36994 0.10703,-0.90514 0.24926,-2.13943 0.31605,-2.74286 0.36868,-3.33077 0.56089,-4.76232 0.93398,-6.95618 0.1632,-0.95962 0.28398,-2.37905 0.26841,-3.15429 -0.0431,-2.14571 0.19887,-6.67791 0.37142,-6.95711 0.0841,-0.13612 0.21792,-0.98018 0.2973,-1.87567 0.0794,-0.8955 0.34047,-2.35115 0.58017,-3.23478 0.23971,-0.88364 0.37115,-1.6713 0.29209,-1.75035 -0.079,-0.0791 -0.0272,-0.36154 0.11529,-0.62773 0.14246,-0.2662 0.31304,-1.03561 0.37906,-1.70981 0.12985,-1.32602 1.39706,-6.03479 2.65146,-9.8525 0.43034,-1.3097 1.1033,-3.93876 1.49547,-5.84236 0.39217,-1.90359 0.96102,-4.2263 1.26411,-5.16157 0.3031,-0.93528 0.6536,-2.62622 0.7789,-3.75765 0.12531,-1.13142 0.48501,-2.85942 0.79934,-3.84 0.31433,-0.98057 0.70014,-3.07885 0.85734,-4.66285 0.1572,-1.584 0.4064,-3.87384 0.55377,-5.08852 0.34106,-2.81128 0.34032,-5.3753 -0.002,-7.72925 -1.42495,-9.79181 -1.78477,-12.01982 -2.2489,-13.92509 -0.75811,-3.11203 -2.00249,-5.47803 -3.85808,-7.33552 -0.86742,-0.86832 -1.57714,-1.71164 -1.57714,-1.87405 0,-0.16241 -0.41411,-1.30412 -0.92023,-2.53715 -2.13589,-5.20339 -2.7111,-6.88257 -3.58668,-10.47042 -0.0736,-0.301716 -0.37783,-1.536002 -0.67601,-2.742859 -0.29817,-1.206857 -0.72863,-3.613714 -0.95658,-5.348572 -0.41918,-3.190423 -0.91422,-10.647614 -0.77383,-11.657142 0.0419,-0.301715 0.13006,-1.597715 0.1958,-2.88 0.13607,-2.654277 0.27374,-3.751184 0.68285,-5.440567 0.15838,-0.654026 0.26243,-1.332883 0.23121,-1.508571 -0.20106,-1.131409 1.93426,-8.534084 3.35285,-11.623553 0.56889,-1.23898 1.23668,-2.96698 1.48396,-3.84 0.61266,-2.162958 1.97553,-5.435518 2.8222,-6.776726 0.65489,-1.037416 2.54809,-3.153814 6.48334,-7.247699 0.9199,-0.956985 2.96855,-2.64732 4.55255,-3.7563 1.584,-1.10898 3.11858,-2.230863 3.41019,-2.493073 0.2916,-0.26221 1.71103,-0.990735 3.15428,-1.618945 1.44326,-0.628209 3.36467,-1.517496 4.26981,-1.976193 2.02091,-1.024129 7.28293,-2.681709 9.87429,-3.110481 2.09166,-0.34609 4.05088,-0.34432 12.27846,0.0111 2.98173,0.128805 5.75887,0.141035 6.17143,0.02718 0.48958,-0.135113 1.22644,-0.04078 2.12154,0.271588 0.75428,0.263232 2.976,0.996296 4.93714,1.629032 4.82916,1.558062 8.0808,3.148871 12.48,6.105627 3.00447,2.019341 4.20546,3.0364 6.36766,5.392447 5.1184,5.577289 9.20251,11.527271 10.93602,15.932283 0.62336,1.584 1.42223,3.558857 1.77529,4.388571 1.69317,3.979155 3.7276,9.469253 4.08537,11.024773 0.21878,0.951232 0.53245,3.27237 0.69704,5.158084 0.16458,1.885714 0.32135,3.613714 0.34836,3.84 0.14661,1.228044 -0.98463,10.413494 -1.61976,13.152124 -0.22804,0.983307 -0.58759,3.182113 -0.79899,4.886238 -0.23483,1.89301 -0.71337,4.02883 -1.23006,5.49002 -0.46514,1.31539 -0.99249,3.09349 -1.17189,3.95134 -0.20001,0.95639 -0.60065,1.85823 -1.03573,2.33143 -1.41119,1.53482 -4.43972,6.20622 -5.44681,8.40149 -1.01176,2.20543 -1.91151,5.44232 -2.49184,8.9645 -0.51464,3.12343 -1.07121,5.58645 -1.54952,6.85714 -0.36806,0.97781 -0.48792,2.46538 -0.57684,7.15879 l -0.11225,5.9245 0.87069,3.26407 c 0.47887,1.79524 1.28063,4.06636 1.78167,5.04693 1.84152,3.60394 2.6245,5.52554 5.25278,12.89143 0.51137,1.43314 1.09959,3.22285 1.30717,3.97714 0.20758,0.75429 0.71488,2.48229 1.12734,3.84 0.71126,2.34126 0.75353,2.79392 0.81957,8.77714 0.0383,3.46972 0.23001,7.48115 0.42603,8.91429 0.53868,3.93834 0.46783,17.2788 -0.11654,21.94286 -0.25517,2.03657 -0.5144,3.888 -0.57607,4.11428 -0.0617,0.22629 -0.24605,1.83086 -0.40973,3.56572 -0.32219,3.41495 -1.61502,8.32746 -3.53936,13.44885 -1.31108,3.48927 -5.26362,11.29925 -7.29772,14.41983 -1.77591,2.72448 -5.84345,6.91125 -8.50759,8.75694 -1.056,0.73159 -2.75016,2.02546 -3.76481,2.87528 -4.03224,3.37721 -11.48208,6.44187 -16.94376,6.97019 -0.98058,0.0949 -2.27658,0.2228 -2.88,0.28432 -0.60343,0.0615 -2.08458,-0.0589 -3.29143,-0.26769 z"
       id="path1" />
  </g>
</svg>
