<?xml version="1.0" encoding="UTF-8" standalone="no"?>
<!-- Created with Inkscape (http://www.inkscape.org/) -->

<svg
   version="1.1"
   id="svg1"
   width="294.58286"
   height="294.58286"
   viewBox="0 0 294.58286 294.58286"
   sodipodi:docname="two-hole-cheval-internals.svg"
   inkscape:version="1.4 (86a8ad7, 2024-10-11)"
   xmlns:inkscape="http://www.inkscape.org/namespaces/inkscape"
   xmlns:sodipodi="http://sodipodi.sourceforge.net/DTD/sodipodi-0.dtd"
   xmlns="http://www.w3.org/2000/svg"
   xmlns:svg="http://www.w3.org/2000/svg">
  <defs
     id="defs1" />
  <sodipodi:namedview
     id="namedview1"
     pagecolor="#ffffff"
     bordercolor="#000000"
     borderopacity="0.25"
     inkscape:showpageshadow="2"
     inkscape:pageopacity="0.0"
     inkscape:pagecheckerboard="0"
     inkscape:deskcolor="#d1d1d1"
     inkscape:zoom="2.766624"
     inkscape:cx="147.47215"
     inkscape:cy="147.29143"
     inkscape:window-width="1920"
     inkscape:window-height="1017"
     inkscape:window-x="-8"
     inkscape:window-y="-8"
     inkscape:window-maximized="1"
     inkscape:current-layer="g1" />
  <g
     inkscape:groupmode="layer"
     inkscape:label="Image"
     id="g1">
    <path
       style="fill:#000000"
       d="m 151.59271,241.86685 c -1.17981,-0.15236 -2.17072,-0.54771 -3.80087,-1.51647 -4.0641,-2.41519 -4.89751,-3.43953 -5.49128,-6.74928 -0.24799,-1.38235 -0.20199,-1.92098 0.33968,-3.97714 0.3503,-1.32973 0.95909,-2.84133 1.38086,-3.42861 0.41489,-0.57771 1.00398,-1.87371 1.30911,-2.88 0.86698,-2.85931 2.19154,-8.73886 2.51309,-11.15535 0.16059,-1.20686 0.41069,-3.02972 0.55577,-4.05081 0.14508,-1.02108 0.26379,-3.59909 0.26379,-5.72891 0,-2.12982 0.12064,-4.93553 0.2681,-6.23491 0.14746,-1.29938 0.40499,-3.84366 0.57229,-5.65394 0.1673,-1.81029 0.54175,-5.26629 0.83212,-7.68 0.29037,-2.41372 0.64569,-6.79543 0.78961,-9.73715 0.14391,-2.94171 0.37859,-6.08914 0.52151,-6.99428 0.14292,-0.90514 0.33842,-3.00343 0.43445,-4.66286 0.096,-1.65943 0.36733,-4.128 0.60289,-5.48571 0.29782,-1.71652 0.37416,-3.20116 0.2506,-4.87326 -0.15125,-2.04667 -0.11317,-2.42946 0.25576,-2.57103 0.23841,-0.0915 0.49596,-0.10385 0.57234,-0.0275 0.41218,0.41218 0.42942,5.9841 0.0252,8.15747 -0.23847,1.28229 -0.50667,3.68914 -0.59602,5.34857 -0.0893,1.65943 -0.23189,3.57257 -0.31676,4.25143 -0.0849,0.67886 -0.14846,1.41943 -0.14131,1.64572 0.007,0.22628 0.0711,3.37371 0.14218,6.99428 0.12763,6.50439 0.35591,8.51699 1.58028,13.93215 0.32506,1.43771 0.29483,1.96094 -0.31698,5.48572 -0.52907,3.04812 -0.66386,4.70258 -0.61912,7.59927 0.0562,3.63483 0.7827,10.05929 1.56647,13.85143 0.21826,1.056 0.58839,3.3336 0.82252,5.06133 0.43995,3.24669 1.24447,5.38385 3.65441,9.70788 0.77674,1.39366 0.89349,1.86027 0.89216,3.56571 -0.003,3.51881 -0.74382,4.91969 -3.55463,6.71946 -1.73774,1.11268 -3.04113,1.37952 -5.30827,1.08676 z m 1.09331,-100.8274 c -0.0598,-0.10656 -0.0476,-1.58826 0.027,-3.29267 0.11401,-2.60383 0.20351,-3.08587 0.56018,-3.01715 0.66547,0.12823 0.86665,1.45787 0.58766,3.88392 -0.14118,1.22769 -0.25762,2.24982 -0.25877,2.27139 -0.009,0.16741 -0.83102,0.30608 -0.91606,0.15451 z m -4.86606,-45.882348 c -0.31274,-0.312737 -1.11934,-1.763022 -1.79244,-3.222857 -2.43645,-5.284164 -3.35001,-6.593653 -5.28363,-7.573492 -1.4787,-0.749311 -1.68103,-1.06822 -1.68103,-2.649516 0,-1.153363 -0.66351,-3.729809 -1.66042,-6.447519 -0.83078,-2.2648 -0.6364,-2.908446 1.14921,-3.805304 3.82865,-1.923023 6.06927,-5.442746 6.11571,-9.606986 0.0183,-1.639533 0.0214,-1.645714 0.83656,-1.645714 0.72983,0 0.83589,0.1088 0.98193,1.00729 0.3005,1.848711 3.45237,6.897023 5.86446,9.393037 2.45002,2.535262 3.36332,3.112147 5.29068,3.341856 2.17331,0.259023 2.17321,0.258441 0.38079,2.174536 -0.91885,0.982253 -1.85751,2.147302 -2.08592,2.588997 -0.22841,0.441696 -1.34005,2.221375 -2.4703,3.954843 -1.13026,1.733469 -2.22951,3.683846 -2.44277,4.334172 -0.82663,2.520722 -1.22243,4.278378 -1.4089,6.256697 -0.23788,2.5237 -0.69065,3.003237 -1.79393,1.89996 z"
       id="path1" />
  </g>
</svg>
