<?xml version="1.0" encoding="UTF-8" standalone="no"?>
<!-- Created with Inkscape (http://www.inkscape.org/) -->

<svg
   version="1.1"
   id="svg1"
   width="294.58286"
   height="294.58286"
   viewBox="0 0 294.58286 294.58286"
   sodipodi:docname="two-hole-cheval-body.svg"
   inkscape:version="1.4 (86a8ad7, 2024-10-11)"
   xmlns:inkscape="http://www.inkscape.org/namespaces/inkscape"
   xmlns:sodipodi="http://sodipodi.sourceforge.net/DTD/sodipodi-0.dtd"
   xmlns="http://www.w3.org/2000/svg"
   xmlns:svg="http://www.w3.org/2000/svg">
  <defs
     id="defs1" />
  <sodipodi:namedview
     id="namedview1"
     pagecolor="#ffffff"
     bordercolor="#000000"
     borderopacity="0.25"
     inkscape:showpageshadow="2"
     inkscape:pageopacity="0.0"
     inkscape:pagecheckerboard="0"
     inkscape:deskcolor="#d1d1d1"
     inkscape:zoom="2.766624"
     inkscape:cx="147.47215"
     inkscape:cy="147.29143"
     inkscape:window-width="1920"
     inkscape:window-height="1017"
     inkscape:window-x="-8"
     inkscape:window-y="-8"
     inkscape:window-maximized="1"
     inkscape:current-layer="g1" />
  <g
     inkscape:groupmode="layer"
     inkscape:label="Image"
     id="g1">
    <path
       style="fill:#000000"
       d="m 147.03778,260.82532 c -6.09624,-0.58519 -6.39705,-0.63846 -9.34635,-1.65493 -3.29378,-1.1352 -4.92109,-1.97119 -8.36572,-4.2977 -5.45439,-3.68391 -7.69982,-5.82472 -11.42803,-10.89555 -5.88258,-8.00103 -9.91366,-17.8303 -10.79879,-26.33143 -0.0943,-0.90514 -0.35668,-2.75657 -0.58319,-4.11428 -0.40107,-2.40407 -0.62124,-14.79198 -0.2803,-15.77143 0.0788,-0.22629 0.21816,-1.09029 0.30977,-1.92 0.17049,-1.54426 0.37393,-2.67537 1.25801,-6.99429 0.27792,-1.35771 0.7694,-3.82628 1.09218,-5.48571 0.32277,-1.65943 1.03597,-4.74514 1.58488,-6.85714 l 0.99803,-3.84 -0.0942,-18.51429 c -0.0518,-10.18286 -0.17101,-21.26997 -0.26485,-24.63803 -0.0957,-3.43488 -0.0634,-6.31479 0.0737,-6.55884 0.14509,-0.25843 0.11327,-2.22679 -0.0784,-4.84768 -0.17745,-2.42693 -0.36501,-7.00869 -0.41679,-10.1817 -0.0812,-4.97514 -0.16917,-5.9566 -0.63935,-7.13143 -0.29987,-0.74928 -0.89134,-2.226319 -1.31439,-3.282319 -0.72139,-1.800724 -1.45256,-3.771377 -2.8495,-7.68 -0.97287,-2.722081 -2.52293,-12.634261 -2.46632,-15.771429 0.10839,-6.007184 0.53753,-9.45191 1.70851,-13.714285 0.51805,-1.885715 1.02758,-3.922286 1.1323,-4.525715 0.10472,-0.603428 0.76066,-2.821076 1.45764,-4.928106 1.75059,-5.292195 4.62034,-9.943085 9.23438,-14.965768 0.76633,-0.834203 1.77463,-1.94506 2.24066,-2.468572 1.89866,-2.132831 4.1221,-3.877717 6.27546,-4.924783 1.24574,-0.605738 2.37444,-1.101087 2.50823,-1.100775 0.13379,3.12e-4 1.97126,-0.873877 4.08326,-1.942642 3.61103,-1.82734 3.9872,-1.956466 6.30857,-2.165526 2.65142,-0.238783 11.64799,0.08532 14.12572,0.508877 2.32475,0.397408 7.54619,2.165305 10.28571,3.482576 5.94502,2.858601 10.7908,6.791672 16.19509,13.14472 4.0147,4.7195 5.41642,6.705283 6.92678,9.812978 3.06582,6.30818 4.37943,11.744401 5.13914,21.267782 0.21282,2.667867 0.63249,6.640382 0.93259,8.827811 1.15366,8.409081 1.40517,10.715729 1.6898,15.497143 0.16164,2.715428 0.27773,5.184003 0.25799,5.485713 -0.11977,1.83044 0.0387,10.50303 0.32331,17.69143 0.18216,4.60114 0.32956,8.79771 0.32756,9.32571 -0.005,1.40172 -0.63699,23.52687 -0.99451,34.83429 -0.16933,5.35543 -0.33891,13.06971 -0.37685,17.14286 -0.0675,7.25053 -0.0517,7.4948 0.75658,11.65714 0.91343,4.70396 1.06623,7.14276 1.06548,17.00571 -4.6e-4,6.10134 -0.0445,6.65731 -0.82454,10.4061 -0.77609,3.72981 -3.87494,13.93003 -4.96315,16.33676 -0.27284,0.60343 -0.89113,2.08457 -1.37397,3.29143 -0.48284,1.20686 -1.20499,2.62628 -1.60477,3.15428 -0.39979,0.528 -0.92206,1.26858 -1.1606,1.64572 -0.23855,0.37714 -1.50338,1.8869 -2.81073,3.35501 -2.61229,2.9335 -5.90426,5.73054 -8.50031,7.22233 -0.92355,0.5307 -1.86432,1.0759 -2.0906,1.21155 -2.56618,1.53834 -9.94857,4.13963 -13.98858,4.92908 -3.91425,0.76488 -5.16676,0.79625 -10.6765,0.26735 z"
       id="path1" />
  </g>
</svg>
