<?xml version="1.0" encoding="UTF-8" standalone="no"?>
<!-- Created with Inkscape (http://www.inkscape.org/) -->

<svg
   version="1.1"
   id="svg1"
   width="294.58286"
   height="294.58286"
   viewBox="0 0 294.58286 294.58286"
   sodipodi:docname="two-hole-cheval-anal-ring.svg"
   inkscape:version="1.4 (86a8ad7, 2024-10-11)"
   xmlns:inkscape="http://www.inkscape.org/namespaces/inkscape"
   xmlns:sodipodi="http://sodipodi.sourceforge.net/DTD/sodipodi-0.dtd"
   xmlns="http://www.w3.org/2000/svg"
   xmlns:svg="http://www.w3.org/2000/svg">
  <defs
     id="defs1" />
  <sodipodi:namedview
     id="namedview1"
     pagecolor="#ffffff"
     bordercolor="#000000"
     borderopacity="0.25"
     inkscape:showpageshadow="2"
     inkscape:pageopacity="0.0"
     inkscape:pagecheckerboard="0"
     inkscape:deskcolor="#d1d1d1"
     inkscape:zoom="2.766624"
     inkscape:cx="147.47215"
     inkscape:cy="147.29143"
     inkscape:window-width="1920"
     inkscape:window-height="1017"
     inkscape:window-x="-8"
     inkscape:window-y="-8"
     inkscape:window-maximized="1"
     inkscape:current-layer="g1" />
  <g
     inkscape:groupmode="layer"
     inkscape:label="Image"
     id="g1">
    <path
       style="fill:#000000"
       d="m 148.52571,125.44704 c -3.67572,-0.56773 -11.68335,-3.69365 -16.45354,-6.42295 -5.67023,-3.24426 -11.10267,-8.6751 -18.22485,-18.2195 -5.481,-7.345055 -8.9759,-14.398295 -9.76657,-19.71041 -0.70114,-4.710591 -0.93117,-7.830118 -0.63914,-8.667815 0.17866,-0.512507 0.18468,-1.125701 0.017,-1.732933 -0.16058,-0.581594 -0.16216,-1.113665 -0.004,-1.396039 0.14043,-0.250949 0.30455,-1.41181 0.3647,-2.57969 0.0601,-1.16788 0.24296,-2.555418 0.40623,-3.083418 0.16328,-0.528 0.46985,-1.700571 0.68126,-2.605714 0.21141,-0.905143 0.52155,-2.139429 0.68919,-2.742857 0.16764,-0.603429 0.49239,-1.946044 0.72166,-2.983591 1.50717,-6.820624 5.07576,-13.318076 10.64343,-19.378855 0.76633,-0.834203 1.77463,-1.94506 2.24066,-2.468572 2.43665,-2.737172 5.87869,-5.161414 8.34124,-5.874771 0.37714,-0.109252 2.3777,-1.054377 4.44569,-2.100277 4.53626,-2.294253 5.90002,-2.54991 12.28573,-2.303153 6.20644,0.239829 9.0843,0.62393 12.55685,1.675932 9.69081,2.935811 17.4872,9.061817 26.21326,20.597033 2.9029,3.837429 6.40378,12.302753 7.01829,16.970658 0.15743,1.195792 0.40141,2.976453 0.54218,3.957024 0.14077,0.980572 0.33646,3.140572 0.43487,4.8 0.0984,1.659429 0.42211,4.733943 0.71934,6.832254 0.53744,3.794136 0.53744,3.828067 0.001,6.171429 -0.29665,1.295974 -0.62536,3.035174 -0.73048,3.864889 -0.10511,0.829714 -0.73775,3.149074 -1.40586,5.154133 -3.25992,9.783223 -7.26704,15.566373 -15.45235,22.301103 -3.06004,2.51775 -9.1688,6.34418 -11.75681,7.36428 -4.18337,1.64893 -11.3289,2.97721 -13.88891,2.58181 z m 0.52467,-30.887041 c 0.068,-0.339428 0.26404,-1.400313 0.43559,-2.357521 0.94881,-5.294204 4.53257,-11.692906 8.71225,-15.555473 l 1.79798,-1.661566 -2.1063,-0.768211 c -2.12247,-0.774105 -4.45035,-2.345584 -5.72355,-3.863777 -0.93153,-1.11078 -5.09826,-7.364211 -5.97955,-8.974117 l -0.70888,-1.294952 -0.33163,1.605565 c -0.18239,0.88306 -0.6368,2.055273 -1.0098,2.604918 -0.373,0.549645 -0.75921,1.335583 -0.85824,1.74653 -0.64936,2.694504 -3.03421,5.555755 -5.46327,6.554625 -0.67025,0.275617 -1.2191,0.64943 -1.21967,0.830694 -5.6e-4,0.181265 0.43894,1.33023 0.97667,2.553257 0.96026,2.184026 1.751,5.167302 1.7604,6.641556 0.003,0.535984 0.21907,0.858064 0.76279,1.139231 1.17132,0.605715 3.49269,3.208289 4.32283,4.846488 0.41142,0.811898 1.05156,2.282577 1.42254,3.268175 0.9477,2.517815 2.91371,4.162109 3.20984,2.684578 z"
       id="path1" />
  </g>
</svg>
