<?xml version="1.0" encoding="UTF-8" standalone="no"?>
<!-- Created with Inkscape (http://www.inkscape.org/) -->

<svg
   version="1.1"
   id="svg1"
   width="294.58286"
   height="294.58286"
   viewBox="0 0 294.58286 294.58286"
   sodipodi:docname="two-hole-canine-body.svg"
   inkscape:version="1.4 (86a8ad7, 2024-10-11)"
   xmlns="http://www.w3.org/2000/svg"
   xmlns:inkscape="http://www.inkscape.org/namespaces/inkscape"
   xmlns:sodipodi="http://sodipodi.sourceforge.net/DTD/sodipodi-0.dtd">
  <sodipodi:namedview
     inkscape:zoom="2.766624"
     inkscape:cx="167.71343"
     inkscape:cy="147.47215"
     inkscape:window-width="1161"
     inkscape:window-height="1008"
     inkscape:window-x="750"
     inkscape:window-y="0"
     inkscape:window-maximized="0"
     inkscape:current-layer="g1"
     id="namedview1"
     pagecolor="#ffffff"
     bordercolor="#000000"
     borderopacity="0.25"
     inkscape:showpageshadow="2"
     inkscape:pageopacity="0.0"
     inkscape:pagecheckerboard="0"
     inkscape:deskcolor="#d1d1d1" />
  <g
     inkscape:groupmode="layer"
     inkscape:label="Image"
     id="g1">
    <path
       style="fill:#000000;fill-opacity:1;stroke:none"
       d="m 143.04,266.40592 c -4.36776,-0.67756 -5.1192,-0.95401 -6.92736,-2.54852 -2.12266,-1.87185 -3.56306,-3.95318 -4.18794,-6.05143 -0.47424,-1.59241 -3.39409,-8.15567 -4.50482,-10.12597 -0.21261,-0.37714 -1.03008,-1.85829 -1.81661,-3.29143 -1.61898,-2.94999 -2.79063,-4.60929 -5.61656,-7.95429 -8.35689,-9.89184 -15.45498,-26.40141 -14.79483,-34.41152 l 0.16497,-2.00174 -1.4187,-1.8848 c -0.78029,-1.03663 -1.63406,-2.37851 -1.89728,-2.98194 -0.26322,-0.60342 -0.85048,-1.89942 -1.30501,-2.88 -0.45454,-0.98057 -0.903173,-2.33828 -0.996965,-3.01714 -0.258798,-1.87317 0.837645,-19.89541 1.451785,-23.86286 l 0.23351,-1.50857 -1.03083,-0.88237 c -2.035953,-1.74274 -2.146539,-2.47259 -1.69491,-11.1862 0.265133,-5.11542 1.155586,-11.32146 1.96214,-13.6752 0.24168,-0.70528 0.14863,-0.92505 -0.929084,-2.19429 -1.513582,-1.78257 -3.060737,-4.85204 -3.40761,-6.76049 -0.302144,-1.66236 -0.09823,-2.68319 1.342073,-6.71859 0.750677,-2.10323 0.868525,-2.77302 0.796279,-4.52571 -0.144947,-3.51644 -0.06278,-8.38501 0.254611,-15.08572 0.16792,-3.545141 0.297882,-7.803245 0.288803,-9.462452 -0.01514,-2.766414 -0.06946,-3.073674 -0.654714,-3.702858 -0.964328,-1.03672 -1.29952,-1.848903 -1.29952,-3.148785 0,-1.414247 0.423277,-2.288971 2.10902,-4.358397 1.368442,-1.679912 2.807162,-5.110941 3.063012,-7.304648 0.13456,-1.153775 1.51784,-4.964962 2.05446,-5.660406 0.13234,-0.171508 0.59185,-1.282365 1.02115,-2.468571 0.65639,-1.813708 0.74967,-2.390038 0.58647,-3.623572 -0.22694,-1.715227 0.0965,-4.128648 0.71714,-5.351847 0.24038,-0.473725 0.85369,-1.375806 1.3629,-2.004623 0.6624,-0.817973 0.92585,-1.419924 0.92585,-2.115425 0,-1.423255 0.95873,-3.749396 2.0901,-5.071144 1.19249,-1.393168 3.30885,-2.518655 5.17572,-2.752478 1.49835,-0.187666 1.49363,-0.177825 1.09066,-2.274187 -0.10717,-0.557525 -0.11629,-1.32669 -0.0203,-1.709256 0.28072,-1.118448 1.69795,-2.50886 3.22831,-3.167201 1.22972,-0.529011 1.69846,-0.585823 3.49914,-0.424101 2.6838,0.241036 7.65966,0.276643 7.87991,0.05639 0.0938,-0.09378 0.19311,-0.390408 0.22074,-0.659182 0.16798,-1.634201 2.07573,-3.642967 3.45977,-3.642967 0.95945,0 2.42846,0.566005 3.02985,1.167397 0.62103,0.621028 1.82962,0.291494 2.30542,-0.628596 0.66515,-1.286257 1.69904,-1.910229 3.16517,-1.910229 1.64628,0 2.68939,0.803627 3.50548,2.700682 0.66003,1.534285 1.03996,1.687889 4.17493,1.687889 1.02728,0 2.77071,0.185991 3.87429,0.413313 1.74276,0.358987 2.14629,0.560803 3.07001,1.535403 l 1.06351,1.12209 -0.13811,1.930142 c -0.10538,1.472942 -0.0324,2.115887 0.30793,2.714292 0.51093,0.898267 0.43899,0.887561 2.70165,0.402061 2.72323,-0.584325 4.52201,-0.04105 5.60155,1.6918 0.45073,0.72349 0.54066,1.258418 0.46973,2.793875 -0.0482,1.044483 0.006,1.993128 0.12131,2.108101 0.11497,0.114974 1.18649,0.221658 2.38116,0.237077 1.65525,0.02136 2.2983,0.142233 2.70242,0.507956 0.76722,0.694327 1.24595,2.673804 1.03367,4.274071 -0.16324,1.230552 -0.10703,1.437754 0.61406,2.263609 0.43655,0.499987 1.13241,1.587924 1.54635,2.417639 0.41395,0.829714 1.02687,1.878857 1.36207,2.331428 0.33519,0.452572 0.96536,1.44 1.40037,2.194286 0.43501,0.754286 1.50173,2.334722 2.37048,3.512081 0.86876,1.177359 1.70668,2.596788 1.86206,3.154286 1.25782,4.513146 2.52764,10.001165 2.98593,12.90483 0.29275,1.854867 0.41754,2.113337 1.55322,3.217093 0.67919,0.6601 1.35626,1.519382 1.50459,1.909516 0.72067,1.895515 -0.0396,4.440717 -1.52931,5.119454 -0.59034,0.268977 -0.66938,0.433049 -0.4928,1.022978 0.23952,0.800231 0.30352,10.981838 0.0975,15.514048 -0.12367,2.72073 -0.0732,3.17769 0.51393,4.65129 0.57355,1.43959 0.63572,1.95288 0.52215,4.31138 -0.11199,2.32561 -0.22598,2.82391 -0.86793,3.79396 -0.40645,0.61419 -1.03683,1.25241 -1.40083,1.41826 -0.364,0.16585 -0.70386,0.50035 -0.75525,0.74333 -0.11813,0.55857 1.01646,3.41726 1.75013,4.40962 0.83766,1.13298 1.07227,3.83945 0.64869,7.48333 -0.33381,2.87169 -0.32399,3.14311 0.1415,3.90883 0.53237,0.87575 1.6314,4.77156 1.85082,6.56077 0.19744,1.60992 -0.40693,3.83076 -1.47401,5.41642 l -0.95034,1.4122 0.58148,1.67102 c 1.13294,3.25577 1.43583,5.14492 1.49924,9.35102 0.0341,2.26285 0.14173,5.04 0.23915,6.17143 0.25381,2.94748 -0.19067,4.81362 -1.44537,6.06832 l -1.00066,1.00065 0.14975,2.01549 c 0.0824,1.10851 0.055,2.99513 -0.0607,4.19247 -0.26813,2.77361 -2.14781,8.61579 -3.37536,10.49085 -0.87011,1.32909 -0.90622,1.47651 -0.60463,2.46857 0.19745,0.64949 0.30286,2.7421 0.27422,5.44365 -0.0371,3.49519 -0.15719,4.7515 -0.59016,6.17142 -0.299,0.98058 -0.90598,3.01715 -1.34884,4.52572 -1.64502,5.60363 -5.20839,12.31794 -9.71131,18.29861 -4.88725,6.49113 -5.30174,7.03148 -8.27017,10.78138 -0.95783,1.21 -2.39079,3.24657 -3.18434,4.52572 -0.79356,1.27914 -1.96166,2.88115 -2.59578,3.56 -1.14995,1.23108 -1.85665,2.2148 -3.78076,5.26279 -3.18333,5.04273 -5.80287,7.09015 -10.02169,7.83288 -0.7174,0.1263 -1.55122,0.19134 -1.85293,0.14454 z"
       id="path2" />
  </g>
</svg>