<?xml version="1.0" encoding="UTF-8" standalone="no"?>
<!-- Created with Inkscape (http://www.inkscape.org/) -->

<svg
   version="1.1"
   id="svg1"
   width="294.58286"
   height="294.58286"
   viewBox="0 0 294.58286 294.58286"
   sodipodi:docname="deer-inserts.svg"
   inkscape:version="1.4 (86a8ad7, 2024-10-11)"
   xmlns:inkscape="http://www.inkscape.org/namespaces/inkscape"
   xmlns:sodipodi="http://sodipodi.sourceforge.net/DTD/sodipodi-0.dtd"
   xmlns:xlink="http://www.w3.org/1999/xlink"
   xmlns="http://www.w3.org/2000/svg"
   xmlns:svg="http://www.w3.org/2000/svg">
  <defs
     id="defs1">
    <linearGradient
       id="linearGradient1"
       inkscape:collect="always">
      <stop
         style="stop-color:#000000;stop-opacity:0;"
         offset="0.16812228"
         id="stop2" />
      <stop
         style="stop-color:#000000;stop-opacity:1;"
         offset="0.6419214"
         id="stop1" />
    </linearGradient>
    <linearGradient
       inkscape:collect="always"
       xlink:href="#linearGradient1"
       id="linearGradient2"
       x1="33.047003"
       y1="175.4204"
       x2="265.85576"
       y2="175.4204"
       gradientUnits="userSpaceOnUse" />
  </defs>
  <sodipodi:namedview
     id="namedview1"
     pagecolor="#ffffff"
     bordercolor="#000000"
     borderopacity="0.25"
     inkscape:showpageshadow="2"
     inkscape:pageopacity="0.0"
     inkscape:pagecheckerboard="0"
     inkscape:deskcolor="#d1d1d1"
     inkscape:zoom="2.766624"
     inkscape:cx="147.47215"
     inkscape:cy="147.29143"
     inkscape:window-width="1920"
     inkscape:window-height="1017"
     inkscape:window-x="-8"
     inkscape:window-y="-8"
     inkscape:window-maximized="1"
     inkscape:current-layer="g1" />
  <g
     inkscape:groupmode="layer"
     inkscape:label="Image"
     id="g1">
    <path
       style="fill:url(#linearGradient2)"
       d="m 252.89143,227.74063 c -0.37715,-0.0748 -0.80915,-0.23129 -0.96,-0.34768 -0.15086,-0.1164 -1.53013,-0.60576 -3.06504,-1.08746 -2.18527,-0.6858 -2.89467,-1.03441 -3.26968,-1.60675 -0.26341,-0.402 -1.02417,-1.31384 -1.69059,-2.02629 -0.98718,-1.05538 -1.48797,-1.35721 -2.70309,-1.62914 -1.26209,-0.28244 -1.76123,-0.59961 -3.24595,-2.06257 -0.96498,-0.95085 -1.83668,-2.0105 -1.9371,-2.35478 -0.10043,-0.34428 -0.53969,-1.36653 -0.97615,-2.27168 -0.64291,-1.33328 -0.82543,-2.15341 -0.96144,-4.32 -0.10291,-1.63945 -0.28322,-2.67428 -0.46597,-2.67428 -0.16396,0 -0.88378,-0.40114 -1.59962,-0.89143 -0.96072,-0.65801 -1.34548,-1.12187 -1.46946,-1.77151 -0.33402,-1.75038 -2.95963,-2.7707 -5.08448,-1.97586 -3.00963,1.1258 -5.94473,0.90376 -9.20289,-0.69623 -3.23107,-1.58668 -4.56908,-3.21928 -5.23862,-6.39204 -0.55377,-2.6241 -1.56673,-4.41183 -2.78478,-4.91474 -0.55754,-0.23019 -1.23254,-0.61307 -1.49999,-0.85084 -0.44968,-0.39977 -0.9279,-0.21154 -6.35547,2.50157 -6.25671,3.12757 -9.30042,4.18143 -11.23076,3.88853 -1.19843,-0.18185 -4.92534,-1.82544 -5.21987,-2.302 -0.10529,-0.17036 -0.38114,-0.30974 -0.613,-0.30974 -0.55999,0 -4.39346,-1.82719 -4.62732,-2.20557 -0.71951,-1.16419 -3.84181,-0.48278 -5.53186,1.20727 -1.16086,1.16086 -1.15223,1.15783 -4.33544,1.52244 -3.16992,0.36309 -5.18916,-0.10743 -7.33704,-1.70968 -0.49034,-0.36578 -1.44696,-0.97017 -2.12582,-1.34309 -0.67886,-0.37291 -1.91314,-1.05891 -2.74286,-1.52442 -0.82971,-0.46552 -2.48379,-1.2313 -3.67573,-1.70173 l -2.16717,-0.85533 -0.84998,0.8023 c -0.90143,0.85087 -1.43748,1.167 -4.27855,2.5232 -0.98057,0.46808 -2.37024,1.22703 -3.08815,1.68656 -0.98187,0.62849 -1.89934,0.92347 -3.70285,1.19051 -2.33595,0.34587 -2.48921,0.33335 -5.96328,-0.48731 l -3.56572,-0.84231 -2.05545,-2.1814 c -2.85031,-3.02495 -3.89814,-3.69574 -6.13036,-3.92444 -1.43801,-0.14733 -1.89218,-0.30916 -2.20424,-0.78543 -0.3757,-0.57338 -0.47828,-0.58688 -2.32319,-0.30572 -1.74646,0.26616 -2.10778,0.43942 -3.79701,1.82073 -2.89185,2.3647 -4.89576,3.45546 -6.98302,3.80098 -1.30781,0.21648 -2.04472,0.21839 -2.60142,0.007 -0.56515,-0.21487 -1.08997,-0.20761 -1.92675,0.0267 -0.95781,0.26817 -1.29532,0.24951 -2.019227,-0.11162 -0.810069,-0.40412 -0.94061,-0.39718 -1.919178,0.10205 -2.120442,1.08177 -8.300004,1.31802 -9.798075,0.37459 -0.338286,-0.21304 -1.202286,-0.46223 -1.92,-0.55374 -1.016883,-0.12967 -1.54898,-0.40061 -2.41052,-1.22743 -1.021714,-0.98053 -1.174918,-1.04114 -2.019497,-0.79892 -0.918913,0.26354 -3.594972,-0.13666 -5.333379,-0.7976 -1.484022,-0.56422 -4.878971,1.3398 -6.098077,3.42005 -0.621547,1.06059 -0.795543,1.1724 -2.092092,1.34439 -0.777789,0.10318 -1.731748,0.40853 -2.119908,0.67856 -0.38816,0.27003 -1.013285,0.5677 -1.389166,0.66148 -0.753183,0.18793 -4.266568,-0.26267 -4.976829,-0.63828 -0.246851,-0.13055 -1.23428,-0.3221 -2.194286,-0.42568 -1.156301,-0.12476 -2.024718,-0.3965 -2.572783,-0.80507 -0.455025,-0.3392 -1.38074,-0.7051 -2.057143,-0.81311 -0.676404,-0.10801 -1.855611,-0.37289 -2.620462,-0.58862 -0.76485,-0.21574 -2.161836,-0.42081 -3.104412,-0.45571 -1.627172,-0.0602 -1.750948,-0.019 -2.449363,0.81729 -0.59672,0.71448 -1.00792,0.91539 -2.178142,1.06425 -0.869004,0.11054 -1.944036,0.50152 -2.703846,0.98338 -1.447411,0.91792 -3.534788,1.39513 -5.045684,1.15353 -1.254628,-0.20062 -1.435336,-0.75123 -1.064251,-3.24269 0.485342,-3.25858 0.687001,-14.03098 0.320642,-17.12832 -0.189369,-1.60099 -0.274151,-3.4837 -0.188404,-4.18379 0.140766,-1.1493 0.236428,-1.289 0.985202,-1.43876 1.421405,-0.28428 2.919095,0.13285 5.881666,1.63815 3.583252,1.82067 4.519864,1.96996 7.371515,1.17495 2.917143,-0.81327 4.028121,-0.76383 5.446195,0.2424 0.953154,0.67633 1.269508,0.76811 1.959519,0.56847 0.452572,-0.13094 1.398382,-0.16368 2.1018,-0.0727 1.358212,0.17558 2.070586,-0.065 3.246772,-1.09655 0.377143,-0.33076 1.375778,-0.80951 2.219188,-1.06388 1.461625,-0.44083 1.603706,-0.43834 3.032399,0.0532 0.824408,0.28363 2.00025,0.6004 2.612984,0.70392 0.743612,0.12563 1.40897,0.49249 2.000953,1.10326 0.644387,0.66484 1.227854,0.96617 2.133854,1.10204 0.685829,0.10284 1.444821,0.29515 1.686649,0.42734 0.241828,0.13219 1.05683,0.36393 1.811116,0.51496 1.195333,0.23936 1.466855,0.20556 2.114607,-0.2632 0.408749,-0.2958 0.918207,-0.53781 1.13213,-0.53781 0.213922,0 0.542605,-0.18515 0.730405,-0.41143 0.187801,-0.22629 0.56373,-0.41143 0.835398,-0.41143 0.271668,0 0.84284,-0.29318 1.269272,-0.65151 0.595909,-0.50075 1.25138,-0.69619 2.832473,-0.84457 1.131429,-0.10618 2.525021,-0.31282 3.096871,-0.45921 1.256909,-0.32174 4.698796,0.51521 6.228843,1.51465 2.827013,1.84662 2.663544,1.8567 3.99283,-0.24628 0.605157,-0.95739 0.942714,-1.23308 1.509781,-1.23308 0.401699,0 1.91498,-0.37582 3.36284,-0.83516 l 2.63249,-0.83516 2.41103,0.73617 c 2.73672,0.83561 2.91641,0.96268 3.89446,2.75395 0.80806,1.47995 1.64437,1.86093 3.51477,1.60114 0.86239,-0.11978 1.30376,-0.36528 1.72808,-0.96119 0.56763,-0.79716 2.29011,-1.49875 3.05006,-1.24234 0.20473,0.0691 1.91509,0.25842 3.8008,0.42076 4.36082,0.37542 7.81187,1.30346 9.38405,2.52354 0.64677,0.50191 1.21411,0.99618 1.26074,1.09837 0.0466,0.10219 0.43121,0.065 0.8546,-0.0826 0.55836,-0.19464 1.25082,-0.14684 2.52093,0.17404 0.96311,0.24332 2.1214,0.41292 2.57397,0.37689 0.95906,-0.0764 2.28657,-0.0668 3.86499,0.0278 2.63115,0.15769 3.87704,-0.23549 5.65234,-1.78378 1.81613,-1.5839 2.76476,-1.90548 4.46185,-1.51252 0.59827,0.13853 1.21542,0.1516 1.37143,0.0291 0.15602,-0.12256 0.93211,-0.37484 1.72464,-0.56063 1.04301,-0.24451 1.59377,-0.55238 1.99424,-1.11479 1.21892,-1.71181 5.31571,-1.64851 8.89696,0.13745 1.06188,0.52956 2.44784,1.09041 3.0799,1.24634 1.11612,0.27533 1.36004,0.48077 3.69499,3.11193 0.91764,1.03405 0.99706,1.06379 3.53299,1.32287 1.61139,0.16462 2.98119,0.4704 3.61561,0.8071 0.78391,0.41604 1.14654,0.47507 1.55975,0.25393 0.29611,-0.15847 1.49811,-0.42161 2.67112,-0.58477 1.70959,-0.23778 2.31095,-0.4531 3.03094,-1.08526 0.494,-0.43374 1.42438,-0.92828 2.0675,-1.09897 1.31448,-0.34888 2.4036,-1.21944 2.4036,-1.92124 0,-0.67295 0.42628,-0.91602 2.82868,-1.61296 2.22767,-0.64626 3.42675,-0.61806 4.84213,0.11386 0.38251,0.1978 1.41379,0.44939 2.29173,0.55908 1.0029,0.12531 1.86942,0.42268 2.33114,0.8 0.40419,0.3303 1.47547,1.01023 2.38061,1.51095 0.90514,0.50072 2.09319,1.3118 2.64011,1.8024 1.93624,1.73686 3.17315,2.24591 6.20035,2.55176 2.20581,0.22286 3.32078,0.20003 5.21143,-0.10668 2.48707,-0.40347 3.78604,-0.31806 5.07369,0.33363 0.83917,0.42471 2.95442,3.0794 2.95442,3.70787 0,0.50025 1.031,1.47555 1.80805,1.71036 1.13889,0.34416 1.78532,1.41352 2.31235,3.82526 0.53662,2.45562 1.10346,3.62691 1.86985,3.86379 0.25051,0.0774 1.38118,0.33349 2.51261,0.56904 1.13143,0.23554 2.60146,0.69129 3.26674,1.01278 0.76633,0.37031 1.64584,0.56357 2.4,0.52737 1.69506,-0.0814 2.33065,-0.0859 3.1104,-0.0224 0.82293,0.067 4.50872,-1.24056 5.52061,-1.95853 0.39634,-0.28121 2.01061,-1.13849 3.58727,-1.90505 3.82494,-1.85967 3.90539,-1.83501 5.37077,1.64618 0.62424,1.48297 1.32529,3.48074 1.55788,4.4395 0.38813,1.59994 1.59393,10.6145 1.59065,11.89176 -0.008,2.98722 -2.20312,10.15147 -4.53887,14.81143 -1.76708,3.52542 -5.41073,5.75594 -8.42545,5.15777 z M 33.966178,156.43515 c -0.596455,-0.16134 -0.906119,-3.8099 -0.554898,-6.53801 0.139114,-1.08057 0.153656,-4.2584 0.03326,-7.26857 -0.364565,-9.11495 -0.390421,-10.92841 -0.15911,-11.15942 0.123055,-0.12289 1.049254,-0.2094 2.05822,-0.19225 1.335628,0.0227 2.168438,0.20384 3.06256,0.66611 1.065595,0.55092 1.681693,0.64299 4.656647,0.69593 2.464734,0.0439 3.724403,0.18813 4.480907,0.51322 0.977577,0.42008 1.13645,0.42008 2.236391,1e-5 1.102105,-0.4209 1.295046,-0.42036 2.787665,0.008 0.881984,0.25303 1.89434,0.64691 2.249679,0.87529 0.536668,0.34493 0.859895,0.3614 1.908784,0.0973 1.029069,-0.25912 1.755896,-0.23132 3.928094,0.15023 l 2.665381,0.46819 1.830033,-0.88261 c 1.895023,-0.91395 3.027556,-1.11546 4.301015,-0.76526 0.596709,0.16409 0.919374,0.0492 1.645714,-0.58598 0.496914,-0.43454 1.307579,-0.87799 1.801479,-0.98544 0.493899,-0.10744 1.248163,-0.48999 1.676142,-0.85011 1.369764,-1.15258 2.470542,-1.37953 7.57443,-1.56161 1.398622,-0.0499 2.304136,0.31762 2.713034,1.10111 0.21537,0.41267 0.865615,1.27565 1.444988,1.91773 1.009699,1.11897 1.093238,1.15581 2.013406,0.88775 1.172542,-0.34158 2.257128,-0.13435 3.704587,0.70782 0.60438,0.35165 2.147237,0.88467 3.428572,1.18449 1.281334,0.29982 3.40811,1.05148 4.726172,1.67036 1.77111,0.83161 2.52264,1.05882 2.88,0.8707 0.26594,-0.13999 1.50304,-0.34328 2.74912,-0.45175 1.98092,-0.17245 2.33493,-0.28538 2.81739,-0.89872 0.30349,-0.38582 0.62784,-1.02086 0.7208,-1.41121 0.26096,-1.0959 0.59278,-1.36657 2.25496,-1.83944 0.84769,-0.24115 1.91154,-0.7868 2.36411,-1.21254 0.45257,-0.42574 1.16442,-0.85824 1.58187,-0.96112 0.41746,-0.10287 1.34317,-0.70921 2.05715,-1.34742 2.11396,-1.88964 3.82932,-1.90004 4.44749,-0.027 0.41582,1.25992 0.75925,1.41676 3.57064,1.63068 3.94157,0.2999 7.23342,0.77692 7.99327,1.15828 0.39858,0.20004 1.1232,0.86688 1.61027,1.48185 0.48707,0.61497 1.27181,1.27973 1.74387,1.47724 0.77016,0.32222 0.98483,0.29275 2.0904,-0.28702 0.67766,-0.35537 1.44226,-0.64613 1.6991,-0.64613 0.25685,0 1.07448,0.61715 1.81696,1.37143 0.76813,0.78033 1.59782,1.37143 1.92501,1.37143 0.31627,0 1.04248,-0.48056 1.61379,-1.06792 0.75664,-0.77789 1.35521,-1.11963 2.20396,-1.25831 0.97498,-0.15931 1.40767,-0.46259 2.65048,-1.85779 1.40217,-1.57411 1.55446,-1.66741 2.72174,-1.66741 0.68006,0 1.53828,0.19775 1.90715,0.43945 0.64468,0.42241 0.70279,0.40556 1.49866,-0.43429 0.45538,-0.48055 0.99439,-1.34766 1.19779,-1.9269 0.2034,-0.57924 0.59663,-1.17455 0.87384,-1.32291 0.6619,-0.35424 2.00287,0.11286 2.96198,1.03174 l 0.72956,0.69896 0.92394,-0.78651 c 1.91937,-1.63386 3.7566,-2.37643 5.17685,-2.09238 0.62211,0.12442 0.78949,0.33385 0.92104,1.15245 0.24512,1.52525 2.27774,2.63711 3.97125,2.17228 1.65569,-0.45444 2.94848,-0.0287 4.09124,1.34722 0.56453,0.67973 1.4165,1.68529 1.89327,2.23456 l 0.86685,0.99869 0.59615,-0.5395 c 0.7115,-0.64391 2.52244,-0.6876 3.2328,-0.078 0.2594,0.22261 1.08713,0.60131 1.8394,0.84157 1.24245,0.3968 1.41131,0.39742 1.84306,0.007 0.26141,-0.23658 0.96701,-0.44303 1.56799,-0.45879 0.85347,-0.0224 1.27325,0.14433 1.91737,0.76143 l 0.82468,0.79009 0.80246,-0.85905 c 0.44136,-0.47247 0.88167,-1.28119 0.97846,-1.79715 0.20183,-1.07582 0.68169,-1.34692 1.95977,-1.10715 0.81853,0.15356 0.97641,0.0668 1.70244,-0.93546 0.44014,-0.60759 1.19715,-2.15631 1.68225,-3.44161 0.90842,-2.40689 0.94736,-2.44497 2.82293,-2.7608 0.63437,-0.10683 1.25717,-0.46174 1.66891,-0.95107 0.36128,-0.42935 0.92095,-0.86446 1.24373,-0.9669 0.60025,-0.19052 2.52104,0.53602 2.52104,0.95357 0,0.12211 0.37135,0.0368 0.82523,-0.18967 1.15806,-0.57771 2.28578,-0.2514 3.35428,0.97058 0.5041,0.57652 1.44264,1.22788 2.14956,1.49184 0.94061,0.35122 1.40607,0.73772 1.85905,1.54369 0.33235,0.59134 1.00947,1.32558 1.50471,1.63166 0.77523,0.47912 1.03933,0.51387 1.89943,0.24989 0.90593,-0.27804 1.16136,-0.22333 2.74168,0.58722 l 1.74267,0.89382 1.35598,-0.46019 c 1.87163,-0.63518 2.35293,-1.11045 2.01763,-1.99235 -0.3738,-0.98318 -0.0855,-1.62771 0.87833,-1.96371 1.39305,-0.48562 3.31734,0.0972 4.96521,1.50376 1.52505,1.30176 1.94963,1.34919 3.23195,0.36105 1.07956,-0.83189 1.80033,-1.05739 4.65505,-1.45639 1.46862,-0.20527 2.96604,-0.55885 3.32759,-0.78573 0.99742,-0.62592 5.73659,-1.38403 6.84939,-1.09568 1.51111,0.39157 1.63376,2.08191 0.49278,6.79141 l -0.53162,2.19429 1.36298,1.28249 c 0.74963,0.70537 1.53999,1.63108 1.75636,2.05714 0.54961,1.08229 0.79762,3.08013 0.58312,4.69718 l -0.18159,1.36889 -1.74915,0.18732 c -1.57936,0.16914 -1.83015,0.28507 -2.58359,1.19429 -0.45895,0.55383 -1.0277,1.66732 -1.26389,2.47441 -0.46611,1.59271 -1.19465,2.52175 -1.95171,2.48884 -0.264,-0.0115 -0.912,-0.17686 -1.44,-0.36751 -0.8638,-0.3119 -1.07509,-0.2824 -2.1085,0.29436 -0.63168,0.35255 -1.777,0.77578 -2.54515,0.94052 -0.76816,0.16474 -1.77186,0.61525 -2.23045,1.00112 -0.95728,0.8055 -1.47631,0.83891 -4.49876,0.28953 -3.02441,-0.54974 -4.36871,-1.2165 -6.71719,-3.33168 -1.93875,-1.74614 -2.04124,-1.80046 -2.54199,-1.34729 -0.30567,0.27663 -0.96428,0.4722 -1.59021,0.4722 -0.89202,0 -1.24657,-0.1854 -2.14745,-1.12294 -1.48928,-1.5499 -3.04468,-2.22899 -5.63121,-2.45859 -1.9976,-0.17733 -2.23355,-0.26405 -2.95557,-1.08639 -0.43156,-0.49152 -1.14428,-1.01904 -1.58382,-1.17227 -0.69072,-0.24079 -0.97146,-0.16446 -2.0689,0.56245 -0.69835,0.46257 -1.47515,1.16324 -1.72621,1.55705 -0.25107,0.39381 -0.67534,0.8778 -0.94282,1.07553 -0.26748,0.19773 -0.66942,0.71355 -0.89319,1.14627 -0.52403,1.01337 -1.2323,1.22333 -2.43356,0.72141 -0.85868,-0.35878 -1.00258,-0.35601 -1.31911,0.0254 -0.19541,0.23545 -0.85669,0.64302 -1.46952,0.90571 -0.61283,0.26269 -1.6839,0.97066 -2.38015,1.57326 -1.3065,1.13077 -1.59216,1.22257 -5.29053,1.70018 -2.04472,0.26406 -3.31251,0.13805 -5.48571,-0.54525 -0.15086,-0.0474 -0.8173,0.0687 -1.48099,0.25811 -1.58668,0.45278 -2.80213,-0.001 -5.38166,-2.00964 -1.05297,-0.81989 -2.25954,-1.76028 -2.68127,-2.08975 -0.68891,-0.5382 -0.81426,-0.55705 -1.23429,-0.18564 -0.29061,0.25697 -1.34966,0.4857 -2.79893,0.60451 -1.74717,0.14323 -2.57201,0.34931 -3.29143,0.82236 -1.19845,0.78803 -2.55627,1.02619 -3.97633,0.69745 -0.98961,-0.2291 -1.16999,-0.18325 -1.85293,0.47105 -0.96685,0.9263 -2.78062,0.9744 -4.68559,0.12424 -1.22459,-0.54651 -1.388,-0.55996 -2.13154,-0.17547 -0.4429,0.22904 -2.22759,0.58071 -3.96598,0.7815 -3.54437,0.40938 -4.31385,0.82727 -4.63041,2.5147 -0.20631,1.09971 -0.96419,1.59475 -2.06973,1.35193 -0.5925,-0.13014 -0.83381,-0.37777 -0.96932,-0.99471 -0.21076,-0.95962 -0.83035,-1.26145 -3.42103,-1.66657 -1.39234,-0.21773 -1.93305,-0.44486 -2.46857,-1.03693 -1.03646,-1.14591 -2.73207,-1.91362 -3.5491,-1.60689 -0.78802,0.29583 -2.1676,0.0538 -2.78383,-0.48832 -0.38162,-0.33574 -0.66628,-0.20892 -2.28972,1.02005 -2.37811,1.80028 -3.16516,2.0173 -5.40293,1.48978 -0.96022,-0.22635 -2.0554,-0.41338 -2.43375,-0.41561 -0.37834,-0.002 -1.26218,-0.30976 -1.96408,-0.68342 l -1.27618,-0.67936 -1.60164,0.54697 c -0.88089,0.30083 -1.91399,0.77537 -2.29576,1.05453 -1.25223,0.91566 -2.84914,1.60187 -4.17917,1.79585 -0.71917,0.10488 -1.84003,0.42622 -2.4908,0.71409 l -1.18321,0.52339 -2.99492,-0.7655 c -1.82031,-0.46527 -3.98999,-1.27016 -5.53208,-2.05224 -2.831415,-1.43598 -4.814862,-1.84144 -9.378558,-1.91721 -2.270951,-0.0377 -2.988116,0.0742 -5.364273,0.83719 -1.508571,0.4844 -3.460351,1.33052 -4.337288,1.88029 -2.011801,1.26122 -3.491739,1.35092 -5.676208,0.34401 -0.828577,-0.38192 -2.202285,-0.90586 -3.052686,-1.16431 -0.8504,-0.25845 -2.978224,-1.19372 -4.728497,-2.07838 -1.750274,-0.88466 -3.24198,-1.51194 -3.314901,-1.39395 -0.271174,0.43877 -2.631306,0.5575 -3.708018,0.18654 -1.004217,-0.34598 -1.113206,-0.33068 -1.64012,0.23019 -0.426411,0.4539 -1.100903,0.67163 -2.758471,0.89047 -1.987579,0.26242 -2.303854,0.39089 -3.360891,1.36523 -0.84505,0.77894 -1.657585,1.20838 -2.946309,1.55717 -2.258292,0.61121 -5.72752,1.82484 -6.442325,2.2537 -0.301714,0.18102 -1.029074,0.4136 -1.616354,0.51684 -0.587281,0.10324 -1.698138,0.53568 -2.468572,0.96098 -1.257259,0.69403 -1.931527,0.88689 -4.280788,1.22446 -0.377143,0.0542 -0.89122,0.0429 -1.142393,-0.025 z"
       id="path1" />
  </g>
</svg>
