<?xml version="1.0" encoding="UTF-8" standalone="no"?>
<!-- Created with Inkscape (http://www.inkscape.org/) -->

<svg
   version="1.1"
   id="svg1"
   width="294.58286"
   height="294.58286"
   viewBox="0 0 294.58286 294.58286"
   sodipodi:docname="deer-marble.svg"
   inkscape:version="1.3.2 (091e20e, 2023-11-25, custom)"
   xmlns:inkscape="http://www.inkscape.org/namespaces/inkscape"
   xmlns:sodipodi="http://sodipodi.sourceforge.net/DTD/sodipodi-0.dtd"
   xmlns="http://www.w3.org/2000/svg"
   xmlns:svg="http://www.w3.org/2000/svg">
  <defs
     id="defs1" />
  <sodipodi:namedview
     id="namedview1"
     pagecolor="#ffffff"
     bordercolor="#000000"
     borderopacity="0.25"
     inkscape:showpageshadow="2"
     inkscape:pageopacity="0.0"
     inkscape:pagecheckerboard="0"
     inkscape:deskcolor="#d1d1d1"
     inkscape:zoom="2.1759583"
     inkscape:cx="147.29143"
     inkscape:cy="147.29143"
     inkscape:window-width="1600"
     inkscape:window-height="837"
     inkscape:window-x="-8"
     inkscape:window-y="-8"
     inkscape:window-maximized="1"
     inkscape:current-layer="g1" />
  <g
     inkscape:groupmode="layer"
     inkscape:label="Image"
     id="g1">
    <path
       style="fill:#000000"
       d="m 246.87874,257.38835 c -0.96869,-0.21183 -1.80222,-0.42611 -1.85229,-0.47619 -0.16006,-0.16006 1.81425,-30.25583 2.53093,-38.58073 0.22728,-2.64 1.02319,-10.90972 1.76869,-18.37715 3.07795,-30.83067 3.83181,-45.0169 3.8374,-72.21203 l 0.002,-10.90918 0.68532,0.44904 c 0.90857,0.59531 2.45401,2.74905 2.84757,3.96838 0.23105,0.71582 0.23501,1.20592 0.0149,1.83744 -0.24159,0.69303 -0.18848,1.29234 0.27191,3.06847 0.62327,2.40447 0.49982,3.96773 -0.39106,4.95215 -0.55146,0.60934 -0.36156,1.46746 0.54627,2.46859 0.68579,0.75627 1.77435,2.49276 2.24435,3.58025 0.23036,0.53301 0.21141,0.95883 -0.0793,1.78286 -0.3279,0.92934 -0.32654,1.23793 0.01,2.17975 0.64346,1.803 0.74581,2.72018 0.45058,4.03756 -0.22764,1.0158 -0.17875,1.63807 0.26045,3.31491 0.60971,2.32777 0.53974,3.16347 -0.45919,5.48464 -0.37667,0.87527 -0.73407,1.98612 -0.79421,2.46857 -0.0601,0.48245 -0.25384,1.44406 -0.43045,2.13692 -0.51729,2.02934 0.0764,11.04092 0.90189,13.69061 0.3528,1.1324 0.8648,2.36669 1.13777,2.74285 3.0485,4.20093 3.80615,5.29982 3.98217,5.77564 0.24205,0.65432 0.2317,0.77628 -1.87612,22.11126 -0.89689,9.07821 -1.90674,20.42044 -2.24411,25.20496 l -0.6134,8.69914 -1.21358,2.08647 c -2.63044,4.52243 -3.31454,5.73912 -4.49282,7.99053 -1.64404,3.14135 -1.95263,4.15518 -2.00162,6.57594 -0.0533,2.63651 -0.57117,3.7087 -1.98012,4.09998 -0.56548,0.15704 -1.08985,0.27383 -1.16528,0.25952 -0.0754,-0.0143 -0.92971,-0.19933 -1.8984,-0.41115 z m -19.49588,-6.41983 c -2.77486,-1.01441 -4.27247,-2.30921 -6.81747,-5.89424 -0.74965,-1.056 -1.61034,-2.2356 -1.91264,-2.62133 -0.3023,-0.38574 -0.87804,-1.37317 -1.27943,-2.19429 l -0.72979,-1.49295 1.65854,-14.4 c 4.67136,-40.55823 5.43003,-51.90405 6.61187,-98.88 0.33326,-13.24661 0.70582,-22.39116 1.23906,-30.412962 l 0.39895,-6.001537 1.17016,-1.267034 c 0.64359,-0.696869 1.84083,-2.316178 2.66055,-3.598463 0.81971,-1.282286 2.39725,-3.730237 3.50563,-5.439891 2.41752,-3.72895 4.36075,-7.530786 5.56116,-10.880109 0.4866,-1.357714 1.24844,-3.456 1.69297,-4.662857 0.44453,-1.206857 0.93629,-2.616124 1.09279,-3.131703 0.1565,-0.51558 0.56143,-1.37958 0.89986,-1.92 0.33842,-0.540421 0.82979,-1.548985 1.09194,-2.241254 0.44528,-1.175888 1.7532,-3.361724 1.45468,-2.431109 -2.3367,7.284587 -4.38423,19.753914 -5.53767,33.724066 -0.99657,12.070248 -1.33823,20.044053 -2.20945,51.565713 -0.9631,34.84565 -2.05135,50.2654 -5.88478,83.38286 -0.44529,3.84685 -1.30946,11.56114 -1.92038,17.14285 -0.61093,5.58172 -1.20111,10.58887 -1.31152,11.12702 l -0.20075,0.97844 z m -21.69143,-22.86761 c -0.0981,-0.0899 -6.35935,-0.98231 -10.09481,-1.43877 l -1.20338,-0.14705 0.17273,-2.65183 c 0.17171,-2.6361 0.46395,-14.40286 1.00254,-40.36612 0.371,-17.88388 0.91466,-29.4605 2.06742,-44.02286 0.76285,-9.63679 3.06501,-29.22665 3.48388,-29.64552 0.0972,-0.0972 2.58817,-0.35017 5.53546,-0.56214 2.9473,-0.21197 5.67526,-0.50575 6.06214,-0.65284 0.41195,-0.15662 0.86839,-0.66593 1.10157,-1.22918 0.21899,-0.52896 0.58492,-1.41269 0.81319,-1.96386 0.22827,-0.55116 0.47256,-0.94458 0.54288,-0.87426 0.0703,0.0703 -0.23795,2.60616 -0.68504,5.63522 -1.94352,13.16758 -3.16279,24.68774 -4.1018,38.75544 -0.96275,14.42331 -1.08284,18.00786 -1.9343,57.73714 -0.15196,7.09029 -0.35612,14.83543 -0.4537,17.21143 l -0.17741,4.32 h -1.00855 c -0.55469,0 -1.05997,-0.0472 -1.12282,-0.1048 z m -29.87429,-4.43399 c -1.13143,-0.2064 -2.736,-0.62319 -3.56571,-0.92618 -0.82972,-0.303 -2.68115,-0.9734 -4.11429,-1.48979 l -2.60571,-0.93889 0.0671,-4.35032 c 0.0369,-2.39267 0.31046,-8.48517 0.60789,-13.53888 1.14841,-19.51244 1.22972,-21.9936 1.20896,-36.89143 -0.0116,-8.29715 -0.22417,-21.22189 -0.47248,-28.72165 -0.2483,-7.49976 -0.45146,-15.92376 -0.45146,-18.72 v -5.08407 l 0.89143,-0.004 c 1.74789,-0.008 10.50965,-0.54291 11.52,-0.70355 l 1.02857,-0.16354 0.006,6.94982 c 0.003,3.8224 0.12165,10.15897 0.26268,14.08125 0.99197,27.58768 0.92423,42.9662 -0.28212,64.04572 -0.29785,5.20457 -0.66345,11.99314 -0.81243,15.08571 -0.53575,11.12105 -0.5882,11.7952 -0.91573,11.76967 -0.17369,-0.0135 -1.24151,-0.19349 -2.37294,-0.39989 z m -25.64571,-8.47208 c -3.31886,-1.11404 -6.48672,-2.11012 -7.0397,-2.21351 -1.21565,-0.22729 -1.11204,0.12039 -2.00791,-6.73786 -2.72993,-20.8989 -3.78348,-42.09838 -3.18189,-64.02633 0.39665,-14.458 0.87821,-25.46522 1.12607,-25.73886 0.31867,-0.35184 4.6823,-0.66593 5.64664,-0.40644 0.58177,0.15654 1.69992,0.0547 3.52733,-0.32132 1.47156,-0.30279 3.0299,-0.55052 3.46297,-0.55052 0.76407,0 0.78354,0.0346 0.65645,1.16571 -0.20354,1.81157 -0.6429,12.46881 -0.9866,23.93143 -0.67707,22.58011 0.46197,45.92149 3.20541,65.68582 0.39087,2.81598 1.64524,9.81377 1.93078,10.77132 0.0787,0.264 0.0422,0.47687 -0.0811,0.47304 -0.12331,-0.004 -2.93963,-0.91844 -6.25848,-2.03248 z m -24,-6.30086 c -1.28229,-0.33583 -4.1059,-0.90966 -6.27469,-1.27517 l -3.94326,-0.66458 0.17665,-2.05997 c 1.53387,-17.88686 2.08617,-28.85997 2.08476,-41.41998 -0.002,-14.35735 -0.55874,-24.87966 -2.0695,-39.08571 -0.36899,-3.46971 -0.67094,-6.40114 -0.671,-6.51429 -6e-5,-0.11314 1.49248,-0.20571 3.31676,-0.20571 1.82427,0 4.79064,-0.13992 6.59192,-0.31093 1.80129,-0.17101 3.32295,-0.26304 3.38148,-0.20452 0.1491,0.1491 1.43403,12.79094 1.92027,18.89259 0.71036,8.91417 1.05388,21.78511 0.87479,32.77715 -0.18728,11.49531 -0.41366,16.11666 -1.41753,28.93714 -0.85562,10.92726 -0.95437,11.79994 -1.3318,11.76944 -0.16908,-0.0137 -1.35657,-0.29962 -2.63885,-0.63546 z M 80.679074,206.5671 c -0.244591,-0.15498 -0.543059,-1.63582 -0.869864,-4.3158 -1.979603,-16.23385 -1.66196,-39.86155 0.842108,-62.63987 0.584092,-5.31321 2.340846,-19.51691 2.6037,-21.05143 l 0.152696,-0.89143 6.707571,0 c 3.689164,0 6.707572,0.0421 6.707572,0.0935 0,0.0514 -0.611019,4.95771 -1.357819,10.90285 -2.242387,17.85123 -2.86241,24.81446 -3.333824,37.44078 -0.501321,13.42734 -0.09367,26.26177 1.132995,35.67067 0.297828,2.28444 0.541505,4.35187 0.541505,4.59429 0,0.3923 -0.701071,0.4403 -6.377143,0.43656 -3.507429,-0.002 -6.544702,-0.11037 -6.749497,-0.24013 z m -24.321297,-7.09282 c -0.113859,-3.88457 -0.220367,-20.33142 -0.236683,-36.54857 -0.02815,-27.97376 0.09923,-34.54601 0.833229,-42.99428 l 0.172771,-1.98857 h 6.682167 c 3.938201,0 6.682167,0.10478 6.682167,0.25517 0,0.14034 -0.186055,3.13348 -0.413455,6.65143 -0.901126,13.94064 -0.991608,35.36896 -0.316843,75.03625 l 0.113145,6.65143 h -6.654741 -6.65474 z m -25.570554,5.34121 c -1.245313,-0.78795 -2.319167,-1.61778 -2.386342,-1.84406 -0.222964,-0.75108 -0.97441,-8.03195 -1.245576,-12.06857 -0.349967,-5.20968 -0.346969,-14.03738 0.0063,-18.66518 0.859489,-11.258 3.473649,-27.68618 7.614061,-47.84911 l 1.295451,-6.30857 6.943544,-0.0733 c 3.81895,-0.0403 6.878052,0.0327 6.798005,0.16216 -0.283447,0.45863 -5.372405,26.33038 -6.321866,32.13973 -1.246963,7.62964 -2.490671,17.16413 -2.913021,22.33174 -0.717451,8.77829 0.225007,25.98517 1.807778,33.0054 l 0.13914,0.61715 -4.736654,-0.007 -4.736655,-0.007 z m -10.947433,-6.96331 -2.788782,-1.75401 -0.147992,-1.98051 c -0.186691,-2.4984 -0.641262,-58.70751 -0.510673,-63.14623 l 0.09684,-3.29143 2.359559,-1.30442 c 1.297758,-0.71744 2.404911,-1.25907 2.46034,-1.20365 0.05543,0.0554 -0.118723,1.62985 -0.387006,3.49871 -0.421132,2.93362 -0.486968,5.45934 -0.481795,18.48364 0.0036,9.05788 0.145146,17.27766 0.354251,20.57143 0.191542,3.01715 0.719696,11.09153 1.173675,17.94308 0.453978,6.85156 0.78828,12.79038 0.742892,13.19739 l -0.08252,0.74002 z m 233.32483,-91.84075 c -0.0146,-0.60343 -0.0933,-1.85271 -0.17482,-2.77618 -0.30822,-3.491952 0.61272,-40.235459 1.14813,-45.808057 l 0.16154,-1.681378 1.28455,-0.171287 c 0.7065,-0.09421 1.66817,-0.405118 2.13704,-0.690911 1.00748,-0.614094 2.1372,-2.526686 2.75503,-4.664185 0.24381,-0.843545 0.91248,-2.552032 1.48591,-3.796637 1.26808,-2.752287 1.90466,-3.150704 3.61211,-2.260728 1.25185,0.652496 1.87493,0.53783 2.70757,-0.49828 l 0.59314,-0.738073 -0.16391,1.234286 c -0.0901,0.678857 -0.41595,4.381714 -0.724,8.228571 -0.53041,6.623698 -0.92379,10.838978 -1.24145,13.302857 -0.0778,0.603429 -0.19487,1.733436 -0.26017,2.511127 -0.0653,0.777692 -0.26703,1.950263 -0.44832,2.605715 -0.18128,0.655451 -0.36843,1.500301 -0.41589,1.877444 -0.23373,1.857448 -0.41673,2.603356 -1.15606,4.711929 -1.39415,3.97617 -2.42688,6.604984 -3.4827,8.865214 -0.56376,1.206857 -1.37035,3.181714 -1.79244,4.388571 -0.42208,1.206857 -1.15733,3.243429 -1.63388,4.525714 -0.47655,1.282286 -1.32977,3.874286 -1.89603,5.759998 -0.56626,1.88572 -1.35337,4.04572 -1.74914,4.8 l -0.71958,1.37143 z"
       id="path1" />
  </g>
</svg>
