<?xml version="1.0" encoding="UTF-8" standalone="no"?>
<!-- Created with Inkscape (http://www.inkscape.org/) -->

<svg
   version="1.1"
   id="svg1"
   width="294.58286"
   height="294.58286"
   viewBox="0 0 294.58286 294.58286"
   sodipodi:docname="deer-side-body.svg"
   inkscape:version="1.4 (86a8ad7, 2024-10-11)"
   xmlns:inkscape="http://www.inkscape.org/namespaces/inkscape"
   xmlns:sodipodi="http://sodipodi.sourceforge.net/DTD/sodipodi-0.dtd"
   xmlns="http://www.w3.org/2000/svg"
   xmlns:svg="http://www.w3.org/2000/svg">
  <defs
     id="defs1" />
  <sodipodi:namedview
     id="namedview1"
     pagecolor="#ffffff"
     bordercolor="#000000"
     borderopacity="0.25"
     inkscape:showpageshadow="2"
     inkscape:pageopacity="0.0"
     inkscape:pagecheckerboard="0"
     inkscape:deskcolor="#d1d1d1"
     inkscape:zoom="2.766624"
     inkscape:cx="147.47215"
     inkscape:cy="147.29143"
     inkscape:window-width="1920"
     inkscape:window-height="1017"
     inkscape:window-x="-8"
     inkscape:window-y="-8"
     inkscape:window-maximized="1"
     inkscape:current-layer="g1" />
  <g
     inkscape:groupmode="layer"
     inkscape:label="Image"
     id="g1">
    <path
       style="fill:#000000"
       d="m 241.65539,257.37275 c -1.87919,-1.56495 -2.5386,-1.82332 -3.77927,-1.48075 -1.13953,0.31463 -1.36352,0.21778 -5.55612,-2.40253 -1.584,-0.98998 -3.48169,-2.02859 -4.21709,-2.30803 -3.31143,-1.2583 -4.83236,-2.52453 -7.50032,-6.2443 -0.91971,-1.28228 -1.86591,-2.54466 -2.10267,-2.80527 -0.5677,-0.62491 -2.46905,-4.44415 -2.90472,-5.83473 -0.18906,-0.60343 -0.7117,-1.83378 -1.16142,-2.73412 -0.44973,-0.90033 -1.06072,-2.28656 -1.35777,-3.0805 -0.29705,-0.79394 -0.67133,-1.52463 -0.83172,-1.62375 -0.16039,-0.0991 -1.84954,-0.34026 -3.75367,-0.53585 -1.90413,-0.19558 -5.19005,-0.60165 -7.30205,-0.90237 -4.58729,-0.65317 -7.4688,-1.0378 -11.52,-1.53774 -6.91843,-0.85375 -16.04693,-2.61015 -18.46801,-3.55339 -1.30774,-0.50949 -4.41428,-1.57003 -6.90342,-2.35676 -2.48914,-0.78674 -5.20457,-1.71144 -6.03428,-2.0549 -0.82972,-0.34347 -4.34743,-1.54941 -7.81715,-2.67988 -5.65138,-1.84127 -8.5922,-2.63155 -17.00571,-4.56988 -1.35772,-0.31279 -3.888,-0.93623 -5.62286,-1.38541 -1.73486,-0.44918 -5.31428,-1.20641 -7.95428,-1.68273 -4.48202,-0.80866 -5.14525,-0.86018 -10.01143,-0.77768 -8.66041,0.14682 -10.081631,0.13924 -43.885716,-0.23405 l -32.64,-0.36044 -8.081082,-5.12966 c -7.355387,-4.66902 -8.097185,-5.2084 -8.2604,-6.00644 -0.09862,-0.48222 -0.2584,-11.5271 -0.355056,-24.54418 -0.09666,-13.01707 -0.252906,-27.95178 -0.347222,-33.18823 l -0.171483,-9.52082 0.790479,-0.34487 c 0.434763,-0.18967 4.521177,-2.41616 9.08092,-4.94775 l 8.290442,-4.60288 20.372415,-0.029 c 36.974533,-0.0526 70.959013,-0.45581 75.640983,-0.89749 2.33829,-0.22059 6.04115,-0.53481 8.22857,-0.69827 2.18743,-0.16346 4.27265,-0.34476 4.63381,-0.40289 0.36117,-0.0581 1.04002,0.005 1.50857,0.14006 0.60007,0.1731 1.66275,0.0879 3.59477,-0.28814 3.69248,-0.71872 5.91671,-1.04998 10.14857,-1.51141 1.96114,-0.21384 4.67657,-0.5759 6.03428,-0.80459 1.35772,-0.22868 4.88482,-0.54528 7.83801,-0.70355 4.86436,-0.2607 14.86853,-1.21523 15.88771,-1.5159 0.22628,-0.0668 1.95428,-0.25231 3.84,-0.41233 1.88571,-0.16002 5.21828,-0.52942 7.40571,-0.82088 2.18743,-0.29146 5.89029,-0.66187 8.22857,-0.82313 5.70556,-0.39348 5.68275,-0.38563 6.43434,-2.21303 0.33919,-0.82471 1.29881,-2.58014 2.13247,-3.90095 1.17581,-1.86288 1.68448,-3.0317 2.26801,-5.211433 0.41373,-1.545471 0.835,-3.103486 0.93615,-3.462256 0.18952,-0.672232 0.77131,-1.047209 3.90961,-2.519868 2.14777,-1.00785 4.43488,-3.377269 6.86641,-7.113538 4.85752,-7.464013 5.83214,-9.042397 6.91479,-11.198329 0.65702,-1.308347 1.57182,-3.427956 2.0329,-4.710242 0.46107,-1.282286 1.22475,-3.380572 1.69705,-4.662857 0.4723,-1.282286 0.98778,-2.701715 1.1455,-3.154286 0.15772,-0.452571 1.06051,-2.427429 2.00619,-4.388571 0.94567,-1.961143 2.06136,-4.34243 2.4793,-5.29175 0.77435,-1.758879 1.94673,-2.925752 2.6633,-2.650779 0.55221,0.211902 1.4734,1.97868 1.70336,3.266914 0.36135,2.024299 1.11713,3.111491 2.40388,3.457976 1.32511,0.356815 3.48825,0.147364 4.6425,-0.44952 0.80595,-0.416772 1.82417,-2.148476 2.40654,-4.092841 0.80066,-2.673164 2.63717,-6.409117 3.36266,-6.840535 0.68752,-0.408843 0.80843,-0.400341 1.82233,0.128133 1.3368,0.696782 2.30258,0.513347 3.0854,-0.586027 0.31007,-0.435446 1.10635,-1.165031 1.76951,-1.621301 l 1.20576,-0.829581 0.39963,0.623227 c 0.2198,0.342775 0.48186,1.303697 0.58236,2.135383 0.16857,1.394946 0.10324,1.660702 -0.84291,3.428572 -0.5641,1.054028 -1.2522,2.350513 -1.5291,2.881079 -0.84157,1.612524 -2.75734,10.690928 -3.64553,17.275335 -0.97339,7.216048 -2.43167,12.1917 -5.50659,18.788572 -0.56253,1.206857 -1.36898,3.181714 -1.7921,4.388571 -0.42311,1.206857 -1.16346,3.243429 -1.64522,4.525714 -0.48176,1.282286 -1.34413,3.88643 -1.91639,5.786988 -0.57226,1.90055 -1.5143,4.34526 -2.09343,5.43267 -0.57913,1.08742 -1.36067,2.55641 -1.73675,3.26444 -0.52022,0.97938 -0.67936,1.68102 -0.66526,2.93304 0.0235,2.08238 0.29797,2.58376 2.70312,4.93715 1.07922,1.056 2.24134,2.49798 2.58247,3.20441 0.542,1.12238 0.58212,1.42601 0.31801,2.40684 -0.2517,0.93476 -0.20811,1.45786 0.26071,3.12864 0.60235,2.14665 0.53433,3.50309 -0.2192,4.37089 -0.67617,0.77872 -0.5408,2.26011 0.28665,3.13695 0.39341,0.41689 1.14417,1.47573 1.66836,2.35298 0.94041,1.57381 0.94802,1.61177 0.57296,2.85801 -0.3466,1.15165 -0.32972,1.41218 0.19143,2.95506 0.49105,1.45374 0.53168,1.90774 0.28844,3.22351 -0.23683,1.28114 -0.1964,1.83464 0.24735,3.38634 0.5959,2.08375 0.50481,3.45472 -0.34166,5.14259 -1.83005,3.64915 -2.02889,13.27865 -0.38672,18.72854 0.63706,2.11422 1.17786,3.0604 3.74101,6.54524 1.75401,2.38474 1.84777,2.71094 2.17089,7.55276 0.28668,4.29588 1.15606,11.92897 1.5498,13.60715 0.10103,0.43062 0.48309,1.83209 0.84901,3.11437 1.04476,3.66111 1.51826,7.63407 1.20537,10.11386 -0.48846,3.8713 -5.07667,16.69566 -7.12699,19.92043 -0.57549,0.90514 -1.75939,2.88 -2.63089,4.38857 -0.8715,1.50857 -2.04828,3.54514 -2.61506,4.52571 -0.56679,0.98058 -1.47443,2.63352 -2.01699,3.67322 -0.54256,1.03969 -1.09414,2.02712 -1.22574,2.19428 -0.52718,0.66964 -1.12328,3.17748 -1.30094,5.47311 -0.29479,3.80921 -1.28902,4.60482 -4.83134,3.86616 -2.01506,-0.42019 -2.51459,-0.33078 -3.35689,0.60079 l -0.55983,0.61916 z"
       id="path1" />
  </g>
</svg>
