<?xml version="1.0" encoding="UTF-8" standalone="no"?>
<!-- Created with Inkscape (http://www.inkscape.org/) -->

<svg
   version="1.1"
   id="svg1"
   width="294.58286"
   height="294.58286"
   viewBox="0 0 294.58286 294.58286"
   sodipodi:docname="dragon-insert.svg"
   inkscape:version="1.4 (86a8ad7, 2024-10-11)"
   xmlns:inkscape="http://www.inkscape.org/namespaces/inkscape"
   xmlns:sodipodi="http://sodipodi.sourceforge.net/DTD/sodipodi-0.dtd"
   xmlns:xlink="http://www.w3.org/1999/xlink"
   xmlns="http://www.w3.org/2000/svg"
   xmlns:svg="http://www.w3.org/2000/svg">
  <defs
     id="defs1">
    <linearGradient
       id="linearGradient1"
       inkscape:collect="always">
      <stop
         style="stop-color:#000000;stop-opacity:0;"
         offset="0.1790393"
         id="stop2" />
      <stop
         style="stop-color:#000000;stop-opacity:1;"
         offset="0.64410478"
         id="stop1" />
    </linearGradient>
    <linearGradient
       inkscape:collect="always"
       xlink:href="#linearGradient1"
       id="linearGradient2"
       x1="31.192027"
       y1="181.00471"
       x2="280.96703"
       y2="181.00471"
       gradientUnits="userSpaceOnUse" />
  </defs>
  <sodipodi:namedview
     id="namedview1"
     pagecolor="#ffffff"
     bordercolor="#000000"
     borderopacity="0.25"
     inkscape:showpageshadow="2"
     inkscape:pageopacity="0.0"
     inkscape:pagecheckerboard="0"
     inkscape:deskcolor="#d1d1d1"
     inkscape:zoom="2.766624"
     inkscape:cx="147.47215"
     inkscape:cy="147.29143"
     inkscape:window-width="1920"
     inkscape:window-height="1017"
     inkscape:window-x="-8"
     inkscape:window-y="-8"
     inkscape:window-maximized="1"
     inkscape:current-layer="g1" />
  <g
     inkscape:groupmode="layer"
     inkscape:label="Image"
     id="g1">
    <path
       style="fill:url(#linearGradient2)"
       d="m 255.03003,245.58169 c -1.11026,-0.31193 -0.79207,-2.48735 0.54202,-3.70568 0.41137,-0.37568 1.38709,-1.08208 2.16827,-1.56978 1.33155,-0.83132 3.29264,-2.86278 4.26738,-4.42052 0.74311,-1.18757 1.32959,-4.41939 1.01123,-5.5724 -0.21827,-0.79049 -0.18582,-1.20673 0.14909,-1.91249 0.73179,-1.54213 2.08277,-2.95214 4.01559,-4.19105 2.12896,-1.36463 2.31781,-1.63618 2.67595,-3.84797 0.14418,-0.89042 0.56994,-2.23609 0.94614,-2.99037 0.3762,-0.75429 0.89402,-2.42057 1.15072,-3.70286 0.25671,-1.28229 0.63895,-2.74764 0.84944,-3.25635 0.21049,-0.50871 0.38271,-1.13915 0.38271,-1.40098 0,-0.26183 0.78498,-1.78305 1.74439,-3.38049 1.44694,-2.40917 1.6691,-2.93462 1.30286,-3.08142 -0.24285,-0.0973 -2.24845,-0.21647 -4.4569,-0.26473 -7.9711,-0.17422 -16.46663,-0.93742 -20.25892,-1.81998 -1.28229,-0.29841 -3.68914,-0.78353 -5.34857,-1.07803 -1.65943,-0.29451 -3.54791,-0.73183 -4.19661,-0.97182 -2.8489,-1.05399 -4.06562,-1.17756 -6.24125,-0.63388 -1.11644,0.27899 -2.37208,0.68359 -2.79031,0.8991 -0.41822,0.21551 -1.43443,0.59146 -2.25823,0.83545 -2.65154,0.78532 -7.25891,2.7186 -7.96503,3.34217 -3.033,2.67843 -4.93636,3.95856 -6.9569,4.67893 -3.2715,1.16638 -5.41889,1.06659 -6.81327,-0.3166 -1.10084,-1.092 -2.70898,-1.65708 -5.42983,-1.90796 -2.5506,-0.23519 -3.88366,-0.5463 -5.54329,-1.29368 l -1.29186,-0.58177 -1.76642,1.6524 c -1.74895,1.63605 -2.73265,2.10028 -6.30505,2.97545 -0.49158,0.12043 -1.12216,0.66631 -1.70199,1.47339 -1.94483,2.70707 -4.70084,2.83336 -8.61908,0.39496 l -2.00413,-1.2472 -3.73266,-0.25771 c -2.05297,-0.14174 -3.99618,-0.31534 -4.31825,-0.38578 -0.32207,-0.0704 -1.04935,-0.73621 -1.61617,-1.47948 -1.58138,-2.07364 -2.20818,-2.42356 -4.86387,-2.71538 -3.35764,-0.36895 -5.58722,-1.60837 -11.48649,-6.38535 -0.71502,-0.57899 -0.74572,-0.58036 -2.60571,-0.11653 -1.23211,0.30726 -2.26166,0.77889 -2.98094,1.36554 -0.60432,0.49289 -1.53003,0.99004 -2.05714,1.10478 -0.52711,0.11473 -1.3599,0.55972 -1.85065,0.98886 -1.05772,0.92491 -3.69903,1.75793 -6.90627,2.17808 -1.27206,0.16665 -2.7532,0.52413 -3.29143,0.79441 -3.11126,1.56235 -9.12672,1.69746 -11.4569,0.25733 -0.70419,-0.43521 -1.69946,-0.61199 -4.67113,-0.8297 -4.59048,-0.33631 -5.46978,-0.54529 -6.62176,-1.57378 -0.49274,-0.43992 -1.35009,-0.88458 -1.90521,-0.98813 -0.55512,-0.10355 -1.95357,-0.55188 -3.10766,-0.99629 -2.47204,-0.95192 -6.127275,-1.65051 -6.938013,-1.32599 -0.310003,0.12409 -1.735951,0.36414 -3.168774,0.53345 -1.561221,0.18448 -3.20987,0.5742 -4.114286,0.97257 -2.538559,1.11818 -3.696607,1.26073 -6.17201,0.75975 -2.147083,-0.43454 -2.221989,-0.43136 -3.482095,0.14772 -0.708295,0.3255 -1.370924,0.59181 -1.472511,0.59181 -0.101586,0 -1.250072,0.96907 -2.552191,2.15348 -2.734269,2.48709 -3.08079,2.69849 -5.034393,3.0712 -5.21103,0.99417 -10.919799,0.82758 -15.024525,-0.43845 -3.357705,-1.03563 -4.194909,-1.06735 -7.971829,-0.30206 -4.94436,1.00185 -14.219967,1.94118 -14.675016,1.48613 -0.08809,-0.0881 -0.199291,-1.56002 -0.247102,-3.27095 -0.04781,-1.71093 -0.227011,-5.8262 -0.398221,-9.14506 -0.417265,-8.08858 -0.477398,-11.81254 -0.21544,-13.34199 0.208382,-1.21664 0.270608,-1.28663 1.395787,-1.56996 0.798574,-0.20108 1.697921,-0.21187 2.793786,-0.0335 1.141625,0.1858 2.946376,0.14677 6.147071,-0.13295 10.133895,-0.88562 12.757797,-0.95475 16.873822,-0.44457 2.213266,0.27433 4.769562,0.78406 6.034285,1.20324 1.206857,0.40001 3.243429,1.05421 4.525715,1.45379 1.282285,0.39958 2.948571,1.07008 3.702857,1.49002 1.942415,1.0814 4.790189,1.85823 8.498382,2.31824 3.430861,0.4256 3.730063,0.38482 6.805715,-0.92751 0.634175,-0.27059 1.622186,-0.57911 2.19558,-0.68558 0.573394,-0.10648 2.014327,-0.60345 3.202075,-1.10438 1.48949,-0.62819 2.825544,-0.97082 4.306037,-1.10427 1.180573,-0.10642 2.640214,-0.29969 3.243644,-0.42948 1.41521,-0.3044 6.55395,0.31283 7.74887,0.93075 0.48605,0.25134 1.28653,0.80544 1.77885,1.23132 1.52305,1.3175 1.69167,1.35006 3.98975,0.77026 1.70007,-0.42892 2.42084,-0.48431 3.66111,-0.28136 1.13749,0.18613 1.89616,0.15321 2.88,-0.12498 0.73464,-0.20772 2.50827,-0.60735 3.94141,-0.88806 3.13892,-0.61483 5.05672,-0.38776 7.26876,0.86063 l 1.43349,0.80902 1.52084,-0.80001 c 0.83646,-0.44001 2.20731,-1.3183 3.04633,-1.95176 1.31822,-0.99527 1.93306,-1.23991 4.52528,-1.80055 3.41781,-0.73919 3.977,-0.69775 8.9605,0.66412 1.66622,0.45534 4.01136,0.91451 5.21143,1.02037 1.20007,0.10587 2.43865,0.28741 2.75239,0.40342 0.3434,0.12698 1.32595,0.007 2.46857,-0.30114 2.38907,-0.64453 6.34155,-1.42674 7.25723,-1.43622 0.38293,-0.004 1.206,0.33012 1.82904,0.74243 0.9151,0.60559 1.23821,0.69323 1.68132,0.45609 1.61863,-0.86627 3.70704,-1.12656 6.75909,-0.84244 1.66258,0.15477 3.54114,0.41651 4.17457,0.58164 0.8099,0.21114 1.39559,0.21522 1.97354,0.0137 1.21357,-0.42305 6.2703,0.15645 7.1289,0.81697 0.86579,0.66606 1.56787,0.6347 3.20058,-0.14299 7.28953,-3.4721 12.0615,-4.86286 14.90936,-4.34524 1.11113,0.20195 1.77887,0.14829 3.24869,-0.26109 1.01755,-0.28341 3.33124,-0.70814 5.14152,-0.94384 1.81029,-0.23571 4.032,-0.60149 4.93715,-0.81285 1.27616,-0.29799 2.02148,-0.31934 3.31912,-0.0951 1.2965,0.22409 2.31584,0.19521 4.52571,-0.12823 5.38755,-0.78853 12.20249,-2.34764 15.75594,-3.60463 4.99707,-1.76765 6.32017,-1.88562 15.29854,-1.36404 5.22609,0.3036 7.84443,0.35299 8.68629,0.16383 1.39215,-0.31279 2.58753,-0.141 3.07082,0.44133 0.48907,0.58929 0.37292,3.83842 -0.18339,5.13031 -0.43539,1.01109 -0.61035,1.89588 -0.76326,3.86002 -0.0564,0.72444 0.0888,0.90358 1.21383,1.49784 0.70283,0.37124 1.45972,0.98838 1.68197,1.37142 0.22852,0.39386 0.48905,1.8612 0.59963,3.37723 0.19263,2.64096 0.52038,3.49065 1.34644,3.49065 0.64689,0 1.31915,2.0408 1.58061,4.79827 0.47112,4.96867 0.44638,6.99488 -0.11052,9.05316 -0.28572,1.056 -0.55417,2.90748 -0.59657,4.1144 -0.0673,1.9166 -0.20543,2.43942 -1.09094,4.1298 -0.55762,1.06447 -1.07048,2.39191 -1.13968,2.94986 -0.19843,1.59981 -0.9374,3.16451 -1.77682,3.76223 -0.68653,0.48885 -0.74425,0.64359 -0.52512,1.40765 0.27946,0.97441 0.0607,2.1565 -0.94093,5.08529 -1.52593,4.46173 -4.08321,8.32642 -6.23651,9.42495 -0.58505,0.29847 -1.06383,0.69446 -1.06395,0.87996 -9.8e-4,1.53145 -3.73524,6.82529 -5.78615,8.2027 -1.63728,1.09961 -5.12989,2.0328 -6.33789,1.69342 z M 32.331618,162.74587 c -0.381458,-0.10393 -0.477082,-0.87871 -0.664986,-5.38791 -0.315164,-7.56312 -0.329758,-11.9556 -0.04408,-13.2683 0.153584,-0.70573 0.147182,-1.65227 -0.0167,-2.46857 -0.178862,-0.89094 -0.165348,-2.16599 0.04132,-3.8985 0.270323,-2.26614 0.380107,-2.60153 0.916457,-2.79971 0.826353,-0.30533 4.310046,0.38666 6.4224,1.27574 0.931197,0.39194 2.628534,0.89159 3.771859,1.11035 1.143324,0.21875 3.191666,0.75262 4.55187,1.18638 1.360204,0.43375 3.398812,0.87292 4.530241,0.97592 2.422672,0.22055 6.956806,-0.22401 9.913777,-0.97201 1.697355,-0.42937 2.367385,-0.47903 3.518357,-0.26075 0.781947,0.14829 1.539066,0.34214 1.682487,0.43078 0.143421,0.0886 1.028732,-0.25924 1.967358,-0.77307 3.804012,-2.08243 5.204863,-1.92659 9.214097,1.02503 2.510178,1.84801 3.165668,2.01566 6.738806,1.72361 2.657416,-0.21721 3.253451,-0.36752 5.211428,-1.31422 1.215958,-0.58793 2.889689,-1.20927 3.719404,-1.38077 0.8503,-0.17574 2.286528,-0.79654 3.291428,-1.42269 2.346311,-1.46198 3.726658,-1.53279 4.808828,-0.24671 0.40483,0.48111 0.98785,1.00951 1.2956,1.17421 0.51646,0.2764 0.54707,0.23711 0.39762,-0.51017 -0.0891,-0.4453 -0.004,-1.34568 0.1898,-2.00086 0.29832,-1.01034 0.50882,-1.24561 1.38627,-1.54939 0.78297,-0.27108 1.31622,-0.28724 2.1929,-0.0665 1.05205,0.26491 1.24038,0.45158 2.05192,2.03385 0.49146,0.9582 1.12421,1.95091 1.40611,2.20602 0.4849,0.43883 0.57986,0.41926 1.76064,-0.36285 0.68824,-0.45587 2.09115,-1.01709 3.12751,-1.25113 2.06845,-0.46712 3.05731,-0.32381 6.47994,0.93907 1.17286,0.43277 2.27975,0.6111 3.85238,0.62068 2.35589,0.0144 2.57402,-0.0672 6.05277,-2.26328 1.11034,-0.70094 1.92175,-0.9563 3.89744,-1.22653 1.4653,-0.20043 2.69787,-0.52165 2.98629,-0.77825 0.67757,-0.60283 2.23956,-0.99211 5.20575,-1.29737 1.38618,-0.14265 2.86733,-0.43673 3.29143,-0.6535 1.13171,-0.57845 2.30867,-0.7657 3.22642,-0.51332 0.61656,0.16956 0.86772,0.44771 1.0533,1.16646 0.39561,1.53228 0.65004,1.68799 1.79976,1.10145 2.04736,-1.04449 3.1029,-1.16932 5.01217,-0.59277 5.30002,1.60048 6.92106,1.33372 11.33813,-1.8658 1.08844,-0.78842 1.5888,-0.97745 2.49452,-0.9424 1.00493,0.0389 1.26549,-0.0929 2.30557,-1.16611 1.90966,-1.97049 3.9164,-2.20176 5.48593,-0.63222 0.97672,0.97671 1.19057,0.98171 1.92736,0.045 0.51382,-0.65322 0.76936,-0.74255 2.07028,-0.72375 1.30696,0.0189 1.61597,0.14059 2.58881,1.01949 0.60759,0.54892 1.20164,0.99803 1.32012,0.99803 0.11847,0 0.66654,-0.5397 1.21793,-1.19933 0.59709,-0.71432 1.3123,-1.25856 1.76854,-1.34577 0.42132,-0.0805 2.37232,0.0501 4.33557,0.29028 1.96324,0.24019 4.10763,0.41862 4.76531,0.39649 1.81599,-0.0611 3.94288,-0.77729 5.1371,-1.72986 1.53602,-1.22521 3.51573,-2.17076 4.56086,-2.17835 1.88503,-0.0137 3.07061,-0.47986 4.05484,-1.59434 0.70967,-0.80359 1.24608,-1.13329 2.05714,-1.26442 0.80309,-0.12983 1.58684,-0.60563 2.92423,-1.77523 1.96815,-1.72121 2.97598,-2.08695 4.66866,-1.69423 0.74121,0.17197 1.59526,0.0863 3.20878,-0.32167 2.09253,-0.52916 2.28884,-0.53479 4.06425,-0.11667 1.02603,0.24164 3.03808,0.52241 4.47122,0.62393 1.59382,0.11291 3.24481,0.42029 4.25143,0.79155 0.90514,0.33383 2.42186,0.75728 3.37048,0.94101 0.94862,0.18373 2.24462,0.519 2.88,0.74505 2.41725,0.85998 4.60827,1.17127 6.2315,0.88534 0.93079,-0.16395 1.91612,-0.17602 2.47827,-0.0304 0.79776,0.20672 0.9841,0.41777 1.28429,1.4546 0.38174,1.31849 0.23955,2.67687 -0.41531,3.96769 -0.25058,0.49393 -0.44304,1.7222 -0.48146,3.07263 -0.0512,1.80131 -0.19091,2.45512 -0.7007,3.27998 -0.35019,0.56662 -0.66099,1.50261 -0.69067,2.07997 -0.0297,0.57736 -0.18855,1.21192 -0.35306,1.41014 -0.21806,0.26275 -0.19034,0.72178 0.10228,1.69409 0.39439,1.31045 0.369,1.83026 -0.17707,3.62563 -0.46216,1.51946 -3.69977,2.81217 -9.10234,3.63436 -1.03529,0.15756 -2.33129,0.51198 -2.88,0.7876 -1.18813,0.59681 -3.08478,1.0346 -5.52335,1.27491 -1.10695,0.10908 -2.56275,0.52149 -3.84,1.08781 -2.68124,1.18885 -4.15255,1.39777 -5.82973,0.82779 -1.22864,-0.41754 -1.41097,-0.41224 -3.15429,0.0918 -1.01765,0.29423 -2.70885,0.67763 -3.75823,0.852 l -1.90797,0.31704 -1.93203,-0.98568 c -1.06262,-0.54213 -3.0429,-1.78955 -4.40061,-2.77203 -3.04824,-2.20581 -3.59023,-2.44385 -6.43673,-2.82693 l -2.27633,-0.30634 -1.95204,1.07211 c -1.29274,0.71001 -2.47943,1.13658 -3.5135,1.26298 -0.90758,0.11094 -1.72326,0.37946 -1.94782,0.64122 -0.41512,0.48387 -1.30772,2.16986 -1.8024,3.40443 -0.44675,1.11496 -1.53661,1.45768 -3.00281,0.94427 l -1.18305,-0.41426 -0.25259,0.72653 c -0.5535,1.59202 -0.96074,2.07832 -1.91177,2.2829 -1.4612,0.31434 -2.70364,-0.009 -3.21509,-0.83554 -0.24518,-0.39646 -0.75048,-1.05558 -1.12289,-1.46471 l -0.6771,-0.74388 -0.76208,0.64125 c -0.89902,0.75647 -2.71502,1.07521 -4.17248,0.73234 -0.57206,-0.13458 -1.93725,-0.86489 -3.03376,-1.62291 -1.65842,-1.14646 -2.2676,-1.40829 -3.62275,-1.55705 -2.44481,-0.26837 -5.61342,0.46894 -7.66338,1.78322 -2.06548,1.32424 -4.29938,2.37196 -5.89714,2.76583 -0.95878,0.23635 -1.61518,0.69497 -2.94068,2.0546 -0.93851,0.96269 -1.98765,1.81705 -2.33142,1.89858 -0.34378,0.0815 -1.18048,0.26288 -1.85933,0.40299 -0.67886,0.14012 -1.9389,0.50841 -2.80009,0.81844 -1.46469,0.52727 -1.6754,0.53811 -3.26292,0.16777 -1.19274,-0.27825 -1.96321,-0.65383 -2.59251,-1.26378 -0.96409,-0.93442 -2.43128,-1.28987 -9.67931,-2.34492 l -3.11196,-0.45299 -2.78518,1.37952 c -1.53185,0.75873 -3.09375,1.46697 -3.47089,1.57387 -0.37714,0.1069 -1.056,0.54429 -1.50857,0.97196 -0.69839,0.65997 -1.18575,0.82251 -3.22186,1.07448 -1.70384,0.21085 -2.67241,0.48241 -3.34249,0.93715 -1.12153,0.76109 -2.8659,1.09337 -3.82518,0.72865 -0.48921,-0.186 -0.74155,-0.53946 -0.86859,-1.21663 -0.0985,-0.52496 -0.42592,-1.17788 -0.72764,-1.45093 -0.53276,-0.48214 -0.5656,-0.47581 -1.13856,0.21936 -0.85248,1.03433 -1.81404,1.16577 -3.75209,0.51289 -1.56285,-0.52649 -1.7366,-0.53417 -2.92873,-0.12943 -1.465029,0.49739 -2.612262,0.33588 -3.697731,-0.52058 -2.125945,-1.67743 -3.144001,-2.21691 -4.948693,-2.6224 -1.501722,-0.33741 -4.498505,0.85752 -7.922973,3.1592 -3.289465,2.21093 -4.379276,2.40003 -6.131126,1.06383 l -1.034644,-0.78916 -0.44699,0.59344 c -0.245844,0.32639 -0.657632,0.89306 -0.915084,1.25926 -0.608296,0.86524 -2.038317,1.13163 -3.454856,0.64359 -0.602106,-0.20744 -1.261759,-0.28839 -1.465894,-0.17988 -0.892365,0.47433 -2.420687,0.53799 -3.567592,0.1486 -0.659341,-0.22385 -2.61673,-0.53859 -4.349753,-0.69942 -1.733024,-0.16083 -4.672861,-0.66891 -6.532971,-1.12907 l -3.382018,-0.83665 -3.612268,0.58287 c -1.986747,0.32058 -4.105982,0.75246 -4.70941,0.95974 -0.603429,0.20727 -1.529143,0.45659 -2.057143,0.55403 -0.528,0.0975 -1.885714,0.47074 -3.017143,0.82953 -1.131428,0.35879 -2.674286,0.72841 -3.428571,0.82139 -0.754286,0.093 -1.68,0.20966 -2.057143,0.2593 -0.377143,0.0496 -0.8862,0.0357 -1.131239,-0.0311 z"
       id="path1" />
  </g>
</svg>
