<?xml version="1.0" encoding="UTF-8" standalone="no"?>
<!-- Created with Inkscape (http://www.inkscape.org/) -->

<svg
   version="1.1"
   id="svg1"
   width="294.58286"
   height="294.58286"
   viewBox="0 0 294.58286 294.58286"
   sodipodi:docname="dragon-marble.svg"
   inkscape:version="1.3.2 (091e20e, 2023-11-25, custom)"
   xmlns:inkscape="http://www.inkscape.org/namespaces/inkscape"
   xmlns:sodipodi="http://sodipodi.sourceforge.net/DTD/sodipodi-0.dtd"
   xmlns="http://www.w3.org/2000/svg"
   xmlns:svg="http://www.w3.org/2000/svg">
  <defs
     id="defs1" />
  <sodipodi:namedview
     id="namedview1"
     pagecolor="#ffffff"
     bordercolor="#000000"
     borderopacity="0.25"
     inkscape:showpageshadow="2"
     inkscape:pageopacity="0.0"
     inkscape:pagecheckerboard="0"
     inkscape:deskcolor="#d1d1d1"
     inkscape:zoom="2.1759583"
     inkscape:cx="147.29143"
     inkscape:cy="147.29143"
     inkscape:window-width="1600"
     inkscape:window-height="837"
     inkscape:window-x="-8"
     inkscape:window-y="-8"
     inkscape:window-maximized="1"
     inkscape:current-layer="g1" />
  <g
     inkscape:groupmode="layer"
     inkscape:label="Image"
     id="g1">
    <path
       style="fill:#000000"
       d="m 226.43102,255.16978 -1.45346,-1.56164 -0.30999,-2.75836 c -0.58737,-5.22659 -1.36101,-15.11708 -1.69144,-21.62386 -0.47744,-9.40151 -0.18702,-30.75667 0.54711,-40.23094 2.53262,-32.68453 7.55298,-62.64341 15.14698,-90.389266 2.69751,-9.855753 3.60559,-13.408948 4.76674,-18.651429 0.50119,-2.262857 0.9208,-3.805714 0.93246,-3.428571 0.047,1.521259 1.92398,3.291428 3.48998,3.291428 0.27936,0 1.42459,-0.680945 2.54495,-1.513212 1.12037,-0.832267 3.07013,-2.097409 4.33281,-2.811428 1.26267,-0.714019 2.99936,-1.695889 3.85931,-2.181934 1.97427,-1.115868 2.18153,-1.11665 2.04237,-0.0077 -0.88776,7.074257 -2.37571,13.761909 -6.12374,27.523533 -3.09906,11.3788 -4.67715,17.90741 -6.42473,26.57932 -9.01008,44.71021 -11.51525,82.22782 -7.93952,118.90286 0.22798,2.33829 0.47335,4.52341 0.54528,4.85582 0.17228,0.79619 -1.42889,1.73699 -4.31373,2.53463 -1.15997,0.32073 -3.50511,1.13398 -5.21143,1.80724 -1.70632,0.67326 -3.14382,1.22435 -3.19444,1.22464 -0.0506,2.9e-4 -0.7461,-0.70221 -1.54551,-1.56112 z m 31.70115,-11.1165 c -2.13581,-5.62631 -5.12255,-24.0276 -6.20133,-38.2064 -0.55935,-7.35168 -0.55864,-22.19869 0.001,-29.06974 1.02231,-12.54296 4.96549,-42.75332 5.42384,-41.55428 0.0865,0.22628 0.23667,1.00375 0.33371,1.72769 0.15486,1.15535 0.29099,1.3709 1.11348,1.76312 2.14898,1.02477 3.40602,4.51033 4.11246,11.40314 0.17812,1.73796 0.263,1.9231 1.24249,2.71023 2.10004,1.68765 3.81804,5.22961 3.25495,6.71066 -0.17604,0.46302 -0.17232,1.47173 0.0108,2.93226 0.21605,1.72302 0.42232,2.36957 0.9123,2.85955 0.63144,0.63144 0.63219,0.64136 0.28015,3.70895 -1.29994,11.32756 -1.66868,25.0738 -0.936,34.89297 0.5877,7.87617 1.91677,18.30553 3.17286,24.89772 l 0.35638,1.87041 -1.04558,1.32276 c -0.57507,0.72752 -1.49263,1.59905 -2.03903,1.93675 -0.70888,0.43811 -1.27521,1.1752 -1.97703,2.57317 -1.67207,3.33059 -4.39235,6.41817 -6.68526,7.58793 l -1.09343,0.55782 z M 207.77143,242.035 c -1.50857,-0.97824 -3.60686,-2.18789 -4.66286,-2.6881 -1.056,-0.50022 -2.96914,-1.50126 -4.25143,-2.22454 -1.28228,-0.72329 -2.88686,-1.6004 -3.56571,-1.94915 -0.67886,-0.34874 -1.39061,-0.74078 -1.58166,-0.87119 -0.52879,-0.36095 -1.80637,-10.86438 -2.59315,-21.31916 -0.81597,-10.84257 -0.15574,-55.8979 1.17162,-79.95429 0.54674,-9.90881 1.82043,-22.16784 3.41972,-32.91428 l 0.67352,-4.525719 2.14527,-2.057143 c 1.67504,-1.606226 2.5466,-2.213801 3.97618,-2.771839 1.61942,-0.632139 1.8948,-0.669947 2.38399,-0.327304 0.31985,0.224029 0.55435,0.698915 0.5561,1.126125 0.002,0.406303 0.0785,1.195098 0.17069,1.752878 0.13692,0.828142 0.30822,1.045017 0.93398,1.182457 1.67308,0.36747 2.69631,-0.112313 4.86528,-2.281277 2.04144,-2.041446 2.06652,-2.056328 1.90251,-1.129161 -3.41249,19.290953 -4.92807,33.608953 -5.6739,53.602403 -0.7331,19.6523 -0.91662,28.58618 -0.94095,45.80572 -0.0284,20.12426 0.12147,23.38091 1.63973,35.62423 0.75096,6.0557 2.25096,16.49912 2.47683,17.24434 0.08,0.264 0.0446,0.47406 -0.0787,0.46681 -0.12331,-0.007 -1.45848,-0.81357 -2.96705,-1.79181 z m -21.39429,-11.23834 c -0.45257,-0.19824 -2.18057,-0.97211 -3.84,-1.71971 -1.65943,-0.7476 -3.42675,-1.44627 -3.92738,-1.55261 -0.50063,-0.10633 -1.94745,-0.60052 -3.21514,-1.0982 -1.2677,-0.49768 -2.92075,-1.05261 -3.67344,-1.23317 -0.83673,-0.20073 -1.42055,-0.50519 -1.5024,-0.7835 -0.60151,-2.0454 -3.96506,-36.1325 -5.34969,-54.21519 -0.98439,-12.8557 -1.1977,-19.46667 -1.04068,-32.25327 0.1447,-11.78313 0.41391,-16.71663 1.44295,-26.44387 0.62313,-5.89025 0.64424,-5.94853 2.57933,-7.12404 2.4389,-1.48155 6.50931,-3.32704 8.51502,-3.86064 0.98057,-0.26087 2.37635,-0.844955 3.10172,-1.297961 0.77521,-0.484136 1.41995,-0.722545 1.56412,-0.578377 0.1349,0.134898 0.3861,1.17067 0.55822,2.301718 0.17213,1.13104 0.40223,2.15108 0.51133,2.26675 0.10911,0.11567 -0.0163,1.78196 -0.27857,3.70286 -2.60853,19.10164 -2.93555,38.60953 -1.05858,63.14969 1.58598,20.73566 4.54309,49.12748 6.02617,57.85839 0.2932,1.72611 0.50538,3.1616 0.47149,3.18998 -0.0339,0.0284 -0.4319,-0.11061 -0.88447,-0.30885 z m -49.92,-9.91228 c -2.66118,-0.13934 -8.15514,-0.60524 -8.24946,-0.69956 -0.12009,-0.12009 -1.12223,-8.19162 -1.47311,-11.86482 -0.55662,-5.82712 -0.84193,-15.20643 -0.84685,-27.84 -0.0106,-27.2886 1.51627,-46.16948 5.66585,-70.06026 0.55213,-3.17886 1.09487,-5.88199 1.2061,-6.00697 0.29394,-0.3303 2.94676,1.08844 3.10689,1.66157 0.0746,0.26711 0.21783,1.44359 0.31825,2.6144 0.20738,2.41815 0.58855,2.85309 2.23042,2.54507 0.99054,-0.18583 7.73668,-3.52995 9.1473,-4.5344 0.45432,-0.32351 0.82604,-0.48251 0.82604,-0.35335 0,0.12917 -0.35978,2.205 -0.79951,4.61297 -3.79615,20.78767 -5.26579,36.36653 -5.92438,62.80097 -0.17388,6.97912 0.244,25.47754 0.70015,30.99428 0.32051,3.87616 0.95201,9.3501 1.51075,13.09534 0.21929,1.46987 0.3987,2.79672 0.3987,2.94857 0,0.2612 -3.69661,0.30196 -7.81714,0.0862 z M 17.826796,219.17226 c -0.37812,-0.115 -1.073518,-0.40871 -1.545329,-0.6527 l -0.857839,-0.4436 -0.166332,-8.58084 c -0.09148,-4.71946 -0.19837,-27.94528 -0.237528,-51.61293 l -0.0712,-43.0321 1.207067,-0.35689 c 0.901892,-0.26666 1.768716,-0.2923 3.428572,-0.10141 1.221827,0.14051 2.909379,0.25641 3.750115,0.25756 l 1.52861,0.002 -0.347121,2.12571 c -0.190916,1.16914 -0.487107,4.03886 -0.658201,6.37714 -0.350005,4.78341 -0.213976,8.24065 1.106189,28.11429 1.501729,22.60688 1.608939,29.61034 0.913972,59.7047 l -0.181619,7.86471 -2.356649,0.16428 c -1.296157,0.0904 -2.912078,0.21261 -3.590935,0.27168 -0.678857,0.0591 -1.543656,0.0133 -1.921775,-0.10168 z m 84.207494,-0.32822 c -0.82972,-0.10124 -2.578769,-0.19628 -3.886783,-0.2112 -2.366433,-0.027 -2.378956,-0.0309 -2.52959,-0.78141 -0.428842,-2.13676 -0.778125,-16.21004 -0.627988,-25.30286 0.318596,-19.29526 2.418401,-45.47397 5.137511,-64.05037 1.74086,-11.89324 2.66201,-16.8897 3.1898,-17.30186 0.76527,-0.59762 4.1643,-2.18808 5.80748,-2.71741 1.32104,-0.42556 1.50972,-0.43062 1.8897,-0.0506 0.37999,0.37998 0.37571,0.56407 -0.0429,1.84373 -0.78226,2.39164 -0.16704,3.54517 1.66796,3.12736 1.97795,-0.45035 4.37703,-1.27738 5.2241,-1.8009 0.51202,-0.31644 0.97386,-0.53041 1.02632,-0.47549 0.0525,0.0549 -0.13943,1.45757 -0.42643,3.117 -3.56946,20.63857 -5.37131,36.5342 -6.98011,61.57714 -0.61027,9.49972 -0.81542,26.11073 -0.42511,34.42286 0.17709,3.77143 0.39624,7.27627 0.48701,7.78855 l 0.16503,0.93141 -2.84946,-0.18633 c -1.5672,-0.10248 -3.40488,-0.0872 -4.08374,0.0341 -0.67885,0.12123 -1.91314,0.13758 -2.74285,0.0363 z m -65.111944,-1.229 c -0.101566,-0.4357 -0.257632,-9.55561 -0.346811,-20.26647 -0.215544,-25.88764 -0.103318,-28.4556 2.792453,-63.89721 0.825321,-10.10118 1.502473,-18.86461 1.504783,-19.47429 0.0057,-1.5032 0.220711,-1.75032 1.775704,-2.04082 2.181074,-0.40747 3.16664,0.28989 2.580857,1.82613 -0.157688,0.41355 -0.208426,1.27616 -0.112749,1.91691 0.223309,1.4955 0.81656,1.84762 2.404562,1.42721 1.271509,-0.33662 6.400216,-2.63321 7.061712,-3.16217 0.226286,-0.18095 0.831655,-0.41844 1.345266,-0.52777 l 0.933837,-0.19878 -0.191159,2.97968 c -0.105137,1.63883 -0.551399,7.29968 -0.991693,12.57968 -3.104367,37.22751 -3.055841,36.34225 -3.194932,58.28572 -0.06741,10.63542 -0.02393,21.97292 0.09663,25.19443 l 0.219197,5.8573 -4.388572,-0.0834 c -2.413714,-0.0459 -5.944636,0.0199 -7.846493,0.14632 l -3.457923,0.22977 z m 26.866063,0.0992 c -0.198915,-0.93986 -0.661432,-9.54738 -1.005903,-18.72 -0.190805,-5.08075 -0.241506,-13.10768 -0.132536,-20.98285 0.349604,-25.26567 1.158037,-38.97089 3.339886,-56.62046 0.902686,-7.30207 0.701298,-6.73954 2.412788,-6.73954 0.779604,0 2.463366,-0.12767 3.741694,-0.28371 2.027944,-0.24754 2.822905,-0.52822 6.236054,-2.20179 2.151501,-1.05495 4.294754,-1.99467 4.762784,-2.08828 0.75368,-0.15074 0.831489,-0.10883 0.680617,0.36652 -0.867876,2.73444 -3.039458,19.68405 -3.859901,30.12726 -1.542144,19.62957 -1.914583,50.00297 -0.842506,68.70857 0.229122,3.99771 0.484992,7.66971 0.5686,8.16 l 0.152014,0.89143 h -7.961489 -7.961489 z m 211.530961,0.18216 c -0.20779,-0.34387 -0.69709,-4.63296 -0.8891,-7.79358 -0.25287,-4.16241 1.06225,-23.89031 1.73564,-26.036 0.19804,-0.63103 0.23746,-0.60335 0.78114,0.54857 0.40304,0.85393 0.49707,1.35518 0.31757,1.69284 -0.14027,0.26383 -0.17195,1.10591 -0.0704,1.87129 0.14415,1.08667 0.35286,1.51599 0.95249,1.95932 0.42235,0.31225 1.01613,1.14475 1.31952,1.85 1.10368,2.56557 1.36588,8.51217 0.51448,11.66826 -0.16278,0.60343 -0.31658,2.0958 -0.34176,3.31639 -0.0415,2.01206 -0.14195,2.39118 -1.07568,4.06085 -0.56644,1.01288 -1.07491,2.19733 -1.12993,2.6321 -0.20083,1.58686 -0.71241,3.02744 -1.33014,3.74559 -0.34777,0.40431 -0.70048,0.62228 -0.78381,0.48437 z M 261.66902,106.50108 c 8.2e-4,-0.3887 2.73407,-16.223738 4.26255,-24.694984 0.82335,-4.563219 1.497,-8.36299 1.497,-8.443936 0,-0.08095 0.216,-0.0324 0.48,0.107893 0.264,0.140287 2.76343,0.3373 5.55429,0.437807 6.67845,0.240509 7.75746,0.451781 8.50779,1.665842 0.5735,0.92795 0.57387,0.94167 0.0561,2.108733 -0.28662,0.646089 -1.85229,2.840993 -3.47927,4.877564 -1.62698,2.036572 -3.1322,4.134858 -3.34492,4.662858 -1.03767,2.575638 -1.62751,3.612617 -2.58878,4.551274 -0.57563,0.562092 -1.12912,1.403431 -1.22997,1.869641 -0.46694,2.158635 -3.49208,6.806098 -6.82713,10.488408 -1.71695,1.89573 -2.88872,2.85698 -2.8877,2.3689 z"
       id="path1" />
  </g>
</svg>
