<?xml version="1.0" encoding="UTF-8" standalone="no"?>
<!-- Created with Inkscape (http://www.inkscape.org/) -->

<svg
   version="1.1"
   id="svg1"
   width="294.58286"
   height="294.58286"
   viewBox="0 0 294.58286 294.58286"
   sodipodi:docname="dragon-side-body-outline.svg"
   inkscape:version="1.4 (86a8ad7, 2024-10-11)"
   xmlns:inkscape="http://www.inkscape.org/namespaces/inkscape"
   xmlns:sodipodi="http://sodipodi.sourceforge.net/DTD/sodipodi-0.dtd"
   xmlns="http://www.w3.org/2000/svg"
   xmlns:svg="http://www.w3.org/2000/svg">
  <defs
     id="defs1" />
  <sodipodi:namedview
     id="namedview1"
     pagecolor="#ffffff"
     bordercolor="#000000"
     borderopacity="0.25"
     inkscape:showpageshadow="2"
     inkscape:pageopacity="0.0"
     inkscape:pagecheckerboard="0"
     inkscape:deskcolor="#d1d1d1"
     inkscape:zoom="2.766624"
     inkscape:cx="147.47215"
     inkscape:cy="147.29143"
     inkscape:window-width="1920"
     inkscape:window-height="1017"
     inkscape:window-x="-8"
     inkscape:window-y="-8"
     inkscape:window-maximized="1"
     inkscape:current-layer="g1" />
  <g
     inkscape:groupmode="layer"
     inkscape:label="Image"
     id="g1">
    <path
       style="fill:#000000"
       d="m 226.74633,257.05023 c -1.73739,-2.14644 -3.79751,-3.83065 -6.23173,-5.09463 -3.8328,-1.99018 -7.13805,-4.25658 -9.26102,-6.35023 -0.34767,-0.34287 -1.52025,-1.15159 -2.60572,-1.79715 -1.08546,-0.64556 -2.529,-1.55028 -3.20786,-2.01048 -0.67886,-0.46021 -2.43028,-1.41272 -3.89205,-2.1167 -1.46177,-0.70399 -4.18857,-2.1545 -6.05957,-3.22336 -1.871,-1.06887 -3.50506,-1.9434 -3.63124,-1.9434 -0.12617,0 -1.59594,-0.66925 -3.26613,-1.48724 -4.73,-2.31652 -8.64327,-4.02789 -10.44244,-4.56675 -0.90514,-0.27109 -2.63314,-0.86239 -3.84,-1.31401 -1.20686,-0.45162 -4.29257,-1.37051 -6.85714,-2.04198 -8.57653,-2.24557 -15.42892,-3.16107 -23.72572,-3.16984 -6.3076,-0.007 -13.68438,-0.45588 -17.14285,-1.04391 -3.15904,-0.53711 -9.43631,-0.90684 -18.10286,-1.06625 -3.77143,-0.0694 -9.264001,-0.2446 -12.205715,-0.38939 -4.33716,-0.21348 -20.512798,-0.34366 -51.154285,-0.41168 -3.809539,-0.008 -13.899336,0.38573 -17.691429,0.69117 -4.946172,0.39839 -10.613617,0.33559 -11.47768,-0.12717 -0.400418,-0.21445 -0.944034,-0.45744 -1.208034,-0.53997 -0.452889,-0.14157 -0.480009,-1.68035 -0.480164,-27.24437 -9e-5,-14.90187 -0.08212,-38.47594 -0.18229,-52.3868 l -0.182127,-25.29248 0.799433,-0.31337 c 0.452407,-0.17733 1.871017,-0.27999 3.268005,-0.23648 6.486814,0.20203 9.740024,-0.0236 14.4,-0.99863 6.305901,-1.31945 13.179219,-1.91477 13.890855,-1.20313 0.271795,0.27179 0.175615,1.36637 -0.329966,3.7552 -0.363902,1.71941 0.755692,1.52132 6.042606,-1.06912 2.751995,-1.3484 3.63997,-1.64973 5.485715,-1.86158 1.21122,-0.13902 2.661111,-0.44581 3.22198,-0.68177 1.76328,-0.74181 2.658299,-0.56938 4.191667,0.80758 1.684562,1.51273 2.077569,1.62455 4.903602,1.39525 3.222742,-0.26149 4.610547,-0.69777 8.723923,-2.74251 3.17907,-1.5803 3.990207,-1.86501 6.258189,-2.1966 2.870469,-0.41968 5.52164,-0.18776 6.342168,0.55481 0.252097,0.22815 0.593934,0.95323 0.759637,1.6113 0.462709,1.83758 0.924218,2.15419 2.89395,1.98537 2.229954,-0.19113 6.5332,-1.63284 8.23515,-2.75902 0.75929,-0.50242 2.42967,-1.31971 3.71195,-1.8162 1.28229,-0.49649 2.54892,-1.01282 2.81474,-1.14739 0.519,-0.26274 1.76865,-0.0566 2.32812,0.38408 0.43316,0.34118 0.43909,1.75519 0.014,3.34442 -0.18085,0.67617 -0.24066,1.31756 -0.13292,1.4253 0.38054,0.38054 4.74495,-1.11868 7.18174,-2.467 1.35771,-0.75125 3.27085,-1.7885 4.25142,-2.305 0.98058,-0.5165 2.15315,-1.21877 2.60572,-1.5606 1.30301,-0.98416 2.30074,-1.40499 4.84881,-2.04517 2.42269,-0.60867 3.22092,-0.5827 4.68003,0.15228 1.24641,0.62783 1.7032,1.6271 1.85402,4.05585 0.13447,2.16558 0.15047,2.20683 0.82285,2.12177 0.70053,-0.0886 1.5535,-0.4648 3.97715,-1.75395 0.75428,-0.40121 2.05028,-1.04195 2.88,-1.42387 0.82971,-0.38193 2.12571,-1.22912 2.88,-1.88266 2.10758,-1.82608 5.88794,-3.13835 12.03592,-4.17799 3.40466,-0.57574 3.91074,-0.54379 4.45119,0.28103 0.44437,0.67821 0.42318,2.27867 -0.0464,3.5023 -0.31243,0.81419 0.6299,0.53744 2.08415,-0.61208 2.10115,-1.66086 9.29182,-4.954602 10.81654,-4.954602 0.17253,0 1.0311,-0.432 1.90793,-0.96 0.87683,-0.528 1.82326,-0.96 2.10318,-0.96 0.7073,0 1.61786,1.990812 1.62308,3.548662 0.008,2.34625 0.78701,2.46318 2.99207,0.44903 2.23731,-2.043603 4.89761,-4.008226 7.29759,-5.389238 1.2916,-0.743221 2.47259,-1.351311 2.62442,-1.351311 0.15184,0 1.19672,-0.871403 2.32196,-1.936451 2.08765,-1.975962 4.1129,-3.118137 6.08625,-3.432446 0.86716,-0.138118 1.13114,-0.0535 1.68896,0.54141 0.61674,0.657752 0.71573,1.071622 0.81879,3.423375 0.0259,0.591081 0.12069,0.638091 0.99913,0.495539 0.53378,-0.08662 1.36692,-0.478224 1.85143,-0.87023 1.28085,-1.03632 4.64139,-4.911809 6.1943,-7.143487 1.69142,-2.430731 1.79544,-2.512308 4.01196,-3.146175 2.70226,-0.772776 4.81102,-0.316606 7.0007,1.514396 0.67553,0.564883 1.63518,1.221402 2.13254,1.45893 0.89035,0.425211 0.9144,0.419362 1.55923,-0.379352 0.36022,-0.446173 1.06414,-1.463102 1.56428,-2.259843 2.12359,-3.38298 5.98485,-8.547577 7.77814,-10.403589 1.69586,-1.755181 2.05225,-1.99922 2.91956,-1.99922 0.71653,0 1.22712,0.223454 1.85869,0.813435 0.838,0.782809 0.86862,0.888661 0.81327,2.811429 -0.0633,2.198206 0.25719,3.296053 1.1891,4.073618 0.96172,0.802442 1.73251,0.631508 3.56987,-0.791667 0.93853,-0.726966 2.75556,-1.908002 4.03785,-2.624525 1.28229,-0.716522 3.13371,-1.787897 4.11429,-2.380833 2.07694,-1.255899 4.00443,-1.901457 5.6773,-1.901457 0.93812,0 1.63697,0.27506 3.31022,1.302857 l 2.12105,1.302857 5.21143,0.02414 c 3.24758,0.01505 5.49925,0.14305 5.97522,0.339686 0.42009,0.173549 0.85209,0.302354 0.96,0.286234 0.56857,-0.08494 0.83668,0.134892 1.41116,1.157044 1.17343,2.087842 0.57178,3.41779 -4.17786,9.23504 -1.48826,1.822788 -2.32805,3.164482 -2.98237,4.764807 -0.6156,1.505637 -1.33319,2.682259 -2.21418,3.630528 -0.71687,0.771625 -1.3034,1.623662 -1.3034,1.893416 0,1.591974 -3.90023,7.365871 -7.42668,10.994451 l -2.37973,2.44864 -0.17903,1.7475 c -0.0985,0.96112 -0.30902,2.08554 -0.46788,2.49872 -0.15886,0.41317 -0.34428,1.55351 -0.41204,2.53408 -0.16851,2.43859 -0.55984,4.28285 -1.52462,7.18523 -0.74096,2.22904 -0.78937,2.586 -0.50918,3.75399 0.36258,1.51139 0.0377,3.39327 -0.86214,4.99436 -0.51783,0.92135 -0.54105,1.16877 -0.26072,2.77852 0.16925,0.97192 0.30773,2.27579 0.30773,2.8975 0,1.02197 0.092,1.17401 0.95886,1.58538 1.87639,0.89041 3.63047,4.21759 3.81585,7.238 0.053,0.86415 0.23471,1.82956 0.40372,2.14536 0.16901,0.31579 0.30729,1.31589 0.30729,2.22244 0,1.64159 0.007,1.65492 1.61221,3.2908 2.3624,2.40683 2.87262,3.62499 2.72181,6.49835 -0.07,1.33347 -0.0131,2.31292 0.13424,2.31292 0.14342,0 0.1769,0.41976 0.0763,0.95616 -0.10182,0.54276 -0.0471,1.20334 0.12659,1.52787 0.16829,0.31445 1.52277,1.36897 3.00996,2.34339 2.51015,1.64467 2.76433,1.89555 3.54574,3.49952 1.01046,2.07416 1.11215,4.06668 0.31992,6.26849 -0.28701,0.79766 -0.58915,1.944 -0.67142,2.54743 -0.0823,0.60343 -0.22929,1.36397 -0.32669,1.6901 -0.15006,0.50241 0.009,0.6751 1.03894,1.13087 1.84864,0.81774 2.50555,2.07822 2.67528,5.13332 0.12478,2.24595 0.19387,2.4933 0.76611,2.74285 0.80927,0.35291 1.8517,2.56027 2.20206,4.66286 0.3564,2.13882 0.20888,8.42819 -0.23481,10.01143 -0.19025,0.67886 -0.32314,2.09901 -0.29532,3.15589 0.0467,1.77558 -0.044,2.11333 -1.19372,4.44446 -0.68437,1.38757 -1.24432,2.71193 -1.24432,2.94303 0,1.17585 -0.76854,3.09477 -1.55521,3.88312 -0.77174,0.77339 -0.85243,0.99855 -0.71774,2.00277 0.24944,1.85968 -2.0502,8.08506 -4.11376,11.13644 -0.84404,1.24808 -2.42258,2.84934 -3.419,3.46822 -0.49029,0.30452 -0.89143,0.76686 -0.89143,1.02743 0,1.21474 -4.0268,6.58018 -6.04051,8.04858 -1.16055,0.84628 -3.95312,1.80053 -5.95908,2.0363 -1.17853,0.13851 -1.56307,0.31847 -2.00418,0.93797 -0.71337,1.00182 -4.07754,3.43927 -5.89583,4.27172 -0.8157,0.37343 -2.47933,0.78784 -3.86361,0.96242 -1.56856,0.19781 -2.82033,0.52867 -3.52822,0.93254 -0.60343,0.34427 -1.83771,0.83249 -2.74286,1.08493 -1.9937,0.55602 -4.73664,1.52243 -6.5553,2.3096 -0.73913,0.31992 -1.82935,0.69076 -2.42272,0.82408 -0.9813,0.22048 -1.1323,0.17637 -1.66993,-0.48784 z m 3.28807,-1.44121 c 1.85363,-0.80242 4.52966,-1.74526 6.94846,-2.44814 1.13142,-0.32879 2.42742,-0.87538 2.88,-1.21465 0.60698,-0.45503 1.37843,-0.66663 2.94057,-0.80655 2.95596,-0.26476 4.19304,-0.69824 6.56984,-2.30209 2.17467,-1.46745 2.94315,-2.25062 4.06673,-4.14445 1.47392,-2.48435 2.27429,-3.37662 4.05136,-4.51653 1.70679,-1.09482 3.39449,-2.80472 4.11662,-4.17075 0.62792,-1.18784 1.15867,-4.26725 0.98708,-5.72716 -0.16313,-1.38804 -0.11902,-1.52701 0.93956,-2.95995 1.12497,-1.52282 2.36578,-2.62047 4.24028,-3.75104 1.27421,-0.76852 1.57351,-1.30432 1.57426,-2.81825 3.9e-4,-0.78542 0.2783,-1.71059 0.82588,-2.7494 0.47211,-0.89565 1.04817,-2.67361 1.34611,-4.15468 0.28645,-1.42397 0.65537,-2.84045 0.81983,-3.14774 0.16446,-0.3073 0.29902,-0.78478 0.29902,-1.06107 0,-0.27629 0.73335,-1.79208 1.62966,-3.36841 l 1.62966,-2.86606 -0.73823,-0.30844 c -0.42059,-0.17572 -3.3937,-0.38547 -6.90966,-0.48747 -7.19454,-0.20871 -12.16892,-0.73946 -17.14286,-1.8291 -1.96114,-0.42962 -4.55314,-0.93177 -5.76,-1.11588 -1.20686,-0.18411 -2.50286,-0.48701 -2.88,-0.67312 -0.37714,-0.18611 -1.55912,-0.53517 -2.62661,-0.77568 -2.30695,-0.51976 -4.40305,-0.28256 -6.77575,0.76675 -0.83205,0.36798 -2.17347,0.85001 -2.98094,1.07119 -3.47417,0.95163 -6.73895,2.57663 -9.20172,4.58001 -2.65866,2.16273 -3.58239,2.70229 -6.00028,3.50483 -3.39619,1.12726 -3.79099,1.08206 -6.15029,-0.70415 -1.44805,-1.0963 -2.44349,-1.39601 -5.73247,-1.72593 -1.927,-0.1933 -3.04875,-0.47608 -4.44917,-1.12158 l -1.87253,-0.8631 -1.70974,1.58291 c -1.99988,1.85154 -2.72078,2.21052 -5.88032,2.92822 -1.17674,0.2673 -1.48601,0.47346 -1.92,1.27984 -0.63437,1.17871 -2.25254,2.39001 -3.50724,2.62539 -1.19277,0.22377 -2.64644,-0.27627 -5.08303,-1.74848 -2.0424,-1.23404 -3.11599,-1.44782 -6.97016,-1.38796 -2.46241,0.0382 -3.92494,-0.65261 -5.27498,-2.49174 -1.25952,-1.71581 -2.13396,-2.16575 -4.20904,-2.16575 -2.05358,0 -3.89427,-0.77303 -6.9771,-2.93013 -1.2281,-0.85933 -2.36724,-1.69538 -2.53141,-1.8579 -0.16417,-0.16252 -0.96645,-0.75132 -1.78285,-1.30846 l -1.48437,-1.01297 -1.90565,0.53525 c -1.10471,0.31029 -2.3513,0.89339 -2.96598,1.38736 -0.58318,0.46866 -1.50652,0.97531 -2.05187,1.12588 -0.54534,0.15058 -1.43236,0.62186 -1.97116,1.04728 -1.19216,0.94133 -4.14863,1.8416 -6.73963,2.05229 -1.10759,0.0901 -2.36636,0.38846 -2.97491,0.70523 -1.62291,0.84477 -4.18129,1.34479 -6.90345,1.34925 -2.1866,0.004 -2.66506,-0.0898 -4.13575,-0.80731 -1.53631,-0.74952 -1.93484,-0.81845 -5.22784,-0.90429 -3.23745,-0.0844 -3.70767,-0.16285 -5.1214,-0.85452 -0.85615,-0.41888 -1.55664,-0.87099 -1.55664,-1.0047 0,-0.1337 -0.52458,-0.38523 -1.16572,-0.55895 -0.64114,-0.17372 -2.27657,-0.72116 -3.63428,-1.21653 -3.005543,-1.09658 -6.30255,-1.65192 -7.378561,-1.24282 -0.411721,0.15653 -1.326835,0.28894 -2.033586,0.29424 -1.814583,0.0136 -4.364563,0.61986 -5.799816,1.37889 -1.32243,0.69937 -2.930603,0.80405 -6.31947,0.41137 -1.582364,-0.18336 -1.948508,-0.12905 -3.255879,0.48293 -0.810162,0.37923 -2.416002,1.54512 -3.568534,2.59087 -1.152532,1.04575 -2.479713,2.10004 -2.949291,2.34287 -0.469579,0.24282 -2.19631,0.66329 -3.837181,0.93435 -4.282907,0.70753 -9.078445,0.43883 -12.857687,-0.72044 -3.242355,-0.99458 -4.946412,-1.05956 -8.300046,-0.31649 -2.69211,0.59649 -11.31945,1.66316 -13.451864,1.66316 -0.818349,0 -1.480311,-0.14142 -1.604883,-0.34286 -0.116614,-0.18857 -0.17496,-1.23199 -0.129659,-2.3187 l 0.08237,-1.97585 -1.464535,-1.5241 -1.464535,-1.5241 -5.407991,0.25578 c -2.974395,0.14068 -5.526478,0.32901 -5.671295,0.41851 -0.144817,0.0895 -0.642261,0.92109 -1.105431,1.84798 l -0.842127,1.68524 0,6.66987 0,6.66987 0.656356,0.43006 c 0.558848,0.36617 1.465486,0.41047 6.102857,0.29816 2.995575,-0.0726 8.285358,-0.27381 11.755072,-0.44725 8.977391,-0.44874 63.286788,-0.31829 64.061118,0.15388 0.0839,0.0512 2.984471,0.11243 6.445711,0.13615 3.46125,0.0237 7.95946,0.14908 9.99603,0.27856 2.03657,0.12948 4.96386,0.29847 6.50509,0.37553 1.54122,0.0771 4.31837,0.38235 6.17142,0.67842 3.62959,0.57992 18.57761,1.32712 19.90109,0.9948 0.90931,-0.22833 7.76127,0.48053 12.26811,1.26918 3.06883,0.53701 11.5829,2.61375 13.44,3.27826 0.45257,0.16194 2.67429,0.94816 4.93714,1.74715 3.84136,1.35634 5.52271,2.08248 12.20572,5.27136 4.53909,2.16589 6.32986,3.08047 7.08647,3.61923 0.40457,0.28808 2.27733,1.2953 4.1617,2.23826 3.74371,1.87342 10.02767,5.7044 11.07522,6.75194 1.67254,1.67255 5.12261,4.02325 8.80804,6.00134 2.33162,1.25146 3.42222,2.04 4.8,3.47054 0.98057,1.01812 1.98862,1.85472 2.24011,1.8591 0.2515,0.004 1.05378,-0.25025 1.78286,-0.56586 z m 27.16001,-11.10243 c 1.02764,-0.2368 2.42387,-0.78584 3.10273,-1.22009 2.01657,-1.28996 5.74859,-6.18162 5.7567,-7.54547 0.002,-0.30586 0.17267,-0.79958 0.37968,-1.09714 0.20701,-0.29757 0.46893,-0.97303 0.58205,-1.50103 0.11311,-0.528 0.4207,-1.392 0.68352,-1.92 0.26282,-0.528 0.63504,-1.62753 0.82715,-2.44339 0.75677,-3.21389 3.47631,-7.97947 4.5536,-7.97947 0.59227,0 0.45892,0.37321 -0.44158,1.23595 -0.99141,0.94983 -2.92357,4.89168 -3.3326,6.79893 -0.16184,0.75465 -0.58748,2.00181 -0.94585,2.77146 -1.14121,2.45087 -0.84009,2.70925 0.9558,0.82016 2.89625,-3.04656 6.31825,-11.7533 4.9514,-12.59806 -0.16114,-0.0996 -0.23139,-0.34157 -0.15612,-0.53773 0.0756,-0.19694 -0.1003,-0.41868 -0.39273,-0.49515 -0.95687,-0.25023 -0.60453,-0.80718 0.43395,-0.68595 0.74787,0.0873 1.09928,-0.032 1.56996,-0.53301 0.51443,-0.54758 0.54509,-0.68427 0.20217,-0.90113 -0.58145,-0.36771 -0.57365,-0.3707 -2.20166,0.84396 -0.81678,0.6094 -1.75312,1.17529 -2.08076,1.25752 -0.64303,0.16139 -0.91217,0.81734 -0.91808,2.23757 -0.006,1.37902 -0.68465,2.70453 -1.73935,3.3959 -0.90829,0.5954 -0.96339,0.72361 -1.14533,2.66518 -0.10512,1.12183 -0.36856,2.54475 -0.58541,3.16204 -0.63883,1.81854 -2.64217,5.12087 -3.3229,5.47755 -0.34626,0.18142 -1.27605,1.17768 -2.0662,2.2139 -0.79015,1.03623 -2.05235,2.28801 -2.80488,2.78173 -1.96662,1.29026 -3.21588,2.40551 -3.78375,3.37787 -0.57379,0.9825 -0.55215,0.98721 1.91849,0.4179 z m 7.59409,-11.0329 c 0.53096,-0.87404 1.21561,-2.17295 1.52146,-2.88646 0.61103,-1.42548 1.07958,-4.85009 0.66358,-4.85009 -0.32878,0 -2.04296,1.8201 -2.67684,2.84226 -0.35289,0.56904 -0.44362,1.09744 -0.32967,1.92 0.0865,0.62418 -0.01,1.90631 -0.21377,2.84917 -0.20404,0.94286 -0.27178,1.71429 -0.15055,1.71429 0.12123,0 0.65484,-0.71513 1.18579,-1.58917 z m 8.94297,-16.92076 c 1.96013,-1.50828 3.02791,-2.83046 4.42048,-5.47363 0.96407,-1.82987 1.07091,-2.23416 1.07091,-4.05263 0,-1.11099 0.18954,-2.74771 0.42121,-3.63715 0.58751,-2.25558 0.3706,-2.60074 -0.87447,-1.39154 -0.55384,0.53789 -1.14129,1.21125 -1.30544,1.49637 -0.16415,0.28512 -1.00816,1.74224 -1.87559,3.23806 -0.86743,1.49581 -1.57714,2.99386 -1.57714,3.32899 0,0.33513 -0.17646,0.8827 -0.39214,1.21682 -0.21567,0.33412 -0.58434,1.63086 -0.81925,2.88165 -0.23492,1.25078 -0.55217,2.50781 -0.70501,2.79339 -0.63223,1.18134 -0.3197,1.10489 1.63644,-0.40033 z m 3.02281,-1.30158 c 0,-0.16054 -0.17428,-0.13388 -0.41142,0.0629 -0.22629,0.1878 -0.41143,0.38419 -0.41143,0.43641 0,0.0522 0.18514,0.0239 0.41143,-0.0629 0.22628,-0.0868 0.41142,-0.28322 0.41142,-0.43641 z m -92.26379,-4.84978 c 0.47091,-0.28715 1.21505,-1.0564 1.65364,-1.70944 0.43858,-0.65304 1.10244,-1.27525 1.47522,-1.38269 4.44518,-1.2811 4.65153,-1.37905 6.61565,-3.14024 1.07116,-0.96049 2.14821,-1.74625 2.39343,-1.74613 0.24522,1.2e-4 1.24814,0.38134 2.22871,0.84715 1.34576,0.6393 2.40069,0.9061 4.3029,1.08826 3.21493,0.30785 5.5203,1.08503 6.85513,2.31097 0.57623,0.52922 1.28719,0.9628 1.57992,0.96352 0.97257,0.002 5.14563,-1.49533 5.76453,-2.06891 1.23839,-1.1477 1.10073,-5.90759 -0.25365,-8.77053 -0.78121,-1.65132 -0.70934,-2.32834 0.13642,-1.28514 1.06497,1.31356 1.63761,3.50121 1.63761,6.25608 v 2.61247 l 1.16571,-0.83818 c 2.42019,-1.74019 3.20292,-3.40248 3.21615,-6.83019 0.008,-2.02852 0.60308,-2.2738 0.82957,-0.34182 l 0.13714,1.16986 0.56153,-0.64259 c 0.30884,-0.35343 1.35798,-1.72007 2.33143,-3.03698 0.97344,-1.31691 1.93739,-2.39691 2.1421,-2.4 0.20471,-0.003 0.31268,0.14951 0.23992,0.33911 -0.19549,0.50943 -3.69797,5.14359 -4.62839,6.12383 -0.74167,0.7814 -1.54246,2.73843 -1.24305,3.03785 0.0711,0.0711 1.28351,-0.35879 2.69428,-0.95527 1.41077,-0.59649 2.9871,-1.17434 3.50295,-1.28412 0.51586,-0.10977 1.77717,-0.55673 2.80293,-0.99322 3.05125,-1.29843 7.19718,-1.33587 9.97344,-0.0901 0.45257,0.20308 1.99543,0.56513 3.42857,0.80456 1.43315,0.23942 3.65486,0.6854 4.93715,0.99105 2.03869,0.48596 5.71695,1.02764 10.28571,1.51474 0.75429,0.0804 4.39543,0.25904 8.09143,0.39694 3.696,0.1379 7.09029,0.29018 7.54286,0.33839 1.15997,0.12357 1.41095,-0.007 2.03118,-1.05843 1.68631,-2.85809 1.11798,-9.31715 -0.86358,-9.81449 -0.85527,-0.21466 -1.30475,-1.64636 -1.30475,-4.15593 0,-2.02827 -0.72686,-3.70341 -1.60695,-3.70341 -0.25579,0 -0.87612,-0.37543 -1.37851,-0.8343 -0.78878,-0.72043 -0.88902,-0.95439 -0.7345,-1.71428 0.0984,-0.484 0.27885,-1.49713 0.40097,-2.25142 0.12212,-0.75429 0.43122,-1.84488 0.68689,-2.42354 0.2944,-0.66631 0.43475,-1.57152 0.38276,-2.46857 l -0.0821,-1.41646 -3.15429,0.0915 c -1.73486,0.0504 -4.20343,-0.0371 -5.48571,-0.19431 -1.28229,-0.15722 -4.61486,-0.31421 -7.40572,-0.34886 l -5.07428,-0.063 -4.52572,1.53934 c -2.48914,0.84664 -5.94514,1.80413 -7.68,2.12775 -1.73486,0.32363 -3.77143,0.76203 -4.52571,0.97423 -1.91561,0.5389 -7.14164,1.01652 -8.73091,0.79794 -1.99607,-0.27453 -4.2099,0.0821 -4.88947,0.78761 -0.39739,0.41258 -0.61304,0.49068 -0.69986,0.25346 -0.24674,-0.67418 -3.23083,-0.31892 -8.53265,1.01583 -0.84206,0.21199 -1.4972,0.21391 -2.26692,0.007 -0.59544,-0.16033 -1.51004,-0.21133 -2.03247,-0.11332 -0.84419,0.15837 -0.91751,0.23863 -0.65911,0.72146 0.21172,0.39561 0.46643,0.49917 0.93711,0.38104 0.84119,-0.21113 1.1347,0.27249 0.40303,0.66407 -0.79392,0.4249 -1.5759,0.10116 -2.07174,-0.85768 -0.33958,-0.65669 -0.5412,-0.78073 -1.02556,-0.63093 -0.82463,0.25502 -6.70463,2.54905 -7.27444,2.83806 -4.4049,2.23413 -5.9899,2.49487 -7.61785,1.25318 -0.95734,-0.7302 -1.02419,-0.73999 -4.12524,-0.60404 -1.73367,0.076 -3.21529,0.20135 -3.29249,0.27855 -0.0772,0.0772 0.30369,1.47839 0.84642,3.11375 1.35512,4.08327 1.40679,4.57568 0.69558,6.62946 -0.4668,1.348 -0.57822,2.19105 -0.49841,3.77143 0.0766,1.51603 0.0139,2.03536 -0.24541,2.03536 -0.61473,0 -0.57083,-4.61157 0.0582,-6.11713 0.22905,-0.54817 0.41644,-1.35156 0.41644,-1.7853 0,-0.91026 -2.06635,-7.43931 -2.48788,-7.86097 -0.27128,-0.27136 -4.78247,-0.72127 -6.90049,-0.68819 -0.56246,0.009 -1.54989,0.25528 -2.19428,0.54776 -1.59886,0.7257 -2.59646,0.67647 -3.8465,-0.18981 -0.99135,-0.687 -1.14049,-0.71379 -2.34617,-0.42145 -0.70815,0.17171 -1.90468,0.38692 -2.65896,0.47825 -0.75429,0.0913 -2.13734,0.42528 -3.07345,0.74212 -1.56036,0.52813 -1.83429,0.54567 -3.29143,0.21078 -0.87417,-0.20092 -2.51512,-0.45038 -3.64655,-0.55437 -1.13143,-0.10398 -3.5008,-0.57762 -5.26526,-1.05252 -3.68672,-0.99227 -4.16878,-1.02077 -7.18737,-0.4249 -1.84109,0.36342 -2.48733,0.6418 -3.77259,1.62507 -1.88969,1.44569 -3.9073,2.54349 -5.07835,2.76318 -0.6668,0.12509 -1.35246,-0.0696 -2.89762,-0.8229 -2.48959,-1.21368 -3.79809,-1.26549 -7.71579,-0.30554 -2.14069,0.52454 -3.37951,0.66684 -5.38588,0.61866 -1.94185,-0.0466 -2.97247,0.0649 -4.04526,0.43781 -1.85775,0.64574 -2.7364,0.44263 -4.46384,-1.03189 -1.50091,-1.28115 -2.89894,-1.81519 -5.20518,-1.98835 -2.17429,-0.16325 -2.34104,-0.15872 -5.211432,0.14175 -2.567297,0.26875 -4.018058,0.67015 -5.991219,1.65769 -0.551687,0.27612 -1.45065,0.5711 -1.997695,0.65553 -0.547046,0.0844 -1.966475,0.55723 -3.154286,1.05068 -1.780017,0.73947 -2.509222,0.89522 -4.148229,0.88606 -1.093714,-0.006 -1.988571,0.10714 -1.988571,0.25169 0,0.14455 0.327724,0.65092 0.728275,1.12527 0.966254,1.14427 2.008566,3.4147 2.011903,4.38245 0.0035,1.01323 -0.610781,0.83049 -0.837247,-0.24908 -0.207263,-0.98803 -1.506512,-3.57449 -1.925702,-3.83357 -0.169118,-0.10452 -0.484326,-0.61327 -0.700462,-1.13055 -0.384123,-0.91934 -0.425192,-0.93866 -1.823442,-0.85795 -1.39332,0.0804 -1.429953,0.10395 -1.410651,0.90543 0.0109,0.45258 0.119846,1.42489 0.242104,2.16071 0.178539,1.07454 0.149036,1.31342 -0.149909,1.21377 -0.442494,-0.14749 -0.78335,-1.51019 -0.822092,-3.2866 -0.03392,-1.55523 -0.111394,-1.5953 -3.404205,-1.76072 -1.357715,-0.0682 -3.130075,-0.17505 -3.938579,-0.23743 l -1.470008,-0.11343 0.105469,1.83471 c 0.0764,1.3291 0.270078,2.06147 0.702785,2.65757 0.832525,1.14687 1.094583,2.33142 0.515782,2.33142 -0.24264,0 -0.441164,-0.19325 -0.441164,-0.42946 0,-0.2362 -0.146147,-0.69906 -0.324771,-1.02857 -0.300191,-0.55376 -0.34699,-0.49558 -0.618332,0.76879 -0.211513,0.98559 -0.438571,1.39583 -0.812393,1.46782 -0.420274,0.0809 -0.472878,0.003 -0.276919,-0.4079 0.133051,-0.2793 0.281251,-2.14972 0.329332,-4.15648 0.06693,-2.79339 0.176416,-3.68281 0.467083,-3.79435 0.208814,-0.0801 1.065227,-0.003 1.90314,0.17058 0.837913,0.17395 1.775486,0.23629 2.083497,0.13853 0.545169,-0.17303 0.542233,-0.19173 -0.110729,-0.70535 -0.770905,-0.60639 -4.115362,-1.83726 -5.931336,-2.18293 C 65.424,181.98575 64.189714,181.6103 63.36,181.28064 c -0.829715,-0.32966 -2.496,-0.7229 -3.702858,-0.87387 -3.792493,-0.47442 -10.924939,-0.47409 -15.085714,6.9e-4 -2.112,0.241 -5.669175,0.44848 -7.904835,0.46108 -4.731138,0.0266 -4.599603,-0.0538 -4.66111,2.85207 -0.05983,2.82694 0.321841,12.71383 0.626689,16.23367 0.150253,1.73486 0.275195,3.92572 0.27765,4.86858 l 0.0045,1.71428 h 0.997617 c 1.764939,0 10.605652,-1.10574 12.305241,-1.53906 3.351919,-0.85459 5.220174,-0.81887 8.666245,0.16572 3.711558,1.06044 6.748601,1.35525 10.670897,1.03582 4.732531,-0.38542 5.382902,-0.64236 8.243243,-3.2566 2.39456,-2.18854 3.208307,-2.6738 5.608186,-3.34434 0.603428,-0.1686 1.13661,-0.33075 1.184849,-0.36032 0.04824,-0.0296 -0.181993,-0.58243 -0.511625,-1.22856 -0.75154,-1.47314 -1.70244,-4.85305 -1.470799,-5.22785 0.276629,-0.4476 0.566896,0.0576 1.04787,1.82376 0.246495,0.90515 0.772863,2.34768 1.169705,3.20563 0.683474,1.47762 0.792815,1.577 2.072945,1.8841 0.759907,0.1823 1.445374,0.21986 1.566085,0.0858 0.420213,-0.46665 0.838113,-2.12173 0.838113,-3.31932 0,-0.85014 0.103197,-1.18234 0.342857,-1.10367 0.512329,0.16819 0.567779,1.69449 0.117379,3.23095 l -0.398696,1.36008 0.723515,-0.16988 c 0.397934,-0.0934 1.093802,-0.38581 1.546373,-0.64973 1.283526,-0.74848 5.876813,-1.62852 8.914286,-1.70791 1.774493,-0.0464 4.786529,0.54006 6.514329,1.26834 0.94288,0.39743 2.38439,0.89713 3.20335,1.11044 1.67199,0.43549 2.62518,0.88184 2.62518,1.22928 0,0.12836 0.46286,0.45399 1.02857,0.72363 0.76693,0.36555 2.00536,0.53112 4.86857,0.65092 3.48437,0.14578 3.97289,0.23028 5.27495,0.91243 1.24833,0.65399 1.74917,0.75176 3.85095,0.75176 2.47996,0 5.0931,-0.51465 6.17272,-1.21571 0.33547,-0.21784 2.02938,-0.60306 3.76424,-0.85604 1.73485,-0.25298 3.70971,-0.69666 4.38857,-0.98596 0.67886,-0.28929 0.92571,-0.46996 0.54857,-0.40147 -0.37714,0.0685 -1.91934,0.21289 -3.42711,0.32092 -1.66879,0.11957 -2.98678,0.3572 -3.36856,0.60735 -0.83829,0.54927 -1.1349,0.19101 -0.42752,-0.51638 0.40478,-0.40478 1.05712,-0.60646 2.31619,-0.71609 1.89207,-0.16475 3.84739,-0.99149 4.82016,-2.03804 0.7909,-0.85089 1.21018,-1.96453 1.4218,-3.77642 0.20652,-1.76818 0.85325,-2.25983 0.87102,-0.66216 l 0.0117,1.05143 1.0851,-1.23429 c 1.49197,-1.69709 2.02684,-3.41585 1.80519,-5.8008 -0.1458,-1.56867 -0.10635,-1.8792 0.23869,-1.8792 0.31882,0 0.42481,0.392 0.4635,1.71429 0.10066,3.43965 -0.29729,4.68411 -2.17157,6.79098 -1.08666,1.22152 -1.09657,1.25216 -0.80766,2.49739 l 0.29249,1.2607 2.31226,-1.88025 c 2.34164,-1.90415 2.79809,-2.15599 2.78643,-1.53739 -0.006,0.30588 -3.49497,3.22264 -4.12881,3.45143 -0.13932,0.0503 -0.2533,0.21944 -0.2533,0.37589 0,0.15646 0.54826,-0.16478 1.21835,-0.71388 1.14408,-0.93748 1.66774,-1.126 4.76364,-1.71496 0.93538,-0.17795 3.06944,0.35908 3.06944,0.77241 0,0.38378 5.4542,4.31959 7.22428,5.21312 1.42418,0.71893 1.93877,0.83097 3.76162,0.81901 l 2.11174,-0.0139 1.44282,1.45768 c 0.79355,0.80173 1.55557,1.65917 1.69338,1.90542 0.50125,0.89569 1.70025,1.19287 5.52064,1.36835 3.64171,0.16727 3.8359,0.20646 5.00323,1.0096 1.53002,1.05268 3.92934,2.17819 4.648,2.18036 0.30172,9.1e-4 0.93387,-0.23329 1.40478,-0.52044 z m -9.69774,-7.18792 c 0.18226,-2.7103 0.63532,-4.91754 1.15536,-5.62874 0.65762,-0.89934 0.70671,-0.24491 0.14607,1.94717 -0.30061,1.17537 -0.58994,2.94816 -0.64295,3.93953 -0.0625,1.16856 -0.22243,1.8445 -0.45475,1.92194 -0.28391,0.0946 -0.32623,-0.35827 -0.20373,-2.1799 z M 58.56,203.63779 c -0.452572,-0.36526 -1.254858,-0.73711 -1.782858,-0.82633 -1.49017,-0.25181 -1.92,-0.40434 -1.92,-0.68137 0,-0.81923 3.804946,0.21905 4.683895,1.27811 0.622397,0.74995 -0.120804,0.92388 -0.981037,0.22959 z m 117.88729,-1.11142 c 0.0848,-0.43408 0.47136,-1.8215 0.85912,-3.08316 0.38776,-1.26166 0.70502,-2.90738 0.70502,-3.65714 0,-0.97187 0.0984,-1.32868 0.34285,-1.24293 0.90524,0.31757 -0.65104,8.30244 -1.68537,8.64722 -0.28148,0.0938 -0.33707,-0.0727 -0.22162,-0.66399 z m 37.61082,-2.64066 c 8.1e-4,-2.69289 -0.0968,-3.35582 -0.76704,-5.2075 -0.42239,-1.16699 -0.71632,-2.27674 -0.6532,-2.46613 0.0631,-0.18938 -0.0494,-0.50853 -0.25012,-0.70922 -0.43515,-0.43516 -0.4614,-1.38768 -0.0919,-3.33591 0.22281,-1.17484 0.54507,-1.73325 1.75358,-3.03859 1.56292,-1.68814 3.18488,-4.25866 3.18488,-5.04746 0,-0.25821 0.15429,-0.41485 0.34286,-0.34809 0.18857,0.0668 0.32093,0.43776 0.29413,0.82444 -0.0559,0.80599 -2.30409,4.3466 -3.21605,5.06475 -1.16876,0.92039 -1.61004,1.93087 -1.69498,3.88128 -0.068,1.56237 0.075,2.31157 0.87269,4.57259 0.82977,2.35179 0.95866,3.06538 0.98933,5.47744 0.0333,2.61913 -0.0986,3.41812 -0.56414,3.41812 -0.11051,0 -0.20052,-1.38857 -0.20001,-3.08572 z m -151.31315,2.17321 c -1.38681,-0.43474 -2.127818,-1.12985 -2.127818,-1.99603 0,-0.89304 1.070798,-2.85146 1.559079,-2.85146 0.492761,0 0.451934,0.26854 -0.18765,1.23428 -0.299726,0.45257 -0.54577,1.15208 -0.546764,1.55446 -0.0015,0.61373 0.194744,0.80666 1.218198,1.19752 0.945058,0.36093 1.403413,0.40199 2.033825,0.18223 0.778951,-0.27154 1.134741,-0.19662 1.134741,0.23896 0,0.19081 -1.540066,0.82796 -1.892358,0.7829 -0.09063,-0.0116 -0.626695,-0.16588 -1.191253,-0.34286 z m 106.07283,-0.46712 c -0.41713,-0.67493 -0.20183,-3.23042 0.41526,-4.92894 0.63611,-1.75086 0.73702,-3.33738 0.47977,-7.54286 -0.12941,-2.11569 0.47858,-1.39213 0.80667,0.96 0.38986,2.79501 0.2667,4.10694 -0.65272,6.95269 -0.66199,2.04897 -0.71383,3.10034 -0.21505,4.36159 0.2096,0.53 -0.52144,0.70314 -0.83393,0.19752 z m 22.66193,-1.02037 c -0.94512,-3.63903 -0.70517,-5.95264 0.86607,-8.35086 0.82914,-1.26551 1.16167,-1.59531 1.2402,-1.23002 0.059,0.27452 -0.19268,0.95337 -0.55935,1.50857 -1.35527,2.05215 -1.55599,3.94656 -0.85527,8.07231 0.11335,0.66742 0.0695,1.02857 -0.12491,1.02857 -0.16478,0 -0.41981,-0.46286 -0.56674,-1.02857 z m 16.64331,0.87731 c -0.0904,-0.0904 -0.0522,-0.55536 0.0849,-1.03329 0.13707,-0.47794 0.24922,-1.83664 0.24922,-3.01935 0,-1.59972 0.0878,-2.12049 0.34286,-2.03363 0.54374,0.18516 0.46881,5.26912 -0.0858,5.82376 -0.23475,0.23476 -0.50077,0.35289 -0.59114,0.26251 z m -89.02137,-1.68568 c 0.14212,-1.71377 -0.32192,-3.56389 -1.53431,-6.11735 -0.71762,-1.51139 -0.94041,-3.12384 -0.47166,-3.41355 0.13749,-0.085 0.33221,0.3322 0.43271,0.92704 0.21275,1.25928 0.76413,1.25743 1.20388,-0.004 0.29621,-0.8497 0.85629,-1.09263 0.85629,-0.37141 0,0.5508 -0.53057,1.54828 -1.01285,1.90418 -0.30984,0.22864 -0.25663,0.56086 0.3075,1.92 0.49071,1.18225 0.68647,1.45106 0.6975,0.95779 0.0252,-1.12639 0.32226,-1.92 0.7187,-1.92 0.25377,0 0.33288,0.24053 0.24809,0.75429 -0.39968,2.42171 -0.68465,4.84108 -0.68465,5.81254 0,0.84436 -0.10756,1.11317 -0.4454,1.11317 -0.37404,0 -0.42463,-0.25032 -0.3158,-1.56265 z m 6.44623,0.61721 c -0.24797,-0.52 -0.53067,-1.6 -0.62823,-2.4 -0.0976,-0.80001 -0.35799,-2.13341 -0.57873,-2.96313 -0.65237,-2.45213 -0.6238,-2.40405 -1.06909,-1.799 -0.49554,0.67332 -0.49574,1.64762 -7.5e-4,3.54804 0.38654,1.48401 0.3214,2.63953 -0.1488,2.63953 -0.13326,0 -0.24363,-0.33943 -0.24526,-0.75428 -0.002,-0.41486 -0.18678,-1.36019 -0.41143,-2.10074 -0.22465,-0.74055 -0.40435,-1.72797 -0.39933,-2.19428 0.01,-0.92937 0.90781,-2.22587 1.3515,-1.95166 0.16405,0.10139 0.21157,-0.003 0.11546,-0.25336 -0.10484,-0.27321 -0.009,-0.42568 0.26685,-0.42568 0.27644,0 0.53688,0.41664 0.72868,1.16572 0.16417,0.64114 0.4775,1.71227 0.69629,2.38029 0.21879,0.66801 0.40322,1.65544 0.40985,2.19428 0.007,0.53884 0.1899,1.47343 0.40729,2.07686 0.2174,0.60342 0.39712,1.25142 0.39939,1.44 0.008,0.64649 -0.44298,0.34255 -0.89369,-0.60259 z m 76.06083,-0.9168 c -0.0123,-1.65964 0.46328,-6.0385 0.98934,-9.10919 0.43863,-2.56034 1.95317,-6.6066 2.54698,-6.80453 0.49407,-0.16469 0.33408,0.63193 -0.50049,2.49201 -1.02831,2.29193 -1.58886,5.06099 -1.98739,9.81767 -0.18926,2.25887 -0.4689,4.02903 -0.6805,4.30762 -0.31403,0.41345 -0.36031,0.32494 -0.36794,-0.70358 z m -39.08012,0.51397 c -0.61276,-0.99146 -1.11132,-6.0455 -0.71487,-7.24676 0.36878,-1.11742 2.51147,-3.47354 3.15889,-3.47354 0.61,0 0.51867,0.7551 -0.11567,0.95644 -0.29554,0.0938 -0.93187,0.66867 -1.41407,1.2775 -1.09503,1.38259 -1.25938,2.80538 -0.69242,5.99463 0.37306,2.09859 0.26755,3.28362 -0.22186,2.49173 z m -93.342896,-0.31368 c -0.64272,-0.12673 -1.50672,-0.42093 -1.92,-0.65378 -0.41328,-0.23285 -1.090847,-0.54459 -1.505704,-0.69274 -0.414858,-0.14816 -0.754286,-0.39586 -0.754286,-0.55045 0,-0.48337 0.950682,-0.3093 2.353514,0.43091 0.986907,0.52075 1.920314,0.75124 3.475057,0.8581 2.048428,0.1408 2.604981,0.3816 1.691853,0.732 -0.56008,0.21492 -1.867624,0.16637 -3.340434,-0.12404 z m 59.662556,-1.28662 c -0.45181,-0.50987 -1.3054,-2.81784 -1.3054,-3.52958 0,-0.79387 0.63218,-0.21807 0.95459,0.86946 0.41116,1.38687 0.91278,2.31726 1.24934,2.31726 0.14555,0 0.26464,-0.18514 0.26464,-0.41142 0,-0.22629 0.18514,-0.41143 0.41143,-0.41143 0.48149,0 0.52423,0.37385 0.12749,1.11517 -0.35345,0.66042 -1.14095,0.6838 -1.70209,0.0505 z m -74.264321,-0.79087 c -0.0017,-0.48718 0.878799,-0.60198 3.407367,-0.44423 3.00916,0.18774 3.174408,0.0599 3.174408,-2.45563 0,-1.40498 0.09056,-1.87935 0.342857,-1.79598 0.217072,0.0717 0.372611,0.78449 0.423959,1.94279 0.07323,1.65193 0.01314,1.89747 -0.619078,2.52969 -0.677835,0.67784 -0.796371,0.69753 -3.714305,0.61721 -2.013381,-0.0554 -3.014484,-0.18619 -3.015208,-0.39385 z m -15.909654,-0.002 c 0,-0.2958 3.047076,-3.6647 3.314623,-3.6647 0.538591,0 0.193885,0.65765 -1.161471,2.21594 -1.223324,1.40649 -2.153152,2.03213 -2.153152,1.44876 z m 77.622855,-0.11702 c 0,-0.46898 0.54403,-1.3534 0.83251,-1.3534 0.37429,0 0.32906,0.923 -0.0645,1.31658 -0.40764,0.40764 -0.768,0.42492 -0.768,0.0368 z m 83.92789,-1.97054 c -0.002,-1.48292 -0.19139,-2.86214 -0.54857,-4.00158 -0.77178,-2.46208 -0.70524,-3.73294 0.28595,-5.46128 0.4542,-0.792 0.94676,-1.44 1.09457,-1.44 0.47313,0 0.2889,0.82228 -0.41698,1.86108 -0.85245,1.25449 -0.89212,2.80646 -0.13361,5.22622 0.52378,1.67092 0.72902,4.73124 0.37855,5.64456 -0.3905,1.01761 -0.65661,0.28006 -0.65991,-1.829 z m -97.96301,1.85059 c -0.0822,-0.0822 0.33841,-1.08038 0.93465,-2.21824 0.94677,-1.8068 1.11335,-2.40522 1.31523,-4.72487 0.12714,-1.46083 0.3314,-2.90291 0.45392,-3.20462 0.4224,-1.04026 1.78405,-3.15429 2.03167,-3.15429 0.43554,0 0.27049,0.58002 -0.59598,2.09446 -0.70474,1.23176 -0.88771,1.93779 -1.10749,4.27365 -0.22691,2.41149 -0.40806,3.08213 -1.31105,4.85343 -0.99471,1.95122 -1.382,2.41943 -1.72095,2.08048 z m 55.45226,-0.41841 c 0,-0.71185 1.56657,-3.83218 1.92395,-3.83218 0.42774,0 0.32991,0.38623 -0.62109,2.45206 -0.90444,1.9647 -1.30286,2.38674 -1.30286,1.38012 z m -88.309921,-0.42751 c -0.156528,-0.43943 -0.416524,-1.02697 -0.577768,-1.30566 -0.342448,-0.59188 -0.173848,-0.86032 0.401643,-0.63948 0.51684,0.19833 1.07567,2.12914 0.719359,2.48545 -0.161992,0.16199 -0.364982,-0.0399 -0.543234,-0.54031 z m 133.567071,0.26921 c 0,-0.46708 0.89474,-3.66458 1.26636,-4.52555 0.24424,-0.56583 1.22256,-1.66368 2.28707,-2.56649 1.81855,-1.5423 1.86394,-1.61281 2.02406,-3.14472 0.19203,-1.83726 0.89771,-4.6849 1.24772,-5.0349 0.52264,-0.52264 0.53087,0.33159 0.0221,2.2909 -0.29113,1.12107 -0.53144,2.58251 -0.53402,3.24765 -0.004,1.08679 -0.13672,1.33243 -1.30756,2.42414 -0.71657,0.66814 -1.58688,1.40741 -1.93402,1.64282 -0.82005,0.55612 -1.23118,1.41061 -1.84935,3.8437 -0.30406,1.19678 -0.648,1.98857 -0.86379,1.98857 -0.1972,0 -0.35855,-0.0747 -0.35855,-0.16612 z M 99.291428,196.28501 c 0,-0.20781 0.185143,-0.5315 0.411428,-0.7193 0.226286,-0.1878 0.411434,-0.49637 0.411434,-0.68571 0,-0.18934 0.18514,-0.49792 0.41142,-0.68572 0.65863,-0.54661 0.53111,0.87103 -0.15705,1.74587 -0.621693,0.79036 -1.077232,0.93619 -1.077232,0.34486 z m 55.680002,-0.40445 c 0,-0.83232 0.92624,-2.40324 1.70113,-2.88512 0.8435,-0.52456 0.83804,0.0458 -0.0106,1.11209 -0.45823,0.57572 -0.91601,1.38618 -1.01727,1.80104 -0.24104,0.98747 -0.67322,0.96949 -0.67322,-0.028 z m -41.22335,0.0618 c -0.0945,-0.0946 0.004,-0.51242 0.21937,-0.92859 0.26881,-0.51981 0.33928,-1.19578 0.22514,-2.15951 -0.10877,-0.91844 -0.0646,-1.40284 0.12786,-1.40284 0.16171,0 0.35483,0.216 0.42916,0.48 0.4476,1.58972 0.44795,2.24936 0.002,3.18519 -0.47238,0.9906 -0.67312,1.15583 -1.00321,0.82575 z m 81.54335,-0.1133 c 0,-0.15687 0.23578,-0.74738 0.52396,-1.31226 0.28818,-0.56488 0.733,-2.16453 0.98849,-3.55479 0.46236,-2.51589 0.95612,-3.35151 0.95612,-1.61811 0,1.60597 -0.57869,4.10519 -1.26345,5.45649 -0.61309,1.20988 -1.20512,1.71523 -1.20512,1.02867 z m -63.83852,-0.93221 c -0.88194,-0.74211 -1.6471,-2.24005 -1.30909,-2.5628 0.11343,-0.1083 0.34604,0.0325 0.51692,0.3128 0.60125,0.9864 1.31309,1.82171 1.55245,1.82171 0.13307,0 0.323,-0.432 0.42205,-0.96 0.24083,-1.28372 0.66762,-1.22322 0.66762,0.0946 0,0.68271 -0.1813,1.2187 -0.51409,1.51988 -0.48643,0.44021 -0.55832,0.42803 -1.33586,-0.22622 z m 41.63102,0.13831 c -0.44929,-0.83952 -0.32794,-1.7149 0.40175,-2.89803 1.35557,-2.19792 1.77024,-3.33899 1.84521,-5.07745 0.0469,-1.08722 0.20286,-1.77763 0.41768,-1.84886 0.25054,-0.0831 0.34286,0.36149 0.34286,1.6511 0,2.1074 -0.33695,3.18228 -1.5558,4.96313 -0.89567,1.30865 -1.18742,2.71568 -0.63401,3.0577 0.30941,0.19123 0.10399,0.68295 -0.2853,0.68295 -0.13665,0 -0.37622,-0.23874 -0.53239,-0.53054 z m -37.68671,-0.43142 c -0.54779,-0.54779 -0.57811,-0.95804 -0.0708,-0.95804 0.57644,0 1.13686,0.78931 0.79976,1.1264 -0.19087,0.19087 -0.42343,0.13716 -0.72895,-0.16836 z m -86.855438,-0.56446 c -0.351268,-0.92391 -0.346064,-3.95929 0.0068,-3.95929 0.150857,0 0.274286,0.55939 0.274286,1.24309 0,0.68371 0.185143,1.68621 0.411428,2.22779 0.505239,1.2092 0.505338,1.19198 -0.0068,1.19198 -0.23002,0 -0.538591,-0.31661 -0.685715,-0.70357 z m 101.745298,0.11483 c -0.44993,-0.84069 -0.16075,-2.7527 0.56474,-3.73397 0.6471,-0.87526 0.65505,-1.43493 0.053,-3.73017 -0.3216,-1.22598 -0.11472,-2.98805 0.33278,-2.83441 0.16893,0.058 0.26762,0.53047 0.22095,1.05777 -0.0464,0.52412 0.10609,1.49989 0.33886,2.16837 0.6001,1.72343 0.53474,2.57931 -0.29245,3.82928 -0.6223,0.94035 -0.70094,1.28529 -0.5615,2.46269 0.17036,1.43839 -0.11966,1.78324 -0.65634,0.78044 z M 167.04,193.93405 c 0,-0.9342 0.77822,-2.54443 1.16181,-2.40392 0.38542,0.14117 0.38342,0.16168 -0.1659,1.69455 -0.43252,1.20693 -0.99591,1.60822 -0.99591,0.70937 z m -60.16446,-0.1426 c -0.14901,-0.3883 -0.002,-2.64316 0.25585,-3.91717 0.0686,-0.33942 0.26358,-0.61714 0.43322,-0.61714 0.21516,0 0.25875,0.60147 0.14412,1.98857 l -0.16433,1.98857 0.73024,-1.44 c 0.40163,-0.792 0.88986,-1.44 1.08494,-1.44 0.45352,0 0.45854,-0.0339 -0.22766,1.54228 -0.91038,2.09116 -1.87138,2.8982 -2.25638,1.89489 z m -9.323363,-1.17936 c 0.120913,-1.02092 0.0054,-1.66234 -0.526237,-2.92314 -0.464903,-1.10245 -0.620762,-1.84099 -0.490949,-2.32637 0.248044,-0.92747 0.699294,-0.67073 0.699294,0.39786 0,0.4591 0.197379,1.13796 0.43862,1.50857 0.891023,1.36886 0.956192,4.65099 0.09235,4.65099 -0.277993,0 -0.3301,-0.31984 -0.213077,-1.30791 z m 91.430683,0.76346 c 0,-0.14859 0.36889,-0.86969 0.81975,-1.60244 1.62082,-2.63417 2.00193,-4.62099 1.23739,-6.4508 -0.50221,-1.20197 -0.5167,-1.55088 -0.0644,-1.55088 0.42585,0 1.29866,2.36821 1.29866,3.52366 0,1.10039 -0.88346,3.43772 -1.91302,5.06116 -0.75946,1.19754 -1.3784,1.65524 -1.3784,1.0193 z m -41.03633,-1.58127 c -0.10594,-0.56571 -0.36207,-1.43455 -0.56917,-1.93075 -0.20711,-0.49619 -0.42746,-1.83697 -0.48966,-2.9795 -0.0622,-1.14252 -0.19814,-2.75794 -0.30207,-3.5898 -0.15277,-1.22272 -0.1164,-1.48838 0.18984,-1.38663 0.39524,0.13131 0.65294,1.59351 0.88916,5.04509 0.0733,1.07083 0.32787,2.41276 0.56574,2.98207 0.4776,1.14306 0.5807,2.8881 0.17063,2.8881 -0.14402,0 -0.34853,-0.46286 -0.45447,-1.02858 z m 46.79633,0.78564 c 0,-0.13361 0.18438,-0.59647 0.40973,-1.02857 0.22536,-0.4321 0.4105,-1.06335 0.41143,-1.40278 9.3e-4,-0.33943 0.12512,-0.61714 0.27598,-0.61714 0.50294,0 0.31495,2.34675 -0.22731,2.83749 -0.55644,0.50356 -0.86983,0.57959 -0.86983,0.211 z m 22.50998,-1.09382 c -0.2034,-0.38006 -0.21762,-0.94031 -0.0441,-1.73778 0.14083,-0.64729 0.25946,-2.19652 0.26361,-3.44273 0.008,-2.29998 0.12044,-2.80845 0.62297,-2.80845 0.18394,0 0.21729,0.91797 0.0971,2.67429 -0.10062,1.47085 -0.21268,3.3216 -0.24904,4.11276 -0.0763,1.66083 -0.26718,1.99303 -0.69058,1.20191 z m 4.91256,-0.10324 c -0.003,-0.33943 -0.25017,-1.1552 -0.54857,-1.81281 -0.74483,-1.64148 -0.68726,-2.39337 0.37391,-4.88289 0.50405,-1.18251 1.00012,-2.48945 1.10237,-2.9043 0.10225,-0.41486 0.30699,-0.75429 0.45497,-0.75429 0.52463,0 0.25626,1.35774 -0.71406,3.61257 -1.13386,2.63484 -1.18171,3.20102 -0.41326,4.89029 0.67204,1.47734 0.73713,2.46857 0.1621,2.46857 -0.24203,0 -0.41391,-0.25411 -0.41746,-0.61714 z m 32.0056,-0.27429 c -0.84849,-1.13171 -1.82814,-3.07337 -1.82814,-3.62336 0,-0.82521 0.4235,-0.39698 1.31772,1.33246 0.49846,0.96403 1.13756,1.96208 1.42022,2.21789 0.4895,0.44299 0.53603,0.42238 0.9786,-0.43346 0.34191,-0.66117 0.42736,-1.31002 0.32345,-2.45598 -0.13258,-1.46203 0.10765,-2.51276 0.48762,-2.13279 0.0929,0.0929 0.19216,1.14337 0.22063,2.33443 0.04,1.67459 -0.0585,2.3341 -0.43457,2.9089 -0.67833,1.03682 -1.64012,0.97951 -2.48553,-0.14809 z m -113.54938,-0.32475 c 0.0841,-0.51805 -0.0587,-2.2769 -0.31714,-3.90857 -0.37026,-2.33712 -0.40302,-3.13933 -0.15435,-3.78024 0.37128,-0.95695 0.82955,-0.52775 0.61801,0.57881 -0.0725,0.37939 0.089,2.01362 0.35888,3.63162 0.50299,3.01526 0.41739,4.42027 -0.26929,4.42027 -0.28991,0 -0.35004,-0.23984 -0.23611,-0.94189 z m 38.59571,0.55539 c -0.0816,-0.21257 0.23123,-0.91045 0.69513,-1.55084 1.10399,-1.52402 1.46943,-2.95742 1.23413,-4.84075 -0.15369,-1.23006 -0.11764,-1.49574 0.18888,-1.39217 0.2849,0.0963 0.37881,0.74351 0.37881,2.61083 0,2.36387 -0.0427,2.54226 -0.89142,3.72312 -0.49029,0.68215 -0.89143,1.37439 -0.89143,1.5383 0,0.43259 -0.53982,0.3657 -0.7141,-0.0885 z m -25.34305,-0.17606 c 0,-0.15856 0.46286,-0.46934 1.02858,-0.69064 3.24776,-1.27044 4.45714,-2.32347 4.45714,-3.88093 0,-0.63778 0.11167,-0.90681 0.34286,-0.82597 0.52133,0.18231 0.35226,2.06565 -0.26025,2.89912 -0.29489,0.40125 -1.45239,1.19234 -2.57224,1.75797 -2.05367,1.0373 -2.99609,1.2702 -2.99609,0.74045 z m -18.18173,-2.12114 c -1.15973,-1.17744 -1.61052,-1.97915 -1.11283,-1.97915 0.25408,0 3.11171,2.83181 3.11171,3.0836 0,0.54286 -0.82571,0.0866 -1.99888,-1.10445 z m 97.72459,0.90085 c 0.1878,-0.22629 0.49484,-0.41143 0.68231,-0.41143 0.61164,0 1.77841,-1.11568 2.91107,-2.7836 0.61085,-0.89952 1.42445,-1.77847 1.808,-1.95323 0.60854,-0.27727 0.76311,-0.23653 1.2137,0.31993 0.53802,0.66444 0.71322,2.22261 0.24991,2.22261 -0.14655,0 -0.37039,-0.40114 -0.49744,-0.89143 -0.12704,-0.49028 -0.39985,-0.89143 -0.60624,-0.89143 -0.20638,0 -0.94718,0.80229 -1.64621,1.78286 -1.39115,1.95145 -2.72553,3.01714 -3.77782,3.01714 -0.57222,0 -0.62515,-0.0646 -0.33728,-0.41142 z M 37.028571,189.71405 c 0,-0.20126 1.081978,-0.88012 2.404395,-1.50857 2.644168,-1.25657 2.807034,-1.30254 2.807034,-0.79232 0,0.32524 -4.338552,2.66684 -4.941174,2.66684 -0.14864,0 -0.270255,-0.16468 -0.270255,-0.36595 z m 55.676981,-0.25119 c -0.0017,-0.33943 -0.07602,-1.05842 -0.165247,-1.59775 -0.130395,-0.78818 -0.03097,-1.1332 0.506665,-1.75824 0.415514,-0.48306 0.797626,-0.69807 1.008732,-0.5676 0.251932,0.1557 0.182435,0.37758 -0.268668,0.85776 -0.527211,0.56119 -0.587581,0.85048 -0.451874,2.16535 0.124382,1.20514 0.076,1.51762 -0.234979,1.51762 -0.222363,0 -0.392915,-0.26672 -0.394629,-0.61714 z m 9.898788,-0.0396 c -0.62419,-0.75708 -0.38239,-5.10328 0.28393,-5.10328 0.29512,0 0.2878,1.57102 -0.0109,2.33143 -0.1185,0.30171 -0.10029,0.88072 0.0405,1.28669 0.14076,0.40596 0.21553,1.01261 0.16616,1.34811 -0.0836,0.56793 -0.11666,0.57738 -0.47971,0.13705 z m 24.22366,-0.50042 c 0.18561,-0.92806 0.59578,-1.52194 0.86511,-1.2526 0.32285,0.32284 -0.20893,2.13545 -0.62649,2.13545 -0.32131,0 -0.37527,-0.19963 -0.23862,-0.88285 z m 100.72872,0.66799 c -0.0893,-0.14446 -0.33737,-0.93468 -0.5513,-1.75603 -0.47086,-1.80773 -0.19119,-3.77506 0.82043,-5.7714 0.88814,-1.75267 2.5699,-3.61738 2.93404,-3.25324 0.18286,0.18286 -0.0705,0.6559 -0.76001,1.41914 -2.09746,2.32163 -2.96799,5.36104 -2.19878,7.6769 0.30921,0.93096 0.37339,1.49186 0.19151,1.67374 -0.17251,0.17251 -0.33352,0.17653 -0.43589,0.0109 z m -63.53386,-0.83733 c 0,-0.12613 0.6217,-1.00399 1.38156,-1.9508 0.75986,-0.9468 1.62637,-2.20132 1.92558,-2.78781 0.57722,-1.13144 1.08143,-1.39558 1.08143,-0.56652 0,0.49761 -1.66522,3.03433 -3.06801,4.67368 -0.705,0.82388 -1.32056,1.11823 -1.32056,0.63145 z m 82.2577,-0.39723 c -0.51259,-0.34461 -0.97164,-0.90165 -1.02011,-1.23785 -0.0724,-0.50249 0.17165,-0.73221 1.37143,-1.29075 0.80275,-0.37371 1.67555,-0.68068 1.93955,-0.68215 0.92829,-0.005 0.46428,0.48855 -1.02857,1.09446 -0.82972,0.33676 -1.50858,0.72712 -1.50858,0.86747 0,0.14035 0.36951,0.46545 0.82113,0.72243 0.45161,0.25698 0.8219,0.62153 0.82285,0.8101 0.003,0.49554 -0.34289,0.42543 -1.3977,-0.28371 z m -108.989,-0.83753 c -0.71841,-1.22588 -0.87113,-1.82733 -0.46399,-1.82733 0.31897,0 1.95133,2.6611 1.75363,2.85879 -0.33837,0.33837 -0.61787,0.11482 -1.28964,-1.03146 z m -71.737275,-1.22162 c 0,-2.42262 0.239607,-3.62286 0.723242,-3.62286 0.281712,0 0.343885,0.26682 0.239679,1.02858 -0.07739,0.56571 -0.184605,1.76325 -0.238261,2.66119 -0.142325,2.38183 -0.72466,2.32806 -0.72466,-0.0669 z M 155.52,186.4 c 0,-1.78102 0.38412,-2.41929 0.69957,-1.16243 0.24656,0.98238 0.0284,2.72901 -0.35671,2.85551 -0.25098,0.0825 -0.34286,-0.3713 -0.34286,-1.69308 z m -39.03414,1.28489 c -0.65312,-0.0678 -1.00296,-0.2307 -0.93204,-0.43389 0.0757,-0.21692 0.67496,-0.29558 1.79881,-0.23613 1.35465,0.0717 1.98792,-0.0494 3.22803,-0.61714 1.67977,-0.76902 3.59353,-0.9151 5.40362,-0.41247 0.87478,0.24292 1.21337,0.20484 2.05714,-0.23135 1.46326,-0.75643 2.79286,-0.97878 2.79286,-0.46705 0,0.22251 -0.21782,0.40457 -0.48406,0.40457 -0.26623,0 -0.94761,0.24845 -1.51417,0.5521 -1.16703,0.62549 -1.41173,0.64732 -4.44748,0.39677 -1.99898,-0.16499 -2.32856,-0.11786 -3.70286,0.52947 -1.45809,0.68681 -1.95739,0.74805 -4.19985,0.51512 z m 114.90591,-2.49062 c -0.17269,-0.27942 4.30156,-4.71427 4.75616,-4.71427 0.61317,0 0.2048,0.56071 -1.92311,2.6405 -2.34712,2.29405 -2.58795,2.47034 -2.83305,2.07377 z M 96.307716,184.34646 c -0.207898,-0.13168 -0.291941,-0.37866 -0.186761,-0.54884 0.105179,-0.17018 0.311051,-0.23538 0.457493,-0.14487 0.375547,0.2321 4.072042,-0.41905 4.962212,-0.87412 0.93211,-0.4765 1.31648,-0.47978 1.31648,-0.0112 0,0.51545 -1.1088,0.963 -3.536857,1.42762 -2.423998,0.46385 -2.512331,0.46829 -3.012567,0.15144 z m -35.093838,-0.6521 c -0.817097,-0.48913 -1.023628,-0.50894 -1.9878,-0.19074 -0.84311,0.27825 -1.307713,0.28567 -2.146828,0.0343 -0.797521,-0.23894 -1.430991,-0.2436 -2.481715,-0.0183 -1.147499,0.24609 -1.574936,0.22629 -2.289907,-0.10611 -0.483481,-0.22477 -1.557914,-0.49683 -2.387628,-0.60457 -0.829715,-0.10773 -1.693715,-0.29724 -1.92,-0.42111 -0.93098,-0.50964 0.64498,-0.59799 2.694159,-0.15104 2.401173,0.52373 7.095715,0.73156 8.613715,0.38134 0.814286,-0.18786 1.246585,-0.12133 2.125714,0.32717 1.04967,0.5355 1.350771,0.93172 0.89784,1.18147 -0.113143,0.0624 -0.61604,-0.13219 -1.11755,-0.43241 z M 224.91428,179.5535 c 0,-0.057 0.1868,-0.55072 0.41511,-1.09715 0.41786,-1.00006 0.95632,-1.33507 0.95632,-0.59497 0,0.68671 -0.62008,1.79576 -1.00402,1.79576 -0.20208,0 -0.36741,-0.0466 -0.36741,-0.10364 z M 17.101221,199.37323 c 0.173757,-0.0179 0.403523,-0.0195 0.510592,-0.004 0.107069,0.0158 2.750455,-0.098 5.874191,-0.25292 l 5.67952,-0.28173 1.076905,1.03969 1.076905,1.03969 -0.210019,-3.29142 c -0.11551,-1.81029 -0.201162,-4.83429 -0.190337,-6.72 0.01083,-1.88572 -0.04947,-3.54165 -0.133995,-3.67985 -0.08452,-0.1382 -0.425792,0.09 -0.758377,0.50709 l -0.604701,0.75836 -6.064591,0.10391 c -6.041578,0.10352 -6.065811,0.10159 -6.386132,-0.50709 -0.176848,-0.33605 -0.549997,-0.90536 -0.829219,-1.26513 -0.497582,-0.64112 -0.507585,-0.50476 -0.503057,6.85714 l 0.0046,7.51128 0.570886,-0.89143 c 0.313987,-0.49028 0.713051,-0.90604 0.886808,-0.92391 z m 12.581874,-13.3718 c 0.801519,-0.85927 1.050302,-1.32629 0.937107,-1.75915 -0.240747,-0.92062 0.607304,-4.23183 1.145144,-4.47121 0.254774,-0.1134 2.499797,-0.23241 4.988939,-0.26447 2.489143,-0.0321 6.253715,-0.24594 8.365715,-0.47529 4.104139,-0.44569 10.815543,-0.44453 14.537142,0.003 1.206858,0.14497 3.12,0.57992 4.251429,0.96655 1.131429,0.38664 2.550857,0.83096 3.154286,0.98739 1.93286,0.50106 4.644593,1.53165 5.628081,2.13895 1.65859,1.02417 5.161061,1.92873 8.771919,2.26546 3.619405,0.33752 3.781731,0.31652 6.738919,-0.87202 0.915549,-0.36797 2.132352,-0.75679 2.704007,-0.86403 0.571655,-0.10724 1.55057,-0.41967 2.175366,-0.69429 0.624796,-0.27462 1.629708,-0.71496 2.233136,-0.97853 0.603429,-0.26358 1.98434,-0.52216 3.068692,-0.57463 1.084352,-0.0525 2.497133,-0.21349 3.139523,-0.35783 0.64238,-0.14433 1.26346,-0.20341 1.38016,-0.13128 0.11671,0.0721 1.19781,0.24355 2.40244,0.38095 2.41799,0.27577 3.30738,0.64943 5.30578,2.22907 1.54009,1.21737 1.51935,1.21367 3.50173,0.62497 1.46004,-0.43359 2.92366,-0.53894 5.6131,-0.40405 0.82785,0.0415 1.96937,-0.14363 2.88,-0.46715 1.73634,-0.61686 2.63186,-0.73731 5.48572,-0.7378 1.83161,-3.2e-4 2.23155,0.1 3.64797,0.915 2.27867,1.31115 2.39625,1.27425 7.96637,-2.50055 0.61216,-0.41486 1.42765,-0.75562 1.8122,-0.75726 0.38454,-0.002 1.30507,-0.18677 2.04562,-0.41142 1.9345,-0.58686 3.07934,-0.51368 6.69115,0.42767 1.76446,0.45988 4.19554,0.95656 5.4024,1.10374 1.20686,0.14717 2.82467,0.40375 3.59514,0.57017 1.21797,0.26308 1.62097,0.22641 3.08681,-0.28087 0.92727,-0.3209 1.96317,-0.58289 2.302,-0.58219 0.33883,7e-4 1.62407,-0.20764 2.85609,-0.46297 l 2.24004,-0.46425 1.11408,0.73726 c 1.34557,0.89045 1.67222,0.90431 3.4963,0.14827 1.36814,-0.56707 1.56752,-0.57702 5.35387,-0.26722 2.16305,0.17698 5.79145,0.34946 8.06311,0.38328 4.06518,0.0605 4.14444,0.0734 5.02676,0.81579 0.49306,0.41486 0.992,0.75428 1.10877,0.75428 0.48278,0 2.28335,-0.68335 5.77989,-2.19358 2.03657,-0.87963 4.37045,-1.86865 5.18641,-2.19781 1.72725,-0.69678 5.14618,-1.09059 6.79653,-0.78287 0.85981,0.16032 1.79572,0.05 3.72188,-0.43857 1.41527,-0.35902 3.49038,-0.73602 4.61134,-0.83779 1.12097,-0.10177 2.84041,-0.36638 3.82098,-0.58802 1.25198,-0.28299 2.47709,-0.34993 4.11429,-0.2248 2.45102,0.18732 5.96577,-0.14867 8.50285,-0.81283 0.82972,-0.2172 2.90486,-0.65158 4.61143,-0.96527 1.70657,-0.3137 4.73057,-1.13574 6.72,-1.82677 4.71828,-1.63888 6.39492,-2.04921 7.73143,-1.89211 3.4889,0.4101 17.76575,0.70896 18.0959,0.37881 0.4139,-0.4139 -0.4415,-1.25498 -3.06954,-3.01821 -2.94918,-1.97868 -3.88899,-3.14318 -3.50729,-4.3458 0.0882,-0.27794 0.0505,-0.57326 -0.0838,-0.65625 -0.13428,-0.083 -0.18953,-1.35852 -0.12277,-2.83451 0.1196,-2.64424 0.10869,-2.70253 -0.7438,-3.9728 -0.47584,-0.70906 -1.26458,-1.63987 -1.75274,-2.06849 -1.5155,-1.33063 -1.8217,-1.96617 -1.8217,-3.78108 0,-1.8977 -0.58336,-3.02822 -2.86225,-5.54696 l -1.30287,-1.44 -2.87718,0 c -2.58351,0 -3.06448,0.0822 -4.71217,0.80538 -1.82516,0.80107 -4.4162,1.466 -7.0341,1.80515 -0.75429,0.0977 -1.92686,0.42667 -2.60572,0.73102 -1.86273,0.83511 -2.64537,1.02776 -5.46548,1.34534 -1.91808,0.216 -3.00382,0.50234 -4.20609,1.10924 -1.97145,0.99518 -3.93468,1.275 -5.44603,0.7762 -0.8818,-0.29102 -1.38922,-0.29874 -2.52445,-0.0384 -4.30398,0.9869 -5.68418,1.20492 -6.57274,1.03823 -0.53172,-0.0998 -2.47144,-1.19629 -4.31049,-2.43674 -5.14397,-3.46966 -5.08678,-3.44272 -7.99799,-3.76734 -2.85323,-0.31816 -3.28785,-0.23377 -5.22339,1.01412 -0.8294,0.53473 -1.6671,0.8026 -2.82477,0.90328 l -1.64571,0.14313 -0.6546,1.37143 c -0.36003,0.75429 -0.84864,1.76826 -1.08579,2.25328 -0.67469,1.37986 -1.74534,1.67293 -3.7846,1.03597 -0.49233,-0.15379 -0.63846,-0.0302 -0.89939,0.76037 -0.35158,1.06531 -1.21822,1.96405 -2.17391,2.25443 -1.10495,0.33574 -3.00586,-0.58099 -3.54925,-1.71165 -0.73838,-1.5364 -1.15121,-1.64322 -2.51961,-0.65196 -1.82805,1.32423 -3.09204,1.10077 -6.48935,-1.14726 l -2.21574,-1.46618 -2.71388,0.1012 c -3.5854,0.1337 -5.12453,0.46889 -6.50702,1.4171 -1.6742,1.14827 -4.214,2.36877 -6.0003,2.88345 -1.3029,0.37539 -1.77972,0.69973 -2.84826,1.93741 -1.35619,1.57086 -3.24886,2.61955 -4.72777,2.61955 -0.44584,0 -1.34868,0.24415 -2.00629,0.54255 -2.03996,0.92566 -4.21064,0.59491 -5.90906,-0.90037 -0.76139,-0.67031 -1.42089,-0.94812 -2.80393,-1.18111 -6.88623,-1.1601 -9.30464,-1.53085 -9.94171,-1.52411 -0.80658,0.009 -3.41751,1.02961 -4.09513,1.60153 -0.2388,0.20154 -1.04108,0.56704 -1.78286,0.81222 -0.74178,0.24518 -1.80549,0.88099 -2.3638,1.41291 -0.94535,0.90067 -1.15702,0.97445 -3.08045,1.07364 -1.62273,0.0837 -2.39575,0.28031 -3.60704,0.91749 -2.51967,1.32542 -4.7774,0.8909 -4.7774,-0.91946 0,-0.34831 -0.17045,-0.8664 -0.37878,-1.1513 -0.36082,-0.49346 -0.4241,-0.46994 -1.33524,0.49615 -1.09859,1.16484 -1.69521,1.24507 -3.27303,0.44012 -0.80816,-0.41229 -1.40402,-0.52822 -2.11479,-0.41144 -3.432347,0.56395 -3.306685,0.5855 -5.378163,-0.92223 -4.032377,-2.93497 -6.834822,-2.70693 -12.281646,0.99937 -3.749912,2.55163 -4.196099,2.65704 -5.721212,1.3516 -0.637308,-0.54551 -1.247761,-0.99184 -1.356563,-0.99184 -0.108802,0 -0.447348,0.42291 -0.752324,0.93981 -0.833556,1.41277 -1.731938,1.89609 -3.130325,1.68406 -1.545295,-0.2343 -2.263685,-0.23587 -3.940794,-0.009 -0.878877,0.11909 -1.615781,0.0742 -1.979682,-0.12053 -0.318821,-0.17063 -1.6767,-0.37067 -3.017507,-0.44453 -2.349749,-0.12945 -6.563945,-0.89298 -8.020651,-1.4532 -1.306181,-0.50232 -3.681816,-0.64578 -5.746311,-0.347 -4.369311,0.63233 -8.627656,1.60435 -11.548307,2.63606 -2.276752,0.80425 -6.940159,1.22522 -7.151186,0.64554 -0.07555,-0.20753 -0.120221,-1.30303 -0.09928,-2.43446 0.04232,-2.2863 -0.2226,-3.04847 -1.472764,-4.23708 -0.848312,-0.80654 -0.858874,-0.80854 -4.344487,-0.82191 -1.921759,-0.007 -4.443257,0.0886 -5.603328,0.21322 l -2.109221,0.22663 -1.088528,1.41814 -1.088528,1.41814 0.154222,12.74799 0.154223,12.74798 1.260669,1.58707 1.260669,1.58707 5.175941,-0.0866 5.17594,-0.0866 z m 8.11261,-25.01016 c 0.64821,-0.28306 1.882496,-0.64244 2.742857,-0.79862 0.860362,-0.15619 2.210394,-0.52963 3.000071,-0.82988 0.789677,-0.30024 1.715391,-0.53124 2.057143,-0.51332 0.341752,0.0179 1.913095,-0.16917 3.491874,-0.41576 3.125925,-0.48823 4.664219,-0.40981 7.415207,0.37805 2.80109,0.80221 4.591921,1.11074 7.484074,1.28938 1.476241,0.0912 2.748668,0.27031 2.827616,0.39805 0.204372,0.33068 1.921168,0.28723 3.145574,-0.0796 0.857188,-0.25682 1.24495,-0.23022 2.196955,0.1507 l 1.156046,0.46256 0.783439,-0.75059 c 0.430891,-0.41282 0.783439,-0.87205 0.783439,-1.02052 0,-0.46143 0.883906,-1.27314 1.386376,-1.27314 0.263174,0 1.135709,0.44227 1.938966,0.98282 1.451428,0.97674 1.465606,0.97989 2.29042,0.50901 0.456474,-0.2606 1.076809,-0.68741 1.378523,-0.94846 0.301714,-0.26106 1.366354,-0.98519 2.365865,-1.60918 4.710758,-2.94092 8.388113,-2.96033 12.401619,-0.0655 1.734164,1.25081 1.941614,1.33172 2.742857,1.06971 1.749274,-0.57201 2.805464,-0.55321 4.268084,0.076 l 1.42477,0.61292 0.91539,-0.99938 c 1.11361,-1.21577 2.06543,-1.31052 2.87144,-0.28584 0.3087,0.39245 0.63997,1.13302 0.73615,1.64572 0.1555,0.82889 0.27191,0.93217 1.05065,0.93217 0.50189,0 1.42971,-0.35129 2.17329,-0.82286 1.13542,-0.72006 1.54689,-0.82285 3.29381,-0.82285 1.85964,0 2.05022,-0.0563 2.78389,-0.82207 0.43317,-0.45214 1.46344,-1.07494 2.28948,-1.384 0.82604,-0.30906 1.82158,-0.77894 2.2123,-1.04419 0.39072,-0.26524 1.26453,-0.72245 1.9418,-1.016 1.95173,-0.84597 5.99347,-0.62676 11.01391,0.59735 0.85149,0.20761 1.9396,0.37748 2.41803,0.37748 1.06399,0 1.80007,0.36081 2.94401,1.44311 1.18968,1.12557 3.07551,1.32959 4.68765,0.50714 0.62402,-0.31835 1.55308,-0.57882 2.06458,-0.57882 1.52892,0 2.56936,-0.52158 3.63524,-1.82235 1.1948,-1.45809 2.63377,-2.44259 3.95947,-2.70895 1.13236,-0.22751 4.24982,-1.74187 5.85868,-2.84595 1.4994,-1.02896 3.3847,-1.3999 7.1151,-1.3999 h 3.0725 l 2.29695,1.5026 c 2.90177,1.89823 3.82148,2.10314 5.09159,1.13438 1.56806,-1.19601 2.19615,-1.32683 3.07008,-0.6394 0.41815,0.32892 0.67509,0.4602 0.57097,0.29174 -0.10411,-0.16847 -0.0507,-0.70383 0.11866,-1.1897 0.24977,-0.71651 0.22238,-1.06285 -0.14498,-1.83321 -0.24911,-0.52239 -0.38188,-1.06475 -0.29505,-1.20524 0.0868,-0.1405 0.95288,-0.25545 1.92454,-0.25545 1.34779,0 1.76667,0.0928 1.76667,0.39161 0,0.31007 -0.31003,0.35961 -1.48901,0.23793 l -1.48901,-0.15368 0.38793,1.12599 c 0.28931,0.83973 0.31486,1.31822 0.10047,1.88208 -0.20178,0.53074 -0.20061,0.78504 0.004,0.85322 0.4697,0.15657 0.33445,0.82523 -0.1886,0.93241 -0.40361,0.0827 -0.34149,0.23869 0.39033,0.98012 1.37476,1.3928 2.43836,1.03544 3.14318,-1.05606 0.17463,-0.51821 0.43814,-1.09648 0.58558,-1.28505 0.36801,-0.47066 1.43189,-0.43116 1.84662,0.0686 0.1878,0.22629 0.68351,0.41143 1.10156,0.41143 0.68102,0 0.83863,-0.19265 1.51474,-1.85143 0.54519,-1.33758 0.73454,-2.23206 0.68225,-3.22286 -0.18473,-3.49978 -0.17247,-3.57079 0.89332,-5.17599 0.95162,-1.43323 1.56813,-1.93077 1.56813,-1.2655 0,0.15318 -0.44681,0.95145 -0.99291,1.77393 -0.96282,1.45012 -0.98714,1.54928 -0.80257,3.27271 0.18792,1.75485 0.19895,1.77401 0.87362,1.5175 0.37581,-0.14289 1.16279,-0.25979 1.74884,-0.25979 0.72776,0 1.56194,-0.29902 2.63138,-0.94324 1.94228,-1.17002 3.18854,-1.39273 5.53989,-0.98999 3.6154,0.61924 4.10895,0.81229 6.54492,2.56001 5.75614,4.12982 6.15442,4.24799 10.37876,3.07949 2.89764,-0.80153 3.55689,-0.83592 4.94067,-0.25774 1.21825,0.50902 1.72052,0.41276 4.59645,-0.88085 1.37287,-0.61753 2.69282,-0.99975 3.70286,-1.07223 2.62897,-0.18866 3.6879,-0.42255 5.54666,-1.22511 0.98058,-0.42338 2.52343,-0.85614 3.42858,-0.96169 4.26286,-0.49709 7.81298,-1.81459 8.50725,-3.15715 0.52711,-1.01932 0.51575,-2.17724 -0.0348,-3.55333 -0.40631,-1.01549 -0.40631,-1.15865 0,-1.77876 0.24304,-0.37092 0.44188,-1.11338 0.44188,-1.64993 0,-0.6025 0.28537,-1.40674 0.74629,-2.10324 0.65578,-0.99096 0.74726,-1.39773 0.75429,-3.35412 0.006,-1.59103 0.14498,-2.47692 0.48799,-3.10421 0.4928,-0.90121 0.59844,-1.94372 0.30712,-3.03077 -0.15986,-0.59652 -0.27657,-0.61736 -3.49339,-0.62368 -1.83041,-0.004 -3.76001,-0.12027 -4.28801,-0.25927 -0.90715,-0.23881 -2.08094,-0.57919 -8.64,-2.50545 -1.93076,-0.56702 -3.31133,-0.80141 -4.66286,-0.79165 -1.16763,0.008 -1.75878,0.10273 -1.50857,0.24062 0.35602,0.19621 3.2213,0.70861 5.15372,0.92163 0.95122,0.10486 0.86146,0.60636 -0.12567,0.70209 -0.90138,0.0874 -4.43195,-0.55694 -5.70628,-1.04144 -0.4009,-0.15242 -1.16316,-0.27713 -1.69391,-0.27713 -1.17495,0 -1.13067,-0.60046 0.0633,-0.85898 0.76206,-0.165 0.76752,-0.17613 0.11451,-0.2335 -1.25884,-0.1106 -2.52455,0.0394 -3.63338,0.43064 -0.60414,0.21315 -1.37829,0.38755 -1.72033,0.38755 -0.9469,0 -1.38292,1.69705 -0.521,2.0278 0.9106,0.34943 2.52061,0.15759 3.2067,-0.38208 0.83589,-0.65751 1.0223,-0.68179 1.0223,-0.13311 0,0.62725 -1.64684,1.50235 -2.82946,1.50351 -1.06472,0.001 -2.08243,-0.38646 -2.44634,-0.93147 -0.30662,-0.4592 -0.24837,-1.75422 0.0883,-1.96228 0.56855,-0.35138 -0.22298,-0.73104 -1.11545,-0.53503 -1.00957,0.22174 -2.37303,1.61869 -2.25889,2.31437 0.043,0.26192 -0.32731,1.08291 -0.82285,1.8244 -0.82201,1.22999 -1.0057,1.35569 -2.09529,1.43392 -1.46511,0.10518 -1.48459,-0.55673 -0.0227,-0.77146 0.76305,-0.11208 1.05748,-0.36182 1.61104,-1.36658 l 0.67736,-1.22943 -0.77841,0.61229 c -0.42812,0.33676 -1.13742,0.61229 -1.57621,0.61229 -0.60169,0 -1.16159,0.36669 -2.27761,1.49167 l -1.47979,1.49167 -1.73112,-0.0346 c -1.50162,-0.03 -1.93112,0.0848 -3.23969,0.86611 -0.82972,0.49538 -1.75895,1.13153 -2.06496,1.41366 -0.93184,0.85911 -2.87773,1.41221 -5.61504,1.59603 l -2.60572,0.17499 0.92295,0.50072 c 0.66041,0.35829 0.83875,0.58492 0.62695,0.79671 -0.21179,0.21179 -0.78641,-0.007 -2.02008,-0.76995 -1.56951,-0.97036 -1.92221,-1.074 -3.93351,-1.15586 l -2.20941,-0.0899 -1.2759,1.3851 c -0.70174,0.76181 -1.41165,1.3851 -1.57757,1.3851 -0.18024,0 -0.12706,0.24843 0.1321,0.61715 0.23858,0.33942 0.55879,1.11085 0.71157,1.71428 0.37608,1.48543 1.08816,3.15306 1.68476,3.94556 0.58049,0.77111 0.62557,1.12873 0.14229,1.12873 -0.53894,0 -1.81886,-2.15918 -2.27629,-3.84 -0.2258,-0.82972 -0.68238,-2.03527 -1.01462,-2.679 -0.65598,-1.271 -2.99729,-3.35529 -3.76904,-3.35529 -0.2635,0 -0.8141,0.43922 -1.22355,0.97604 -0.64141,0.84093 -0.85475,0.95182 -1.54113,0.80107 -1.01596,-0.22315 -1.02328,0.1549 -0.0246,1.27256 0.70213,0.78582 0.8325,0.83269 1.44,0.5177 0.36739,-0.19049 0.93648,-0.66994 1.26465,-1.06543 0.44692,-0.53861 0.67639,-0.64106 0.91428,-0.40822 0.54231,0.53076 -1.45087,2.29485 -2.59285,2.29485 -1.03911,0 -2.20667,-1.11851 -2.52728,-2.42114 -0.67155,-2.72839 -2.05663,-2.73316 -4.78765,-0.0165 -0.98611,0.98094 -1.5202,1.32626 -1.84421,1.19239 -1.04019,-0.42974 -1.34231,-0.40984 -1.98042,0.13046 -0.38592,0.32677 -0.47823,0.50098 -0.21771,0.4109 0.24874,-0.086 0.52991,-0.0307 0.62482,0.12284 0.22507,0.36417 -0.72211,0.86411 -1.53649,0.81097 -0.35075,-0.0229 -1.22718,0.27821 -1.94761,0.6691 -2.05715,1.11615 -3.9858,1.41158 -6.61462,1.01322 -1.22324,-0.18536 -2.64029,-0.50631 -3.149,-0.71321 -1.37788,-0.56041 -2.34743,-0.46257 -4.08861,0.4126 -1.95132,0.98079 -2.64676,0.81231 -3.06548,-0.74268 -0.45679,-1.69642 -0.89917,-1.90561 -2.42843,-1.14838 -0.94455,0.4677 -2.0205,0.69215 -4.04505,0.84381 -2.65988,0.19926 -3.45679,0.43268 -5.6075,1.64249 -0.67974,0.38236 -1.31383,0.5077 -2.17196,0.42933 -1.51351,-0.13822 -2.846,0.32248 -4.69824,1.62439 -1.90875,1.34163 -2.7915,1.68297 -4.92409,1.90404 -2.20281,0.22834 -5.03264,-0.207 -7.15664,-1.10097 -2.46946,-1.03938 -4.53748,-0.83851 -6.51803,0.63311 -0.62452,0.46404 -1.30732,0.69433 -2.12404,0.7164 -0.79214,0.0214 -1.20423,0.15541 -1.20533,0.39194 -0.003,0.70176 -1.94705,0.26618 -2.5738,-0.57675 -0.55093,-0.74095 -0.55458,-0.80732 -0.11227,-2.03734 0.57756,-1.60612 0.29441,-2.27104 -0.96708,-2.27104 -0.48913,0 -1.17934,0.20314 -1.53382,0.45143 -0.5896,0.41297 -0.6303,0.58717 -0.47789,2.04539 0.14726,1.40885 0.10041,1.64034 -0.40332,1.99316 l -0.56992,0.39919 0.59679,0.3194 c 0.78323,0.41917 1.32044,0.18675 1.66537,-0.72049 0.33805,-0.88912 0.96939,-0.48978 0.67785,0.42876 -0.29678,0.93509 -1.30564,1.45776 -2.17544,1.12706 -0.90182,-0.34287 -2.62691,-1.69228 -2.64214,-2.06675 -0.006,-0.15086 -0.363,-0.68554 -0.79303,-1.18819 -0.86312,-1.00886 -0.84167,-1.01229 -3.172973,0.50674 -1.11817,0.72858 -1.990326,1.09287 -2.616431,1.09287 -0.67997,0 -4.21707,1.40723 -5.618013,2.23512 -0.672163,0.39721 -1.565304,0.65596 -2.325556,0.67373 -0.678858,0.0159 -2.468572,0.0569 -3.977143,0.0912 -1.508572,0.0343 -2.989715,-0.0298 -3.291429,-0.14239 -0.301714,-0.11264 -1.551192,-0.92223 -2.776617,-1.79908 -3.612761,-2.58513 -4.145427,-2.6595 -7.231975,-1.00962 l -2.144166,1.14613 -1.908127,-0.36004 c -1.885693,-0.3558 -2.311403,-0.33296 -4.727686,0.25369 -0.678857,0.16482 -3.384351,0.41723 -6.012209,0.56091 -5.145664,0.28134 -5.612065,0.22383 -10.033505,-1.23726 -1.056,-0.34896 -2.552421,-0.71738 -3.325379,-0.81871 l -1.405379,-0.18424 -0.304012,2.14669 c -0.662014,4.6746 -0.670457,5.62954 -0.0601,6.79689 0.337432,0.64537 0.466738,1.18479 0.319341,1.33218 -0.29809,0.29809 -1.037127,-0.75425 -1.387396,-1.97557 -0.241847,-0.84327 0.03237,-4.72589 0.516978,-7.31987 l 0.227524,-1.21788 -1.267933,-0.57565 c -1.640968,-0.74501 -3.782302,-1.33175 -4.875288,-1.33587 -0.849152,-0.003 -0.867702,0.0247 -1.045027,1.57389 -0.09929,0.86743 -0.142268,6.74183 -0.0955,13.05422 l 0.08503,11.47708 2.057143,-0.18698 c 1.131428,-0.10284 2.587496,-0.41857 3.235705,-0.70162 z M 72.192,160.128 c -0.797733,-0.79773 -0.208778,-1.73836 1.274141,-2.03494 1.134707,-0.22695 1.167897,0.36713 0.04243,0.75947 -0.84205,0.29354 -1.035665,0.61786 -0.548571,0.9189 0.150857,0.0932 0.274285,0.28566 0.274285,0.42761 0,0.36492 -0.65068,0.32056 -1.042285,-0.071 z m -8.556828,-0.6942 c -0.0014,-0.52931 1.313919,-0.72617 2.492533,-0.37305 1.601072,0.4797 1.297718,0.80179 -0.709676,0.75352 -1.204251,-0.0289 -1.782258,-0.1523 -1.782857,-0.38047 z m 4.013246,-1.73942 c -0.970662,-0.76353 -0.993286,-2.20302 -0.04946,-3.14685 0.911242,-0.91124 2.555763,-0.92986 3.393227,-0.0384 1.047686,1.11521 0.565719,1.41022 -0.734014,0.44928 -0.620442,-0.45871 -0.895412,-0.50997 -1.500836,-0.27979 -0.407673,0.155 -0.882719,0.59236 -1.055657,0.97192 -0.260208,0.57109 -0.229737,0.7837 0.176687,1.23279 0.270117,0.29848 0.721701,0.61587 1.00352,0.70531 0.281818,0.0894 0.512397,0.27774 0.512397,0.41843 0,0.45233 -1.001307,0.273 -1.745867,-0.31267 z m 37.576172,-0.19611 c -0.0856,-0.13845 0.0217,-0.48592 0.23833,-0.77215 0.21665,-0.28622 0.39784,-0.61298 0.40264,-0.72612 0.005,-0.11314 -0.90147,-0.20572 -2.01393,-0.20572 -1.11246,0 -2.54115,-0.18293 -3.17485,-0.40651 -1.017987,-0.35917 -1.265523,-0.35917 -2.125128,0 -1.13799,0.47548 -1.45451,0.50579 -1.45451,0.13927 0,-0.57033 1.695494,-1.15819 2.846966,-0.9871 0.621602,0.0924 2.338272,0.25809 3.814822,0.36828 2.77317,0.20696 3.42632,0.52259 2.94448,1.42293 -0.3744,0.69957 -1.31096,1.43873 -1.47882,1.16712 z m -29.613162,-0.51541 c -0.230274,-0.23028 -0.237973,-1.54865 -0.01248,-2.13629 0.14791,-0.38544 1.441867,-1.24657 1.873141,-1.24657 0.449945,0 0.05148,0.78004 -0.534951,1.04723 -0.565957,0.25787 -0.685714,0.50507 -0.685714,1.41546 0,1.03475 -0.215532,1.34463 -0.64,0.92017 z m -19.164389,-0.23868 c -0.08099,-0.081 0.0204,-0.94702 0.2253,-1.92451 0.381906,-1.82192 1.03824,-3.27432 2.054225,-4.54577 0.401506,-0.50247 0.672368,-1.45027 0.895391,-3.13314 0.189897,-1.43292 0.458592,-2.45904 0.661637,-2.52672 0.26192,-0.0873 0.303524,0.35684 0.17787,1.89886 -0.09021,1.10705 -0.270808,2.35224 -0.401329,2.7671 -0.130521,0.41486 -0.137455,0.75428 -0.01541,0.75428 0.122046,0 0.504065,0.53189 0.848931,1.18196 0.517121,0.97479 0.585954,1.37143 0.392698,2.26286 -0.128881,0.5945 -0.210205,1.2969 -0.180718,1.5609 0.03127,0.28 -0.129782,0.48 -0.386537,0.48 -0.377126,0 -0.413587,-0.24803 -0.254644,-1.73221 0.158547,-1.48049 0.107973,-1.82795 -0.348038,-2.3911 -0.468212,-0.57822 -0.590223,-0.61186 -0.996455,-0.27472 -0.705338,0.58538 -1.397993,2.15461 -1.789951,4.05517 -0.329747,1.59891 -0.517639,1.93237 -0.882971,1.56704 z M 110.53414,156 c -0.78588,-1.28893 -0.69277,-2.53401 0.30588,-4.09027 0.4683,-0.72978 0.95473,-1.32687 1.08096,-1.32687 0.55795,0 0.46927,0.55861 -0.24527,1.545 -1.16074,1.60235 -1.25321,2.32379 -0.44966,3.5079 0.79957,1.17822 0.81604,1.25567 0.26706,1.25567 -0.2285,0 -0.66004,-0.40115 -0.95897,-0.89143 z m 34.28872,0.46907 c 0,-0.23229 -0.24686,-0.90623 -0.54858,-1.49764 -0.67561,-1.32432 -0.69031,-1.95847 -0.0633,-2.73274 0.6498,-0.80247 3.58705,-1.13315 4.14061,-0.46616 0.48696,0.58676 0.13279,1.15127 -0.42951,0.68459 -0.45422,-0.37696 -2.1238,-0.32948 -2.89319,0.0823 -0.62952,0.3369 -0.60745,1.09959 0.0683,2.36038 0.65176,1.21604 0.70517,1.99164 0.13714,1.99164 -0.22628,0 -0.41142,-0.19006 -0.41142,-0.42236 z m -81.188575,-1.34039 c 0,-0.23734 0.120259,-0.43154 0.267242,-0.43154 0.377904,0 1.104187,-1.4931 1.104187,-2.26999 0,-0.86893 -1.013031,-1.77535 -2.44871,-2.19102 -1.356166,-0.39265 -1.504359,-0.93213 -0.217789,-0.79285 1.180773,0.12783 2.220767,0.69828 2.942683,1.6141 0.716435,0.90886 0.621594,2.49222 -0.216593,3.61602 -0.618233,0.82888 -1.43102,1.08748 -1.43102,0.45528 z m 54.523415,0.24044 c -0.083,-0.083 -0.0448,-0.60755 0.0849,-1.16571 0.12967,-0.55816 0.23871,-1.8561 0.2423,-2.8843 0.007,-1.9814 0.23081,-2.64703 1.26369,-3.75728 0.5513,-0.5926 1.48571,-2.65962 1.48571,-3.28656 0,-0.11239 -0.92474,-1.10744 -2.05498,-2.21123 -1.88713,-1.84297 -2.591,-2.8352 -2.25183,-3.17437 0.18544,-0.18544 4.66508,4.45077 4.89128,5.06225 0.27419,0.7412 -0.66601,3.24546 -1.57449,4.1937 -0.73129,0.76331 -0.80345,1.03234 -0.97075,3.61949 -0.21524,3.32826 -0.49333,4.22649 -1.11581,3.60401 z m -70.255617,-1.42626 c 0.129283,-0.264 0.206046,-1.43658 0.170586,-2.60572 -0.03546,-1.16914 0.04836,-2.12571 0.186268,-2.12571 0.137908,0 0.396087,0.70012 0.573731,1.55583 0.374495,1.80393 0.0018,3.6556 -0.735881,3.6556 -0.315989,0 -0.367534,-0.12708 -0.194704,-0.48 z m 91.377797,-0.94468 c -0.99362,-0.82755 -1.04639,-0.83908 -2.27072,-0.49629 -0.68941,0.19302 -1.324,0.28041 -1.41021,0.19421 -0.32147,-0.32148 0.20071,-0.6838 1.43253,-0.99398 1.08461,-0.2731 1.37473,-0.25277 1.99323,0.13971 1.13417,0.71971 1.95502,1.54133 1.79636,1.79804 -0.22425,0.36285 -0.4458,0.27061 -1.54119,-0.64169 z M 74.88,153.05924 c -1.531328,-0.1975 -1.75982,-0.34001 -2.760974,-1.72206 -0.964383,-1.3313 -1.043521,-2.47597 -0.21147,-3.05876 0.773805,-0.54199 1.220735,-0.25615 0.626374,0.40061 -0.573584,0.63381 -0.378431,1.55758 0.566214,2.68023 0.528865,0.62852 1.006711,0.86239 2.057223,1.00688 0.752591,0.1035 1.368347,0.29275 1.368347,0.42055 0,0.38242 -0.347562,0.43998 -1.645714,0.27255 z m 25.85143,0.0848 c -1.004336,-0.40526 0.17436,-2.52849 1.88939,-3.40343 1.24483,-0.63507 3.50451,-2.28595 3.99728,-2.92035 0.20851,-0.26844 0.27235,-0.86595 0.17129,-1.60329 -0.19575,-1.42812 0.10181,-3.20945 0.5132,-3.07232 0.24961,0.0832 0.36311,2.33238 0.23798,4.71571 -0.024,0.45691 -2.78697,2.62062 -4.39217,3.43953 -1.06901,0.54537 -2.17006,1.787 -1.8598,2.09726 0.0833,0.0833 1.1039,-0.10981 2.26797,-0.42917 1.16407,-0.31936 2.1844,-0.51275 2.26739,-0.42976 0.31592,0.31593 -0.51075,0.76391 -2.32247,1.25857 -1.97721,0.53984 -2.21796,0.57003 -2.77006,0.34725 z m -48.617145,-0.37968 c 0,-0.14841 0.371091,-0.92737 0.824645,-1.73102 0.637517,-1.12962 0.78508,-1.65902 0.650287,-2.33299 -0.0959,-0.47948 -0.281844,-0.93822 -0.413216,-1.01941 -0.381326,-0.23567 -0.276247,-0.66382 0.16292,-0.66382 1.180739,0 1.314564,2.82586 0.216054,4.56223 -0.729487,1.15307 -1.44069,1.73806 -1.44069,1.18501 z M 78.113093,152.002 c -1.111544,-0.80056 -1.287383,-1.14486 -0.584698,-1.14486 0.528359,0 2.288747,1.27654 2.288747,1.65967 0,0.44398 -0.642176,0.24997 -1.704049,-0.51481 z m 5.612621,-0.24855 c -0.821585,-0.074 -1.165715,-0.22974 -1.165715,-0.52758 0,-0.35631 0.26887,-0.39202 1.714286,-0.22767 0.942857,0.1072 1.757503,0.23454 1.810323,0.28296 0.228917,0.20989 -0.30656,0.66889 -0.729368,0.62521 -0.255096,-0.0264 -0.988383,-0.0952 -1.629526,-0.15292 z m 12.822857,-0.20355 c 0,-0.22241 0.339428,-0.58097 0.754286,-0.7968 0.414857,-0.21582 1.053515,-0.71271 1.41924,-1.10418 0.639521,-0.68455 1.392193,-0.95017 1.392193,-0.4913 0,0.45149 -2.811246,2.79666 -3.352464,2.79666 -0.11729,0 -0.213255,-0.18197 -0.213255,-0.40438 z m -53.895554,-0.68553 c -0.108914,-0.49588 0.04383,-1.67582 0.389635,-3.00987 0.675023,-2.60413 0.710281,-3.84943 0.160317,-5.66234 -0.224653,-0.74054 -0.409796,-1.3773 -0.411429,-1.41502 -0.0016,-0.0377 0.172602,-0.0686 0.387188,-0.0686 1.048925,0 1.432198,4.65624 0.608047,7.38693 -0.639863,2.12008 -0.571793,2.51935 0.260389,1.52736 1.063391,-1.26761 1.505369,-2.25035 1.578549,-3.50992 0.101574,-1.74828 0.591439,-1.50173 0.591363,0.29763 -6.1e-5,1.45767 -0.10242,1.71611 -1.355758,3.42307 -0.74563,1.0155 -1.507222,1.84636 -1.692426,1.84636 -0.185204,0 -0.417348,-0.36703 -0.515875,-0.81563 z m 106.246873,-0.22581 -1.47132,-0.76715 -0.0838,-1.45208 c -0.0947,-1.64205 0.26679,-2.38319 1.51473,-3.10533 0.72742,-0.42094 0.87051,-0.42664 1.39998,-0.0558 0.33549,0.23499 0.77656,1.0557 1.02308,1.90369 0.31634,1.08819 0.70453,1.71416 1.43787,2.31864 0.97786,0.80604 0.98603,0.82802 0.30764,0.82802 -0.94962,0 -2.05114,-1.23406 -2.44828,-2.74286 -0.47853,-1.81802 -0.72719,-2.02331 -1.65256,-1.36439 -0.87767,0.62496 -1.23078,1.77406 -0.85161,2.77134 0.23072,0.60684 1.21199,1.19748 2.85006,1.71548 0.264,0.0835 0.48,0.27909 0.48,0.43468 0,0.49695 -0.99143,0.30535 -2.50582,-0.48426 z m 7.16868,0.48176 c 0,-0.15696 0.26574,-0.64482 0.59053,-1.08413 0.38534,-0.5212 0.59978,-1.23213 0.61715,-2.04597 0.0146,-0.68597 0.11918,-1.24726 0.23232,-1.2473 0.53117,-1.7e-4 0.61186,0.0618 0.53986,0.41491 -0.0532,0.26078 0.30332,0.16628 1.14292,-0.30298 1.59976,-0.89413 1.90474,-0.3906 0.37788,0.6239 -0.69039,0.45873 -1.39389,1.23841 -1.7178,1.90381 -0.62291,1.27963 -1.18966,2.02315 -1.54216,2.02315 -0.13238,0 -0.2407,-0.12842 -0.2407,-0.28539 z m -61.258058,-0.17267 c -0.347798,-0.34779 -0.177178,-0.62746 0.640916,-1.05051 1.168421,-0.60421 1.06694,-1.35085 -0.26721,-1.96598 -0.599536,-0.27642 -1.093251,-0.65688 -1.097142,-0.84545 -0.01026,-0.49686 0.460109,-0.4237 1.678538,0.2611 1.138371,0.6398 1.611438,1.63276 1.137247,2.38707 -0.362506,0.57665 -1.860492,1.44563 -2.092349,1.21377 z m 15.602618,-0.61783 c -0.1408,-0.22783 0.26113,-0.84007 1.15698,-1.76233 2.28619,-2.35357 2.4844,-3.29699 1.16132,-5.52749 -0.88174,-1.48646 -1.01577,-2.05965 -0.48,-2.0527 0.18857,0.002 0.75916,0.84094 1.26797,1.86331 1.30837,2.62894 1.11844,3.59685 -1.18235,6.02536 -1.20683,1.27382 -1.77147,1.70051 -1.92392,1.45385 z M 107.52,150.00417 c 0,-0.16742 0.63199,-0.9959 1.40442,-1.84106 l 1.40442,-1.53666 -0.16593,-1.58751 c -0.17568,-1.68086 0.17333,-2.15164 0.65531,-0.88394 0.67001,1.76227 0.28603,2.85659 -1.75015,4.98786 -1.1276,1.18024 -1.54807,1.41418 -1.54807,0.86131 z m 31.63555,0.0305 c -1.23118,-0.49648 -1.13654,-2.00344 0.19625,-3.12491 0.57324,-0.48234 0.8082,-0.92613 0.8082,-1.52649 0,-1.14974 0.85216,-1.54423 2.42242,-1.1214 0.72472,0.19515 1.14329,0.46536 1.14329,0.73806 0,0.29917 -0.14619,0.37238 -0.48,0.24038 -0.264,-0.10441 -0.88114,-0.25719 -1.37143,-0.33952 -0.83721,-0.1406 -0.89142,-0.10075 -0.89142,0.65524 0,0.55984 -0.29232,1.08826 -0.96,1.73541 -1.4703,1.42506 -1.21728,2.19428 0.72176,2.19428 0.91911,0 2.32718,-0.64397 2.4925,-1.13993 0.0602,-0.18074 0.25687,-0.23756 0.43695,-0.12627 0.55043,0.34018 -0.1063,1.16009 -1.31733,1.64465 -1.21257,0.48517 -2.27989,0.54202 -3.20119,0.1705 z m -73.392528,-1.11464 c -2.11214,-1.11513 -2.916961,-4.52221 -1.466356,-6.20758 0.936273,-1.0878 1.184651,-0.59395 0.423186,0.84143 -0.587258,1.10699 -0.612177,1.30787 -0.293982,2.36991 0.657118,2.19327 2.531428,3.32038 3.698421,2.22405 0.724749,-0.68087 0.995709,-0.73273 0.995709,-0.1906 0,0.49146 -1.296547,1.53256 -1.888419,1.51636 -0.243655,-0.007 -0.904507,-0.25577 -1.468559,-0.55357 z m 124.690218,0.15365 c -0.36865,-0.96068 0.7879,-2.87939 1.73562,-2.87939 0.55753,0 0.42807,0.39021 -0.35552,1.07153 -0.56835,0.49418 -0.68241,0.78597 -0.55543,1.4209 0.11992,0.59959 0.0567,0.799 -0.25338,0.799 -0.22725,0 -0.48433,-0.18542 -0.57129,-0.41204 z M 61.993995,147.4547 c -0.352998,-1.70038 -0.283635,-3.59184 0.131719,-3.59184 0.150857,0 0.286688,0.30857 0.301847,0.68571 0.01516,0.37714 0.112756,1.36457 0.216884,2.19429 0.251244,2.00199 0.250423,2.02933 -0.0641,2.13417 -0.149728,0.0499 -0.413583,-0.59014 -0.586345,-1.42233 z m 155.240285,0.64993 c 0,-0.15616 0.19852,-0.5869 0.44115,-0.9572 0.49096,-0.7493 0.36728,-0.86227 -1.10571,-1.00992 -0.44093,-0.0442 -0.85698,-0.2485 -0.92454,-0.454 -0.099,-0.30096 0.19508,-0.33673 1.5117,-0.18392 1.47425,0.1711 1.73677,0.12032 2.6771,-0.5178 0.78602,-0.53341 1.38936,-0.70751 2.45184,-0.70751 1.5396,0 2.89568,0.66536 2.38892,1.17212 -0.19818,0.19818 -0.39444,0.19816 -0.64026,-7e-5 -0.67816,-0.54685 -2.05575,-0.66493 -3.02632,-0.2594 -0.52019,0.21735 -1.48955,1.02658 -2.15412,1.79828 -1.18973,1.38149 -1.61976,1.67869 -1.61976,1.11942 z M 81.928591,147.72478 c -2.051845,-0.74476 -3.757163,-2.31675 -3.757163,-3.4634 0,-0.5466 0.551596,-0.22829 0.954484,0.55081 0.555589,1.07439 2.56907,2.22449 4.274614,2.44165 0.754772,0.0961 1.398995,0.29816 1.431607,0.44902 0.09248,0.42776 -1.747162,0.44166 -2.903542,0.0219 z m 93.657659,-0.34608 c -0.1729,-0.30894 -0.1241,-0.82981 0.14776,-1.57714 0.50244,-1.38116 0.29046,-5.38997 -0.33201,-6.27867 -0.49151,-0.70173 -0.53108,-1.87267 -0.0786,-2.32518 0.18103,-0.18103 0.98296,-0.32914 1.78206,-0.32914 1.28787,0 1.57942,0.11428 2.56637,1.00593 1.11065,1.0034 1.90528,2.43198 1.90528,3.42528 0,0.5471 -1.69235,2.42593 -2.18514,2.42593 -0.52954,0 -0.28612,-0.5957 0.53943,-1.32011 1.21223,-1.06372 1.05276,-2.039 -0.62301,-3.81007 -1.82167,-1.92528 -4.61454,-1.17484 -3.09399,0.83135 0.62062,0.81883 0.82704,4.75955 0.32519,6.20812 -0.23314,0.67297 -0.36636,1.28111 -0.29604,1.35144 0.0703,0.0703 0.48331,-0.2127 0.91776,-0.62893 1.07253,-1.02754 1.4555,-0.40172 0.41731,0.68192 -0.86169,0.89941 -1.60783,1.02646 -1.9924,0.33927 z m -75.694531,-0.92081 c -0.33016,-0.3076 -0.600291,-0.79033 -0.600291,-1.07274 0,-0.57234 1.065822,-3.57547 1.408312,-3.96816 0.51942,-0.59555 0.5089,0.72733 -0.0152,1.91218 -0.793173,1.7931 -0.750767,2.53507 0.15792,2.76314 0.95156,0.23882 1.46155,-0.10572 2.25315,-1.52221 0.41598,-0.74433 0.74483,-1.06796 0.91366,-0.89913 0.3048,0.30481 -0.70397,2.46512 -1.39792,2.99366 -0.68277,0.52004 -2.05117,0.41601 -2.719621,-0.20674 z M 51.091288,145.84297 C 50.464063,145.15404 49.92,144.17895 49.92,143.74375 c 0,-0.59543 0.512999,-0.26239 1.1341,0.73625 0.351844,0.56571 0.735849,1.17463 0.853346,1.35314 0.40231,0.61123 -0.261349,0.61923 -0.816158,0.01 z m 179.857282,0.21014 c 0,-0.4284 1.51746,-1.5017 2.12571,-1.50351 0.18858,-5.7e-4 0.34286,0.18411 0.34286,0.4104 0,0.22628 -0.1685,0.41143 -0.37444,0.41143 -0.20594,0 -0.68826,0.24685 -1.07183,0.54857 -0.83589,0.65751 -1.0223,0.68178 -1.0223,0.13311 z m -158.493115,-1.3803 c -0.388481,-0.85263 -0.4039,-1.22138 -0.05107,-1.22138 0.344374,0 1.136834,1.52164 0.910391,1.74808 -0.314988,0.31499 -0.53814,0.17821 -0.85932,-0.5267 z M 186.97036,143.9849 c -0.85427,-0.61173 -1.55322,-1.29058 -1.55322,-1.50857 0,-0.21798 0.0711,-0.39633 0.15798,-0.39633 0.40433,0 3.39766,2.53726 3.25866,2.76216 -0.2144,0.34691 -0.12328,0.38882 -1.86342,-0.85726 z m 39.86392,0.61229 c 0,-0.27387 1.2932,-0.59719 2.38858,-0.59719 0.41683,0 0.63114,0.13091 0.56129,0.34286 -0.13147,0.39896 -2.94987,0.64196 -2.94987,0.25433 z m 8.50286,-0.0416 c 0,-0.14698 0.34223,-0.44421 0.76052,-0.66052 0.87138,-0.45061 5.6231,-1.37865 6.15356,-1.20183 0.64382,0.21461 -0.82851,0.77479 -3.07408,1.1696 -1.19716,0.21048 -2.41937,0.51258 -2.71601,0.67134 -0.67455,0.36101 -1.12399,0.36957 -1.12399,0.0214 z m -39.22286,-0.48793 c 0,-0.11363 0.364,-0.55016 0.80888,-0.97005 0.66002,-0.62296 0.82406,-1.02525 0.89142,-2.18618 0.0779,-1.34173 0.14503,-1.45803 1.1797,-2.04258 0.60343,-0.34092 1.25143,-0.62188 1.44,-0.62436 0.69638,-0.009 0.31092,0.54921 -0.75428,1.09263 -1.0315,0.52623 -1.09714,0.63267 -1.09714,1.77889 0,0.97255 -0.1722,1.41529 -0.85128,2.18871 -0.77448,0.88208 -1.6173,1.27967 -1.6173,0.76294 z m 17.56529,-0.59569 c -0.15542,-0.29041 -0.96595,-0.8513 -1.80119,-1.24643 -1.59879,-0.75635 -1.83741,-1.37949 -0.36674,-0.95771 1.43352,0.41113 3.22661,1.80588 3.24797,2.52643 0.0127,0.42844 -0.80958,0.18305 -1.08004,-0.32229 z m 3.349,-0.3264 c -0.697,-0.44637 -0.8912,-0.75945 -0.8904,-1.43538 0.001,-0.91378 0.89583,-2.64735 1.36637,-2.64735 0.34463,0 0.3688,0.73456 0.031,0.9433 -0.13601,0.0841 -0.37675,0.52423 -0.53499,0.97816 -0.24765,0.71041 -0.20367,0.90473 0.31585,1.39552 0.48697,0.46004 0.82873,0.54015 1.76927,0.4147 1.41119,-0.18822 1.68444,0.48457 0.30857,0.75974 -1.23672,0.24735 -1.37994,0.22261 -2.36571,-0.40869 z M 67.20989,142.58378 c -1.29364,-0.99303 -1.879619,-1.74262 -1.589247,-2.033 0.101253,-0.10125 0.762265,0.32483 1.468915,0.94685 1.384026,1.21827 1.901924,1.3563 2.732303,0.72824 0.673326,-0.50928 0.943853,-0.52141 0.943853,-0.0423 0,0.52307 -0.588217,0.96037 -1.550778,1.15288 -0.646609,0.12932 -1.056537,-0.0246 -2.005046,-0.75266 z m 160.26003,0.10412 c -2.49247,-1.65375 -2.9767,-3.39205 -1.37686,-4.94267 0.86937,-0.84263 1.56408,-1.12976 1.56408,-0.64645 0,0.12662 -0.432,0.62333 -0.96,1.1038 -0.528,0.48047 -0.96,1.0103 -0.96,1.17741 0,0.72629 1.16344,2.07732 2.4432,2.83715 0.76225,0.45257 1.38836,0.91543 1.39136,1.02857 0.0116,0.43915 -1.00641,0.16897 -2.10178,-0.55781 z m -44.13744,-0.63474 c 0.44486,-2.78205 1.44884,-3.74772 3.5515,-3.41602 1.58134,0.24946 3.07205,0.93368 2.74555,1.26018 -0.18154,0.18155 -0.66985,0.13339 -1.45447,-0.14344 -2.64761,-0.93413 -3.69482,-0.38515 -4.02587,2.11048 -0.12022,0.90621 -0.30148,1.31278 -0.5853,1.31278 -0.32769,0 -0.37466,-0.22815 -0.23141,-1.12398 z m -123.401052,-0.0348 c -0.301714,-0.17559 -0.970434,-0.38828 -1.486045,-0.47265 -0.51561,-0.0844 -0.988753,-0.30724 -1.051428,-0.49526 -0.159191,-0.47758 1.528792,-0.42866 2.40033,0.0696 0.900744,0.51491 1.897507,0.51491 2.095097,0 0.161363,-0.42051 0.922046,-0.584 0.922046,-0.19817 0,0.11729 -0.192142,0.48757 -0.426981,0.82285 -0.471898,0.67373 -1.557485,0.79484 -2.453019,0.27367 z m 92.194202,-0.44913 c -0.6881,-0.76034 -0.99384,-2.09982 -0.70732,-3.09886 0.31689,-1.10494 1.2936,-2.15036 2.00902,-2.15036 0.4902,0 0.45166,0.10617 -0.33199,0.91469 -1.17012,1.20726 -1.39431,2.52937 -0.6001,3.53905 0.56934,0.72379 0.6241,0.73667 1.52736,0.35927 1.07607,-0.44961 1.64492,-0.0398 0.80116,0.57717 -0.73001,0.5338 -2.15484,0.45937 -2.69813,-0.14096 z m 50.29723,0.35391 c 0,-0.0863 0.32508,-0.7116 0.72241,-1.38959 0.46093,-0.78652 0.81761,-1.13751 0.98541,-0.96971 0.28168,0.28168 -0.0858,1.18812 -0.82558,2.03617 -0.40688,0.46646 -0.88224,0.64056 -0.88224,0.32313 z M 46.063362,141.37424 c -0.196951,-0.23731 -0.843892,-0.67931 -1.437647,-0.98223 -0.722625,-0.36865 -0.988499,-0.6418 -0.804151,-0.82615 0.452959,-0.45296 3.355579,1.28864 3.355579,2.01338 0,0.38519 -0.736466,0.24963 -1.113781,-0.205 z M 95.88682,140.9671 c -0.720656,-0.63274 -1.178376,-0.83389 -1.679555,-0.73808 -0.78232,0.14955 -1.213252,-0.28249 -0.642406,-0.64406 0.709319,-0.44927 1.592286,-0.24862 2.530378,0.57504 1.007669,0.88474 1.526426,1.01148 2.03962,0.49828 0.451033,-0.45103 0.790013,-0.0261 0.43349,0.54345 -0.509053,0.81317 -1.596525,0.71802 -2.681527,-0.23463 z m 39.14823,-0.15627 c -0.76249,-0.80848 -0.92273,-1.17585 -0.85524,-1.96079 0.0464,-0.53934 0.28922,-1.09503 0.54989,-1.25828 0.56948,-0.35663 0.99451,-0.0177 0.54344,0.43338 -0.49209,0.49209 -0.3898,1.42938 0.24391,2.23501 0.93726,1.19153 1.72879,0.86014 1.68429,-0.70515 -0.0308,-1.08425 0.60143,-0.84706 0.71197,0.26709 0.0925,0.93229 -0.69846,1.98362 -1.49235,1.98362 -0.24619,0 -0.86985,-0.44769 -1.38591,-0.99488 z m 11.0208,0.65203 c -0.19362,-0.54764 -0.67037,-2.77727 -0.67772,-3.1695 -0.007,-0.36289 3.02676,-3.61908 3.37163,-3.61908 0.57343,0 0.012,1.00248 -1.21904,2.17663 -1.33826,1.27643 -1.39737,1.39245 -1.21966,2.39384 0.4071,2.29401 0.90946,2.65268 1.66608,1.18953 0.47297,-0.91462 0.96,-1.08473 0.96,-0.33531 0,0.95307 -0.79795,1.70674 -1.80702,1.70674 -0.52418,0 -1.0076,-0.15428 -1.07427,-0.34285 z m -5.27795,-0.87519 c -1.11038,-0.93432 -1.77319,-3.3565 -1.27427,-4.65667 0.33323,-0.86837 0.58438,-0.3951 0.72589,1.36789 0.10984,1.36834 0.29532,1.96214 0.77108,2.46857 0.99421,1.05829 1.35368,0.86511 1.35368,-0.72746 0,-1.85076 0.65128,-1.70531 0.77175,0.17235 0.0661,1.03011 -0.0255,1.42248 -0.39528,1.69285 -0.68551,0.50125 -1.05027,0.44194 -1.95285,-0.31753 z m 30.18897,0.22595 c -0.25039,-0.6525 0.26007,-1.86798 0.83063,-1.97786 0.65962,-0.12703 1.66237,0.77408 1.28327,1.15319 -0.1915,0.1915 -0.38542,0.17611 -0.60991,-0.0484 -0.53355,-0.53354 -0.768,-0.38282 -0.768,0.49371 0,0.87925 -0.4543,1.1134 -0.73599,0.37934 z m 49.83291,0.12352 c -4e-4,-0.68291 -1.67624,-3.91245 -2.64141,-5.09031 -0.73391,-0.89564 -1.1508,-1.17255 -1.76531,-1.17255 -0.94185,0 -0.98142,0.16965 -0.25592,1.09715 0.57401,0.73383 0.71022,1.37143 0.29296,1.37143 -0.28953,0 -1.20593,-1.24664 -1.48734,-2.02334 -0.27281,-0.75295 0.30181,-1.26809 1.41451,-1.26809 0.80726,0 1.17984,0.21908 2.15694,1.26832 1.80879,1.94234 3.47125,5.77883 2.62865,6.06618 -0.18858,0.0643 -0.34296,-0.0477 -0.34308,-0.24879 z M 72.594285,140.52571 c -0.352717,-0.35271 -0.177591,-1.10831 0.372196,-1.60586 0.376846,-0.34104 0.644766,-0.4126 0.834481,-0.22289 0.189716,0.18972 0.143604,0.39216 -0.143624,0.63053 -0.701798,0.58245 -0.482632,0.7883 0.67409,0.63315 1.093799,-0.14671 1.540457,0.24484 0.663281,0.58144 -0.581194,0.22303 -2.171877,0.21218 -2.400424,-0.0164 z m 169.427185,-0.14915 c -0.25452,-0.41182 -0.004,-0.49768 2.16263,-0.74063 1.13453,-0.12724 2.44315,-0.45603 2.90805,-0.73064 1.03646,-0.61226 1.51763,-0.26737 0.63046,0.45188 -1.04023,0.84333 -5.33532,1.61131 -5.70114,1.01939 z m -7.78147,-0.205 c 0,-0.71121 4.07117,-2.35842 7.507,-3.03735 1.66329,-0.32867 4.013,-0.15317 4.013,0.29974 0,0.14161 -0.71707,0.25748 -1.59349,0.25748 -2.03198,0 -5.77051,0.9374 -7.79298,1.95402 -1.66303,0.83594 -2.13353,0.95196 -2.13353,0.52611 z m -74.17469,-0.71687 c -0.59424,-0.59424 -0.54529,-0.8607 0.30242,-1.64634 0.53714,-0.49779 0.81245,-0.59741 1.02858,-0.37218 0.21297,0.22196 0.12334,0.42412 -0.32203,0.7263 -0.33942,0.2303 -0.61714,0.5271 -0.61714,0.65956 0,0.37006 1.1535,0.26757 1.92,-0.1706 0.79007,-0.45164 1.37143,-0.52127 1.37143,-0.16424 0,0.3878 -1.88034,1.39852 -2.6018,1.39852 -0.35774,0 -0.8444,-0.19396 -1.08146,-0.43102 z m 68.96326,-1.35183 c 0,-0.29371 0.29894,-0.41143 1.04472,-0.41143 0.57459,0 1.28431,-0.18122 1.57714,-0.40271 0.63096,-0.47723 1.89104,-0.56894 1.61192,-0.1173 -0.60766,0.9832 -4.23378,1.78096 -4.23378,0.93144 z m -72,-0.68572 c -0.29537,-0.47791 0.14243,-0.88563 0.56997,-0.53081 0.2112,0.17528 0.31635,0.42813 0.23368,0.56189 -0.20009,0.32375 -0.59377,0.30852 -0.80365,-0.0311 z m 25.09714,-0.0784 c -0.70261,-0.35313 -2.71945,-3.07692 -2.73449,-3.693 -0.0182,-0.7446 0.59345,-0.27027 1.52082,1.17944 1.02465,1.60178 1.97115,2.26788 2.65449,1.86809 0.22195,-0.12985 1.05138,-1.01854 1.84317,-1.97487 0.95754,-1.15651 1.53126,-1.64713 1.71328,-1.46511 0.37151,0.37152 -2.12082,3.43789 -3.25586,4.00575 -1.02645,0.51353 -0.89058,0.50732 -1.74141,0.0797 z m 27.89888,-0.53589 c -1.59048,-0.92176 -1.74462,-2.40901 -0.2484,-2.3968 0.84728,0.007 2.90576,0.87853 3.20029,1.3551 0.3744,0.60578 -0.10331,0.62111 -1.30019,0.0417 -1.26563,-0.61269 -2.12201,-0.74592 -2.12201,-0.33016 0,0.1374 0.55543,0.5187 1.23429,0.84733 0.67886,0.32863 1.23429,0.70992 1.23429,0.84732 0,0.42949 -0.91682,0.26225 -1.99827,-0.3645 z m 12.07827,-0.63971 c -0.92789,-0.50338 -0.98607,-1.39447 -0.15967,-2.44507 0.54485,-0.69266 2.00172,-1.51233 2.688,-1.51233 0.1557,0 0.28309,0.18515 0.28309,0.41143 0,0.23365 -0.24615,0.41143 -0.56967,0.41143 -0.67191,0 -2.17318,1.41127 -2.17318,2.0429 0,0.36498 1.2898,0.89774 1.92,0.79307 0.0754,-0.0125 0.47657,-0.10267 0.89143,-0.20031 0.55056,-0.12959 0.75428,-0.0729 0.75428,0.20977 0,0.80255 -2.34413,0.98903 -3.63428,0.28911 z m -49.23429,-0.84362 c -0.931,-0.45895 -1.30945,-1.42684 -0.41143,-1.05224 1.92959,0.80491 1.94431,0.8064 2.55148,0.25691 0.32472,-0.29386 0.76607,-0.87401 0.98079,-1.28923 0.22597,-0.43698 0.61846,-0.75493 0.93192,-0.75493 0.87793,0 0.81929,0.11178 -1.18709,2.26286 -1.05739,1.13364 -1.53912,1.23058 -2.86567,0.57663 z M 236.16,134.99021 c 0,-0.42489 0.63084,-0.69696 3.50638,-1.51224 1.4005,-0.39708 3.03101,-0.9692 3.62335,-1.27139 1.27271,-0.64929 1.68542,-0.69336 1.48,-0.15803 -0.21573,0.56218 -2.22749,1.44261 -5.13181,2.24587 -1.38486,0.38302 -2.73392,0.763 -2.99792,0.84441 -0.264,0.0814 -0.48,0.0145 -0.48,-0.14862 z m -79.0395,-0.22048 c -0.59147,-0.16407 -0.8803,-0.92631 -0.49527,-1.30702 0.21606,-0.21364 0.37638,-0.16227 0.57119,0.183 0.16484,0.29214 0.59649,0.48 1.10292,0.48 0.54286,0 0.79295,0.11918 0.71951,0.34286 -0.11787,0.35895 -1.11802,0.51761 -1.89835,0.30116 z m 59.56521,-2.57508 c -2.03539,-0.72836 -2.81428,-1.35356 -3.22865,-2.59158 -0.29852,-0.89189 -0.28559,-1.13791 0.0899,-1.711 0.82533,-1.25962 3.64804,-1.86484 5.46882,-1.17258 1.20484,0.45807 0.52166,0.76894 -1.35825,0.61804 -2.90211,-0.23296 -4.18528,0.64799 -3.38891,2.32663 0.41627,0.87743 2.27437,1.87587 3.99423,2.14628 0.72277,0.11363 1.16571,0.32777 1.16571,0.56356 0,0.52451 -0.94943,0.46243 -2.74286,-0.17935 z m 10.269,-0.97164 c -0.58855,-1.80102 -0.73965,-1.98646 -1.99305,-2.446 -1.58304,-0.5804 -2.24166,-1.30209 -2.24166,-2.45631 0,-1.0485 0.83822,-1.95303 1.55498,-1.67799 0.41634,0.15977 0.37448,0.26628 -0.32333,0.8227 -0.71039,0.56644 -0.76649,0.71621 -0.49307,1.31629 0.20142,0.44207 0.83656,0.89145 1.82966,1.29452 1.34989,0.54788 1.57361,0.75476 1.98715,1.8376 0.34415,0.90115 0.38562,1.3006 0.15858,1.52763 -0.22703,0.22704 -0.35235,0.16992 -0.47926,-0.21844 z m -24.39591,-1.76209 c -0.20214,-0.32707 0.16464,-0.46854 1.64691,-0.63525 0.60343,-0.0679 1.37486,-0.21352 1.71429,-0.32367 0.91527,-0.29701 0.77039,0.31895 -0.19209,0.81667 -0.91316,0.47221 -2.90979,0.56183 -3.16911,0.14225 z m 5.2812,-0.46142 c -0.264,-0.069 -0.48,-0.28341 -0.48,-0.47649 0,-0.25665 0.37417,-0.3151 1.3914,-0.21736 1.14059,0.1096 1.54001,0.0238 2.21585,-0.47584 0.88932,-0.65751 1.3534,-0.54899 0.88184,0.2062 -0.60053,0.96173 -2.37966,1.3893 -4.00909,0.96349 z m 23.81834,-0.56522 c 0.12094,-0.264 0.2301,-0.912 0.24257,-1.44 0.0272,-1.15075 0.4649,-1.37114 0.78945,-0.39749 0.28322,0.84966 -0.25161,2.31749 -0.84441,2.31749 -0.28901,0 -0.34356,-0.13957 -0.18761,-0.48 z m 8.80806,-3.24375 c -1.02244,-0.43969 -2.36982,-0.74416 -3.77143,-0.85225 -1.56633,-0.12078 -2.18069,-0.27262 -2.18069,-0.53893 0,-0.67495 4.26574,-0.20615 6.32215,0.69479 0.67139,0.29415 1.807,0.62074 2.52357,0.72576 0.71657,0.10503 1.30286,0.30037 1.30286,0.4341 0,0.49882 -2.6357,0.20772 -4.19646,-0.46347 z m -10.98069,-1.39625 c -0.37096,-0.37096 -0.15997,-0.58324 0.74922,-0.7538 0.68965,-0.12938 0.97636,-0.35133 1.10236,-0.85338 0.21281,-0.8479 0.70987,-0.89123 0.70422,-0.0614 -0.006,0.84811 -0.28725,1.21868 -1.18495,1.55999 -0.89382,0.33983 -1.12156,0.35787 -1.37085,0.10858 z M 16.607326,154.82495 c 0.258141,-0.43646 0.935742,-0.49902 6.670908,-0.61597 l 6.383581,-0.13016 0.821019,0.9263 0.821018,0.92631 -0.153364,-2.74286 c -0.08435,-1.50857 -0.154003,-4.55393 -0.154783,-6.76747 l -0.0014,-4.02462 -0.820872,0.82087 c -0.571741,0.57175 -0.982459,0.76959 -1.353291,0.65189 -0.29283,-0.0929 -2.854866,-0.21443 -5.693414,-0.26997 -4.918749,-0.0962 -6.662163,-0.26798 -6.675665,-0.65758 -0.0034,-0.0968 -0.247467,-0.48455 -0.542473,-0.86169 -0.535909,-0.68512 -0.536371,-0.67919 -0.533347,6.85714 0.0029,7.17242 0.02615,7.51415 0.473901,6.95824 0.258981,-0.32155 0.600172,-0.80324 0.758201,-1.07043 z M 261.40894,142.81014 c -0.68818,-2.08521 -1.80393,-3.37055 -3.89848,-4.49105 -1.10733,-0.59237 -2.40649,-1.31303 -2.88704,-1.60148 -0.48055,-0.28845 -0.94737,-0.4508 -1.03739,-0.36079 -0.09,0.09 -0.0161,0.71539 0.16426,1.38972 0.23802,0.88995 0.24939,1.53542 0.0415,2.35451 -0.34721,1.3679 -0.29586,1.39036 2.75606,1.20507 l 2.14785,-0.1304 1.41787,1.5139 c 1.49696,1.59834 1.79218,1.62581 1.29538,0.12052 z M 30.219057,140.98286 c 0.606609,-0.98683 0.795293,-1.70171 0.94112,-3.56572 0.100317,-1.28228 0.304286,-2.48571 0.453265,-2.67428 0.556999,-0.70503 4.895728,-0.076 7.047496,1.02176 0.550365,0.28077 1.981946,0.71156 3.181291,0.95729 1.199345,0.24574 3.353199,0.82774 4.786342,1.29335 2.012326,0.65377 3.270336,0.87718 5.524231,0.98107 3.215388,0.1482 7.480227,-0.26037 9.82095,-0.94083 1.28782,-0.37438 1.826913,-0.39153 3.630379,-0.11545 l 2.117974,0.32423 2.093697,-1.10928 c 3.146203,-1.66693 4.119282,-1.51507 7.956033,1.24158 2.199303,1.58017 3.587981,2.18279 4.454728,1.93316 0.258818,-0.0745 1.704865,-0.16963 3.213436,-0.2113 2.212676,-0.0611 2.928421,-0.1875 3.702858,-0.65381 1.280046,-0.77074 4.300455,-1.95464 5.616729,-2.20158 0.582924,-0.10936 1.8102,-0.66672 2.72728,-1.23858 2.637964,-1.64495 2.907034,-1.64455 4.459374,0.007 l 1.32233,1.40654 v -1.5449 c 0,-1.38562 0.0843,-1.61209 0.81742,-2.19662 0.99071,-0.78988 2.06387,-1.05412 3.3223,-0.81804 0.8278,0.1553 1.09812,0.44456 2.22023,2.37578 1.42517,2.45278 1.57616,2.50473 3.6057,1.24063 2.27254,-1.41546 5.18655,-1.60428 7.39225,-0.47902 1.53517,0.78318 4.45889,1.23004 6.60867,1.01007 1.78334,-0.18248 3.10948,-0.75935 5.10772,-2.22184 1.12807,-0.82563 2.44019,-1.22658 4.01406,-1.22658 0.94312,0 1.78346,-0.23909 2.90764,-0.8273 1.64067,-0.85844 3.92454,-1.36266 6.18456,-1.3654 0.86735,-0.001 1.78987,-0.24375 2.72215,-0.71617 1.19222,-0.60415 1.58192,-0.67833 2.52145,-0.48 1.13792,0.24021 1.28406,0.44471 1.65807,2.32031 l 0.14244,0.71429 1.55204,-0.78286 c 1.8248,-0.92046 2.74364,-0.96988 4.77566,-0.25687 2.11944,0.74367 5.02189,0.96281 6.7105,0.50665 0.75428,-0.20377 2.45001,-1.0889 3.76828,-1.96697 2.06506,-1.37548 2.52068,-1.57329 3.29143,-1.42898 0.79055,0.14803 1.01774,0.0367 1.95374,-0.95784 0.58254,-0.61894 1.59604,-1.36283 2.25222,-1.65309 1.08132,-0.47832 1.28187,-0.49062 2.14161,-0.1314 0.52171,0.21798 1.0785,0.63912 1.23731,0.93586 0.52733,0.98534 1.14707,0.96345 2.09742,-0.0741 1.14922,-1.25465 2.10713,-1.27441 3.69141,-0.0761 0.64823,0.49029 1.40673,1.06038 1.68555,1.26687 0.45672,0.33822 0.63761,0.23628 1.82512,-1.02857 1.50677,-1.60492 1.52295,-1.60774 6.22734,-1.08519 5.09379,0.56579 7.98967,0.15521 10.01142,-1.41945 1.90405,-1.48297 3.86226,-2.2889 5.48572,-2.25773 1.46315,0.0281 1.54573,-0.0108 2.74286,-1.29349 0.96866,-1.03787 1.48487,-1.36358 2.3987,-1.51349 0.89193,-0.14631 1.57361,-0.56183 2.91299,-1.77564 1.95705,-1.77355 3.10742,-2.1727 4.53362,-1.57302 0.76473,0.32154 1.06285,0.30555 2.30507,-0.12368 1.57123,-0.5429 3.88533,-0.65754 4.96755,-0.24609 0.38307,0.14565 1.9287,0.32694 3.43474,0.40287 1.54447,0.0779 3.18374,0.3242 3.76012,0.56502 0.56203,0.23484 2.01757,0.6788 3.23454,0.98658 1.21697,0.30779 3.22226,0.87191 4.45621,1.25362 1.90324,0.58874 2.65452,0.67961 4.95295,0.59913 l 2.70939,-0.0949 2.07053,-1.89834 c 2.77868,-2.5476 4.57123,-5.46988 5.05233,-8.2365 0.193,-1.10983 0.283,-2.27752 0.20002,-2.59485 -0.083,-0.31734 0.0118,-0.97726 0.21075,-1.4665 0.90206,-2.21883 3.80235,-6.823371 5.39773,-8.569525 0.96481,-1.056 1.99568,-2.3863 2.29082,-2.956221 0.40608,-0.784177 0.89189,-1.193344 1.99726,-1.682194 1.71688,-0.759283 2.65383,-1.87512 3.59843,-4.28544 0.83084,-2.120056 1.02448,-2.416925 3.82259,-5.860435 3.72316,-4.581933 4.15185,-5.421203 3.44433,-6.743204 -0.52109,-0.973669 -2.06145,-1.227442 -7.54496,-1.243026 -5.60006,-0.01591 -5.07095,0.09368 -7.95429,-1.647577 -2.36238,-1.426653 -4.24872,-1.187039 -7.83826,0.995663 -1.27067,0.772657 -3.15136,1.853649 -4.17931,2.402204 -1.02795,0.548555 -2.6854,1.645373 -3.68323,2.437373 -2.2562,1.790809 -3.34508,1.919797 -4.87402,0.57737 -1.38909,-1.219638 -1.87782,-2.470483 -1.89884,-4.859801 -0.0156,-1.768645 -0.0932,-2.070208 -0.62534,-2.427103 -0.57561,-0.38609 -0.68816,-0.330345 -2.13932,1.059573 -1.82731,1.750199 -5.3955,6.448756 -7.28562,9.593625 -1.69243,2.815935 -3.30611,4.627765 -4.12164,4.627765 -0.75431,0 -2.79391,-1.160716 -4.1275,-2.348909 -1.44296,-1.285649 -3.5764,-1.696996 -5.51744,-1.063815 -1.81118,0.590817 -1.95032,0.707091 -3.3592,2.807244 -1.78049,2.654086 -5.60483,6.876042 -7.12742,7.86846 -0.30171,0.196656 -1.12828,0.439226 -1.83681,0.539045 -1.75179,0.246795 -2.41462,-0.382887 -2.41462,-2.293878 0,-2.444359 -0.17743,-2.553129 -2.65352,-1.626703 -1.11791,0.418264 -2.13892,1.120222 -3.50743,2.411416 -1.27988,1.207563 -2.85131,2.312092 -4.66282,3.277395 -2.92154,1.556817 -5.20872,3.18657 -7.41623,5.284508 -1.35691,1.28957 -2.92907,2.15095 -3.92582,2.15095 -1.12005,0 -1.77583,-1.77597 -1.95928,-5.306062 -0.007,-0.127478 -0.55566,0.0868 -1.22008,0.476182 -0.66443,0.389378 -2.23814,1.02963 -3.49715,1.42279 -3.07377,0.95986 -7.49775,3.1367 -9.44039,4.6452 -1.13453,0.88098 -1.83807,1.23046 -2.47706,1.23046 -1.13141,0 -1.84951,-0.68125 -1.63193,-1.54819 0.0892,-0.35556 0.23838,-1.20181 0.33141,-1.88057 0.16178,-1.18031 0.13909,-1.23409 -0.52067,-1.23409 -3.0415,0 -12.73791,2.67954 -13.6476,3.77143 -0.83974,1.00793 -2.43221,1.99888 -6.24927,3.88878 -5.86011,2.90143 -6.91644,2.71004 -6.91644,-1.25312 v -2.28503 l -1.09626,-0.72546 c -1.06433,-0.70435 -1.14619,-0.71565 -2.81143,-0.38809 -2.26494,0.44553 -3.9671,1.11033 -5.44383,2.12616 -0.66466,0.45721 -2.01077,1.26519 -2.99134,1.79549 -0.98057,0.53031 -2.77806,1.50913 -3.99442,2.17515 -2.3467,1.28495 -6.20892,2.68897 -7.39689,2.68897 -1.77482,0 -2.25282,-1.31792 -1.37765,-3.7984 0.25877,-0.73343 0.30027,-1.18413 0.11934,-1.29596 -0.7413,-0.45815 -4.2189,0.84675 -7.51038,2.81811 -2.05867,1.233 -5.862109,2.46878 -8.423109,2.73677 -2.523666,0.26408 -3.487789,-0.37656 -4.201718,-2.79195 -0.299459,-1.01314 -0.43407,-1.12689 -1.758109,-1.48574 -1.260983,-0.34175 -1.736928,-0.33516 -3.9483,0.0547 -2.046225,0.36074 -3.229572,0.79589 -6.354477,2.33676 -3.857148,1.90194 -5.266053,2.32473 -8.957511,2.688 -2.53493,0.24946 -3.648231,-0.0226 -4.987113,-1.21854 -2.007536,-1.79326 -1.803832,-1.74101 -3.901574,-1.00084 -1.046306,0.36918 -2.500472,0.67384 -3.231482,0.67702 -0.73101,0.003 -1.656724,0.18082 -2.057143,0.39476 -1.926192,1.02911 -6.900561,3.1899 -8.022882,3.48501 -1.474658,0.38775 -1.967447,0.25281 -2.599484,-0.7118 -0.410846,-0.62703 -0.423806,-0.89405 -0.114204,-2.35296 0.192079,-0.90512 0.266153,-1.72875 0.164608,-1.8303 -0.281973,-0.28197 -8.023022,0.37459 -10.041787,0.8517 -6.54168,1.54605 -6.93673,1.59386 -12.698555,1.53695 -3.047794,-0.0301 -5.819159,-0.0416 -6.158587,-0.0254 L 15.36,114.92571 v 11.77959 11.77959 l 1.00598,1.72899 c 0.553289,0.95093 1.09714,1.79069 1.208557,1.86612 0.111418,0.0754 2.831301,0.13714 6.044186,0.13714 h 5.841608 z m 79.557883,-2.34837 c 0.0847,-0.0847 -0.15828,-0.71295 -0.54005,-1.39601 -0.71275,-1.27525 -1.15481,-1.23935 -1.16412,0.0945 -0.005,0.7727 1.26372,1.74192 1.70417,1.30147 z m 147.34333,-1.72938 c 0.0808,-0.13076 -0.0352,-1.27248 -0.25772,-2.53715 -0.22256,-1.26466 -0.40483,-2.33725 -0.40503,-2.38351 -2.1e-4,-0.0463 -0.2747,0.10801 -0.60998,0.34285 -0.33528,0.23484 -0.89071,0.42698 -1.23429,0.42698 -0.56429,0 -0.62468,0.12877 -0.62468,1.33196 0,1.28846 0.0425,1.35933 1.30286,2.17042 1.44739,0.93149 1.61679,0.99156 1.82884,0.64845 z m -1.05212,-5.24797 c 0.21394,0 0.38899,-0.24686 0.38899,-0.54857 0,-0.30171 0.10057,-0.54857 0.22349,-0.54857 0.36336,0 1.08826,-1.74619 1.29375,-3.11645 0.10492,-0.69967 0.10051,-1.27212 -0.01,-1.27212 -0.11031,0 -0.66878,0.46822 -1.24106,1.0405 -0.82629,0.82629 -1.10068,1.36601 -1.33278,2.62159 -0.16076,0.86959 -0.37711,1.71834 -0.4808,1.88611 -0.12401,0.20065 -0.0247,0.24215 0.29034,0.12127 0.26337,-0.10107 0.65391,-0.18376 0.86786,-0.18376 z m 0.58411,-5.43807 c 1.25499,-1.26748 1.29737,-2.56587 0.0528,-1.61606 -0.71078,0.54241 -1.6813,2.66556 -1.21847,2.66556 0.0696,0 0.59417,-0.47228 1.16572,-1.0495 z m 0.85982,-3.20415 c 0.6584,-0.69415 2.23649,-5.39514 2.23649,-6.66228 v -0.67805 l -0.54857,0.6974 c -0.30172,0.38356 -0.54857,0.96745 -0.54857,1.29752 0,0.77371 -0.83717,2.19335 -1.29343,2.19335 -0.45256,0 -0.44387,-0.11833 0.0866,-1.17934 0.40906,-0.81823 0.34961,-0.79019 -0.87604,0.41326 -1.23828,1.21587 -1.28857,1.32014 -0.86333,1.79003 0.24835,0.27442 0.53491,1.0203 0.6368,1.6575 0.1019,0.6372 0.26206,1.15641 0.35592,1.15381 0.0939,-0.003 0.46024,-0.31005 0.81417,-0.6832 z m 10.62668,-23.889323 c 1.73388,-2.483224 3.05303,-5.045598 2.59755,-5.045598 -0.13116,0 -0.54855,0.524572 -0.92753,1.165715 -0.37898,0.641143 -1.30157,1.78728 -2.05021,2.546971 -1.34601,1.365892 -3.04219,3.894825 -4.1614,6.204485 l -0.57733,1.1914 1.68762,-1.78286 c 0.92819,-0.98057 2.47227,-2.90662 3.4313,-4.280113 z"
       id="path1" />
  </g>
</svg>
