<?xml version="1.0" encoding="UTF-8" standalone="no"?>
<!-- Created with Inkscape (http://www.inkscape.org/) -->

<svg
   version="1.1"
   id="svg1"
   width="294.58286"
   height="294.58286"
   viewBox="0 0 294.58286 294.58286"
   sodipodi:docname="dragon-side-body.svg"
   inkscape:version="1.4 (86a8ad7, 2024-10-11)"
   xmlns:inkscape="http://www.inkscape.org/namespaces/inkscape"
   xmlns:sodipodi="http://sodipodi.sourceforge.net/DTD/sodipodi-0.dtd"
   xmlns="http://www.w3.org/2000/svg"
   xmlns:svg="http://www.w3.org/2000/svg">
  <defs
     id="defs1" />
  <sodipodi:namedview
     id="namedview1"
     pagecolor="#ffffff"
     bordercolor="#000000"
     borderopacity="0.25"
     inkscape:showpageshadow="2"
     inkscape:pageopacity="0.0"
     inkscape:pagecheckerboard="0"
     inkscape:deskcolor="#d1d1d1"
     inkscape:zoom="2.766624"
     inkscape:cx="147.47215"
     inkscape:cy="147.29143"
     inkscape:window-width="1920"
     inkscape:window-height="1017"
     inkscape:window-x="-8"
     inkscape:window-y="-8"
     inkscape:window-maximized="1"
     inkscape:current-layer="g1" />
  <g
     inkscape:groupmode="layer"
     inkscape:label="Image"
     id="g1">
    <path
       style="fill:#000000"
       d="m 227.65714,256.47849 c 0,-0.13912 -0.83314,-1.09897 -1.85143,-2.133 -1.42703,-1.44911 -2.57446,-2.26891 -5.00571,-3.57641 -1.73486,-0.93299 -3.7228,-2.10228 -4.41766,-2.59843 -2.7473,-1.96165 -4.0852,-3.02079 -4.0852,-3.23402 0,-0.32394 -6.36269,-4.30979 -8.77714,-5.49835 -1.13143,-0.55697 -3.84686,-1.99469 -6.03429,-3.19493 -2.18743,-1.20023 -5.76685,-3.01443 -7.95428,-4.03153 -2.18743,-1.01711 -4.77943,-2.23006 -5.76,-2.69546 -4.59282,-2.17982 -16.2695,-5.72351 -22.76572,-6.90905 -4.99989,-0.91247 -8.1597,-1.21068 -14.81143,-1.39785 -8.44379,-0.23761 -15.44764,-0.64964 -18.51428,-1.08918 -4.34982,-0.62347 -20.35766,-1.51993 -23.45143,-1.31331 -0.94866,0.0634 -23.764635,-0.27038 -47.455844,-0.69416 -6.715572,-0.12012 -13.442429,-0.1261 -14.948572,-0.0133 -3.445151,0.25806 -21.929177,1.17847 -23.035583,1.14706 -0.452571,-0.0128 -1.394913,-0.28521 -2.094093,-0.60525 l -1.271237,-0.58188 -0.165445,-8.57258 c -0.091,-4.71492 -0.241347,-27.90409 -0.334115,-51.53148 l -0.168669,-42.95889 1.229574,-0.41895 c 1.034506,-0.3525 1.725283,-0.37289 4.354192,-0.12857 3.971061,0.36905 8.366364,0.005 13.398365,-1.11073 3.408627,-0.75557 8.832459,-1.5389 10.386021,-1.50001 1.14156,0.0286 1.495717,0.64694 1.135887,1.98324 -0.453571,1.68444 -0.139299,3.20457 0.706393,3.41682 0.897253,0.2252 4.198143,-0.9069 7.487583,-2.56799 2.099088,-1.06 3.114966,-1.39844 4.96983,-1.65573 1.282285,-0.17787 2.691354,-0.50025 3.131263,-0.7164 0.893601,-0.43908 1.40946,-0.21956 3.021442,1.28575 0.975793,0.91122 3.005473,1.22096 6.146817,0.93804 3.350774,-0.30178 4.341064,-0.60815 8.409049,-2.60155 4.562838,-2.23589 7.422295,-2.94498 9.654251,-2.39408 1.369845,0.33812 1.701719,0.74145 2.55631,3.10673 0.462061,1.27886 1.935708,1.62309 4.679248,1.09303 3.41882,-0.66054 5.850943,-1.5128 7.978433,-2.79579 1.82148,-1.09845 5.83821,-2.86174 6.51897,-2.86174 0.6327,0 0.81335,1.01184 0.41622,2.33138 -0.51085,1.69744 -0.50084,2.18917 0.0559,2.74592 0.52059,0.52059 1.29739,0.43475 4.34132,-0.47973 1.89832,-0.57031 4.60819,-1.88151 7.58379,-3.66952 0.84945,-0.51043 1.64009,-0.92805 1.75699,-0.92805 0.11689,0 1.02646,-0.55054 2.02126,-1.22343 1.14385,-0.77371 2.53833,-1.42227 3.79352,-1.76434 1.09164,-0.2975 2.10569,-0.61562 2.25345,-0.70694 0.39627,-0.2449 2.41243,0.86236 2.86334,1.57252 0.21428,0.33749 0.47516,1.62478 0.57973,2.86065 0.18375,2.1717 0.21561,2.25262 0.95063,2.41406 0.41828,0.0919 1.11578,0.0882 1.55,-0.008 1.44001,-0.31945 8.65691,-4.07952 9.85621,-5.13519 1.17658,-1.03566 4.58451,-2.5798 6.97899,-3.16219 7.26357,-1.76666 8.63965,-1.62533 7.93965,0.81543 -0.367,1.27963 -0.32532,1.76411 0.19668,2.2861 0.63655,0.63656 1.70388,0.36318 3.28043,-0.84023 1.71497,-1.30906 8.00421,-4.33516 10.2436,-4.92876 0.97605,-0.258722 2.21034,-0.76771 2.74286,-1.131082 l 0.96821,-0.660677 0.30872,0.760376 c 0.1698,0.418206 0.39474,1.470533 0.49986,2.338493 0.14368,1.18632 0.33019,1.65254 0.75122,1.87787 0.80446,0.43053 2.80139,0.0628 3.41432,-0.62876 1.21331,-1.36894 5.74901,-4.710978 8.3681,-6.165871 1.72931,-0.960625 3.62092,-2.298309 4.83512,-3.419231 1.23058,-1.136049 2.49122,-2.024765 3.29143,-2.320358 0.71332,-0.263498 1.43116,-0.57972 1.5952,-0.702716 0.56374,-0.422676 1.41192,0.929807 1.60732,2.562997 0.1712,1.430853 0.25095,1.573336 0.96892,1.731029 1.17599,0.258289 2.77632,-0.136252 3.78633,-0.933467 1.18995,-0.939254 4.87065,-5.226469 6.32227,-7.36408 1.24473,-1.832949 1.66237,-2.153227 3.71723,-2.850658 1.26225,-0.428416 1.42756,-0.426135 2.83796,0.03916 0.82369,0.27174 1.88683,0.870677 2.36253,1.330972 1.21989,1.180404 3.30981,2.056146 4.39012,1.839602 0.95077,-0.190578 1.79018,-1.191268 4.17189,-4.973455 1.97034,-3.128918 4.61181,-6.544132 6.62169,-8.561317 1.48763,-1.493045 1.79328,-1.686468 2.26556,-1.433714 0.8138,0.435533 1.02128,1.017425 1.22443,3.433883 0.25039,2.978475 0.52287,3.565517 1.98307,4.272389 1.5858,0.767669 2.38339,0.593415 4.43885,-0.969773 2.64532,-2.011785 9.76195,-6.02789 12.123,-6.841338 1.11189,-0.383078 1.15527,-0.37343 2.76411,0.614768 0.89897,0.552175 1.9075,1.144762 2.24119,1.31686 0.3412,0.175975 3.18734,0.431347 6.50384,0.583562 3.24343,0.148861 6.10667,0.358204 6.36276,0.465207 0.25609,0.107003 0.78396,0.611911 1.17304,1.122018 0.66001,0.865318 0.68218,0.987785 0.33095,1.827601 -0.20705,0.495074 -1.75241,2.628135 -3.43413,4.740135 -2.27886,2.86194 -3.23995,4.314378 -3.77334,5.702474 -0.67649,1.760505 -2.58801,4.58324 -3.1037,4.58324 -0.13056,0 -0.32325,0.462857 -0.42819,1.028572 -0.42305,2.280534 -3.72824,7.162773 -7.53152,11.125133 -2.12943,2.21851 -2.16164,2.27344 -2.60357,4.44058 -0.24611,1.20686 -0.62703,3.60061 -0.84649,5.31944 -0.21945,1.71884 -0.83318,4.54448 -1.36384,6.2792 -1.02171,3.34001 -1.11587,4.06118 -0.71344,5.46436 0.29097,1.01457 -0.24277,3.15263 -0.99434,3.98311 -0.59731,0.66002 -0.59508,1.88065 0.01,5.28532 0.33902,1.9087 0.62821,2.82627 0.95089,3.01714 0.98019,0.57979 2.2372,2.1122 2.92473,3.56553 0.51803,1.09503 0.88975,2.71216 1.34147,5.83589 l 0.62486,4.32111 1.43978,1.43977 c 1.68988,1.68989 2.92144,4.13257 2.79634,5.54627 -0.14702,1.66131 -0.12351,2.82973 0.0899,4.4649 l 0.2068,1.5849 2.79072,1.88273 c 2.48363,1.67555 2.88123,2.05926 3.61324,3.48691 0.56862,1.10901 0.81824,1.98593 0.80866,2.84094 -0.0141,1.2574 -0.6887,4.2313 -1.38755,6.11677 -0.55027,1.4846 -0.26151,2.28048 1.0349,2.85246 1.50539,0.66417 3.06391,3.10204 2.66009,4.16095 -0.42686,1.11934 -0.0348,2.99573 0.77114,3.69119 1.9191,1.6559 2.91527,6.36981 2.30007,10.88397 -0.17475,1.28228 -0.44171,3.62743 -0.59325,5.21143 -0.22473,2.34907 -0.43202,3.18211 -1.12443,4.51882 -0.4669,0.90135 -1.07573,2.54652 -1.35297,3.65592 -0.47308,1.89311 -1.3643,3.61954 -1.86849,3.61954 -0.12286,0 -0.31017,0.95657 -0.41625,2.12572 -0.2191,2.41473 -1.3303,5.83052 -2.8173,8.6603 -0.90272,1.71788 -3.63714,4.93212 -4.73726,5.56854 -0.22792,0.13185 -0.72164,0.91533 -1.09714,1.74106 -1.18975,2.61626 -5.04379,7.02663 -7.02851,8.04307 -0.43211,0.2213 -2.01994,0.68222 -3.52851,1.02427 -2.40455,0.5452 -2.83742,0.73411 -3.50949,1.53165 -0.42164,0.50035 -1.85584,1.6383 -3.18711,2.52878 -2.50516,1.67567 -3.60727,2.06039 -6.86846,2.39762 -1.13141,0.11699 -2.12175,0.41029 -2.74285,0.81233 -0.53465,0.34606 -1.92116,0.89077 -3.08112,1.21044 -1.15997,0.31968 -3.50511,1.13208 -5.21143,1.80534 -3.31435,1.30774 -3.51383,1.36293 -3.51383,0.97223 z"
       id="path1" />
  </g>
</svg>
