<?xml version="1.0" encoding="UTF-8" standalone="no"?>
<!-- Created with Inkscape (http://www.inkscape.org/) -->

<svg
   version="1.1"
   id="svg1"
   width="294.58286"
   height="294.58286"
   viewBox="0 0 294.58286 294.58286"
   sodipodi:docname="1c-body-outline.svg"
   inkscape:version="1.4 (86a8ad7, 2024-10-11)"
   xmlns:inkscape="http://www.inkscape.org/namespaces/inkscape"
   xmlns:sodipodi="http://sodipodi.sourceforge.net/DTD/sodipodi-0.dtd"
   xmlns="http://www.w3.org/2000/svg"
   xmlns:svg="http://www.w3.org/2000/svg">
  <defs
     id="defs1" />
  <sodipodi:namedview
     id="namedview1"
     pagecolor="#ffffff"
     bordercolor="#000000"
     borderopacity="0.25"
     inkscape:showpageshadow="2"
     inkscape:pageopacity="0.0"
     inkscape:pagecheckerboard="0"
     inkscape:deskcolor="#d1d1d1"
     inkscape:zoom="2.766624"
     inkscape:cx="147.47215"
     inkscape:cy="147.29143"
     inkscape:window-width="1920"
     inkscape:window-height="1017"
     inkscape:window-x="-8"
     inkscape:window-y="-8"
     inkscape:window-maximized="1"
     inkscape:current-layer="g1" />
  <g
     inkscape:groupmode="layer"
     inkscape:label="Image"
     id="g1">
    <path
       style="fill:#000000"
       d="m 248.69837,249.59271 c -2.25005,-0.50595 -4.18605,-1.13455 -5.40064,-1.75353 -2.12072,-1.08078 -8.20001,-5.84151 -9.74624,-7.63234 -1.41955,-1.64412 -3.08464,-5.07472 -3.74022,-7.70601 -0.50939,-2.04456 -0.53065,-2.51058 -0.24597,-5.39226 0.45352,-4.59072 1.07426,-9.513 1.71219,-13.57714 0.45034,-2.86901 0.5192,-4.12844 0.3524,-6.44572 -0.11402,-1.584 -0.23871,-3.69728 -0.2771,-4.69618 -0.087,-2.26415 -0.28046,-3.49689 -1.09229,-6.96096 -0.35354,-1.50857 -0.83669,-3.62957 -1.07367,-4.71333 -0.47429,-2.16902 -1.92052,-6.65549 -2.52315,-7.82729 -0.90363,-1.75706 -2.54673,-2.70608 -4.87409,-2.81516 -0.92142,-0.0432 -3.15645,-0.39868 -4.96673,-0.78999 -1.81029,-0.39131 -3.75209,-0.71402 -4.31513,-0.71713 -0.56303,-0.003 -2.96988,-0.24268 -5.34857,-0.53235 -2.37868,-0.28968 -5.55916,-0.60335 -7.06773,-0.69706 -1.50857,-0.0937 -4.90286,-0.40607 -7.54286,-0.69413 -2.64,-0.28806 -6.65143,-0.72055 -8.91429,-0.96108 -5.70937,-0.60689 -7.09299,-0.96421 -11.79428,-3.04586 -2.26286,-1.00196 -4.97829,-2.11823 -6.03429,-2.4806 -1.056,-0.36237 -3.216,-1.33233 -4.8,-2.15546 -2.89515,-1.50449 -19.36426,-9.69554 -21.66857,-10.77705 -2.24027,-1.05145 -4.45022,-1.18812 -21.12,-1.30614 -8.82514,-0.0625 -17.46514,-0.22097 -19.199998,-0.35221 -1.734857,-0.13124 -5.005714,-0.19465 -7.268571,-0.1409 -2.262857,0.0538 -9.853714,0.2414 -16.868571,0.417 -11.706771,0.29307 -30.053747,0.32992 -30.492934,0.0613 -0.101399,-0.062 -3.455716,-0.12653 -7.454038,-0.14334 -7.187197,-0.0302 -7.278462,-0.0378 -8.044209,-0.66973 -2.040494,-1.68387 -4.608794,-3.58767 -7.357391,-5.4538 -1.659428,-1.12665 -3.881142,-2.70136 -4.937142,-3.49936 l -1.92,-1.45091 -0.220372,-20.70768 -0.220372,-20.70769 0.941143,-0.82286 c 0.517628,-0.45257 1.665938,-1.3125 2.5518,-1.91095 2.86619,-1.936281 4.850526,-3.505009 7.437919,-5.880087 1.394708,-1.280262 2.936255,-2.581307 3.425661,-2.891212 0.888145,-0.562396 0.995147,-0.563737 56.572738,-0.70891 40.281047,-0.105217 56.138117,-0.232699 57.328627,-0.460888 0.90514,-0.173492 3.12685,-0.517833 4.93714,-0.765202 1.81029,-0.24737 4.71086,-0.678855 6.44571,-0.958857 1.73486,-0.280002 3.89486,-0.589995 4.8,-0.688875 0.90515,-0.09888 3.06515,-0.433348 4.8,-0.743264 1.73486,-0.309915 4.01829,-0.657207 5.07429,-0.77176 1.056,-0.114553 2.84571,-0.341774 3.97714,-0.504935 1.13143,-0.163162 4.95772,-0.485573 8.50286,-0.716468 3.54514,-0.230896 7.61829,-0.596508 9.05143,-0.812472 1.43314,-0.215963 3.53143,-0.47369 4.66286,-0.572726 2.44163,-0.213721 6.77283,-0.866055 7.10234,-1.069702 0.12797,-0.07909 1.63714,-0.210098 3.35373,-0.29114 1.71659,-0.08104 4.72564,-0.263608 6.68678,-0.405704 1.96115,-0.142095 5.54057,-0.334528 7.95429,-0.427628 4.82419,-0.186075 5.39915,-0.320172 7.39954,-1.725785 2.9351,-2.0624 9.32358,-8.224178 10.85581,-10.470574 0.74058,-1.085778 2.97793,-3.814808 5.6217,-6.857143 0.98321,-1.131428 2.78807,-3.332468 4.0108,-4.8912 1.73796,-2.215536 2.82836,-3.283691 4.99622,-4.894277 3.71783,-2.76212 5.77062,-3.432307 7.27839,-2.376225 0.5894,0.412834 0.99925,0.423128 4.38103,0.110031 4.24303,-0.392834 7.59901,-0.09608 9.31512,0.823704 0.54473,0.291953 1.18407,0.530824 1.42077,0.530824 0.2367,0 0.99699,0.359348 1.68955,0.798551 1.02978,0.653071 1.36437,1.079686 1.83655,2.341718 0.31756,0.848742 0.57738,1.638753 0.57738,1.755582 0,0.116828 0.36995,0.485934 0.82212,0.820236 0.45216,0.334301 1.13427,1.223817 1.51578,1.976702 0.67295,1.328003 0.68175,1.414543 0.29438,2.897916 -0.2196,0.840969 -0.57127,1.733522 -0.78148,1.983451 -0.21021,0.249929 -0.53764,1.423513 -0.72764,2.607964 -0.41887,2.611333 -2.18577,8.072395 -3.51346,10.859233 -0.7413,1.556009 -1.4238,2.464713 -2.87059,3.822006 -1.04394,0.97936 -2.33675,2.378245 -2.8729,3.108634 -0.86769,1.182027 -3.36449,6.469275 -5.21855,11.050864 -0.36629,0.905143 -0.90615,2.09452 -1.19968,2.64306 -0.29353,0.54854 -0.53516,1.474258 -0.53695,2.057138 -0.004,1.29547 -0.65158,3.81827 -1.12727,4.39145 -0.2248,0.27086 -0.32591,1.09702 -0.2839,2.31962 0.0405,1.18 -0.0825,2.23502 -0.32515,2.78668 -0.73637,1.6745 -0.95852,2.5362 -1.11279,4.31634 -0.62457,7.20683 -0.93459,9.03638 -1.84712,10.90043 -0.62313,1.27287 -0.96146,2.42988 -1.0796,3.69188 -0.10311,1.10149 -0.44399,2.38749 -0.85064,3.20919 l -0.67858,1.37115 1.6992,0.83651 c 2.13177,1.04947 3.70956,2.74164 4.50909,4.83596 0.58232,1.52536 0.61728,1.99513 0.57859,7.77522 -0.0252,3.77049 -0.15095,6.28405 -0.32477,6.49349 -0.36549,0.44039 -0.09,1.98644 0.72801,4.08617 0.73879,1.89627 1.46605,5.2605 1.48236,6.85714 0.006,0.60343 -0.082,4.55314 -0.1958,8.77714 -0.35646,13.22563 -0.31254,14.43261 0.62636,17.21285 0.73571,2.17854 1.03981,2.66221 3.27662,5.21143 2.47029,2.81529 6.69436,7.13523 9.99025,10.21696 3.13933,2.93536 4.78941,5.28803 5.71852,8.15343 1.34003,4.13265 1.59407,6.11913 1.19746,9.36338 -0.47497,3.88513 -0.64689,4.39841 -2.35487,7.03052 -0.83207,1.28229 -1.51443,2.44624 -1.51636,2.58655 -0.0104,0.76 -5.13328,4.78863 -9.81759,7.7206 -4.25223,2.66152 -5.18063,3.31881 -7.39903,5.23836 -2.37387,2.05409 -2.97749,2.38486 -6.21989,3.40834 -3.23872,1.02232 -5.43892,1.01461 -10.10862,-0.0354 z m 9.7832,-1.25747 c 1.18886,-0.36792 2.50391,-0.91272 2.92234,-1.21067 0.41842,-0.29794 0.86552,-0.54171 0.99354,-0.54171 0.12802,0 1.70757,-1.35772 3.51011,-3.01715 1.80254,-1.65943 3.34878,-3.01714 3.43609,-3.01714 0.0873,0 0.94437,-0.93413 1.90458,-2.07585 0.96021,-1.14171 2.64276,-2.73915 3.73901,-3.54986 2.85851,-2.11398 4.2148,-4.25889 5.88124,-9.30098 1.57886,-4.77713 1.26013,-6.26525 -2.53634,-11.84185 -1.13934,-1.67355 -2.3405,-3.57008 -2.66927,-4.21451 -0.79089,-1.55028 -5.48372,-8.62552 -5.79951,-8.74377 -0.73985,-0.27703 -3.59269,-5.21174 -4.6243,-7.99889 -1.43756,-3.88393 -1.75207,-5.97638 -1.50126,-9.98803 0.12341,-1.97401 0.20186,-4.8234 0.17431,-6.33197 -0.0275,-1.50858 0.0708,-4.69189 0.21844,-7.07405 0.23913,-3.85718 0.21087,-4.62365 -0.25822,-7.00359 -0.28971,-1.46983 -0.77896,-3.26083 -1.08724,-3.98 -0.7533,-1.75739 -1.16589,-4.40538 -0.82579,-5.29991 0.14591,-0.38377 0.2565,-3.36988 0.24576,-6.63582 -0.0187,-5.68192 -0.0479,-5.99736 -0.67763,-7.3127 -0.42272,-0.88296 -1.13161,-1.73573 -1.98194,-2.3842 -2.6305,-2.00605 -4.42803,-2.12527 -6.30317,-0.41806 -0.48655,0.44299 -0.68904,0.48821 -1.00643,0.2248 -0.34242,-0.28418 -0.30003,-0.54229 0.30676,-1.86768 0.73533,-1.60618 0.88516,-3.92644 0.39467,-6.11165 -0.16572,-0.73829 -0.0738,-1.27673 0.39803,-2.33143 0.90027,-2.01242 1.05422,-3.60635 0.54158,-5.60738 -0.79417,-3.09993 -0.53923,-5.41191 0.62441,-5.66267 0.39684,-0.0855 0.96837,-0.2605 1.27009,-0.38885 0.30171,-0.12834 1.22743,-0.44365 2.05714,-0.70066 1.87802,-0.58175 2.11324,-0.7676 2.34605,-1.85368 0.10287,-0.47986 0.26409,-0.9959 0.35827,-1.14676 0.49174,-0.78765 0.85359,-2.36487 0.85726,-3.73656 0.003,-0.94875 0.21976,-2.02973 0.56443,-2.80892 0.30816,-0.69665 0.67502,-2.27255 0.81524,-3.502 0.14713,-1.289984 0.43123,-2.430136 0.67175,-2.695918 0.22925,-0.253309 0.65142,-1.130813 0.93816,-1.95001 0.28675,-0.819197 1.01591,-2.538591 1.62037,-3.820877 0.60445,-1.282286 1.55344,-3.380571 2.10886,-4.662857 1.18068,-2.725788 2.64382,-4.725133 4.88339,-6.673056 1.8846,-1.639174 3.12788,-3.986394 4.67397,-8.824087 1.42827,-4.469053 1.69294,-6.099015 1.27738,-7.86664 -0.18867,-0.802491 -0.49499,-1.767645 -0.68072,-2.144788 -0.18574,-0.377143 -0.40337,-1.932503 -0.48363,-3.456356 -0.21941,-4.165613 -0.36244,-4.34758 -4.82875,-6.143286 -1.68721,-0.678353 -6.13623,-0.872033 -10.12047,-0.440576 -1.93891,0.209966 -2.42402,0.1747 -3.35178,-0.243663 -1.61139,-0.726634 -2.90998,-0.254876 -6.11347,2.220931 -1.91655,1.481196 -3.24654,2.812008 -4.84369,4.846686 -2.29448,2.92302 -5.62203,6.875905 -6.97905,8.290583 -0.43411,0.452553 -1.45566,1.769395 -2.27012,2.926315 -1.53338,2.178144 -7.50562,8.143922 -10.20857,10.197527 -3.22255,2.448379 -3.205,2.44257 -8.09622,2.680702 -2.43026,0.118318 -6.64037,0.346347 -9.3558,0.50673 -2.71543,0.160384 -5.92457,0.342545 -7.13143,0.404804 -1.20686,0.06226 -2.50286,0.229056 -2.88,0.37066 -0.37714,0.141604 -1.98172,0.408075 -3.56572,0.592157 -1.584,0.184082 -4.29942,0.512328 -6.03428,0.729435 -5.97414,0.747626 -7.5595,0.894797 -13.00451,1.20722 -3.00391,0.172358 -6.15134,0.436965 -6.99429,0.588015 -0.84294,0.15105 -2.45834,0.376274 -3.58977,0.500499 -1.13143,0.124224 -3.47657,0.475193 -5.21143,0.77993 -1.73486,0.304736 -3.83314,0.63275 -4.66286,0.728918 -0.82971,0.09617 -2.98971,0.402686 -4.8,0.681151 -5.78373,0.889675 -9.24247,1.385041 -12.56262,1.799236 -2.75072,0.343158 -11.34035,0.404082 -57.188568,0.405617 -50.843394,0.0017 -53.993377,0.02936 -54.675655,0.48 -0.398194,0.263006 -2.003298,1.622854 -3.566899,3.021883 -1.563601,1.39903 -4.446949,3.689347 -6.40744,5.089595 l -3.56453,2.5459 -0.07611,3.55887 -0.07611,3.55887 1.604666,2.98805 c 0.885942,1.64971 1.84142,3.08079 2.133257,3.19511 0.290725,0.11389 2.827846,0.21575 5.638046,0.22635 l 5.109456,0.0193 1.061973,-1.5402 c 0.949613,-1.37724 1.076483,-1.76176 1.199116,-3.63429 0.122174,-1.86551 0.19702,-2.09408 0.685714,-2.09408 0.50385,0 0.566742,0.25715 0.77145,3.15428 0.22679,3.20965 -0.0042,19.51987 -0.322382,22.76572 -0.151144,1.54174 -0.248972,1.78285 -0.723353,1.78285 -0.502973,0 -0.548572,-0.18285 -0.548572,-2.19982 0,-2.14945 -0.02513,-2.232 -1.097143,-3.60477 -1.052792,-1.34816 -1.163668,-1.41216 -2.742857,-1.58327 -0.905143,-0.0981 -3.300663,-0.0511 -5.323379,0.10438 -4.227223,0.32494 -4.124044,0.26967 -5.938417,3.18071 l -1.218204,1.95453 0,4.28618 0,4.28619 1.988572,1.46758 c 1.093714,0.80718 2.976,2.12627 4.182857,2.93133 1.206857,0.80505 2.996571,2.09944 3.977143,2.87643 0.980571,0.77698 2.370652,1.80473 3.089067,2.28388 l 1.306211,0.87119 5.139503,0.0162 c 2.826728,0.009 7.937779,0.10465 11.357892,0.21273 7.950177,0.25125 17.457917,0.19538 27.518755,-0.16172 4.374857,-0.15528 13.2,-0.23239 19.611428,-0.17134 6.411431,0.061 17.828571,0.16728 25.371431,0.23607 13.76989,0.12559 16.23119,0.2271 18.51428,0.76358 0.94218,0.22139 18.71132,8.89563 25.23878,12.32063 0.53047,0.27834 1.9499,0.86439 3.15428,1.30232 1.20439,0.43793 3.9178,1.55428 6.0298,2.48079 4.80396,2.10743 5.79333,2.35904 11.38286,2.89477 2.48914,0.23858 5.38699,0.55789 6.43967,0.70959 1.05267,0.1517 4.57038,0.51259 7.81714,0.80197 8.33175,0.74261 14.11318,1.33862 16.1889,1.66892 6.28956,1.00084 8.79539,1.33947 9.95147,1.34485 0.9987,0.005 1.35147,0.12057 1.47924,0.48609 0.0923,0.264 0.58364,0.91876 1.09191,1.45503 1.32156,1.39433 3.14823,6.35243 4.07847,11.07012 0.23543,1.19397 0.48371,2.26091 0.55174,2.37098 0.44649,0.72245 1.29266,6.61719 1.50744,10.50148 0.20263,3.6645 0.17238,5.22511 -0.14619,7.54286 -1.26719,9.21937 -1.43111,10.54784 -1.79894,14.57953 -0.28947,3.17272 -0.27009,3.5992 0.25966,5.71504 0.79605,3.17938 2.00148,5.32291 4.27401,7.60017 2.32768,2.33253 6.71607,5.65342 8.86454,6.7082 2.46079,1.20811 9.18051,2.57542 11.16665,2.27215 0.45257,-0.0691 1.79556,-0.42667 2.98443,-0.7946 z m 15.80414,-10.10126 c 2.79572,-1.90595 5.38934,-3.99775 6.02337,-4.85794 1.33042,-1.80499 2.99034,-4.30164 3.46241,-5.20774 0.56404,-1.08261 1.19816,-4.66948 1.20566,-6.81973 0.006,-1.77592 -0.6698,-5.22801 -1.23947,-6.32963 -0.2203,-0.42601 -0.40054,-1.01807 -0.40054,-1.3157 0,-0.29764 -0.28173,-0.89005 -0.62606,-1.31648 -0.34433,-0.42643 -0.95098,-1.26905 -1.34812,-1.87248 -0.88482,-1.34446 -1.95234,-2.45168 -6.00084,-6.224 -1.731,-1.61292 -3.25152,-3.03235 -3.37893,-3.15429 -0.12741,-0.12194 0.46429,0.82744 1.31488,2.10972 0.8506,1.28229 2.09202,3.25715 2.75871,4.38857 0.66669,1.13143 2.26411,3.66598 3.54983,5.63233 3.07266,4.69928 3.53374,5.76861 3.48613,8.08494 -0.0377,1.83589 -1.49024,6.82621 -2.63487,9.05256 -1.04405,2.03074 -2.61166,4.04814 -3.84718,4.95107 -1.83818,1.34335 -3.68484,3.01356 -4.01591,3.63216 -0.3249,0.60709 -0.26638,0.58102 1.69093,-0.75336 z M 255.18726,133.61647 c 0.41483,-0.45838 0.41841,-0.54447 0.0359,-0.86194 -0.50021,-0.41514 -0.55189,-0.37477 -0.78979,0.6169 -0.20967,0.87399 0.0951,0.97304 0.7539,0.24504 z M 17.750895,130.29332 c 0.438225,-0.60757 0.481832,-1.28073 0.419189,-6.47098 l -0.06992,-5.79287 -1.16437,-2.14352 -1.16437,-2.14352 -0.08692,5.04879 c -0.04781,2.77683 -0.0039,7.05333 0.09766,9.50333 l 0.184574,4.45454 0.647525,-0.88883 c 0.356139,-0.48886 0.867623,-1.19398 1.136631,-1.56694 z m 239.247625,-1.61409 c 0.006,-1.40059 -0.0699,-1.71405 -0.38476,-1.59323 -0.21557,0.0827 -0.8409,0.23463 -1.38962,0.33757 l -0.99768,0.18716 0.1872,1.81749 c 0.15467,1.50175 0.3127,1.922 0.90962,2.41907 l 0.72243,0.60158 0.47281,-1.01301 c 0.28795,-0.61694 0.47562,-1.69472 0.48,-2.75663 z M 32.698735,122.74286 c 0.06891,-2.86629 0.05302,-5.54966 -0.0353,-5.96305 l -0.160581,-0.75163 -0.643097,0.94362 c -0.6207,0.91075 -0.644726,1.14709 -0.689859,6.78591 -0.04368,5.45804 -0.01041,5.89354 0.505955,6.62145 l 0.552715,0.77916 0.17244,-1.60202 c 0.09484,-0.88111 0.228818,-3.94716 0.297724,-6.81344 z m -6.054076,6.0862 3.484995,-0.0175 0.166018,-0.88495 c 0.22942,-1.22291 0.231791,-7.77965 0.0031,-8.69066 l -0.186856,-0.74449 -4.564551,-0.0104 c -2.510503,-0.006 -5.027408,-0.0775 -5.593122,-0.15952 l -1.028572,-0.14916 0.0016,3.24523 c 9.04e-4,1.78488 0.08173,4.27413 0.179615,5.53167 l 0.17797,2.28643 1.93736,-0.19457 c 1.065548,-0.10701 3.505608,-0.20245 5.422356,-0.21209 z m 230.555551,-2.68153 c 0.60424,-0.22765 1.83556,-2.25164 1.6707,-2.74622 -0.0478,-0.14331 -0.51784,0.10776 -1.0446,0.55792 -0.89076,0.76123 -1.93294,1.10847 -1.90606,0.63505 0.0154,-0.27151 2.60511,-2.26285 2.94278,-2.26285 0.24887,0 0.72284,-2.44841 0.51434,-2.65692 -0.0543,-0.0543 -0.89872,0.79902 -1.87651,1.89625 -1.56051,1.75113 -2.68943,3.82711 -2.68943,4.94561 0,0.24923 1.26794,0.0535 2.38878,-0.36884 z m 2.47812,-9.42101 c 0.18765,-0.91502 0.30404,-1.77734 0.25865,-1.91629 -0.0454,-0.13894 -1.11606,0.69907 -2.37925,1.86224 l -2.29672,2.11487 0.0723,1.56086 c 0.0398,0.85847 0.14097,1.67195 0.22489,1.80774 0.0839,0.1358 0.96852,-0.65595 1.96577,-1.75943 1.58948,-1.75881 1.85526,-2.21158 2.15436,-3.66999 z m -2.9469,-0.29585 0.96,-1.00865 -1.09715,0.46247 c -0.60342,0.25436 -1.25142,0.52618 -1.44,0.60405 -0.18857,0.0779 -0.34285,0.44129 -0.34285,0.8076 0,0.55103 0.0829,0.62088 0.48,0.40459 0.264,-0.14378 0.912,-0.71531 1.44,-1.27006 z m 23.39493,-56.416988 -0.76636,-1.179397 -0.0858,1.195294 c -0.0494,0.689046 0.0958,1.577873 0.34286,2.098595 0.23575,0.496816 0.44149,1.069791 0.4572,1.273278 0.0157,0.203487 0.20628,-0.210152 0.42351,-0.919198 0.38551,-1.258387 0.37664,-1.317341 -0.37142,-2.468572 z"
       id="path1" />
  </g>
</svg>
