<?xml version="1.0" encoding="UTF-8" standalone="no"?>
<!-- Created with Inkscape (http://www.inkscape.org/) -->

<svg
   version="1.1"
   id="svg1"
   width="294.58286"
   height="294.58286"
   viewBox="0 0 294.58286 294.58286"
   sodipodi:docname="1c-large-a.svg"
   inkscape:version="1.4 (86a8ad7, 2024-10-11)"
   xmlns:inkscape="http://www.inkscape.org/namespaces/inkscape"
   xmlns:sodipodi="http://sodipodi.sourceforge.net/DTD/sodipodi-0.dtd"
   xmlns:xlink="http://www.w3.org/1999/xlink"
   xmlns="http://www.w3.org/2000/svg"
   xmlns:svg="http://www.w3.org/2000/svg">
  <defs
     id="defs1">
    <linearGradient
       id="linearGradient1"
       inkscape:collect="always">
      <stop
         style="stop-color:#000000;stop-opacity:0;"
         offset="0.16812228"
         id="stop2" />
      <stop
         style="stop-color:#000000;stop-opacity:1;"
         offset="0.65938866"
         id="stop1" />
    </linearGradient>
    <linearGradient
       inkscape:collect="always"
       xlink:href="#linearGradient1"
       id="linearGradient2"
       x1="33.068209"
       y1="128.7675"
       x2="254.42089"
       y2="128.7675"
       gradientUnits="userSpaceOnUse" />
  </defs>
  <sodipodi:namedview
     id="namedview1"
     pagecolor="#ffffff"
     bordercolor="#000000"
     borderopacity="0.25"
     inkscape:showpageshadow="2"
     inkscape:pageopacity="0.0"
     inkscape:pagecheckerboard="0"
     inkscape:deskcolor="#d1d1d1"
     inkscape:zoom="2.766624"
     inkscape:cx="147.47215"
     inkscape:cy="147.29143"
     inkscape:window-width="1920"
     inkscape:window-height="1017"
     inkscape:window-x="-8"
     inkscape:window-y="-8"
     inkscape:window-maximized="1"
     inkscape:current-layer="g1" />
  <g
     inkscape:groupmode="layer"
     inkscape:label="Image"
     id="g1">
    <path
       style="fill:url(#linearGradient2)"
       d="m 206.22693,151.27836 c -0.0855,-0.0855 -2.02355,-0.33475 -4.30684,-0.55396 -4.44453,-0.42671 -5.91142,-0.73789 -9.78295,-2.07532 -1.9929,-0.68846 -3.28895,-0.92093 -6.72608,-1.20649 -3.87623,-0.32203 -4.46575,-0.44319 -6.58285,-1.35287 -1.27895,-0.54954 -2.9425,-1.49206 -3.69678,-2.0945 -2.69308,-2.15093 -3.40531,-2.36372 -11.93143,-3.56467 -1.08796,-0.15324 -2.53121,-0.62867 -3.70286,-1.21978 -2.16094,-1.09023 -3.86362,-1.41051 -5.49991,-1.03456 -1.13611,0.26102 -3.19928,0.006 -6.98009,-0.86199 -4.39206,-1.00859 -9.35688,-0.80641 -12.75428,0.5194 -3.92941,1.53341 -4.38328,1.5028 -8.22858,-0.55481 -2.11309,-1.13072 -2.31099,-1.18082 -5.34857,-1.35384 -1.73485,-0.0988 -4.32685,-0.37427 -5.76,-0.61211 l -2.60571,-0.43244 -2.46857,0.83506 c -3.82576,1.29418 -4.52709,1.31885 -8.6597,0.3047 -4.705581,-1.15477 -5.5968,-1.00027 -8.100972,1.40436 -0.938374,0.90107 -1.824617,1.63832 -1.969428,1.63832 -1.20735,0 -4.935863,-1.33162 -7.910593,-2.82522 -3.512124,-1.76343 -3.667297,-1.81238 -6.308571,-1.99009 -1.489335,-0.1002 -4.295461,-0.0446 -6.235837,0.12363 -3.222516,0.27934 -3.614339,0.37326 -4.525714,1.08484 -2.816021,2.19865 -5.648265,3.16011 -8.032486,2.72676 -1.46855,-0.26692 -6.42564,0.0775 -8.902588,0.61861 -0.864162,0.18877 -1.91622,0.0875 -4.525715,-0.43551 -1.869904,-0.37479 -5.206916,-0.82395 -7.415581,-0.99812 l -4.015754,-0.31668 -0.141219,-1.05287 c -0.07767,-0.57908 -0.03585,-1.892 0.09293,-2.9176 0.315347,-2.51144 0.488088,-15.52539 0.26266,-19.78833 l -0.137143,-2.59343 1.508571,-0.30649 c 0.829715,-0.16858 2.310858,-0.57268 3.291429,-0.898 0.980571,-0.32533 2.699363,-0.78208 3.819537,-1.015 1.120174,-0.23292 2.987138,-0.85263 4.148808,-1.37714 1.16167,-0.52451 2.320568,-0.95365 2.575329,-0.95365 0.674577,0 3.215812,1.10599 3.864242,1.68179 0.306068,0.27179 1.170068,0.63355 1.92,0.80392 1.123193,0.25516 1.677742,0.22807 3.14637,-0.15369 2.432053,-0.63221 2.99028,-0.5786 5.428755,0.52136 1.162756,0.52451 2.66953,1.10129 3.348387,1.28174 1.317316,0.35017 1.263552,0.3604 8.091429,-1.53904 1.406995,-0.39141 2.763454,-0.61541 3.154286,-0.52087 0.377142,0.0912 1.720009,0.33371 2.984148,0.53885 2.069315,0.33581 2.588818,0.32216 5.211429,-0.13692 1.621949,-0.28392 5.161928,-0.59248 7.98728,-0.69621 4.550276,-0.16705 8.568076,-0.73174 9.557566,-1.34328 0.30017,-0.18551 1.57337,0.20957 3.47101,1.07709 3.03296,1.38655 4.15778,1.61531 6.30273,1.28185 1.72836,-0.26871 2.26963,-0.23781 4.28352,0.24448 2.22479,0.53281 2.39604,0.5362 4.91089,0.0972 3.2921,-0.57471 2.81619,-0.54749 5.21143,-0.29813 1.33039,0.1385 3.84979,0.0651 7.13142,-0.20771 2.79086,-0.23202 7.11086,-0.55635 9.6,-0.72073 4.14863,-0.27397 4.67427,-0.36886 6.30858,-1.1388 1.70879,-0.80503 1.85122,-0.82712 3.42857,-0.53172 0.90514,0.16951 3.00343,0.81774 4.66285,1.44052 4.13751,1.55279 6.34002,1.57727 11.7152,0.13022 5.89376,-1.58666 7.43788,-1.825 9.75738,-1.50613 2.34189,0.32195 4.9512,1.25002 6.78605,2.41365 1.56115,0.99005 3.11713,1.53242 5.95272,2.07496 1.31836,0.25224 2.90892,0.82113 4.24555,1.51849 2.72778,1.42316 4.96779,1.82376 8.01939,1.43419 1.21753,-0.15543 2.6156,-0.19196 3.10683,-0.0812 0.49122,0.11079 2.30045,1.2669 4.02051,2.56913 3.37692,2.55661 4.67089,3.13357 8.75015,3.90154 3.08866,0.58147 4.66705,0.26206 6.54797,-1.32507 0.7524,-0.63489 1.96202,-1.58634 2.68804,-2.11434 0.72603,-0.528 1.88676,-1.37155 2.57941,-1.87455 2.40589,-1.74716 3.42506,-2.06385 6.60795,-2.05335 2.8421,0.009 2.91488,0.026 5.53123,1.26331 1.45818,0.68959 3.67989,1.53119 4.93714,1.87023 2.81199,0.75829 3.62747,1.4674 3.91834,3.40719 0.11251,0.75037 0.32566,1.5906 0.47366,1.86716 0.33902,0.63351 -0.13971,2.79362 -1.05433,4.7574 -0.65155,1.39894 -0.65501,1.44814 -0.2302,3.27986 0.50632,2.1832 0.40991,2.77499 -0.8683,5.32998 -0.82611,1.65131 -1.13967,2.00683 -2.27915,2.58425 -0.79767,0.40421 -2.04987,1.48042 -3.15991,2.71579 -2.32165,2.58378 -5.08696,4.09284 -8.63991,4.7149 -2.08116,0.36437 -2.94974,0.36131 -8.09143,-0.0285 -5.05842,-0.38351 -6.07738,-0.38929 -8.36571,-0.0474 -3.0695,0.45855 -6.25175,1.66547 -8.44119,3.20146 -0.86363,0.60588 -2.2491,1.57978 -3.07881,2.16424 -1.37283,0.96701 -3.49005,1.66662 -3.87593,1.28074 z"
       id="path1" />
  </g>
</svg>
