<?xml version="1.0" encoding="UTF-8" standalone="no"?>
<!-- Created with Inkscape (http://www.inkscape.org/) -->

<svg
   version="1.1"
   id="svg1"
   width="294.58286"
   height="294.58286"
   viewBox="0 0 294.58286 294.58286"
   sodipodi:docname="1c-body.svg"
   inkscape:version="1.4 (86a8ad7, 2024-10-11)"
   xmlns:inkscape="http://www.inkscape.org/namespaces/inkscape"
   xmlns:sodipodi="http://sodipodi.sourceforge.net/DTD/sodipodi-0.dtd"
   xmlns="http://www.w3.org/2000/svg"
   xmlns:svg="http://www.w3.org/2000/svg">
  <defs
     id="defs1" />
  <sodipodi:namedview
     id="namedview1"
     pagecolor="#ffffff"
     bordercolor="#000000"
     borderopacity="0.25"
     inkscape:showpageshadow="2"
     inkscape:pageopacity="0.0"
     inkscape:pagecheckerboard="0"
     inkscape:deskcolor="#d1d1d1"
     inkscape:zoom="2.766624"
     inkscape:cx="147.47215"
     inkscape:cy="147.29143"
     inkscape:window-width="1920"
     inkscape:window-height="1017"
     inkscape:window-x="-8"
     inkscape:window-y="-8"
     inkscape:window-maximized="1"
     inkscape:current-layer="g1" />
  <g
     inkscape:groupmode="layer"
     inkscape:label="Image"
     id="g1">
    <path
       style="fill:#000000"
       d="m 253.44,249.54759 c -0.67886,-0.14345 -2.61802,-0.55482 -4.30925,-0.91416 -4.01638,-0.85336 -6.1534,-1.97523 -10.54613,-5.5364 -3.99646,-3.23991 -5.0294,-4.35993 -6.3576,-6.89353 -1.60098,-3.05395 -2.19556,-6.41235 -1.70731,-9.6435 0.10258,-0.67886 0.23817,-1.91314 0.3013,-2.74286 0.0631,-0.82971 0.18776,-2.00228 0.27695,-2.60571 0.17157,-1.16079 0.35151,-2.66572 0.50834,-4.25143 0.0522,-0.528 0.22443,-1.45372 0.38269,-2.05714 0.77962,-2.97251 0.57901,-12.69179 -0.3612,-17.49966 -1.24632,-6.37319 -2.72329,-11.80632 -4.09126,-15.0499 -0.80831,-1.9166 -2.16479,-2.81532 -4.67967,-3.10048 -0.90499,-0.10261 -2.94143,-0.43081 -4.52543,-0.72932 -3.33438,-0.62839 -7.48849,-1.10425 -16.32,-1.86952 -3.46972,-0.30065 -7.91315,-0.73966 -9.87429,-0.97556 -1.96114,-0.23591 -5.72855,-0.65912 -8.37201,-0.94048 -5.07398,-0.54006 -6.50524,-0.91771 -10.96513,-2.89325 -1.28229,-0.568 -3.75086,-1.5801 -5.48572,-2.24912 -1.73485,-0.66902 -3.89485,-1.62814 -4.8,-2.13138 -4.28865,-2.38439 -22.53804,-11.29726 -23.86285,-11.65444 -2.01486,-0.54323 -9.41033,-0.90418 -13.98857,-0.68273 -4.83589,0.23391 -5.24104,0.22899 -9.6,-0.11665 -1.72107,-0.13647 -3.84193,-0.13613 -4.93715,7.9e-4 -1.17465,0.14685 -3.41068,0.12888 -5.76,-0.0463 -2.112,-0.15749 -5.382854,-0.31301 -7.268568,-0.3456 -5.507046,-0.0952 -25.661351,0.31721 -31.001985,0.63436 -3.360358,0.19956 -5.921737,0.20401 -8.139296,0.0142 -2.1081,-0.18049 -3.641965,-0.18437 -4.401085,-0.0111 -0.754518,0.17219 -1.586435,0.17152 -2.36025,-0.002 -0.719788,-0.16131 -1.531765,-0.17123 -2.041787,-0.025 -0.471139,0.13512 -1.67508,0.14345 -2.714036,0.0188 -1.027001,-0.12323 -5.138118,-0.31191 -9.135816,-0.41929 -6.683063,-0.1795 -7.312731,-0.23826 -7.817143,-0.72945 -0.812871,-0.79158 -4.171439,-3.35702 -5.897173,-4.50456 -2.653705,-1.7646 -7.630973,-5.34245 -7.901827,-5.68013 -0.158824,-0.19802 -0.30167,-8.15216 -0.362904,-20.2077 l -0.100983,-19.88116 4.007602,-2.88456 c 2.204181,-1.586506 5.043038,-3.853912 6.308571,-5.038678 1.265534,-1.184767 2.807534,-2.505164 3.426668,-2.934217 l 1.125699,-0.780096 55.925729,-0.29992 C 116.77628,91.723832 142.128,91.53776 142.35428,91.475295 c 0.22629,-0.06247 2.38629,-0.370299 4.8,-0.684074 2.41372,-0.313775 5.93143,-0.809291 7.81715,-1.101146 3.16539,-0.489914 9.26596,-1.397724 15.63428,-2.326501 3.51012,-0.511926 4.79428,-0.629512 10.56,-0.966936 2.71543,-0.158913 6.78857,-0.528461 9.05143,-0.821217 2.26286,-0.292756 5.71886,-0.725016 7.68,-0.960578 1.96114,-0.235563 3.99772,-0.545326 4.52572,-0.688363 1.0435,-0.282689 6.70782,-0.664023 16.59428,-1.117162 7.42344,-0.340249 7.63376,-0.407047 11.36798,-3.610566 2.73826,-2.349107 7.5336,-7.241835 8.49158,-8.664041 0.60964,-0.90507 1.55366,-2.047984 5.88324,-7.122763 0.73225,-0.858286 2.49722,-3.010806 3.92216,-4.783377 1.42494,-1.772571 2.67725,-3.223545 2.78292,-3.224386 0.10567,-8.41e-4 1.05612,-0.696359 2.11212,-1.545596 2.27225,-1.827347 4.67724,-3.010502 5.21396,-2.565057 0.88421,0.733823 2.20507,0.827487 5.75747,0.40827 3.14589,-0.371244 3.80792,-0.373812 5.62286,-0.02181 4.29086,0.832197 6.63781,2.071428 7.43202,3.924235 0.28724,0.670118 0.52226,1.392355 0.52226,1.60497 0,0.212615 0.37077,0.716924 0.82392,1.120688 0.45316,0.403763 1.14057,1.274429 1.52758,1.934814 0.77612,1.324359 0.73682,2.303256 -0.13752,3.425279 -0.28675,0.367983 -0.62813,1.576579 -0.82079,2.905828 -0.38793,2.676594 -2.66094,9.539032 -3.79871,11.468696 -0.43721,0.741505 -1.85196,2.405229 -3.1439,3.697165 -2.50071,2.500716 -3.09977,3.479593 -5.32466,8.700657 -0.68718,1.61258 -1.36114,3.068826 -1.49769,3.236104 -0.13655,0.167277 -0.49618,1.024675 -0.79917,1.905328 -0.30298,0.880653 -0.71566,1.854647 -0.91706,2.164431 -0.20139,0.309783 -0.50894,1.529341 -0.68342,2.710125 -0.17449,1.18079 -0.55479,2.72364 -0.84511,3.42857 -0.29033,0.70493 -0.60526,2.14569 -0.69985,3.20169 -0.0946,1.056 -0.34305,2.47543 -0.55211,3.15429 -0.3905,1.268 -1.01209,5.48586 -1.50746,10.22901 -0.22515,2.15585 -0.4639,3.05027 -1.20935,4.53053 -0.64132,1.27351 -0.9916,2.43074 -1.13169,3.73883 -0.11158,1.04195 -0.50338,2.55084 -0.87066,3.35309 -0.83439,1.82254 -0.66722,2.39628 0.90026,3.08965 1.91361,0.84648 3.99807,3.12481 4.77953,5.22406 0.73173,1.96564 0.75329,2.78894 0.28029,10.7034 -0.26505,4.43498 -0.17054,5.37856 0.80194,8.00634 0.29646,0.80108 0.77001,2.56737 1.05233,3.92509 0.48309,2.32319 0.49295,2.93701 0.16734,10.42285 -0.1903,4.37486 -0.4295,8.45878 -0.53157,9.07538 -0.42074,2.54164 1.08036,10.37114 2.23034,11.63319 0.20619,0.22629 1.32713,1.52229 2.49097,2.88 1.16384,1.35772 4.54818,4.87543 7.52076,7.81715 2.97257,2.94171 5.48742,5.62628 5.58855,5.96571 0.10113,0.33943 0.29582,0.61714 0.43264,0.61714 0.5984,0 2.28043,4.42801 2.8923,7.61409 0.36547,1.90304 0.36212,2.43511 -0.0324,5.1342 -0.40635,2.78026 -0.53856,3.16301 -1.7243,4.99181 -0.70632,1.08936 -1.4739,2.33544 -1.70574,2.76907 -1.12846,2.11065 -5.90997,5.80156 -13.25974,10.23537 -1.03784,0.62608 -2.83333,1.97224 -3.98996,2.99145 -1.15664,1.01922 -2.63248,2.12325 -3.27965,2.45341 -0.95369,0.48654 -6.31493,2.29862 -6.44286,2.17766 -0.0192,-0.0181 -0.59026,-0.1503 -1.26912,-0.29375 z"
       id="path1" />
  </g>
</svg>
