<?xml version="1.0" encoding="UTF-8" standalone="no"?>
<!-- Created with Inkscape (http://www.inkscape.org/) -->

<svg
   version="1.1"
   id="svg1"
   width="294.58286"
   height="294.58286"
   viewBox="0 0 294.58286 294.58286"
   sodipodi:docname="1c-medium-outline-a.svg"
   inkscape:version="1.4 (86a8ad7, 2024-10-11)"
   xmlns:inkscape="http://www.inkscape.org/namespaces/inkscape"
   xmlns:sodipodi="http://sodipodi.sourceforge.net/DTD/sodipodi-0.dtd"
   xmlns="http://www.w3.org/2000/svg"
   xmlns:svg="http://www.w3.org/2000/svg">
  <defs
     id="defs1" />
  <sodipodi:namedview
     id="namedview1"
     pagecolor="#ffffff"
     bordercolor="#000000"
     borderopacity="0.25"
     inkscape:showpageshadow="2"
     inkscape:pageopacity="0.0"
     inkscape:pagecheckerboard="0"
     inkscape:deskcolor="#d1d1d1"
     inkscape:zoom="2.766624"
     inkscape:cx="147.47215"
     inkscape:cy="147.29143"
     inkscape:window-width="1920"
     inkscape:window-height="1017"
     inkscape:window-x="-8"
     inkscape:window-y="-8"
     inkscape:window-maximized="1"
     inkscape:current-layer="g1" />
  <g
     inkscape:groupmode="layer"
     inkscape:label="Image"
     id="g1">
    <path
       style="fill:#000000"
       d="m 204.81907,142.48678 c -1.32209,-0.34724 -2.8461,-0.89232 -3.3867,-1.21128 -0.5406,-0.31896 -1.96428,-0.77768 -3.16374,-1.01936 l -2.18083,-0.43943 -1.83819,0.83468 c -1.69316,0.76883 -2.03294,0.82707 -4.30675,0.73819 -2.38218,-0.0931 -2.57532,-0.15119 -5.51878,-1.65929 l -3.0502,-1.56278 -1.24868,0.47687 c -1.89583,0.72402 -9.20077,0.46744 -11.71377,-0.41145 -1.44908,-0.50679 -2.45617,-0.63527 -5.37922,-0.68623 -3.45748,-0.0603 -5.72256,-0.46931 -8.69462,-1.5701 -0.85022,-0.31491 -1.83098,-1.50511 -2.37274,-2.87946 -0.55938,-1.41902 -1.43961,-1.3184 -7.52008,0.85962 -1.49023,0.5338 -2.90966,1.14951 -3.15428,1.36823 -0.24463,0.21873 -1.06192,0.48097 -1.81621,0.58275 -1.71154,0.23096 -3.74031,0.92796 -4.15206,1.42649 -0.50887,0.61611 -2.05484,0.93014 -3.6345,0.73829 -1.32463,-0.16088 -1.61581,-0.32516 -2.80607,-1.58316 -0.73044,-0.772 -1.33048,-1.49622 -1.33343,-1.60936 -0.008,-0.30854 -1.49937,-0.2477 -1.82138,0.0743 -0.15401,0.15401 -1.1067,0.35722 -2.11708,0.45157 l -1.83706,0.17155 -1.04993,-1.13728 c -0.57746,-0.62551 -1.21448,-1.13728 -1.41559,-1.13728 -0.20111,0 -1.1451,0.26328 -2.09777,0.58507 l -1.73211,0.58508 -1.60402,-0.69564 c -1.41623,-0.6142 -1.73633,-0.66033 -2.73407,-0.39402 -0.83468,0.22279 -1.76007,0.21622 -3.54035,-0.0251 -2.21102,-0.29975 -2.56902,-0.27926 -4.33029,0.24783 -1.056,0.31603 -3.12338,0.674 -4.594176,0.7955 -2.297068,0.18975 -2.847202,0.33551 -3.901148,1.03362 -0.987045,0.65379 -1.670911,0.85684 -3.497252,1.03839 -3.052011,0.30339 -4.015213,0.19628 -5.15028,-0.57272 -1.347786,-0.91312 -2.213029,-1.18288 -3.036552,-0.94669 -0.3906,0.11202 -1.569332,0.28996 -2.619403,0.39541 -1.853222,0.18611 -1.970483,0.16003 -3.997936,-0.88913 -1.428705,-0.73932 -2.619803,-1.14095 -3.769433,-1.27101 -0.924394,-0.10458 -2.092878,-0.43333 -2.596632,-0.73056 -1.116703,-0.65887 -2.085635,-0.39511 -2.803668,0.76319 -0.957721,1.54496 -2.204739,2.60753 -4.140001,3.52764 -1.757158,0.83543 -2.23492,0.94175 -4.232093,0.94175 -1.583033,0 -2.772218,-0.17595 -4.006098,-0.59273 l -1.754773,-0.59274 -3.750277,0.60665 c -3.413173,0.55211 -3.972171,0.57545 -6.218848,0.25959 -4.06338,-0.57126 -6.862631,-0.47262 -8.714442,0.30708 -1.456071,0.61308 -1.618472,0.63107 -2.025206,0.22434 -0.497639,-0.49764 -0.548458,-3.68515 -0.106148,-6.65791 0.330567,-2.22173 0.435865,-15.45709 0.152439,-19.16078 l -0.227886,-2.97793 2.99205,0.19033 c 1.645627,0.10468 4.102907,0.36425 5.460621,0.57683 3.752954,0.58758 10.348259,0.46515 18.180938,-0.3375 1.259487,-0.12906 1.711608,-0.0241 3.448823,0.80094 2.852652,1.35471 5.858235,1.59515 9.182285,0.73456 l 2.376526,-0.61528 2.057142,0.61114 c 4.788723,1.42265 5.233781,1.50724 5.86081,1.11388 0.321697,-0.20182 1.479942,-0.85041 2.573876,-1.44132 1.712065,-0.9248 2.140536,-1.04877 3.07764,-0.89045 0.598768,0.10116 1.389485,0.42055 1.757149,0.70976 0.87729,0.69007 1.286186,0.66467 2.960846,-0.18394 0.954506,-0.48369 2.024846,-0.75698 3.360263,-0.85797 1.718537,-0.12998 2.153472,-0.0595 3.535497,0.57262 1.304787,0.59682 1.974117,0.72083 3.890747,0.72083 1.86105,0 2.545,0.11996 3.48883,0.61191 0.77829,0.40567 1.59007,0.59597 2.40845,0.5646 3.66899,-0.14065 4.48418,-0.0651 5.39876,0.50011 l 0.92478,0.57155 2.11385,-1.00387 c 1.87939,-0.89251 2.26646,-0.98329 3.48975,-0.81839 1.80006,0.24264 3.6852,0.9658 4.86655,1.86686 1.33969,1.02183 2.67674,0.95976 5.20669,-0.24171 1.81571,-0.86227 2.29767,-0.97075 4.48561,-1.00958 1.34823,-0.0239 3.06847,0.0918 3.82276,0.25713 6.5814,1.44272 6.3351,1.41712 10.96801,1.14008 2.4156,-0.14446 4.63885,-0.32118 4.94056,-0.39273 0.30171,-0.0716 0.89259,-0.63096 1.31305,-1.24314 1.37736,-2.0054 4.01505,-2.7041 6.06352,-1.60619 0.75346,0.40383 1.14481,0.48313 1.35366,0.27429 0.37187,-0.37188 5.65353,-0.39066 6.61912,-0.0235 0.53252,0.20246 1.02494,0.92461 1.96351,2.87958 0.78437,1.6338 1.54563,2.81792 2.03616,3.16721 1.4642,1.0426 3.6851,1.8736 5.88527,2.2021 2.64759,0.39531 3.96696,0.002 4.73764,-1.41087 0.94028,-1.72427 1.71943,-2.42095 3.24557,-2.90202 1.30492,-0.41135 1.75572,-0.43056 3.41715,-0.14566 1.05265,0.18052 2.6732,0.63673 3.60121,1.01381 0.92801,0.37709 1.88587,0.68561 2.12859,0.68561 0.24271,0 1.178,-0.74993 2.07842,-1.66652 2.06511,-2.10219 2.73274,-2.44777 4.72893,-2.44777 2.59701,0 4.06321,0.65282 6.04206,2.69019 0.95048,0.97858 1.90331,2.11796 2.11738,2.53194 0.51655,0.99888 1.67157,1.36073 4.34343,1.36073 1.21548,0 3.44067,0.20503 4.94487,0.45563 2.1454,0.35742 3.00525,0.39175 3.98911,0.15925 2.68974,-0.63559 3.36615,-1.01409 5.05873,-2.83069 0.92465,-0.99241 1.98976,-2.00464 2.36691,-2.2494 1.01378,-0.65793 5.24584,-1.56907 7.288,-1.56907 2.04395,0 3.31025,0.4521 4.89656,1.74819 2.37733,1.94239 2.82788,2.02324 7.73408,1.38787 1.04375,-0.13517 1.46634,-0.0857 1.64572,0.19246 0.26248,0.40711 0.87304,5.60632 0.90639,7.71833 0.0114,0.72034 -0.22193,1.99995 -0.51844,2.84358 -0.44489,1.2658 -0.51169,1.97165 -0.38224,4.03886 0.14936,2.38504 0.11876,2.57706 -0.63912,4.01007 -0.86825,1.64172 -1.02338,1.74569 -4.5251,3.03281 -1.3105,0.4817 -3.07554,1.29316 -3.92231,1.80325 -0.84677,0.51009 -1.73484,0.92743 -1.97348,0.92743 -0.23864,0 -0.85356,0.25937 -1.36649,0.57638 -1.36547,0.84391 -4.13018,1.61341 -5.80536,1.61581 -0.93885,0.001 -2.10015,-0.25328 -3.24619,-0.71177 -1.58816,-0.63537 -2.03068,-0.69607 -4.02392,-0.55203 -1.23174,0.089 -2.79496,0.36518 -3.47382,0.61372 -0.67886,0.24854 -2.16,0.49082 -3.29143,0.53842 -5.14043,0.21622 -10.35281,0.64842 -11.05785,0.91689 -1.20636,0.45935 -3.93848,0.2945 -6.56879,-0.39635 z m 6.48139,-0.94141 c 0.6067,-0.23066 6.41425,-0.73288 11.41954,-0.98751 1.86278,-0.0948 4.29622,-0.78798 3.56571,-1.01577 -0.22628,-0.0706 -1.52228,-0.33894 -2.88,-0.59641 -2.37259,-0.44993 -3.17514,-0.77625 -2.80915,-1.14224 0.0943,-0.0943 1.32034,0.073 2.72457,0.37166 1.40424,0.2987 3.75551,0.56723 5.22505,0.59674 1.46955,0.0295 3.07331,0.16878 3.56391,0.30948 1.29711,0.37201 3.74522,0.2921 5.00991,-0.16352 1.33989,-0.48271 1.23428,-0.48109 1.23428,-0.0189 0,0.46232 -1.18564,0.90691 -3.09355,1.16 -1.15839,0.15367 -1.29607,0.22577 -0.78917,0.41328 1.04635,0.38707 3.13024,0.32896 4.65674,-0.12985 0.80285,-0.24131 3.35093,-1.36848 5.6624,-2.50481 2.31146,-1.13634 4.32193,-2.06607 4.46771,-2.06607 0.14577,0 0.73314,-0.31767 1.30527,-0.70592 0.57213,-0.38826 1.26107,-0.72256 1.53097,-0.74289 0.96285,-0.0725 1.44645,-1.84985 1.25132,-4.59884 -0.1478,-2.08228 -0.0869,-2.74963 0.37644,-4.12504 0.45571,-1.35275 0.5265,-2.08466 0.40318,-4.16837 -0.0823,-1.39013 -0.21955,-2.99167 -0.30505,-3.55898 l -0.15545,-1.03147 -3.27096,0.14656 c -2.70056,0.121 -3.67138,0.0498 -5.56717,-0.40854 -2.83423,-0.68514 -3.01977,-0.68511 -6.30574,0.001 -2.47815,0.5175 -3.55052,0.51166 -3.00226,-0.0164 0.12628,-0.12162 0.90847,-0.35468 1.73818,-0.51791 0.82972,-0.16323 2.12572,-0.42478 2.88,-0.58123 1.37672,-0.28554 3.54461,-0.1366 4.77227,0.32787 0.59757,0.22609 0.62275,0.20606 0.27428,-0.21807 -0.21103,-0.25686 -0.93243,-0.81622 -1.60311,-1.24302 -1.02849,-0.65452 -1.50894,-0.77602 -3.06869,-0.77602 -1.57792,0 -4.17907,0.42762 -6.10526,1.00368 -0.28549,0.0854 -1.51978,1.17578 -2.74285,2.4231 -1.90652,1.94431 -2.43901,2.32893 -3.73235,2.69588 -2.45888,0.69764 -3.68666,0.76091 -6.23437,0.32125 -3.01349,-0.52005 -4.59469,-0.58149 -8.57208,-0.33308 -2.6278,0.16412 -3.38969,0.31831 -4.60093,0.93115 -1.08557,0.54924 -1.53038,0.6557 -1.76393,0.42214 -0.23355,-0.23355 -0.12813,-0.38233 0.41807,-0.58999 0.97392,-0.37028 0.9207,-0.64748 -0.22962,-1.19603 -0.528,-0.25178 -0.96,-0.65522 -0.96,-0.89651 0,-0.2413 0.0926,-0.39129 0.20571,-0.3333 2.29689,1.17716 2.79334,1.3052 4.40679,1.13656 l 1.65768,-0.17327 -0.59795,-0.85436 c -1.50853,-2.15543 -3.41469,-4.1305 -4.43269,-4.59295 -1.26234,-0.57345 -3.97939,-0.68054 -4.89078,-0.19278 -0.32893,0.17604 -1.34587,1.10175 -2.25988,2.05715 -1.89997,1.986 -2.47634,2.128 -4.69471,1.15664 -4.32985,-1.89592 -7.39667,-1.70867 -8.68958,0.53056 -0.68135,1.18006 -0.3372,1.57434 1.10349,1.26425 1.38792,-0.29873 1.45716,-0.2983 1.4805,0.009 0.039,0.51403 -1.99546,1.00512 -2.88268,0.69583 -0.67859,-0.23656 -0.94869,-0.19517 -1.52976,0.23444 -1.06204,0.7852 -2.61224,0.92214 -5.20757,0.46002 -2.71945,-0.48423 -5.37851,-1.6996 -6.7036,-3.06401 -0.51163,-0.52681 -1.27213,-1.78273 -1.69,-2.79095 -0.41787,-1.00821 -0.87537,-1.9874 -1.01666,-2.17597 -0.17429,-0.2326 -1.10287,-0.34286 -2.88737,-0.34286 -2.53822,0 -2.71257,0.0405 -4.97213,1.15643 -1.28792,0.63603 -2.7134,1.54782 -3.16773,2.0262 -0.83264,0.8767 -2.45047,1.51906 -3.35016,1.33018 -0.26765,-0.0562 -1.52058,-0.3589 -2.7843,-0.67268 -1.26371,-0.31378 -2.35301,-0.51517 -2.42065,-0.44753 -0.0676,0.0676 -0.48021,0.0205 -0.91683,-0.1047 -0.43662,-0.12522 -1.3839,-0.13624 -2.10507,-0.0245 l -1.31121,0.2032 1.23428,1.17276 c 2.02297,1.92214 2.88778,2.23214 7.04381,2.5249 3.55094,0.25013 6.38884,0.93526 6.82987,1.64887 0.34215,0.5536 -0.15629,0.55314 -1.63878,-0.002 -0.99337,-0.37167 -2.77561,-0.66914 -5.16178,-0.86154 -4.18797,-0.33768 -5.60651,-0.84926 -7.62169,-2.74864 -1.47634,-1.39151 -2.80524,-2.1843 -3.66141,-2.1843 -0.34518,0 -1.27586,-0.19251 -2.06818,-0.42781 -0.79232,-0.23529 -1.64787,-0.38439 -1.90121,-0.33134 -0.25335,0.0531 0.40337,0.32299 1.45937,0.59984 1.52579,0.40002 2.10219,0.70739 2.80735,1.49705 0.48804,0.54653 0.88919,1.08626 0.89143,1.1994 0.01,0.48292 -0.73326,0.14845 -1.36735,-0.61566 -0.46696,-0.56271 -1.16696,-0.95836 -2.19428,-1.24024 -3.02023,-0.8287 -3.19158,-0.82574 -4.21486,0.0727 l -0.93779,0.8234 1.9988,0.12827 c 2.72162,0.17467 4.2897,0.98538 5.98513,3.09438 1.61839,2.01317 1.91347,2.52273 1.58016,2.72872 -0.13909,0.086 -0.97542,-0.73969 -1.8585,-1.83478 -1.87511,-2.32528 -3.07718,-3.02076 -5.49188,-3.17744 -1.35703,-0.0881 -2.11772,0.04 -3.73016,0.62813 -1.82362,0.66512 -2.1458,0.70676 -3.23249,0.41788 -0.66384,-0.17647 -1.88584,-0.83262 -2.71556,-1.4581 -0.82971,-0.62549 -1.83919,-1.324 -2.24328,-1.55226 -0.40409,-0.22825 -1.28835,-0.75995 -1.96503,-1.18156 -0.67668,-0.4216 -1.96267,-0.90275 -2.85775,-1.06921 -1.53521,-0.2855 -1.7153,-0.25966 -3.17783,0.45589 -0.85271,0.41719 -1.55039,0.80882 -1.55039,0.87028 0,0.29231 1.68128,0.76224 3.22848,0.90238 2.15437,0.19514 2.24144,0.68788 0.13314,0.75349 -1.55482,0.0484 -1.93437,-0.0714 -6.24162,-1.97025 -1.31997,-0.5819 -2.56601,-0.70249 -3.86887,-0.37443 -1.07691,0.27117 -1.44614,0.22408 -3.24211,-0.4135 -1.47965,-0.52529 -2.57045,-0.72025 -4.04076,-0.7222 -1.56657,-0.002 -2.33993,-0.15442 -3.481212,-0.68572 -1.047729,-0.48774 -1.910379,-0.67752 -3.017143,-0.66375 -1.347022,0.0168 -3.305232,0.45739 -2.266531,0.51001 0.209286,0.0106 1.135,0.75462 2.057143,1.65336 0.922143,0.89875 1.985195,1.87555 2.362338,2.17068 0.377143,0.29512 0.602445,0.6202 0.50067,0.72239 -0.399982,0.40161 -1.42064,-0.26375 -3.239796,-2.11199 -1.633406,-1.65952 -1.999512,-1.90704 -2.598414,-1.75672 -2.220426,0.55729 -3.186635,0.52613 -4.073062,-0.13134 -1.310868,-0.97229 -2.427774,-0.82293 -4.982756,0.66633 -1.203204,0.70133 -2.503336,1.27514 -2.889182,1.27514 -0.385845,0 -1.993406,-0.44207 -3.572356,-0.98238 -3.090139,-1.05743 -3.686359,-1.08016 -6.573675,-0.25062 -1.155379,0.33195 -2.118631,0.39044 -4.114286,0.24985 -2.211768,-0.15581 -2.891529,-0.32694 -4.496206,-1.1319 -1.695494,-0.85052 -2.04914,-0.93158 -3.428572,-0.78594 -0.845943,0.0893 -4.253507,0.30577 -7.572365,0.481 -4.646962,0.24536 -6.664887,0.24323 -8.777142,-0.009 -3.803755,-0.45473 -8.693815,-0.90502 -8.760912,-0.80674 -0.03069,0.045 0.09286,1.37772 0.274545,2.96172 0.438763,3.82523 -0.04629,21.92633 -0.612089,22.84181 -0.115109,0.18625 0.0522,0.2136 0.484136,0.0791 3.546576,-1.10409 4.637418,-1.1527 9.431545,-0.42033 1.96319,0.29991 2.590583,0.26988 6.090317,-0.29155 l 3.901662,-0.6259 1.801158,0.59128 c 1.20978,0.39714 2.490488,0.59128 3.900651,0.59128 1.849679,0 2.332534,-0.11515 4.057996,-0.96771 1.691215,-0.83565 2.098995,-1.18825 2.987956,-2.58364 0.566201,-0.88875 1.216177,-1.68756 1.444392,-1.77514 0.854444,-0.32788 2.582543,-0.14094 3.600114,0.38945 0.620733,0.32354 1.509476,0.53077 2.166011,0.50504 0.829358,-0.0325 1.693781,0.25521 3.388738,1.12789 l 2.275377,1.17151 2.941092,-0.34976 2.941092,-0.34976 1.334538,0.79892 c 2.023546,1.21139 2.166156,1.23742 4.833528,0.88228 1.737147,-0.23129 2.764304,-0.52094 3.416247,-0.96336 1.121974,-0.76139 2.724177,-1.16139 4.688189,-1.17044 0.800171,-0.004 2.589884,-0.32762 3.977144,-0.71984 2.21136,-0.62522 2.68547,-0.67594 3.84607,-0.41143 1.66489,0.37945 3.31241,0.38221 4.66064,0.008 0.62313,-0.17303 1.17856,-0.19154 1.37143,-0.0457 0.17828,0.13481 0.89464,0.45569 1.59191,0.71305 1.22764,0.45314 1.31771,0.44925 2.84661,-0.12278 1.92431,-0.71998 3.24517,-0.45581 4.20375,0.84074 0.53197,0.71952 0.78395,0.82856 1.91477,0.82856 0.75632,0 1.56806,-0.18622 1.93643,-0.44424 0.74253,-0.52008 2.72582,-0.37046 3.18105,0.23999 1.66929,2.23845 2.28553,2.70673 3.76251,2.85917 1.29094,0.13323 1.57943,0.0675 2.29061,-0.5217 0.99186,-0.82178 2.23092,-1.27728 4.30935,-1.58418 0.86663,-0.12797 1.76704,-0.42402 2.00091,-0.65789 0.23387,-0.23387 0.94424,-0.56399 1.57859,-0.7336 0.63435,-0.16961 2.20251,-0.71637 3.4848,-1.21502 1.28228,-0.49865 3.04111,-0.9945 3.9085,-1.10189 1.94439,-0.24073 2.7019,0.17186 3.52312,1.91892 0.31347,0.66689 0.7136,1.32775 0.88916,1.4686 0.17557,0.14084 1.36836,0.57265 2.65065,0.95958 2.70489,0.81618 6.46574,1.17126 8.20032,0.77422 0.9128,-0.20893 1.34628,-0.18886 1.78286,0.0825 1.56771,0.97458 4.47901,1.52046 8.34032,1.56386 3.51429,0.0395 3.92735,-0.008 4.86903,-0.56395 l 1.02897,-0.60711 3.31782,1.70693 c 3.23474,1.66419 3.3762,1.7084 5.64925,1.766 2.04827,0.0519 2.49243,-0.0271 3.65709,-0.65015 1.91626,-1.02519 5.19406,-0.83929 7.72577,0.43817 3.05993,1.54401 8.02096,2.4121 9.8376,1.72141 z m -10.88659,-3.69749 c -1.24704,-0.4519 -1.39512,-0.57509 -1.15612,-0.9618 0.12822,-0.20746 0.34064,-0.20798 0.72595,-0.002 0.29957,0.16033 1.0435,0.37666 1.65317,0.48074 0.60966,0.10408 1.10147,0.31266 1.0929,0.46352 -0.0243,0.42799 -1.16194,0.43747 -2.3159,0.0193 z m 19.14778,-1.8321 c -2.04279,-1.08113 -2.12333,-1.22679 -1.9536,-3.53329 0.0833,-1.1328 0.22939,-2.50008 0.32452,-3.03841 0.14319,-0.81032 0.0452,-1.13065 -0.56962,-1.86128 -1.10832,-1.31716 -2.10783,-1.70734 -4.82445,-1.88335 -1.60738,-0.10413 -2.41731,-0.26304 -2.34785,-0.46064 0.16629,-0.47304 4.70339,-0.25196 5.75741,0.28054 1.96684,0.99367 3.10483,2.63814 2.80268,4.05007 -0.8876,4.14764 -0.73004,4.90835 1.19663,5.77716 0.61981,0.27949 1.12691,0.67456 1.12691,0.87793 0,0.50045 -0.23353,0.46822 -1.51263,-0.20873 z m -47.27064,-0.52346 c -1.38537,-0.9103 -3.23266,-1.36661 -5.53247,-1.36661 -1.47645,0 -1.66927,0.0693 -2.09777,0.75429 -0.25954,0.41486 -0.50103,0.7975 -0.53665,0.85032 -0.0356,0.0528 -0.19595,0.015 -0.3563,-0.0841 -0.38829,-0.23998 0.3555,-1.68242 1.0627,-2.06091 1.34045,-0.71738 5.68341,-0.0526 7.73187,1.18345 1.40497,0.8478 2.0154,1.57231 1.28904,1.52995 -0.20115,-0.0117 -0.90333,-0.37459 -1.56042,-0.80635 z m 50.22327,-0.10621 c -0.792,-0.37762 -1.44,-0.8157 -1.44,-0.97349 0,-0.42295 0.4413,-0.35278 1.64572,0.26166 2.27882,1.16257 4.21934,0.61846 6.97614,-1.9561 1.32446,-1.23689 2.22737,-1.88423 2.48842,-1.78405 0.50182,0.19256 0.54331,0.72301 0.0566,0.72301 -0.19425,0 -0.96567,0.62677 -1.71429,1.39283 -1.81342,1.85565 -3.2536,2.66851 -5.0718,2.86256 -1.24648,0.13303 -1.74472,0.0438 -2.94075,-0.52642 z m -21.80571,-0.0696 c -0.56571,-0.23465 -1.02857,-0.59857 -1.02857,-0.80872 0,-0.47859 0.025,-0.4774 1.38252,0.0658 0.88509,0.35414 1.26207,0.38285 1.80132,0.13715 0.83995,-0.38271 1.47902,-0.40005 1.47902,-0.0401 0,0.2812 -1.75446,1.11145 -2.29636,1.08669 -0.17015,-0.008 -0.77222,-0.20611 -1.33793,-0.44076 z M 211.74556,134.88 c -0.40797,-0.66912 -0.54377,-1.38161 -0.54454,-2.85699 l -0.001,-1.96556 -1.66286,-1.5048 c -0.96631,-0.87445 -1.54,-1.58073 -1.36956,-1.68607 0.37621,-0.23251 1.57756,0.62527 2.8531,2.03714 0.96071,1.06339 1.00218,1.19221 1.00218,3.11322 0,1.33736 0.13395,2.18103 0.4027,2.53635 0.22149,0.29283 0.40663,0.68671 0.41143,0.87528 0.0161,0.63215 -0.54279,0.35125 -1.09143,-0.54857 z M 61.165714,134.57073 c 0,-0.99287 1.460582,-1.27485 2.018043,-0.3896 0.395701,0.62837 0.02865,0.93925 -0.547448,0.46367 -0.359307,-0.29662 -0.48844,-0.30535 -0.578057,-0.0391 -0.1567,0.46558 -0.892538,0.43674 -0.892538,-0.035 z m 113.462856,0.19498 c -0.44048,-0.44048 -0.0802,-0.58556 1.39429,-0.56147 0.86742,0.0142 2.16342,-0.067 2.88,-0.18033 1.04312,-0.16501 1.30285,-0.12788 1.30285,0.18625 0,0.2403 -0.39861,0.45823 -1.02857,0.56236 -1.37202,0.22678 -4.31939,0.22237 -4.54857,-0.007 z m -17.41163,-1.54547 c -0.69745,-0.7424 -0.77855,-1.51172 -0.18344,-1.74009 0.80026,-0.30708 2.98441,0.98194 2.49429,1.47206 -0.10157,0.10157 -0.53934,-0.0248 -0.97284,-0.28091 -1.05133,-0.62104 -1.31057,-0.5878 -0.69766,0.0895 0.75282,0.83185 0.12959,1.27903 -0.64035,0.45947 z m 34.88991,-0.90367 c -2.06172,-1.37597 -4.08239,-3.67657 -3.22923,-3.67657 0.093,0 0.91423,0.68989 1.82499,1.5331 0.91076,0.8432 2.06897,1.73006 2.5738,1.9708 0.50483,0.24073 0.91787,0.53827 0.91787,0.66119 0,0.45027 -1.04842,0.20491 -2.08743,-0.48852 z m 32.83281,0.11914 c -0.35193,-0.13019 -1.0048,-0.54377 -1.45081,-0.91907 -0.51833,-0.43614 -1.14975,-0.68236 -1.7499,-0.68236 -0.97587,0 -1.25849,-0.36726 -0.50509,-0.65636 0.62646,-0.2404 1.70453,-0.20454 1.86937,0.0622 0.0777,0.12576 0.6303,0.56752 1.22796,0.9817 0.90475,0.62699 1.18318,0.70137 1.66339,0.44437 0.71213,-0.38112 1.27151,-0.11789 0.84404,0.39719 -0.41895,0.5048 -1.15224,0.64859 -1.89896,0.37236 z m -51.38538,-0.25197 c -0.87768,-0.5112 -0.29653,-3.58989 0.75373,-3.99291 0.7053,-0.27065 0.75312,0.0519 0.15351,1.03538 -0.30928,0.5073 -0.56279,1.26792 -0.56335,1.69027 l -0.001,0.7679 1.64572,-0.18619 c 1.95119,-0.22075 2.19715,0.17197 0.40749,0.65064 -1.48079,0.39605 -1.76883,0.40024 -2.39607,0.0349 z m -19.88642,-0.32088 c -0.15047,-0.18858 -0.47997,-0.74912 -0.73221,-1.24565 -0.25225,-0.49654 -1.07381,-1.58209 -1.8257,-2.41235 -1.67857,-1.85354 -1.50904,-2.56928 0.21161,-0.89338 1.13677,1.10721 3.1013,4.04304 3.1013,4.63464 0,0.36902 -0.43212,0.32136 -0.755,-0.0833 z m 43.68071,0.13024 c -0.65842,-0.0604 -3.14498,-0.97703 -3.68457,-1.35827 -0.0654,-0.0462 0.0125,-0.21535 0.17308,-0.37591 0.20639,-0.20639 0.61979,-0.12468 1.41079,0.27886 2.18121,1.11277 4.1874,0.47725 2.81599,-0.89205 -0.54217,-0.54135 -0.83886,-0.58794 -3.32954,-0.52285 -2.17555,0.0568 -2.73432,-0.006 -2.73432,-0.30679 0,-0.45768 3.66725,-0.76772 5.14328,-0.43482 1.41636,0.31945 2.34129,1.30443 2.14527,2.28455 l -0.15879,0.79396 1.44083,-0.15113 c 0.83195,-0.0873 2.11909,-0.5092 3.04583,-0.99846 1.52462,-0.8049 3.46929,-1.13833 3.46929,-0.59484 0,0.13887 -0.40114,0.3362 -0.89143,0.43852 -0.49028,0.10232 -1.44685,0.50139 -2.12571,0.88684 -0.94751,0.53797 -1.77598,0.73879 -3.56571,0.86433 -1.28229,0.0899 -2.70172,0.12957 -3.15429,0.0881 z M 50.943225,131.4918 c -0.09094,-0.0909 -0.0465,-0.47794 0.09876,-0.85999 0.145255,-0.38205 0.274674,-2.00479 0.287598,-3.60608 0.02638,-3.26894 -0.360296,-5.07281 -1.719535,-8.02172 -0.833353,-1.80798 -0.908439,-2.43513 -0.242253,-2.0234 0.44418,0.27452 1.59754,2.98688 2.214632,5.20816 1.015484,3.65533 0.546005,10.48823 -0.639198,9.30303 z m 27.675313,-0.89456 c -0.97072,-1.01321 -1.619805,-3.09424 -1.260158,-4.04018 0.297562,-0.78265 0.924555,-0.62049 0.672423,0.17391 -0.256398,0.80784 0.41785,2.63207 1.277099,3.45528 0.430939,0.41287 0.783526,0.851 0.783526,0.97364 0,0.47538 -0.754544,0.18714 -1.47289,-0.56265 z m 7.188762,0.11259 c -0.296451,-0.65064 -0.256847,-0.90483 0.306396,-1.96656 0.680949,-1.2836 2.250564,-2.84613 2.859038,-2.84613 0.435767,0 3.735837,2.10175 3.735837,2.37928 0,0.10832 -0.324358,0.665 -0.720796,1.23706 -0.79288,1.14413 -1.700099,1.52291 -4.273897,1.78443 -1.50469,0.1529 -1.579475,0.12983 -1.906578,-0.58808 z m 3.408907,-0.41087 c 1.482815,-0.30783 2.39612,-0.98996 2.394731,-1.78856 -8.21e-4,-0.47176 -2.411558,-1.84543 -2.941026,-1.67584 -0.581964,0.1864 -2.269913,2.58699 -2.269913,3.22825 0,0.46903 0.47974,0.78892 0.967041,0.64482 0.154729,-0.0457 0.986855,-0.22966 1.849167,-0.40867 z m 15.805853,-0.28961 c -1.88751,-1.51482 -3.91149,-4.0014 -3.62902,-4.45844 0.10893,-0.17626 0.44229,0.0251 0.83937,0.50693 1.365,1.65642 2.95604,3.21363 3.96707,3.88269 0.96129,0.63615 1.40292,1.44233 0.79011,1.44233 -0.14086,0 -1.02625,-0.61808 -1.96753,-1.37351 z m -62.507775,0.87736 c 0,-0.4181 0.686324,-1.0904 1.838063,-1.80051 0.897982,-0.55366 1.192944,-0.92689 1.336258,-1.69082 0.183407,-0.97764 0.05955,-2.30251 -0.300331,-3.21252 -0.130092,-0.32896 -0.05957,-0.48 0.224119,-0.48 0.460033,0 1.017008,1.33991 1.014647,2.44093 -0.0039,1.82042 -0.516567,2.70476 -2.232135,3.85037 -1.779741,1.18846 -1.880621,1.23634 -1.880621,0.89255 z m 124.952495,-0.0276 c -0.0827,-0.13384 0.21309,-0.63247 0.65736,-1.10806 0.44427,-0.47559 0.88049,-1.09388 0.96939,-1.37397 0.17934,-0.56503 0.96361,-0.98835 0.96361,-0.52011 0,1.04513 -2.21401,3.6111 -2.59036,3.00214 z m -31.62857,-0.93325 c -0.30613,-0.51884 -0.75431,-1.6067 -0.99596,-2.41746 -0.48748,-1.63551 -2.33301,-3.80573 -4.62511,-5.43884 -0.71657,-0.51055 -1.30286,-1.03078 -1.30286,-1.15607 0,-0.90056 2.91349,1.13581 4.94265,3.45464 0.85407,0.976 1.497,2.04193 1.75439,2.90867 0.22346,0.75246 0.62365,1.73608 0.88932,2.18582 0.34406,0.58244 0.39832,0.90241 0.18859,1.11214 -0.20973,0.20973 -0.45457,0.023 -0.85102,-0.6489 z m 5.9675,0.65372 c 0,-0.61917 0.92531,-1.11673 2.07674,-1.11673 1.54472,0 1.58182,0.4271 0.0549,0.6319 -0.6379,0.0856 -1.20362,0.28696 -1.25715,0.44755 -0.11948,0.35844 -0.87447,0.39064 -0.87447,0.0373 z m -11.29397,-0.84066 c -1.39975,-1.1538 -2.47629,-4.39036 -1.46031,-4.39036 0.24202,0 0.41391,0.25411 0.41745,0.61714 0.0106,1.09054 1.03598,2.94261 1.90188,3.43539 0.8415,0.47889 1.12669,1.1589 0.48602,1.1589 -0.19191,0 -0.79718,-0.36948 -1.34504,-0.82107 z m 47.49969,0.29824 c 0,-0.1367 0.648,-0.33676 1.44,-0.44458 0.792,-0.10781 1.76762,-0.42796 2.16805,-0.71145 0.40043,-0.28348 0.86329,-0.51543 1.02857,-0.51543 0.59951,0 0.27825,0.54393 -0.72315,1.2244 -0.7756,0.52703 -1.37382,0.6956 -2.46857,0.6956 -0.7947,0 -1.4449,-0.11184 -1.4449,-0.24854 z m -77.96572,-2.12335 c -1.793587,-1.98487 -2.222273,-2.7009 -1.506796,-2.51679 0.453117,0.1166 4.043946,3.96077 4.043946,4.32926 0,0.67812 -0.80847,0.10057 -2.53715,-1.81247 z m 61.2633,1.30185 c -0.85261,-0.79645 -1.11813,-2.03122 -0.68149,-3.1691 0.28556,-0.74415 1.63655,-1.24657 3.35198,-1.24657 1.50683,0 1.64249,-0.0513 1.80066,-0.68154 0.20526,-0.81783 1.27957,-1.16821 2.24007,-0.73058 1.03279,0.47057 0.815,0.89391 -0.36309,0.70575 -0.96571,-0.15424 -1.04897,-0.11013 -1.36242,0.72175 -0.32999,0.87575 -0.35021,0.88408 -1.74525,0.71886 -0.94173,-0.11153 -1.72055,-0.038 -2.34043,0.22102 -0.83602,0.34931 -0.92904,0.49788 -0.92904,1.48376 0,1.25366 0.70712,1.94955 1.98103,1.94955 0.49432,0 0.76183,0.14447 0.76183,0.41143 0,0.7573 -1.75829,0.5083 -2.71385,-0.38433 z m -101.39898,-0.0945 c -0.107529,-0.33879 -0.977069,-1.51212 -1.932312,-2.6074 -2.296306,-2.63293 -2.668156,-3.3926 -2.718502,-5.55375 -0.02284,-0.98057 -0.136392,-2.24572 -0.252329,-2.81143 C 54.8379,117.324 54.87757,117.12 55.206902,117.12 c 0.501264,0 0.903576,2.01394 0.781048,3.90986 -0.08915,1.37944 0.582764,2.88144 1.926665,4.30688 1.889423,2.00406 2.702527,3.12671 2.702527,3.73137 0,0.83926 -0.446936,0.87278 -0.707112,0.053 z m 13.721253,-0.27544 c 0.356703,-1.17913 0.296623,-1.43861 -0.354468,-1.53092 -0.353752,-0.0502 -1.00571,0.059 -1.448795,0.2425 -1.048902,0.43447 -1.378845,0.0838 -0.55192,-0.58662 1.373721,-1.11369 3.888106,-0.23597 3.447218,1.20336 -0.230503,0.7525 -0.64915,1.28883 -1.006036,1.28883 -0.155251,0 -0.192288,-0.26579 -0.086,-0.61715 z m 36.740137,-0.53845 c -0.40368,-0.64671 -1.11781,-1.51024 -1.58697,-1.91897 -0.77079,-0.6715 -0.79739,-0.74421 -0.27593,-0.75429 0.75325,-0.0145 1.83847,1.00942 2.55191,2.40786 0.78029,1.52951 0.2319,1.74075 -0.68901,0.2654 z m -29.150313,0.30447 c -0.535966,-0.57529 -1.074373,-3.13561 -0.73149,-3.47849 0.25556,-0.25556 0.689768,0.51379 0.694754,1.231 0.0058,0.83789 0.572443,2.00147 0.974642,2.00147 0.552109,0 0.870336,-0.59991 1.236714,-2.33143 0.191523,-0.90514 0.448074,-1.75892 0.570113,-1.89729 0.456728,-0.51784 0.520735,0.60753 0.129856,2.28308 -0.613108,2.62816 -1.697606,3.45501 -2.874589,2.19166 z M 61.655476,128.16 c -0.54792,-0.62901 -5.152619,-8.33564 -5.152619,-8.62365 0,-0.12214 0.154285,-0.22125 0.342857,-0.22026 0.188571,10e-4 0.931007,1.01929 1.649857,2.26286 0.718849,1.24358 1.91978,3.24848 2.668735,4.45533 0.748954,1.20686 1.364233,2.28686 1.367286,2.4 0.0098,0.36279 -0.445278,0.22032 -0.876116,-0.27428 z m 57.271354,-1.95058 c -2.04974,-3.2485 -3.57398,-4.92911 -5.04072,-5.55783 -1.96783,-0.84351 -3.59498,-2.36307 -3.20539,-2.99344 0.10099,-0.16339 0.64386,0.18475 1.27987,0.82076 0.62545,0.62545 1.55722,1.22641 2.14827,1.38556 0.71167,0.19164 1.47677,0.75484 2.40472,1.77017 1.38542,1.51587 4.44642,6.12291 4.44642,6.69221 0,0.77272 -0.61115,0.13624 -2.03317,-2.11743 z m 3.23172,1.47636 c -0.34898,-0.90942 0.19676,-3.13311 1.15708,-4.71471 l 0.97128,-1.59964 -1.38917,-1.25607 c -0.76404,-0.69084 -1.38917,-1.33884 -1.38917,-1.44 0,-0.55209 1.01601,-0.0181 2.27347,1.19491 0.78616,0.75837 1.7071,1.45061 2.04653,1.53831 0.97464,0.25183 0.77537,0.93766 -0.24851,0.85532 -0.782,-0.0629 -0.95418,0.0762 -1.78172,1.43896 -0.69306,1.14132 -0.91635,1.8218 -0.91721,2.79524 -0.001,1.30786 -0.41527,1.98853 -0.72258,1.18768 z m -26.021408,-0.7391 c -0.452571,-0.44621 -1.347428,-1.12349 -1.988571,-1.50505 -1.155653,-0.68777 -1.496737,-1.1902 -0.807986,-1.1902 0.925401,0 4.470864,2.80136 4.167237,3.29264 -0.245597,0.39738 -0.453726,0.30667 -1.37068,-0.59739 z m 50.306208,0.36093 c -0.38379,-0.3019 -1.85053,-1.17523 -3.25941,-1.94075 -2.91903,-1.58606 -4.92304,-3.01347 -4.93546,-3.51543 -0.0142,-0.5724 0.53575,-0.38881 1.64312,0.54857 1.03015,0.87201 3.83411,2.55687 3.83411,2.30386 0,-0.0703 -0.5552,-0.47854 -1.23379,-0.90725 -1.26684,-0.80034 -1.53995,-1.1909 -0.83279,-1.1909 0.63431,0 5.11056,3.02611 4.92364,3.32856 -0.0924,0.14945 0.042,0.50366 0.29851,0.78714 0.71509,0.79017 0.3843,1.23296 -0.43793,0.5862 z m -34.30168,0.10263 c -0.0898,-0.0898 -0.0991,-0.73304 -0.0206,-1.42941 0.11502,-1.02046 0.0446,-1.33789 -0.36302,-1.63594 -0.36676,-0.26818 -0.42311,-0.45243 -0.20505,-0.67049 0.52219,-0.52219 1.45268,0.69228 1.45268,1.89603 0,1.01965 -0.5382,2.16565 -0.86404,1.83981 z m 24.28115,-0.34738 c -0.46818,-1.45697 -0.84833,-2.20455 -1.66512,-3.27462 -1.51986,-1.99112 -1.02049,-2.49947 0.55539,-0.56538 1.00558,1.23413 1.82977,2.94801 1.82977,3.80492 0,0.64956 -0.51452,0.67462 -0.72004,0.0351 z m 60.38258,-0.11426 c -0.97976,-0.38971 -2.20705,-0.57168 -4.34034,-0.64355 -3.00314,-0.10118 -3.75649,-0.34099 -3.75649,-1.19578 0,-0.35205 0.28609,-0.44641 1.35342,-0.44641 1.11224,0 1.4979,-0.13843 2.1642,-0.77678 0.56439,-0.54073 0.87187,-0.67792 1.01182,-0.45148 0.29166,0.47191 -1.00466,1.65607 -2.09462,1.91342 -0.69272,0.16355 -0.28484,0.22576 1.61775,0.24676 1.7691,0.0195 3.01313,0.19297 4.08419,0.56941 1.75445,0.61664 1.93896,0.743 1.5821,1.0835 -0.15112,0.14419 -0.81568,0.0216 -1.62203,-0.29909 z M 65.142857,124.46708 c -3.866403,-2.77143 -6.612641,-5.73142 -5.28,-5.69096 0.188571,0.006 0.67629,0.49267 1.083818,1.08209 1.034623,1.49642 1.747274,1.88357 3.912495,2.1255 1.215968,0.13587 1.929498,0.34581 2.011192,0.59175 0.100754,0.30333 -0.160758,0.35357 -1.280446,0.24598 -0.773883,-0.0744 -1.407059,-0.0975 -1.407059,-0.0515 0,0.046 0.555428,0.46585 1.234285,0.93292 1.212012,0.83388 1.569195,1.37991 0.891429,1.36274 -0.188571,-0.005 -0.713143,-0.27411 -1.165714,-0.59852 z m 38.594913,-1.19787 c -1.89758,-1.73189 -2.31861,-2.30921 -1.68404,-2.30921 0.34627,0 4.36913,3.59338 4.36913,3.90267 0,0.57301 -0.89013,0.0448 -2.68509,-1.59346 z m 46.97615,0.93587 c -1.55531,-1.23906 -3.14821,-2.77035 -3.14821,-3.02646 0,-0.50798 0.78048,-0.15114 1.66048,0.75917 0.51988,0.53778 1.48514,1.33621 2.14502,1.77427 1.29383,0.85892 1.68709,0.81388 2.95414,-0.33839 0.44634,-0.40591 0.63942,-0.45206 0.80056,-0.19133 0.32441,0.5249 -1.46871,1.89194 -2.48163,1.89194 -0.53011,0 -1.24123,-0.3202 -1.93036,-0.8692 z m 28.39465,0.0565 c -0.528,-0.28282 -1.63886,-1.14926 -2.46857,-1.92542 -0.82972,-0.77616 -2.15657,-1.91185 -2.94857,-2.52376 -1.45402,-1.12339 -1.76448,-1.59522 -1.04962,-1.59522 0.45578,0 1.50367,0.82641 4.06509,3.20591 1.01736,0.94511 2.34858,1.97286 2.95826,2.2839 0.60967,0.31103 1.03514,0.68421 0.94548,0.82928 -0.21931,0.35486 -0.38245,0.32502 -1.50207,-0.27469 z m 37.87664,0.1574 c -0.30758,-0.3706 -0.80611,-0.54086 -2.74554,-0.93768 -1.10443,-0.22598 -1.42378,-0.79462 -0.51834,-0.92297 0.58202,-0.0825 0.55018,-0.14118 -0.39562,-0.72923 -1.06154,-0.66001 -1.32759,-1.14335 -0.62935,-1.14335 0.49021,0 5.14294,3.32363 5.29615,3.78325 0.15203,0.4561 -0.61903,0.41782 -1.0073,-0.05 z m 22.33221,-0.60558 c -1.52264,-1.03865 -2.17598,-1.12144 -4.1424,-0.5249 -1.54812,0.46964 -2.30645,0.52295 -2.30645,0.16215 0,-0.31603 2.20407,-1.03656 3.84,-1.25533 1.09014,-0.14578 1.43449,-0.0455 2.94857,0.85884 0.94286,0.56314 1.71429,1.18634 1.71429,1.38489 0,0.5613 -0.56728,0.38851 -2.05401,-0.62565 z M 96.229352,123.35864 c -0.829043,-0.69871 -1.170514,-1.5938 -0.915067,-2.39864 0.262596,-0.82737 0.685714,-0.65812 0.685714,0.27428 0,0.76582 0.79795,1.92 1.327402,1.92 0.311677,0 0.910403,-1.35339 0.728752,-1.64731 -0.248458,-0.40201 0.333545,-0.56107 0.651438,-0.17803 0.221999,0.26749 0.183177,0.66329 -0.147671,1.50555 -0.524475,1.33518 -1.19051,1.48497 -2.330568,0.52415 z M 181.76388,122.87 c -0.39056,-0.30721 -1.17169,-0.71837 -1.73584,-0.91368 -1.04901,-0.36318 -1.57204,-0.99632 -0.82304,-0.99632 1.08841,0 3.73831,1.50545 3.7417,2.12571 0.003,0.492 -0.36939,0.42414 -1.18282,-0.21571 z m -91.036154,-0.74602 c -0.259751,-0.4139 -0.91348,-1.36063 -1.452731,-2.10383 -0.539522,-0.74358 -0.943894,-1.60154 -0.899155,-1.90776 0.07756,-0.53085 2.177673,-2.36382 2.708339,-2.36382 0.606696,0 0.17139,0.8168 -0.713576,1.33894 -1.624929,0.95874 -1.612175,1.02567 0.837198,4.39305 0.372852,0.5126 0.677913,1.03717 0.677913,1.16572 0,0.50942 -0.712075,0.18825 -1.157988,-0.5223 z m -13.523839,0.0988 c -0.297567,-0.21063 -1.275378,-1.07413 -2.172914,-1.91889 -0.897536,-0.84477 -1.854107,-1.60647 -2.125714,-1.69267 -0.505606,-0.16048 -0.627266,-0.44348 -0.321913,-0.74883 0.278684,-0.27869 1.509748,0.51113 3.033369,1.94612 0.782336,0.73682 1.74284,1.54962 2.134454,1.80622 0.391614,0.25659 0.639093,0.58454 0.549955,0.72877 -0.220378,0.35658 -0.460199,0.33019 -1.097237,-0.12072 z m 126.738413,0.0134 c -0.32068,-0.23449 -0.39838,-0.4357 -0.21258,-0.55053 0.37424,-0.23129 1.71028,0.2679 1.71028,0.63902 0,0.40079 -0.9014,0.34754 -1.4977,-0.0885 z m 20.42341,0.15612 c 0,-0.1174 1.69715,-1.03509 3.77143,-2.03931 2.07429,-1.00422 4.28752,-2.14439 4.9183,-2.53372 0.75266,-0.46455 1.20992,-0.60582 1.33032,-0.41101 0.2767,0.44771 -0.45309,0.91038 -4.96517,3.14774 -3.87268,1.92031 -5.05488,2.34977 -5.05488,1.8363 z m -29.76,-2.57339 c -1.74381,-0.95868 -3.29032,-3.24745 -2.19428,-3.24745 0.22628,0 0.41143,0.17078 0.41143,0.37951 0,0.59455 2.12425,2.36334 2.83828,2.36334 0.35332,0 0.86581,-0.24685 1.13886,-0.54857 0.33416,-0.36924 0.84479,-0.54857 1.56201,-0.54857 0.58606,0 1.54944,-0.24686 2.14085,-0.54857 1.27869,-0.65234 2.19428,-0.70956 2.19428,-0.13714 0,0.23125 -0.24502,0.41143 -0.5595,0.41143 -0.30772,0 -1.04338,0.24685 -1.63478,0.54857 -0.59141,0.30171 -1.41964,0.54938 -1.84051,0.55038 -0.42086,9.9e-4 -1.13549,0.24703 -1.58807,0.54676 -0.9203,0.60949 -1.65428,0.67797 -2.46857,0.23031 z M 83.451428,119.58002 c -0.574452,-0.2309 -0.88767,-1.08859 -0.39754,-1.08859 0.517117,0 1.696295,0.71418 1.698257,1.02857 0.0025,0.39462 -0.419813,0.4141 -1.300717,0.06 z m 23.330552,-0.11925 c -0.96724,-0.42066 -2.30105,-2.10258 -3.10035,-3.90953 -0.28564,-0.64575 -0.57453,-1.1741 -0.64197,-1.1741 -0.0674,0 -0.66066,0.24415 -1.31828,0.54255 -1.44197,0.65431 -1.881381,0.68775 -1.881381,0.14317 0,-0.22629 0.130201,-0.41143 0.289331,-0.41143 0.15914,0 0.83926,-0.25052 1.5114,-0.55671 1.54346,-0.70313 2.14396,-0.43299 2.88609,1.29832 0.72674,1.69543 2.02162,3.27588 2.85541,3.48515 0.37749,0.0947 0.68634,0.35505 0.68634,0.57846 0,0.49304 -0.16121,0.49356 -1.28659,0.004 z M 66.597325,117.6419 c -1.059796,-1.0784 -1.910117,-1.68366 -2.642335,-1.88083 -1.073273,-0.289 -1.921963,-0.97124 -1.603884,-1.28932 0.09153,-0.0915 0.590631,0.0349 1.10911,0.28091 0.518479,0.24604 1.059802,0.44734 1.20294,0.44734 0.482033,0 2.474115,1.60007 3.236501,2.59961 1.262112,1.65472 0.373021,1.54705 -1.302332,-0.15771 z m 96.465535,-0.81636 c -0.90515,-0.44054 -1.8,-0.80136 -1.98858,-0.80183 -0.18857,-4.7e-4 -0.34285,-0.12428 -0.34285,-0.27514 0,-0.51266 1.31698,-0.27674 3.06108,0.54836 0.95641,0.45245 1.87598,0.82273 2.0435,0.82285 0.16752,1.2e-4 0.74377,-0.29782 1.28055,-0.66209 0.91654,-0.62199 1.29487,-0.65436 1.29487,-0.1108 0,0.46356 -1.80573,1.31915 -2.74286,1.29963 -0.528,-0.011 -1.70057,-0.38045 -2.60571,-0.82098 z m -83.121042,-0.65307 c -0.370286,-0.37029 -0.673247,-0.80229 -0.673247,-0.96 0,-0.48124 0.570529,-0.32041 1.075471,0.30316 0.654039,0.80771 1.784534,0.50957 2.371453,-0.62541 0.535438,-1.03542 1.108055,-0.71219 0.689338,0.38912 -0.274755,0.72266 -1.541774,1.56637 -2.352251,1.56637 -0.240635,0 -0.740479,-0.30296 -1.110764,-0.67324 z m -29.34064,-2.38468 c -0.683833,-0.60041 -0.896287,-0.95097 -0.697067,-1.15019 0.19922,-0.19922 0.529978,-0.0533 1.085228,0.47862 1.16782,1.11884 2.354723,1.06618 4.244099,-0.18829 1.004479,-0.66694 1.582354,-0.90444 1.70759,-0.7018 0.416583,0.67404 -2.657808,2.4253 -4.2577,2.4253 -0.84099,0 -1.329124,-0.20247 -2.08215,-0.86364 z m 84.148292,1.9746 c 1.13831,-0.89755 2.14977,-1.76155 2.2477,-1.92 0.0979,-0.15846 0.51021,-0.29871 0.91616,-0.31168 l 0.7381,-0.0236 -0.82286,-0.26586 c -0.45257,-0.14622 -1.74137,-0.1969 -2.864,-0.11262 -1.61211,0.12103 -2.43647,0.35782 -3.92192,1.12654 -1.19027,0.61597 -2.07727,0.91094 -2.416,0.80343 -0.89897,-0.28532 -0.59773,0.29774 0.573,1.10905 0.9328,0.64644 1.52748,0.86103 3.31169,1.19507 0.0927,0.0173 1.09982,-0.70281 2.23813,-1.60035 z m 22.79414,-0.97749 c 0.5464,-0.2283 1.14776,-0.66756 1.33635,-0.97614 0.18859,-0.30858 1.0626,-0.94659 1.94224,-1.41781 l 1.59934,-0.85676 -0.9018,-0.46634 c -1.3057,-0.67521 -2.74521,-0.11376 -4.35403,1.69818 -1.09404,1.23218 -1.39011,1.40891 -2.60571,1.55545 l -1.37143,0.16533 1.37143,0.33026 c 1.83914,0.4429 1.84681,0.44282 2.98361,-0.0322 z"
       id="path1" />
  </g>
</svg>
