<?xml version="1.0" encoding="UTF-8" standalone="no"?>
<!-- Created with Inkscape (http://www.inkscape.org/) -->

<svg
   version="1.1"
   id="svg1"
   width="294.58286"
   height="294.58286"
   viewBox="0 0 294.58286 294.58286"
   sodipodi:docname="1c-large-outline-a.svg"
   inkscape:version="1.4 (86a8ad7, 2024-10-11)"
   xmlns:inkscape="http://www.inkscape.org/namespaces/inkscape"
   xmlns:sodipodi="http://sodipodi.sourceforge.net/DTD/sodipodi-0.dtd"
   xmlns="http://www.w3.org/2000/svg"
   xmlns:svg="http://www.w3.org/2000/svg">
  <defs
     id="defs1" />
  <sodipodi:namedview
     id="namedview1"
     pagecolor="#ffffff"
     bordercolor="#000000"
     borderopacity="0.25"
     inkscape:showpageshadow="2"
     inkscape:pageopacity="0.0"
     inkscape:pagecheckerboard="0"
     inkscape:deskcolor="#d1d1d1"
     inkscape:zoom="2.766624"
     inkscape:cx="147.47215"
     inkscape:cy="147.29143"
     inkscape:window-width="1920"
     inkscape:window-height="1017"
     inkscape:window-x="-8"
     inkscape:window-y="-8"
     inkscape:window-maximized="1"
     inkscape:current-layer="g1" />
  <g
     inkscape:groupmode="layer"
     inkscape:label="Image"
     id="g1">
    <path
       style="fill:#000000"
       d="m 206.51428,152.12197 c -0.0629,-0.0586 -1.97143,-0.24692 -4.24127,-0.41842 -4.47835,-0.33836 -6.89811,-0.83409 -11.41989,-2.33956 -2.53565,-0.84422 -3.28094,-0.97542 -5.54078,-0.97542 -1.43608,0 -3.26513,-0.13382 -4.06455,-0.29739 -1.90481,-0.38972 -6.12511,-2.42669 -7.62631,-3.6809 -0.65325,-0.54578 -1.51675,-1.16247 -1.9189,-1.37042 -1.12664,-0.58261 -4.07434,-1.19322 -7.18801,-1.48899 -3.02091,-0.28696 -4.52644,-0.71219 -6.51218,-1.83934 -1.16012,-0.65852 -1.5188,-0.71243 -5.08811,-0.76474 -2.47749,-0.0363 -4.42393,-0.21167 -5.48571,-0.49421 -4.97698,-1.32436 -8.99968,-1.20488 -12.97085,0.38525 -1.90588,0.76315 -2.29801,0.82502 -4.59289,0.72465 -2.37151,-0.10372 -2.61308,-0.17256 -4.40538,-1.25549 -2.64147,-1.596 -3.40692,-1.81654 -5.59792,-1.61291 -1.25184,0.11634 -2.61687,0.0278 -4.15442,-0.26937 -3.02805,-0.58531 -3.33426,-0.56314 -6.30378,0.45645 -2.27045,0.77956 -2.77993,0.85848 -4.75041,0.73576 -1.21396,-0.0756 -3.34675,-0.47397 -4.739522,-0.88528 -1.585724,-0.46828 -2.79882,-0.68093 -3.245267,-0.56888 -0.392123,0.0984 -1.561981,0.97634 -2.599684,1.95095 -1.633114,1.53381 -2.026456,1.77231 -2.926162,1.77431 -2.103014,0.005 -4.918238,-0.88687 -8.719428,-2.76128 l -3.84,-1.89355 -3.154286,-0.11679 c -1.734857,-0.0642 -4.134449,0.002 -5.332427,0.1471 -1.821795,0.22072 -2.389082,0.41874 -3.46751,1.21037 -0.709153,0.52057 -2.012418,1.28406 -2.896145,1.69666 -1.497718,0.69925 -1.941875,0.76265 -6.543918,0.93406 -2.715428,0.10114 -6.294857,0.27244 -7.954286,0.38066 -2.568053,0.16748 -3.466232,0.10536 -6.034285,-0.41738 -1.820665,-0.3706 -4.516439,-0.67059 -6.797897,-0.75647 -3.343307,-0.12585 -3.812879,-0.20234 -4.058399,-0.6611 -0.152704,-0.28533 -0.222831,-0.6088 -0.155836,-0.71883 0.231009,-0.37939 0.563865,-13.92628 0.463193,-18.85147 -0.0555,-2.71543 -0.111556,-5.67147 -0.12456,-6.56899 l -0.02364,-1.63184 1.645714,-0.34101 c 0.905143,-0.18756 2.344869,-0.58467 3.199392,-0.88246 0.854523,-0.29779 2.582523,-0.75083 3.84,-1.00676 1.257477,-0.25593 3.019407,-0.84632 3.9154,-1.31196 2.903954,-1.50918 6.006748,-1.19736 8.510876,0.85533 0.753218,0.61743 0.948499,0.65141 2.605715,0.45333 0.985311,-0.11777 2.717188,-0.22448 3.848617,-0.23713 1.816526,-0.0203 2.265677,0.0839 3.84,0.89093 2.467967,1.26514 3.995583,1.38283 6.583163,0.50714 1.13126,-0.38283 3.014463,-0.90327 4.184895,-1.15652 2.007847,-0.43444 2.284315,-0.43301 4.894258,0.0254 2.644453,0.46451 2.9019,0.46462 5.849424,0.002 1.844833,-0.28933 4.946764,-0.50787 7.722885,-0.54411 3.769067,-0.0492 5.0514,-0.17225 6.833946,-0.6558 3.362868,-0.91224 4.938118,-0.81469 7.921678,0.49055 2.66533,1.16602 3.46369,1.29304 6.07624,0.96673 1.31274,-0.16396 2.09716,-0.0854 3.79243,0.37966 1.84896,0.50726 2.29181,0.54157 3.28207,0.25432 0.67528,-0.19589 3.16942,-0.35029 6.08187,-0.37651 4.36196,-0.0393 6.73869,-0.16346 10.69714,-0.55893 0.60343,-0.0603 3.00627,-0.19269 5.33964,-0.29424 4.07691,-0.17742 4.32273,-0.22169 6.29819,-1.13441 1.91187,-0.88334 2.19073,-0.93851 3.98607,-0.78856 1.68384,0.14063 4.7772,1.06341 7.96467,2.37593 1.14418,0.47115 4.68442,0.39342 6.17143,-0.13549 1.97843,-0.7037 6.84113,-1.82045 8.77714,-2.01572 2.48137,-0.25027 5.92066,0.0921 7.69453,0.76598 0.82173,0.31216 2.72833,1.18877 4.2369,1.948 2.07236,1.04298 3.3322,1.48111 5.15372,1.79231 1.65797,0.28326 2.94282,0.70303 4.11428,1.34417 3.182,1.74149 3.98191,1.89709 7.7311,1.50384 3.90016,-0.40907 3.67595,-0.48434 7.88227,2.64611 3.3346,2.48168 3.70567,2.67971 6.34846,3.38793 3.55707,0.95322 5.92037,0.6069 7.44446,-1.09093 0.30171,-0.33611 1.22743,-1.09458 2.05714,-1.68549 0.82971,-0.59091 2.17463,-1.56121 2.9887,-2.15624 2.55222,-1.86548 4.02077,-2.26177 7.84559,-2.11718 3.28309,0.12412 3.29872,0.12793 6.17142,1.5027 1.584,0.75804 3.744,1.58705 4.8,1.84225 2.74092,0.66237 3.50559,1.33149 3.9801,3.48279 0.61493,2.7879 0.49221,5.00992 -0.39729,7.19334 -0.67809,1.66447 -0.73241,2.00728 -0.46141,2.91182 0.58452,1.95093 0.38182,3.5318 -0.76918,5.99891 -0.95884,2.05524 -1.21323,2.376 -2.44017,3.07673 -0.75336,0.43026 -2.15262,1.65687 -3.10946,2.72579 -3.97122,4.43637 -8.68753,5.69 -18.20294,4.83848 -4.76341,-0.42627 -7.76299,-0.30047 -10.00536,0.41962 -2.1252,0.68246 -4.51683,1.9335 -6.39003,3.34257 -2.54924,1.9176 -4.44211,2.91379 -5.53654,2.91379 -0.48038,0 -0.92486,-0.048 -0.98772,-0.1066 z m 2.30375,-1.57491 c 0.32951,-0.17054 1.77168,-1.14722 3.20483,-2.1704 5.59223,-3.99251 10.09234,-5.01321 18.24,-4.13716 8.2288,0.88478 12.29296,-0.23048 16.45714,-4.51606 1.20686,-1.24204 2.69759,-2.56577 3.31275,-2.9416 0.86046,-0.52572 1.32412,-1.11391 2.01004,-2.54987 0.92095,-1.92799 1.00683,-3.09527 0.42735,-5.80831 -0.14744,-0.69033 -0.0112,-1.30191 0.58048,-2.60571 0.81339,-1.79233 0.95835,-3.61862 0.52378,-6.59865 -0.17552,-1.20366 -0.28823,-1.36727 -1.19269,-1.73142 -0.54937,-0.22119 -1.38779,-0.57959 -1.86316,-0.79645 -0.47537,-0.21686 -1.04942,-0.39429 -1.27566,-0.39429 -0.22624,0 -1.87387,-0.66588 -3.6614,-1.47973 l -3.25006,-1.47972 -2.96774,-0.0402 c -3.79795,-0.0514 -4.61101,0.30249 -9.62318,4.18874 -2.04718,1.58731 -3.98688,2.97003 -4.31043,3.07272 -0.4643,0.14737 -0.50838,0.23875 -0.20918,0.43363 0.29602,0.1928 0.12985,0.48315 -0.75832,1.32495 -2.03223,1.92615 -5.80745,2.67308 -8.43867,1.66962 -1.17967,-0.44989 -0.52946,-1.01498 0.68195,-0.59268 2.07682,0.72399 5.81063,-0.1109 7.25954,-1.62324 l 0.77723,-0.81125 h -1.66205 c -1.03396,0 -2.66754,-0.29893 -4.32273,-0.79103 -2.68721,-0.79892 -4.23802,-1.67356 -7.22054,-4.0723 -2.56097,-2.0597 -2.7139,-2.10069 -6.58837,-1.76586 -3.85783,0.3334 -4.62118,0.18474 -7.64854,-1.48949 -1.12717,-0.62337 -2.59543,-1.11809 -4.38857,-1.47871 -1.79978,-0.36196 -3.5145,-0.94069 -5.16326,-1.74263 -4.42528,-2.15242 -5.12985,-2.40522 -7.43297,-2.66692 -2.56083,-0.29098 -5.08359,-0.0292 -8.33846,0.86521 -1.13143,0.31092 -2.96775,0.81765 -4.08071,1.12607 -3.08311,0.8544 -5.63252,0.62013 -9.63357,-0.88525 -4.4104,-1.65939 -5.8357,-1.73005 -8.71092,-0.43185 -2.11084,0.95307 -2.3136,0.99054 -5.44932,1.00716 -1.7913,0.009 -4.30605,0.13731 -5.58834,0.28404 -3.49358,0.39976 -4.98741,0.47689 -9.05142,0.46737 -2.03658,-0.005 -4.07315,-0.007 -4.52572,-0.006 -0.45257,0.002 -1.85353,0.19297 -3.11324,0.42543 -2.18341,0.40293 -2.37428,0.39676 -4.08649,-0.13209 -1.5197,-0.46938 -2.22248,-0.52747 -4.56676,-0.37742 -2.95259,0.18899 -3.96317,-0.0301 -6.6683,-1.44578 -1.50618,-0.78822 -3.69277,-0.79213 -6.549904,-0.0117 -1.816639,0.49621 -3.0397,0.60413 -7.518161,0.66338 -3.931295,0.052 -5.711975,0.18492 -6.72,0.50155 -1.744849,0.54809 -3.333025,0.54797 -6.2097,-4.5e-4 -2.75333,-0.5249 -3.715193,-0.41838 -8.003317,0.88635 -3.893635,1.1847 -4.990202,1.14633 -7.952698,-0.27825 -2.35914,-1.13444 -3.3998,-1.2926 -5.399999,-0.82068 -2.088644,0.49279 -3.549885,0.45923 -4.569895,-0.10495 -3.370336,-1.86419 -3.680799,-1.98815 -4.979651,-1.98815 -1.009641,0 -1.796122,0.24247 -3.195876,0.98529 -1.17057,0.62119 -2.499005,1.07625 -3.594928,1.23145 -0.956045,0.13539 -2.898198,0.61773 -4.315896,1.07186 -1.417699,0.45413 -2.840016,0.82569 -3.160705,0.82569 -0.574543,0 -0.580146,0.0511 -0.38306,3.49714 0.23332,4.07953 0.224193,5.41744 -0.103594,15.18624 L 33.6,136.79534 l 3.291428,0.15444 c 1.810286,0.0849 4.587429,0.42535 6.171429,0.75646 2.443136,0.5107 3.337667,0.5725 5.897143,0.40741 1.659428,-0.10703 5.300571,-0.27902 8.091428,-0.38219 4.984877,-0.18427 5.103283,-0.2027 6.72,-1.04581 0.905143,-0.47203 2.107125,-1.22648 2.671072,-1.67656 1.258117,-1.00409 3.452384,-1.29454 8.955135,-1.18537 l 3.671921,0.0728 3.322364,1.73555 c 3.243617,1.69441 6.719026,2.88216 8.43333,2.88216 0.663896,0 1.24069,-0.36227 2.597338,-1.63135 1.600327,-1.49703 2.982218,-2.2169 4.223126,-2.19997 0.226285,0.003 1.337142,0.3207 2.468576,0.7058 1.26386,0.43018 2.96571,0.75844 4.41328,0.85126 2.20784,0.14156 2.54239,0.0868 5.31532,-0.87071 l 2.95918,-1.02178 1.67896,0.49047 c 1.13025,0.33017 2.70985,0.50256 4.83325,0.52749 3.70522,0.0435 4.33521,0.18844 6.20698,1.428 2.86972,1.90044 5.32634,2.06499 9.01588,0.60393 3.6244,-1.43527 7.72457,-1.6111 12.20572,-0.52342 3.83948,0.93193 6.01414,1.15208 7.8305,0.7927 l 1.65907,-0.32825 2.59236,1.28542 c 2.30169,1.1413 2.89989,1.31559 5.33521,1.55449 5.77625,0.56665 8.31805,1.34419 10.34745,3.16528 1.20417,1.08058 4.14937,2.61378 6.1784,3.21634 0.85769,0.25471 2.66509,0.44692 4.47307,0.47569 2.7743,0.0442 3.34855,0.15135 6.71228,1.25293 3.7792,1.23765 6.98664,1.85031 11.78594,2.25129 4.11086,0.34346 4.51006,0.34402 5.16089,0.007 z m -32.89249,-7.91132 c -1.38796,-1.19685 -6.19582,-3.84717 -6.97901,-3.84717 -0.14345,0 -0.26082,-0.18514 -0.26082,-0.41143 0,-0.22628 0.10801,-0.41143 0.24002,-0.41143 0.5416,0 5.66383,2.54056 6.45222,3.20021 2.32824,1.94807 2.69222,2.33648 2.43269,2.59601 -0.17466,0.17466 -0.83186,-0.21797 -1.8851,-1.12619 z m 29.43391,0.91799 c -0.24181,-0.2418 0.46956,-1.84971 1.30008,-2.93858 0.75146,-0.98521 2.93345,-1.9746 6.14718,-2.78734 2.29494,-0.58038 3.2724,-0.46313 3.97066,0.47627 0.75933,1.02157 0.35463,1.30048 -0.58323,0.40196 l -0.76013,-0.72826 -2.19261,0.52369 c -3.35371,0.80101 -5.45159,1.80795 -6.23588,2.9931 -0.36545,0.55223 -0.75208,1.28015 -0.85919,1.6176 -0.19481,0.61381 -0.46373,0.76472 -0.78688,0.44156 z m -25.2652,-2.05569 c -1.79022,-1.9336 -2.00816,-2.27944 -1.59671,-2.53372 0.25231,-0.15594 3.90246,3.76453 3.90246,4.19147 0,0.62921 -0.5634,0.22414 -2.30575,-1.65775 z m 52.22575,0.083 c -2.06963,-0.86998 -2.66037,-0.99272 -5.26077,-1.09308 -2.32252,-0.0896 -3.11426,-0.0208 -3.82205,0.33228 -1.16315,0.58026 -1.68714,0.12839 -0.64383,-0.55522 1.06861,-0.70017 5.20547,-0.85984 7.44078,-0.28718 1.94934,0.4994 5.5773,2.06912 5.5773,2.41315 0,0.41694 -0.89902,0.19571 -3.29143,-0.80995 z m -48.75757,-0.70159 c -0.45119,-0.99025 -1.96784,-2.61636 -2.88038,-3.08825 -0.54244,-0.28051 -0.72223,-0.51219 -0.53937,-0.69505 0.35648,-0.35648 1.60265,0.28547 2.57221,1.32506 0.75291,0.80728 1.87658,2.54478 1.87837,2.90448 0.002,0.48109 -0.75836,0.15176 -1.03083,-0.44624 z m 37.78614,-4.37182 c 0,-1.05906 4.33294,-2.29341 7.05275,-2.00917 0.87299,0.0912 2.33597,0.24302 3.25108,0.3373 1.3218,0.13619 2.20336,0.0244 4.28847,-0.54361 1.44355,-0.39326 2.82397,-0.71503 3.0676,-0.71503 0.52073,0 0.59818,0.51853 0.1001,0.67018 -4.19152,1.27621 -5.83024,1.57483 -7.56793,1.37911 -1.0045,-0.11314 -3.00978,-0.21641 -4.45619,-0.2295 -2.35392,-0.0213 -2.78105,0.0547 -4.07103,0.72392 -1.66502,0.86385 -1.66485,0.86381 -1.66485,0.3868 z m 21.73714,-0.1962 c -1.19222,-0.47921 -0.59264,-0.68458 1.98788,-0.68089 1.76853,0.003 2.60524,0.1044 2.60571,0.31724 3.9e-4,0.17243 -0.19454,0.38843 -0.43316,0.48 -0.6444,0.24727 -3.45105,0.16879 -4.16043,-0.11635 z m -89.01625,-0.43627 c -0.48822,-0.48822 -0.0801,-0.67344 1.31655,-0.59744 0.83145,0.0452 1.54116,0.20569 1.57714,0.35654 0.075,0.31435 -2.59774,0.53684 -2.89369,0.2409 z m 27.78197,-0.67722 c -1.42939,-0.85082 -2.12571,-1.8951 -1.26363,-1.8951 0.21014,0 0.44705,0.16931 0.52646,0.37626 0.0794,0.20694 0.70976,0.64995 1.40078,0.98446 0.69101,0.33452 1.25639,0.72063 1.25639,0.85803 0,0.42774 -0.91747,0.27309 -1.92,-0.32365 z m 23.17714,0.4394 c -0.15086,-0.0534 -0.86057,-0.17606 -1.57714,-0.27259 -0.86002,-0.11587 -1.30286,-0.30788 -1.30286,-0.5649 0,-0.30641 0.27761,-0.35181 1.30286,-0.21305 1.83848,0.24881 2.52369,0.45686 2.54641,0.77318 0.0208,0.2896 -0.50752,0.44078 -0.96927,0.27736 z m -88.33306,-1.34866 c -0.92562,-0.40318 -3.14123,-2.7702 -3.14123,-3.35589 0,-0.55083 0.76044,-0.45302 0.9427,0.12125 0.30186,0.95107 2.21519,2.5359 3.26775,2.70671 1.4008,0.22731 2.09813,-0.42626 2.09813,-1.96649 0,-1.29411 -0.40865,-1.79746 -1.99861,-2.46179 -1.0349,-0.4324 -1.36443,-0.96678 -0.59618,-0.96678 0.69371,0 2.52713,1.04497 2.98809,1.70308 0.23625,0.3373 0.42955,1.15073 0.42955,1.80762 0,0.95437 -0.1611,1.35546 -0.80175,1.99612 -0.88738,0.88737 -1.82555,1.00983 -3.18845,0.41617 z m 101.97079,-1.03046 c 0.10335,-0.31005 1.3655,-0.72056 5.78386,-1.88119 1.17787,-0.3094 3.38025,-0.62318 4.89416,-0.69728 1.99207,-0.0975 3.04561,-0.28423 3.8132,-0.67582 1.09292,-0.55757 3.27676,-0.74367 3.27676,-0.27924 0,0.14402 -0.46285,0.3349 -1.02857,0.42418 -0.56571,0.0893 -1.39885,0.33324 -1.85143,0.54216 -1.24594,0.57516 -1.70173,0.65829 -4.52571,0.82542 -1.66713,0.0987 -3.90289,0.49756 -6.20698,1.10744 -3.96091,1.04843 -4.31115,1.10189 -4.15529,0.63433 z m -84.91498,-0.69549 C 133.39178,132.2032 132.48,129.955 132.48,129.42799 c 0,-0.64856 0.51696,-0.673 0.71291,-0.0337 0.0809,0.264 0.39261,1.02227 0.69265,1.68504 0.31092,0.68682 0.4425,1.30804 0.30598,1.44457 -0.13175,0.13175 -0.32984,0.14923 -0.44022,0.0389 z m 51.12058,-0.76492 c -0.50984,-0.5427 -0.67901,-1.11749 -0.82743,-2.81143 -0.10262,-1.17109 -0.13039,-2.23258 -0.0617,-2.35887 0.29142,-0.53588 0.65,0.41412 0.84494,2.2385 0.15393,1.44066 0.36789,2.12617 0.81071,2.59753 0.33087,0.3522 0.60159,0.72498 0.60159,0.8284 0,0.42217 -0.76781,0.14485 -1.3681,-0.49413 z m -93.957978,-0.98262 c -0.214087,-0.3464 -0.293914,-0.2689 1.246077,-1.20984 1.408119,-0.86036 1.809291,-1.28996 3.310416,-3.54504 0.946975,-1.4226 1.078156,-1.81473 1.078156,-3.22286 0,-1.2422 0.09264,-1.60319 0.411428,-1.60319 0.318576,0 0.411429,0.36019 0.411429,1.596 0,1.35955 -0.152381,1.84754 -1.028571,3.29391 -0.565715,0.93386 -1.483567,2.15966 -2.039672,2.72401 -1.265829,1.28459 -3.139105,2.37177 -3.389263,1.96701 z m 112.969888,-0.26738 c -1.7473,-0.3455 -2.66442,-0.93264 -3.92,-2.50957 -1.56201,-1.96181 -0.87788,-2.07308 0.91441,-0.14872 1.19527,1.28335 1.62665,1.55725 2.86099,1.81655 1.81897,0.38211 3.07222,0.39119 3.07222,0.0222 0,-0.1557 -0.18433,-0.72424 -0.40961,-1.26342 -0.4473,-1.07055 -0.31187,-1.68129 0.26641,-1.20136 0.57778,0.47951 1.04981,2.72789 0.66903,3.1867 -0.34677,0.41784 -1.64786,0.4546 -3.45345,0.0976 z m -15.23631,-0.87926 c -0.3232,-0.50059 -1.31036,-3.06866 -1.31036,-3.40886 0,-0.0486 0.18514,-0.0883 0.41143,-0.0883 0.22629,0 0.41153,0.15428 0.41165,0.34285 1.1e-4,0.18858 0.36516,1.11429 0.81121,2.05715 0.57459,1.21458 0.70365,1.71428 0.44275,1.71428 -0.20253,0 -0.54753,-0.27771 -0.76668,-0.61714 z m 29.72788,0.34815 c 0.0646,-0.19375 0.60774,-0.55191 1.20703,-0.79592 2.63861,-1.07437 5.61,-2.85652 7.33356,-4.39845 1.38996,-1.2435 2.07064,-1.66807 2.67428,-1.66807 0.99832,0 1.06499,0.47406 0.10072,0.71608 -0.38997,0.0979 -1.46997,0.84435 -2.4,1.65883 -2.6562,2.32618 -9.31181,5.67618 -8.91559,4.48753 z m -51.88395,-1.10244 c 0,-0.15085 0.16205,-0.27428 0.36011,-0.27428 1.02563,0 3.1244,-3.51529 2.6396,-4.42114 -0.32594,-0.60903 -2.01317,-1.16513 -2.87714,-0.94829 -0.47443,0.11908 -0.67114,0.055 -0.67114,-0.21847 0,-0.8775 2.2543,-0.73502 3.73651,0.23616 1.1563,0.75763 0.57071,3.24337 -1.21229,5.14602 -0.6822,0.72798 -1.97565,1.04223 -1.97565,0.48 z m -92.87665,-1.07564 c -0.97409,-1.64901 -2.783102,-1.86867 -2.437687,-0.29601 0.230308,1.04858 -0.537838,1.17513 -0.799711,0.13174 -0.3836,-1.52838 1.074777,-2.48716 2.501357,-1.64446 0.665364,0.39304 2.001261,2.04123 2.001261,2.4691 0,0.46627 -0.867009,0.0137 -1.26522,-0.66037 z m 27.87093,0.25279 c 0,-0.15086 0.10605,-0.27429 0.23567,-0.27429 0.6382,0 2.92125,-2.44207 3.49417,-3.73756 0.66041,-1.49329 1.05819,-1.93705 1.33495,-1.48924 0.31469,0.50917 -1.46432,3.50387 -2.7579,4.64253 -1.21038,1.06542 -2.30689,1.47351 -2.30689,0.85856 z m 42.73971,-0.0188 c -0.96411,-0.25919 -2.69399,-1.58895 -2.69399,-2.07088 0,-0.54592 0.17783,-0.48224 1.40317,0.50248 0.96584,0.77616 1.30708,0.88472 2.85926,0.90962 1.57897,0.0253 2.34653,0.21698 2.02328,0.50522 -0.25237,0.22503 -2.90413,0.3384 -3.59172,0.15356 z m 105.09849,-1.12404 c -0.002,-0.78943 -0.79348,-2.02395 -1.82624,-2.84932 -0.91051,-0.72767 -0.67861,-1.20483 0.32461,-0.66793 1.53835,0.8233 2.847,3.68443 1.84629,4.0366 -0.21053,0.0741 -0.34355,-0.12636 -0.34466,-0.51935 z m -131.56789,-1.73933 c -0.92467,-0.3888 -1.64142,-1.36119 -1.20304,-1.63212 0.14152,-0.0875 0.56824,0.1519 0.94827,0.53192 0.38003,0.38003 0.88171,0.69096 1.11485,0.69096 0.43984,0 0.58004,0.4197 0.21547,0.64501 -0.11464,0.0709 -0.59864,-0.0352 -1.07555,-0.23577 z m 7.86698,-0.42439 c -1.76083,-0.75019 -2.99672,-2.93268 -2.5833,-4.56193 0.24616,-0.97009 1.00899,-1.75137 1.36369,-1.39667 0.0981,0.0981 -0.0195,0.46058 -0.26113,0.80561 -0.65476,0.9348 -0.53563,1.93585 0.38093,3.20113 0.95463,1.31783 1.61,1.54065 3.97348,1.35093 1.59704,-0.1282 2.67842,0.0924 2.30133,0.46951 -0.3135,0.3135 -4.49818,0.41977 -5.175,0.13142 z m 65.96557,0.0217 c -0.97298,-0.41317 -2.43256,-1.81532 -2.23032,-2.14255 0.13019,-0.21065 0.6017,-0.002 1.43871,0.63703 1.40861,1.07522 1.54982,1.11259 2.02782,0.53663 0.32657,-0.39349 0.29845,-0.88318 -0.16919,-2.94625 -0.10928,-0.48214 -0.058,-0.75429 0.14208,-0.75429 0.37135,0 0.78121,0.99404 1.01646,2.4652 0.14404,0.90076 0.0629,1.16839 -0.53544,1.76676 -0.76234,0.76234 -0.86345,0.78851 -1.69012,0.43747 z m -39.51329,-1.7807 c -0.56532,-0.42759 -0.42733,-0.50701 0.74852,-0.43085 0.97444,0.0631 2.18894,-0.59324 3.09903,-1.67482 0.75511,-0.8974 0.82696,-1.77812 0.28203,-3.45734 -0.30619,-0.94353 0.32608,-0.7566 0.84679,0.25035 0.96428,1.8647 -0.10261,4.08926 -2.49165,5.19535 -1.3354,0.61827 -1.79377,0.63991 -2.48472,0.11731 z m 22.50758,-1.01294 c -3.79083,-2.13862 -4.84464,-2.63626 -6.03429,-2.84954 -0.60343,-0.10819 -1.44394,-0.37234 -1.86781,-0.58699 -1.07895,-0.54641 -2.93219,-2.26718 -2.93219,-2.7226 0,-0.59139 0.55328,-0.4475 1.1381,0.29597 0.88865,1.12974 2.05288,1.8002 4.12126,2.37338 1.96678,0.54502 8.72921,4.15187 8.72921,4.65586 0,0.47725 -0.70023,0.21839 -3.15428,-1.16608 z m -86.208003,0.26364 c -0.546819,-0.54682 -0.371828,-0.83818 0.388755,-0.64729 0.958809,0.24065 2.440114,-0.75238 3.14642,-2.10928 0.523653,-1.006 1.084212,-1.36817 1.061328,-0.68572 -0.0248,0.73969 -1.001462,2.13691 -2.045646,2.92652 -1.166222,0.88189 -2.013435,1.05319 -2.550857,0.51577 z m -27.483429,-1.44939 c 0,-0.2239 0.339429,-0.77539 0.754286,-1.22551 1.000508,-1.08558 4.190531,-2.858 4.531027,-2.5175 0.269381,0.26938 0.04791,0.43899 -2.337336,1.78996 -0.716898,0.40604 -1.573253,1.10319 -1.90301,1.54921 -0.655725,0.88691 -1.044967,1.03734 -1.044967,0.40384 z m 182.536082,-2.2764 c -0.5845,-0.31163 -1.51832,-0.43232 -3.23396,-0.41797 -1.68214,0.0141 -2.38107,-0.0739 -2.30942,-0.29061 0.17322,-0.52393 4.25576,-0.54321 5.60877,-0.0265 1.1111,0.42434 1.42205,0.76184 0.96318,1.04543 -0.11373,0.0703 -0.57659,-0.0694 -1.02857,-0.31035 z m -81.43907,-3.97298 c -0.66755,-1.13908 -2.10894,-2.15932 -5.23416,-3.7048 -2.09939,-1.03819 -6.05619,-1.5018 -7.649,-0.89621 -0.37974,0.14437 -0.89199,0.65227 -1.13834,1.12866 -0.29861,0.57743 -0.53934,0.77472 -0.72219,0.59187 -0.35511,-0.35511 0.40313,-1.86091 1.13402,-2.25207 1.92772,-1.03169 6.85548,-0.39337 9.86528,1.2779 2.88433,1.6016 3.55858,2.13425 4.41901,3.49101 0.93309,1.47133 0.95,1.53441 0.41136,1.53441 -0.21993,0 -0.70862,-0.52684 -1.08598,-1.17077 z m -47.71316,0.48043 c -1.5026,-0.51657 -3.93772,-2.20791 -4.15232,-2.88404 -0.2935,-0.92474 0.0613,-0.95593 0.88611,-0.0779 0.87894,0.93569 2.88574,2.15836 3.98781,2.42962 0.41628,0.10246 0.81671,0.28311 0.88985,0.40145 0.25657,0.41514 -0.5856,0.48354 -1.61145,0.13087 z m 7.439,-0.0473 c -0.264,-0.069 -0.48,-0.283 -0.48,-0.47556 0,-0.2642 0.49863,-0.31813 2.03174,-0.21974 2.35233,0.15097 3.85031,-0.25882 6.19684,-1.6952 1.60962,-0.9853 3.44491,-1.43392 4.1066,-1.00381 0.47706,0.3101 0.22555,0.43084 -1.36375,0.65467 -0.528,0.0744 -1.70057,0.58298 -2.60571,1.13025 -0.90514,0.54728 -2.2544,1.17582 -2.99836,1.39676 -1.27548,0.37879 -3.82679,0.48978 -4.88736,0.21263 z m -46.095174,-0.5515 c -0.948812,-0.24595 -0.30299,-0.77003 0.836089,-0.67848 1.103747,0.0887 2.813376,-0.54055 2.813376,-1.03552 0,-0.50313 1.438555,-1.934 1.944382,-1.934 0.288304,0 0.524189,0.12343 0.524189,0.27428 0,0.15086 -0.122654,0.27429 -0.272565,0.27429 -0.149911,0 -0.649393,0.52457 -1.109961,1.16571 -1.289107,1.79453 -2.835873,2.42615 -4.73551,1.93372 z m 17.01198,-0.0913 c -1.853377,-0.46517 -4.311087,-1.97493 -4.311087,-2.64827 0,-0.50768 0.238159,-0.45188 1.208396,0.28311 1.321479,1.00106 2.051132,1.32208 3.845539,1.69186 1.165222,0.24012 1.870225,0.25969 2.350911,0.0652 0.804438,-0.32541 8.229325,-0.44307 8.229395,-0.13041 1.1e-4,0.49444 -1.68871,0.78214 -4.251384,0.72423 -1.508571,-0.0341 -3.483428,0.0138 -4.388571,0.10633 -0.905143,0.0926 -2.112582,0.0511 -2.683199,-0.0921 z m 82.283084,-2.62813 c -0.57206,-0.24633 -1.00098,-0.56528 -0.95314,-0.70879 0.10307,-0.30922 0.29981,-0.29718 1.6231,0.0993 1.3951,0.41799 3.37181,0.0705 4.25498,-0.748 0.39655,-0.36751 0.98068,-0.66751 1.29808,-0.66667 1.4262,0.004 3.84106,1.07737 3.40476,1.51367 -0.10374,0.10374 -0.7554,-0.0278 -1.44812,-0.29239 l -1.25949,-0.481 -1.46804,0.74276 c -1.85595,0.93902 -4.02756,1.15456 -5.45213,0.54114 z"
       id="path1" />
  </g>
</svg>
