<?xml version="1.0" encoding="UTF-8" standalone="no"?>
<!-- Created with Inkscape (http://www.inkscape.org/) -->

<svg
   version="1.1"
   id="svg1"
   width="294.58286"
   height="294.58286"
   viewBox="0 0 294.58286 294.58286"
   sodipodi:docname="1c-medium-a.svg"
   inkscape:version="1.4 (86a8ad7, 2024-10-11)"
   xmlns:inkscape="http://www.inkscape.org/namespaces/inkscape"
   xmlns:sodipodi="http://sodipodi.sourceforge.net/DTD/sodipodi-0.dtd"
   xmlns:xlink="http://www.w3.org/1999/xlink"
   xmlns="http://www.w3.org/2000/svg"
   xmlns:svg="http://www.w3.org/2000/svg">
  <defs
     id="defs1">
    <linearGradient
       id="linearGradient1"
       inkscape:collect="always">
      <stop
         style="stop-color:#000000;stop-opacity:0;"
         offset="0.18777293"
         id="stop2" />
      <stop
         style="stop-color:#000000;stop-opacity:1;"
         offset="0.66812229"
         id="stop1" />
    </linearGradient>
    <linearGradient
       inkscape:collect="always"
       xlink:href="#linearGradient1"
       id="linearGradient2"
       x1="32.790816"
       y1="126.2358"
       x2="254.67092"
       y2="126.2358"
       gradientUnits="userSpaceOnUse" />
  </defs>
  <sodipodi:namedview
     id="namedview1"
     pagecolor="#ffffff"
     bordercolor="#000000"
     borderopacity="0.25"
     inkscape:showpageshadow="2"
     inkscape:pageopacity="0.0"
     inkscape:pagecheckerboard="0"
     inkscape:deskcolor="#d1d1d1"
     inkscape:zoom="2.766624"
     inkscape:cx="147.47215"
     inkscape:cy="147.29143"
     inkscape:window-width="1920"
     inkscape:window-height="1017"
     inkscape:window-x="-8"
     inkscape:window-y="-8"
     inkscape:window-maximized="1"
     inkscape:current-layer="g1" />
  <g
     inkscape:groupmode="layer"
     inkscape:label="Image"
     id="g1">
    <path
       style="fill:url(#linearGradient2)"
       d="m 205.85143,141.68683 c -1.35772,-0.34289 -3.04723,-0.93629 -3.75447,-1.31868 -1.46381,-0.79144 -5.42392,-1.4657 -6.85603,-1.16734 -0.50022,0.10422 -1.33765,0.43616 -1.86093,0.73763 -0.64656,0.3725 -1.23847,0.50157 -1.8472,0.40279 -0.49266,-0.0799 -1.2917,-0.0318 -1.77563,0.10698 -0.77984,0.22365 -1.24023,0.0704 -4.04995,-1.34818 -3.83266,-1.93505 -4.42459,-2.10086 -5.58061,-1.56325 -1.79388,0.83426 -3.14865,0.94819 -6.60449,0.55544 -1.83031,-0.20801 -4.31526,-0.69773 -5.52212,-1.08826 -1.96936,-0.63727 -2.36298,-0.68101 -3.84,-0.42678 -1.84708,0.31794 -4.06018,0.0601 -6.99429,-0.81496 -2.47447,-0.73796 -3.39081,-1.3763 -4.11085,-2.86371 -0.35499,-0.73331 -0.89381,-1.3849 -1.26049,-1.52431 -0.83393,-0.31706 -4.25148,0.33137 -6.34941,1.2047 -0.87016,0.36223 -2.27567,0.8572 -3.12336,1.09994 -0.8477,0.24273 -1.68482,0.61431 -1.86027,0.82571 -0.17545,0.21141 -0.90132,0.46721 -1.61303,0.56844 -1.67246,0.23788 -3.98177,1.08846 -5.00096,1.84197 -0.72811,0.53832 -0.90764,0.56239 -1.92377,0.25795 -1.1446,-0.34293 -1.41533,-0.55442 -2.89648,-2.2627 -1.15895,-1.33667 -2.02936,-1.50382 -3.99774,-0.76769 -1.38505,0.51797 -1.71234,0.55211 -2.43272,0.25372 -0.4578,-0.18963 -1.05875,-0.63258 -1.33544,-0.98434 -0.74216,-0.9435 -2.29848,-1.10236 -4.21173,-0.42991 -0.87018,0.30585 -1.63822,0.44075 -1.72352,0.30274 -0.0846,-0.13692 -0.82935,-0.44532 -1.65494,-0.68533 -1.2202,-0.35472 -1.76516,-0.37973 -2.91245,-0.13368 -1.04286,0.22365 -1.95431,0.21958 -3.49068,-0.0156 -1.8891,-0.28915 -2.29256,-0.2617 -4.41073,0.30011 -1.28228,0.34011 -3.609038,0.77473 -5.170563,0.96582 -2.026133,0.24795 -3.056564,0.50819 -3.598426,0.90881 -0.446436,0.33006 -1.706442,0.72645 -3.058006,0.96202 l -2.298717,0.40065 -1.645714,-0.89383 c -2.278726,-1.23764 -2.894238,-1.33146 -5.392277,-0.82196 l -2.181567,0.44496 -2.247364,-1.09996 c -1.23605,-0.60498 -2.987935,-1.22066 -3.893078,-1.36819 -0.905143,-0.14753 -2.199856,-0.47396 -2.87714,-0.72541 -1.807879,-0.67119 -3.312268,-0.38285 -3.964237,0.75982 -0.88572,1.55236 -2.159442,2.69011 -4.130051,3.68918 -2.334571,1.18359 -3.863054,1.26569 -6.442198,0.34602 -2.245005,-0.80052 -3.452439,-0.80702 -7.546374,-0.0406 -2.935382,0.54951 -3.484287,0.57943 -5.074285,0.2766 -2.718601,-0.51778 -7.580009,-0.45031 -8.883848,0.12329 -0.800447,0.35215 -1.159128,0.39258 -1.43698,0.16198 -0.203651,-0.16902 -0.284431,-0.4462 -0.179509,-0.61597 0.104921,-0.16976 0.213392,-0.92721 0.241047,-1.6832 0.02766,-0.756 0.149074,-2.9174 0.269819,-4.80312 0.237614,-3.71088 0.281256,-6.01758 0.150492,-7.95428 -0.08211,-1.21607 0.12109,-3.42735 0.3488,-3.7958 0.113988,-0.18443 -0.525123,-6.00421 -0.76707,-6.98497 -0.230761,-0.93543 0.88164,-0.97963 7.114059,-0.28272 5.563586,0.62213 6.363471,0.65022 10.482642,0.36803 2.4527,-0.16802 4.590815,-0.22431 4.751368,-0.12508 0.160554,0.0992 1.127357,-0.0363 2.148453,-0.30111 l 1.856538,-0.48152 1.894951,0.83975 c 1.042224,0.46187 3.005809,1.04065 4.363523,1.28619 2.206454,0.39902 2.687003,0.40408 4.525714,0.0477 1.131429,-0.21931 2.383968,-0.52468 2.78342,-0.67858 0.769594,-0.29653 2.189463,-0.011 4.622295,0.92964 0.717163,0.27728 2.03954,0.48686 3.156296,0.50024 1.825318,0.0219 2.029427,-0.0422 4.057233,-1.2733 l 2.135223,-1.29632 0.847156,0.48109 c 0.465936,0.26459 1.108752,0.63786 1.428481,0.82947 0.735641,0.44088 2.055646,0.22714 3.981381,-0.64467 2.352738,-1.06512 3.224634,-1.1031 5.254147,-0.22884 1.417704,0.6107 2.231276,0.77168 4.100086,0.81129 1.64517,0.0349 2.81584,0.2304 3.97714,0.66426 1.31086,0.48974 1.92476,0.57448 3.01714,0.41649 2.03498,-0.29431 2.69172,-0.22197 3.95307,0.43549 1.4097,0.73478 2.66074,0.59316 4.94463,-0.55975 1.54919,-0.78203 1.62233,-0.79212 3.03636,-0.41911 0.79691,0.21022 2.14061,0.80175 2.986,1.3145 0.8454,0.51275 1.74511,1.00595 1.99936,1.09599 0.8047,0.28498 4.156,-0.38921 5.32249,-1.07075 2.2639,-1.32272 3.54095,-1.36229 8.8251,-0.27341 l 4.73557,0.97583 4.453,-0.26392 c 6.58112,-0.39006 6.65344,-0.40511 7.3482,-1.52925 0.35002,-0.56634 1.13767,-1.23238 1.93553,-1.63668 l 1.34534,-0.68174 1.26698,0.57718 c 1.14835,0.52313 1.42422,0.54737 2.94625,0.2588 1.09717,-0.20802 2.34481,-0.2397 3.59926,-0.0914 l 1.92,0.227 0.6107,1.23428 c 0.33589,0.67886 0.8985,1.85143 1.25026,2.60572 1.23481,2.64788 5.07761,4.35844 9.82619,4.37398 2.99651,0.01 3.12257,-0.0516 4.48903,-2.18776 0.70539,-1.1027 1.20277,-1.53452 2.32214,-2.01606 1.29475,-0.55698 1.56542,-0.58353 2.97232,-0.29146 0.85132,0.17674 2.44483,0.6805 3.54114,1.11949 1.37547,0.55076 2.22895,0.74334 2.75361,0.62131 0.41818,-0.0973 1.56261,-0.95401 2.54319,-1.90389 2.32143,-2.24878 3.3532,-2.68843 5.08558,-2.16706 0.70474,0.21209 1.68667,0.63613 2.18206,0.9423 0.87917,0.54336 2.8796,2.74231 3.74397,4.11552 0.63712,1.01218 2.90804,1.7656 4.2254,1.40186 0.78307,-0.21621 1.85653,-0.15236 4.61734,0.27466 6.10202,0.9438 8.53653,0.33786 11.67758,-2.90651 0.97456,-1.00662 1.99315,-1.94861 2.26354,-2.09331 1.08828,-0.58243 6.33159,-1.55288 7.13902,-1.32131 1.07677,0.30881 2.96535,1.43329 3.61747,2.15387 0.29064,0.32116 1.37292,0.84042 2.40507,1.15393 1.6006,0.48617 2.10781,0.52872 3.44837,0.28932 0.86445,-0.15437 1.75688,-0.35098 1.98317,-0.4369 0.85663,-0.32527 1.13803,0.3076 1.52624,3.43253 0.41861,3.36967 0.35702,4.21711 -0.47826,6.58104 -0.48039,1.35954 -0.50539,1.72111 -0.21808,3.15429 0.43785,2.18414 0.41673,2.36474 -0.47006,4.01952 -0.84442,1.57571 -1.17617,1.79109 -5.0227,3.26089 -1.28229,0.48997 -2.92315,1.23711 -3.64636,1.6603 -0.72321,0.4232 -1.39231,0.76945 -1.48689,0.76945 -0.0946,0 -0.9223,0.35958 -1.83936,0.79906 -0.91706,0.43949 -2.36947,0.95114 -3.22757,1.137 -1.42935,0.30959 -1.72834,0.28283 -3.56571,-0.31907 -2.54231,-0.83284 -6.97723,-0.9194 -9.13697,-0.17835 -0.91916,0.31539 -3.40661,0.60958 -7.54285,0.89209 -3.39429,0.23183 -6.72686,0.53746 -7.40572,0.67916 -1.62804,0.33984 -1.66415,0.33676 -4.52571,-0.38592 z"
       id="path1" />
  </g>
</svg>
