<?xml version="1.0" encoding="UTF-8" standalone="no"?>
<!-- Created with Inkscape (http://www.inkscape.org/) -->

<svg
   version="1.1"
   id="svg1"
   width="294.58286"
   height="294.58286"
   viewBox="0 0 294.58286 294.58286"
   sodipodi:docname="one-hole-canine-marble.svg"
   inkscape:version="1.3.2 (091e20e, 2023-11-25, custom)"
   xmlns:inkscape="http://www.inkscape.org/namespaces/inkscape"
   xmlns:sodipodi="http://sodipodi.sourceforge.net/DTD/sodipodi-0.dtd"
   xmlns="http://www.w3.org/2000/svg"
   xmlns:svg="http://www.w3.org/2000/svg">
  <defs
     id="defs1" />
  <sodipodi:namedview
     id="namedview1"
     pagecolor="#ffffff"
     bordercolor="#000000"
     borderopacity="0.25"
     inkscape:showpageshadow="2"
     inkscape:pageopacity="0.0"
     inkscape:pagecheckerboard="0"
     inkscape:deskcolor="#d1d1d1"
     inkscape:zoom="2.1759583"
     inkscape:cx="147.29143"
     inkscape:cy="147.29143"
     inkscape:window-width="1600"
     inkscape:window-height="837"
     inkscape:window-x="-8"
     inkscape:window-y="-8"
     inkscape:window-maximized="1"
     inkscape:current-layer="g1" />
  <g
     inkscape:groupmode="layer"
     inkscape:label="Image"
     id="g1">
    <path
       style="fill:#000000"
       d="m 247.24179,249.22002 c -3.29387,-0.81586 -5.19247,-1.84383 -9.00985,-4.87829 l -3.16908,-2.51913 -0.0337,-3.58559 c -0.0574,-6.10667 0.0305,-18.50263 0.20338,-28.68273 0.10956,-6.45083 0.005,-15.70803 -0.3107,-27.42857 -0.97649,-36.28793 -0.0676,-63.01521 3.04063,-89.417139 0.6405,-5.440431 3.20996,-24.462946 3.58647,-26.55172 0.10892,-0.604246 1.10528,-2.041998 2.99149,-4.316716 1.5555,-1.87589 3.38478,-4.134043 4.06506,-5.018119 1.34567,-1.748801 6.29694,-5.685021 7.51955,-5.977978 0.40895,-0.09799 1.06407,-0.339379 1.45581,-0.536414 1.00955,-0.507776 1.9865,-0.209318 1.77276,0.541577 -1.46078,5.131946 -5.38915,31.2087 -7.13238,47.345084 -2.69671,24.962575 -3.50799,49.608315 -2.63641,80.091425 0.41845,14.63496 0.4712,22.88929 0.31375,49.09715 -0.0621,10.33371 -0.0168,19.62171 0.10053,20.64 0.11834,1.02671 0.10753,1.84336 -0.0243,1.83333 -0.13072,-0.01 -1.36058,-0.29623 -2.73302,-0.63617 z m 14.1207,-1.46263 c -0.55306,-1.41051 -3.20475,-12.27421 -4.17413,-17.10096 -1.15794,-5.76561 -3.02235,-16.74847 -3.58683,-21.12919 -1.22227,-9.48567 -1.31424,-29.01144 -0.18139,-38.5101 1.22161,-10.24288 5.82419,-35.52 6.46765,-35.52 0.53675,0 2.29052,2.03031 2.84313,3.29143 0.76988,1.75695 1.19445,4.39482 0.91182,5.66511 -0.12909,0.58019 -0.18648,1.61032 -0.12752,2.28918 0.12901,1.48561 0.12995,1.43547 -0.0849,4.52571 -0.26521,3.81501 -0.18262,4.8159 0.54523,6.60713 0.86162,2.12047 1.9215,7.59068 1.66014,8.56829 -0.1078,0.40323 -0.22542,3.8245 -0.26139,7.60282 -0.0473,4.96994 -0.16146,7.02351 -0.4128,7.42598 -0.81861,1.31079 0.80227,10.85845 2.01415,11.86422 0.2648,0.21976 0.41541,1.57853 0.54324,4.90067 0.2236,5.81162 0.70179,9.85464 2.26306,19.13375 1.26476,7.51685 2.62678,14.30286 3.83609,19.11256 0.36721,1.46048 0.66745,2.8182 0.6672,3.01714 -2.5e-4,0.19895 -1.08025,1.02704 -2.4,1.84019 -3.96513,2.44309 -4.51408,2.82928 -6.51383,4.58253 -1.056,0.92583 -2.32269,1.88882 -2.81487,2.13999 -0.89354,0.45598 -0.8953,0.45553 -1.19407,-0.30645 z m 17.8983,-14.27168 c -1.59339,-5.93458 -2.10697,-10.65508 -1.85768,-17.07428 0.15819,-4.07311 0.81078,-10.60247 1.08734,-10.87903 0.20248,-0.20247 3.17635,2.95768 4.38442,4.65906 2.06278,2.9051 3.78153,9.33474 3.34459,12.51169 -0.0964,0.70072 -0.21733,1.57745 -0.26878,1.9483 -0.48456,3.49234 -0.42968,3.34937 -2.60585,6.78822 -1.41547,2.23677 -2.94652,4.17176 -3.30088,4.17176 -0.11684,0 -0.46926,-0.95657 -0.78316,-2.12572 z M 226.83428,183.4244 c 0,-0.58526 -1.51301,-2.31425 -2.44071,-2.78911 -0.39247,-0.20089 -1.39243,-0.44654 -2.22214,-0.54589 -0.82972,-0.0994 -3.18096,-0.49546 -5.22499,-0.88025 l -3.71641,-0.69962 0.76831,-4.2727 c 4.05439,-22.54742 6.12149,-50.22223 5.16762,-69.1854 -0.17833,-3.54514 -0.39412,-10.172866 -0.47954,-14.72827 l -0.15532,-8.282554 0.65445,-0.153676 c 0.35995,-0.08452 1.84658,-0.186215 3.30362,-0.225987 2.58996,-0.0707 2.68467,-0.09671 4.23721,-1.163771 0.87342,-0.600302 2.79336,-2.171458 4.26653,-3.491458 1.47316,-1.32 2.72264,-2.4 2.77661,-2.4 0.054,0 -0.0163,0.833143 -0.15607,1.851428 -0.34373,2.503514 -0.31242,16.114088 0.0503,21.874286 0.5158,8.190602 0.66985,21.772222 0.3251,28.662852 -0.94065,18.801 -3.04935,37.42484 -5.9628,52.66286 -0.6302,3.2961 -1.1918,5.07129 -1.1918,3.76726 z M 205.44,177.81183 c -9.22327,-0.77531 -12.43066,-1.14439 -12.62096,-1.45229 -0.58044,-0.93917 -2.06814,-12.74164 -2.31566,-18.37097 -0.0896,-2.03657 -0.22151,-4.88613 -0.29324,-6.33236 -0.2828,-5.70145 0.54554,-17.97515 1.94208,-28.77621 1.2812,-9.90896 4.6783,-28.388829 6.7809,-36.887379 L 199.54286,83.5281 200.64,83.299823 c 0.60343,-0.125553 2.51657,-0.342112 4.25143,-0.481243 6.02383,-0.483096 10.0118,-0.757161 10.07829,-0.692609 0.0368,0.0357 -0.60357,2.894247 -1.423,6.352326 -3.4934,14.742533 -6.22003,30.423433 -7.67495,44.138843 -1.57345,14.83275 -1.05526,28.52394 1.59611,42.17143 l 0.62612,3.22286 -0.70986,-0.0479 c -0.39042,-0.0264 -1.26528,-0.0946 -1.94414,-0.15168 z m -22.76572,-2.2687 c -3.7775,-0.45762 -7.15606,-1.15266 -7.93094,-1.63156 -0.23312,-0.14408 -0.52737,-1.85322 -0.8583,-4.98541 -0.27696,-2.62139 -1.06168,-9.33302 -1.74381,-14.91473 -2.35601,-19.2786 -2.88181,-25.67476 -3.08905,-37.57715 -0.17578,-10.09496 0.21702,-17.27966 1.38508,-25.334819 0.67653,-4.66549 0.79928,-4.95783 2.08845,-4.973889 0.37715,-0.0047 2.10515,-0.125912 3.84,-0.269364 1.73486,-0.143453 4.73922,-0.335779 6.67636,-0.42739 3.32204,-0.157107 3.51358,-0.138152 3.37261,0.333736 -0.32009,1.07151 -1.28555,6.689042 -1.66518,9.688874 -0.81062,6.405522 -1.05518,12.298612 -0.88786,21.394282 0.20658,11.22929 0.65508,16.62371 2.9304,35.24572 0.58984,4.82743 1.38706,11.73943 1.77161,15.36 0.38455,3.62057 0.77046,7.04571 0.85759,7.61143 l 0.15841,1.02857 -1.46411,-0.0333 c -0.80526,-0.0183 -3.25383,-0.25006 -5.44126,-0.51505 z m -36.8881,-15.21808 c -3.7696,-1.87752 -6.89147,-3.52664 -6.9375,-3.66471 -0.14258,-0.42774 1.28691,-9.83774 2.15242,-14.16891 0.45219,-2.26286 1.98052,-8.74286 3.39629,-14.4 3.8084,-15.21768 4.75161,-20.2072 6.45036,-34.122143 0.29289,-2.399177 0.63082,-4.449221 0.75096,-4.555653 0.22071,-0.19553 4.02648,-0.828521 8.30986,-1.382131 1.28229,-0.16573 3.30129,-0.484466 4.48669,-0.708302 1.18539,-0.223836 2.19848,-0.363745 2.25132,-0.310909 0.0528,0.05284 -0.0822,1.197513 -0.30016,2.543728 -0.21793,1.346215 -0.71146,5.105692 -1.09673,8.354393 -1.41693,11.947737 -2.64562,18.308447 -6.57182,34.021017 -3.35625,13.43169 -4.89503,21.64477 -5.51152,29.41714 -0.1047,1.32 -0.26596,2.39779 -0.35836,2.39508 -0.0924,-0.003 -3.25221,-1.54108 -7.02181,-3.4186 z M 45.394285,156.00839 c -1.056,-0.12595 -4.357503,-0.2565 -7.336673,-0.29012 -2.979171,-0.0336 -5.416885,-0.12938 -5.417143,-0.2128 -2.58e-4,-0.0834 0.365882,-1.74971 0.813645,-3.70286 1.528457,-6.66716 2.990049,-17.11689 3.565822,-25.49404 0.224363,-3.26434 0.811121,-27.204421 0.827889,-33.778398 l 0.0036,-1.412685 7.337143,0.146003 c 4.035429,0.0803 7.368085,0.170952 7.405903,0.201444 0.15967,0.128744 -0.51012,30.305546 -0.767285,34.569346 -0.336502,5.5792 -0.872352,10.67097 -1.800812,17.11173 -0.763407,5.29579 -2.195694,12.67441 -2.509441,12.92774 -0.111458,0.09 -1.066651,0.0606 -2.122651,-0.0654 z m 7.817143,-1.71173 c 0,-6.03831 1.007354,-13.96928 4.391032,-34.57095 1.486634,-9.05143 3.02221,-18.74057 3.412392,-21.531425 0.390182,-2.790857 0.770883,-5.456244 0.846001,-5.923081 l 0.13658,-0.848796 4.153464,-0.179776 c 2.284406,-0.09888 5.630926,-0.179775 7.436712,-0.179775 h 3.283247 l -0.188813,1.714285 C 76.239494,96.795169 74.975843,105.08186 72.530789,120 c -3.760574,22.94459 -4.116991,25.53819 -4.4152,32.12891 l -0.175444,3.87748 -3.867216,0.17487 c -2.126968,0.0962 -5.039787,0.0707 -6.472929,-0.0567 -1.433143,-0.12735 -3.006857,-0.14333 -3.497143,-0.0355 l -0.891429,0.19602 z M 132.48,156.01393 c -1.73486,-0.13781 -5.02641,-0.18073 -7.31457,-0.0954 l -4.16028,0.15521 -0.4536,-1.99118 c -3.73333,-16.3879 -4.9318,-33.55623 -3.425,-49.06359 0.29889,-3.07607 1.46159,-11.260757 1.86569,-13.133296 l 0.20717,-0.96 7.49368,-0.07304 7.49368,-0.07304 -0.12862,0.895893 c -0.0707,0.49274 -0.39171,2.315321 -0.71327,4.050178 -1.70974,9.224376 -2.48738,20.701546 -1.98114,29.239746 0.60103,10.13689 2.4267,22.17828 4.40372,29.04509 0.64964,2.25638 0.65768,2.34432 0.20968,2.29314 -0.18857,-0.0215 -1.76228,-0.15194 -3.49714,-0.28976 z m -43.003328,-0.41874 c -0.844002,-0.10432 -0.891284,-0.16607 -0.753979,-0.98467 0.576958,-3.43981 1.585013,-16.94137 2.061885,-27.61624 0.797691,-17.85646 1.846092,-24.99249 4.884874,-33.249309 l 0.981345,-2.666458 8.108883,-0.0764 c 4.45989,-0.04202 8.15989,-0.04597 8.22223,-0.0088 0.0623,0.03719 -0.59673,1.551833 -1.46459,3.365866 -1.91252,3.997606 -2.89732,6.827726 -3.82042,10.979136 -1.15546,5.19639 -1.50267,9.0806 -2.37718,26.59309 -0.50216,10.05602 -1.59213,23.35812 -1.94267,23.70866 -0.0764,0.0764 -1.93516,0.0129 -4.130518,-0.14114 -2.757399,-0.19349 -4.701019,-0.19114 -6.286133,0.008 -1.262019,0.15824 -2.359532,0.26796 -2.438918,0.24382 -0.07939,-0.0241 -0.54955,-0.094 -1.044809,-0.1552 z m -68.768101,-6.52216 c -1.206857,-0.82283 -3.058285,-2.14685 -4.114285,-2.94228 l -1.92,-1.44623 -0.226791,-9.32512 c -0.124735,-5.12881 -0.140825,-14.55368 -0.03576,-20.94414 l 0.191035,-11.61903 1.793142,-1.2724 c 0.986228,-0.69982 2.842453,-2.051338 4.124944,-3.003371 l 2.331802,-1.730969 -0.173917,6.80525 c -0.09565,3.74289 -0.357049,9.33554 -0.580877,12.42812 -1.100175,15.20082 -1.148928,18.28786 -0.398521,25.23428 0.256626,2.37556 1.002884,6.69128 1.482139,8.57143 0.105748,0.41486 0.08632,0.75118 -0.04318,0.74739 -0.129497,-0.004 -1.222878,-0.68011 -2.429735,-1.50293 z M 265.10278,96.822857 c 0.0752,-0.678858 0.44641,-4.381715 0.82482,-8.228572 1.18097,-12.005492 2.43256,-21.419486 3.57368,-26.88 0.79931,-3.824877 2.33326,-10.008917 2.58256,-10.411428 0.21148,-0.341459 0.42524,-0.311352 1.46056,0.205714 0.66706,0.333143 1.39114,0.605714 1.60908,0.605714 0.21795,0 0.95305,0.353107 1.63358,0.784682 1.04766,0.66441 1.33417,1.050327 1.86925,2.517823 0.38567,1.057748 0.99291,2.073586 1.55824,2.606762 0.50947,0.480491 1.17135,1.427583 1.47085,2.104648 0.49609,1.121512 0.51188,1.35695 0.17738,2.646454 -0.20193,0.778484 -0.59918,1.671806 -0.88276,1.98516 -0.28358,0.313354 -0.52916,0.959728 -0.54573,1.436388 -0.0601,1.730067 -0.41135,3.21227 -1.64473,6.941154 -1.65332,4.998507 -2.62882,6.687148 -5.58224,9.663149 -2.6233,2.643371 -2.93348,3.170736 -5.90826,10.045209 -0.84865,1.961143 -1.72076,3.936 -1.93803,4.388571 l -0.39504,0.822857 z"
       id="path1" />
  </g>
</svg>
