<?xml version="1.0" encoding="UTF-8" standalone="no"?>
<!-- Created with Inkscape (http://www.inkscape.org/) -->

<svg
   version="1.1"
   id="svg1"
   width="294.58286"
   height="294.58286"
   viewBox="0 0 294.58286 294.58286"
   sodipodi:docname="terlingua-medium-5-v.svg"
   inkscape:version="1.4 (86a8ad7, 2024-10-11)"
   xmlns:inkscape="http://www.inkscape.org/namespaces/inkscape"
   xmlns:sodipodi="http://sodipodi.sourceforge.net/DTD/sodipodi-0.dtd"
   xmlns:xlink="http://www.w3.org/1999/xlink"
   xmlns="http://www.w3.org/2000/svg"
   xmlns:svg="http://www.w3.org/2000/svg">
  <defs
     id="defs1">
    <linearGradient
       id="linearGradient1"
       inkscape:collect="always">
      <stop
         style="stop-color:#000000;stop-opacity:0;"
         offset="0.17685589"
         id="stop2" />
      <stop
         style="stop-color:#000000;stop-opacity:1;"
         offset="0.64410478"
         id="stop1" />
    </linearGradient>
    <linearGradient
       inkscape:collect="always"
       xlink:href="#linearGradient1"
       id="linearGradient2"
       x1="35.840471"
       y1="155.71421"
       x2="263.7539"
       y2="155.71421"
       gradientUnits="userSpaceOnUse" />
  </defs>
  <sodipodi:namedview
     id="namedview1"
     pagecolor="#ffffff"
     bordercolor="#000000"
     borderopacity="0.25"
     inkscape:showpageshadow="2"
     inkscape:pageopacity="0.0"
     inkscape:pagecheckerboard="0"
     inkscape:deskcolor="#d1d1d1"
     inkscape:zoom="2.766624"
     inkscape:cx="147.47215"
     inkscape:cy="147.29143"
     inkscape:window-width="1920"
     inkscape:window-height="1017"
     inkscape:window-x="-8"
     inkscape:window-y="-8"
     inkscape:window-maximized="1"
     inkscape:current-layer="g1" />
  <g
     inkscape:groupmode="layer"
     inkscape:label="Image"
     id="g1">
    <path
       style="fill:url(#linearGradient2)"
       d="m 253.39276,184.82211 c -2.06114,-1.03194 -2.73952,-1.6038 -6.94705,-5.85629 -4.47017,-4.51794 -9.26321,-8.47421 -12.06857,-9.96163 -2.25702,-1.1967 -6.61192,-2.56728 -9.32571,-2.93501 -3.35014,-0.45396 -5.74087,-1.05258 -8.09528,-2.02699 l -1.78671,-0.73945 -1.68071,0.78194 c -4.11458,1.91428 -8.56929,1.5133 -11.76039,-1.05861 -2.0881,-1.68292 -2.79585,-1.68899 -5.13516,-0.044 -1.89622,1.33338 -3.76044,1.15223 -6.04131,-0.58705 -1.29059,-0.98414 -1.41481,-1.02154 -2.62754,-0.79116 -1.25557,0.23852 -3.10521,0.0854 -3.84844,-0.31853 -0.20968,-0.11397 -0.70265,-0.0405 -1.09548,0.16333 -0.39282,0.2038 -1.34182,0.511 -2.10889,0.68266 -1.1629,0.26024 -1.66339,0.23398 -3.01183,-0.15802 -1.34424,-0.39078 -1.87296,-0.74283 -3.13272,-2.08591 -1.72645,-1.84064 -5.17234,-3.65951 -6.86411,-3.62314 -0.528,0.0113 -1.94743,0.0563 -3.15429,0.0999 -2.49523,0.0901 -3.29634,-0.19118 -5.45762,-1.91647 -1.84901,-1.47602 -3.56234,-1.87902 -8.94238,-2.10335 -3.46749,-0.14459 -4.84062,-0.31156 -5.87249,-0.7141 -1.13369,-0.44225 -1.55787,-0.48011 -2.68096,-0.23925 -1.04761,0.22467 -2.28213,0.1661 -5.7474,-0.27267 -4.16631,-0.52755 -4.56106,-0.53475 -7.05618,-0.12872 -3.5263,0.57384 -4.20874,0.38407 -4.48732,-1.24779 -0.1315,-0.7703 -0.0581,-2.06935 0.20041,-3.54716 0.22435,-1.28246 0.4083,-2.46031 0.40878,-2.61745 0.001,-0.35905 -1.88076,-1.23256 -2.05344,-0.95315 -0.07,0.1133 -1.02502,0.48206 -2.12221,0.81947 -6.22133,1.91319 -6.01422,1.81533 -7.90341,3.73467 -0.97432,0.98987 -2.26625,2.09342 -2.87095,2.45233 -1.56332,0.92789 -4.63253,1.35951 -6.88192,0.9678 -1.26368,-0.22006 -2.07537,-0.22478 -2.84862,-0.0166 -1.146216,0.30865 -2.609732,-0.0898 -3.590742,-0.97761 -0.865418,-0.78319 -2.055943,-0.91745 -4.429715,-0.49955 -2.892306,0.50919 -3.964203,0.32062 -6.568345,-1.1555 -2.576964,-1.46072 -3.886627,-1.72192 -5.291418,-1.0553 -0.561087,0.26625 -1.084999,0.65307 -1.164249,0.85959 -0.07925,0.20652 -0.714189,0.7096 -1.410976,1.11794 -1.543356,0.90447 -3.92148,1.03246 -4.996455,0.26891 -0.366671,-0.26045 -0.934226,-0.66784 -1.261233,-0.90532 -0.327006,-0.23748 -1.838083,-0.61638 -3.357947,-0.84201 -2.743837,-0.40732 -2.777475,-0.4054 -4.754014,0.27108 -2.250881,0.77038 -6.426552,1.1332 -9.122052,0.79261 -1.837719,-0.23221 -6.37057,0.21883 -9.019672,0.89749 -0.921031,0.23596 -2.422205,0.9161 -3.335941,1.51142 -1.713111,1.11614 -4.024665,1.77041 -5.206715,1.47374 -0.858183,-0.21539 -1.061976,-1.53329 -0.697688,-4.51185 0.204851,-1.67494 0.181784,-4.64532 -0.08308,-10.69785 -0.20167,-4.60849 -0.310318,-8.76305 -0.24144,-9.23234 0.162864,-1.10966 0.834627,-1.2784 2.928972,-0.7357 1.9012,0.49265 3.469575,1.24344 4.825534,2.31002 1.196968,0.94151 2.372669,1.2638 6.460039,1.77084 3.01167,0.3736 3.434349,0.36435 6.558719,-0.14347 3.094237,-0.50292 3.509312,-0.51314 5.649717,-0.13911 1.270569,0.22202 2.995847,0.64001 3.833952,0.92886 2.739205,0.94405 3.558458,0.97033 6.507493,0.20878 2.764622,-0.71393 6.560896,-1.34246 10.156334,-1.68153 1.658444,-0.1564 2.25077,-0.35476 3.428571,-1.14816 3.289402,-2.21585 5.735228,-2.91111 8.966632,-2.5489 1.131429,0.12682 4.525714,0.3818 7.542858,0.56662 4.00394,0.24527 5.78207,0.46452 6.58286,0.81171 0.60342,0.26162 1.71266,0.56445 2.46495,0.67297 0.7523,0.10851 1.67802,0.3581 2.05715,0.55463 0.7321,0.3795 3.46854,3.196 4.74673,4.88562 0.42129,0.55689 0.96401,1.01253 1.20604,1.01253 0.24203,0 0.97218,-0.43604 1.62256,-0.96897 0.87488,-0.71691 1.33633,-1.39087 1.77384,-2.5908 0.49737,-1.36406 0.71712,-1.64945 1.38267,-1.79563 0.69959,-0.15366 0.76909,-0.25871 0.59963,-0.90635 -0.28661,-1.09534 -0.19471,-2.78684 0.17129,-3.15277 0.18279,-0.18276 1.05997,-0.31435 2.02336,-0.30353 1.43018,0.016 2.04963,0.19801 3.89479,1.14407 2.09293,1.07308 2.36492,1.13844 5.89699,1.41712 4.69894,0.37073 9.80923,1.0522 10.69714,1.42648 0.37714,0.15897 1.0597,0.80156 1.51678,1.42798 0.67864,0.93002 1.08112,1.19669 2.19429,1.45382 0.74977,0.17319 1.71068,0.45297 2.13536,0.62173 1.18227,0.46983 1.81841,0.37858 3.75357,-0.5384 1.08665,-0.51491 2.26484,-0.85768 3.01714,-0.87778 1.77332,-0.0474 6.46313,0.58833 8.22857,1.11537 1.02392,0.30568 2.63374,0.45966 5.01087,0.4793 3.17518,0.0262 3.57227,0.0853 4.25143,0.6327 0.41202,0.33207 1.58927,1.1604 2.61612,1.84074 1.02684,0.68034 2.26112,1.68694 2.74285,2.23689 0.48173,0.54996 1.42306,1.34759 2.09185,1.77251 l 1.21597,0.77258 1.38974,-0.77846 c 0.76436,-0.42815 1.71828,-0.85878 2.11983,-0.95697 1.1328,-0.27698 6.50812,0.85427 7.68623,1.61758 0.83192,0.53902 1.14713,0.60724 1.78285,0.3859 0.54143,-0.18851 1.18645,-0.16135 2.15792,0.0909 1.14466,0.29718 1.62169,0.29684 2.74285,-0.002 0.74647,-0.19895 3.27035,-0.49057 5.60864,-0.64804 4.82809,-0.32514 4.8981,-0.3495 10.83428,-3.76902 4.13103,-2.37967 5.53588,-2.96374 7.99639,-3.32455 3.43507,-0.50372 6.42864,0.31931 6.81655,1.87409 0.29765,1.19303 0.9125,1.63051 2.56342,1.82396 1.6574,0.19421 3.26796,0.97496 6.48868,3.14553 4.24786,2.86279 7.38162,4.04881 11.92925,4.51481 2.63689,0.2702 3.32866,0.57717 4.34653,1.92879 1.27834,1.6975 2.02534,4.19132 2.01259,6.719 -0.006,1.13143 0.17394,3.30787 0.39921,4.83655 0.30156,2.04638 0.33909,3.16723 0.14231,4.24991 -0.147,0.80878 -0.21766,1.55079 -0.15702,1.64891 0.0606,0.0981 -0.0196,0.83937 -0.1782,1.64722 -0.15864,0.80786 -0.33577,1.90084 -0.39361,2.42884 -0.0578,0.528 -0.18355,1.392 -0.27937,1.92 -0.0958,0.528 -0.17766,1.14514 -0.18189,1.37142 -0.004,0.22629 -0.19609,1.152 -0.42637,2.05715 -0.23028,0.90514 -0.41076,1.83085 -0.40106,2.05714 0.0327,0.76397 -0.574,3.12696 -1.12437,4.37895 -1.22965,2.79723 -3.21184,5.98038 -3.82667,6.14514 -0.89598,0.24011 -0.78954,0.27169 -3.27075,-0.97055 z"
       id="path1" />
  </g>
</svg>
