<?xml version="1.0" encoding="UTF-8" standalone="no"?>
<!-- Created with Inkscape (http://www.inkscape.org/) -->

<svg
   version="1.1"
   id="svg1"
   width="294.58286"
   height="294.58286"
   viewBox="0 0 294.58286 294.58286"
   sodipodi:docname="terlingua-medium-7-v-outline.svg"
   inkscape:version="1.4 (86a8ad7, 2024-10-11)"
   xmlns:inkscape="http://www.inkscape.org/namespaces/inkscape"
   xmlns:sodipodi="http://sodipodi.sourceforge.net/DTD/sodipodi-0.dtd"
   xmlns="http://www.w3.org/2000/svg"
   xmlns:svg="http://www.w3.org/2000/svg">
  <defs
     id="defs1" />
  <sodipodi:namedview
     id="namedview1"
     pagecolor="#ffffff"
     bordercolor="#000000"
     borderopacity="0.25"
     inkscape:showpageshadow="2"
     inkscape:pageopacity="0.0"
     inkscape:pagecheckerboard="0"
     inkscape:deskcolor="#d1d1d1"
     inkscape:zoom="2.766624"
     inkscape:cx="147.47215"
     inkscape:cy="147.29143"
     inkscape:window-width="1920"
     inkscape:window-height="1017"
     inkscape:window-x="-8"
     inkscape:window-y="-8"
     inkscape:window-maximized="1"
     inkscape:current-layer="g1" />
  <g
     inkscape:groupmode="layer"
     inkscape:label="Image"
     id="g1">
    <path
       style="fill:#000000"
       d="m 255.63428,185.00571 c -0.1878,-0.22628 -0.46785,-0.41143 -0.62233,-0.41143 -1.04769,0 -7.03495,-4.94125 -11.2743,-9.3046 -1.48944,-1.53301 -3.21744,-3.04299 -3.84,-3.35553 -0.62257,-0.31253 -1.50222,-0.8449 -1.95479,-1.18305 -1.34419,-1.00432 -2.97124,-1.73935 -5.13206,-2.3184 -1.11922,-0.29993 -3.06844,-0.9812 -4.33158,-1.51392 -1.9799,-0.83502 -2.49161,-0.94568 -3.71056,-0.80242 -0.87677,0.10305 -1.64355,0.0433 -2.01829,-0.15725 -0.33239,-0.17789 -1.29838,-0.43639 -2.14666,-0.57445 -1.06624,-0.17354 -1.77801,-0.47683 -2.3059,-0.98259 -1.1322,-1.08471 -2.93439,-1.18699 -4.97736,-0.28249 -2.50896,1.11082 -4.56081,1.41662 -6.80924,1.0148 -1.57015,-0.2806 -2.27224,-0.59933 -4.02376,-1.82666 -1.16696,-0.81771 -2.29704,-1.56802 -2.5113,-1.66736 -0.21427,-0.0993 -1.32512,0.14711 -2.46858,0.54765 -3.30175,1.1566 -4.02332,1.18704 -5.78186,0.24391 -1.4457,-0.77536 -1.61909,-0.80328 -4.16047,-0.67001 -2.42002,0.12691 -2.74074,0.0842 -3.66785,-0.48882 -0.82464,-0.50966 -1.46464,-0.63954 -3.39897,-0.68982 -2.53915,-0.066 -3.77701,-0.49779 -5.441,-1.89795 -0.468,-0.3938 -1.44338,-0.81666 -2.22615,-0.9651 -0.76625,-0.14532 -1.91989,-0.53924 -2.56366,-0.87537 -1.0182,-0.53165 -1.6165,-0.61444 -4.59904,-0.63643 -3.64898,-0.0269 -4.0811,-0.14441 -5.69905,-1.54982 -2.14542,-1.86358 -2.7221,-2.00463 -8.28952,-2.02757 -4.29349,-0.0177 -5.24311,-0.0978 -6.17143,-0.52039 -0.94229,-0.42898 -1.44555,-0.46771 -3.56571,-0.2744 -4.38441,0.39977 -5.2044,0.29365 -7.71869,-0.99899 l -2.25782,-1.16077 -2.85822,0.58244 c -1.9447,0.39628 -3.11433,0.50899 -3.65955,0.35262 -0.95547,-0.27403 -2.98116,-1.27949 -3.94607,-1.95867 -0.8325,-0.58597 -3.28125,-1.30216 -4.79394,-1.40209 -1.73169,-0.11439 -3.41015,0.30843 -4.9169,1.23864 -1.21782,0.75182 -1.64865,0.86253 -3.44881,0.88618 -1.64347,0.0216 -2.38089,0.18033 -3.66708,0.7894 -2.11333,1.00076 -4.11312,0.87806 -6.360449,-0.39025 -2.555032,-1.44197 -3.608923,-1.50097 -7.037034,-0.39399 -2.918199,0.94233 -2.963498,0.9477 -6.447802,0.76375 l -3.508956,-0.18524 -1.724965,0.87076 c -0.993452,0.50149 -2.889103,1.10818 -4.47009,1.43063 -2.531998,0.5164 -2.796897,0.52595 -3.411984,0.12293 -1.201603,-0.78732 -1.586018,-1.66514 -1.386815,-3.1668 l 0.179938,-1.35644 -1.448097,-0.83046 c -0.987511,-0.56632 -1.82074,-0.83128 -2.619696,-0.83303 -1.046018,-0.002 -1.328571,0.15178 -2.636053,1.43742 -1.796782,1.76678 -5.751588,3.97597 -7.977899,4.45653 -0.909947,0.19641 -2.271593,0.64719 -3.025878,1.00172 -1.216482,0.57178 -1.727808,0.63922 -4.525715,0.59688 -2.006837,-0.0304 -4.198476,-0.26533 -6.024722,-0.6459 -2.080839,-0.43362 -3.307332,-0.54873 -4.458687,-0.41847 -1.54837,0.17518 -1.595452,0.16075 -1.875082,-0.57473 -0.316139,-0.83151 -0.671343,-24.46213 -0.381433,-25.37556 0.157011,-0.4947 0.330516,-0.52513 1.998787,-0.35057 1.004769,0.10513 2.300703,0.37843 2.879853,0.60733 1.046698,0.41368 2.37541,0.40109 8.958427,-0.0849 2.373713,-0.17524 6.524094,0.30009 8.410993,0.96328 0.838052,0.29455 2.158132,1.0093 2.933512,1.58832 3.178757,2.37379 5.987392,2.847 7.961368,1.34138 0.922933,-0.70396 0.947262,-0.77052 0.80069,-2.19067 -0.08967,-0.8688 -0.02404,-1.70219 0.161326,-2.04854 0.466678,-0.872 2.176939,-1.29521 3.786466,-0.93698 2.178457,0.48485 5.104178,1.3435 6.26192,1.83776 2.497384,1.06618 3.217893,1.15459 8.813049,1.08136 l 5.497969,-0.0719 1.832109,1.17861 c 2.471158,1.58973 3.84829,1.95679 5.84045,1.55671 1.94737,-0.39109 3.35583,-1.214 5.67488,-3.31561 1.00677,-0.91237 1.95542,-1.65886 2.10812,-1.65886 0.15269,0 0.72073,0.18514 1.26231,0.41143 0.54158,0.22628 1.51851,0.41142 2.17096,0.41142 0.7386,0 1.67297,0.25878 2.47593,0.68572 0.70931,0.37714 1.49219,0.68571 1.73974,0.68571 0.24755,0 1.18574,0.19249 2.08487,0.42775 2.76496,0.72347 3.33525,0.62601 5.69137,-0.97259 2.29053,-1.55411 2.71552,-1.62042 5.68054,-0.88634 0.67886,0.16807 2.22171,0.44458 3.42857,0.61446 1.20686,0.16988 2.56461,0.37133 3.01722,0.44767 0.63853,0.10769 0.97193,-0.0198 1.48782,-0.56893 0.9648,-1.02699 2.272,-0.9497 4.14767,0.24525 1.07549,0.68517 1.81382,0.95495 2.62729,0.96 2.0502,0.0127 2.827,0.31355 4.00717,1.55184 0.62799,0.65892 1.37225,1.19804 1.65392,1.19804 0.5135,0 1.5905,0.47292 1.84748,0.81124 0.39803,0.52401 1.5859,1.10876 2.25238,1.10876 0.97501,0 3.40963,-0.92345 4.11313,-1.5601 0.45934,-0.41569 1.13466,-0.50267 4.3417,-0.55919 3.71129,-0.0654 3.83716,-0.0483 5.52813,0.75168 1.44351,0.68289 2.07287,0.81864 3.79632,0.81882 2.66669,2.8e-4 4.55963,0.50391 5.90683,1.57155 0.59326,0.47015 1.6005,0.99181 2.23831,1.15925 0.71978,0.18896 1.34402,0.57677 1.64571,1.0224 0.95706,1.41367 2.05998,2.27387 3.49579,2.72647 l 1.45889,0.45987 1.44363,-0.88827 c 2.51512,-1.54757 3.98964,-1.45485 8.33352,0.52402 0.91757,0.418 1.68102,0.49993 4.15264,0.44564 1.66561,-0.0366 3.18404,-0.16273 3.37429,-0.28031 0.99421,-0.61446 4.25821,-1.05533 7.71302,-1.0418 l 3.70285,0.0145 2.23457,-1.21763 c 1.22902,-0.66969 3.05527,-1.82345 4.05834,-2.5639 2.60566,-1.92346 3.81231,-2.43066 6.23837,-2.62218 4.04377,-0.31922 6.50134,0.62084 7.5351,2.88231 0.3389,0.74137 0.73065,1.15701 1.19077,1.26338 2.48165,0.57371 3.69709,1.08547 5.76,2.42526 5.70349,3.70423 8.68409,4.90668 13.44,5.42205 3.54652,0.38432 4.24435,0.82836 5.61851,3.57514 0.81052,1.62013 0.9646,2.21706 0.96593,3.74218 8.8e-4,0.99802 0.12328,2.55515 0.27201,3.46029 0.14874,0.90515 0.33817,3.44508 0.42097,5.64431 0.13343,3.54396 0.0717,4.40156 -0.5432,7.54286 -0.38156,1.94934 -0.8262,4.22312 -0.98809,5.05283 -0.85737,4.39436 -1.45926,6.37489 -2.68402,8.83184 -0.7294,1.46322 -1.48503,2.85179 -1.67916,3.08571 -0.45056,0.54289 -2.03371,0.55175 -2.4801,0.0139 z m 2.8782,-3.60623 c 1.46146,-3.10653 2.11331,-5.2533 2.73609,-9.01091 0.25003,-1.50857 0.70732,-3.8834 1.01621,-5.2774 0.4863,-2.19466 0.53906,-3.10047 0.39345,-6.75471 -0.0925,-2.32109 -0.29128,-4.86939 -0.44177,-5.66289 -0.15048,-0.7935 -0.27363,-2.25903 -0.27367,-3.25672 -5e-5,-1.47313 -0.14977,-2.09747 -0.79675,-3.32257 -1.1108,-2.10335 -1.6311,-2.40794 -4.6889,-2.74495 -2.88106,-0.31753 -6.52766,-1.32919 -8.63804,-2.39641 -0.75536,-0.38198 -2.54596,-1.46473 -3.9791,-2.40611 -2.78895,-1.83196 -4.17151,-2.6011 -4.67559,-2.6011 -0.17285,0 -0.9796,-0.19341 -1.79279,-0.42981 -1.32713,-0.38581 -1.54289,-0.55891 -2.10725,-1.69058 -1.06921,-2.14404 -1.66063,-2.41082 -5.25742,-2.37155 -2.86189,0.0312 -3.1938,0.0917 -4.43586,0.80787 -0.73839,0.42575 -1.83623,1.16699 -2.43966,1.6472 -0.60343,0.4802 -2.26972,1.53609 -3.70286,2.34641 l -2.60571,1.47332 -3.29143,-0.0835 c -3.2856,-0.0833 -6.27734,0.33859 -8.22857,1.16047 -0.54914,0.2313 -1.91776,0.32113 -4.11429,0.27004 -3.07773,-0.0716 -3.43975,-0.14007 -5.576,-1.05465 -1.25652,-0.53795 -2.71319,-0.97809 -3.23705,-0.97809 -0.55637,0 -1.74151,0.40833 -2.84987,0.9819 l -1.8974,0.98191 -1.54812,-0.45005 c -1.50384,-0.43718 -3.68013,-1.6562 -3.68013,-2.06138 0,-0.46711 -1.43462,-1.57877 -2.41745,-1.87323 -0.92483,-0.27709 -1.36319,-0.22726 -3.36858,0.38291 -2.3865,0.72613 -2.21263,0.72091 -7.24254,0.21764 -1.62194,-0.16228 -2.4497,-0.50929 -2.1956,-0.92044 0.16235,-0.26268 2.21673,-0.0651 4.43188,0.42619 1.53899,0.34134 1.86529,0.32584 3.70286,-0.17585 2.98336,-0.81452 2.99612,-0.81947 2.82459,-1.09702 -0.41864,-0.67737 -2.06815,-1.14981 -4.75981,-1.36327 -1.59873,-0.12679 -3.91041,-0.38067 -5.13708,-0.56418 -2.06373,-0.30875 -2.2993,-0.29361 -3.15428,0.20266 -0.5082,0.29498 -1.17085,0.99343 -1.47256,1.5521 -0.51023,0.94478 -1.23429,1.37741 -1.23429,0.73751 0,-0.67271 1.45442,-2.49259 2.36565,-2.96008 l 0.99628,-0.51112 -2.67565,-0.0271 c -2.23313,-0.0226 -2.79467,0.06 -3.39525,0.4993 -1.02383,0.74894 -3.76185,1.63195 -5.08254,1.63912 -0.68995,0.004 -1.38711,0.21287 -1.80849,0.54248 -0.37714,0.295 -0.77828,0.53911 -0.89143,0.54247 -0.44462,0.0132 -0.17217,-0.77367 0.41143,-1.18824 l 0.61714,-0.43839 -0.82285,-0.69084 c -0.45257,-0.37997 -1.10382,-0.69146 -1.44722,-0.69221 -0.37776,-8.3e-4 -1.13609,-0.51365 -1.92,-1.29842 -1.25823,-1.25961 -1.35043,-1.30017 -3.19314,-1.40498 -1.62516,-0.0924 -2.08258,-0.2409 -3.18704,-1.03438 -1.54787,-1.11203 -2.24248,-1.15682 -3.35981,-0.21665 -0.66787,0.56197 -1.04739,0.68155 -1.82245,0.5742 -0.5384,-0.0746 -2.36331,-0.32568 -4.05535,-0.55803 -1.69204,-0.23234 -3.31935,-0.55245 -3.61625,-0.71135 -1.12212,-0.60054 -2.22671,-0.32854 -4.10336,1.01042 -1.72557,1.23117 -1.91461,1.29915 -3.60395,1.29602 -1.99831,-0.004 -5.29742,-0.70202 -6.97923,-1.47729 -0.61171,-0.28198 -1.85277,-0.62954 -2.75792,-0.77236 -0.90514,-0.14282 -1.85452,-0.35118 -2.10973,-0.46303 -0.34183,-0.14982 -0.81131,0.15739 -1.78286,1.16665 -1.63942,1.70304 -4.35007,3.19469 -6.59098,3.62695 -2.08499,0.40219 -3.702768,-0.0276 -6.247855,-1.65981 l -1.645714,-1.05544 -3.908439,0.0481 -3.908438,0.0481 -1.33e-4,1.01072 c -1.82e-4,1.37972 -0.42275,2.38954 -1.44219,3.44643 -1.529224,1.5854 -1.865497,0.89725 -0.370291,-0.75776 0.593488,-0.65692 1.000726,-1.44557 1.124375,-2.17744 0.106626,-0.63112 0.150754,-1.18857 0.09806,-1.23878 -0.05269,-0.0502 -0.712946,-0.15236 -1.467232,-0.22698 -0.754286,-0.0746 -2.112,-0.40529 -3.017143,-0.73482 -3.780945,-1.37647 -7.644847,-2.47775 -8.688979,-2.47652 -0.631911,7.5e-4 -1.596735,0.59851 -1.596735,0.98927 0,0.34664 0.82182,2.0096 1.446395,2.92679 1.920732,2.82061 2.866264,7.2021 2.173852,10.07338 -0.163707,0.67886 -0.429602,2.16 -0.590879,3.29143 -0.182538,1.28059 -0.602583,2.65401 -1.112727,3.63829 -0.951037,1.83495 -1.025704,2.67293 -0.296931,3.33246 0.494702,0.4477 0.644611,0.44769 2.811428,-2.7e-4 1.307881,-0.27039 2.935419,-0.83691 3.797433,-1.32184 l 1.508572,-0.84864 4.525714,-0.0145 c 4.256395,-0.0136 4.648132,-0.0599 6.582857,-0.77811 3.27164,-1.2145 4.535703,-1.0815 8.088871,0.85105 1.496267,0.81382 3.239707,0.78865 5.150117,-0.0743 1.31509,-0.59407 2.15263,-0.77861 3.62958,-0.79972 1.71198,-0.0245 2.09831,-0.13773 3.56572,-1.04523 1.53942,-0.95204 1.78749,-1.01783 3.84087,-1.01849 2.30017,-7.3e-4 5.60311,0.75547 6.41367,1.46841 0.24343,0.21411 1.23522,0.78591 2.20398,1.27067 l 1.76139,0.88138 3.09801,-0.63541 3.09802,-0.6354 1.17489,0.60956 c 0.64618,0.33526 1.66456,0.88159 2.26305,1.21407 1.21871,0.67704 2.81232,0.76574 6.74128,0.37525 2.04883,-0.20363 2.46298,-0.16844 3.29143,0.27966 0.82582,0.44668 1.60023,0.51397 6.02198,0.52327 4.86403,0.0102 5.13731,0.0399 6.59537,0.71699 0.8366,0.38847 1.98161,1.11066 2.54446,1.60485 1.34967,1.18502 2.7114,1.64223 4.01728,1.34882 1.41422,-0.31775 4.87634,0.11774 6.18657,0.7782 0.59983,0.30236 1.70599,0.63961 2.45813,0.74944 0.99519,0.14532 1.64696,0.45215 2.39389,1.12695 1.46796,1.32622 2.62434,1.72617 4.93392,1.70645 1.33432,-0.0114 2.36764,0.14242 3.09895,0.46128 1.82907,0.79751 2.83783,0.93447 4.65942,0.63262 1.68841,-0.27978 1.76921,-0.26494 3.28758,0.60379 1.79687,1.02806 2.60233,1.00731 5.42529,-0.13976 0.91897,-0.37341 1.99402,-0.67893 2.38899,-0.67893 0.44351,0 1.55298,0.61265 2.90128,1.60211 3.48684,2.55884 5.91253,2.8228 10.20444,1.11045 2.6583,-1.06059 4.46891,-0.99535 6.05517,0.21818 1.2165,0.93066 3.3105,1.47234 6.08354,1.57371 1.6696,0.061 2.49519,0.26696 4.38228,1.09305 1.27882,0.55982 2.9451,1.15005 3.70285,1.31162 1.66871,0.35581 3.83101,1.2859 5.41565,2.32948 0.64543,0.42505 1.62213,1.00059 2.17044,1.27898 0.54831,0.27838 2.2146,1.74458 3.70286,3.25822 5.00589,5.09125 8.20688,7.75777 11.48307,9.56574 0.45257,0.24975 0.97434,0.46921 1.1595,0.4877 0.18515,0.0185 0.89685,-1.15719 1.58155,-2.61262 z m -8.60784,-11.54805 c -0.75704,-2.58859 -1.58137,-5.87499 -2.08186,-8.2998 -0.4751,-2.30176 -1.13391,-3.57552 -2.21607,-4.28457 -0.63818,-0.41816 -0.9486,-0.43926 -2.51493,-0.17096 -2.27574,0.38982 -3.97921,1.43894 -5.56035,3.42444 -1.41579,1.77788 -2.19971,1.72549 -0.95951,-0.0641 1.76193,-2.54246 4.36865,-4.04959 7.19737,-4.16131 2.96417,-0.11706 4.06146,1.28462 5.15858,6.58957 0.37434,1.81009 1.03118,4.47019 1.45964,5.91135 0.42846,1.44116 0.71455,2.68475 0.63575,2.76355 -0.37444,0.37444 -0.61861,0.002 -1.11862,-1.70816 z m 7.51216,-2.36203 c -0.23343,-0.35626 -0.67044,-1.94557 -0.97113,-3.5318 -0.30069,-1.58623 -0.84383,-3.75761 -1.20696,-4.82529 -0.75066,-2.20701 -1.92806,-7.96297 -1.67966,-8.21136 0.31604,-0.31604 0.66173,0.35962 0.9497,1.85619 0.57558,2.99131 1.09759,5.10349 1.65302,6.68858 0.31112,0.88786 0.7596,2.73929 0.99662,4.11428 0.23702,1.375 0.6082,2.85839 0.82485,3.29643 0.21664,0.43803 0.3939,0.90089 0.3939,1.02857 0,0.45608 -0.54324,0.22098 -0.96034,-0.4156 z m -31.67966,-4.11813 c 0,-0.0567 0.32091,-0.82808 0.71313,-1.71428 0.55163,-1.24638 0.67705,-1.87527 0.55382,-2.77699 -0.0905,-0.66196 -0.0472,-1.16572 0.10008,-1.16572 0.37645,0 0.82726,0.95187 0.82726,1.74675 0,0.98328 -1.37312,4.01325 -1.81871,4.01325 -0.20657,0 -0.37558,-0.0463 -0.37558,-0.10301 z m -6.75979,-3.44812 c 0.0332,-0.91549 0.17918,-1.66357 0.32437,-1.66241 0.39007,0.003 0.3322,3.08795 -0.0604,3.21881 -0.23006,0.0767 -0.30681,-0.3758 -0.26399,-1.5564 z m -17.52125,0.25266 c -0.75818,-0.79138 -0.86881,-0.82157 -2.38274,-0.65029 -1.01569,0.11491 -1.58765,0.0786 -1.58765,-0.10075 0,-0.35793 0.44041,-0.52238 2.04233,-0.7626 1.20714,-0.18102 1.34969,-0.13515 2.22935,0.71745 0.88129,0.85419 1.22155,1.62609 0.71678,1.62609 -0.12263,0 -0.58076,-0.37346 -1.01807,-0.8299 z m -8.4961,-1.63095 c -1.54247,-1.11441 -2.14816,-1.20951 -3.45554,-0.54253 -1.19156,0.60789 -2.18989,0.73872 -3.19721,0.41901 -1.03348,-0.32801 -0.72589,-0.79669 0.40267,-0.61355 0.76179,0.12362 1.37781,-0.005 2.44411,-0.50915 1.3446,-0.6361 1.48961,-0.65185 2.55159,-0.27716 1.19635,0.4221 3.03724,1.69297 3.03724,2.09679 0,0.44403 -0.67519,0.22687 -1.78286,-0.57341 z m -15.22286,-1.9204 c 0,-0.32283 -0.49923,-1.5566 -1.10941,-2.74172 -1.69757,-3.29711 -1.73809,-3.57792 -0.80205,-5.55718 0.43932,-0.92894 0.94533,-2.34393 1.12447,-3.14442 0.3077,-1.37494 0.57627,-1.744 0.89445,-1.22917 0.22554,0.36493 -0.63674,3.3557 -1.41461,4.90651 l -0.71723,1.42991 1.44762,2.86987 c 0.7962,1.57842 1.40597,3.08474 1.35505,3.34736 -0.13829,0.7133 -0.77829,0.81102 -0.77829,0.11884 z m 18.33824,-0.67943 c -0.54401,-0.36967 -1.06358,-0.86618 -1.1546,-1.10337 -0.2409,-0.62779 0.77973,-1.51595 1.74208,-1.51595 0.45257,0 0.91234,-0.009 1.02171,-0.0206 0.10937,-0.0113 0.24018,0.10339 0.29068,0.2549 0.0505,0.15151 -0.41556,0.37677 -1.03569,0.50058 -0.62014,0.1238 -1.142,0.34852 -1.15969,0.49938 -0.0177,0.15086 0.51317,0.55406 1.1797,0.89601 0.66652,0.34195 1.253,0.74309 1.30329,0.89143 0.17572,0.51836 -1.20669,0.26405 -2.18748,-0.40241 z m 18.45275,-0.76789 c -0.85176,-2.71048 -0.9128,-3.25797 -0.42352,-3.79863 0.43466,-0.48029 1.48396,-0.73458 1.48396,-0.35962 0,0.089 -0.25809,0.37074 -0.57354,0.62617 -0.5655,0.45792 -0.5669,0.48739 -0.0999,2.10111 0.26049,0.90018 0.53179,1.79097 0.60289,1.97954 0.0711,0.18857 -0.0595,0.34286 -0.29024,0.34286 -0.23297,0 -0.54407,-0.39638 -0.69963,-0.89143 z m 11.90009,0.35975 c -0.0928,-0.29242 -0.59485,-0.90579 -1.11563,-1.36305 -0.95223,-0.83606 -1.20925,-1.3967 -0.64032,-1.3967 0.54062,0 2.4363,2.1091 2.4363,2.71059 0,0.72738 -0.45467,0.76023 -0.68035,0.0492 z m -40.68833,-0.47252 c 0.11502,-0.59099 2.07218,-1.71144 3.01621,-1.72676 0.40328,-0.007 1.08214,-0.30213 1.50857,-0.65686 1.54906,-1.2886 3.38104,-1.75654 3.38104,-0.86361 0,0.27189 -0.27194,0.41143 -0.80181,0.41143 -0.441,0 -1.15071,0.29023 -1.57714,0.64496 -1.04254,0.86725 -1.8567,1.27504 -2.54561,1.27504 -0.31463,0 -1.06086,0.30857 -1.65829,0.68571 -1.28057,0.80839 -1.44096,0.83628 -1.32297,0.23009 z m 17.13678,-0.57293 c -0.2663,-0.43089 0.36817,-2.82535 1.16902,-4.41184 0.85905,-1.70175 2.78256,-3.61103 3.63797,-3.61103 0.27456,0 0.4992,0.12343 0.4992,0.27429 0,0.15085 -0.10122,0.27428 -0.22492,0.27428 -0.1237,0 -0.74578,0.44584 -1.38239,0.99076 -1.31676,1.12709 -2.37394,3.02474 -2.80509,5.03516 -0.28693,1.33789 -0.62424,1.88451 -0.89379,1.44838 z m 29.16904,-0.91767 c 0,-0.42728 1.00729,-1.84596 2.22097,-3.12806 2.28305,-2.41175 2.01087,-4.07233 -1.2249,-7.47315 -0.78384,-0.82383 -1.02258,-1.25005 -0.81592,-1.45671 0.20666,-0.20666 0.73912,0.20179 1.81978,1.39595 2.02607,2.23889 2.48262,3.24269 2.32721,5.11677 -0.10865,1.31018 -0.26821,1.63557 -1.35999,2.77359 -0.68029,0.7091 -1.51118,1.69041 -1.84641,2.1807 -0.60827,0.88959 -1.12074,1.1598 -1.12074,0.59091 z m -66.24858,-0.53624 c -0.10092,-0.16329 -0.14027,-0.32864 -0.0875,-0.36746 0.0528,-0.0388 0.48658,-0.34004 0.96392,-0.66938 1.251,-0.86314 2.11007,-2.76913 1.87506,-4.16014 -0.21767,-1.28838 0.26331,-1.52275 0.71061,-0.34626 0.38629,1.01601 0.12363,2.20105 -0.81059,3.65728 -0.84949,1.32414 -2.34248,2.38606 -2.65155,1.88596 z m -5.0657,-2.20662 c 0,-0.16528 0.25343,-0.65643 0.56318,-1.09144 0.30976,-0.435 0.91533,-1.56491 1.34572,-2.51091 1.27692,-2.80666 3.36207,-5.20889 4.11659,-4.74257 0.13978,0.0864 -0.29542,0.70664 -0.9671,1.37833 -0.69739,0.69739 -1.68063,2.1613 -2.29219,3.41275 -0.58901,1.20533 -1.33734,2.56564 -1.66296,3.02293 -0.59816,0.84004 -1.10324,1.0831 -1.10324,0.53091 z m 22.21714,-0.15104 c 0,-0.0975 0.56246,-0.77859 1.24992,-1.51353 1.42469,-1.52312 2.30098,-3.24901 2.30977,-4.5492 0.004,-0.60684 0.13737,-0.89143 0.41745,-0.89143 1.20172,0 -0.12714,3.77158 -2.07241,5.88194 -1.01219,1.0981 -1.90473,1.60053 -1.90473,1.07222 z m -30.2667,-0.28371 c -0.24152,-0.24152 1.18301,-1.7333 1.65516,-1.7333 0.56047,0 0.42907,0.37986 -0.40918,1.18297 -0.81949,0.78511 -0.95246,0.84384 -1.24598,0.55033 z m -7.84929,-1.66473 c 0.005,-0.264 0.18611,-0.78857 0.4017,-1.16572 0.75191,-1.31532 0.20242,-2.30441 -0.68571,-1.23428 -0.37254,0.44888 -1.37143,0.56506 -1.37143,0.15951 0,-0.43686 1.88356,-1.43703 2.53275,-1.34488 0.89145,0.12654 0.97612,1.54665 0.177,2.96849 -0.65437,1.16429 -1.07033,1.40767 -1.05431,0.61688 z m -10.80324,-0.45627 c -0.51057,-0.77923 -0.58069,-1.25802 -0.18424,-1.25802 0.46789,0 1.21375,1.37087 0.91073,1.67388 -0.18286,0.18286 -0.42502,0.0442 -0.72649,-0.41586 z m 3.5302,0.22366 c -1.17323,-0.42943 -2.88526,-1.91018 -2.88526,-2.49548 0,-0.56583 0.31687,-0.42738 1.36558,0.59666 0.5375,0.52486 1.36503,1.03183 1.83894,1.12662 0.78984,0.15796 0.94323,0.0613 1.84035,-1.16 0.53828,-0.73279 1.16625,-1.85691 1.39548,-2.49805 0.22924,-0.64114 0.60707,-1.70785 0.83963,-2.37047 0.48497,-1.38179 1.74575,-3.15908 2.25145,-3.17382 0.53634,-0.0156 0.41024,0.37836 -0.47938,1.49781 -0.45224,0.56906 -1.07325,1.87748 -1.38003,2.90759 -0.51022,1.71322 -3.04364,6.03652 -3.509,5.98814 -0.10223,-0.0106 -0.67722,-0.19918 -1.27776,-0.419 z m 53.89189,-0.30096 c 0,-0.34626 1.46691,-1.72929 1.83417,-1.72929 0.56047,0 0.42908,0.37987 -0.40918,1.18297 -0.72798,0.69745 -1.42499,0.96467 -1.42499,0.54632 z m -40.98691,-1.935 c 0.21565,-1.48209 0.65635,-2.47175 1.39311,-3.12845 1.39644,-1.24468 4.43902,-2.151 4.69073,-1.39727 0.0697,0.20862 -0.13608,0.34391 -0.5255,0.34554 -0.98776,0.004 -3.35888,1.21453 -4.01617,2.05014 -0.32453,0.41257 -0.67013,1.35375 -0.76799,2.09151 -0.1192,0.89855 -0.30765,1.34138 -0.57084,1.34138 -0.31247,0 -0.3541,-0.2667 -0.20334,-1.30285 z m -66.322985,0.87296 c -0.08559,-0.0856 0.06847,-0.7953 0.342339,-1.57714 0.292956,-0.83633 0.43291,-1.76029 0.339965,-2.2444 -0.142503,-0.74223 -0.11334,-0.78597 0.297661,-0.44641 0.582617,0.48135 0.579864,1.47883 -0.0086,3.1207 -0.45038,1.25657 -0.639115,1.47949 -0.971352,1.14725 z M 248.5575,146.64603 c -1.02419,-0.75562 -2.79099,-2.90519 -2.79484,-3.40032 -0.005,-0.60656 0.46183,-0.36772 1.21783,0.62344 1.00747,1.32086 2.08668,2.31937 2.82522,2.61396 0.33943,0.13539 0.61715,0.37265 0.61715,0.52724 0,0.49113 -0.96,0.30363 -1.86536,-0.36432 z M 79.268571,146.53808 c 0,-0.56846 1.446234,-4.39977 1.857741,-4.92145 0.532826,-0.67549 1.982259,-1.15635 1.982259,-0.65763 0,0.17045 -0.303125,0.44802 -0.673611,0.61682 -0.724105,0.32992 -1.493895,1.77299 -2.061312,3.86418 -0.203038,0.74829 -0.513467,1.30286 -0.729295,1.30286 -0.20668,0 -0.375782,-0.0922 -0.375782,-0.20478 z m 23.887539,-1.32512 c -0.96953,-0.81581 -1.51098,-1.73948 -1.7963,-3.06439 -0.14754,-0.68511 -0.0996,-0.89143 0.20697,-0.89143 0.21941,0 0.46714,0.33943 0.5505,0.75429 0.20782,1.03424 1.30953,2.61684 2.05049,2.94548 0.33628,0.14916 0.5724,0.3883 0.52469,0.53143 -0.17601,0.52801 -0.69136,0.43563 -1.53635,-0.27538 z m 80.87814,0.13706 c -0.61989,-1.15828 -1.28666,-3.55723 -1.03239,-3.71438 0.14162,-0.0875 0.31827,-0.0984 0.39256,-0.0241 0.15696,0.15696 1.45977,3.7971 1.46836,4.10271 0.012,0.42469 -0.53498,0.18423 -0.82853,-0.36426 z m -54.35987,-0.40707 c -0.10167,-0.10167 -0.11262,-0.54604 -0.0243,-0.9875 0.0883,-0.44145 0.004,-1.71893 -0.18777,-2.83884 -0.31347,-1.83256 -0.30088,-2.10858 0.12596,-2.76001 0.58157,-0.8876 1.22395,-0.51298 0.66236,0.38628 -0.28473,0.45591 -0.28916,0.88365 -0.0225,2.17456 0.18255,0.88385 0.33192,1.97713 0.33192,2.4295 0,0.87156 -0.57459,1.90704 -0.88562,1.59601 z m 71.65133,-0.12009 c 0,-0.15086 0.12757,-0.27429 0.28349,-0.27429 0.15592,0 1.52547,-0.75022 3.04345,-1.66716 3.25658,-1.96715 4.4968,-2.44713 6.32323,-2.44713 1.74129,0 3.84599,0.52747 3.69805,0.92678 -0.0627,0.16913 -0.24309,0.27989 -0.40095,0.24612 -3.95855,-0.84664 -5.10206,-0.57996 -9.84236,2.29539 -1.88631,1.14418 -3.10491,1.50537 -3.10491,0.92029 z M 98.998156,143.53863 c -0.340042,-0.89437 -0.225215,-3.63369 0.156129,-3.72464 0.155084,-0.037 0.310429,0.70482 0.357452,1.70692 0.04574,0.97479 0.198957,1.91186 0.340478,2.08238 0.262855,0.31672 0.08386,0.67099 -0.339004,0.67099 -0.129449,0 -0.361223,-0.33104 -0.515055,-0.73565 z m 8.096414,-0.48982 c -0.21858,-0.52316 -0.39743,-1.45073 -0.39743,-2.06129 0,-1.26029 0.80293,-4.39324 1.12593,-4.39324 0.46786,0 0.49058,0.54736 0.0801,1.92964 -0.41479,1.39673 -0.40298,3.03407 0.034,4.72179 0.2879,1.11182 -0.35896,0.96067 -0.84263,-0.1969 z m 4.66286,0 c -0.42081,-1.00715 -0.5059,-2.01271 -0.23094,-2.72923 0.31688,-0.82579 0.60613,-0.42773 0.73112,1.00613 0.069,0.792 0.21828,1.71772 0.33166,2.05715 0.341,1.02089 -0.38803,0.72813 -0.83184,-0.33405 z m 100.814,0.0132 c 0,-0.25851 0.65961,-0.53947 1.96202,-0.83569 2.36567,-0.53806 2.77716,-0.74119 4.28008,-2.11281 1.42396,-1.29956 2.16352,-1.5992 3.94718,-1.5992 0.97923,0 1.34346,0.0989 1.26216,0.34286 -0.0673,0.20183 -0.61258,0.34928 -1.32572,0.35848 -1.36848,0.0177 -2.5952,0.57695 -3.56762,1.62661 -0.92769,1.00137 -1.99415,1.51942 -4.32998,2.10338 -2.41857,0.60463 -2.22812,0.59469 -2.22812,0.11637 z m -96.70597,-0.25013 c -0.20926,-0.54533 0.34638,-2.51388 0.82066,-2.9075 0.60572,-0.50271 0.78905,0.12647 0.30795,1.05683 -0.23246,0.44951 -0.42264,1.06299 -0.42264,1.3633 0,0.68145 -0.49924,1.0261 -0.70597,0.48737 z m 47.60882,-0.43477 c 0,-0.39776 3.51449,-3.68391 4.40304,-4.11697 0.90503,-0.4411 1.51299,-0.12603 0.68484,0.35492 -0.29424,0.17087 -1.42951,1.14383 -2.52283,2.16211 -1.87722,1.74839 -2.56505,2.17742 -2.56505,1.59994 z m 26.60747,-0.55764 c -1.50744,-1.24966 -0.55107,-1.45877 1.12668,-0.24635 0.60613,0.43801 1.26967,0.12693 1.83016,-0.85802 0.25849,-0.45424 0.56255,-0.82667 0.67569,-0.82762 0.45713,-0.004 0.16239,1.10481 -0.50438,1.89722 -0.90509,1.07564 -1.85975,1.08626 -3.12815,0.0348 z m -99.841751,-0.44119 c 0,-0.53681 0.134422,-1.84239 0.298714,-2.90128 0.164292,-1.05889 0.242171,-1.9818 0.173062,-2.05091 -0.06911,-0.0691 -0.485899,0.76488 -0.926203,1.85331 -0.818566,2.02348 -1.732168,2.99636 -1.348874,1.43639 0.309377,-1.25913 2.187517,-4.91078 2.489016,-4.83936 0.427748,0.10132 0.495108,2.7232 0.133981,5.21503 -0.333279,2.29968 -0.819696,3.06329 -0.819696,1.28682 z m 5.384988,-0.30285 c -0.32699,-2.38565 -0.218889,-3.24576 0.49185,-3.91347 0.949461,-0.89197 1.441635,-0.45769 0.606333,0.53501 -0.592224,0.70381 -0.647444,0.97378 -0.521112,2.54761 0.165814,2.06569 -0.313273,2.75546 -0.577071,0.83085 z m 131.780243,0.0808 c -0.6342,-1.02615 -0.72836,-2.09622 -0.26423,-3.0028 0.36924,-0.72125 2.18446,-2.65626 2.49181,-2.65626 0.48556,0 0.16958,0.76685 -0.62873,1.52583 -1.66843,1.58624 -1.83215,2.44383 -0.76184,3.99085 0.45972,0.66447 0.43716,1.06618 -0.0599,1.06618 -0.11341,0 -0.46313,-0.41571 -0.77714,-0.9238 z m -104.97497,-4.41385 c -0.75524,-0.52899 -1.37106,-2.00269 -0.99431,-2.37945 0.19163,-0.19162 0.44386,0.0529 0.79388,0.76955 0.28217,0.57772 0.69817,1.05041 0.92445,1.05041 0.34201,0 1.11303,-1.15159 1.45574,-2.17428 0.0469,-0.13985 0.22484,-0.16798 0.3955,-0.0625 0.45208,0.2794 -0.10576,1.81755 -0.93557,2.57964 -0.79264,0.72797 -0.89109,0.74098 -1.63969,0.21664 z m 13.12762,-4.29995 c -0.33408,-0.74641 -0.43984,-1.29989 -0.28109,-1.47097 0.28119,-0.30303 0.772,0.36434 1.10464,1.502 0.36052,1.23302 -0.2684,1.20933 -0.82355,-0.031 z m -4.29859,-0.48901 c -0.0858,-0.13878 0.18171,-0.51792 0.59439,-0.84254 0.87089,-0.68504 1.22456,-0.2663 0.47481,0.56216 -0.53008,0.58574 -0.83161,0.66481 -1.0692,0.28038 z M 143.52,131.65376 c -0.63864,-0.26205 -0.82438,-0.93331 -0.34092,-1.2321 0.15192,-0.0939 0.35027,0.0222 0.44077,0.2581 0.0982,0.25598 0.49358,0.42881 0.98092,0.42881 0.53046,0 0.77683,0.12008 0.70346,0.34286 -0.14319,0.43478 -0.98506,0.53025 -1.78423,0.20233 z m -26.94857,-0.13883 c -0.22629,-0.0495 -1.6047,-0.30211 -3.06313,-0.56131 -2.49419,-0.44326 -2.72064,-0.44367 -3.8122,-0.007 -0.78602,0.31451 -1.25043,0.37439 -1.43923,0.1856 -0.1888,-0.1888 0.14147,-0.45886 1.02351,-0.83695 1.55504,-0.66657 1.83938,-0.67763 3.90889,-0.15203 0.87962,0.2234 2.40159,0.4605 3.38216,0.5269 1.2394,0.0839 1.78285,0.23184 1.78285,0.48525 0,0.35315 -0.94296,0.54326 -1.78285,0.35946 z m -64.037014,20.24081 c 0.608214,-0.31591 1.808174,-0.70421 2.666578,-0.86289 2.203136,-0.40727 5.777388,-2.35249 7.486226,-4.07423 2.345363,-2.36306 4.162772,-2.63888 6.825003,-1.03576 0.876831,0.528 1.697955,0.96 1.824721,0.96 0.487489,0 1.284743,-4.36088 1.541076,-8.42949 0.09833,-1.56074 0.0032,-2.3092 -0.445985,-3.50983 -0.739377,-1.97616 -1.619905,-3.69497 -1.892893,-3.69497 -0.118483,0 -0.629602,0.30557 -1.13582,0.67905 -2.563144,1.89103 -5.823602,1.43427 -9.434009,-1.32162 -2.039362,-1.55668 -4.397629,-2.14436 -8.740004,-2.17801 -2.002406,-0.0155 -5.027654,0.0747 -6.722774,0.20057 -2.518011,0.18691 -3.296041,0.15115 -4.251429,-0.19538 C 39.61194,128.05989 38.561143,127.79417 37.92,127.7027 l -1.165715,-0.16633 -0.05268,3.2261 c -0.02897,1.77436 -0.02854,3.53467 9.62e-4,3.91181 0.02951,0.37715 0.09938,4.15922 0.155288,8.4046 0.0559,4.24538 0.181161,7.84754 0.278349,8.0048 0.09851,0.15939 0.588559,0.21908 1.107425,0.13488 0.511896,-0.0831 2.206777,0.10457 3.766403,0.41699 3.992398,0.79972 4.195877,0.82182 6.94997,0.75471 1.885525,-0.0459 2.729758,-0.19581 3.574416,-0.63452 z m 0.128441,-2.52863 c 0,-0.42307 1.130797,-2.20997 1.398521,-2.20997 0.363063,0 0.304197,0.41042 -0.215037,1.49927 -0.420568,0.88194 -1.183484,1.34008 -1.183484,0.7107 z m 2.03992,-0.0988 c -0.178847,-0.46607 0.759879,-3.25221 1.439484,-4.27239 0.718133,-1.07802 0.808823,-0.094 0.13229,1.43544 -0.29612,0.66943 -0.622244,1.59889 -0.724721,2.06546 -0.21331,0.97119 -0.626136,1.34719 -0.847053,0.77149 z m -10.241151,-3.93974 c 0.02878,-3.12756 0.204594,-4.25317 0.658374,-4.21504 0.282347,0.0237 0.281611,0.26393 -0.01012,3.30075 l -0.17127,1.78286 0.683252,-0.82286 c 0.375789,-0.45257 0.77497,-0.73191 0.887069,-0.62077 0.238111,0.2361 -1.345198,3.30334 -1.779993,3.44827 -0.199011,0.0663 -0.285777,-0.86627 -0.267311,-2.87321 z m -3.744759,1.35618 c 0.0997,-0.25981 0.355798,-1.79562 0.569108,-3.41291 0.288455,-2.18704 0.311682,-3.15897 0.09065,-3.79304 -0.356265,-1.02198 -0.06954,-1.44694 0.474377,-0.70309 0.450007,0.61542 0.486108,2.42834 0.106593,5.35287 -0.33706,2.59737 -0.479392,3.02856 -0.999705,3.02856 -0.286901,0 -0.364173,-0.15145 -0.241018,-0.47239 z m 2.313422,-2.66875 c -0.08506,-0.0851 -0.08123,-0.60639 0.0085,-1.15851 0.201665,-1.24067 0.846905,-1.57475 0.846905,-0.43849 0,0.80695 -0.573956,1.87847 -0.855425,1.597 z m 11.706633,-1.02433 c -0.06399,-0.19813 -0.175985,-1.40939 -0.248878,-2.69167 -0.07289,-1.28229 -0.219204,-2.60914 -0.325136,-2.94857 -0.143523,-0.45988 -0.08278,-0.61715 0.238387,-0.61715 0.490722,0 0.630556,0.66914 0.843294,4.03533 0.08386,1.32689 0.0327,2.32024 -0.124485,2.41739 -0.14676,0.0907 -0.319191,0.003 -0.383182,-0.19533 z m 1.355438,-3.85739 c -0.547474,-3.06408 -0.963097,-4.1454 -1.792417,-4.66332 -0.584718,-0.36517 -0.732686,-1.0281 -0.229473,-1.0281 0.170759,0 0.70547,0.41882 1.188249,0.93071 0.764928,0.81106 0.952753,1.32812 1.460954,4.02184 0.320746,1.70011 0.519321,3.19443 0.441278,3.32071 -0.366392,0.59283 -0.603882,0.019 -1.068591,-2.58184 z m 3.337522,-3.52299 c -0.704721,-0.46678 -1.281311,-1.02221 -1.281311,-1.23428 0,-0.55542 0.275671,-0.47304 1.488861,0.44491 1.292776,0.97816 2.425236,1.04741 4.46296,0.27291 1.242992,-0.47244 1.621595,-0.50278 2.948572,-0.23628 2.000648,0.40179 2.016432,0.91218 0.02096,0.67765 -1.158389,-0.13615 -1.832186,-0.0508 -2.948571,0.37352 -2.056995,0.78182 -3.167206,0.7112 -4.691467,-0.29843 z"
       id="path1" />
  </g>
</svg>
