<?xml version="1.0" encoding="UTF-8" standalone="no"?>
<!-- Created with Inkscape (http://www.inkscape.org/) -->

<svg
   version="1.1"
   id="svg1"
   width="294.58286"
   height="294.58286"
   viewBox="0 0 294.58286 294.58286"
   sodipodi:docname="terlingua-marble.svg"
   inkscape:version="1.3.2 (091e20e, 2023-11-25, custom)"
   xmlns:inkscape="http://www.inkscape.org/namespaces/inkscape"
   xmlns:sodipodi="http://sodipodi.sourceforge.net/DTD/sodipodi-0.dtd"
   xmlns="http://www.w3.org/2000/svg"
   xmlns:svg="http://www.w3.org/2000/svg">
  <defs
     id="defs1" />
  <sodipodi:namedview
     id="namedview1"
     pagecolor="#ffffff"
     bordercolor="#000000"
     borderopacity="0.25"
     inkscape:showpageshadow="2"
     inkscape:pageopacity="0.0"
     inkscape:pagecheckerboard="0"
     inkscape:deskcolor="#d1d1d1"
     inkscape:zoom="2.1759583"
     inkscape:cx="147.29143"
     inkscape:cy="147.29143"
     inkscape:window-width="1600"
     inkscape:window-height="837"
     inkscape:window-x="-8"
     inkscape:window-y="-8"
     inkscape:window-maximized="1"
     inkscape:current-layer="g1" />
  <g
     inkscape:groupmode="layer"
     inkscape:label="Image"
     id="g1">
    <path
       style="fill:#000000"
       d="m 227.89061,204.43341 c -0.26453,-0.0702 -0.53305,-0.54088 -0.64692,-1.13389 -0.29583,-1.54062 -0.2077,-22.39384 0.12485,-29.53952 0.96356,-20.70519 1.7501,-30.14511 4.27364,-51.29143 0.6661,-5.58171 1.70925,-14.77714 2.31811,-20.43428 1.32985,-12.356142 1.85314,-16.519737 3.43006,-27.291433 1.16645,-7.967893 2.41279,-19.331004 2.73768,-24.96 0.0871,-1.508572 0.23041,-3.665039 0.31852,-4.792149 0.14703,-1.880718 0.1891,-1.993531 0.51148,-1.371428 0.69255,1.336419 1.25022,4.877327 0.96712,6.140603 -0.26879,1.199374 -0.14688,1.923896 0.62693,3.725831 0.22674,0.528 0.62596,2.070857 0.88716,3.428571 0.27195,1.413563 0.79878,3.054688 1.23271,3.84 0.41678,0.754286 0.91444,2.112 1.10591,3.017143 0.19147,0.905143 0.619,2.201143 0.95006,2.88 0.33107,0.678857 0.81566,1.913143 1.07687,2.742857 0.26121,0.829715 1.1595,2.866286 1.9962,4.525715 0.8367,1.659428 1.74017,3.728759 2.0077,4.598513 0.26754,0.869754 0.91197,2.227468 1.43207,3.017143 1.07296,1.629079 1.44751,2.70247 1.69739,4.864343 0.0959,0.829715 0.67898,3.051429 1.29573,4.937143 1.852,5.662495 1.8289,6.128869 -1.81402,36.617138 -1.94997,16.31968 -2.69953,24.97469 -3.71754,42.92572 -0.29961,5.28321 -1.41042,11.88737 -2.60661,15.49714 -1.44997,4.37565 -4.45731,11.18636 -5.63852,12.76953 -0.59717,0.8004 -1.08576,1.5564 -1.08576,1.68001 0,0.12361 -0.56072,0.22475 -1.24604,0.22475 -1.09162,0 -1.40604,-0.1486 -2.53714,-1.19909 -1.59695,-1.48312 -2.32472,-1.73835 -3.24238,-1.13708 -0.55481,0.36353 -0.65744,0.60099 -0.52343,1.2111 0.20899,0.95155 -0.23393,2.99125 -0.76485,3.52217 -0.64256,0.64256 -4.02683,1.28765 -5.16698,0.98488 z m -10.47767,-13.63765 c -1.04493,-1.36997 -3.73942,-2.53951 -6.39463,-2.77559 -1.18236,-0.10512 -3.07545,-0.36829 -4.20688,-0.58482 -1.13143,-0.21654 -4.2565,-0.62372 -6.94461,-0.90485 -2.6881,-0.28113 -4.92933,-0.55407 -4.98049,-0.60654 -0.0512,-0.0525 -0.23128,-2.87253 -0.40024,-6.26682 -0.16896,-3.39428 -0.60989,-11.72571 -0.97983,-18.51428 -1.10312,-20.24263 -1.19591,-22.45587 -2.05819,-49.09715 -0.15625,-4.82742 -0.52511,-15.071996 -0.81968,-22.765711 -0.29458,-7.693714 -0.56933,-15.469108 -0.61056,-17.278653 l -0.075,-3.290082 4.38857,-0.32325 c 2.41371,-0.177788 4.76832,-0.261241 5.23247,-0.185452 1.05119,0.171647 7.9132,-0.618959 10.12398,-1.166436 0.93677,-0.231981 1.94469,-0.696498 2.34644,-1.081396 0.38735,-0.371102 0.77102,-0.67473 0.85261,-0.67473 0.0816,0 0.23298,2.746285 0.33641,6.102857 0.10344,3.356571 0.36563,10.299428 0.58265,15.428571 0.21703,5.129143 0.58482,15.188572 0.81732,22.354282 0.86548,26.67427 1.3827,39.11638 2.05807,49.50857 0.14705,2.26286 0.51245,9.36 0.81198,15.77143 0.29953,6.41143 0.61889,12.92229 0.70968,14.46857 0.0908,1.54629 0.10976,2.81143 0.0421,2.81143 -0.0676,0 -0.44212,-0.41848 -0.83224,-0.92995 z m -45.16151,-9.47365 c -0.82972,-0.27856 -2.80457,-0.90434 -4.38857,-1.39063 -1.584,-0.48628 -3.37372,-1.1375 -3.97715,-1.44715 -0.60343,-0.30965 -3.62743,-1.40166 -6.72,-2.42669 l -5.62285,-1.86369 -0.20592,-1.5884 c -0.33169,-2.55861 -0.30211,-37.64792 0.0387,-45.88555 0.63285,-15.29733 2.18907,-32.767853 4.02654,-45.203122 0.3722,-2.518855 0.81527,-5.52368 0.98461,-6.67739 l 0.3079,-2.097654 1.53838,-0.28935 c 0.84611,-0.159142 3.82181,-0.48393 6.61266,-0.72175 5.50918,-0.469459 12.82571,-1.160959 14.8395,-1.40251 l 1.26236,-0.151418 -0.64794,3.329376 c -2.00104,10.28223 -3.89875,26.033776 -5.02317,41.693818 -0.91376,12.72607 -1.2723,34.13591 -0.85896,51.29143 0.17265,7.16571 0.38707,13.55314 0.47649,14.19428 0.1521,1.09057 0.12079,1.16498 -0.4857,1.1543 -0.35656,-0.006 -1.32715,-0.23934 -2.15686,-0.5179 z M 131.52,168.66301 c -2.11391,-0.64182 -14.22765,-2.32309 -18.99429,-2.63622 l -2.53714,-0.16667 v -2.67106 c 0,-10.63651 3.82634,-50.9266 7.45349,-78.482647 l 1.14356,-8.687872 2.3529,-0.184187 c 1.2941,-0.101303 2.81156,-0.281695 3.37213,-0.400871 0.5632,-0.119736 1.58022,-0.09703 2.27308,0.05074 0.84616,0.180468 1.99837,0.168347 3.54355,-0.03728 1.25932,-0.167585 4.3201,-0.483204 6.80173,-0.701376 2.48162,-0.218172 4.72621,-0.478862 4.98798,-0.579312 0.41052,-0.15753 0.45413,-0.05504 0.31722,0.745554 -0.16365,0.956977 -2.00787,14.84419 -2.74588,20.676761 -0.22905,1.810286 -0.84591,7.179429 -1.37079,11.931429 -3.00498,27.20553 -4.35644,42.79786 -4.97465,57.39428 -0.11776,2.78033 -0.26967,4.03835 -0.48569,4.02214 -0.17289,-0.013 -0.68463,-0.136 -1.1372,-0.27341 z m -44.869289,-3.19995 -8.663573,-0.0764 -0.318529,-4.86478 c -1.343133,-20.5132 -0.954488,-34.02121 1.623586,-56.43049 0.824559,-7.167278 2.898837,-21.301426 3.763676,-25.645716 l 0.464128,-2.331429 11.820809,-0.07145 11.820812,-0.07145 -0.77699,4.136052 c -2.2468,11.960079 -4.59854,30.20134 -5.6382,43.73257 -0.5692,7.40816 -0.63893,23.51978 -0.13473,31.13143 0.17488,2.64 0.40011,6.12685 0.50053,7.74857 l 0.18256,2.94857 -2.990251,-0.0646 c -1.64464,-0.0355 -6.888862,-0.0989 -11.653828,-0.14093 z m -46.680742,-5.21163 c 0.352346,-2.67772 1.381532,-9.62057 2.287081,-15.42857 1.592796,-10.21587 2.410458,-15.30711 5.594433,-34.83429 0.824026,-5.05371 2.000468,-12.521142 2.614315,-16.594285 1.205937,-8.001915 2.416834,-15.536288 2.655953,-16.525714 l 0.149147,-0.617143 h 11.798836 11.798837 l -0.183195,0.891429 c -0.455173,2.214871 -1.878137,10.932006 -3.033421,18.582857 -0.694776,4.601146 -2.240061,14.351996 -3.433967,21.668566 -4.054176,24.84508 -6.110855,37.99211 -7.262241,46.42286 L 62.777816,165.12 H 51.053578 39.32934 Z M 21.531428,156.6206 c -1.24621,-0.72793 -1.384258,-0.90866 -1.511946,-1.97941 -0.07728,-0.64808 -0.05782,-9.50976 0.04325,-19.69262 0.101071,-10.18286 0.196234,-24.87086 0.211473,-32.64 0.01524,-7.769142 0.103842,-14.742856 0.196894,-15.497142 l 0.169186,-1.371429 6.587488,-3.977142 c 3.623119,-2.187429 6.940198,-4.26583 7.371287,-4.618668 0.431089,-0.352839 0.783799,-0.516996 0.783799,-0.364793 0,0.152203 -0.439498,1.798603 -0.976661,3.658668 -1.692508,5.860733 -3.271682,13.161219 -5.863679,27.107646 -3.037372,16.34281 -4.325038,26.76955 -4.962442,40.18286 -0.17205,3.62057 -0.394809,7.35016 -0.495018,8.28798 l -0.1822,1.70512 z"
       id="path1" />
  </g>
</svg>
