<?xml version="1.0" encoding="UTF-8" standalone="no"?>
<!-- Created with Inkscape (http://www.inkscape.org/) -->

<svg
   version="1.1"
   id="svg1"
   width="294.58286"
   height="294.58286"
   viewBox="0 0 294.58286 294.58286"
   sodipodi:docname="terlingua-hood.svg"
   inkscape:version="1.4 (86a8ad7, 2024-10-11)"
   xmlns:inkscape="http://www.inkscape.org/namespaces/inkscape"
   xmlns:sodipodi="http://sodipodi.sourceforge.net/DTD/sodipodi-0.dtd"
   xmlns="http://www.w3.org/2000/svg"
   xmlns:svg="http://www.w3.org/2000/svg">
  <defs
     id="defs1" />
  <sodipodi:namedview
     id="namedview1"
     pagecolor="#ffffff"
     bordercolor="#000000"
     borderopacity="0.25"
     inkscape:showpageshadow="2"
     inkscape:pageopacity="0.0"
     inkscape:pagecheckerboard="0"
     inkscape:deskcolor="#d1d1d1"
     inkscape:zoom="2.766624"
     inkscape:cx="147.47215"
     inkscape:cy="147.29143"
     inkscape:window-width="1920"
     inkscape:window-height="1017"
     inkscape:window-x="-8"
     inkscape:window-y="-8"
     inkscape:window-maximized="1"
     inkscape:current-layer="g1" />
  <g
     inkscape:groupmode="layer"
     inkscape:label="Image"
     id="g1">
    <path
       style="fill:#000000"
       d="m 282.37714,265.44844 c -3.31643,-2.38328 -6.21064,-5.27927 -8.65225,-8.65759 -0.90313,-1.2496 -2.20589,-2.96424 -2.89503,-3.81032 -0.68913,-0.84607 -1.4568,-1.98367 -1.70593,-2.52799 -0.24912,-0.54433 -0.90632,-1.51878 -1.46044,-2.16545 -0.55412,-0.64667 -1.33803,-2.00439 -1.74202,-3.01714 -0.40398,-1.01276 -0.89067,-2.02652 -1.08152,-2.25281 -0.19086,-0.22628 -0.86943,-1.39886 -1.50794,-2.60571 -0.69109,-1.30623 -2.25418,-3.4661 -3.86221,-5.33679 -1.4857,-1.72837 -3.11076,-3.80135 -3.61125,-4.60661 -0.50049,-0.80527 -1.28649,-1.98314 -1.74667,-2.6175 -1.57259,-2.16783 -3.93155,-7.22953 -5.34162,-11.46168 -0.77493,-2.32587 -2.11646,-5.70999 -2.98118,-7.52028 -0.86473,-1.81029 -1.85855,-4.09371 -2.2085,-5.07429 -0.34994,-0.98057 -0.8739,-1.99358 -1.16434,-2.25114 -0.40495,-0.35909 -0.46424,-0.58757 -0.2543,-0.97986 0.30596,-0.57169 3.67145,-3.80697 4.92187,-4.73144 0.4445,-0.32864 1.53191,-1.58926 2.41647,-2.80137 0.88456,-1.21212 2.72306,-3.57527 4.08556,-5.25145 2.9655,-3.64822 4.03355,-5.17028 4.63037,-6.59869 0.24593,-0.58859 0.87551,-3.36451 1.39905,-6.1687 0.52355,-2.80419 1.18622,-5.77583 1.4726,-6.60365 0.29913,-0.86465 0.60329,-2.7632 0.71478,-4.46161 l 0.19408,-2.95648 -0.7203,-0.56659 c -1.61638,-1.27144 -2.37901,-4.78704 -1.41563,-6.52582 0.2642,-0.47683 0.29605,-0.91976 0.11364,-1.58038 -0.27317,-0.98935 -0.16342,-3.39079 0.30491,-6.67139 0.73355,-5.13848 2.22299,-7.42282 3.77854,-5.79513 0.26988,0.28239 1.04748,0.5941 1.72799,0.69269 1.09969,0.15932 1.32849,0.32291 2.05715,1.47087 1.23038,1.9384 1.58284,3.17076 1.25078,4.37336 -0.36174,1.31013 -0.1503,2.0755 0.75913,2.74787 0.40558,0.29986 1.07626,1.03414 1.4904,1.63175 0.69388,1.00127 0.73269,1.19354 0.49448,2.4496 -0.29591,1.56031 -0.11584,3.4734 0.4285,4.55243 0.84401,1.67306 0.97865,3.32927 0.49939,6.14273 -0.70288,4.12625 -1.17162,5.64628 -2.06423,6.69383 -0.4499,0.528 -1.06031,1.49138 -1.35647,2.14084 -0.29616,0.64946 -1.05045,2.04262 -1.6762,3.09591 -0.62574,1.05329 -1.24428,2.49677 -1.37452,3.20773 -0.13023,0.71097 -0.60716,2.00418 -1.05982,2.87382 -0.45267,0.86963 -0.82598,1.98049 -0.82958,2.46857 -0.004,0.48808 -0.12642,1.38113 -0.27293,1.98456 -1.07177,4.41407 -1.09415,4.70023 -0.53133,6.79369 1.70752,6.35131 2.67652,11.32819 2.71078,13.92279 0.0189,1.43374 1.05895,4.53503 1.85051,5.51818 0.95649,1.18798 1.73175,3.4224 2.25369,6.4955 0.31467,1.85273 0.75189,4.0098 0.9716,4.7935 0.2197,0.7837 0.52731,3.1257 0.68357,5.20443 0.15627,2.07874 0.47413,4.5128 0.70636,5.40903 0.72891,2.81295 2.73562,7.46864 4.03811,9.36864 0.95195,1.38867 1.36579,2.3408 1.72863,3.97714 0.26237,1.18326 0.69824,3.13882 0.96859,4.34567 0.3668,1.63743 0.88095,2.84299 2.02601,4.7505 2.07332,3.45386 2.80975,4.95051 3.20157,6.50658 0.32048,1.27272 0.3078,1.33249 -0.41431,1.95362 -0.89955,0.77376 -0.91605,0.77403 -1.94859,0.032 z"
       id="path1" />
  </g>
</svg>
