<?xml version="1.0" encoding="UTF-8" standalone="no"?>
<!-- Created with Inkscape (http://www.inkscape.org/) -->

<svg
   version="1.1"
   id="svg1"
   width="294.58286"
   height="294.58286"
   viewBox="0 0 294.58286 294.58286"
   sodipodi:docname="terlingua-medium-3-v-outline.svg"
   inkscape:version="1.4 (86a8ad7, 2024-10-11)"
   xmlns:inkscape="http://www.inkscape.org/namespaces/inkscape"
   xmlns:sodipodi="http://sodipodi.sourceforge.net/DTD/sodipodi-0.dtd"
   xmlns="http://www.w3.org/2000/svg"
   xmlns:svg="http://www.w3.org/2000/svg">
  <defs
     id="defs1" />
  <sodipodi:namedview
     id="namedview1"
     pagecolor="#ffffff"
     bordercolor="#000000"
     borderopacity="0.25"
     inkscape:showpageshadow="2"
     inkscape:pageopacity="0.0"
     inkscape:pagecheckerboard="0"
     inkscape:deskcolor="#d1d1d1"
     inkscape:zoom="2.766624"
     inkscape:cx="147.47215"
     inkscape:cy="147.29143"
     inkscape:window-width="1920"
     inkscape:window-height="1017"
     inkscape:window-x="-8"
     inkscape:window-y="-8"
     inkscape:window-maximized="1"
     inkscape:current-layer="g1" />
  <g
     inkscape:groupmode="layer"
     inkscape:label="Image"
     id="g1">
    <path
       style="fill:#000000"
       d="m 255.49714,185.8012 c -0.45257,-0.38134 -1.54768,-1.19405 -2.43357,-1.80601 -1.41948,-0.98055 -9.5778,-9.01376 -10.11371,-9.95861 -0.57867,-1.02022 -6.10447,-4.20635 -8.78701,-5.06651 -0.57043,-0.18291 -1.55786,-0.62153 -2.19428,-0.97471 -2.22352,-1.23393 -4.92533,-2.10181 -6.01661,-1.93266 -0.62732,0.0972 -1.47138,-0.009 -2.19429,-0.27734 -0.64615,-0.23944 -1.63198,-0.42072 -2.19074,-0.40285 -0.65555,0.021 -1.72546,-0.3117 -3.01619,-0.93786 -2.38096,-1.15505 -2.90558,-1.18318 -4.88217,-0.26177 -2.07009,0.96499 -3.48098,1.18102 -5.96894,0.91393 -3.21033,-0.34464 -3.96965,-0.6595 -5.9766,-2.47828 l -1.8356,-1.66349 -1.26943,1.20943 c -2.24456,2.13847 -3.88429,2.39491 -6.44504,1.00795 -1.76393,-0.95539 -1.77375,-0.95528 -6.40018,0.0741 -2.95732,0.65798 -3.9363,0.5873 -6.24127,-0.45064 -0.4589,-0.20664 -1.54113,-0.57312 -2.40494,-0.8144 -1.89701,-0.52986 -2.19995,-0.98935 -1.96579,-2.98168 0.15029,-1.27877 0.0918,-1.57402 -0.43108,-2.17536 -0.51069,-0.58735 -0.93257,-0.72612 -2.70733,-0.89054 -2.37369,-0.2199 -3.37747,-0.56677 -4.58363,-1.58396 -0.55712,-0.46983 -1.53581,-0.84928 -2.93701,-1.13871 -2.58843,-0.53465 -3.92843,-0.54749 -5.33532,-0.0511 -0.59698,0.21062 -2.18621,0.46851 -3.53163,0.57307 -1.34541,0.10456 -3.06335,0.37223 -3.81764,0.59482 -0.75428,0.22259 -2.80581,0.47585 -4.55895,0.5628 l -3.18753,0.1581 -3.80676,-1.45138 c -2.09372,-0.79825 -4.31904,-1.73209 -4.94517,-2.07519 -1.88277,-1.03171 -3.50711,-2.10305 -3.80923,-2.51239 -0.15663,-0.21222 -1.08234,-0.48602 -2.05714,-0.60846 -1.01255,-0.12718 -2.34841,-0.53042 -3.11607,-0.94061 -1.23009,-0.65729 -1.61277,-0.71754 -4.52571,-0.71249 -3.29349,0.006 -5.0272,0.20001 -8.51801,0.95461 -1.71478,0.37069 -2.3538,0.38982 -3.96159,0.11863 -1.05436,-0.17784 -4.57773,-0.34209 -7.82971,-0.36501 -5.496971,-0.0387 -6.031996,0.002 -7.609401,0.57332 -1.405721,0.50952 -2.081394,0.59247 -3.93983,0.48369 -1.23372,-0.0722 -2.355414,-0.2007 -2.492653,-0.28552 -0.13724,-0.0848 -0.771173,0.0414 -1.408742,0.28054 -0.637569,0.23912 -2.279515,0.6709 -3.648769,0.95952 -2.8083,0.59194 -4.589649,0.47622 -7.933304,-0.5154 -4.216021,-1.25032 -9.529165,-1.21885 -18.24,0.10805 -1.433143,0.21831 -4.333714,0.65843 -6.445714,0.97806 -3.93624,0.59569 -7.448121,1.30579 -9.874286,1.99657 -1.767825,0.50333 -3.832946,0.72606 -4.263679,0.45986 -0.264796,-0.16366 -0.272889,-1.08831 -0.03749,-4.28343 0.194104,-2.63464 0.213319,-5.09256 0.05437,-6.95472 -0.135207,-1.584 -0.222417,-5.5074 -0.193799,-8.71867 0.04324,-4.85189 0.121567,-5.88262 0.46346,-6.09866 1.086631,-0.68664 5.138084,-0.0248 7.067795,1.15462 0.788983,0.48221 1.342893,0.5437 4.623726,0.51327 2.057738,-0.0191 3.870766,0.0844 4.047506,0.23112 0.176081,0.14614 2.662261,0.35199 5.524845,0.45745 3.145305,0.11588 5.476023,0.32411 5.890414,0.52625 1.791179,0.87376 5.497564,1.37293 14.125714,1.90244 1.810286,0.1111 4.135492,0.38959 5.167124,0.61888 2.299253,0.51102 4.108498,0.2939 5.199295,-0.62395 0.431438,-0.36303 1.114348,-0.72691 1.517578,-0.80862 0.973396,-0.19725 2.137343,-0.54592 3.478478,-1.042 1.201713,-0.44451 3.782793,-0.51954 9.805497,-0.28504 3.08478,0.12011 4.02652,0.063 5.15868,-0.31309 0.92806,-0.30825 1.76438,-0.40108 2.53489,-0.28136 0.63244,0.0983 1.95217,0.20376 2.93274,0.23444 1.61179,0.0504 1.9671,0.17657 3.70286,1.3146 2.55916,1.67788 5.00493,2.39566 8.77714,2.5759 1.65943,0.0793 3.81943,0.21247 4.8,0.29595 1.91856,0.16335 1.71652,0.24806 4.1908,-1.75716 1.17825,-0.95489 1.37753,-0.97725 3.95111,-0.44343 0.65015,0.13486 1.27456,-0.009 2.44328,-0.56154 1.78936,-0.8465 3.00671,-0.85012 7.9291,-0.0235 1.50857,0.25333 4.28571,0.7181 6.17143,1.03284 3.39544,0.56672 5.03862,1.13866 5.75651,2.00367 0.20419,0.24603 0.81307,0.63044 1.35308,0.85424 0.54001,0.2238 1.96926,1.37361 3.17612,2.55513 1.88799,1.84835 2.38572,2.18806 3.56572,2.4337 0.75428,0.15701 2.35885,0.49869 3.56571,0.75928 1.82507,0.39407 2.39402,0.41836 3.38135,0.14436 1.18677,-0.32935 1.18702,-0.3297 1.00866,-1.38545 -0.21411,-1.26728 -0.25708,-1.24659 3.58454,-1.72592 4.20278,-0.52439 4.64387,-0.43161 5.63933,1.18621 0.45824,0.74474 0.91272,1.35408 1.00995,1.35408 0.0972,0 0.91811,-0.45757 1.82418,-1.01683 1.71651,-1.05949 3.31213,-1.28326 4.52437,-0.63449 0.28764,0.15394 0.89335,0.27989 1.34602,0.27989 1.06497,0 2.21537,0.4428 2.95833,1.13868 0.39513,0.3701 0.89513,0.53088 1.50857,0.4851 0.50466,-0.0377 1.90499,0.0185 3.11184,0.12487 1.54017,0.1357 2.88929,0.0675 4.52572,-0.22871 1.28228,-0.23212 3.20035,-0.42221 4.26237,-0.42242 1.06202,-2.1e-4 2.66659,-0.19108 3.56571,-0.42417 2.04302,-0.52962 5.16727,-1.95047 5.78168,-2.62939 0.25511,-0.28189 0.5692,-0.51253 0.69798,-0.51253 0.12878,0 0.72262,-0.35384 1.31963,-0.78632 1.75534,-1.27156 5.41983,-2.69668 7.47524,-2.90712 3.27207,-0.33501 5.87721,0.89444 6.41223,3.02612 0.11956,0.47637 0.45563,0.73978 1.19937,0.94005 2.25222,0.60646 4.98318,1.94251 8.02635,3.92668 5.0323,3.28111 4.91899,3.23864 11.96126,4.4838 2.52943,0.44723 2.87885,0.57909 3.20477,1.20935 0.20119,0.38907 0.5662,0.87371 0.81113,1.07698 0.24493,0.20327 0.76133,0.90881 1.14756,1.56787 0.60384,1.03037 0.71868,1.60615 0.81953,4.10893 0.0645,1.60086 0.2351,3.13079 0.3791,3.39984 0.14399,0.26905 0.2618,2.54122 0.2618,5.04926 0,3.89967 -0.10114,5.0046 -0.69839,7.62946 -0.84057,3.6942 -1.48394,7.20769 -1.49084,8.14157 -0.003,0.37598 -0.57448,1.85713 -1.27044,3.29143 -0.69597,1.4343 -1.63834,3.38391 -2.09416,4.33247 -0.71297,1.4837 -1.61177,2.55147 -2.11863,2.51691 -0.0796,-0.005 -0.51497,-0.32187 -0.96754,-0.70322 z m 2.57388,-3.74465 c 0.35784,-0.94253 1.02664,-2.38348 1.48621,-3.20212 0.65389,-1.16477 0.96736,-2.29795 1.44163,-5.21142 0.33332,-2.04766 0.83188,-4.5253 1.10791,-5.50587 0.41305,-1.46736 0.49601,-2.70506 0.46882,-6.99428 -0.0417,-6.58218 -0.38527,-11.3178 -0.88543,-12.20572 -0.21244,-0.37714 -0.81999,-1.20541 -1.3501,-1.84059 -0.83542,-1.00102 -1.20396,-1.20841 -2.76623,-1.5567 -0.99132,-0.22099 -2.54297,-0.48355 -3.44812,-0.58345 -2.95559,-0.32621 -4.71445,-1.12479 -9.83939,-4.46742 -2.73438,-1.78344 -5.04217,-2.88025 -7.30293,-3.47083 -1.21255,-0.31676 -1.31929,-0.43023 -2.19177,-2.3301 -0.10044,-0.21872 -0.52155,-0.65072 -0.9358,-0.96 -0.62067,-0.4634 -1.14779,-0.55974 -2.99593,-0.54757 -2.77477,0.0183 -5.0415,0.90074 -9.04295,3.52054 -2.86374,1.87494 -5.41666,2.96363 -8.08358,3.44723 -0.90584,0.16426 -2.41399,0.61032 -3.35143,0.99123 -1.94666,0.791 -5.83375,2.8876 -6.88316,3.71259 -0.77514,0.60939 -2.57008,1.10887 -3.16476,0.88067 -0.61057,-0.2343 -0.19587,-0.55103 0.9644,-0.73656 0.5951,-0.0952 1.43545,-0.47043 1.86746,-0.83394 0.432,-0.36351 2.1387,-1.36504 3.79265,-2.22561 1.65396,-0.86058 3.06891,-1.63217 3.14434,-1.71464 0.0754,-0.0825 0.0118,-0.079 -0.14144,0.008 -0.15322,0.0867 -1.24937,0.2926 -2.43588,0.45763 -1.18652,0.16503 -2.48058,0.47982 -2.87571,0.69953 -1.85767,1.03297 -2.96501,1.50452 -3.54602,1.51004 -0.89317,0.008 -0.49392,-0.48007 0.82286,-1.00694 0.97982,-0.39204 1.04607,-0.47366 0.59381,-0.73149 -0.27998,-0.15962 -1.51103,-0.30144 -2.73567,-0.31515 -1.99984,-0.0224 -2.31627,-0.10036 -3.10676,-0.76552 -0.54828,-0.46134 -1.20833,-0.74171 -1.75052,-0.74356 -0.47872,-0.002 -1.47629,-0.18677 -2.21684,-0.41143 -0.74055,-0.22465 -1.42356,-0.40846 -1.51782,-0.40846 -0.0942,0 -0.8419,0.432 -1.66144,0.96 -2.26902,1.46185 -3.51147,1.27563 -4.52158,-0.67771 -0.23371,-0.45194 -0.69037,-0.81944 -1.12042,-0.90165 -0.83234,-0.15911 -5.1108,0.2996 -5.35401,0.57402 -0.18477,0.20848 -1.08223,9.49226 -1.07825,11.15392 0.001,0.60342 -0.11583,1.52914 -0.2606,2.05714 -0.27035,0.98598 -0.87538,8.54976 -0.69808,8.72706 0.0543,0.0543 0.63298,0.21575 1.28587,0.35869 0.65289,0.14294 1.70653,0.50049 2.34142,0.79456 1.8618,0.86235 3.12198,1.05012 4.48504,0.66829 2.59749,-0.72765 4.90901,-1.22289 5.70784,-1.22289 0.45889,0 1.42606,0.34692 2.14927,0.77093 0.72321,0.42401 1.52745,0.8508 1.7872,0.94843 0.78399,0.29465 2.20304,-0.3631 3.43034,-1.59001 1.86676,-1.86617 2.33105,-1.81992 4.91535,0.48966 1.9466,1.73967 3.19577,2.15461 6.58583,2.18761 1.89104,0.0184 2.37592,-0.0875 4.01896,-0.8781 2.22692,-1.0715 3.11703,-1.03541 5.83531,0.23663 1.07327,0.50224 2.21619,0.8353 2.81217,0.8195 0.55223,-0.0147 1.45967,0.17044 2.01653,0.41132 0.6717,0.29054 1.41026,0.38534 2.19429,0.28165 0.99679,-0.13183 1.65413,0.0446 4.19895,1.12679 1.65942,0.7057 4.18714,1.77621 5.61714,2.37891 4.75506,2.00409 5.9591,2.87229 10.56571,7.61866 1.81029,1.86521 3.80214,3.91303 4.42635,4.55072 0.6242,0.63769 2.16493,1.91546 3.42384,2.8395 2.23742,1.64226 2.29833,1.6676 2.70671,1.1262 0.22978,-0.30463 0.71056,-1.32503 1.06841,-2.26756 z m -7.76795,-9.32512 c -0.0564,-0.18857 -0.43296,-1.45372 -0.83678,-2.81143 -0.70055,-2.35537 -2.14265,-5.99065 -3.62479,-9.13751 -0.69108,-1.46728 -0.67112,-2.13868 0.0418,-1.40616 1.00868,1.03639 5.08812,11.62525 5.08812,13.20705 0,0.55681 -0.51214,0.67026 -0.66836,0.14805 z m 5.6877,-8.23045 c -2.10238,-4.16439 -2.97282,-6.53874 -2.70838,-7.38776 0.0615,-0.19742 0.18695,-0.70148 0.2788,-1.12014 0.26918,-1.22682 2.85932,-3.76451 3.84233,-3.76451 0.49328,0 -0.0427,0.80275 -1.00723,1.50857 -1.7781,1.30116 -2.27278,2.14602 -2.25621,3.85334 0.0125,1.2932 0.31578,2.08954 2.4,6.30293 1.3121,2.6525 2.38563,4.87759 2.38563,4.94465 0,0.0671 -0.15428,0.12109 -0.34285,0.12006 -0.18858,-0.001 -1.35501,-2.00674 -2.59209,-4.45714 z m -30.59805,-1.18826 c -0.0951,-0.0951 0.13166,-0.65557 0.504,-1.2454 0.37234,-0.58983 0.88995,-1.646 1.15025,-2.34705 0.54603,-1.47064 1.35317,-2.03646 1.05402,-0.73889 -0.24893,1.0797 -1.88436,4.2941 -2.24385,4.4102 -0.16028,0.0518 -0.36927,0.0163 -0.46442,-0.0789 z m 9.67014,-0.60395 c 0,-0.96897 0.82976,-2.91422 1.58779,-3.72233 0.88963,-0.9484 2.64292,-1.80637 3.70839,-1.8147 1.08774,-0.009 0.6897,0.42343 -0.86655,0.94033 -1.85295,0.61546 -3.18841,2.14216 -3.59289,4.10742 -0.18951,0.92081 -0.83674,1.29927 -0.83674,0.48928 z m -11.24572,-1.02191 c 0,-0.0779 0.68779,-1.51312 1.52842,-3.1893 1.00168,-1.99729 1.62137,-2.95463 1.79814,-2.77786 0.34613,0.34613 -2.44813,6.10887 -2.9621,6.10887 -0.20045,0 -0.36446,-0.0638 -0.36446,-0.14171 z m -5.65442,-0.80163 c -0.24327,-0.63396 0.52366,-1.92787 1.19985,-2.02431 0.41276,-0.0589 0.61457,0.0537 0.61457,0.34286 0,0.23678 -0.18823,0.4305 -0.41828,0.4305 -0.24534,0 -0.48634,0.34024 -0.58286,0.82286 -0.17513,0.87564 -0.56316,1.07989 -0.81328,0.42809 z m -32.54349,-0.0431 c -0.35186,-0.35186 -0.21957,-1.12544 0.30278,-1.77052 0.27767,-0.34291 0.57007,-0.51087 0.64976,-0.37324 0.20246,0.34967 -0.70479,2.39151 -0.95254,2.14376 z m 22.46474,-0.0267 c -0.31257,-0.31257 -0.1898,-0.50576 0.62858,-0.98919 0.89639,-0.52951 1.36801,-0.21831 0.62955,0.41541 -0.70691,0.60665 -1.06291,0.769 -1.25813,0.57378 z m -14.27811,-1.00099 c -0.53865,-0.43101 -0.69479,-0.70493 -0.47812,-0.83884 0.34395,-0.21257 1.96369,0.79865 1.96369,1.22596 0,0.4461 -0.6588,0.27443 -1.48557,-0.38712 z m 21.1068,-0.2487 c -0.0606,-0.18857 -0.23433,-1.392 -0.38613,-2.67428 -0.1518,-1.28229 -0.36394,-2.62567 -0.47143,-2.9853 -0.31992,-1.07036 0.5214,-0.55869 0.88413,0.53772 0.48215,1.45739 0.77181,5.46472 0.39499,5.46472 -0.17129,0 -0.361,-0.15429 -0.42156,-0.34286 z m -34.13913,-1.41681 c -0.40249,-0.48497 -0.52807,-2.59562 -0.15639,-2.62845 0.15086,-0.0133 0.3561,0.38227 0.45609,0.87909 0.1,0.49682 0.26868,1.18103 0.37485,1.52046 0.21754,0.69545 -0.17641,0.82913 -0.67455,0.2289 z m 16.27009,-0.48423 c -0.27132,-0.43901 0.23225,-0.75549 2.3887,-1.50119 1.11679,-0.38618 2.17935,-0.82295 2.36123,-0.97059 0.18188,-0.14764 0.79323,-1.20455 1.35856,-2.34869 1.72709,-3.49536 3.48593,-5.51594 4.82503,-5.54305 0.73815,-0.0149 0.56952,0.43522 -0.29756,0.79437 -0.99603,0.41257 -2.46467,2.34409 -3.76826,4.95591 -1.14345,2.29098 -1.91843,3.28775 -2.56485,3.29885 -0.2377,0.004 -1.2652,0.36279 -2.28332,0.79714 -1.12093,0.4782 -1.91756,0.68224 -2.01953,0.51725 z m 8.12209,-0.8982 c 0,-0.0687 0.30857,-0.57967 0.68572,-1.13542 0.37714,-0.55575 0.68571,-1.31692 0.68571,-1.69148 0,-0.5867 0.0594,-0.6317 0.42906,-0.32494 0.52212,0.43332 0.33873,1.35679 -0.49277,2.48146 -0.4973,0.67263 -1.30772,1.08808 -1.30772,0.67038 z m -9.42034,-1.47378 c -0.24967,-0.27588 -0.45394,-0.68637 -0.45394,-0.91219 0,-0.47816 1.1192,-1.60336 1.59482,-1.60336 0.52269,0 0.37544,0.55708 -0.28958,1.09559 -0.5872,0.47548 -0.59335,0.52146 -0.13715,1.02556 0.26269,0.29027 0.47762,0.61061 0.47762,0.71188 0,0.37032 -0.75017,0.17048 -1.19177,-0.31748 z m 3.52392,-0.3201 c -0.0928,-0.15021 0.14222,-0.41482 0.52235,-0.58802 0.44606,-0.20324 1.09153,-1.0845 1.82029,-2.48527 0.62103,-1.1937 1.25195,-2.12944 1.40204,-2.07941 0.39738,0.13246 0.31471,0.41699 -0.74325,2.55814 -0.60479,1.224 -1.245,2.10376 -1.7465,2.4 -0.92143,0.5443 -1.02852,0.56091 -1.25493,0.19456 z m -1.59448,-0.45206 c -0.0971,-0.0971 0.1822,-0.58529 0.62076,-1.08477 0.43855,-0.49948 1.06045,-1.62343 1.382,-2.49767 0.32155,-0.87424 0.79307,-1.83949 1.04782,-2.14501 0.82813,-0.99318 2.48227,-2.09791 2.9873,-1.99508 0.38387,0.0782 0.23204,0.2912 -0.68582,0.96231 -1.53774,1.12436 -2.07104,1.83945 -2.62288,3.51695 -0.24971,0.75907 -0.83232,1.83907 -1.29469,2.4 -0.8409,1.02016 -1.10333,1.17443 -1.43449,0.84327 z m -19.3891,-1.40496 c 0,-0.1377 0.648,-0.95003 1.44,-1.80518 l 1.44,-1.55482 1.86004,0.002 c 1.422,0.002 1.89829,0.10189 2.02246,0.42548 0.2342,0.61031 0.13102,0.63399 -1.67327,0.38401 -0.89692,-0.12426 -1.7776,-0.14074 -1.95706,-0.0366 -0.17947,0.10413 -0.74747,0.74419 -1.26223,1.42236 -0.86091,1.13419 -1.86994,1.7615 -1.86994,1.16254 z m 13.16572,-1.81765 c 0,-0.3069 0.24993,-0.44078 0.82285,-0.44078 0.45258,0 0.82286,0.12343 0.82286,0.27429 0,0.15085 -0.17505,0.27428 -0.38899,0.27428 -0.21395,0 -0.58424,0.0749 -0.82286,0.16649 -0.28471,0.10925 -0.43386,0.015 -0.43386,-0.27428 z m 26.60571,-1.08398 c 0,-0.439 0.86907,-1.2768 1.32446,-1.2768 0.4997,0 0.38116,0.39667 -0.31357,1.04933 -0.73105,0.6868 -1.01089,0.74976 -1.01089,0.22747 z m -27.42857,-1.24352 c 0,-0.13256 0.3752,-0.39642 0.83378,-0.58637 1.03498,-0.42871 1.63479,-1.25453 1.63479,-2.2508 0,-0.91934 0.4756,-1.01093 0.6957,-0.13397 0.23803,0.94838 -0.3027,2.05071 -1.306,2.66242 -0.93583,0.57058 -1.85827,0.72382 -1.85827,0.30872 z m 33.48312,-0.42029 c -0.35777,-0.43109 0.0492,-0.86907 0.53096,-0.57135 0.15231,0.0941 0.60096,-0.0837 0.99699,-0.39524 1.3267,-1.04359 1.7155,-0.44995 0.44036,0.67238 -0.86071,0.75756 -1.50397,0.85371 -1.96831,0.29421 z m 26.99688,-0.34236 c -1.2354,-0.2915 -4.96223,-1.53482 -5.61168,-1.87213 -0.95788,-0.4975 -5.61264,-3.98026 -5.72546,-4.28389 -0.24998,-0.6727 0.96725,-0.0665 3.15235,1.56982 1.33363,0.99871 2.93543,2.0375 3.55954,2.3084 1.66471,0.7226 5.07314,1.63574 6.1056,1.63574 0.59461,0 0.85887,0.11553 0.78424,0.34286 -0.11805,0.3596 -1.32999,0.51973 -2.26459,0.2992 z m -56.43429,-3.18961 c -0.82112,-0.18103 -1.30285,-0.43388 -1.30285,-0.68383 0,-0.29889 0.2196,-0.35539 0.89143,-0.22933 0.49028,0.092 1.35894,0.24631 1.93035,0.34292 0.57995,0.0981 0.99457,0.31056 0.93852,0.48101 -0.13438,0.40865 -0.88507,0.43591 -2.45745,0.0892 z m -14.46857,-0.62035 c 0,-0.59596 0.78217,-2.04353 1.10419,-2.04353 0.40928,0 0.31912,0.68726 -0.21276,1.62176 -0.52225,0.91758 -0.89143,1.09225 -0.89143,0.42177 z M 211.2,143.89477 c 0,-0.43261 2.01951,-2.34363 2.53793,-2.40158 0.18814,-0.021 1.26778,-0.0519 2.39921,-0.0686 2.25269,-0.0332 2.82029,-0.30521 5.11081,-2.44912 0.76678,-0.7177 1.19812,-0.95682 1.33282,-0.73887 0.25996,0.42061 -0.98154,1.71578 -2.82208,2.94411 -1.35461,0.90402 -1.60651,0.97177 -3.7293,1.00296 -2.35467,0.0346 -2.78384,0.20017 -3.81893,1.47344 -0.56721,0.69772 -1.01046,0.80196 -1.01046,0.23763 z m -19.3392,-1.31682 c -0.50379,-0.39628 -0.63571,-0.65561 -0.43542,-0.85591 0.2003,-0.2003 0.43579,-0.15304 0.77724,0.15596 0.45854,0.41497 0.52963,0.37422 1.11181,-0.63734 0.59055,-1.0261 1.15414,-1.41454 1.15414,-0.79545 0,0.54097 -1.07477,2.39037 -1.47938,2.54563 -0.22309,0.0856 -0.73086,-0.10019 -1.12839,-0.41289 z m 4.52777,0.35464 c 0,-0.1345 0.33943,-0.32551 0.75429,-0.42445 0.41485,-0.099 0.97028,-0.24408 1.23428,-0.32251 0.61146,-0.18165 0.65469,0.5915 0.0461,0.82502 -0.65692,0.25209 -2.03471,0.19923 -2.03471,-0.0781 z m 29.62286,-3.1658 c 0,-0.23749 0.23038,-0.42965 0.51511,-0.42965 0.28332,0 0.70183,-0.27771 0.93002,-0.61714 0.56918,-0.84662 0.97111,-0.35255 0.45891,0.56412 -0.47566,0.85128 -1.90404,1.21337 -1.90404,0.48267 z m -50.42363,13.8115 c 0.10015,-0.81777 0.38012,-3.64686 0.62215,-6.28686 0.24203,-2.64 0.51044,-5.14452 0.59647,-5.56561 0.14885,-0.72856 0.11875,-0.7553 -0.62214,-0.55264 -1.29085,0.35308 -3.40015,0.18689 -5.6492,-0.4451 -1.17028,-0.32885 -2.24666,-0.52444 -2.39195,-0.43464 -0.48078,0.29714 -1.76429,-0.60614 -3.68857,-2.59584 -1.04485,-1.08036 -2.40008,-2.21956 -3.01161,-2.53154 -0.61154,-0.31199 -1.5479,-0.91763 -2.0808,-1.34588 -0.95104,-0.76428 -3.24512,-1.29843 -8.64215,-2.01225 -0.75429,-0.0998 -2.65524,-0.42375 -4.22434,-0.71997 -3.0405,-0.57401 -3.22944,-0.55803 -5.42725,0.45916 -1.64055,0.75927 -2.796,0.83128 -3.92992,0.24491 -0.78377,-0.40531 -0.83306,-0.38728 -2.43335,0.89016 -0.89836,0.71712 -1.58929,1.34794 -1.5354,1.40184 0.0539,0.0539 0.80636,-0.22633 1.67216,-0.6227 2.10966,-0.96583 2.64184,-0.48504 0.62001,0.56013 -1.22019,0.63077 -1.83405,0.76445 -3.57266,0.77798 -1.63766,0.0127 -2.22195,0.12732 -2.657,0.52103 -0.83023,0.75135 -1.32964,0.27588 -0.56507,-0.53798 l 0.61701,-0.65678 -0.93924,-0.0158 c -2.83833,-0.0478 -7.16566,-0.54057 -8.48209,-0.96581 -0.82972,-0.26803 -2.43429,-1.08836 -3.56572,-1.82297 -1.92259,-1.2483 -2.14079,-1.32437 -3.33608,-1.16307 -0.81016,0.10932 -1.51132,0.0482 -1.91292,-0.16671 -0.78842,-0.42195 -2.64595,-0.37069 -3.19851,0.0883 -0.28991,0.24081 -1.82964,0.3588 -5.1586,0.39531 -2.712021,0.0297 -4.978161,0.17665 -5.288718,0.34286 -0.753746,0.40339 -1.128027,0.36337 -1.128027,-0.12062 0,-0.62749 -2.508098,-0.54234 -3.825757,0.12988 -0.583575,0.29772 -1.596944,0.62064 -2.25193,0.7176 -0.665528,0.0985 -1.619064,0.51038 -2.161488,0.9336 -1.291173,1.00744 -3.677887,1.30937 -5.770597,0.73002 -0.818054,-0.22648 -2.76948,-0.49408 -4.336502,-0.59466 -2.3928,-0.1536 -3.019265,-0.10617 -3.911368,0.29611 -1.174764,0.52975 -1.614198,0.3849 -1.027158,-0.33857 0.309249,-0.38112 0.311125,-0.42807 0.0099,-0.24666 -0.208429,0.1255 -0.848924,0.0667 -1.456192,-0.13374 -0.873355,-0.28823 -1.267837,-0.29134 -2.029259,-0.016 -0.80303,0.29038 -1.00977,0.27716 -1.374829,-0.0879 -0.236319,-0.23632 -0.715913,-0.42967 -1.065765,-0.42967 -0.349853,0 -1.791322,-0.29388 -3.203266,-0.65308 -1.647653,-0.41915 -3.893471,-0.7274 -6.270027,-0.86059 -2.036572,-0.11413 -4.134857,-0.25276 -4.662857,-0.30807 -0.528,-0.0553 -2.934858,-0.20715 -5.348572,-0.33741 -3.994983,-0.21561 -4.522429,-0.30481 -5.881103,-0.99465 -0.975435,-0.49526 -2.096184,-0.80626 -3.234897,-0.89766 l -1.742366,-0.13986 0.191102,8.19852 c 0.20855,8.94706 0.202692,10.47907 -0.0517,13.51948 l -0.169808,2.02954 1.497184,-0.17597 c 0.823451,-0.0968 1.91571,-0.34502 2.427241,-0.55165 1.1185,-0.45181 4.251516,-1.05877 9.432914,-1.82743 2.112,-0.31331 5.012571,-0.74509 6.445714,-0.95951 9.30783,-1.39255 13.665377,-1.36192 18.925714,0.13303 2.376782,0.67546 4.671107,0.9186 5.542393,0.58733 0.390649,-0.14852 1.240188,-0.34908 1.887863,-0.44568 0.647676,-0.0966 1.707338,-0.35549 2.354805,-0.57531 0.878136,-0.29813 1.910555,-0.35943 4.063776,-0.24125 2.587405,0.142 3.021384,0.0963 4.187435,-0.4412 1.232387,-0.56804 1.65464,-0.59799 8.020867,-0.56888 3.70832,0.017 7.14943,0.15741 7.67819,0.31338 1.43341,0.42281 2.62421,0.34671 4.92146,-0.31452 1.76008,-0.50661 2.80242,-0.60018 6.87464,-0.61714 4.72817,-0.0197 4.8187,-0.009 6.04961,0.71465 0.80076,0.47077 1.87827,0.80577 2.99988,0.93266 1.27013,0.1437 1.9055,0.36243 2.31611,0.79733 0.81009,0.858 4.10106,2.71443 6.33483,3.57346 1.05105,0.40419 2.52814,0.9886 3.28243,1.29868 1.57456,0.6473 4.50153,0.90928 7.07721,0.63344 1.66379,-0.17817 1.87888,-0.28457 3.38404,-1.674 0.88402,-0.81606 1.69989,-1.48654 1.81303,-1.48997 0.43614,-0.0132 0.17338,0.68402 -0.54857,1.45562 l -0.75429,0.80616 2.52131,-0.16989 c 1.38672,-0.0934 3.03092,-0.3738 3.65377,-0.62302 1.95693,-0.78301 7.63714,0.0711 9.01645,1.35574 1.08807,1.0134 1.65109,1.2213 3.87977,1.43266 1.12679,0.10685 2.23385,0.29816 2.46013,0.42512 0.71758,0.40259 0.95517,0.10741 1.14209,-1.41891 z m -20.89066,-1.65627 c 0,-0.41175 2.04355,-2.43631 2.45916,-2.43631 0.46731,0 0.28997,0.32449 -0.8813,1.61253 -1.01989,1.12157 -1.57786,1.41288 -1.57786,0.82378 z m 8.77714,-2.14583 c 0,-0.40587 0.40104,-0.55199 1.04955,-0.3824 0.8731,0.22832 0.72723,0.64049 -0.22669,0.64049 -0.45257,0 -0.82286,-0.11614 -0.82286,-0.25809 z m -14.81142,-0.67434 c 0,-0.58952 1.83623,-3.18412 2.91917,-4.1248 1.20008,-1.04244 2.57925,-1.82443 2.88472,-1.63564 0.43412,0.26831 0.22992,0.59223 -0.58655,0.93042 -1.15063,0.47661 -3.41806,2.78556 -4.02268,4.09636 -0.49583,1.07493 -1.19466,1.5041 -1.19466,0.73366 z m -4.38858,-0.54255 c 0,-0.20782 0.20644,-0.54724 0.45875,-0.75429 0.79428,-0.65177 2.50662,-3.50674 2.99171,-4.98804 0.99596,-3.04131 3.77688,-7.68776 4.79445,-8.01073 0.86942,-0.27594 1.02594,0.12285 0.28421,0.72417 -0.87322,0.70792 -3.1991,4.4147 -3.75641,5.98665 -0.8267,2.33175 -2.26498,5.08468 -3.26763,6.25437 -1.02802,1.19928 -1.50508,1.449 -1.50508,0.78787 z m -5.59952,-0.89456 c -0.22341,-0.58217 0.86799,-2.84188 1.37256,-2.84188 0.51933,0 0.48569,0.2569 -0.16161,1.23428 -0.29972,0.45257 -0.54577,1.10057 -0.54676,1.44 -0.002,0.71787 -0.41323,0.82161 -0.66419,0.1676 z M 164.64,147.28288 c -1.04009,-0.41806 -0.75089,-0.90045 0.40934,-0.68279 1.24083,0.23278 1.50028,0.37528 1.29323,0.71029 -0.19377,0.31353 -0.88179,0.30242 -1.70257,-0.0275 z m -85.097143,-0.49132 c 0,-0.43304 1.689007,-3.34013 1.940601,-3.34013 0.492492,0 0.24403,1.00496 -0.563132,2.27773 -0.73698,1.16209 -1.377469,1.65609 -1.377469,1.0624 z m -34.56,-0.31667 c 0,-0.14738 0.296089,-0.46196 0.657976,-0.69908 0.596993,-0.39117 0.871634,-0.87567 1.382448,-2.43882 0.284796,-0.87151 0.786695,-0.0708 0.571049,0.91108 -0.294672,1.34163 -2.611473,3.31718 -2.611473,2.22682 z m 43.337142,-0.36994 c 0,-0.3686 1.112456,-1.55638 1.457678,-1.55638 0.409861,0 0.153401,0.75977 -0.446784,1.32362 -0.729023,0.68488 -1.010894,0.74978 -1.010894,0.23276 z M 44.650161,145.4639 c -0.06618,-0.12629 -0.06678,-1.25374 -0.0013,-2.50545 0.0807,-1.54334 0.219815,-2.24112 0.432225,-2.16797 0.407155,0.14023 0.396312,4.19615 -0.01231,4.60477 -0.164044,0.16404 -0.35241,0.19494 -0.418589,0.0686 z m 90.778409,-0.24936 c -0.78174,-0.4241 -1.00998,-0.94339 -0.41143,-0.93606 0.18857,0.002 0.5209,0.11685 0.73852,0.25454 0.30322,0.19185 0.51515,-0.0174 0.90716,-0.89563 0.81835,-1.8334 2.46141,-4.07431 2.76484,-3.77087 0.1719,0.17189 -0.12855,0.87766 -0.84888,1.99406 -0.61321,0.95039 -1.30429,2.19085 -1.53572,2.75656 -0.46956,1.14781 -0.54707,1.17649 -1.61449,0.5974 z m 27.70286,-0.20614 c -0.68997,-0.56492 -1.01143,-1.28269 -0.57446,-1.28269 0.32381,0 2.01446,1.39289 2.01446,1.65968 0,0.44078 -0.64861,0.27098 -1.44,-0.37699 z m -98.400002,-0.73412 c 0,-1.0855 0.418331,-1.48141 0.723904,-0.6851 0.206979,0.53938 -0.11021,1.78225 -0.454844,1.78225 -0.147983,0 -0.26906,-0.49372 -0.26906,-1.09715 z m 21.862169,0.89143 c -0.23687,-0.43097 0.384053,-1.98857 0.792728,-1.98857 0.291088,0 0.373774,0.17024 0.266444,0.54857 -0.0856,0.30172 -0.225659,0.79543 -0.311253,1.09715 -0.156406,0.55132 -0.537363,0.72595 -0.747919,0.34285 z m 43.839413,-0.0521 c -0.20682,-0.33463 1.43806,-2.2107 1.93826,-2.2107 0.58537,0 0.45586,0.31711 -0.5881,1.44 -1.0359,1.11422 -1.11127,1.15724 -1.35016,0.7707 z m -69.066674,-0.18151 c -0.206962,-0.20696 0.64374,-2.02919 0.947322,-2.02919 0.315317,0 0.277832,1.03165 -0.06045,1.66374 -0.288633,0.53932 -0.589163,0.66316 -0.88687,0.36545 z m 15.707949,-0.24634 c 0,-0.22628 0.09879,-0.41143 0.219534,-0.41143 0.120743,0 0.911952,-0.61714 1.758242,-1.37142 1.634941,-1.4572 1.862224,-1.58094 1.862224,-1.01381 0,0.39985 -1.330805,1.71455 -2.648056,2.616 -1.025169,0.70157 -1.191944,0.72684 -1.191944,0.18066 z m 30.833485,-0.0686 c -0.36627,-1.22449 -0.90191,-1.89114 -1.89801,-2.36225 -1.18851,-0.5621 -1.66166,-1.07201 -1.91707,-2.06599 -0.31349,-1.22003 0.35055,-1.28615 0.83201,-0.0828 0.33963,0.84881 0.66963,1.1972 1.34519,1.42015 1.21254,0.40018 2.06146,1.36749 2.25686,2.57161 0.16881,1.04024 -0.33637,1.4641 -0.61898,0.51933 z m -66.332977,-1.64571 c 0.203721,-1.97791 0.316937,-2.34096 0.663269,-2.12691 0.365361,0.2258 0.35192,1.75933 -0.02489,2.84026 -0.481605,1.38154 -0.815692,1.00821 -0.638375,-0.71335 z m 14.199584,0.615 c -0.274923,-0.59274 -0.251488,-0.68357 0.176369,-0.68357 0.518586,0 0.936931,0.69639 0.673956,1.12189 -0.256486,0.415 -0.516772,0.28083 -0.850325,-0.43832 z m 77.254193,0.4179 c 0,-0.47081 1.53368,-2.00739 1.88629,-1.88985 0.22668,0.0756 0.0845,0.44693 -0.43119,1.12627 -0.73253,0.965 -1.4551,1.34417 -1.4551,0.76358 z m -37.195443,-0.66861 c -0.193715,-0.50482 0.421408,-1.66176 0.719754,-1.35374 0.285482,0.29474 0.02025,1.74373 -0.31918,1.74373 -0.138005,0 -0.318263,-0.17549 -0.400574,-0.38999 z M 43.337143,142.08 c 0,-0.75429 0.110047,-1.37143 0.244551,-1.37143 0.359132,0 0.615401,1.26527 0.416654,2.05714 -0.288956,1.1513 -0.661205,0.76525 -0.661205,-0.68571 z m 49.232314,0.81967 c -0.19494,-0.31542 0.896994,-1.34461 1.441971,-1.35912 0.48718,-0.013 0.424283,0.3845 -0.137143,0.86665 -0.779042,0.66903 -1.116898,0.79654 -1.304828,0.49247 z m 70.697573,-0.0654 c 0.062,-0.18857 0.62773,-0.38081 1.25714,-0.42719 0.88927,-0.0655 1.1444,0.0109 1.1444,0.34285 0,0.32461 -0.30191,0.4272 -1.25714,0.4272 -0.88299,0 -1.22359,-0.10204 -1.1444,-0.34286 z M 50.766714,142.1376 c -0.17434,-0.4209 -0.806064,-1.5009 -1.403832,-2.4 -1.127397,-1.69573 -1.332221,-2.32955 -0.745739,-2.30766 0.341908,0.0128 2.738513,3.83041 3.079948,4.90618 0.280982,0.88529 -0.555365,0.70683 -0.930377,-0.19852 z m 48.456142,-0.58755 c -1.443212,-1.4619 -1.635652,-2.29021 -0.777896,-3.34824 0.604001,-0.74502 1.129135,-0.47742 0.630371,0.32123 -0.573405,0.91816 -0.371593,1.51699 0.901811,2.67589 0.678858,0.61781 1.234288,1.25394 1.234288,1.41361 0,0.60279 -0.72925,0.21315 -1.988574,-1.06249 z m -24.891428,0.82776 c 0,-0.52775 4.245139,-2.76638 5.245914,-2.76638 0.13189,0 0.2398,0.18514 0.2398,0.41143 0,0.22628 -0.178501,0.41142 -0.396669,0.41142 -0.218167,0 -1.350748,0.49372 -2.516844,1.09715 -2.211367,1.14433 -2.572201,1.26306 -2.572201,0.84638 z m 61.440002,-0.25666 c 0,-0.49483 1.67127,-2.50972 2.08172,-2.50972 0.51571,0 0.48717,0.078 -0.57315,1.56673 -0.74934,1.05208 -1.50857,1.52667 -1.50857,0.94299 z m -33.32204,-1.30893 c -0.48318,-1.15642 -0.51569,-1.47508 -0.15047,-1.47508 0.28083,0 0.66059,0.60925 1.09977,1.7644 0.43943,1.15579 -0.46003,0.88166 -0.9493,-0.28932 z m -30.037471,0.37635 c 5.92e-4,-0.414 2.205309,-1.85143 2.839699,-1.85143 0.787505,0 0.48852,0.5184 -0.627294,1.08765 -0.593193,0.30263 -1.155906,0.67542 -1.250474,0.82843 -0.24364,0.39422 -0.962519,0.34591 -0.961931,-0.0647 z m 60.616651,-0.47046 c 0,-0.88266 1.41674,-2.7524 2.08556,-2.7524 0.57843,0 0.46848,0.29714 -0.46716,1.26247 -0.46759,0.48243 -0.86874,1.19794 -0.89143,1.59001 -0.0578,0.99873 -0.72697,0.90662 -0.72697,-0.10008 z m -78.178216,-0.16454 c -0.147124,-0.38696 -0.267497,-0.7597 -0.267497,-0.82831 0,-0.0686 -0.308572,-0.61354 -0.685714,-1.21098 -0.686465,-1.08743 -0.905992,-2.19428 -0.435201,-2.19428 0.317763,0 2.218058,3.82068 2.218058,4.45957 0,0.71738 -0.525389,0.57426 -0.829646,-0.226 z m 13.172503,0.4423 c -1.842058,-0.60498 -2.280712,-0.85916 -1.987945,-1.15193 0.211369,-0.21136 0.646566,-0.16166 1.526379,0.17435 1.416334,0.5409 1.939625,0.43297 3.355211,-0.69199 1.120912,-0.89079 1.494926,-1.00265 1.494926,-0.44708 0,0.46071 -2.153693,2.02425 -3.038046,2.20556 -0.365646,0.075 -0.973382,0.035 -1.350525,-0.0889 z m 74.478273,-0.2716 c -0.29735,-0.48112 1.6793,-3.58141 2.28339,-3.58141 0.48459,0 0.38923,0.25638 -0.70663,1.89992 -1.3525,2.02844 -1.35842,2.03477 -1.57676,1.68149 z M 91.885714,139.9019 c 0,-0.44367 -0.125442,-0.8842 -0.27876,-0.97895 -0.518358,-0.32036 0.01661,-0.69576 0.569691,-0.39976 0.535421,0.28655 0.67355,0.94859 0.365437,1.75152 -0.272803,0.71091 -0.656368,0.49305 -0.656368,-0.37281 z m 31.645926,0.21035 c -0.89399,-0.23404 -1.67834,-0.93698 -1.37924,-1.23608 0.0954,-0.0954 0.68053,0.0552 1.30032,0.33472 1.12226,0.50607 1.13185,0.50552 2.33919,-0.13498 1.32222,-0.70144 1.83811,-0.59279 1.09327,0.23025 -0.6223,0.68763 -2.28207,1.08659 -3.35354,0.80609 z m -38.777355,-0.32117 c 0,-0.2029 0.260179,-0.60405 0.578174,-0.89143 0.317996,-0.28738 0.807332,-0.84398 1.087412,-1.2369 l 0.509238,-0.71439 -0.71178,0.13607 c -1.162686,0.22226 -0.628176,-0.58529 0.590516,-0.89216 0.747123,-0.18814 1.205893,-0.52589 1.583404,-1.16572 0.523465,-0.88721 0.869698,-1.10118 1.121793,-0.69328 0.167974,0.27178 -1.265443,2.38027 -2.923135,4.29979 -1.317887,1.52604 -1.835622,1.85266 -1.835622,1.15802 z m 55.966505,-0.26626 c -0.0168,-0.68402 0.48515,-1.60277 1.1856,-2.17015 1.11711,-0.9049 1.39306,-0.39169 0.37932,0.70546 -0.33943,0.36736 -0.82764,0.95926 -1.08492,1.31533 -0.40022,0.55389 -0.46955,0.57546 -0.48,0.14936 z m -45.269362,-0.17355 c 0,-0.14308 0.30642,-0.59078 0.680933,-0.99489 0.613268,-0.66173 0.699581,-0.68614 0.868597,-0.24569 0.127507,0.33227 -0.01259,0.65119 -0.437034,0.99489 -0.685114,0.55477 -1.112496,0.64916 -1.112496,0.24569 z m -34.285714,-0.69019 c 0,-0.22098 0.245724,-0.53329 0.546053,-0.69402 0.300329,-0.16073 1.044793,-0.96736 1.654366,-1.79251 1.047383,-1.41779 1.639581,-1.85637 1.639581,-1.21427 0,0.47315 -2.086045,3.14571 -2.841952,3.641 -0.862089,0.56486 -0.998048,0.573 -0.998048,0.0598 z m 70.234386,-0.01 c -0.0114,-1.23413 1.49702,-2.33143 3.20484,-2.33143 0.82402,0 1.24158,-0.18551 1.8522,-0.82286 0.85108,-0.88833 1.23429,-1.032 1.23429,-0.46274 0,0.83329 -1.55817,1.86961 -3.13224,2.08321 -1.29789,0.17613 -1.68556,0.36497 -2.35391,1.14662 -0.67361,0.78781 -0.80093,0.84903 -0.80518,0.3872 z m -42.641544,-0.0933 c -0.198523,-0.32122 0.608107,-1.73004 1.806552,-3.15525 1.204088,-1.43192 2.855757,-2.50087 3.14387,-2.03469 0.1074,0.17377 -0.04116,0.4412 -0.335184,0.60336 -0.913418,0.50378 -3.311182,3.098 -3.674824,3.97591 -0.347234,0.83829 -0.670142,1.04798 -0.940414,0.61067 z m 20.927574,-0.28583 c -0.59306,-0.48023 -0.7001,-0.48636 -1.53551,-0.088 -1.12171,0.5349 -1.54069,0.19679 -0.62652,-0.5056 0.82028,-0.63026 1.99545,-0.68962 2.46447,-0.12449 0.41016,0.49422 1.40914,0.53829 1.86514,0.0823 0.23649,-0.23648 0.41287,-0.24542 0.62655,-0.0317 0.21367,0.21367 0.11927,0.42216 -0.33532,0.74057 -0.83547,0.58519 -1.67679,0.56019 -2.45881,-0.0731 z m -40.976844,-0.57976 c -0.227238,-0.36768 1.415412,-2.19545 1.973091,-2.19545 0.595112,0 0.410265,0.38584 -0.70797,1.47777 -0.720413,0.70346 -1.130226,0.93594 -1.265121,0.71768 z m 32.278254,-0.47173 c 0.0499,-0.25882 0.42415,-0.65778 0.83179,-0.88658 0.69131,-0.38802 0.77882,-0.37559 1.30092,0.18482 0.30786,0.33045 0.55975,0.72941 0.55975,0.88657 0,0.46369 -0.77288,0.32636 -1.06103,-0.18853 -0.25157,-0.44953 -0.29278,-0.44953 -0.78951,0 -0.66523,0.60202 -0.95739,0.60331 -0.84192,0.004 z M 79.542857,136.8738 c 0,-0.14799 0.339428,-0.34972 0.754285,-0.4483 0.414857,-0.0986 1.402651,-0.49143 2.195097,-0.87299 1.56108,-0.75166 2.261521,-0.61302 1.160805,0.22975 -1.257115,0.96252 -4.110187,1.72021 -4.110187,1.09154 z m 44.342853,-1.01094 c -0.40603,-0.40604 -0.14215,-0.69617 0.51834,-0.56991 0.40685,0.0778 0.86653,-0.0313 1.09504,-0.2598 0.54954,-0.54953 1.0289,-0.20225 0.66343,0.48064 -0.28099,0.52503 -1.85892,0.76695 -2.27681,0.34907 z m -28.602854,-1.23943 c -0.232923,-0.37688 -0.06439,-0.48124 1.968923,-1.21929 1.339448,-0.4862 2.663052,-0.71146 4.886891,-0.83169 1.67745,-0.0907 3.46612,-0.33374 3.97483,-0.5401 1.13418,-0.4601 1.13221,-0.46008 1.13221,-0.008 0,0.68775 -1.50305,1.09238 -4.8,1.29217 -2.458126,0.14895 -3.761159,0.37252 -5.146817,0.88305 -1.075883,0.3964 -1.922884,0.5744 -2.016037,0.42367 z M 45.805714,133.6097 c 0,-0.13296 0.423377,-0.56466 0.940837,-0.95935 0.51746,-0.39468 0.980317,-0.98595 1.028571,-1.31392 0.132754,-0.90231 0.773449,-0.96641 0.773449,-0.0774 0,0.49867 -0.323668,1.05002 -0.97953,1.66857 -0.933678,0.88057 -1.763327,1.2015 -1.763327,0.68209 z m 10.468838,-1.158 c -0.294767,-0.472 -0.524924,-0.53391 -1.421564,-0.38243 -1.191126,0.20124 -2.270216,-0.0347 -2.126768,-0.46507 0.07879,-0.23639 1.758471,-0.35386 3.552439,-0.24846 0.525253,0.0309 0.949895,1.05685 0.587433,1.41931 -0.136915,0.13691 -0.390753,-0.002 -0.59154,-0.32335 z"
       id="path1" />
  </g>
</svg>
