<?xml version="1.0" encoding="UTF-8" standalone="no"?>
<!-- Created with Inkscape (http://www.inkscape.org/) -->

<svg
   version="1.1"
   id="svg1"
   width="294.58286"
   height="294.58286"
   viewBox="0 0 294.58286 294.58286"
   sodipodi:docname="terlingua-large-7-v.svg"
   inkscape:version="1.4 (86a8ad7, 2024-10-11)"
   xmlns:inkscape="http://www.inkscape.org/namespaces/inkscape"
   xmlns:sodipodi="http://sodipodi.sourceforge.net/DTD/sodipodi-0.dtd"
   xmlns:xlink="http://www.w3.org/1999/xlink"
   xmlns="http://www.w3.org/2000/svg"
   xmlns:svg="http://www.w3.org/2000/svg">
  <defs
     id="defs1">
    <linearGradient
       id="linearGradient1"
       inkscape:collect="always">
      <stop
         style="stop-color:#000000;stop-opacity:0;"
         offset="0.17685589"
         id="stop2" />
      <stop
         style="stop-color:#000000;stop-opacity:1;"
         offset="0.63318777"
         id="stop1" />
    </linearGradient>
    <linearGradient
       inkscape:collect="always"
       xlink:href="#linearGradient1"
       id="linearGradient2"
       x1="35.478067"
       y1="154.69031"
       x2="263.41619"
       y2="154.69031"
       gradientUnits="userSpaceOnUse" />
  </defs>
  <sodipodi:namedview
     id="namedview1"
     pagecolor="#ffffff"
     bordercolor="#000000"
     borderopacity="0.25"
     inkscape:showpageshadow="2"
     inkscape:pageopacity="0.0"
     inkscape:pagecheckerboard="0"
     inkscape:deskcolor="#d1d1d1"
     inkscape:zoom="2.766624"
     inkscape:cx="147.47215"
     inkscape:cy="147.29143"
     inkscape:window-width="1920"
     inkscape:window-height="1017"
     inkscape:window-x="-8"
     inkscape:window-y="-8"
     inkscape:window-maximized="1"
     inkscape:current-layer="g1" />
  <g
     inkscape:groupmode="layer"
     inkscape:label="Image"
     id="g1">
    <path
       style="fill:url(#linearGradient2)"
       d="m 254.4,184.30166 c -0.90514,-0.48304 -2.13943,-1.21897 -2.74286,-1.63542 -1.20688,-0.83291 -7.74759,-6.60521 -10.56,-9.3194 -2.07691,-2.00437 -4.41716,-3.5697 -7.68,-5.13693 -3.62083,-1.73918 -4.32359,-1.8616 -6.12161,-1.06643 -2.1542,0.95269 -2.90508,1.05742 -4.38597,0.61173 -1.18836,-0.35764 -1.61384,-0.34385 -4.38706,0.14219 -1.68909,0.29604 -3.56479,0.67153 -4.16822,0.83443 -1.74082,0.46995 -6.81901,0.38648 -10.67608,-0.17548 -3.01382,-0.43911 -3.77222,-0.65349 -5.06424,-1.43149 -0.83577,-0.50328 -1.63292,-1.02839 -1.77145,-1.16692 -0.15298,-0.15298 -0.73157,0.19848 -1.47355,0.89509 -1.56469,1.469 -1.48827,1.43151 -3.95621,1.94101 -1.66368,0.34346 -2.42718,0.37286 -3.70286,0.14258 -3.0717,-0.55449 -4.53823,-1.11009 -5.69254,-2.15662 -0.61926,-0.56144 -2.20054,-1.53583 -3.51395,-2.1653 -1.83315,-0.87857 -2.94848,-1.6714 -4.8,-3.41206 -4.43402,-4.16854 -4.94842,-4.43016 -9.5434,-4.85366 -3.73878,-0.34459 -4.09969,-0.472 -5.87172,-2.07293 -1.20035,-1.08445 -1.84316,-1.36049 -3.78739,-1.62641 -1.2171,-0.16647 -1.66473,-0.0884 -3.00009,0.5229 -2.0945,0.9589 -4.67194,1.30798 -7.00171,0.9483 -1.25141,-0.1932 -2.15449,-0.19393 -2.84842,-0.002 -1.43134,0.39521 -6.58214,-0.32895 -7.52496,-1.05794 -2.39855,-1.8546 -2.68519,-1.97914 -5.33776,-2.31901 -1.86344,-0.23876 -2.85568,-0.50664 -3.41887,-0.92303 -1.4848,-1.09776 -2.93636,-1.26544 -5.56013,-0.6423 -1.89829,0.45084 -2.52477,0.49863 -3.32346,0.2535 -0.92624,-0.28427 -1.1264,-0.22085 -3.39771,1.07641 -1.86625,1.0659 -2.78665,1.41928 -4.05921,1.55848 -0.90514,0.099 -2.59478,0.3712 -3.75475,0.60487 -1.93147,0.38909 -2.30096,0.3862 -4.38857,-0.0344 -1.608617,-0.32408 -2.763907,-0.76022 -3.925251,-1.48185 -2.22697,-1.38378 -2.436571,-1.43742 -3.627564,-0.92838 -1.390215,0.5942 -10.151656,1.24334 -11.869578,0.87943 -0.987064,-0.20909 -1.897873,-0.12614 -4.547328,0.41416 -5.011171,1.02191 -6.272077,0.4971 -5.731304,-2.38546 0.15985,-0.85208 0.107544,-0.9649 -0.520426,-1.12251 -0.383976,-0.0964 -1.512091,-0.7913 -2.506923,-1.54428 -0.994831,-0.75299 -1.921382,-1.36907 -2.059001,-1.36907 -0.477638,0 -2.213909,1.72716 -2.881585,2.86646 -0.971405,1.65758 -4.056755,3.37952 -6.761953,3.77387 -1.143826,0.16674 -2.342816,0.52739 -2.784837,0.83767 -1.767976,1.24105 -7.961538,1.19071 -12.135924,-0.0986 -1.552916,-0.47964 -2.02541,-0.52106 -3.037392,-0.26624 -0.659123,0.16597 -1.491221,0.22827 -1.849107,0.13845 -0.923155,-0.2317 -1.074613,-1.88306 -0.577044,-6.29158 0.354388,-3.13992 0.353859,-4.30266 -0.0044,-9.73714 -0.223781,-3.39429 -0.472458,-6.45377 -0.552616,-6.79885 -0.08016,-0.34508 -0.01768,-1.10298 0.138828,-1.68422 0.243592,-0.90463 0.419478,-1.08212 1.221463,-1.23257 1.074117,-0.20151 4.201212,0.23939 5.476169,0.7721 0.715015,0.29876 1.355743,0.29664 3.73677,-0.0124 2.197942,-0.28524 3.379446,-0.30421 5.023943,-0.0807 1.182589,0.16076 2.506974,0.21392 2.943078,0.11813 1.959623,-0.4304 5.416159,0.95111 8.380388,3.34949 0.621924,0.5032 1.782309,1.1084 2.578634,1.34488 1.340346,0.39804 1.526373,0.39457 2.505094,-0.0468 0.581476,-0.26221 1.205733,-0.65568 1.387237,-0.87438 0.181504,-0.2187 0.600959,-0.50065 0.932123,-0.62656 0.577854,-0.2197 0.586441,-0.27442 0.213091,-1.35808 -0.258864,-0.75136 -0.313763,-1.41961 -0.164081,-1.99725 0.394659,-1.52304 2.2215,-1.5837 9.610357,-0.31913 3.311436,0.56674 4.20384,0.62898 5.666999,0.39524 1.32387,-0.21149 2.508446,-0.17569 4.983918,0.15062 1.786008,0.23542 3.679287,0.35868 4.207287,0.27391 4.411982,-0.70836 10.305775,-1.95898 11.657145,-2.47355 0.90514,-0.34467 2.0527,-0.71467 2.55012,-0.82225 1.19982,-0.25947 4.64452,0.48806 6.91273,1.50013 1.5986,0.71328 6.07357,1.94116 7.13143,1.95679 0.22629,0.003 1.152,-0.2682 2.05715,-0.60341 1.92662,-0.71352 4.46543,-0.79662 5.90427,-0.19326 0.87394,0.36647 1.19107,0.35476 3.29143,-0.12162 1.27836,-0.28994 2.87478,-0.79666 3.54759,-1.12605 1.52118,-0.74471 3.11542,-0.73344 4.70376,0.0333 0.6624,0.31975 1.88323,0.72448 2.71295,0.8994 1.60229,0.3378 2.44797,0.70456 3.90703,1.69445 0.49777,0.33771 1.76632,0.9489 2.819,1.35821 1.05268,0.4093 2.75361,1.06837 3.77984,1.4646 l 1.86587,0.72041 2.5227,-1.26804 c 3.17263,-1.59474 5.79282,-1.993 10.19625,-1.54983 2.50624,0.25224 3.16502,0.43404 5.10201,1.40794 3.39007,1.70449 5.55936,3.4421 8.76346,7.01956 0.68483,0.76463 1.48639,1.26598 2.74286,1.71559 0.97639,0.34939 2.1556,0.85321 2.62045,1.1196 1.75115,1.00351 2.6449,1.14206 5.36013,0.83092 1.4145,-0.1621 3.00382,-0.4688 3.53182,-0.68156 0.528,-0.21277 2.07086,-0.52489 3.42858,-0.69361 1.35771,-0.16872 2.96228,-0.52456 3.56571,-0.79077 0.60343,-0.2662 2.02001,-0.71004 3.14797,-0.98631 1.12795,-0.27626 3.40157,-1.15373 5.05248,-1.94993 1.65092,-0.7962 3.62862,-1.59711 4.39489,-1.77982 0.76628,-0.1827 2.1827,-0.82956 3.14761,-1.43747 1.35534,-0.85389 2.32233,-1.21606 4.25143,-1.59233 l 2.49705,-0.48705 2.46857,0.70153 c 4.03072,1.14545 4.33919,1.28793 4.98425,2.30212 1.28991,2.02803 1.50728,2.1803 3.93004,2.75287 1.70271,0.4024 2.8122,0.86969 4.11428,1.73285 6.53127,4.32962 7.42327,4.73555 12.34373,5.61733 1.7491,0.31345 3.49415,0.80707 4.16772,1.17893 2.12064,1.17073 2.35494,1.81673 3.56478,9.82828 0.49886,3.30344 0.40123,11.40405 -0.16694,13.85143 -0.24516,1.056 -0.50788,2.33456 -0.58382,2.84124 -0.0759,0.50669 -0.27651,1.1799 -0.44569,1.49602 -0.16919,0.31613 -0.33897,1.44442 -0.37729,2.50733 -0.0999,2.77192 -1.32352,5.89067 -3.36757,8.58347 -0.78042,1.02812 -1.89238,1.04316 -3.75206,0.0507 z"
       id="path1" />
  </g>
</svg>
