<?xml version="1.0" encoding="UTF-8" standalone="no"?>
<!-- Created with Inkscape (http://www.inkscape.org/) -->

<svg
   version="1.1"
   id="svg1"
   width="294.58286"
   height="294.58286"
   viewBox="0 0 294.58286 294.58286"
   sodipodi:docname="terlingua-medium-3-v.svg"
   inkscape:version="1.4 (86a8ad7, 2024-10-11)"
   xmlns:inkscape="http://www.inkscape.org/namespaces/inkscape"
   xmlns:sodipodi="http://sodipodi.sourceforge.net/DTD/sodipodi-0.dtd"
   xmlns:xlink="http://www.w3.org/1999/xlink"
   xmlns="http://www.w3.org/2000/svg"
   xmlns:svg="http://www.w3.org/2000/svg">
  <defs
     id="defs1">
    <linearGradient
       id="linearGradient1"
       inkscape:collect="always">
      <stop
         style="stop-color:#000000;stop-opacity:0;"
         offset="0.17685589"
         id="stop2" />
      <stop
         style="stop-color:#000000;stop-opacity:1;"
         offset="0.63973796"
         id="stop1" />
    </linearGradient>
    <linearGradient
       inkscape:collect="always"
       xlink:href="#linearGradient1"
       id="linearGradient2"
       x1="35.771041"
       y1="156.22962"
       x2="263.76276"
       y2="156.22962"
       gradientUnits="userSpaceOnUse" />
  </defs>
  <sodipodi:namedview
     id="namedview1"
     pagecolor="#ffffff"
     bordercolor="#000000"
     borderopacity="0.25"
     inkscape:showpageshadow="2"
     inkscape:pageopacity="0.0"
     inkscape:pagecheckerboard="0"
     inkscape:deskcolor="#d1d1d1"
     inkscape:zoom="2.766624"
     inkscape:cx="147.47215"
     inkscape:cy="147.29143"
     inkscape:window-width="1920"
     inkscape:window-height="1017"
     inkscape:window-x="-8"
     inkscape:window-y="-8"
     inkscape:window-maximized="1"
     inkscape:current-layer="g1" />
  <g
     inkscape:groupmode="layer"
     inkscape:label="Image"
     id="g1">
    <path
       style="fill:url(#linearGradient2)"
       d="m 255.64176,185.48941 c -0.78608,-0.30885 -4.27941,-3.04301 -5.76748,-4.5141 -0.82971,-0.82025 -2.94765,-2.96439 -4.70653,-4.76476 -1.75889,-1.80038 -3.67203,-3.64939 -4.25143,-4.10891 -1.20697,-0.95725 -4.92854,-2.90991 -6.51458,-3.41811 -0.58991,-0.18902 -1.77938,-0.69437 -2.64328,-1.12299 -2.50446,-1.24259 -4.3543,-1.83551 -6.70703,-2.14976 -3.91116,-0.52242 -6.00326,-1.02085 -7.59405,-1.80926 l -1.55977,-0.77304 -1.8688,0.84272 c -2.29418,1.03452 -4.05755,1.27045 -6.69936,0.89631 -3.11262,-0.44082 -4.03729,-0.76807 -5.27431,-1.86661 -2.51911,-2.2371 -2.15131,-2.15833 -3.56597,-0.76369 -2.09378,2.06413 -3.96259,2.25853 -6.82227,0.70966 l -1.50906,-0.81734 -2.71321,0.65978 c -1.49226,0.36288 -3.08349,0.73485 -3.53606,0.8266 -0.80764,0.16374 -2.23915,-0.18945 -6.22216,-1.53517 l -1.83359,-0.61951 -0.18515,-1.97582 c -0.10184,-1.0867 -0.13186,-2.13571 -0.0667,-2.33112 0.14555,-0.43664 -2.03891,-1.20237 -4.17238,-1.46256 -2.21714,-0.27039 -3.32862,-0.66745 -4.25143,-1.51877 -0.65405,-0.60339 -1.34663,-0.85334 -3.3761,-1.21845 -2.30887,-0.41537 -2.6764,-0.41946 -3.84,-0.0427 -0.70771,0.22914 -2.58276,0.55188 -4.16676,0.7172 -1.584,0.16532 -3.312,0.41037 -3.84,0.54456 -2.15769,0.54835 -6.22358,0.82066 -7.82723,0.52421 -3.42496,-0.63314 -11.40947,-4.18391 -12.60705,-5.60645 -0.42916,-0.50977 -0.97628,-0.70848 -2.5134,-0.91285 -1.32329,-0.17593 -2.24875,-0.47114 -2.83442,-0.90414 -0.8214,-0.60728 -1.08493,-0.64122 -4.75517,-0.6123 -2.37359,0.0187 -4.68608,0.19931 -5.94273,0.46414 -3.45189,0.72749 -4.92399,0.8005 -7.20033,0.3571 -1.71845,-0.33473 -2.59926,-0.35817 -4.59429,-0.12228 -1.74943,0.20685 -3.19231,0.20623 -4.95458,-0.002 -2.220834,-0.26259 -2.62635,-0.2388 -3.797358,0.22277 -1.650036,0.65038 -4.659752,0.93062 -6.547468,0.60964 -0.796574,-0.13544 -1.507478,-0.15053 -1.579787,-0.0335 -0.07231,0.117 -1.333709,0.4928 -2.803112,0.8351 -3.5816,0.83436 -6.099069,0.80798 -9.391641,-0.0984 -3.543558,-0.97545 -7.463145,-1.41213 -9.510327,-1.05955 -0.879034,0.15139 -2.462245,0.35396 -3.518245,0.45014 -3.695956,0.33666 -18.013023,2.63028 -19.731279,3.16099 -2.339872,0.72271 -4.341645,1.08384 -5.021857,0.90596 -0.78151,-0.20437 -1.002789,-2.26984 -0.631135,-5.89116 0.228886,-2.23021 0.210434,-3.37795 -0.08522,-5.30087 -0.287228,-1.8681 -0.310371,-2.97907 -0.09689,-4.65128 0.197363,-1.54599 0.189708,-3.01312 -0.02584,-4.95139 -0.425889,-3.8298 -0.32334,-4.17441 1.309006,-4.39892 1.709749,-0.23515 4.015684,0.20748 5.805274,1.11433 1.281679,0.64948 1.632197,0.7089 3.244361,0.55005 1.05969,-0.10442 3.222992,-0.0121 5.229081,0.22311 1.881904,0.22067 5.026215,0.48199 6.987358,0.58072 2.144684,0.10797 4.330884,0.39105 5.485714,0.71033 2.390915,0.66101 6.90477,1.24176 12.617143,1.62332 2.413714,0.16123 5.185652,0.47752 6.159862,0.70287 2.018836,0.46699 3.117653,0.31628 4.178382,-0.57312 0.406035,-0.34045 1.393463,-0.77303 2.194286,-0.9613 0.800822,-0.18826 1.769709,-0.50072 2.153081,-0.69436 1.343242,-0.67844 4.70129,-0.95375 7.856439,-0.64409 3.321183,0.32595 6.716283,0.15247 8.700053,-0.44456 1.1586,-0.34869 1.61048,-0.34749 3.65866,0.01 1.28525,0.22413 2.67427,0.40751 3.08672,0.40751 0.42483,0 1.44961,0.4778 2.36407,1.10225 2.17115,1.48261 4.52092,2.16955 8.4713,2.47652 1.81029,0.14068 3.94405,0.31027 4.74169,0.37688 1.38478,0.11565 1.52862,0.0618 3.18582,-1.19252 2.09887,-1.58863 2.80148,-1.79407 4.33221,-1.26669 1.10568,0.38094 1.25308,0.36766 2.55995,-0.23065 2.33186,-1.06756 3.01911,-1.08177 8.56308,-0.17703 10.51557,1.71607 10.9848,1.83025 11.86111,2.88614 0.20329,0.24495 0.81144,0.62847 1.35145,0.85227 0.54001,0.22381 1.97558,1.39297 3.19016,2.59814 l 2.20833,2.19122 3.0031,0.69992 c 3.19564,0.7448 3.67262,0.79386 5.60882,0.57692 l 1.23428,-0.13829 0.0832,-1.25357 c 0.0934,-1.40642 -0.27583,-1.23115 3.82776,-1.81719 2.34576,-0.33499 4.10332,-0.1272 4.30934,0.50949 0.0794,0.2454 0.43874,0.81304 0.79852,1.26141 l 0.65415,0.81523 1.37748,-0.85629 c 0.75762,-0.47096 1.76183,-0.9407 2.23159,-1.04388 1.12225,-0.24649 6.28866,0.86011 7.0151,1.50257 0.89006,0.78716 5.78349,1.18203 8.67451,0.69998 1.2633,-0.21065 3.40777,-0.46117 4.76549,-0.55673 4.14135,-0.29146 6.05424,-1.00853 10.52931,-3.94701 3.55447,-2.33399 6.07018,-3.18509 9.3564,-3.16538 3.17433,0.019 3.98441,0.37714 4.93714,2.18254 0.65186,1.23524 0.79407,1.33566 2.88,2.03371 2.72344,0.91138 3.61469,1.37208 7.66822,3.96378 3.86223,2.46939 5.34641,3.06259 9.35957,3.74083 3.7425,0.6325 4.34535,0.8556 5.27557,1.95236 1.45905,1.72027 1.54419,1.96648 1.88102,5.43942 0.18294,1.88615 0.47011,4.0465 0.63816,4.80079 0.16806,0.75428 0.22469,1.98857 0.12585,2.74286 -0.0988,0.75428 -0.22473,2.91428 -0.27976,4.8 -0.0672,2.304 -0.28756,4.14829 -0.67172,5.62285 -0.31441,1.20686 -0.57943,2.37943 -0.58892,2.60572 -0.009,0.22628 -0.13978,0.96685 -0.28953,1.64571 -0.14976,0.67886 -0.31116,1.728 -0.35868,2.33143 -0.0475,0.60343 -0.6029,2.208 -1.23418,3.56571 -0.63128,1.35772 -1.44592,3.11345 -1.81031,3.90163 -0.82055,1.77484 -1.61287,2.27533 -2.83924,1.7935 z"
       id="path1" />
  </g>
</svg>
