<?xml version="1.0" encoding="UTF-8" standalone="no"?>
<!-- Created with Inkscape (http://www.inkscape.org/) -->

<svg
   version="1.1"
   id="svg1"
   width="294.58286"
   height="294.58286"
   viewBox="0 0 294.58286 294.58286"
   sodipodi:docname="terlingua-body.svg"
   inkscape:version="1.4 (86a8ad7, 2024-10-11)"
   xmlns:inkscape="http://www.inkscape.org/namespaces/inkscape"
   xmlns:sodipodi="http://sodipodi.sourceforge.net/DTD/sodipodi-0.dtd"
   xmlns="http://www.w3.org/2000/svg"
   xmlns:svg="http://www.w3.org/2000/svg">
  <defs
     id="defs1" />
  <sodipodi:namedview
     id="namedview1"
     pagecolor="#ffffff"
     bordercolor="#000000"
     borderopacity="0.25"
     inkscape:showpageshadow="2"
     inkscape:pageopacity="0.0"
     inkscape:pagecheckerboard="0"
     inkscape:deskcolor="#d1d1d1"
     inkscape:zoom="2.766624"
     inkscape:cx="147.47215"
     inkscape:cy="147.29143"
     inkscape:window-width="1920"
     inkscape:window-height="1017"
     inkscape:window-x="-8"
     inkscape:window-y="-8"
     inkscape:window-maximized="1"
     inkscape:current-layer="g1" />
  <g
     inkscape:groupmode="layer"
     inkscape:label="Image"
     id="g1">
    <path
       style="fill:#000000"
       d="m 282.37714,265.44844 c -3.31643,-2.38328 -6.21064,-5.27927 -8.65225,-8.65759 -0.90313,-1.2496 -2.20589,-2.96424 -2.89503,-3.81032 -0.68913,-0.84607 -1.4568,-1.98367 -1.70593,-2.52799 -0.24912,-0.54433 -0.90632,-1.51878 -1.46044,-2.16545 -0.55412,-0.64667 -1.33803,-2.00439 -1.74202,-3.01714 -0.40398,-1.01276 -0.89067,-2.02652 -1.08152,-2.25281 -0.19086,-0.22628 -0.86943,-1.39886 -1.50794,-2.60571 -0.69109,-1.30623 -2.25418,-3.4661 -3.86221,-5.33679 -1.4857,-1.72837 -3.11076,-3.80135 -3.61125,-4.60661 -0.50049,-0.80527 -1.28649,-1.98314 -1.74667,-2.6175 -1.5756,-2.17198 -3.94422,-7.25551 -5.31586,-11.40889 -0.75439,-2.2843 -2.09331,-5.6633 -2.97539,-7.50889 -0.88208,-1.84558 -1.89382,-4.15789 -2.24831,-5.13847 -0.35449,-0.98057 -0.75649,-1.92934 -0.89334,-2.10837 -0.13684,-0.17904 -0.94988,-0.40811 -1.80675,-0.50905 -1.70433,-0.20077 -2.56254,-0.63323 -3.5239,-1.77574 -0.66025,-0.78466 -1.81316,-1.16471 -2.77235,-0.91387 -0.48596,0.12708 -0.59574,0.44001 -0.75661,2.15681 -0.24127,2.5747 -0.83645,3.2109 -3.45148,3.68936 -1.66141,0.30398 -1.90507,0.28533 -2.88,-0.22047 -2.10899,-1.09416 -3.89954,-3.35275 -5.55843,-7.01136 -0.94072,-2.0747 -2.6735,-4.65874 -3.85041,-5.74198 -0.46462,-0.42765 -0.84477,-0.89533 -0.84477,-1.03929 0,-0.14396 -0.86041,-0.67409 -1.91203,-1.17806 -1.42523,-0.68302 -2.45527,-0.96349 -4.04571,-1.10158 -1.17353,-0.1019 -3.4914,-0.42004 -5.15083,-0.70698 -1.65943,-0.28694 -4.99374,-0.71277 -7.40958,-0.94629 -4.84665,-0.46849 -7.65753,-0.91625 -10.96756,-1.74709 -1.20686,-0.30293 -3.05829,-0.68081 -4.11429,-0.83973 -1.056,-0.15892 -2.90742,-0.54642 -4.11428,-0.86112 -1.20686,-0.3147 -3.05829,-0.73306 -4.11429,-0.92968 -2.76473,-0.51478 -8.43931,-2.24254 -10.83428,-3.29877 -1.13143,-0.49898 -4.40229,-1.67381 -7.26857,-2.61075 -2.86629,-0.93693 -5.64343,-1.87523 -6.17143,-2.08511 -0.528,-0.20988 -2.93486,-0.95092 -5.34857,-1.64675 -2.41372,-0.69583 -5.49943,-1.61915 -6.85715,-2.05183 -1.35771,-0.43268 -3.63521,-0.98475 -5.06111,-1.22683 -1.42589,-0.24207 -2.66611,-0.48561 -2.75603,-0.54118 -0.63385,-0.39174 -13.55206,-2.13133 -19.33714,-2.60397 -1.96115,-0.16023 -11.58857,-0.36088 -21.394288,-0.44589 -9.805714,-0.085 -26.16,-0.23937 -36.342857,-0.34301 L 35.52,164.96727 27.84,160.2905 20.16,155.61374 20.00728,153.5783 c -0.084,-1.11949 -0.04544,-6.84916 0.08568,-12.73259 0.13112,-5.88343 0.214273,-20.07771 0.184785,-31.54285 -0.02949,-11.465146 0.01167,-21.462861 0.09146,-22.217146 l 0.145077,-1.371429 7.029759,-4.283734 c 3.866368,-2.356055 7.252373,-4.485197 7.524455,-4.731429 0.447187,-0.404698 2.376085,-0.450425 20.084528,-0.476127 32.233884,-0.04678 68.035254,-0.425778 69.166374,-0.732195 0.67775,-0.183601 1.42532,-0.187732 2.19428,-0.01212 0.79322,0.181145 1.99987,0.162657 3.77203,-0.05779 1.43315,-0.178277 4.39543,-0.490877 6.58286,-0.694666 2.18743,-0.203789 5.21143,-0.499957 6.72,-0.658151 1.50857,-0.158195 4.84581,-0.468413 7.41607,-0.689373 2.57027,-0.220961 5.53256,-0.57897 6.58286,-0.795576 1.0503,-0.216606 4.3165,-0.599874 7.25821,-0.851707 8.56404,-0.733145 17.96564,-1.751825 21.66857,-2.347828 4.12894,-0.66457 12.05677,-1.371029 13.25993,-1.181609 1.16968,0.184148 9.32707,-0.877874 10.91697,-1.421298 0.99974,-0.341707 1.99551,-1.155431 4.62505,-3.779497 4.12585,-4.117265 5.80354,-6.312957 7.79458,-10.201178 1.90068,-3.711768 1.79987,-3.581193 4.12165,-5.338539 1.0479,-0.793158 2.97696,-2.424887 4.28679,-3.626066 3.51037,-3.219189 3.36163,-3.145504 4.38172,-2.170646 1.00702,0.962363 2.06895,1.256381 3.10923,0.860864 0.41318,-0.157087 0.7997,-0.285613 0.85895,-0.285613 0.0593,0 0.41758,0.528728 0.79629,1.174951 0.9852,1.681106 1.5853,4.761033 1.26093,6.471444 -0.2649,1.396825 -0.10977,2.344315 0.61441,3.752485 0.2282,0.443759 0.673,2.07642 0.98844,3.628137 0.32693,1.608263 0.86629,3.320895 1.25447,3.983262 0.37452,0.639077 0.87756,2.009723 1.11786,3.04588 0.2403,1.036157 0.72499,2.452832 1.07709,3.148167 0.3521,0.695335 0.82775,1.896481 1.05701,2.669215 0.22926,0.772733 1.12363,2.809305 1.9875,4.525714 0.86387,1.71641 1.72858,3.709106 1.92158,4.428214 0.193,0.719107 0.79184,1.971756 1.33075,2.783664 1.23003,1.853127 1.41382,2.35413 1.65052,4.499263 0.10518,0.95329 0.68135,3.199105 1.28036,4.990701 0.92303,2.760705 1.15012,3.918511 1.48917,7.59246 0.83409,9.038293 0.96938,10.386163 1.10245,10.983733 0.0752,0.33794 1.0129,1.44879 2.08366,2.46857 1.07076,1.01978 2.43103,2.56385 3.02282,3.43128 0.59179,0.86743 1.1682,1.57714 1.28091,1.57714 0.32456,0 1.12715,1.50327 1.65203,3.09426 0.77614,2.35264 -0.1554,4.43022 -2.3044,5.13946 -0.74424,0.24562 -0.9356,0.49271 -1.20252,1.55276 -0.37424,1.48623 -0.18979,2.5505 0.65874,3.80087 0.42191,0.62173 0.71434,1.65454 0.92037,3.25063 0.1661,1.28665 0.53725,2.80732 0.82479,3.37927 0.28755,0.57194 0.68079,1.53361 0.87387,2.13704 0.19307,0.60343 0.69764,1.60459 1.12125,2.2248 1.29871,1.90146 1.70216,3.19053 1.37236,4.38494 -0.36192,1.31078 -0.15149,2.16027 0.66818,2.69733 0.35394,0.23191 1.00858,0.95224 1.45474,1.60072 0.76665,1.11428 0.79594,1.25632 0.53315,2.58537 -0.31697,1.60311 -0.0523,3.37388 0.89383,5.98113 0.5886,1.6219 0.59071,1.68608 0.14604,4.4362 -0.68012,4.20628 -1.18493,5.87734 -2.09853,6.94665 -0.45111,0.528 -1.01331,1.392 -1.24933,1.92 -0.23603,0.528 -1.02676,2.00915 -1.75719,3.29143 -0.73043,1.28229 -1.41105,2.82514 -1.51248,3.42857 -0.10144,0.60343 -0.49538,1.64044 -0.87544,2.30446 -0.40266,0.70353 -0.8438,2.13418 -1.05719,3.42857 -0.2014,1.22169 -0.55157,3.1097 -0.77815,4.19557 -0.38552,1.84762 -0.37742,2.10284 0.12621,3.97714 1.43535,5.34182 2.1445,8.98003 2.55741,13.12047 0.30801,3.08867 0.35606,3.24254 2.03493,6.51734 1.53317,2.99061 1.7783,3.69811 2.26248,6.53029 0.29866,1.74697 0.72147,3.81303 0.93958,4.59124 0.21811,0.77821 0.52441,3.11571 0.68067,5.19444 0.15627,2.07874 0.47413,4.5128 0.70636,5.40903 0.72891,2.81295 2.73562,7.46864 4.03811,9.36864 0.95195,1.38867 1.36579,2.3408 1.72863,3.97714 0.26237,1.18326 0.69824,3.13882 0.96859,4.34567 0.3668,1.63743 0.88095,2.84299 2.02601,4.7505 2.07332,3.45386 2.80975,4.95051 3.20157,6.50658 0.32048,1.27272 0.3078,1.33249 -0.41431,1.95362 -0.89955,0.77376 -0.91605,0.77403 -1.94859,0.032 z"
       id="path1" />
  </g>
</svg>
