<?xml version="1.0" encoding="UTF-8" standalone="no"?>
<!-- Created with Inkscape (http://www.inkscape.org/) -->

<svg
   version="1.1"
   id="svg1"
   width="294.58286"
   height="294.58286"
   viewBox="0 0 294.58286 294.58286"
   sodipodi:docname="terlingua-large-3-v-outline.svg"
   inkscape:version="1.4 (86a8ad7, 2024-10-11)"
   xmlns:inkscape="http://www.inkscape.org/namespaces/inkscape"
   xmlns:sodipodi="http://sodipodi.sourceforge.net/DTD/sodipodi-0.dtd"
   xmlns="http://www.w3.org/2000/svg"
   xmlns:svg="http://www.w3.org/2000/svg">
  <defs
     id="defs1" />
  <sodipodi:namedview
     id="namedview1"
     pagecolor="#ffffff"
     bordercolor="#000000"
     borderopacity="0.25"
     inkscape:showpageshadow="2"
     inkscape:pageopacity="0.0"
     inkscape:pagecheckerboard="0"
     inkscape:deskcolor="#d1d1d1"
     inkscape:zoom="2.766624"
     inkscape:cx="147.47215"
     inkscape:cy="147.29143"
     inkscape:window-width="1920"
     inkscape:window-height="1017"
     inkscape:window-x="-8"
     inkscape:window-y="-8"
     inkscape:window-maximized="1"
     inkscape:current-layer="g1" />
  <g
     inkscape:groupmode="layer"
     inkscape:label="Image"
     id="g1">
    <path
       style="fill:#000000"
       d="m 253.68893,184.10367 c -3.04909,-2.13328 -3.40069,-2.43893 -10.19997,-8.867 -5.52836,-5.22653 -4.90267,-4.82619 -11.14813,-7.13307 l -3.13346,-1.15741 -2.07797,0.7353 c -2.3632,0.83624 -3.01287,0.88873 -4.23081,0.34184 -0.47537,-0.21346 -1.48145,-0.46032 -2.23573,-0.54858 -0.75429,-0.0883 -1.84672,-0.23715 -2.42762,-0.33085 -1.34717,-0.2173 -4.23797,0.5292 -6.10863,1.57746 -1.26465,0.70867 -1.64779,0.78521 -3.84,0.76719 -3.89019,-0.032 -5.00495,-0.28289 -6.97444,-1.56975 -0.9706,-0.6342 -1.92416,-1.15309 -2.119,-1.15309 -0.19485,0 -0.98456,0.3194 -1.75492,0.70977 -1.64223,0.83218 -4.80706,1.18546 -6.28452,0.70152 -0.51512,-0.16872 -1.93636,-0.48034 -3.1583,-0.69247 -1.37939,-0.23947 -2.64589,-0.65347 -3.34052,-1.09198 -1.13746,-0.71804 -2.08761,-0.99152 -5.27205,-1.51744 -0.98058,-0.16194 -2.25274,-0.37329 -2.82703,-0.46966 -1.83355,-0.30767 -2.1514,-1.39536 -1.28679,-4.40341 0.32093,-1.11654 0.30386,-1.17337 -0.80186,-2.67013 -1.94214,-2.62898 -3.73454,-3.13275 -9.44808,-2.6555 -2.13194,0.17809 -4.25529,0.44074 -4.71857,0.58369 -0.46329,0.14294 -1.05457,0.2599 -1.31397,0.2599 -0.2594,0 -0.83896,0.27157 -1.28791,0.6035 -0.67856,0.50168 -1.23255,0.61397 -3.28372,0.66556 -1.3571,0.0341 -2.92078,0.21168 -3.47484,0.39454 -1.2906,0.42594 -5.54436,0.16793 -7.38137,-0.44771 -3.0524,-1.02295 -7.35403,-3.43931 -10.25586,-5.76104 -1.42789,-1.14243 -2.21857,-1.54516 -3.97122,-2.02271 -1.2036,-0.32794 -2.59117,-0.84522 -3.0835,-1.14949 -0.84826,-0.52425 -1.17893,-0.54336 -6.3145,-0.36494 -2.98064,0.10355 -8.07307,0.2082 -11.3165,0.23254 -3.24343,0.0243 -6.48111,0.14788 -7.19486,0.27452 -1.08062,0.19174 -1.483532,0.13341 -2.408444,-0.34868 -1.401499,-0.73051 -2.609532,-0.73178 -4.597832,-0.005 -2.908309,1.0633 -3.623904,1.18633 -4.905989,0.84342 -1.095016,-0.29287 -1.409071,-0.23963 -4.000587,0.67824 -3.63233,1.2865 -6.524185,1.36688 -9.943714,0.27639 -3.753293,-1.19693 -4.179758,-1.23522 -10.733314,-0.96352 -6.865399,0.28462 -10.215138,0.81166 -23.008379,3.62011 -1.058503,0.23237 -2.87577,0.50868 -4.038372,0.61404 -2.058582,0.18654 -2.119789,0.17445 -2.342147,-0.46276 -0.125579,-0.35987 -0.118945,-4.72746 0.01474,-9.70574 0.15203,-5.66133 0.144477,-10.01664 -0.02017,-11.6285 -0.162803,-1.59382 -0.166311,-2.92812 -0.0092,-3.49715 l 0.254044,-0.92007 h 2.198136 c 1.977401,0 2.42369,0.10591 4.444251,1.0546 2.512702,1.17977 2.622605,1.19267 14.314685,1.68092 3.331594,0.13912 6.45383,0.41228 7.405714,0.64792 3.179193,0.787 7.454284,1.32515 12.48,1.571 2.790857,0.13653 6,0.42764 7.131428,0.64692 1.131429,0.21928 2.365715,0.3269 2.742857,0.23916 0.377143,-0.0877 1.981715,-0.77145 3.565715,-1.51934 2.577683,-1.21707 3.067148,-1.357 4.662857,-1.33303 0.980571,0.0147 2.424075,-0.0767 3.207786,-0.20306 0.783711,-0.1264 2.846163,-0.12075 4.583213,0.0126 2.64162,0.20273 3.41811,0.16778 4.7465,-0.21364 2.41517,-0.69347 3.82875,-0.78665 4.56963,-0.30121 0.42969,0.28154 1.00113,0.37035 1.7429,0.27085 0.93021,-0.12476 1.42554,0.0276 3.15258,0.96985 2.92132,1.59379 3.79569,1.7259 10.00115,1.51101 l 5.36836,-0.1859 1.51661,-1.32716 c 0.83414,-0.72994 1.6517,-1.34739 1.8168,-1.37212 0.1651,-0.0247 0.97904,-0.0721 1.80876,-0.10536 0.97115,-0.0389 2.20442,-0.36178 3.46187,-0.90642 1.67599,-0.72593 2.20167,-0.82965 3.70285,-0.73061 3.46152,0.22836 8.91058,0.93263 10.38956,1.3428 0.82972,0.23011 2.13141,0.5916 2.89265,0.80332 1.60725,0.447 2.36508,0.81888 2.84353,1.39539 0.18838,0.22697 0.88761,0.67656 1.55386,0.99909 1.40187,0.67863 3.15246,2.60299 3.98284,4.37818 0.78821,1.68504 1.23039,2.12745 3.04034,3.04189 2.41741,1.22135 3.85841,1.45744 5.54146,0.90793 1.4144,-0.4618 3.06621,-1.88945 3.23959,-2.79996 0.10827,-0.56858 2.30603,-0.72679 5.43145,-0.39101 1.88759,0.2028 2.23799,0.15539 4.25142,-0.57517 1.9889,-0.72167 2.33549,-0.77029 3.70286,-0.51943 2.35831,0.43266 4.68469,1.15149 5.89048,1.8201 0.98594,0.5467 1.45529,0.60743 4.39524,0.56872 2.31405,-0.0305 3.61722,-0.17526 4.38857,-0.4876 0.78114,-0.3163 2.00565,-0.44827 4.25143,-0.45821 3.6966,-0.0164 7.06069,-0.71233 8.8439,-1.82963 0.64214,-0.40234 1.87991,-1.3878 2.75061,-2.1899 1.00115,-0.92227 2.00942,-1.57705 2.74286,-1.78123 1.75207,-0.48777 4.25927,-0.43902 6.09691,0.11854 4.84467,1.46992 4.62074,1.3573 5.24035,2.63563 0.68854,1.42054 1.54714,2.12752 2.85397,2.35 1.30668,0.22245 4.29081,1.80739 7.69993,4.0896 1.55652,1.042 3.26815,1.99652 3.80361,2.12116 0.53546,0.12463 2.57814,0.59756 4.53928,1.05095 5.4481,1.25952 5.44991,1.26032 6.58449,2.90769 1.10117,1.59884 2.05349,4.80971 2.05848,6.94037 0.002,0.69747 0.19347,1.88527 0.42629,2.63956 0.28733,0.93084 0.41798,2.42882 0.40668,4.66285 -0.0176,3.48066 -0.27058,5.37566 -1.13514,8.50286 -0.29195,1.056 -0.71667,3.46286 -0.94382,5.34857 -0.44129,3.66333 -1.06617,5.73351 -2.52517,8.36572 -0.93753,1.69142 -2.28871,3.16244 -2.88756,3.14367 -0.18619,-0.006 -1.52251,-0.83898 -2.9696,-1.85143 z m 3.64162,-0.26367 c 1.58116,-1.85172 2.92199,-5.43911 3.25494,-8.70857 0.13827,-1.35772 0.57354,-3.82629 0.96728,-5.48572 0.7821,-3.29616 1.55578,-10.12983 1.31978,-11.65714 -0.0816,-0.528 -0.25793,-1.26857 -0.39188,-1.64571 -0.13395,-0.37715 -0.36525,-1.79658 -0.51399,-3.15429 -0.35863,-3.27353 -0.92184,-5.03075 -2.00791,-6.26469 -0.96496,-1.09633 -1.7539,-1.37349 -7.47877,-2.62731 -3.10229,-0.67944 -4.65806,-1.36823 -7.68836,-3.40388 -3.33834,-2.24258 -4.6513,-2.91611 -6.69746,-3.43574 -2.03771,-0.51748 -2.62482,-1.00451 -3.37483,-2.79956 -0.43268,-1.03554 -0.25817,-0.95496 -4.65643,-2.14997 -2.45427,-0.66684 -2.70987,-0.68146 -4.64761,-0.26589 -1.1822,0.25354 -1.74754,0.59782 -3.09921,1.88736 -3.05971,2.91906 -6.57936,4.08949 -12.35039,4.10703 l -3.29143,0.01 -1.76303,1.23132 c -0.96967,0.67723 -1.92624,1.23133 -2.12571,1.23133 -0.59218,0 -0.41243,-0.7168 0.25446,-1.01476 0.5328,-0.23805 0.40307,-0.30251 -0.94934,-0.47175 -0.86157,-0.10781 -2.1236,-0.11247 -2.80453,-0.0104 -1.05709,0.15852 -1.42947,0.0735 -2.5478,-0.58202 -1.21506,-0.71218 -2.31517,-1.07274 -5.60288,-1.83635 -1.12828,-0.26206 -1.46167,-0.21954 -2.88,0.36731 -1.48397,0.614 -1.89657,0.65736 -5.51259,0.57944 l -3.90858,-0.0842 -0.004,0.77207 c -0.002,0.42464 -0.14851,2.25322 -0.32472,4.06351 -0.17621,1.81028 -0.33356,4.58743 -0.34968,6.17143 -0.0283,2.77941 -0.74818,7.86161 -1.70087,12.00716 -0.27929,1.21533 -0.35954,2.0903 -0.20522,2.23757 0.13937,0.13301 0.87055,0.30427 1.62483,0.38059 3.11118,0.31475 5.56728,0.92523 7.01923,1.74466 0.93437,0.52732 2.23063,0.9638 3.41485,1.14984 1.04983,0.16492 2.33997,0.42529 2.86697,0.57859 1.81167,0.527 3.75238,0.33782 5.81313,-0.56665 2.24151,-0.98381 2.57813,-0.94665 4.97928,0.54967 1.92173,1.19755 2.66923,1.3755 5.96089,1.41905 2.09935,0.0278 2.51111,-0.0539 3.84,-0.76138 0.81868,-0.43586 2.51816,-1.02697 3.77661,-1.31357 2.18021,-0.49651 2.36991,-0.49929 4.02283,-0.0589 0.95409,0.25423 1.91902,0.39152 2.14428,0.30507 0.22526,-0.0864 0.78486,0.0369 1.24356,0.27411 1.15799,0.59882 1.94827,0.54282 4.01494,-0.28453 1.89308,-0.75785 3.02247,-0.74756 4.54821,0.0414 0.39963,0.20665 2.07018,0.82029 3.71234,1.36364 3.51907,1.16438 4.7887,2.13391 11.5219,8.79851 0.9283,0.91885 2.288,2.15313 3.02154,2.74286 0.73355,0.58972 1.43067,1.22337 1.54916,1.40809 0.30702,0.47865 4.88842,3.64128 5.27478,3.64128 0.17705,0 0.50635,-0.216 0.73177,-0.48 z m -5.02331,-11.72572 c -0.40774,-0.64734 -2.44314,-6.01088 -3.38287,-8.91428 -1.85147,-5.72031 -3.74495,-9.83088 -5.6082,-12.17486 -0.91457,-1.15054 -1.04321,-1.5418 -0.50474,-1.53526 0.58134,0.007 2.41328,2.73652 3.81784,5.68829 0.73605,1.54685 2.06541,4.94113 2.95414,7.54285 0.88873,2.60173 1.94171,5.51616 2.33995,6.47652 0.39824,0.96036 0.6864,2.07122 0.64036,2.46857 -0.046,0.39735 -0.16146,0.59903 -0.25648,0.44817 z m 5.55787,-4.95298 c -0.30351,-0.38585 -0.73963,-1.219 -0.96916,-1.85143 -0.22952,-0.63243 -0.91963,-2.50759 -1.53357,-4.16701 -1.10908,-2.99774 -1.68317,-6.47194 -1.18381,-7.16403 0.28468,-0.39455 2.73792,-1.61728 3.71857,-1.85339 1.19072,-0.28669 0.94273,0.50744 -0.27428,0.87834 -0.56572,0.17241 -1.4469,0.57086 -1.95818,0.88545 l -0.9296,0.57199 0.16397,1.83225 c 0.18965,2.11912 2.60154,9.01174 3.62865,10.36982 0.59537,0.78722 0.62903,1.19957 0.0979,1.19957 -0.11476,0 -0.45699,-0.3157 -0.76051,-0.70156 z m -50.90315,-1.74534 c -0.18419,-0.29804 2.0366,-3.63072 2.5287,-3.79475 0.63343,-0.21114 0.33942,0.51837 -0.92045,2.28392 -1.33747,1.87429 -1.36666,1.90172 -1.60825,1.51083 z m 13.17854,-1.04689 c -0.0905,-0.0905 0.0211,-0.36972 0.24805,-0.62048 0.46056,-0.50891 1.78288,-4.20633 1.78288,-4.9852 0,-0.2753 0.18514,-0.50053 0.41143,-0.50053 0.22628,0 0.41142,0.22523 0.41142,0.50053 0,0.55232 -1.14452,4.04871 -1.61009,4.91862 -0.31648,0.59135 -0.97539,0.95536 -1.24369,0.68706 z m 6.14521,-1.29777 c 0,-0.0708 0.26074,-0.62893 0.57942,-1.24033 0.48352,-0.92765 0.54746,-1.37168 0.38631,-2.68274 -0.10621,-0.8641 -0.45061,-2.03256 -0.76534,-2.59659 -0.56939,-1.0204 -0.5304,-1.54226 0.0867,-1.16085 0.51539,0.31853 1.28781,2.33395 1.49416,3.89859 0.15522,1.17697 0.081,1.66235 -0.40886,2.67429 -0.32917,0.67998 -0.77263,1.23633 -0.98546,1.23633 -0.21282,0 -0.38696,-0.0579 -0.38696,-0.1287 z m -8.04782,-0.3513 c -0.23303,-0.38073 0.25597,-3.90643 0.58783,-4.2383 0.25523,-0.25522 0.32856,-0.08 0.32856,0.78516 0,2.5016 -0.4533,4.20974 -0.91639,3.45314 z m 16.46355,0.0272 c -0.21725,-0.21725 0.81912,-2.25951 1.55808,-3.07035 0.69979,-0.76786 2.07482,-1.52532 2.32137,-1.27877 0.0966,0.0966 -0.35158,0.61356 -0.99595,1.14881 -0.64437,0.53525 -1.41197,1.44438 -1.70577,2.02028 -0.56385,1.10523 -0.90786,1.44991 -1.17773,1.18003 z m -49.35287,-0.51996 c -0.41486,-0.22887 -0.75429,-0.59734 -0.75429,-0.81881 0,-0.5133 0.13599,-0.50593 0.98997,0.0536 0.38301,0.25096 1.1501,0.47204 1.70464,0.4913 0.55454,0.0193 1.00825,0.15336 1.00825,0.298 0,0.43804 -2.14266,0.42052 -2.94857,-0.0241 z m -5.14286,-5.19862 c 0,-3.42241 0.24634,-4.59189 0.64998,-3.08571 0.2184,0.81493 0.21753,3.91771 -0.002,5.516 -0.33334,2.43193 -0.64844,1.25095 -0.64844,-2.43029 z m 16.62023,3.47054 c -0.079,-0.12777 0.20878,-0.56989 0.63944,-0.98249 0.93634,-0.89707 1.34722,-0.52267 0.54526,0.49685 -0.58387,0.74227 -0.9367,0.88691 -1.1847,0.48564 z m -1.97556,-2.56781 c -0.61306,-1.18552 -0.6326,-2.82663 -0.0407,-3.41853 0.62418,-0.62417 0.92525,-0.26802 0.52185,0.61734 -0.34513,0.75747 -0.0131,2.67323 0.52041,3.00298 0.30469,0.1883 0.0913,0.67834 -0.29536,0.67834 -0.13808,0 -0.45587,-0.39606 -0.70619,-0.88013 z m 20.04134,-1.68574 c 0.23119,-2.7754 -0.0922,-4.16779 -1.21878,-5.24708 -0.89125,-0.85388 -1.03708,-1.23848 -0.4696,-1.23848 0.73615,0 2.07791,1.77092 2.3899,3.15428 0.41089,1.82194 -0.005,5.62286 -0.61542,5.62286 -0.17959,0 -0.20987,-0.80577 -0.0861,-2.29158 z m -17.06315,0.88263 c -0.18857,-0.19056 -0.34286,-0.54506 -0.34286,-0.78777 0,-0.67203 0.69276,-1.48177 1.06885,-1.24933 0.21559,0.13324 0.23833,0.31337 0.0659,0.5219 -0.14483,0.17514 -0.30511,0.66567 -0.35617,1.09006 -0.0745,0.61949 -0.16044,0.70331 -0.4357,0.42514 z m -14.47718,-1.47105 c -0.0707,-0.22628 -0.18284,-0.58736 -0.24922,-0.80239 -0.17123,-0.55474 0.37109,-2.40082 0.87032,-2.96257 0.71779,-0.80769 0.88676,-0.26084 0.31722,1.02669 -0.38338,0.86669 -0.49031,1.51128 -0.36316,2.18906 0.18113,0.9655 -0.30121,1.42609 -0.57516,0.54921 z m 19.34575,-1.79648 c 0,-1.57023 1.69237,-4.71229 2.24205,-4.16261 0.15662,0.15662 -0.0917,0.81176 -0.64529,1.70224 -0.64108,1.03127 -0.89189,1.75301 -0.87206,2.50939 0.0191,0.73035 -0.0896,1.06175 -0.34843,1.06175 -0.25689,0 -0.37627,-0.35241 -0.37627,-1.11077 z M 186.24,153.73714 c 0,-0.256 0.25905,-0.41143 0.68571,-0.41143 0.76607,0 0.9196,0.40013 0.25186,0.65637 -0.68636,0.26338 -0.93757,0.19775 -0.93757,-0.24494 z m 5.04654,-0.52198 c -0.18224,-0.47488 0.73165,-2.31635 1.48985,-3.00203 0.87988,-0.79573 1.32062,-0.25652 0.49494,0.60553 -0.38151,0.39831 -0.88701,1.18705 -1.12332,1.75277 -0.46506,1.11332 -0.6331,1.23888 -0.86147,0.64373 z m 59.461,-4.2574 c -1.5454,-0.52694 -4.31221,-2.32279 -6.35897,-4.12741 -2.03172,-1.79136 -0.47261,-1.36402 1.87123,0.51289 3.22637,2.58362 4.50634,3.18182 6.7002,3.13135 1.01828,-0.0234 1.85143,0.0687 1.85143,0.20475 0,0.22814 -0.25369,0.31155 -1.98857,0.65385 -0.33943,0.067 -1.27333,-0.10197 -2.07532,-0.37543 z m -26.64719,-2.34129 c -0.45689,-0.55052 -0.74787,-2.7665 -0.3293,-2.50781 0.17143,0.10595 0.41335,0.5877 0.5376,1.07056 0.17446,0.67798 0.39408,0.89769 0.96434,0.96471 0.41796,0.0491 0.73844,0.25744 0.73844,0.48 0,0.52578 -1.4733,0.52003 -1.91108,-0.007 z M 180.48,144.5926 c 0,-0.12664 0.29623,-0.36523 0.6583,-0.5302 0.36206,-0.16497 0.63978,-0.4625 0.61714,-0.66117 -0.0722,-0.63397 0.5035,-0.54547 0.60204,0.0925 0.0554,0.35868 -0.10847,0.76113 -0.39529,0.97086 -0.54855,0.40112 -1.48219,0.48172 -1.48219,0.12797 z m 15.54286,-0.50117 c -0.40619,-0.40619 -0.14204,-0.69615 0.51904,-0.56978 0.55325,0.10576 0.85822,-0.0617 1.44,-0.79087 0.82927,-1.03932 1.14953,-1.1585 1.14953,-0.42781 0,1.12495 -2.39447,2.50256 -3.10857,1.78846 z m 7.49714,-1.07942 c 0,-0.22629 0.40114,-0.5964 0.89143,-0.82247 0.49028,-0.22607 1.632,-0.85161 2.53714,-1.39009 2.98441,-1.77545 3.28284,-1.92272 4.25143,-2.09784 0.528,-0.0955 1.40934,-0.0693 1.95853,0.0582 0.95868,0.2225 2.97859,1.59054 2.9786,2.01735 2e-5,0.43287 -0.81583,0.1762 -1.63743,-0.51513 -0.53455,-0.44979 -1.30981,-0.77192 -2.06175,-0.85668 -1.03884,-0.11709 -1.50054,0.0254 -3.34722,1.03311 -1.17819,0.64291 -2.45073,1.38458 -2.82787,1.64815 -0.37715,0.26358 -1.14858,0.67219 -1.71429,0.90804 -0.90656,0.37794 -1.02857,0.38 -1.02857,0.0174 z m -12.89693,-3.27007 c -0.48538,-0.58485 -0.12622,-0.82715 0.68094,-0.45939 0.5793,0.26395 0.7944,0.21065 1.48075,-0.36687 0.9238,-0.77733 1.13524,-0.83025 1.13524,-0.28416 0,0.59181 -1.34677,1.52848 -2.19769,1.52848 -0.41376,0 -0.90841,-0.18813 -1.09924,-0.41806 z m 27.58447,-0.38335 c -0.0859,-0.13906 0.52639,-0.56536 1.36073,-0.94734 0.97875,-0.44808 1.68536,-0.99034 1.99151,-1.52828 0.53369,-0.93779 0.88593,-1.07683 0.88593,-0.34972 0,0.81903 -0.79442,1.6831 -2.20426,2.39752 -1.46358,0.74165 -1.79665,0.81171 -2.03391,0.42782 z m 8.90103,-0.51373 c -0.81832,-0.1299 -1.42191,-0.57556 -1.22063,-0.90124 0.1666,-0.26957 1.77853,-0.0221 2.16692,0.33265 0.39674,0.3624 -0.15538,0.69415 -0.94629,0.56859 z m -50.63761,14.34371 c 0.26394,-1.65943 0.42024,-3.696 0.34734,-4.52571 -0.0729,-0.82972 -0.028,-2.37258 0.0997,-3.42858 0.12775,-1.056 0.3094,-2.6974 0.40368,-3.64757 l 0.1714,-1.72758 -1.04369,0.52839 c -2.38348,1.20668 -4.6666,1.21545 -7.20479,0.0277 -2.59262,-1.21324 -3.37062,-1.91359 -4.48813,-4.04022 -0.97641,-1.85811 -2.84075,-3.89499 -3.56505,-3.89499 -0.1987,0 -0.86597,-0.432 -1.48281,-0.96 -0.61685,-0.528 -1.24241,-0.96 -1.39012,-0.96 -0.14772,0 -1.36238,-0.32004 -2.69926,-0.71119 -1.33687,-0.39116 -3.97354,-0.88813 -5.85925,-1.10437 -7.02791,-0.80592 -6.68743,-0.80744 -8.6784,0.0387 -2.11214,0.89767 -3.70939,2.43883 -4.3999,4.24539 -0.47574,1.24467 -1.69531,3.01712 -2.07599,3.01714 -0.38603,10e-6 -0.20668,-0.74764 0.34873,-1.45373 0.30494,-0.38768 0.74174,-1.23572 0.97066,-1.88453 0.22891,-0.64882 0.73679,-1.51429 1.1286,-1.92325 l 0.71239,-0.74358 -0.6935,-0.17406 c -0.7946,-0.19943 -1.99313,0.33478 -2.81038,1.25267 -0.73351,0.82382 -2.5283,1.62161 -3.66487,1.62903 -0.50746,0.003 -1.40093,0.27483 -1.9855,0.60338 -1.13078,0.63553 -1.66379,0.53077 -1.05172,-0.20672 0.33914,-0.40864 0.0979,-0.42927 -2.9167,-0.24934 -3.8923,0.23231 -5.81283,-0.1462 -8.57267,-1.6896 -1.49366,-0.8353 -1.91718,-0.95463 -2.85555,-0.80458 -0.79314,0.12683 -1.29275,0.0511 -1.78346,-0.27046 -0.72624,-0.47585 -1.15195,-0.45109 -4.18603,0.24342 -1.32978,0.30439 -2.58444,0.36241 -4.93714,0.2283 -1.73486,-0.0989 -3.771428,-0.098 -4.525713,0.002 -0.754286,0.0999 -2.124828,0.1925 -3.045649,0.20572 -1.373343,0.0197 -2.137374,0.24028 -4.251429,1.22736 -3.679325,1.71794 -4.162883,1.8158 -6.718326,1.35962 -1.192099,-0.2128 -4.432756,-0.49932 -7.201459,-0.63671 -5.358324,-0.26588 -7.290192,-0.5023 -12.52028,-1.53223 -2.406807,-0.47395 -4.65522,-0.68938 -8.365714,-0.80154 -10.258089,-0.31007 -11.385347,-0.44261 -13.833556,-1.62652 -1.698321,-0.82129 -2.477755,-1.04569 -3.548213,-1.02158 -0.754491,0.017 -1.478064,0.13717 -1.607941,0.26705 -0.131996,0.132 -0.100349,1.31309 0.07176,2.67807 0.300321,2.38183 0.138472,19.04474 -0.196565,20.23706 -0.135152,0.48098 -0.02004,0.50216 1.736312,0.3195 1.034583,-0.10759 3.238775,-0.49731 4.898204,-0.86604 6.966411,-1.54797 8.101412,-1.78407 11.108571,-2.31078 1.734857,-0.30387 4.189884,-0.61431 5.455615,-0.68988 1.265732,-0.0756 2.392983,-0.19404 2.505003,-0.26327 0.11202,-0.0692 2.495932,-0.13503 5.297582,-0.14622 5.046688,-0.0202 5.117543,-0.0122 7.643568,0.86052 2.118458,0.73189 2.967149,0.88246 5.018232,0.89034 2.188585,0.008 2.777992,-0.10603 5.196657,-1.00897 2.591233,-0.96736 2.799272,-1.00251 4.14715,-0.70087 1.319482,0.29528 1.595246,0.25657 3.929729,-0.55168 2.832541,-0.98069 4.360153,-1.04266 5.725207,-0.23225 0.742478,0.44079 1.141706,0.49456 2.331426,0.314 0.78955,-0.11983 4.02755,-0.23669 7.19555,-0.25968 3.16799,-0.023 8.22857,-0.12362 11.24571,-0.22363 5.45641,-0.18086 5.49231,-0.17826 6.72,0.48655 0.67886,0.3676 2.19484,0.91367 3.36886,1.21348 1.69432,0.43269 2.42975,0.79473 3.56572,1.75536 2.62341,2.21851 6.05987,4.24907 9.6597,5.70781 1.40224,0.56822 2.07181,0.66307 4.52572,0.64109 1.584,-0.0142 4.176,-0.14306 5.76,-0.28638 2.42253,-0.2192 3.04816,-0.37685 3.93865,-0.99251 0.58226,-0.40256 1.32283,-0.73486 1.64571,-0.73846 0.32289,-0.004 1.88307,-0.14036 3.46707,-0.30394 7.13708,-0.737 9.93431,-0.31409 11.92129,1.80238 0.609,0.6487 1.17727,1.10046 1.26282,1.00392 0.0855,-0.0965 0.37149,-1.53323 0.63542,-3.19266 z m -24.24239,1.36531 c 0,-0.10092 0.22972,-0.51111 0.5105,-0.91154 0.28077,-0.40043 0.66274,-1.1973 0.84882,-1.77083 0.33835,-1.04289 1.04567,-1.28169 0.88918,-0.3002 -0.15632,0.98048 -1.32024,2.98729 -1.78442,3.07668 -0.25525,0.0492 -0.46408,0.007 -0.46408,-0.0941 z m 2.49013,-0.1996 c 0.0356,-0.56615 1.46593,-2.75388 1.7613,-2.69396 0.40352,0.0819 0.18671,0.84272 -0.57227,2.00825 -0.66378,1.01932 -1.23056,1.34619 -1.18903,0.68571 z m -6.85962,-1.50857 c 0.0105,-0.11314 0.59678,-1.2827 1.30286,-2.59901 1.80106,-3.35767 6.63234,-8.73327 6.63234,-7.37959 0,0.11339 -1.10576,1.43296 -2.45726,2.93238 -1.70794,1.89489 -2.80415,3.41626 -3.59483,4.98908 -0.62566,1.24457 -1.30961,2.26286 -1.51988,2.26286 -0.21027,0 -0.37372,-0.0926 -0.36323,-0.20572 z m 2.72378,-0.61714 c 0,-0.15086 0.18514,-0.27429 0.41142,-0.27429 0.22629,0 0.41143,0.12343 0.41143,0.27429 0,0.15086 -0.18514,0.27429 -0.41143,0.27429 -0.22628,0 -0.41142,-0.12343 -0.41142,-0.27429 z m -6.85715,-0.4637 c 0,-0.10417 0.42531,-1.06074 0.94512,-2.12571 0.51982,-1.06497 1.31267,-3.10888 1.7619,-4.54202 0.44922,-1.43314 1.31992,-3.67304 1.93488,-4.97756 0.61496,-1.30451 1.1181,-2.56966 1.1181,-2.81143 0,-0.24177 0.18515,-0.43958 0.41143,-0.43958 0.66719,0 0.48173,0.84568 -0.72498,3.30594 -0.62503,1.2743 -1.65266,3.92149 -2.28363,5.88263 -1.09884,3.41533 -2.31593,5.89714 -2.89197,5.89714 -0.14897,0 -0.27085,-0.0852 -0.27085,-0.18941 z M 141.36,149.45143 c 0.0943,-0.47143 0.17143,-1.08857 0.17143,-1.37143 0,-0.72401 0.50622,-0.64138 0.6957,0.11356 0.1882,0.74986 -0.27859,2.11501 -0.7232,2.11501 -0.20692,0 -0.25641,-0.29474 -0.14393,-0.85714 z m -2.44466,0.24331 c -0.26571,-0.69245 1.3489,-5.96903 1.82651,-5.96903 0.36778,0 0.30183,0.44474 -0.48646,3.28034 -0.77551,2.78963 -1.07258,3.38568 -1.34005,2.68869 z M 165.12,147.97186 c -0.82972,-0.66623 -1.848,-1.47155 -2.26286,-1.7896 -0.77899,-0.59721 -0.98166,-1.08512 -0.45076,-1.08512 0.16694,0 1.27448,0.74057 2.46119,1.64572 1.18672,0.90514 2.32192,1.64571 2.52267,1.64571 0.4309,0 1.96557,-1.57338 2.20719,-2.26286 0.2352,-0.67117 0.734,-0.60005 0.734,0.10466 0,0.82043 -2.22467,2.98477 -3.04963,2.96693 -0.35927,-0.008 -1.33209,-0.55922 -2.1618,-1.22544 z M 45.677038,147.03084 c -0.218748,-0.35394 1.246587,-2.38092 1.660631,-2.29713 0.489785,0.0991 0.339175,0.53201 -0.544533,1.56511 -0.624097,0.7296 -0.975251,0.95992 -1.116098,0.73202 z m 102.711532,-0.57589 c 0,-0.51352 0.82848,-1.90638 1.13392,-1.90638 0.34197,0 0.0826,1.30855 -0.3667,1.84989 -0.3477,0.41896 -0.76722,0.44985 -0.76722,0.0565 z m -11.94515,-1.25425 c 0.3033,-2.06812 1.74149,-4.91293 2.23449,-4.41993 0.11466,0.11466 -0.12333,0.91675 -0.52887,1.78242 -0.40554,0.86567 -0.83233,2.05859 -0.94842,2.65093 -0.1161,0.59234 -0.37811,1.13266 -0.58224,1.20071 -0.29526,0.0984 -0.33104,-0.14986 -0.17496,-1.21413 z m -3.21364,0.55479 c -0.21055,-0.21055 0.3605,-1.48121 0.66567,-1.48121 0.2696,0 0.30086,0.59402 0.0638,1.21186 -0.17301,0.45085 -0.44684,0.55196 -0.72945,0.26935 z m 33.46736,-0.0407 c -0.264,-0.0601 -0.48,-0.29371 -0.48,-0.5191 0,-0.27333 0.16833,-0.35638 0.50548,-0.24937 0.2968,0.0942 0.79588,-0.068 1.20897,-0.39294 1.12612,-0.88581 1.87296,-0.58726 0.82269,0.32886 -0.72422,0.63173 -1.52169,0.95447 -2.05714,0.83255 z m -79.748569,-0.49143 c 0,-0.53483 0.992443,-2.49771 1.385757,-2.74079 0.64116,-0.39626 0.589927,0.21324 -0.139033,1.654 -0.751362,1.48504 -1.246724,1.91686 -1.246724,1.08679 z m 43.337139,-0.0153 c 0,-0.0898 0.2294,-0.49099 0.50976,-0.89142 0.28037,-0.40043 0.77784,-1.45244 1.10549,-2.3378 0.32765,-0.88535 1.02397,-2.13235 1.54738,-2.7711 0.52341,-0.63876 0.95166,-1.30295 0.95166,-1.47598 0,-0.17303 0.12343,-0.31461 0.27428,-0.31461 0.56767,0 0.24373,1.33188 -0.54133,2.22569 -0.44859,0.51073 -1.08303,1.60745 -1.40986,2.43717 -0.73445,1.86448 -1.64024,3.28707 -2.09452,3.28955 -0.18857,0.001 -0.34286,-0.0716 -0.34286,-0.1615 z M 77.348571,144.8626 c 0,-0.23648 2.627131,-2.15433 3.771428,-2.7532 0.495664,-0.25941 0.617143,-0.24963 0.617143,0.0497 0,0.20496 -0.844784,0.94988 -1.877297,1.65536 -1.821869,1.24483 -2.511274,1.53257 -2.511274,1.04816 z m -31.650654,-0.74789 c -0.266817,-0.69531 -0.191853,-2.58328 0.102571,-2.58328 0.276976,0 0.446611,0.57367 0.628566,2.12571 0.110034,0.93856 -0.419414,1.26991 -0.731137,0.45757 z m 10.80494,0.0386 c 0,-0.58028 0.464288,-0.76859 0.656973,-0.26647 0.234587,0.61133 0.215892,0.66171 -0.245545,0.66171 -0.226285,0 -0.411428,-0.17786 -0.411428,-0.39524 z m 27.702857,0.16188 c 0,-0.12834 0.135503,-0.62206 0.301117,-1.09714 0.52301,-1.5003 1.053607,-0.8929 0.623147,0.71336 -0.154645,0.57705 -0.924264,0.89663 -0.924264,0.38378 z m 23.682376,-0.16403 c 0.0996,-0.25964 -0.46497,-0.88263 -1.62882,-1.79726 -2.12252,-1.66803 -2.68362,-2.61013 -1.89709,-3.18525 0.60451,-0.44203 1.41993,-0.26876 2.18258,0.4638 0.75648,0.72663 0.2938,1.00363 -0.6979,0.41781 -0.45838,-0.27076 -0.90417,-0.42154 -0.99065,-0.33506 -0.23759,0.23759 0.41237,0.91733 2.17134,2.27082 1.16857,0.8992 1.58959,1.40054 1.58959,1.89285 0,0.43223 -0.15628,0.66968 -0.44077,0.66968 -0.27219,0 -0.38245,-0.15199 -0.28828,-0.39739 z m -66.258258,-0.0299 c -0.220643,-0.22064 0.08061,-1.2184 0.367872,-1.2184 0.133263,0 0.242296,0.30857 0.242296,0.68571 0,0.64527 -0.265663,0.8772 -0.610168,0.53269 z m 2.156997,-0.31157 c -0.09647,-0.0965 -0.175401,-0.58683 -0.175401,-1.08969 0,-0.62984 0.128,-0.91429 0.411429,-0.91429 0.286003,0 0.411428,0.28773 0.411428,0.94382 0,0.92303 -0.29748,1.41013 -0.647456,1.06016 z m 49.470313,-0.31297 c 0,-0.50905 0.330987,-1.14244 0.596994,-1.14244 0.381391,0 0.153407,1.17002 -0.254137,1.30423 -0.188571,0.0621 -0.342857,-0.0107 -0.342857,-0.16179 z m 8.250068,-0.35842 c -0.34679,-0.32308 -0.78965,-0.97108 -0.98415,-1.44 -0.48376,-1.16633 -0.639966,-4.06579 -0.2265,-4.20427 0.21098,-0.0707 0.38362,0.52665 0.50856,1.7595 0.19223,1.897 0.64659,2.95113 1.5501,3.59631 0.27606,0.19712 0.50192,0.47484 0.50192,0.61714 0,0.45006 -0.69592,0.28062 -1.34993,-0.32868 z m -50.722378,-1.35528 c -0.815617,-1.12005 -1.132,-1.78673 -1.001413,-2.11018 0.177687,-0.44012 0.212747,-0.43764 0.506597,0.0357 0.173634,0.27972 0.715643,1.02029 1.204464,1.64572 0.821616,1.05122 1.174494,2.1183 0.688377,2.08161 -0.113143,-0.009 -0.742254,-0.75234 -1.398025,-1.65288 z m 11.203739,1.27317 c 0,-0.49162 0.453175,-0.79324 0.836176,-0.55653 0.196609,0.12151 0.185983,0.30019 -0.03359,0.56476 -0.414432,0.49936 -0.802591,0.49538 -0.802591,-0.008 z m 12.947935,-0.77048 c 0.126803,-0.4253 2.852875,-1.80067 3.783493,-1.90885 1.274213,-0.14813 0.760028,0.46503 -0.891414,1.063 -0.902488,0.32679 -1.774663,0.72793 -1.938165,0.89143 -0.407551,0.40755 -1.07944,0.37545 -0.953914,-0.0456 z m 21.680636,-0.48854 c -0.684642,-0.2752 -0.835688,-0.81431 -0.228147,-0.81431 0.689348,0 1.256719,0.32282 1.256719,0.71506 0,0.43409 -0.157664,0.44931 -1.028572,0.0992 z m 39.154288,-0.12305 c 0,-0.76037 0.89047,-2.63446 1.20006,-2.52565 0.36492,0.12827 0.29889,0.63933 -0.25336,1.96105 -0.41168,0.98529 -0.9467,1.30437 -0.9467,0.5646 z m -37.366675,-1.10269 c -0.620016,-1.02648 -0.885212,-1.23429 -1.575146,-1.23429 -0.867121,0 -1.127537,-0.45146 -0.417568,-0.7239 1.077923,-0.41364 2.590126,0.85617 3.33678,2.80192 0.354489,0.92379 -0.661791,0.28582 -1.344066,-0.84373 z m 43.236515,0.85062 c -0.081,-0.21101 0.16976,-1.0092 0.55718,-1.77374 0.38742,-0.76454 0.70441,-1.64103 0.70441,-1.94776 0,-0.31287 0.18061,-0.55769 0.41142,-0.55769 0.22629,0 0.41143,0.233 0.41143,0.51777 0,0.5173 -1.59052,4.14508 -1.81732,4.14508 -0.0659,0 -0.18614,-0.17264 -0.26712,-0.38366 z m -86.778553,-0.97684 c -0.602628,-1.18125 -0.734564,-2.31106 -0.251058,-2.1499 0.264049,0.088 0.754531,1.16474 1.255501,2.75612 0.289898,0.92088 -0.454607,0.47155 -1.004443,-0.60622 z m 18.489137,0.23169 c -0.233444,-0.37772 0.160684,-0.63522 2.076717,-1.35677 0.829714,-0.31247 2.062685,-0.89098 2.739935,-1.28559 1.378161,-0.803 5.165503,-2.05139 5.533498,-1.82396 0.470186,0.29059 -0.07563,0.61383 -2.033035,1.204 -1.093933,0.32983 -2.545701,0.93972 -3.22615,1.35532 -0.680449,0.4156 -1.729592,0.91489 -2.331428,1.10954 -0.601837,0.19465 -1.426673,0.5221 -1.832968,0.72766 -0.528319,0.26729 -0.792223,0.28718 -0.926569,0.0698 z m 18.808145,-0.52696 c 0,-0.76627 0.839666,-2.18423 1.293424,-2.18423 0.464195,0 0.449225,0.10614 -0.192361,1.36375 -0.659485,1.2927 -1.101063,1.62175 -1.101063,0.82048 z m -6.857142,-0.26423 c 0,-0.15085 0.227804,-0.49028 0.506233,-0.75428 0.278428,-0.264 1.079784,-1.01481 1.780791,-1.66847 0.701007,-0.65366 1.487243,-1.54852 1.747191,-1.98857 0.439187,-0.74349 1.177213,-1.09894 1.177213,-0.56697 0,0.41797 -1.664526,2.54326 -2.685063,3.42832 -0.548096,0.47534 -1.217321,1.08026 -1.487166,1.34426 -0.542766,0.53101 -1.039199,0.62928 -1.039199,0.20571 z M 123.1757,139.5977 c -1.52038,-0.68976 -1.20992,-1.32281 0.33264,-0.67828 1.39256,0.58185 1.81284,0.52547 2.12079,-0.2845 0.29213,-0.76836 0.81658,-0.66928 0.81658,0.15428 0,0.56485 -0.97167,1.37436 -1.63817,1.36478 -0.23043,-0.003 -0.96476,-0.25364 -1.63184,-0.55628 z M 61.44,138.54035 c 0,-0.13652 0.537918,-0.56347 1.195374,-0.94876 0.657456,-0.3853 1.400873,-1.01417 1.652038,-1.39749 0.251164,-0.38333 0.700674,-0.69696 0.998911,-0.69696 0.732968,0 0.689642,0.15062 -0.349181,1.21386 -1.446971,1.48099 -3.497142,2.55343 -3.497142,1.82935 z m 68.42565,-0.04 c -0.22193,-0.35908 2.35065,-4.3342 2.82006,-4.35754 0.18857,-0.009 0.34286,0.0893 0.34286,0.21923 0,0.26595 -2.7011,4.42657 -2.87376,4.42657 -0.0611,0 -0.19118,-0.12972 -0.28916,-0.28826 z m -20.41923,-0.29185 c -0.37361,-0.14908 -1.04209,-0.23383 -1.4855,-0.18833 -1.04469,0.1072 -1.26675,-0.52295 -0.27225,-0.77255 0.86108,-0.21612 2.88528,0.39561 3.05701,0.92385 0.13083,0.40243 -0.34922,0.41612 -1.29926,0.037 z m -5.73435,-0.71698 c -0.2332,-0.41055 -0.36265,-0.43268 -0.83599,-0.14291 -0.71891,0.44009 -0.84179,0.43149 -0.84179,-0.0589 0,-0.22098 0.26247,-0.54225 0.58326,-0.71393 0.69969,-0.37447 1.88531,0.0546 1.88531,0.68221 0,0.6273 -0.48566,0.77073 -0.79079,0.23355 z m -18.409213,-0.33579 c 0,-0.24952 2.27703,-1.38426 2.777723,-1.38426 0.596937,0 0.141124,0.58757 -0.846796,1.09157 -1.169476,0.59662 -1.930927,0.71204 -1.930927,0.29269 z m 5.76,-0.47586 c 0,-0.79134 1.08458,-2.092 2.789307,-3.34501 1.090508,-0.80155 1.727191,-1.11089 1.910048,-0.92804 0.182857,0.18286 -0.272,0.67506 -1.36457,1.47661 -0.901371,0.66128 -1.926149,1.66518 -2.277285,2.23089 -0.687149,1.10707 -1.0575,1.30513 -1.0575,0.56555 z m 32.640003,-1.42109 c 0,-0.24338 1.93824,-0.65764 2.13877,-0.45711 0.0607,0.0608 0.0291,0.24208 -0.0703,0.40298 -0.21554,0.34875 -2.06842,0.39725 -2.06842,0.0541 z m -28.142413,-0.35567 c -0.218144,-0.35297 -0.194629,-0.36935 1.474253,-1.02709 1.438842,-0.56708 2.810143,-0.81885 7.70092,-1.4139 1.81919,-0.22133 2.64936,-0.22682 2.8573,-0.0189 0.42322,0.42323 0.0324,0.51293 -4.23821,0.97281 -2.34466,0.25249 -4.481473,0.65727 -5.692086,1.07828 -1.159686,0.4033 -2.004082,0.5675 -2.102177,0.40878 z m -48.479469,-1.53391 c -0.2578,-0.41713 0.08663,-1.16345 0.536939,-1.16345 0.481264,0 0.485257,0.30263 0.01252,0.94913 -0.232723,0.31827 -0.436173,0.39763 -0.549461,0.21432 z"
       id="path1" />
  </g>
</svg>
