<?xml version="1.0" encoding="UTF-8" standalone="no"?>
<!-- Created with Inkscape (http://www.inkscape.org/) -->

<svg
   version="1.1"
   id="svg1"
   width="294.58286"
   height="294.58286"
   viewBox="0 0 294.58286 294.58286"
   sodipodi:docname="terlingua-large-5-v-outline.svg"
   inkscape:version="1.4 (86a8ad7, 2024-10-11)"
   xmlns:inkscape="http://www.inkscape.org/namespaces/inkscape"
   xmlns:sodipodi="http://sodipodi.sourceforge.net/DTD/sodipodi-0.dtd"
   xmlns="http://www.w3.org/2000/svg"
   xmlns:svg="http://www.w3.org/2000/svg">
  <defs
     id="defs1" />
  <sodipodi:namedview
     id="namedview1"
     pagecolor="#ffffff"
     bordercolor="#000000"
     borderopacity="0.25"
     inkscape:showpageshadow="2"
     inkscape:pageopacity="0.0"
     inkscape:pagecheckerboard="0"
     inkscape:deskcolor="#d1d1d1"
     inkscape:zoom="2.766624"
     inkscape:cx="147.47215"
     inkscape:cy="147.29143"
     inkscape:window-width="1920"
     inkscape:window-height="1017"
     inkscape:window-x="-8"
     inkscape:window-y="-8"
     inkscape:window-maximized="1"
     inkscape:current-layer="g1" />
  <g
     inkscape:groupmode="layer"
     inkscape:label="Image"
     id="g1">
    <path
       style="fill:#000000"
       d="m 255.87188,186.18372 c -0.20611,-0.19533 -0.93017,-0.61656 -1.60902,-0.93605 -0.67886,-0.3195 -1.91315,-1.13147 -2.74286,-1.80438 -0.82972,-0.6729 -1.71538,-1.33721 -1.96814,-1.47624 -0.25277,-0.13902 -2.57872,-2.28934 -5.16879,-4.77848 -5.82811,-5.601 -8.18903,-7.26031 -12.23372,-8.59817 -4.3476,-1.43805 -5.07482,-1.508 -6.42033,-0.61759 -1.40011,0.92655 -2.33889,1.09292 -3.60443,0.63875 -1.07629,-0.38625 -2.81132,-0.2676 -7.35888,0.50323 -7.92234,1.34287 -11.81382,0.98845 -16.56009,-1.50823 -0.87916,-0.46247 -1.77072,-0.84085 -1.98126,-0.84085 -0.21053,0 -0.84599,0.41109 -1.41214,0.91352 -0.56615,0.50243 -1.62398,1.19633 -2.35072,1.542 -1.14133,0.54285 -1.62715,0.61074 -3.56572,0.49829 -2.81993,-0.16357 -4.99448,-0.93165 -7.39543,-2.61216 -1.02281,-0.71591 -2.62739,-1.83066 -3.56572,-2.47722 -0.93833,-0.64657 -2.38492,-1.83276 -3.21463,-2.63599 -0.95611,-0.92558 -2.61351,-2.04835 -4.52572,-3.06584 l -3.01714,-1.60542 -3.56571,-0.0386 c -1.96115,-0.0212 -3.81257,-0.13838 -4.11429,-0.26036 -0.30171,-0.12199 -1.11962,-0.74783 -1.81757,-1.39077 -2.24673,-2.06964 -5.05919,-2.51999 -8.41517,-1.34748 -2.31896,0.8102 -2.80144,0.83092 -5.30062,0.22771 -1.78008,-0.42964 -2.08105,-0.42867 -4.86078,0.0157 -3.15937,0.50505 -4.95584,0.43031 -7.28227,-0.30297 -0.97529,-0.3074 -1.99196,-0.38356 -3.69881,-0.27707 -3.74423,0.23359 -4.45847,-0.36585 -4.21838,-3.5404 0.13611,-1.79964 0.0826,-2.09361 -0.58923,-3.24008 -0.40641,-0.69348 -1.22694,-1.58383 -1.82342,-1.97856 -0.93988,-0.62199 -1.28139,-0.69737 -2.56108,-0.56529 -2.22981,0.23014 -4.71854,1.90391 -6.19074,4.16352 -1.66828,2.56059 -3.57649,4.26317 -4.77804,4.26317 -0.52464,0 -1.30135,0.13844 -1.72603,0.30764 -0.42468,0.1692 -2.37316,0.34822 -4.32995,0.39783 l -3.557806,0.0902 -1.476218,-0.97985 -1.476218,-0.97986 -2.983071,0.19334 c -2.847216,0.18454 -3.048914,0.1612 -4.428833,-0.5124 -0.795169,-0.38815 -1.975523,-1.1356 -2.62301,-1.66099 -2.283535,-1.85293 -4.390234,-1.9266 -7.617512,-0.26638 -2.242466,1.1536 -2.668694,1.11909 -4.868078,-0.39413 -2.589752,-1.78179 -6.911369,-2.12801 -10.611447,-0.8501 -1.587956,0.54843 -2.397545,0.62315 -7.405715,0.68344 -7.153005,0.0861 -10.121793,0.60888 -11.658991,2.053 -0.306848,0.28827 -1.414738,0.91264 -2.461978,1.38748 -1.579872,0.71635 -2.152658,0.84273 -3.36406,0.74227 -0.802994,-0.0666 -1.576638,-0.23772 -1.719209,-0.38029 -0.162769,-0.16277 -0.158425,-1.93159 0.01168,-4.75386 0.174068,-2.8881 0.177183,-5.2871 0.0087,-6.7117 -0.144199,-1.21938 -0.261549,-4.83487 -0.260778,-8.03443 0.0012,-5.05941 0.06192,-5.89104 0.465871,-6.38286 0.387738,-0.47207 0.600409,-0.52291 1.287327,-0.30773 0.452571,0.14177 1.44,0.3942 2.194286,0.56096 1.56655,0.34633 4.211677,1.64449 5.622857,2.75954 0.528,0.4172 1.392,0.86906 1.92,1.00414 1.550092,0.39657 7.606369,0.21201 9.451913,-0.28803 2.016714,-0.54642 4.122592,-0.5572 6.456658,-0.033 8.777837,1.97125 8.200706,1.96273 12.93858,0.19095 1.609934,-0.60205 4.14022,-1.36326 5.622858,-1.69157 2.296485,-0.50853 3.020667,-0.81397 4.889991,-2.06243 2.70676,-1.80775 4.680119,-2.80742 5.76,-2.9179 1.459685,-0.14934 6.246229,0.34778 8.502853,0.88309 1.20686,0.28629 3.18172,0.5937 4.38858,0.68315 1.57389,0.11664 2.65958,0.37953 3.84,0.92979 0.90514,0.42194 2.33967,0.83296 3.18785,0.91337 1.87619,0.17788 3.45694,0.94665 4.29806,2.09027 0.34582,0.47019 1.12046,1.84025 1.72141,3.04457 1.38856,2.78269 2.19899,2.89625 2.52179,0.35336 0.16997,-1.33894 1.97207,-4.08336 3.39296,-5.16712 0.55073,-0.42006 0.92515,-0.94803 0.92738,-1.30768 0.007,-1.20221 0.34223,-1.80898 1.23062,-2.23055 1.30266,-0.61816 3.11655,-0.53051 5.29676,0.25594 2.16878,0.78232 3.50102,0.85195 5.64013,0.29478 1.65873,-0.43204 2.81166,-0.22476 4.97161,0.89384 0.60342,0.31251 1.89028,0.69412 2.85967,0.84803 1.33528,0.212 2.30726,0.61389 4.00969,1.65789 3.20782,1.96719 5.21396,2.79446 7.17054,2.9569 1.45422,0.12073 1.8663,0.0445 2.88,-0.53275 1.79936,-1.02465 6.31369,-2.13977 8.67816,-2.14366 2.02398,-0.003 7.14727,1.0894 9.06698,1.93386 1.85059,0.81406 3.86204,2.41804 7.76114,6.18892 1.58234,1.53031 2.59212,2.30219 3.01173,2.30219 0.3472,0 1.36799,0.45473 2.26843,1.01051 l 1.63715,1.01051 4.07632,-0.0307 c 2.87245,-0.0217 4.20142,-0.13457 4.49993,-0.3823 0.23298,-0.19337 1.49064,-0.43792 2.79479,-0.54346 2.60299,-0.21064 7.32337,-1.70019 9.77689,-3.08517 0.75429,-0.42578 2.35886,-1.12561 3.56572,-1.55518 2.45195,-0.87275 4.42273,-1.77608 6.83947,-3.13494 1.89717,-1.06674 3.24655,-1.3473 4.56184,-0.94851 0.51785,0.15702 2.00913,0.45246 3.31396,0.65655 1.30482,0.20408 2.6997,0.58551 3.09973,0.84762 0.76463,0.501 1.52214,1.71662 1.52214,2.44265 0,0.54577 1.56906,1.51391 2.46857,1.52316 0.89257,0.009 2.40334,0.70668 5.27804,2.43681 2.91247,1.75287 7.54616,3.94309 9.53339,4.50618 1.64013,0.46473 5.95934,1.28058 6.77957,1.28058 0.77109,0 3.01313,2.44297 3.52417,3.84 0.27791,0.75973 0.54965,2.81615 0.70677,5.34857 0.1404,2.26286 0.34431,5.08826 0.45313,6.27866 0.12967,1.41839 0.0795,2.7419 -0.1456,3.84 -0.1889,0.9216 -0.46354,2.62746 -0.6103,3.79081 -0.14677,1.16335 -0.45735,2.70621 -0.69018,3.42857 -0.23283,0.72237 -0.59974,2.58897 -0.81535,4.14802 -0.37575,2.71686 -0.47571,2.9835 -2.40614,6.41824 -2.11651,3.76584 -2.87692,4.62338 -3.54133,3.99371 z m 1.31781,-2.75515 c 1.71306,-2.70064 3.04374,-5.68853 3.23082,-7.25444 0.10455,-0.8752 0.37342,-2.45527 0.59748,-3.51127 1.72171,-8.11453 2.07048,-11.67405 1.44086,-14.70542 -0.16878,-0.81259 -0.33199,-2.95858 -0.3627,-4.76887 -0.0617,-3.63368 -0.27904,-4.3183 -1.84418,-5.80772 -0.71831,-0.68356 -1.36898,-0.96343 -3.02898,-1.30285 -1.16278,-0.23776 -2.43182,-0.43229 -2.82008,-0.43229 -1.74485,0 -8.54357,-3.00923 -12.7572,-5.64657 -1.35145,-0.84588 -2.90788,-1.58153 -3.70285,-1.75016 -2.6205,-0.55587 -3.39698,-1.0547 -3.80156,-2.44222 -0.4719,-1.61839 -1.28218,-2.19707 -3.31693,-2.36888 -0.89803,-0.0758 -2.33735,-0.33555 -3.1985,-0.57718 -1.8748,-0.52604 -2.77018,-0.31086 -5.3173,1.2779 -0.90514,0.56458 -2.88,1.47193 -4.38857,2.01633 -3.79691,1.37021 -6.61869,2.83462 -8.1167,4.21232 -0.74876,0.68862 -1.79738,1.32621 -2.55729,1.55491 -0.70845,0.21322 -2.05263,0.88181 -2.98705,1.48577 -0.93443,0.60396 -1.93301,1.13854 -2.21908,1.18795 -0.74133,0.12804 -0.86454,-0.51119 -0.14269,-0.74029 0.33092,-0.10503 1.34653,-0.67239 2.2569,-1.26079 0.91037,-0.5884 2.15841,-1.21309 2.77342,-1.3882 1.06142,-0.30222 2.20088,-1.01535 1.97819,-1.23805 -0.10422,-0.10421 -0.24797,-0.054 -2.83083,0.9887 -0.94388,0.38104 -2.03118,0.57418 -3.23251,0.57418 -1.22219,0 -2.03519,0.14739 -2.50273,0.45374 -0.58024,0.38019 -1.38978,0.44474 -4.99421,0.39823 -3.00673,-0.0388 -4.5087,-0.16744 -4.98928,-0.42733 -2.59749,-1.40469 -3.44858,-1.79607 -3.90571,-1.79607 -0.2857,0 -1.49125,-0.92572 -2.679,-2.05714 -2.13944,-2.03799 -2.17331,-2.05715 -3.63663,-2.05715 -0.81239,0 -2.02364,0.17108 -2.69165,0.38018 -3.90174,1.22128 -4.49814,1.32573 -5.70877,0.99974 -0.64927,-0.17483 -1.6934,-0.31479 -2.32029,-0.31102 -1.64458,0.01 -3.19695,-0.25448 -3.19695,-0.54443 0,-0.34852 4.16721,-0.31382 5.59862,0.0466 1.03379,0.26031 1.53834,0.19288 4.10432,-0.54857 1.6091,-0.46495 3.31905,-0.84536 3.79989,-0.84536 h 0.87425 l -1.20207,-1.22482 c -2.4039,-2.44939 -5.31022,-3.17901 -8.29615,-2.0827 -0.79766,0.29287 -1.944,0.61716 -2.54743,0.72066 -0.60343,0.10349 -2.10807,0.66616 -3.34365,1.25037 -2.52976,1.19613 -2.55349,1.20254 -2.55349,0.69055 0,-0.52879 4.68817,-2.64549 5.85938,-2.64549 0.53096,0 1.0396,-0.12008 1.1303,-0.26683 0.0907,-0.14676 0.68427,-0.41114 1.31904,-0.58752 l 1.15413,-0.32068 -0.82285,-0.23626 c -2.19606,-0.63055 -3.86688,-0.72676 -5.89715,-0.33957 -2.91317,0.55557 -5.21142,1.24306 -5.21142,1.55893 0,0.35803 -2.19443,3.84081 -2.57645,4.08908 -0.16443,0.10686 -0.4224,0.0709 -0.57325,-0.08 -0.18286,-0.18285 -0.17123,-0.33905 0.0349,-0.46857 0.17005,-0.10686 0.682,-0.82807 1.13766,-1.60267 l 0.82848,-1.40838 -1.2771,0.35356 c -0.7024,0.19445 -2.00613,0.61222 -2.89717,0.92838 -1.85344,0.65761 -2.08278,0.68827 -2.08278,0.27846 0,-0.16299 0.49046,-0.48901 1.08991,-0.72448 l 1.08991,-0.42813 -1.74703,-0.61046 c -1.82344,-0.63715 -4.34675,-1.97019 -5.82116,-3.07524 -0.51859,-0.38868 -1.55333,-0.75778 -2.59439,-0.92544 -0.95246,-0.15339 -2.53912,-0.62855 -3.52592,-1.05592 -2.60219,-1.12697 -2.79093,-1.15812 -4.28021,-0.70635 -2.01972,0.61268 -3.5793,0.50872 -6.22848,-0.41519 -1.87317,-0.65326 -2.57753,-0.78232 -3.28107,-0.60117 -0.81104,0.20884 -0.90381,0.33908 -0.97996,1.37585 -0.0472,0.64291 0.23486,2.32008 0.64317,3.82403 0.59211,2.18094 0.72283,3.23721 0.70328,5.68292 -0.0293,3.66425 -0.11161,4.16549 -1.30852,7.96736 -1.03162,3.27684 -1.63979,7.68431 -1.14295,8.28298 0.21267,0.25624 0.91284,0.30251 2.67988,0.17708 1.79883,-0.12768 2.72678,-0.063 3.74205,0.26077 2.35566,0.75127 4.50489,0.83557 7.64955,0.30005 2.52803,-0.43051 3.05998,-0.44596 4.19497,-0.12185 3.35065,0.95683 5.40021,0.47232 8.31491,-1.9656 1.20989,-1.01199 1.94451,-1.45917 2.06823,-1.25899 0.11126,0.18003 -0.31604,0.74948 -1.01715,1.35553 l -1.20902,1.04509 0.79329,0.008 c 0.4363,0.004 1.65968,0.26621 2.71862,0.58157 1.47782,0.44011 2.20949,0.84957 3.14783,1.7616 1.3755,1.33692 2.74129,1.6918 5.34194,1.38803 0.79307,-0.0926 2.10636,-0.0424 2.91844,0.11158 1.90135,0.36059 7.63972,3.51945 8.80561,4.84732 0.47382,0.53965 1.43908,1.37129 2.14502,1.84809 0.70595,0.4768 2.21381,1.56863 3.35082,2.42627 3.06026,2.30838 4.81268,3.01657 7.807,3.15499 2.42664,0.11218 2.49139,0.0986 3.81145,-0.79858 3.59144,-2.44093 3.76383,-2.46452 6.61141,-0.90451 2.61113,1.43047 4.71185,1.8891 8.50286,1.85632 1.81028,-0.0156 4.22,-0.21426 5.35491,-0.44136 1.13492,-0.22709 3.50119,-0.5706 5.25837,-0.76335 2.60814,-0.28609 3.39261,-0.28519 4.27156,0.005 1.01581,0.33525 1.14499,0.31109 2.2845,-0.42733 1.70782,-1.10669 3.12105,-1.02792 7.42886,0.41405 4.62216,1.54719 6.87846,3.08604 12.46759,8.50321 2.39324,2.31961 5.25099,4.91161 6.35055,5.76 2.14928,1.65833 4.3742,3.03434 4.92307,3.0447 0.18668,0.004 0.67216,-0.51817 1.07885,-1.15931 z m -7.7056,-9.87429 c -0.1992,-0.49028 -0.44437,-1.84207 -0.54482,-3.00398 -0.20504,-2.3719 -0.83512,-4.4213 -2.07221,-6.7401 -1.28874,-2.41559 -2.21434,-3.25933 -3.97698,-3.62525 -0.83,-0.17231 -1.57497,-0.41988 -1.65549,-0.55017 -0.58832,-0.95192 3.16094,-0.085 4.28348,0.9905 2.11829,2.02945 3.66513,5.67036 4.2267,9.94872 0.20614,1.5704 0.50474,2.98523 0.66358,3.14406 0.41466,0.41466 0.35589,0.72765 -0.13663,0.72765 -0.23399,0 -0.58842,-0.40114 -0.78763,-0.89143 z m 8.19056,-4.38857 c -0.77428,-0.91875 -3.41179,-6.06882 -3.41179,-6.66195 0,-0.18339 -0.37029,-1.53637 -0.82286,-3.00662 -1.04694,-3.40114 -1.06809,-4.59892 -0.0971,-5.49881 0.39917,-0.36994 0.83117,-0.67262 0.96,-0.67262 0.45722,0 0.22568,0.80813 -0.31434,1.09715 -0.81003,0.43351 -0.70553,1.77323 0.44864,5.75139 1.03652,3.57268 1.98965,5.7468 3.56348,8.12842 0.50876,0.7699 0.92502,1.47962 0.92502,1.57715 0,0.42711 -0.55746,0.10891 -1.25106,-0.71411 z m -68.25224,-2.60044 c -0.0894,-0.0895 0.12357,-0.54381 0.47338,-1.00967 0.34981,-0.46587 0.71563,-1.06303 0.81294,-1.32703 0.22312,-0.60537 0.7427,-0.62802 0.7427,-0.0324 0,1.01675 -1.55995,2.83814 -2.02902,2.36907 z m 17.38902,-0.3011 c 0,-1.11313 2.52668,-4.16131 3.44937,-4.16131 0.68868,0 0.69198,0.55186 0.005,0.81309 -0.70401,0.26767 -2.21451,2.10896 -2.65187,3.23262 -0.28893,0.74231 -0.80236,0.81628 -0.80236,0.1156 z m 8.12077,-0.75518 c -0.0916,-0.23862 -0.16649,-1.15424 -0.16649,-2.03471 0,-1.7025 0.17935,-2.46857 0.57792,-2.46857 0.13472,0 0.24494,1.11086 0.24494,2.46857 0,2.28748 -0.25547,3.07943 -0.65637,2.03471 z m -18.66673,-0.64056 c -0.23668,-0.38295 1.57442,-3.20185 2.3728,-3.69317 0.90692,-0.5581 0.80223,0.0775 -0.23738,1.44125 -0.57878,0.75925 -1.24733,1.65532 -1.48567,1.99127 -0.3237,0.45626 -0.4881,0.52221 -0.64975,0.26065 z m 21.5044,-0.59554 c -0.5611,-1.04843 0.17036,-6.01003 0.88602,-6.01003 0.20581,0 0.22699,0.40505 0.0681,1.30285 -0.12681,0.71657 -0.24631,2.13587 -0.26555,3.15398 -0.0394,2.0825 -0.20515,2.45648 -0.68858,1.5532 z m 5.10984,0.0608 c -0.27808,-0.44994 0.13284,-1.68222 0.56096,-1.68222 0.28234,0 0.33887,0.20388 0.20914,0.75428 -0.21831,0.92627 -0.53517,1.30807 -0.7701,0.92794 z m 2.03457,-0.20813 c 0,-0.75764 1.68166,-5.58838 1.94541,-5.58838 0.4269,0 0.27849,0.86975 -0.5966,3.49647 -0.7732,2.32089 -1.34881,3.21361 -1.34881,2.09191 z m 7.95429,-0.93799 c 0,-0.71567 1.10388,-1.82373 2.32524,-2.33405 1.99589,-0.83394 2.08655,-0.24616 0.12656,0.8206 -0.78318,0.42626 -1.49747,1.04296 -1.63892,1.41502 -0.30628,0.80557 -0.81288,0.86691 -0.81288,0.0984 z m -46.01392,-0.60467 c -0.81166,-0.86647 -1.22739,-2.10911 -1.03992,-3.10843 0.0934,-0.4979 -0.0575,-1.58074 -0.36366,-2.60857 -0.78815,-2.64638 -0.90881,-3.54015 -0.47791,-3.54015 0.48794,0 1.30693,3.14028 1.51449,5.80705 0.12933,1.66157 0.2936,2.24225 0.78092,2.76053 0.61964,0.65901 0.81329,1.30671 0.39067,1.30671 -0.12456,0 -0.48663,-0.27772 -0.80459,-0.61714 z m 34.08768,-0.54858 c 0.21083,-0.64114 0.51445,-2.14951 0.67472,-3.35194 0.2813,-2.11042 0.59685,-2.93647 0.92124,-2.4116 0.19984,0.32336 -0.49393,5.1908 -0.88014,6.17497 -0.1628,0.41486 -0.47671,0.75429 -0.69757,0.75429 -0.34971,0 -0.35206,-0.15056 -0.0182,-1.16572 z m -39.78607,-1.64571 c -0.57058,-1.09371 -1.32726,-2.33845 -1.68153,-2.76608 -0.87573,-1.0571 -0.50463,-1.51493 0.47061,-0.58059 0.85774,0.82176 3.07242,4.90034 2.80573,5.16703 -0.36232,0.36232 -0.59425,0.0976 -1.59481,-1.82036 z m 14.68374,1.73867 c 0,-0.4098 1.66951,-1.68777 1.96571,-1.5047 0.15499,0.0958 -0.0556,0.51267 -0.48597,0.96183 -0.74084,0.77328 -1.47974,1.04435 -1.47974,0.54287 z m -18.10703,-2.23416 c -0.17003,-0.63146 -0.68943,-1.87357 -1.15421,-2.76024 -0.73095,-1.39446 -0.86236,-1.97327 -0.97321,-4.28677 -0.10559,-2.20366 -0.0238,-3.02481 0.46476,-4.66321 0.38401,-1.28792 0.73379,-1.98858 0.99273,-1.98858 0.50629,0 0.50912,-0.0321 -0.17612,1.99723 -0.47519,1.40729 -0.55662,2.1854 -0.46555,4.44849 0.0997,2.47776 0.20694,2.94168 1.10939,4.8 1.0892,2.24286 1.34716,3.31586 0.83887,3.48939 -0.19266,0.0658 -0.4548,-0.36092 -0.63666,-1.03631 z m 5.80757,0.35835 c -0.32257,-0.61888 -1.15665,-3.45581 -1.4314,-4.86857 -0.24534,-1.2616 0.10268,-2.19397 1.41173,-3.78208 0.81991,-0.99468 1.3477,-1.28809 1.3477,-0.7492 0,0.14779 -0.49318,0.91922 -1.09596,1.71428 -0.60278,0.79506 -1.0965,1.63982 -1.09715,1.87723 -6.4e-4,0.23742 0.32052,1.4717 0.7137,2.74286 0.39318,1.27115 0.77786,2.58891 0.85483,2.92833 0.16576,0.73091 -0.34233,0.82997 -0.70345,0.13715 z m 22.88421,-0.30281 c -0.21255,-0.34391 2.1033,-3.88005 2.54108,-3.88005 0.4878,0 0.26746,0.55582 -1.00483,2.53474 -1.00864,1.56886 -1.26133,1.79014 -1.53625,1.34531 z m -11.27999,-0.29587 c -1.00619,-0.41717 -1.30518,-1.03512 -1.1532,-2.38344 0.13894,-1.23269 0.86773,-2.56527 1.52227,-2.78345 0.50031,-0.16677 0.38855,0.4234 -0.24157,1.27569 -0.40077,0.54207 -0.54194,1.08331 -0.48,1.84033 0.077,0.94121 0.19875,1.10829 0.99517,1.36571 0.49908,0.16132 0.93108,0.40817 0.96,0.54857 0.0703,0.34155 -0.90734,0.42487 -1.60267,0.13659 z m 29.2247,-0.36132 c 0.009,-0.7982 0.36134,-1.57715 0.71396,-1.57715 0.44894,0 0.4734,0.26573 0.11194,1.21643 -0.27576,0.7253 -0.83254,0.96848 -0.8259,0.36072 z m -26.98263,-0.67032 c -0.44647,-0.44646 -0.138,-1.71929 0.5473,-2.25835 0.39749,-0.31266 0.82949,-0.56848 0.96,-0.56848 0.50142,0 0.20522,0.78079 -0.46206,1.21801 -0.4857,0.31824 -0.64988,0.6141 -0.53741,0.96846 0.16438,0.51791 -0.18709,0.96111 -0.50783,0.64036 z m 8.32745,-1.33223 c 0,-0.69836 2.38612,-5.60888 2.72546,-5.60888 0.48626,0 0.3224,0.57208 -0.94161,3.2874 -1.16751,2.50803 -1.78385,3.31012 -1.78385,2.32148 z m -2.41371,-0.17802 c -0.18103,-0.18103 -0.33562,-0.58218 -0.34353,-0.89143 -0.0139,-0.54496 -0.0276,-0.54327 -0.44488,0.0549 -0.23678,0.33943 -0.60059,0.61715 -0.80847,0.61715 -0.50114,0 -0.47729,-0.18588 0.13532,-1.0548 0.28232,-0.40043 1.08787,-1.91304 1.79013,-3.36136 1.31181,-2.70545 2.35214,-4.01881 2.91019,-3.67392 0.21853,0.13506 0.11054,0.42104 -0.34747,0.92017 -1.75206,1.90931 -2.71252,4.35897 -2.38985,6.0953 0.24082,1.29588 0.034,1.82951 -0.50144,1.29404 z m -33.05117,-1.64383 c -0.18165,-1.35429 -0.0955,-1.53293 0.50083,-1.03805 0.26237,0.21774 0.39963,0.68265 0.34949,1.18368 -0.12764,1.27534 -0.67224,1.18207 -0.85032,-0.14563 z m -11.05812,-1.23492 c -0.90573,-0.98882 -1.19179,-1.72925 -0.6681,-1.72925 0.14318,0 0.58983,0.432 0.99256,0.96 0.40272,0.528 0.90272,0.96 1.1111,0.96 0.20838,0 0.37887,0.18514 0.37887,0.41142 0,0.726 -0.859,0.44092 -1.81443,-0.60217 z m 31.58472,0.20739 c -0.28562,-0.46214 0.18081,-2.44902 0.68124,-2.9019 0.66497,-0.6018 0.97822,-0.0433 0.42151,0.75152 -0.23503,0.33555 -0.42732,1.01462 -0.42732,1.50905 0,0.8616 -0.33986,1.18429 -0.67543,0.64133 z m 36.09172,0.01 c -0.2079,-0.13168 -0.29988,-0.36581 -0.20441,-0.5203 0.21892,-0.35421 1.60425,-0.006 1.7531,0.44022 0.12737,0.38209 -0.98136,0.43943 -1.54869,0.0801 z m -3.37742,-0.19063 c -0.075,-0.13599 -0.0803,-0.77761 -0.0118,-1.42582 0.14055,-1.33091 0.70247,-1.44708 0.83076,-0.17175 0.0809,0.80432 -0.56337,2.06121 -0.81892,1.59757 z m -23.26173,-0.80468 c 0,-0.57839 1.56844,-4.53775 2.04464,-5.16148 0.75942,-0.99469 0.99181,-0.18939 0.31321,1.08536 -0.36102,0.67817 -0.88493,1.96623 -1.16426,2.86237 -0.46383,1.48804 -1.19359,2.23012 -1.19359,1.21375 z m -55.13143,-0.68469 c 0,-1.23863 3.01229,-6.30075 3.74936,-6.30075 0.51231,0 0.45877,0.2352 -0.27508,1.2084 -0.35201,0.46681 -1.226,1.92874 -1.94221,3.24874 -0.71622,1.32 -1.35393,2.4 -1.41714,2.4 -0.0632,0 -0.11493,-0.25037 -0.11493,-0.55639 z m 16.99899,-1.43218 c -1.54332,-1.93159 -1.74211,-2.51153 -1.23017,-3.58871 0.50019,-1.05247 3.1977,-4.02272 3.65333,-4.02272 0.56496,0 0.36148,0.42244 -0.78305,1.62558 -0.6102,0.64146 -1.42222,1.63891 -1.80449,2.21654 -0.80616,1.2182 -0.72654,1.49835 1.02681,3.61281 1.17101,1.41218 1.24908,1.5965 0.6762,1.5965 -0.21345,0 -0.90584,-0.648 -1.53863,-1.44 z m 51.77815,1.28269 c -0.38837,-0.39345 -0.20529,-1.40376 0.34454,-1.90135 0.66462,-0.60147 1.06834,-0.3201 0.60508,0.4217 -0.53835,0.86204 -0.41624,1.10666 0.39791,0.79712 0.70869,-0.26944 1.51971,0.0526 1.12541,0.4469 -0.2716,0.2716 -2.25124,0.46023 -2.47294,0.23563 z m 20.8295,-0.0189 c -0.0969,-0.0969 0.49039,-0.89624 1.30514,-1.77627 0.81475,-0.88002 1.56148,-1.8525 1.65941,-2.16105 0.12133,-0.38226 -0.15613,-1.14218 -0.87085,-2.38511 -0.5769,-1.00325 -1.26199,-2.19668 -1.52242,-2.65207 -0.26044,-0.45538 -0.40268,-0.89704 -0.31611,-0.98148 0.27219,-0.26544 1.72455,1.68517 2.77706,3.72976 1.18189,2.29593 1.14613,2.45329 -1.12353,4.94305 -1.32364,1.45199 -1.57255,1.61933 -1.9087,1.28317 z m -101.67521,-0.85754 c 0,-0.116 0.35787,-1.07257 0.79526,-2.12572 0.82992,-1.99828 1.37601,-4.4339 0.93269,-4.15991 -0.1386,0.0857 -0.89335,1.20528 -1.67723,2.48805 -1.47156,2.40812 -1.79655,2.77707 -2.21719,2.5171 -0.24989,-0.15444 2.0926,-4.01464 3.32445,-5.47838 1.02299,-1.21557 1.40713,-0.75499 1.2462,1.4942 -0.1366,1.90916 -1.51448,5.47556 -2.11548,5.47556 -0.15879,0 -0.2887,-0.0949 -0.2887,-0.2109 z m 35.42355,-1.00315 c 0.47121,-1.03419 0.0923,-2.07737 -0.75449,-2.07737 -0.86339,0 -0.75249,-0.64537 0.13324,-0.77534 0.82592,-0.12121 1.35475,0.37414 1.55841,1.45973 0.18942,1.00971 -0.24083,2.05846 -0.84448,2.05846 -0.31954,0 -0.33742,-0.12835 -0.0927,-0.66548 z m -4.50545,-0.43479 c -0.51808,-0.60508 -0.61537,-1.09401 -0.21769,-1.09401 0.39122,0 1.11673,0.81461 1.11673,1.25388 0,0.54899 -0.34455,0.48773 -0.89904,-0.15987 z m -23.8592,0.11346 c -0.0902,-0.0902 -0.0971,-0.33809 -0.0155,-0.55092 0.0817,-0.21282 0.22745,-1.0238 0.32396,-1.80217 0.19663,-1.58588 0.86118,-2.18899 0.86118,-0.78156 0,1.07381 -0.54612,3.29861 -0.8097,3.29861 -0.10781,0 -0.26979,-0.0738 -0.35997,-0.16396 z m 82.13242,-0.29331 c 0.13345,-0.68812 0.77439,-0.78261 0.77439,-0.11416 0,0.33691 -0.1771,0.57143 -0.43154,0.57143 -0.25542,0 -0.39534,-0.18662 -0.34285,-0.45727 z m 29.93221,-0.62579 c -1.33209,-0.60477 -5.29496,-4.38422 -5.29496,-5.04988 0,-0.24746 0.0542,-0.44992 0.12052,-0.44992 0.0663,0 1.1134,0.99288 2.32692,2.20639 1.21351,1.21352 2.63646,2.38609 3.1621,2.60572 0.54644,0.22832 1.8308,0.39932 2.99922,0.39932 2.11691,0 2.91124,0.15768 2.91124,0.57791 0,0.13472 -1.14171,0.24223 -2.53714,0.23892 -1.89935,-0.005 -2.82643,-0.13736 -3.6879,-0.52846 z M 149.17984,149.6 c -0.0903,-0.71909 0.13981,-1.41242 0.6525,-1.96572 1.15654,-1.24812 1.37584,-0.61021 0.32338,0.94067 -0.8538,1.25815 -0.93578,1.34426 -0.97588,1.02505 z m -5.72841,-0.21793 c 0,-0.057 0.19488,-0.57007 0.43307,-1.14013 0.23819,-0.57006 0.51932,-1.54171 0.62473,-2.15921 0.10542,-0.6175 0.31168,-1.06102 0.45836,-0.98559 0.68967,0.35465 -0.34664,4.38857 -1.12742,4.38857 -0.21381,0 -0.38874,-0.0466 -0.38874,-0.10364 z m 49.50982,-0.16862 c -0.26262,-0.42493 0.0691,-1.2151 0.79738,-1.89927 0.82693,-0.77685 1.15618,-0.31534 0.43192,0.60541 -0.29966,0.38096 -0.54484,0.82018 -0.54484,0.97606 0,0.41853 -0.48347,0.64301 -0.68446,0.3178 z m -64.69276,-1.87792 c -0.24466,-0.27034 -0.52344,-0.88457 -0.61952,-1.36496 -0.13901,-0.69505 -0.0837,-0.87343 0.27103,-0.87343 0.24514,0 0.44571,0.19127 0.44571,0.42505 0,0.23378 0.18469,0.7822 0.41043,1.21872 0.4768,0.92204 0.14275,1.31332 -0.50765,0.59462 z m 18.36727,-0.26976 c -0.0797,-0.12904 0.0254,-0.84077 0.23367,-1.58162 0.20827,-0.74085 0.5112,-2.08758 0.67318,-2.99272 0.27317,-1.52646 2.89559,-7.26857 3.31955,-7.26857 0.54169,0 0.36495,0.60604 -0.96992,3.32593 -0.81004,1.65049 -1.55115,3.58308 -1.64693,4.29463 -0.37144,2.75967 -1.18863,4.90341 -1.60955,4.22235 z m 74.77264,-0.0961 c 0.0658,-0.20017 0.46298,-0.40431 0.88264,-0.45363 0.53779,-0.0632 0.72772,0.0178 0.64341,0.27428 -0.0658,0.20018 -0.46297,0.40432 -0.88264,0.45364 -0.53778,0.0632 -0.72771,-0.0178 -0.64341,-0.27429 z m -90.44495,-1.66681 c 0.3013,-2.40173 1.25055,-7.68764 1.56391,-8.70858 0.39381,-1.28306 3.52972,-6.03428 3.98276,-6.03428 0.55639,0 0.45616,0.23206 -1.02664,2.377 -0.7618,1.10198 -1.62087,2.53662 -1.90904,3.18809 -0.49418,1.11717 -1.9173,8.50174 -1.9173,9.94886 0,0.42923 -0.15664,0.66891 -0.43716,0.66891 -0.36746,0 -0.40837,-0.22962 -0.25653,-1.44 z m 38.20278,-0.001 c -0.90184,-0.73673 -1.35354,-2.39863 -0.65195,-2.39863 0.26616,0 0.44572,0.22601 0.44572,0.56104 0,0.30857 0.30857,0.86961 0.68571,1.24675 1.18739,1.18738 0.81398,1.64751 -0.47948,0.59084 z m 59.5355,-0.34577 c -0.12252,-1.04942 0.22372,-1.55287 0.63427,-0.92229 0.32374,0.49724 0.18821,1.67951 -0.20741,1.80922 -0.18125,0.0594 -0.35966,-0.31125 -0.42686,-0.88693 z m -31.31232,0.0281 c -0.23852,-0.36403 -0.81469,-0.74556 -1.28036,-0.84784 -0.46567,-0.10228 -0.8062,-0.3074 -0.75672,-0.45583 0.0495,-0.14843 0.17944,-0.26062 0.28881,-0.2493 0.10937,0.0113 0.45133,0.0206 0.7599,0.0206 0.65859,0 1.90753,1.15914 1.90753,1.77039 0,0.62565 -0.42546,0.5155 -0.91916,-0.23799 z m -60.23928,-1.16669 c 0.008,-1.48779 1.05581,-4.78864 1.57475,-4.96162 0.46629,-0.15543 0.42288,0.57854 -0.10606,1.79329 -0.24422,0.56087 -0.52194,1.75045 -0.61714,2.64351 -0.21879,2.05222 -0.86211,2.44871 -0.85155,0.52482 z m 16.0745,1.08749 c -0.0953,-0.0953 -0.1732,-0.25625 -0.1732,-0.35775 0,-0.3003 1.34009,-0.82117 2.11273,-0.82117 0.39352,0 1.12005,-0.30857 1.61451,-0.68571 1.04099,-0.794 1.2099,-0.83368 1.2099,-0.28417 0,0.57951 -1.91151,1.79274 -2.82456,1.79274 -0.42747,0 -0.99973,0.11909 -1.27169,0.26464 -0.27196,0.14555 -0.57242,0.18669 -0.66769,0.0914 z m -23.66522,-1.79606 c 0.0951,-0.792 0.17404,-1.96457 0.17535,-2.60571 0.002,-0.85228 0.11301,-1.16572 0.41381,-1.16572 0.50454,0 0.55722,1.76179 0.11442,3.8265 -0.40175,1.87329 -0.93024,1.83193 -0.70358,-0.0551 z m 57.68787,1.25871 c -0.30796,-0.30796 -0.21505,-0.56309 0.52567,-1.44338 0.74344,-0.88352 1.21764,-1.08172 1.19876,-0.50104 -0.0159,0.48866 -1.50317,2.16568 -1.72443,1.94442 z m 23.67843,-1.12911 c 0,-0.86822 2.3347,-2.5296 3.55479,-2.5296 0.94363,0 0.62385,0.44947 -0.67184,0.9443 -0.67723,0.25863 -1.46643,0.76912 -1.75376,1.1344 -0.50408,0.64084 -1.12919,0.89045 -1.12919,0.4509 z m -26.88,-0.41805 c 0,-0.43631 0.86549,-1.093 1.85143,-1.40479 0.43647,-0.13802 0.61714,-0.0842 0.61714,0.18396 0,0.31348 -0.65267,0.75334 -2.26285,1.52498 -0.11315,0.0542 -0.20572,-0.0827 -0.20572,-0.30415 z m -24.95163,-3.00298 c 0.0118,-0.48186 1.9764,-3.30312 2.39163,-3.43443 0.58939,-0.18639 0.38159,0.38876 -0.76314,2.11218 -1.05424,1.58719 -1.64669,2.06824 -1.62849,1.32225 z m 63.24082,-1.18262 c -1.2921,-1.31065 -1.72091,-1.35523 -2.61962,-0.27235 -0.38299,0.46148 -1.10957,0.5797 -1.10957,0.18053 0,-0.24717 1.81641,-1.94842 2.08031,-1.94842 0.46651,0 1.73633,0.89944 2.29027,1.62225 0.54911,0.71649 0.83167,0.84633 1.84188,0.84633 1.26987,0 1.60224,0.37498 0.57611,0.64997 -1.29911,0.34815 -1.84159,0.15695 -3.05938,-1.07831 z m -93.67457,-10.78371 c -0.98277,-0.27464 -1.04938,-0.85653 -0.0981,-0.85653 0.75979,0 1.44915,0.41753 1.44915,0.87772 0,0.25125 -0.39854,0.245 -1.3511,-0.0212 z m -26.21462,24.5802 c 1.056,0.023 2.52869,-0.13656 3.27264,-0.35459 0.74396,-0.21803 1.67483,-0.39642 2.06861,-0.39642 0.84271,0 2.40351,-1.51276 4.06355,-3.93849 2.04612,-2.98988 6.09117,-5.02992 8.79568,-4.43591 0.95339,0.2094 2.69801,1.51238 3.34445,2.49784 0.43023,0.65584 0.45575,0.61087 1.45071,-2.5565 0.93434,-2.9744 1.01404,-3.4896 1.02915,-6.65266 0.013,-2.71294 -0.1089,-3.88657 -0.58382,-5.62285 -0.33011,-1.20686 -0.6291,-2.22687 -0.66443,-2.2667 -0.0353,-0.0398 -0.37896,0.17516 -0.76365,0.47776 -1.17393,0.92341 -2.6078,3.34283 -2.82008,4.75842 -0.21625,1.44208 -0.63922,2.01565 -1.67883,2.27657 -1.09817,0.27562 -2.03812,-0.42906 -2.79012,-2.09177 -0.90448,-1.99982 -2.45279,-4.33429 -3.10682,-4.68432 -0.2892,-0.15477 -1.43893,-0.38381 -2.55496,-0.50896 -1.28576,-0.1442 -2.31257,-0.42817 -2.80276,-0.77512 -0.42548,-0.30116 -1.32903,-0.62957 -2.00789,-0.7298 l -1.23428,-0.18224 1.09714,0.71871 c 2.25702,1.4785 4.9032,2.61409 5.69143,2.44242 0.57382,-0.12497 0.75428,-0.0606 0.75428,0.26895 0,0.33355 -0.29769,0.43322 -1.2939,0.43322 -1.10302,0 -1.82122,-0.29894 -4.86857,-2.02645 -2.96692,-1.68192 -4.01768,-2.12571 -6.18038,-2.61025 -3.600512,-0.80667 -8.365374,-1.14945 -9.528345,-0.68544 -1.771945,0.70697 -4.701464,2.81696 -5.17851,3.72984 -0.260569,0.49862 -0.993147,2.7264 -1.627951,4.95062 -1.153528,4.04172 -1.715341,5.31056 -2.48158,5.60459 -0.721746,0.27696 -0.743827,-0.14161 -0.05091,-0.96509 0.371389,-0.44137 0.835935,-1.40315 1.032325,-2.1373 0.19639,-0.73414 0.718614,-2.61208 1.160497,-4.17319 0.441884,-1.5611 0.763556,-2.87824 0.714828,-2.92697 -0.221617,-0.22162 -6.658414,1.53804 -9.000356,2.46048 -3.776418,1.48743 -4.445517,1.55366 -8.043728,0.7962 -1.685664,-0.35485 -3.435129,-0.77695 -3.887701,-0.938 -1.571654,-0.55926 -5.639291,-0.64435 -7.328439,-0.1533 -0.969243,0.28176 -2.689695,0.46483 -4.590607,0.48847 -1.672205,0.0208 -2.986459,0.0917 -2.920565,0.15761 0.06589,0.0659 -0.319132,0.98382 -0.855614,2.03983 -0.652304,1.284 -1.047362,1.80363 -1.192593,1.56864 -0.228985,-0.37051 0.255495,-1.76165 0.967553,-2.77826 0.612362,-0.87427 0.559362,-0.94186 -0.889266,-1.13402 -0.925571,-0.12278 -1.734594,-0.49134 -2.744843,-1.25042 -1.955221,-1.46913 -4.060618,-2.45788 -5.838344,-2.74184 -0.818005,-0.13066 -1.542388,-0.18462 -1.609741,-0.11991 -0.216241,0.20775 -0.0099,11.26556 0.248678,13.32464 0.22853,1.82002 0.208946,3.28056 -0.113792,8.48659 -0.102909,1.66001 -0.06226,1.8375 0.451583,1.97187 0.708425,0.18526 3.167092,-0.71929 4.379115,-1.61108 2.768242,-2.03684 5.352108,-2.59103 12.218307,-2.62058 5.0932,-0.0219 6.492355,-0.19452 9.793589,-1.20815 2.962514,-0.90962 7.14379,-0.28544 9.751086,1.45565 0.945594,0.63144 1.848638,1.14808 2.006765,1.14808 0.158127,0 0.793627,-0.29661 1.412222,-0.65913 2.017086,-1.18209 4.078729,-1.62783 5.980077,-1.29291 1.379435,0.24298 2.02158,0.56571 3.734805,1.87702 l 2.068951,1.58359 h 3.728691 c 3.289434,0 3.819307,0.0646 4.497894,0.54857 1.530486,1.0915 2.491548,1.50534 3.04733,1.31222 0.30329,-0.10539 1.41544,-0.17279 2.47144,-0.14978 z m -1.50248,-2.79214 c -0.14004,-0.36833 -0.39223,-2.43576 -0.56041,-4.59428 -0.16819,-2.15853 -0.37153,-4.57974 -0.451855,-5.38048 -0.175067,-1.74511 0.08246,-3.3441 0.538605,-3.34414 0.23083,-2e-5 0.33114,0.68209 0.33278,2.26286 0.004,4.10771 0.57782,10.03363 1.08842,11.24574 0.14477,0.34365 0.0751,0.48 -0.24536,0.48 -0.24616,0 -0.56214,-0.30136 -0.70218,-0.6697 z m 5.85532,0.0526 c 0.091,-0.33943 0.16707,-1.08 0.16913,-1.64572 0.004,-1.10874 0.40409,-1.37911 0.69313,-0.46843 0.2838,0.89418 -0.12538,2.73129 -0.60834,2.73129 -0.30099,0 -0.37264,-0.17415 -0.25392,-0.61714 z m -13.815693,0.19478 c 0,-0.0814 0.246857,-0.63194 0.548571,-1.22335 0.814167,-1.5959 0.73797,-1.91625 -0.411429,-1.72973 -0.768391,0.12469 -0.96,0.0665 -0.96,-0.29153 0,-0.24602 0.154286,-0.46307 0.342858,-0.48232 0.188571,-0.0192 0.628239,-0.0645 0.97704,-0.10051 0.717214,-0.0741 1.42296,0.50405 1.42296,1.16565 0,0.75009 -1.123799,2.80986 -1.53304,2.80986 -0.212828,0 -0.38696,-0.0666 -0.38696,-0.14807 z m 5.846085,-0.8805 c -1.305939,-1.97073 -1.790223,-3.49323 -0.944979,-2.97084 0.304617,0.18826 1.956036,3.14282 1.956036,3.49955 0,0.47298 -0.531429,0.19508 -1.011057,-0.52871 z m -52.858248,-1.12067 c -0.08096,-0.131 0.09565,-0.71454 0.392476,-1.29675 0.296828,-0.58221 0.539687,-1.21761 0.539687,-1.412 0,-0.19439 0.185143,-0.35343 0.411428,-0.35343 0.53911,0 0.511431,0.43896 -0.114606,1.81759 -0.541906,1.19335 -0.98397,1.64103 -1.228985,1.24459 z m 42.07502,-0.13087 c 0,-0.52673 1.305644,-1.64949 2.915801,-2.50736 0.773976,-0.41236 2.155383,-1.35511 3.069792,-2.09499 1.126542,-0.91153 1.726831,-1.24126 1.861901,-1.02271 0.118971,0.1925 -0.17871,0.64414 -0.738364,1.12024 -1.287549,1.09533 -4.004095,2.94493 -4.325272,2.94493 -0.144862,0 -0.780455,0.432 -1.41243,0.96 -1.28363,1.07245 -1.371428,1.11085 -1.371428,0.59989 z m 21.012306,-1.41504 c 0.15215,-1.48506 0.0835,-2.00387 -0.42019,-3.17469 -0.59952,-1.39363 -0.66876,-2.42548 -0.17011,-2.53531 0.14411,-0.0317 0.35901,0.40917 0.47757,0.97978 0.11855,0.57062 0.40179,1.39763 0.62942,1.83781 0.65901,1.27439 0.42974,4.66756 -0.31538,4.66756 -0.30731,0 -0.34717,-0.35147 -0.20131,-1.77515 z M 74.88,147.29399 c 0,-0.89225 0.750634,-2.13696 1.416092,-2.34817 0.620537,-0.19695 1.326765,0.4225 1.326765,1.16375 0,0.49214 -0.529415,0.45379 -0.723669,-0.0524 -0.256778,-0.66915 -0.649363,-0.47458 -1.069029,0.52982 -0.478195,1.14448 -0.950159,1.49568 -0.950159,0.70703 z m 28.67082,0.2846 c -0.37581,-0.60806 -0.73884,-4.88489 -0.51201,-6.03188 0.43702,-2.20989 0.82646,-1.58812 0.80159,1.27982 -0.0128,1.47512 0.0851,3.20661 0.21751,3.84775 0.1641,0.79449 0.14742,1.16572 -0.0524,1.16572 -0.16124,0 -0.36586,-0.11763 -0.45471,-0.26141 z m -44.406503,-1.59002 c 0.219177,-1.75841 1.155522,-3.76181 2.529499,-5.41211 0.625687,-0.75152 1.137612,-1.46124 1.137612,-1.57715 0,-0.11591 0.123429,-0.21074 0.274286,-0.21074 0.60007,0 0.215905,1.04021 -0.862893,2.33646 -1.340628,1.61086 -2.02404,3.07007 -2.277803,4.86354 -0.1211,0.85587 -0.317933,1.30286 -0.57372,1.30286 -0.304453,0 -0.353957,-0.28415 -0.226981,-1.30286 z m -10.013743,0.50647 c -0.207899,-0.13168 -0.296062,-0.372 -0.195919,-0.53403 0.204615,-0.33108 1.533916,0.14693 1.533916,0.55159 0,0.30013 -0.854116,0.28892 -1.337997,-0.0176 z m 4.511667,-0.7326 c -0.100774,-0.40152 -0.105412,-0.80784 -0.01031,-0.90295 0.220616,-0.22061 0.987992,0.81216 0.868906,1.16942 -0.19293,0.57879 -0.684763,0.42614 -0.858599,-0.26647 z m 19.592044,0.33338 c 0,-1.04742 4.264663,-5.66154 5.232752,-5.66154 0.593069,0 0.136231,0.74598 -0.929512,1.51782 -0.631925,0.45766 -1.750734,1.63023 -2.486242,2.60571 -1.416032,1.87805 -1.816998,2.21745 -1.816998,1.53801 z M 43.21953,144.69335 c -0.121487,-0.64758 -0.03231,-1.24008 0.278643,-1.85142 0.577369,-1.13512 0.568478,-1.12628 0.916858,-0.91097 0.197919,0.12232 0.159742,0.43502 -0.118894,0.97384 -0.225733,0.43652 -0.410423,1.2318 -0.410423,1.76729 0,1.24821 -0.433413,1.26204 -0.666184,0.0213 z m 28.643327,0.46023 c 0,-0.29581 0.19564,-0.70021 0.434756,-0.89866 0.381796,-0.31686 0.423561,-0.26505 0.342857,0.42527 -0.104535,0.89416 -0.777613,1.30392 -0.777613,0.47339 z M 104.96,145.46286 c -0.49612,-0.49612 0.0264,-5.32825 0.59661,-5.5175 0.29763,-0.0988 0.32661,0.23798 0.15149,1.76053 -0.11909,1.03548 -0.18916,2.34554 -0.15569,2.91125 0.0568,0.96036 -0.1634,1.27473 -0.59241,0.84572 z m -43.245715,-0.34272 c 0,-0.48685 1.480669,-3.01554 1.851429,-3.16188 0.534829,-0.2111 0.396609,0.41276 -0.417836,1.88592 -0.707718,1.28011 -1.433593,1.92617 -1.433593,1.27596 z m 6.452203,-0.0125 c -0.352554,-0.57044 3.387558,-4.51124 6.439226,-6.78474 1.826398,-1.36067 4.030817,-3.44516 5.009952,-4.73739 0.745927,-0.98445 1.204916,-1.00943 0.900083,-0.049 -0.24346,0.76708 -3.7411,4.19078 -6.084272,5.95565 -1.076401,0.81074 -2.884981,2.47286 -4.019065,3.6936 -1.21168,1.30425 -2.137828,2.09677 -2.245924,1.92187 z m 11.650654,0.006 c 0,-0.1419 0.764323,-1.2219 1.698495,-2.4 0.934173,-1.17809 1.738516,-2.19547 1.787429,-2.26084 0.04891,-0.0654 0.215862,0.008 0.370998,0.16321 0.193228,0.19323 -0.261737,0.98148 -1.444572,2.5028 -1.5567,2.00217 -2.41235,2.70973 -2.41235,1.99483 z m -35.058218,-0.7494 c 0.126412,-1.06783 0.772504,-1.16199 0.772504,-0.11258 0,0.58482 -0.132538,0.84571 -0.429647,0.84571 -0.304491,0 -0.404365,-0.21356 -0.342857,-0.73313 z m 12.405292,-0.77483 c -0.196117,-0.78139 0.0099,-1.50918 0.427175,-1.50918 0.155592,0 0.282894,0.49371 0.282894,1.09714 0,1.21919 -0.442973,1.47624 -0.710069,0.41204 z m 54.744354,0.17102 c 0,-0.13189 0.19527,-0.77989 0.43392,-1.44 0.42414,-1.17312 0.40843,-2.85737 -0.0476,-5.10877 -0.13728,-0.67772 -0.0856,-0.89143 0.21572,-0.89143 0.28218,0 0.49696,0.61988 0.74588,2.15264 0.30863,1.90049 0.29412,2.35029 -0.12387,3.84 -0.28454,1.0141 -0.62319,1.68736 -0.84873,1.68736 -0.20641,0 -0.37529,-0.10791 -0.37529,-0.2398 z m -27.702856,-0.14199 c 0,-0.0813 0.381082,-0.7383 0.846849,-1.46011 0.795835,-1.23333 0.837721,-1.42805 0.695308,-3.23239 -0.08335,-1.056 -0.04786,-2.08746 0.07886,-2.29214 0.340269,-0.54958 0.489794,-0.11829 0.699576,2.01786 0.174174,1.77356 0.128427,2.03498 -0.599785,3.42746 -0.433588,0.82911 -0.998148,1.54787 -1.254577,1.59726 -0.25643,0.0494 -0.466236,0.0233 -0.466236,-0.0579 z m 13.746595,-1.02341 c -0.93394,-1.18103 -0.354079,-1.66211 0.615097,-0.51031 0.398212,0.47325 0.724022,0.97441 0.724022,1.1137 0,0.51573 -0.705534,0.19782 -1.339119,-0.60339 z M 67.2,142.57346 c 0,-0.39773 3.152796,-3.5106 3.555628,-3.5106 0.604409,0 0.221115,0.59047 -1.418017,2.18447 C 67.621997,142.91572 67.2,143.17751 67.2,142.57346 Z m -17.492064,-0.28775 c -0.322268,-0.39569 -1.159365,-2.3508 -1.159365,-2.70778 0,-0.13243 0.154286,-0.23868 0.342857,-0.23611 0.297545,0.004 1.583362,2.51335 1.578797,3.08104 -0.0026,0.32235 -0.454236,0.2411 -0.762289,-0.13715 z m -3.082399,-0.75995 c -0.295925,-0.55294 -0.166892,-1.09148 0.261517,-1.09148 0.124359,0 0.302297,0.216 0.395418,0.48 0.09312,0.264 0.24123,0.63429 0.329133,0.82286 0.271621,0.58269 -0.669009,0.38105 -0.986068,-0.21138 z m 7.511505,-1.38184 c -0.09791,-0.61228 -0.399933,-1.3837 -0.671171,-1.71429 -0.491047,-0.59849 -0.494959,-0.59871 -0.913649,-0.0525 -0.23127,0.30172 -0.424416,0.77486 -0.429213,1.05143 -0.0048,0.27793 -0.162085,0.45179 -0.351581,0.3887 -0.654162,-0.21781 -0.51621,-1.03469 0.315129,-1.86603 0.715185,-0.71518 0.919186,-0.79097 1.41492,-0.52566 0.690263,0.36942 1.355665,1.84186 1.355665,2.9999 0,1.21623 -0.512645,1.01579 -0.7201,-0.28156 z m 34.182957,-1.70575 c 0,-0.60633 0.83255,-1.5696 1.356596,-1.5696 0.630414,0 1.869158,0.97819 1.591563,1.2568 -0.113371,0.11379 -0.531072,0.033 -0.928225,-0.17957 -0.664623,-0.3557 -0.754578,-0.33754 -1.130185,0.22816 -0.450213,0.67806 -0.889749,0.80858 -0.889749,0.26421 z m -27.977142,-0.15154 c 0,-0.12521 0.586285,-0.83644 1.302857,-1.58051 0.716571,-0.74406 1.433921,-1.58897 1.594111,-1.87756 0.161898,-0.29168 0.429873,-0.43905 0.603365,-0.33183 0.432708,0.26743 -0.470815,1.74421 -1.845086,3.01573 -1.043322,0.96532 -1.655247,1.25152 -1.655247,0.77417 z m 26.844947,0.10117 c -0.06956,-0.0696 -0.03404,-1.18077 0.07894,-2.46934 0.324473,-3.70073 1.430496,-5.72597 4.33226,-7.93277 1.714435,-1.30384 2.657424,-1.26229 1.086367,0.0479 -3.379381,2.81817 -4.635845,4.93332 -4.643399,7.81673 -0.0054,2.06668 -0.33774,3.05394 -0.854164,2.53751 z m -19.164947,-1.37831 c 0,-0.0955 0.457476,-0.72087 1.016614,-1.38978 0.663704,-0.794 1.109899,-1.12291 1.285334,-0.94748 0.325222,0.32522 -1.176071,2.28915 -1.851589,2.42217 -0.247698,0.0488 -0.450359,0.0106 -0.450359,-0.0849 z M 49.92,136.34132 c 0,-0.37413 1.727381,-2.56569 2.125714,-2.69693 0.58013,-0.19114 0.383768,0.41507 -0.548571,1.69356 -0.822966,1.1285 -1.577143,1.60831 -1.577143,1.00337 z m 40.045714,-2.48989 c 0,-0.47404 1.051125,-1.34992 1.844452,-1.53694 0.418694,-0.0987 1.222738,-0.43237 1.786765,-0.74148 0.564027,-0.3091 1.119455,-0.46727 1.234286,-0.35149 0.314114,0.31671 -1.266602,1.46549 -2.27746,1.65513 -0.487673,0.0915 -1.196382,0.40995 -1.574909,0.7077 -0.770357,0.60596 -1.013134,0.66996 -1.013134,0.26708 z m 32.783246,0.0518 c -0.28553,-0.28554 -0.1298,-0.51847 0.55537,-0.83065 0.83124,-0.37874 1.67928,-0.41265 1.88766,-0.0755 0.16262,0.26311 -2.2071,1.14204 -2.44303,0.90612 z m -17.10925,-1.02743 c -0.85398,-0.60719 -0.97639,-0.62534 -1.69872,-0.2518 -0.54017,0.27933 -0.83465,0.31158 -0.9621,0.10536 -0.26991,-0.43673 0.21164,-0.79908 1.27335,-0.95817 1.06078,-0.15894 2.71919,0.68909 2.71919,1.39047 0,0.54751 -0.22868,0.49842 -1.33172,-0.28586 z m -13.065671,-2.86017 c -0.206844,-0.33468 1.502329,-1.41027 1.875001,-1.17995 0.14886,0.092 -0.08928,0.45528 -0.529193,0.80728 -0.887423,0.71008 -1.100766,0.76916 -1.345808,0.37267 z m 3.700246,-0.61656 c 0,-0.21821 0.314379,-0.53999 0.69862,-0.71506 0.858573,-0.3912 4.512805,-0.42685 4.512805,-0.044 0,0.15086 -0.46285,0.27966 -1.02857,0.28623 -1.102303,0.0128 -2.919631,0.34102 -3.702855,0.66875 -0.328486,0.13745 -0.48,0.0756 -0.48,-0.19589 z"
       id="path1" />
  </g>
</svg>
