<?xml version="1.0" encoding="UTF-8" standalone="no"?>
<!-- Created with Inkscape (http://www.inkscape.org/) -->

<svg
   version="1.1"
   id="svg1"
   width="294.58286"
   height="294.58286"
   viewBox="0 0 294.58286 294.58286"
   sodipodi:docname="terlingua-large-a.svg"
   inkscape:version="1.4 (86a8ad7, 2024-10-11)"
   xmlns:inkscape="http://www.inkscape.org/namespaces/inkscape"
   xmlns:sodipodi="http://sodipodi.sourceforge.net/DTD/sodipodi-0.dtd"
   xmlns:xlink="http://www.w3.org/1999/xlink"
   xmlns="http://www.w3.org/2000/svg"
   xmlns:svg="http://www.w3.org/2000/svg">
  <defs
     id="defs1">
    <linearGradient
       id="linearGradient1"
       inkscape:collect="always">
      <stop
         style="stop-color:#000000;stop-opacity:0;"
         offset="0.18122271"
         id="stop2" />
      <stop
         style="stop-color:#000000;stop-opacity:1;"
         offset="0.64410478"
         id="stop1" />
    </linearGradient>
    <linearGradient
       inkscape:collect="always"
       xlink:href="#linearGradient1"
       id="linearGradient2"
       x1="35.764055"
       y1="94.170009"
       x2="254.17099"
       y2="94.170009"
       gradientUnits="userSpaceOnUse" />
  </defs>
  <sodipodi:namedview
     id="namedview1"
     pagecolor="#ffffff"
     bordercolor="#000000"
     borderopacity="0.25"
     inkscape:showpageshadow="2"
     inkscape:pageopacity="0.0"
     inkscape:pagecheckerboard="0"
     inkscape:deskcolor="#d1d1d1"
     inkscape:zoom="2.766624"
     inkscape:cx="147.47215"
     inkscape:cy="147.29143"
     inkscape:window-width="1920"
     inkscape:window-height="1017"
     inkscape:window-x="-8"
     inkscape:window-y="-8"
     inkscape:window-maximized="1"
     inkscape:current-layer="g1" />
  <g
     inkscape:groupmode="layer"
     inkscape:label="Image"
     id="g1">
    <path
       style="fill:url(#linearGradient2)"
       d="m 182.81143,117.37229 c -0.90515,-0.13648 -1.98508,-0.36606 -2.39985,-0.51018 -0.41478,-0.14412 -1.83421,-0.34197 -3.15429,-0.43965 -1.32008,-0.0977 -2.88311,-0.29945 -3.4734,-0.44836 -1.2089,-0.30495 -4.28649,-2.90057 -5.5996,-4.72266 -1.21382,-1.68431 -2.77681,-3.2038 -3.69083,-3.58812 -0.67145,-0.28232 -0.9555,-0.27049 -1.63411,0.068 -1.18078,0.58905 -5.50249,0.56397 -6.86561,-0.0399 -0.70998,-0.31449 -1.18356,-0.37772 -1.50858,-0.20141 -0.66999,0.36344 -1.81377,1.65201 -2.42348,2.73029 -0.58255,1.03023 -1.69269,1.67818 -4.02551,2.34956 -0.87268,0.25115 -2.35383,0.87461 -3.29143,1.38546 -2.02011,1.10065 -3.6396,1.42264 -9.00205,1.7898 -4.77264,0.32678 -9.27321,-0.15257 -14.64555,-1.55989 -2.2374,-0.5861 -6.55635,-2.69457 -8.22857,-4.01712 -0.75429,-0.59656 -1.86514,-1.29916 -2.46857,-1.56134 -1.04577,-0.45436 -1.23638,-0.45303 -4.07068,0.0285 -2.23431,0.3796 -3.29122,0.70527 -4.25143,1.31 -1.86471,1.17438 -5.005746,2.78606 -5.4298,2.78606 -0.20151,0 -1.664217,0.48749 -3.25046,1.08331 -3.630885,1.36382 -4.932924,1.60051 -10.700488,1.9452 -2.564571,0.15327 -5.427491,0.46433 -6.362043,0.69124 -1.881974,0.45695 -2.937163,0.32108 -3.835679,-0.49389 -0.448055,-0.40639 -1.340901,-0.63072 -3.565715,-0.89589 -1.632395,-0.19457 -3.451765,-0.56195 -4.043044,-0.8164 -1.007055,-0.43337 -1.178722,-0.43355 -2.714075,-0.003 -3.979594,1.11662 -14.031846,1.95772 -18.010612,1.507 -1.780429,-0.20169 -3.013912,-0.1971 -4.236358,0.0158 -1.966533,0.34246 -3.826064,0.005 -4.114583,-0.74701 -0.09504,-0.24768 -0.05329,-0.83262 0.09278,-1.29988 0.14607,-0.46726 0.46223,-2.12521 0.702578,-3.68433 0.369618,-2.39768 0.392054,-3.5607 0.145514,-7.54286 -0.160317,-2.589452 -0.477075,-5.920261 -0.703909,-7.401799 -0.527153,-3.443048 -0.359951,-4.454258 0.799148,-4.833119 0.902862,-0.295107 2.559342,0.01697 4.566,0.860212 0.650134,0.273202 1.225599,0.331142 1.782857,0.179505 0.507551,-0.138112 1.801267,-0.0668 3.376225,0.186113 1.404353,0.225513 5.065257,0.710952 8.135343,1.078753 6.950878,0.832727 8.65485,1.258279 10.431289,2.605124 2.265634,1.71774 2.096868,1.695396 6.039479,0.799588 1.958286,-0.444947 4.478532,-0.93753 5.600546,-1.094629 2.929564,-0.410183 5.216538,-1.403318 6.579027,-2.856988 1.804339,-1.925089 3.151387,-2.214231 11.403805,-2.447806 3.771428,-0.106746 7.782856,-0.308794 8.914286,-0.448995 4.89239,-0.60624 13.32611,-1.066005 14.87734,-0.811038 1.01567,0.16694 2.183,0.160791 3.289,-0.01733 1.78369,-0.287255 4.06558,-0.113251 5.0108,0.382094 0.30172,0.158114 0.98057,0.763757 1.50857,1.345875 1.22333,1.348709 3.23933,1.803594 5.92252,1.336337 2.06718,-0.359983 3.8769,-0.136551 4.66279,0.575677 0.40414,0.366263 0.74511,0.456747 1.15282,0.305926 0.62679,-0.231865 2.66069,-2.49637 3.58408,-3.990446 0.31492,-0.509559 1.16197,-1.260245 1.88233,-1.668193 0.72036,-0.407947 1.88228,-1.151058 2.58205,-1.651357 1.65564,-1.183706 3.95575,-1.661334 6.23378,-1.294469 0.90893,0.146379 1.87533,0.384807 2.14755,0.529839 0.98239,0.523398 4.08194,0.642044 7.35372,0.281489 5.29515,-0.583532 7.95974,-0.36823 8.98643,0.726115 0.33656,0.358742 1.7845,1.257532 3.21765,1.997311 2.02383,1.04469 2.8263,1.634433 3.59352,2.640926 0.5433,0.712731 1.35946,1.521886 1.8137,1.798122 1.60266,0.974637 6.96556,1.575126 8.33445,0.933217 0.36208,-0.169788 0.99374,-0.443025 1.40369,-0.607195 0.40994,-0.16417 1.11386,-0.827538 1.56426,-1.474152 2.32842,-3.342816 2.70564,-3.712501 4.13907,-4.056377 1.00657,-0.241471 2.0089,-0.832521 3.71705,-2.191839 1.95309,-1.554251 2.64214,-1.934761 4.17797,-2.307174 1.01153,-0.24528 2.64143,-0.680372 3.622,-0.96687 1.03201,-0.301528 3.51558,-0.643111 5.89714,-0.81108 2.26286,-0.159595 4.85486,-0.418046 5.76,-0.574335 2.30174,-0.397435 5.99609,-0.08486 6.83966,0.578688 1.21851,0.958483 2.08838,0.925712 4.2441,-0.159894 3.50485,-1.76501 7.48234,-4.564599 9.8752,-6.950729 2.11753,-2.111573 2.37678,-2.28719 3.14853,-2.132839 1.83844,0.367687 4.17674,4.474122 5.36271,9.417797 0.18971,0.790804 0.45692,1.507045 0.59381,1.591646 0.46499,0.28738 3.14791,4.091828 3.46874,4.918773 0.50715,1.307142 0.64786,2.647753 0.41462,3.950186 -0.19569,1.092769 -0.37207,1.306752 -1.85893,2.255126 -2.15501,1.374554 -3.58962,2.034357 -4.93415,2.269309 -3.70214,0.646933 -5.78406,1.910128 -8.25157,5.006601 -1.68718,2.11726 -2.07884,2.37198 -4.36557,2.83933 -2.2368,0.45714 -3.03377,0.91658 -3.85981,2.22511 -0.84943,1.34559 -2.82118,2.33936 -5.45519,2.74944 -3.67016,0.57139 -9.12843,-0.71268 -9.62056,-2.26325 -0.10042,-0.31642 -0.52828,-0.55763 -1.17133,-0.66036 -0.55721,-0.089 -1.79936,-0.32535 -2.76032,-0.52517 -2.04492,-0.42523 -1.81787,-0.56753 -4.24937,2.66318 -1.28541,1.7079 -1.95014,2.31484 -3.42221,3.12464 -1.14959,0.6324 -2.46549,1.69431 -3.54926,2.8642 -0.94729,1.02255 -2.36671,2.22464 -3.15429,2.67131 -1.62019,0.91889 -4.83182,1.53747 -6.11443,1.17766 -0.44178,-0.12393 -1.12135,-0.138 -1.51016,-0.0313 -1.29472,0.3554 -5.30579,0.49623 -6.97307,0.24483 z"
       id="path1" />
  </g>
</svg>
