<?xml version="1.0" encoding="UTF-8" standalone="no"?>
<!-- Created with Inkscape (http://www.inkscape.org/) -->

<svg
   version="1.1"
   id="svg1"
   width="294.58286"
   height="294.58286"
   viewBox="0 0 294.58286 294.58286"
   sodipodi:docname="terlingua-medium-a.svg"
   inkscape:version="1.4 (86a8ad7, 2024-10-11)"
   xmlns:inkscape="http://www.inkscape.org/namespaces/inkscape"
   xmlns:sodipodi="http://sodipodi.sourceforge.net/DTD/sodipodi-0.dtd"
   xmlns:xlink="http://www.w3.org/1999/xlink"
   xmlns="http://www.w3.org/2000/svg"
   xmlns:svg="http://www.w3.org/2000/svg">
  <defs
     id="defs1">
    <linearGradient
       id="linearGradient1"
       inkscape:collect="always">
      <stop
         style="stop-color:#000000;stop-opacity:0;"
         offset="0.17467248"
         id="stop2" />
      <stop
         style="stop-color:#000000;stop-opacity:1;"
         offset="0.64410478"
         id="stop1" />
    </linearGradient>
    <linearGradient
       inkscape:collect="always"
       xlink:href="#linearGradient1"
       id="linearGradient2"
       x1="36.061833"
       y1="93.989386"
       x2="254.16345"
       y2="93.989386"
       gradientUnits="userSpaceOnUse" />
  </defs>
  <sodipodi:namedview
     id="namedview1"
     pagecolor="#ffffff"
     bordercolor="#000000"
     borderopacity="0.25"
     inkscape:showpageshadow="2"
     inkscape:pageopacity="0.0"
     inkscape:pagecheckerboard="0"
     inkscape:deskcolor="#d1d1d1"
     inkscape:zoom="2.766624"
     inkscape:cx="147.47215"
     inkscape:cy="147.29143"
     inkscape:window-width="1920"
     inkscape:window-height="1017"
     inkscape:window-x="-8"
     inkscape:window-y="-8"
     inkscape:window-maximized="1"
     inkscape:current-layer="g1" />
  <g
     inkscape:groupmode="layer"
     inkscape:label="Image"
     id="g1">
    <path
       style="fill:url(#linearGradient2)"
       d="m 187.74857,116.67244 c -1.52323,-0.26427 -2.52981,-0.30266 -3.29143,-0.12553 -1.27097,0.29559 -4.18005,-0.22675 -11.62616,-2.08753 -1.97545,-0.49366 -2.66065,-1.07303 -5.92812,-5.01251 -2.90534,-3.50286 -3.94613,-4.48835 -4.3693,-4.13715 -0.75805,0.62912 -3.50039,0.90564 -5.60868,0.56553 -1.93681,-0.31244 -2.0605,-0.29961 -2.88002,0.29872 -0.47096,0.34384 -1.31627,1.14246 -1.87846,1.7747 -0.74344,0.83608 -1.96903,1.62091 -4.49457,2.8782 -1.90982,0.95077 -3.79499,1.99677 -4.18926,2.32444 -1.37244,1.1406 -2.006,1.32529 -4.28257,1.24841 -1.20686,-0.0408 -2.62629,-0.0843 -3.15429,-0.0968 -0.528,-0.0125 -2.3967,0.23717 -4.15267,0.55475 -3.12731,0.56559 -3.232,0.5673 -5.11281,0.0835 -1.05607,-0.27165 -2.3348,-0.70778 -2.84161,-0.96918 -0.50681,-0.2614 -2.00565,-1.02184 -3.33074,-1.68988 -1.3251,-0.66803 -2.86796,-1.62621 -3.42857,-2.12927 -0.56062,-0.50307 -1.57474,-1.19404 -2.2536,-1.53548 -0.67885,-0.34144 -1.93401,-1.1092 -2.78922,-1.70613 -2.22946,-1.55612 -5.74529,-2.17682 -8.99341,-1.58772 -2.07983,0.3772 -3.06699,0.83955 -4.461956,2.08979 -0.561953,0.50365 -1.919668,1.36708 -3.017143,1.91873 -1.097476,0.55164 -2.72513,1.61159 -3.617009,2.35542 -2.209204,1.8425 -3.099144,2.23638 -6.64526,2.94113 -2.489047,0.49467 -3.327977,0.55737 -4.525715,0.33825 -1.194977,-0.21863 -1.902911,-0.16658 -3.780754,0.27795 -2.385004,0.56458 -3.704597,0.51543 -4.792487,-0.17853 -0.317373,-0.20245 -1.873042,-0.48456 -3.457042,-0.62691 -1.946307,-0.17491 -3.333006,-0.46106 -4.277309,-0.88264 l -1.397308,-0.62383 -2.250117,0.86774 c -2.190307,0.84467 -2.446775,0.87812 -9.648747,1.25824 -4.069247,0.21478 -7.523473,0.46766 -7.676058,0.56197 -0.527258,0.32586 -7.352918,-0.47597 -7.508756,-0.88208 -0.07952,-0.20723 0.03261,-1.1448 0.249175,-2.08349 0.88125,-3.81971 1.045263,-6.63588 0.551984,-9.47782 -0.585604,-3.373845 -0.983972,-13.003491 -0.555556,-13.429311 0.447764,-0.445051 3.38666,-0.120846 4.835933,0.533478 1.192918,0.538582 1.696766,0.627708 2.579616,0.456308 1.368362,-0.26566 4.496377,-0.03469 6.308572,0.465809 0.754285,0.208323 3.963428,0.758591 7.131428,1.222818 3.168,0.464226 6.006857,0.914757 6.308571,1.00118 0.301715,0.08642 1.409348,0.669676 2.461407,1.296118 1.853941,1.103919 1.984836,1.138434 4.251428,1.121028 1.288411,-0.0099 3.016042,-0.216459 3.847165,-0.459988 0.829715,-0.243117 2.619429,-0.526018 3.977143,-0.62867 2.859178,-0.216171 3.548308,-0.515455 5.614888,-2.438499 2.165424,-2.015024 4.266408,-2.615645 7.375881,-2.10859 2.015645,0.328687 7.338073,-0.0752 8.677802,-0.658508 1.118024,-0.48678 5.228104,-0.9526 6.128174,-0.694544 0.40991,0.117524 1.68938,0.04426 2.92326,-0.167389 2.59926,-0.445856 6.88611,-0.561187 15.85866,-0.426652 2.67925,0.04017 3.67215,0.443603 4.78014,1.942235 0.47544,0.643067 1.10194,0.970053 2.87595,1.501035 1.24746,0.373377 2.92018,0.813137 3.71716,0.977245 0.79699,0.164109 1.93378,0.545665 2.52622,0.847903 0.59243,0.302238 1.23908,0.549523 1.43699,0.549523 0.19792,0 1.40626,-1.054049 2.68522,-2.342332 1.27895,-1.288283 2.8808,-2.66801 3.55965,-3.066061 0.67886,-0.398051 1.54731,-1.056787 1.9299,-1.463859 0.51775,-0.550889 1.07879,-0.790514 2.19428,-0.937184 0.82428,-0.10838 1.74554,-0.346605 2.04725,-0.529388 0.30172,-0.182784 1.08526,-0.488194 1.74122,-0.67869 1.10291,-0.320298 1.29895,-0.293671 2.60571,0.35392 0.77719,0.385152 1.93337,0.811656 2.56928,0.947787 1.52183,0.325777 7.35678,-0.369875 8.30665,-0.990332 1.14424,-0.747416 3.01829,-0.545491 4.99351,0.538039 0.94957,0.520897 2.62386,1.166296 3.72065,1.434222 1.9072,0.465896 2.07464,0.573774 3.84,2.47404 l 1.84584,1.986904 3.01714,0.362535 c 1.65943,0.199394 3.7975,0.356079 4.75127,0.348189 1.58569,-0.01312 1.81736,-0.0936 2.70659,-0.940353 0.53486,-0.509304 1.32224,-1.695614 1.74973,-2.636244 0.87612,-1.927752 1.79428,-2.654927 3.7161,-2.943122 0.9188,-0.137782 1.58833,-0.513437 2.78309,-1.561511 2.83084,-2.4833 4.49131,-3.244886 8.63318,-3.959655 2.11387,-0.364793 2.86005,-0.381424 4.64626,-0.103556 2.02501,0.315016 2.18477,0.300675 3.3023,-0.296428 1.07528,-0.574528 1.53381,-0.628478 5.43558,-0.639537 4.23353,-0.012 4.26767,-0.0072 5.24938,0.741612 0.95704,0.729971 1.02403,0.741325 2.12858,0.360776 0.62724,-0.216102 2.64673,-1.293291 4.48776,-2.393753 2.45088,-1.464994 4.04516,-2.672584 5.95304,-4.509117 1.43314,-1.379552 2.84055,-2.593287 3.12758,-2.697188 0.55606,-0.201291 2.35813,0.27642 2.35813,0.625116 0,0.114401 0.42147,0.752829 0.9366,1.418729 0.51513,0.6659 1.11718,1.82787 1.3379,2.582156 1.3827,4.725283 1.64542,5.349297 3.34881,7.954285 1.89913,2.904322 2.7488,5.092598 2.44593,6.299342 -0.23034,0.917751 -2.31799,2.920423 -4.01246,3.849132 -0.71049,0.389406 -2.23843,0.889132 -3.39543,1.110501 -2.9375,0.562038 -4.43457,1.470953 -7.92772,4.813162 -3.03563,2.904454 -3.03881,2.906554 -4.70362,3.094904 -1.77663,0.201 -2.27652,0.55353 -3.28187,2.31441 -0.28576,0.50051 -1.03784,1.25376 -1.6713,1.67388 -0.96368,0.63913 -1.56171,0.7948 -3.66271,0.9534 -3.79314,0.28635 -6.95456,-0.0413 -8.02593,-0.83184 -1.31107,-0.96738 -5.12722,-2.7926 -6.25046,-2.98951 -0.98216,-0.17218 -1.02084,-0.14066 -6.57868,5.36168 -3.07489,3.04419 -5.96287,5.72835 -6.41774,5.9648 -0.95805,0.49803 -6.87211,2.00033 -7.68417,1.95195 -0.30172,-0.018 -1.536,-0.20399 -2.74286,-0.41337 z"
       id="path1" />
  </g>
</svg>
