<?xml version="1.0" encoding="UTF-8" standalone="no"?>
<!-- Created with Inkscape (http://www.inkscape.org/) -->

<svg
   version="1.1"
   id="svg1"
   width="294.58286"
   height="294.58286"
   viewBox="0 0 294.58286 294.58286"
   sodipodi:docname="terlingua-large-5-v.svg"
   inkscape:version="1.4 (86a8ad7, 2024-10-11)"
   xmlns:inkscape="http://www.inkscape.org/namespaces/inkscape"
   xmlns:sodipodi="http://sodipodi.sourceforge.net/DTD/sodipodi-0.dtd"
   xmlns:xlink="http://www.w3.org/1999/xlink"
   xmlns="http://www.w3.org/2000/svg"
   xmlns:svg="http://www.w3.org/2000/svg">
  <defs
     id="defs1">
    <linearGradient
       id="linearGradient1"
       inkscape:collect="always">
      <stop
         style="stop-color:#000000;stop-opacity:0;"
         offset="0.1790393"
         id="stop2" />
      <stop
         style="stop-color:#000000;stop-opacity:1;"
         offset="0.64628822"
         id="stop1" />
    </linearGradient>
    <linearGradient
       inkscape:collect="always"
       xlink:href="#linearGradient1"
       id="linearGradient2"
       x1="35.758523"
       y1="154.84397"
       x2="263.72976"
       y2="154.84397"
       gradientUnits="userSpaceOnUse" />
  </defs>
  <sodipodi:namedview
     id="namedview1"
     pagecolor="#ffffff"
     bordercolor="#000000"
     borderopacity="0.25"
     inkscape:showpageshadow="2"
     inkscape:pageopacity="0.0"
     inkscape:pagecheckerboard="0"
     inkscape:deskcolor="#d1d1d1"
     inkscape:zoom="2.766624"
     inkscape:cx="147.47215"
     inkscape:cy="147.29143"
     inkscape:window-width="1920"
     inkscape:window-height="1017"
     inkscape:window-x="-8"
     inkscape:window-y="-8"
     inkscape:window-maximized="1"
     inkscape:current-layer="g1" />
  <g
     inkscape:groupmode="layer"
     inkscape:label="Image"
     id="g1">
    <path
       style="fill:url(#linearGradient2)"
       d="m 254.84424,185.10719 c -2.00107,-0.58884 -5.78254,-3.55844 -10.95667,-8.60433 -5.85187,-5.70682 -7.77247,-7.0074 -12.66471,-8.57618 -3.85535,-1.23628 -3.6772,-1.23199 -5.76981,-0.1389 l -1.88218,0.98316 -1.22977,-0.46965 c -1.32926,-0.50765 -2.47122,-0.43137 -8.39824,0.56101 -3.74779,0.6275 -8.94789,0.62011 -11.52,-0.0164 -1.97448,-0.4886 -2.67611,-0.77229 -5.05624,-2.04441 l -1.0791,-0.57675 -0.8409,0.68788 c -3.46048,2.83072 -5.96491,3.16487 -11.05601,1.47514 -1.86481,-0.61893 -6.19362,-3.60247 -9.53347,-6.57074 -1.056,-0.93852 -3.15428,-2.38571 -4.66286,-3.21599 l -2.74285,-1.5096 -4.25143,-0.30996 c -2.33829,-0.17048 -4.42794,-0.42165 -4.64368,-0.55816 -0.21575,-0.13651 -0.74607,-0.65116 -1.17851,-1.14368 -0.79655,-0.90723 -2.39024,-1.58812 -4.46509,-1.90768 -0.78585,-0.12104 -1.52784,-0.004 -2.60572,0.41095 -2.88108,1.10919 -3.63877,1.17688 -6.11015,0.54588 -2.03944,-0.52071 -2.40775,-0.541 -3.89881,-0.21476 -2.36472,0.5174 -7.0377,0.43262 -9.02125,-0.16367 -1.1351,-0.34123 -2.01854,-0.4318 -2.97461,-0.30498 -0.74799,0.0992 -1.8906,0.10084 -2.53913,0.004 l -1.17917,-0.17683 -0.17069,-1.6875 c -0.0939,-0.92813 -0.065,-2.32709 0.0641,-3.1088 0.22375,-1.35425 0.20423,-1.42896 -0.41381,-1.58408 -0.35674,-0.0895 -1.14687,-0.64633 -1.75584,-1.23731 -2.13763,-2.0745 -3.50295,-2.03943 -6.87382,0.17655 -1.33757,0.87932 -2.12007,1.65416 -2.93743,2.90869 -1.46773,2.25275 -2.96179,3.64782 -4.15357,3.87837 -0.528,0.10214 -2.78059,0.3549 -5.00574,0.5617 -4.408856,0.40974 -5.419431,0.29154 -6.71146,-0.78501 -1.026877,-0.85562 -2.437828,-1.07165 -4.571937,-0.70001 -2.420451,0.42151 -4.07858,-0.0831 -6.644529,-2.02221 -1.190322,-0.89953 -2.341669,-1.53765 -2.953452,-1.63693 -1.060491,-0.17209 -3.533911,0.52648 -4.798976,1.35538 -0.393949,0.25812 -1.267509,0.45122 -2.071815,0.45796 -1.174043,0.01 -1.656483,-0.16201 -3.097144,-1.10326 -1.179567,-0.77066 -2.238212,-1.212 -3.428572,-1.42934 -2.582876,-0.4716 -2.888944,-0.45382 -5.562093,0.32312 -2.137164,0.62116 -3.18662,0.74095 -7.817142,0.89228 -7.650161,0.25002 -10.853076,0.82273 -12.342857,2.207 -1.396437,1.29754 -5.080715,2.51072 -6.498619,2.13991 -0.792833,-0.20735 -1.043561,-1.40646 -0.643115,-3.0757 0.220257,-0.91814 0.228769,-1.5255 0.02875,-2.05159 -0.197163,-0.51857 -0.194588,-1.16486 0.0084,-2.11141 0.226993,-1.05843 0.190569,-2.12137 -0.162549,-4.74362 -0.362463,-2.69164 -0.394004,-3.71641 -0.15496,-5.03466 0.21451,-1.18295 0.216958,-2.23398 0.0086,-3.68412 -0.160352,-1.11595 -0.213101,-2.61176 -0.117218,-3.32405 0.160134,-1.18959 0.245739,-1.30845 1.051183,-1.45955 1.981259,-0.37169 6.067639,1.18973 8.731874,3.33648 1.678886,1.35279 5.39441,1.43232 11.8048,0.25268 2.157557,-0.39703 2.62859,-0.40048 4.662857,-0.0342 2.501382,0.45046 8.459437,1.78848 8.742289,1.9633 0.09893,0.0611 1.458667,-0.36882 3.021646,-0.95546 3.298741,-1.23813 6.025547,-2.06268 8.276297,-2.50265 1.160651,-0.22688 2.171621,-0.70693 3.715447,-1.76423 2.706326,-1.85344 4.536494,-2.76572 5.999788,-2.99071 1.235308,-0.18994 7.795826,0.4501 9.390691,0.91615 0.52354,0.15298 2.36332,0.46325 4.08842,0.68949 2.02258,0.26525 3.46561,0.6055 4.0631,0.95803 0.50961,0.30068 1.75554,0.67468 2.76873,0.83113 3.31038,0.51114 3.47276,0.64592 5.40788,4.48861 0.60343,1.19827 1.31314,2.31274 1.57714,2.47661 0.8112,0.50354 1.40718,-0.13917 1.76037,-1.89836 0.4536,-2.25939 2.1001,-4.54616 3.5466,-4.92576 1.04976,-0.27548 1.07108,-0.30641 1.11783,-1.62155 0.0289,-0.81319 0.22164,-1.51468 0.48986,-1.78286 0.71403,-0.71393 3.43874,-0.52347 6.18248,0.43217 l 2.33143,0.81204 1.64572,-0.51582 c 1.95913,-0.61405 3.44905,-0.48061 5.53805,0.496 0.78308,0.36609 2.31728,0.85357 3.40934,1.08329 1.48363,0.31209 2.57977,0.78999 4.33622,1.89053 2.28353,1.43078 5.78997,2.90251 6.91533,2.90251 0.30515,0 1.42797,-0.38323 2.49516,-0.85162 2.44852,-1.07466 8.10819,-2.23744 9.80875,-2.0152 2.71471,0.35476 7.6279,1.62566 9.05143,2.34134 0.96835,0.48684 2.80481,1.99675 5.12828,4.2164 2.85345,2.72595 3.87988,3.53627 4.84871,3.82784 0.67595,0.20344 1.60007,0.6341 2.0536,0.95705 1.44803,1.03109 2.8282,1.38037 4.25337,1.07641 0.86777,-0.18508 1.71204,-0.17724 2.65336,0.0246 1.1326,0.2429 1.56354,0.2175 2.3988,-0.14139 0.55999,-0.24062 2.19074,-0.5984 3.62388,-0.79506 2.86924,-0.39373 6.35481,-1.52143 9.32359,-3.01649 1.06131,-0.53446 3.10227,-1.39086 4.53547,-1.90311 1.4332,-0.51224 3.54861,-1.49242 4.70091,-2.17817 2.78035,-1.65464 4.50714,-2.01446 6.91917,-1.4418 0.99676,0.23664 2.49115,0.51269 3.32086,0.61344 2.18016,0.26472 2.89503,0.71131 3.33158,2.08128 0.45107,1.41557 1.49058,2.18008 3.60886,2.65413 0.87289,0.19534 2.50425,0.93274 3.80767,1.72111 5.79345,3.50418 9.53658,5.0596 14.20918,5.90448 3.47511,0.62835 3.76782,0.73055 4.70653,1.64322 1.22367,1.18972 1.52845,2.28153 1.74871,6.26435 0.0918,1.65943 0.34662,4.18972 0.56632,5.62286 0.28544,1.86199 0.32606,2.99588 0.14231,3.97268 -0.14143,0.75184 -0.20671,1.44857 -0.14507,1.54831 0.0616,0.0997 -0.0191,0.84232 -0.17952,1.65018 -0.34572,1.74146 -0.4233,2.19193 -0.64271,3.73208 -0.0914,0.64135 -0.35452,1.93735 -0.58478,2.88 -0.48839,1.99938 -0.71427,3.19524 -0.71227,3.77104 7.9e-4,0.22628 -0.11384,1.0066 -0.25474,1.73403 -0.28,1.44559 -3.42431,7.3151 -3.92195,7.32114 -0.16978,0.002 -0.55555,0.0554 -0.85726,0.11859 -0.30172,0.0632 -0.96581,-0.008 -1.47576,-0.158 z"
       id="path1" />
  </g>
</svg>
