<?xml version="1.0" encoding="UTF-8" standalone="no"?>
<!-- Created with Inkscape (http://www.inkscape.org/) -->

<svg
   version="1.1"
   id="svg1"
   width="294.58286"
   height="294.58286"
   viewBox="0 0 294.58286 294.58286"
   sodipodi:docname="terlingua-body-outline.svg"
   inkscape:version="1.4 (86a8ad7, 2024-10-11)"
   xmlns:inkscape="http://www.inkscape.org/namespaces/inkscape"
   xmlns:sodipodi="http://sodipodi.sourceforge.net/DTD/sodipodi-0.dtd"
   xmlns="http://www.w3.org/2000/svg"
   xmlns:svg="http://www.w3.org/2000/svg">
  <defs
     id="defs1" />
  <sodipodi:namedview
     id="namedview1"
     pagecolor="#ffffff"
     bordercolor="#000000"
     borderopacity="0.25"
     inkscape:showpageshadow="2"
     inkscape:pageopacity="0.0"
     inkscape:pagecheckerboard="0"
     inkscape:deskcolor="#d1d1d1"
     inkscape:zoom="2.766624"
     inkscape:cx="147.47215"
     inkscape:cy="147.29143"
     inkscape:window-width="1920"
     inkscape:window-height="1017"
     inkscape:window-x="-8"
     inkscape:window-y="-8"
     inkscape:window-maximized="1"
     inkscape:current-layer="g1" />
  <g
     inkscape:groupmode="layer"
     inkscape:label="Image"
     id="g1">
    <path
       style="fill:#000000"
       d="m 281.82857,266.42043 c -2.30892,-1.22793 -6.45276,-5.33278 -9.0888,-9.00329 -0.97507,-1.35771 -2.2619,-3.08571 -2.85963,-3.84 -0.59774,-0.75428 -1.33527,-1.87969 -1.63896,-2.50089 -0.30369,-0.62121 -0.81438,-1.36178 -1.13485,-1.64572 -0.32048,-0.28393 -1.11792,-1.6271 -1.7721,-2.98482 -0.65417,-1.35771 -1.30901,-2.65371 -1.45518,-2.88 -0.14618,-0.22628 -0.82407,-1.39885 -1.50642,-2.60571 -0.68235,-1.20686 -2.30334,-3.42857 -3.6022,-4.93714 -4.97766,-5.78138 -8.33058,-11.65831 -10.70655,-18.76628 -0.82794,-2.47688 -2.06736,-5.62431 -2.75426,-6.99429 -0.6869,-1.36997 -1.68066,-3.60172 -2.20837,-4.95943 -1.13067,-2.9091 -1.49705,-3.397 -2.41861,-3.22084 -1.36539,0.26102 -2.54172,-0.1957 -3.73859,-1.45151 -0.75672,-0.79399 -1.40176,-1.2248 -1.83387,-1.2248 -0.6406,0 -0.65953,0.053 -0.48603,1.36096 0.19296,1.45459 -0.21166,2.86471 -1.01258,3.52891 -0.24151,0.20029 -1.15548,0.53532 -2.03105,0.74452 -4.87622,1.16506 -7.04239,-0.30075 -10.35486,-7.00694 -1.25046,-2.53157 -3.23334,-5.48459 -3.68278,-5.48459 -0.12222,0 -0.43913,-0.40114 -0.70425,-0.89143 -0.67826,-1.25429 -3.67935,-2.5467 -6.46149,-2.78263 -1.13143,-0.0959 -3.41486,-0.40617 -5.07428,-0.68938 -3.08765,-0.52698 -7.79501,-1.10136 -8.77715,-1.07097 -0.99936,0.0309 -6.5413,-0.90477 -9.18857,-1.55138 -1.43314,-0.35006 -3.22597,-0.71174 -3.98405,-0.80375 -0.75809,-0.092 -3.07626,-0.59871 -5.15149,-1.12601 -2.07523,-0.52731 -4.05387,-0.95874 -4.39697,-0.95874 -0.34311,0 -1.35751,-0.23513 -2.25423,-0.52251 -0.89672,-0.28739 -2.74126,-0.85567 -4.09897,-1.26286 -1.35772,-0.40718 -3.20915,-1.08192 -4.11429,-1.49942 -0.90514,-0.41749 -4.05257,-1.53605 -6.99428,-2.48569 -2.94172,-0.94963 -5.71886,-1.87902 -6.17143,-2.0653 -0.45257,-0.18629 -2.61257,-0.86102 -4.8,-1.49941 -2.18743,-0.63839 -5.27315,-1.57148 -6.85715,-2.07355 -1.584,-0.50206 -4.04664,-1.11089 -5.47253,-1.35296 -1.4259,-0.24206 -2.66867,-0.48715 -2.7617,-0.54465 -0.3955,-0.24443 -8.50294,-1.43729 -14.80577,-2.1784 -6.22235,-0.73164 -15.679269,-0.95019 -48.348813,-1.11733 l -32.303105,-0.16526 -7.742609,-4.71785 -7.74261,-4.71785 -0.08964,-3.69848 c -0.0493,-2.03416 -0.0021,-18.13962 0.104833,-35.7899 l 0.194476,-32.091432 5.896247,-3.565714 c 3.242936,-1.961143 6.699181,-4.089145 7.680546,-4.728893 l 1.784298,-1.163179 39.940336,-0.0088 c 32.600324,-0.0072 40.797244,-0.08222 44.603194,-0.408341 2.56457,-0.219747 5.95245,-0.402071 7.52862,-0.405164 1.57617,-0.0031 3.8596,-0.12621 5.07429,-0.273593 2.41643,-0.293197 5.8936,-0.634082 12.63137,-1.238318 6.80946,-0.610664 10.31198,-0.997405 11.65715,-1.287158 2.68569,-0.578507 4.37685,-0.792716 7.26857,-0.92067 1.65943,-0.07343 4.80685,-0.323627 6.99428,-0.556 2.18743,-0.232373 4.84115,-0.482004 5.89715,-0.554735 1.97593,-0.136092 7.54268,-0.907699 11.65714,-1.615796 2.68843,-0.462677 11.26041,-1.096933 12.04657,-0.891347 1.08975,0.284978 9.14307,-0.945749 10.44486,-1.596209 1.04126,-0.520284 6.71057,-6.288894 8.56231,-8.712288 0.90077,-1.178841 2.17558,-3.277126 2.83292,-4.662857 1.55618,-3.280559 2.18253,-4.09084 4.46774,-5.779715 1.04386,-0.771458 3.14493,-2.544366 4.66904,-3.939794 3.30604,-3.026893 3.96367,-3.203 5.79215,-1.551076 0.99909,0.902615 1.12848,0.949041 1.52895,0.548571 0.51131,-0.511307 0.95462,-0.547184 1.83043,-0.148136 1.56397,0.71259 2.40212,3.293111 2.5151,7.743537 0.038,1.498076 0.21651,2.806324 0.43832,3.212818 0.39362,0.721364 1.34518,4.897625 1.36365,5.984866 0.006,0.349962 0.38031,1.173335 0.83191,1.829718 0.4516,0.656382 0.95529,1.851192 1.1193,2.655133 0.16401,0.803942 0.71221,2.44914 1.21822,3.655997 0.50601,1.206857 1.00601,2.564572 1.11111,3.017143 0.16537,0.7121 0.78448,2.073779 1.87064,4.114286 1.37405,2.581383 1.81392,3.607797 1.81392,4.232733 0,0.39977 0.60727,1.688554 1.3495,2.863963 1.3375,2.118112 2.14923,4.447461 1.83511,5.266047 -0.0897,0.233717 0.38827,2.052854 1.06212,4.042527 1.26287,3.728884 1.84073,6.712495 1.76311,9.103301 -0.0245,0.754286 0.094,2.112005 0.26337,3.017145 0.16935,0.90514 0.36685,2.70937 0.4389,4.0094 0.072,1.30003 0.24695,2.65775 0.38866,3.01715 0.14171,0.35939 1.14255,1.51745 2.22408,2.57345 1.08152,1.056 2.34564,2.47543 2.80915,3.15428 0.4635,0.67886 1.16792,1.56303 1.56536,1.96483 1.42291,1.43849 2.1204,5.46941 1.28707,7.43827 -0.48217,1.1392 -1.17491,1.736 -2.36929,2.04116 -0.92644,0.23671 -0.96289,0.29505 -1.0429,1.66908 -0.0456,0.78309 0.0204,1.42381 0.14657,1.42381 0.53674,0 1.17233,1.71788 1.33167,3.59928 0.0943,1.11297 0.38598,2.45557 0.64825,2.98357 0.26226,0.528 0.6894,1.6029 0.94919,2.38866 0.25979,0.78576 0.79101,1.89661 1.18048,2.46857 1.13846,1.67186 1.4496,2.68404 1.4496,4.71568 v 1.91053 l 1.34848,1.38443 c 1.57893,1.62103 1.79213,2.33375 1.41126,4.71787 -0.26241,1.64262 -0.22897,1.89628 0.48489,3.67785 1.00118,2.49868 1.04342,4.2576 0.20361,8.47757 -0.75523,3.79489 -1.13062,4.85727 -2.13888,6.05313 -0.38158,0.45257 -0.9801,1.44 -1.33006,2.19428 -0.34995,0.75429 -1.09057,2.12048 -1.64582,3.03599 -0.55525,0.91551 -1.14815,2.31085 -1.31756,3.10075 -0.1694,0.78991 -0.61643,1.89008 -0.99339,2.44483 -0.49899,0.73432 -0.68866,1.38295 -0.69743,2.38496 -0.007,0.75698 -0.19258,1.87005 -0.41324,2.47347 -0.77215,2.11151 -0.78304,3.91699 -0.038,6.30858 0.37594,1.20685 0.82691,3.05828 1.00215,4.11428 0.17524,1.056 0.57495,2.88286 0.88825,4.05969 0.42901,1.61146 0.52895,2.57547 0.4048,3.90492 -0.11807,1.26444 -0.054,1.98025 0.2259,2.52317 2.15497,4.18007 3.39284,7.05692 3.66026,8.50651 0.17394,0.94285 0.4515,2.48571 0.6168,3.42857 0.1653,0.94286 0.46619,2.16045 0.66865,2.70576 0.20245,0.54531 0.50365,2.82874 0.66932,5.07428 0.16567,2.24555 0.43265,4.57653 0.59328,5.17996 0.69638,2.61591 2.83266,7.80148 3.78537,9.18857 1.63903,2.3863 2.08526,3.54082 2.59732,6.72 0.48234,2.99457 1.17296,4.74863 3.2172,8.17111 2.05538,3.44113 2.70545,5.14312 2.70545,7.08328 0,1.17146 -0.40403,1.78441 -1.40657,2.1339 -1.13961,0.39727 -1.57978,0.37049 -2.57057,-0.15643 z m 2.58913,-1.3033 c 0.23689,-0.28544 0.24936,-0.67541 0.046,-1.44 -0.15334,-0.57671 -0.34143,-1.35986 -0.41796,-1.74033 -0.0765,-0.38048 -0.761,-1.71562 -1.52104,-2.96697 -0.76004,-1.25136 -1.38189,-2.34784 -1.38189,-2.43663 0,-0.0888 -0.2999,-0.55461 -0.66644,-1.03517 -0.3845,-0.5041 -0.89673,-1.84951 -1.21076,-3.18017 -0.29938,-1.26854 -0.79673,-3.38811 -1.10522,-4.71016 -0.44696,-1.91542 -0.81775,-2.76367 -1.82528,-4.17559 -1.08098,-1.51487 -1.99602,-3.5657 -3.8351,-8.59546 -0.10092,-0.276 -0.30679,-0.22654 -0.85631,0.20571 -0.9045,0.71148 -2.29287,0.73136 -3.14962,0.0451 -0.35977,-0.28818 -1.20956,-1.29277 -1.88842,-2.23244 -1.82402,-2.52478 -2.61972,-3.19714 -4.03481,-3.40934 -3.49878,-0.52468 -6.29998,-3.20764 -8.91341,-8.53719 -0.65805,-1.34196 -1.73204,-3.22708 -2.38664,-4.18916 -0.6546,-0.96207 -1.72364,-2.87538 -2.37565,-4.25179 -0.67233,-1.4193 -1.61507,-2.91795 -2.17794,-3.4622 l -0.99245,-0.95964 0.95903,1.94341 c 0.52747,1.06888 1.65885,4.03116 2.51418,6.58286 1.34952,4.02601 3.1875,8.17654 3.99181,9.0143 0.13759,0.14332 0.25017,0.41996 0.25017,0.61477 0,0.19481 0.40114,0.89848 0.89143,1.56372 0.49028,0.66523 1.34626,1.93144 1.90217,2.8138 0.55591,0.88236 2.03705,2.81675 3.29143,4.29865 3.26953,3.86257 4.56545,5.84049 6.41147,9.78564 1.19411,2.55191 1.53542,3.12014 2.47131,4.11428 0.49706,0.528 0.98143,1.27657 1.07638,1.66349 0.0949,0.38692 0.65077,1.31263 1.23515,2.05714 0.58439,0.74451 1.87382,2.47426 2.86541,3.84388 2.62565,3.62665 6.48897,7.50845 8.79239,8.83445 0.75585,0.43511 1.652,0.40921 2.04056,-0.059 z m -11.43484,-16.81129 c -0.54127,-0.19416 -0.39938,-0.62584 0.20571,-0.62584 0.30171,0 0.54857,0.11614 0.54857,0.2581 0,0.35109 -0.3394,0.51657 -0.75428,0.36774 z M 268.8,245.51506 c 0,-0.30275 0.71168,-0.59767 0.92573,-0.38362 0.0861,0.0861 0.0908,0.26271 0.0106,0.39253 -0.19256,0.31157 -0.93635,0.30449 -0.93635,-0.009 z m -0.37317,-2.41395 c -0.3089,-0.30889 -0.18813,-0.63254 0.23603,-0.63254 0.22628,0 0.41142,0.11614 0.41142,0.2581 0,0.34587 -0.42832,0.59358 -0.64745,0.37444 z m -3.05655,-1.01089 c -0.31193,-0.22809 -0.38633,-0.42693 -0.2023,-0.54067 0.34509,-0.21328 1.16345,0.0565 1.16345,0.38361 0,0.43834 -0.47118,0.51534 -0.96115,0.15706 z m -4.11314,-6.59271 c -0.45257,-0.36287 -0.73102,-0.75238 -0.61878,-0.86557 0.27843,-0.28079 2.12735,0.7439 2.12735,1.179 0,0.53838 -0.60225,0.41325 -1.50857,-0.31343 z m 0.0457,-1.16608 c -0.37292,-0.37292 -0.16308,-0.64 0.50285,-0.64 0.42667,0 0.68572,0.15543 0.68572,0.41143 0,0.4114 -0.84353,0.57361 -1.18857,0.22857 z m -5.5872,-6.83411 c -0.27104,-0.38962 -0.83638,-1.12035 -1.2563,-1.62384 -0.54153,-0.64931 -0.66809,-0.9744 -0.43535,-1.11824 0.31479,-0.19455 0.8585,0.33787 2.36456,2.31545 0.72273,0.94901 0.75855,1.13502 0.21852,1.13502 -0.21924,0 -0.62039,-0.31877 -0.89143,-0.70839 z m 15.55072,5.92391 c 0.19759,-0.36919 0.19335,-1.12046 -0.0139,-2.4559 -0.16418,-1.05819 -0.22458,-2.04362 -0.13421,-2.18984 0.34318,-0.55528 0.18483,-4.58748 -0.22206,-5.65439 -0.22797,-0.59775 -0.62101,-2.38282 -0.87343,-3.96682 -0.44393,-2.78573 -1.27564,-5.3316 -1.92654,-5.89714 -0.17363,-0.15086 -0.65043,-1.13828 -1.05957,-2.19428 -0.55482,-1.43206 -1.14917,-2.33824 -2.33866,-3.56572 -0.89805,-0.92672 -2.27721,-2.84004 -3.15677,-4.37942 -0.85909,-1.50354 -1.98418,-3.20104 -2.50021,-3.77222 -0.9716,-1.07545 -1.16229,-1.68893 -0.62768,-2.01934 0.2109,-0.13034 0.26401,-0.93762 0.16554,-2.51612 -0.14418,-2.31089 -0.67898,-3.61098 -1.75248,-4.26021 -0.19633,-0.11874 -0.73003,-0.75812 -1.186,-1.42085 -1.12867,-1.64047 -1.11022,-2.83399 0.0553,-3.5747 1.06816,-0.67886 4.15211,-6.63506 4.61556,-8.91428 0.16871,-0.82972 0.47698,-2.31086 0.68503,-3.29143 1.66714,-7.85723 1.96636,-12.36033 1.32133,-19.88575 -0.29852,-3.48281 -0.38516,-3.74011 -2.11203,-6.27201 -0.90934,-1.33325 -1.04414,-1.69468 -0.78616,-2.10777 0.17125,-0.27423 0.43321,-1.25513 0.58212,-2.17978 0.32427,-2.01354 1.54255,-4.14336 2.5798,-4.51006 0.61548,-0.21758 0.85169,-0.14205 1.50097,0.48 0.4238,0.40603 1.05131,0.73823 1.39447,0.73823 0.55912,0 0.60466,-0.0926 0.43841,-0.89143 -0.10203,-0.49029 -0.41976,-1.29852 -0.70606,-1.79608 -0.29985,-0.52111 -0.63191,-1.8848 -0.78323,-3.21652 -0.27118,-2.38656 -0.50225,-3.0764 -1.2338,-3.68354 -0.6195,-0.51414 -0.56953,-3.31376 0.0824,-4.61764 0.84727,-1.69454 1.75802,-5.54086 1.59673,-6.74336 -0.0802,-0.59832 -0.52511,-1.62584 -0.98859,-2.28338 -0.46347,-0.65753 -0.84268,-1.30479 -0.84268,-1.43833 0,-0.13355 -1.11704,-1.33465 -2.48232,-2.66912 l -2.48232,-2.42629 -0.10872,-3.28859 c -0.0688,-2.0804 -0.30242,-3.99396 -0.63597,-5.20858 -0.61176,-2.227743 -2.9136,-7.418924 -3.65649,-8.246249 -0.55696,-0.620254 -0.66373,-1.362558 -0.23418,-1.628036 1.0376,-0.641276 -0.52591,-5.062648 -2.67762,-7.571901 -1.67029,-1.947834 -1.6951,-1.994443 -2.41277,-4.533496 -1.23725,-4.37731 -2.41652,-6.495014 -4.26754,-7.663509 -0.60012,-0.378842 -1.15842,-0.899533 -1.24067,-1.157092 -0.0822,-0.257558 -0.49207,-1.270573 -0.91072,-2.251145 -0.8314,-1.947279 -1.54387,-4.56495 -2.04914,-7.528693 -0.26134,-1.532913 -0.25135,-2.284301 0.0511,-3.84 0.46731,-2.404017 0.33352,-5.17894 -0.31419,-6.516325 -0.34392,-0.710134 -0.86592,-1.197329 -1.73216,-1.61667 -1.58738,-0.768439 -2.63617,-2.394027 -3.26473,-5.060234 l -0.4755,-2.016967 -1.87275,1.700873 c -1.03002,0.935481 -3.07146,2.633592 -4.53655,3.773581 l -2.6638,2.072708 -1.7936,3.482818 c -0.98648,1.91555 -2.49746,4.377117 -3.35773,5.470149 -1.68437,2.140106 -7.67327,8.162148 -8.60144,8.649036 -1.63227,0.856234 -6.90578,1.55699 -13.97148,1.856565 -3.70374,0.157033 -7.46417,0.577633 -16.73153,1.871406 -3.58586,0.500606 -9.93286,1.129096 -16.93677,1.677109 -2.79685,0.218836 -5.68453,0.537415 -6.41706,0.707955 -1.89714,0.441666 -4.58005,0.761458 -9.14903,1.090524 -2.18742,0.157543 -4.77942,0.39395 -5.76,0.525349 -0.98057,0.1314 -3.32571,0.375097 -5.21142,0.541549 -1.88572,0.166452 -4.35429,0.424197 -5.48572,0.572766 -1.13143,0.14857 -3.53828,0.270823 -5.34857,0.271675 -1.81029,8.52e-4 -5.14286,0.182647 -7.40571,0.403989 -3.40031,0.332601 -11.00302,0.403416 -43.810397,0.408067 l -39.696108,0.0056 -7.27532,4.435796 -7.275321,4.435796 0,3.425906 c 0,3.341634 0.02032,3.457568 0.825991,4.7131 1.451294,2.261645 1.313594,2.211401 6.545743,2.38841 5.307523,0.179559 5.052178,0.260638 6.552916,-2.080746 0.866783,-1.352315 0.927944,-1.586115 0.762118,-2.913341 -0.13836,-1.1074 -0.0912,-1.477221 0.20277,-1.590028 1.029918,-0.395216 1.145695,0.268258 1.616767,9.265107 0.383068,7.316091 0.354376,9.098271 -0.20975,13.028571 -0.524844,3.65662 -0.584668,3.84 -1.252726,3.84 -0.520002,0 -0.543115,-0.12032 -0.382013,-1.98857 l 0.171477,-1.98857 -1.403217,-1.44147 -1.403216,-1.44147 -4.710573,-0.11926 -4.710573,-0.11926 -1.097142,1.54271 c -0.603429,0.84848 -1.245862,1.85938 -1.427629,2.24644 -0.392823,0.83648 -0.499688,15.93399 -0.115744,16.35174 0.131717,0.14331 0.762182,1.248 1.401033,2.45485 0.638852,1.20686 1.302512,2.28497 1.474801,2.3958 0.172289,0.11084 2.378173,0.20341 4.901964,0.20572 l 4.588711,0.004 0.589964,-1.16572 c 0.32448,-0.64114 0.814272,-1.48431 1.088427,-1.8737 0.325159,-0.46183 0.527273,-1.3201 0.581325,-2.46857 0.07296,-1.55011 0.148443,-1.76058 0.631433,-1.76058 0.532971,0 0.553933,0.2457 0.737112,8.64 0.214507,9.82995 0.04127,16.22556 -0.458001,16.90835 -0.593133,0.81116 -0.964825,0.14165 -0.964825,-1.73788 0,-1.34985 -0.144004,-2.03587 -0.573086,-2.73014 -0.983093,-1.59068 -1.763603,-1.77265 -7.776678,-1.81314 -2.612702,-0.0176 -3.856676,0.0721 -3.927046,0.28324 -0.05665,0.16994 -0.3983,0.71604 -0.759226,1.21356 -1.583166,2.18231 -1.775393,2.79275 -1.775393,5.63798 l 0,2.69811 7.305586,4.44549 7.305585,4.44548 34.317271,0.24943 c 18.8745,0.13719 36.04527,0.32331 38.15727,0.4136 9.3617,0.40022 24.45814,2.72321 31.40572,4.83262 1.88571,0.57253 4.97142,1.49369 6.85714,2.04701 5.31298,1.55899 15.54507,5.02507 17.82857,6.03937 2.26011,1.0039 8.12639,2.81668 10.28571,3.17845 0.75429,0.12637 3.09744,0.66469 5.207,1.19626 2.10955,0.53157 4.10638,0.96649 4.43739,0.96649 0.33101,0 2.18444,0.36038 4.11873,0.80084 3.40877,0.77621 5.28113,1.05419 11.33403,1.68269 1.584,0.16448 4.23771,0.53175 5.89714,0.81617 1.65943,0.28441 4.14969,0.6385 5.53392,0.78686 1.38423,0.14836 3.06046,0.51742 3.72496,0.82014 0.6645,0.30271 1.86396,0.80887 2.66547,1.1248 0.80152,0.31593 1.98154,0.88164 2.62228,1.25713 1.20436,0.70581 3.69337,3.75957 3.69337,4.5314 0,0.5951 0.72091,1.16779 2.18577,1.73637 1.49209,0.57916 4.52665,0.37524 6.07089,-0.40796 0.54345,-0.27563 1.78232,-0.63945 2.75305,-0.80849 1.58555,-0.27611 1.92466,-0.24761 3.33584,0.28038 1.31772,0.49302 1.86862,0.93221 3.41838,2.72519 1.01612,1.1756 2.42243,3.17241 3.12513,4.43735 0.7027,1.26494 2.03558,3.12704 2.96195,4.13802 1.10639,1.20742 2.10574,2.69758 2.91253,4.34296 0.67553,1.37766 1.73539,3.26531 2.35526,4.19478 0.61987,0.92947 1.72868,2.89011 2.46404,4.35697 1.28723,2.56774 3.11605,5.12242 4.60064,6.42666 0.75907,0.66686 2.7751,1.46542 3.70538,1.46772 0.92245,0.002 2.51401,1.14044 3.49451,2.49899 2.17671,3.01602 2.58188,3.50797 2.97092,3.60726 0.56644,0.14456 1.30254,-0.25501 1.64352,-0.89214 z m -5.86645,-30.95082 c -0.22717,-0.70501 -0.4913,-1.77555 -0.58693,-2.37898 -0.37243,-2.34987 -0.96931,-5.01291 -1.4963,-6.67587 -0.67467,-2.12902 -0.72499,-4.73502 -0.10956,-5.67429 0.24279,-0.37054 0.5445,-1.59276 0.67047,-2.71605 0.15921,-1.41965 0.43566,-2.36117 0.90673,-3.08807 0.37272,-0.57515 0.81695,-1.73916 0.98718,-2.5867 0.1882,-0.93703 0.74022,-2.20385 1.4085,-3.2323 0.60445,-0.93023 1.3248,-2.21165 1.60078,-2.8476 0.27598,-0.63594 0.88012,-1.62755 1.34254,-2.20356 0.99081,-1.2342 1.20709,-1.8506 1.99043,-5.67271 0.6928,-3.38028 0.60378,-5.22802 -0.38982,-8.09142 -0.55896,-1.61087 -0.6304,-2.1629 -0.44369,-3.42858 0.38706,-2.62378 0.36788,-2.68908 -1.24598,-4.23973 l -1.50857,-1.4495 v -2.31311 c 0,-2.09513 -0.077,-2.43449 -0.81681,-3.6011 -0.74392,-1.17304 -0.91186,-1.28798 -1.88173,-1.28798 -0.67568,0 -1.42423,-0.24384 -2.048,-0.66715 l -0.98309,-0.66715 -0.7009,1.19599 c -0.38549,0.6578 -0.7009,1.45878 -0.7009,1.77997 0,0.3212 -0.13971,1.13883 -0.31046,1.81696 -0.2962,1.17629 -0.27053,1.28858 0.55833,2.44274 0.47783,0.66537 1.05565,1.65699 1.28403,2.20359 1.03459,2.47612 1.40179,14.68798 0.55699,18.52342 -0.24647,1.11897 -0.82035,3.94763 -1.27529,6.28591 -0.64333,3.30658 -1.0836,4.80005 -1.98105,6.72 -1.61306,3.45088 -2.59157,5.11617 -3.40441,5.79383 -0.90888,0.75774 -0.72103,1.35039 1.04679,3.30248 0.7469,0.82475 1.48829,1.83091 1.64754,2.2359 0.15924,0.405 0.31837,2.00323 0.35361,3.55162 0.0546,2.4015 0.14671,2.9054 0.62638,3.42857 0.30928,0.33733 1.21417,1.78589 2.01089,3.21903 0.79672,1.43314 1.82872,3.01483 2.29333,3.51486 l 0.84475,0.90915 0.0836,-1.41017 c 0.046,-0.77559 -0.10224,-1.98699 -0.32942,-2.692 z m -3.12793,-2.57098 c -0.18103,-0.18103 -0.32914,-0.57045 -0.32914,-0.86537 0,-0.51885 0.0178,-0.52014 0.54857,-0.0398 0.54757,0.49555 0.74457,1.23429 0.32914,1.23429 -0.12069,0 -0.36754,-0.14811 -0.54857,-0.32914 z m -1.13824,-14.45657 c -0.3792,-0.70855 -0.36612,-1.1946 0.0286,-1.06302 0.42793,0.14264 0.81844,1.25575 0.50789,1.44768 -0.13665,0.0845 -0.37807,-0.0886 -0.5365,-0.38466 z M 264,181.02857 c -0.0932,-0.15086 -0.40909,-0.27429 -0.7019,-0.27429 -0.29281,0 -0.53239,-0.18514 -0.53239,-0.41142 0,-0.58326 1.18695,-0.52134 1.74095,0.0908 0.24999,0.27624 0.37198,0.58481 0.27108,0.68571 -0.26337,0.26337 -0.58182,0.22617 -0.77774,-0.0908 z m 0.68571,-9.71343 c 0,-0.23358 0.31432,-0.50358 0.69849,-0.6 1.30151,-0.32666 1.22682,0.443 -0.0813,0.83823 -0.45456,0.13733 -0.61715,0.0746 -0.61715,-0.23823 z m 4.40181,-2.3304 c -0.18536,-0.34636 -0.46741,-0.47491 -0.8325,-0.37944 -0.38521,0.10073 -0.55216,0.0103 -0.55216,-0.29903 0,-0.30279 0.24356,-0.44341 0.768,-0.44341 0.88208,0 1.42628,0.43955 1.42628,1.152 0,0.64827 -0.45562,0.63132 -0.80962,-0.0301 z m 1.08391,-2.73509 c 0,-0.81705 0.14014,-1.18535 0.53054,-1.39429 0.70065,-0.37498 0.84089,-0.35861 0.84089,0.0982 0,0.21015 -0.19404,0.45654 -0.4312,0.54755 -0.2787,0.10695 -0.39995,0.42411 -0.34285,0.89684 0.0496,0.41077 -0.062,0.78195 -0.25453,0.84674 -0.23682,0.0797 -0.34285,-0.22804 -0.34285,-0.99499 z m -0.54857,-9.79251 c 0,-0.23886 0.14657,-0.38543 0.32571,-0.32571 0.50859,0.16953 0.59294,0.76 0.10857,0.76 -0.23886,0 -0.43428,-0.19543 -0.43428,-0.43429 z m -2.46858,-0.53204 c 0,-0.67512 0.0168,-0.68106 0.68572,-0.24274 0.37714,0.24712 0.68571,0.55853 0.68571,0.69204 0,0.13351 -0.30857,0.24274 -0.68571,0.24274 -0.55024,0 -0.68572,-0.13672 -0.68572,-0.69204 z m -2.88206,-3.69988 c -0.28186,-0.45605 0.69735,-1.0751 1.71635,-1.08507 0.63027,-0.006 0.89143,0.11723 0.89143,0.42119 0,0.30175 -0.15981,0.37919 -0.53607,0.25977 -0.30131,-0.0956 -0.83071,0.0229 -1.20889,0.27071 -0.47534,0.31145 -0.72858,0.35061 -0.86282,0.1334 z m -0.68365,-6.69674 c 0,-0.70156 1.24438,-1.91366 1.68503,-1.64132 0.13702,0.0847 -0.0626,0.52447 -0.44366,0.9773 -0.38104,0.45284 -0.6928,0.9373 -0.6928,1.07658 0,0.13929 -0.12343,0.25324 -0.27428,0.25324 -0.15086,0 -0.27429,-0.29961 -0.27429,-0.6658 z m 2.64397,-0.62165 c -0.30889,-0.3089 -0.18813,-0.63255 0.23603,-0.63255 0.22629,0 0.41143,0.11615 0.41143,0.2581 0,0.34587 -0.42832,0.59358 -0.64746,0.37445 z m -35.01321,58.86259 c 1.96238,-0.42086 2.27803,-0.98806 2.03603,-3.65865 -0.10425,-1.15045 -0.30513,-2.16316 -0.44639,-2.25046 -0.14126,-0.0873 -0.79311,0.0461 -1.44854,0.29637 -0.69839,0.26672 -2.13732,0.47751 -3.47607,0.50922 -1.95647,0.0463 -2.48121,-0.0446 -3.65579,-0.63341 -1.10865,-0.55577 -1.52909,-0.98145 -2.19429,-2.22164 -0.8897,-1.65877 -2.3353,-3.62412 -2.52566,-3.43376 -0.0648,0.0648 0.31073,0.71612 0.83442,1.44747 0.5237,0.73135 1.44118,2.33277 2.03885,3.55871 1.89151,3.87985 3.28828,5.68422 5.00097,6.46031 0.63545,0.28795 2.29784,0.25581 3.83647,-0.0742 z m 9.21822,-3.30883 c 0.11565,-0.18713 -0.36335,-0.8498 -1.17154,-1.62076 -1.46483,-1.39734 -3.13502,-2.09256 -4.31545,-1.79629 -0.93299,0.23416 -0.94156,0.99074 -0.0112,0.99074 0.98237,0 2.03574,0.60718 3.04869,1.7573 0.88153,1.00089 2.04759,1.31937 2.44953,0.66901 z M 21.652444,145.95161 c 0.288533,-0.56557 0.725773,-1.19526 0.971646,-1.39932 0.386117,-0.32045 0.425614,-0.84127 0.289818,-3.82165 -0.227094,-4.98417 -0.39637,-6.00986 -1.282437,-7.77064 -0.436509,-0.86743 -0.853591,-1.57714 -0.926848,-1.57714 -0.07326,0 -0.133195,3.58671 -0.133195,7.97047 0,5.31866 0.09256,7.91327 0.278206,7.79853 0.153013,-0.0946 0.514277,-0.63468 0.80281,-1.20025 z m 13.801002,-7.97688 -0.207732,-5.33956 -0.762529,1.47219 -0.762529,1.47219 0.304747,4.67367 c 0.26936,4.13097 0.37383,4.75739 0.899672,5.3946 l 0.594925,0.72092 0.07059,-1.52723 c 0.03882,-0.83997 -0.02289,-3.93003 -0.137143,-6.86678 z m -2.099274,4.17384 c -0.09566,-1.47086 -0.246609,-3.63086 -0.335451,-4.8 l -0.161531,-2.12571 -4.15431,-0.004 c -2.28487,-0.002 -4.445918,-0.0818 -4.80233,-0.17721 -0.617687,-0.16534 -0.640439,-0.12344 -0.486059,0.89518 0.08908,0.58775 0.195545,2.78056 0.236592,4.87292 l 0.07463,3.80429 1.645714,-0.13634 c 0.905143,-0.075 2.633143,-0.0467 3.84,0.0629 1.206858,0.10958 2.671821,0.21785 3.255475,0.24062 l 1.06119,0.0414 z M 265.91288,124.53358 c 0.26913,-0.29739 0.58673,-1.06881 0.70579,-1.71428 0.2157,-1.16948 0.0728,-2.68357 -0.25296,-2.68059 -0.0943,8.6e-4 -0.39665,0.94052 -0.67193,2.08813 -0.27527,1.14761 -0.56619,2.25776 -0.64648,2.467 -0.21443,0.55878 0.30127,0.4633 0.86558,-0.16026 z M 21.409766,109.37143 c 0.283162,-0.33943 0.518947,-0.74816 0.523966,-0.90828 0.005,-0.16013 0.271699,-0.57298 0.592622,-0.91745 0.54829,-0.58852 0.581098,-0.88924 0.543729,-4.98374 -0.02187,-2.39659 -0.157636,-4.637454 -0.301697,-4.979698 -0.144061,-0.342245 -0.635596,-1.0496 -1.0923,-1.571902 l -0.830372,-0.949639 -0.0014,4.789639 c -7.8e-4,2.6343 -0.08111,5.99307 -0.178511,7.46393 -0.0974,1.47085 -0.08569,2.67428 0.02602,2.67428 0.111714,0 0.434795,-0.27771 0.717958,-0.61714 z m 14.931151,-1.55523 c 0.105764,-1.1948 0.103733,-2.5756 -0.0045,-3.06844 -0.108246,-0.49284 -0.274505,-2.86986 -0.369464,-5.28227 l -0.172654,-4.386192 -0.772643,1.01469 c -0.771086,1.012644 -0.772773,1.024217 -0.836678,5.740352 -0.03522,2.59911 -0.156962,4.97347 -0.270542,5.27636 -0.155481,0.41462 0.0396,0.83821 0.789479,1.71428 0.547794,0.63998 1.096952,1.16359 1.220353,1.16359 0.1234,0 0.310899,-0.97756 0.416663,-2.17237 z m -3.19194,-1.0478 c 0.388098,-0.96806 0.53376,-8.471251 0.170954,-8.805964 -0.147676,-0.136242 -2.366788,-0.324643 -4.93136,-0.41867 l -4.662857,-0.170959 0.05575,5.005023 c 0.03066,2.75277 0.06152,5.02122 0.06857,5.041 0.007,0.0198 2.033915,0.0519 4.504144,0.0713 l 4.491324,0.0353 z M 256.98552,95.314285 c -0.35277,-2.509685 -0.90096,-3.859243 -1.52137,-3.745352 -0.28357,0.05206 -0.56458,0.142196 -0.62446,0.200312 -0.0599,0.05812 0.27954,0.894671 0.75428,1.859012 0.47474,0.96434 0.86317,1.822736 0.86317,1.907545 0,0.319068 0.56803,1.632948 0.66181,1.530809 0.0538,-0.05864 -0.006,-0.847183 -0.13343,-1.752326 z m -1.65363,-5.859887 c -0.39882,-1.144032 -0.61036,-0.932492 -0.36664,0.366633 0.1102,0.587392 0.29089,0.906831 0.43272,0.764999 0.14183,-0.141832 0.11424,-0.614366 -0.0661,-1.131632 z m -1.28714,-4.401046 c -0.24296,-0.54163 -0.8351,-1.416781 -1.31588,-1.944781 -0.48078,-0.528 -1.06025,-1.330577 -1.28771,-1.783505 -0.22746,-0.452927 -0.69399,-1.07007 -1.03673,-1.371428 -0.57077,-0.50186 -0.60772,-0.505684 -0.43951,-0.04549 0.10101,0.276338 0.18365,0.647499 0.18365,0.824802 0,0.177303 0.56147,1.000351 1.24771,1.828996 0.68624,0.828644 1.57781,2.086431 1.98128,2.795081 0.83442,1.465576 1.35462,1.228805 0.66719,-0.303674 z m -0.67121,-2.83621 c -1.50607,-2.301593 -2.12783,-3.515864 -2.12783,-4.155548 0,-0.72918 -0.84399,-2.666105 -1.50585,-3.45588 -0.18964,-0.226286 -0.49283,-0.872567 -0.67377,-1.43618 -0.50612,-1.576577 -0.77786,-1.45579 -0.51375,0.228367 0.13058,0.832733 0.17435,1.616119 0.0973,1.740858 -0.11572,0.187242 0.31177,1.857214 0.55299,2.160245 0.0383,0.04817 0.32298,-0.07059 0.63252,-0.263902 0.30954,-0.193314 0.64772,-0.266563 0.75151,-0.162776 0.25411,0.254114 -0.40998,1.024816 -0.88305,1.024816 -0.66986,0 -0.40341,0.479306 0.59341,1.067444 0.5342,0.315183 1.1822,0.960072 1.44,1.433088 0.52185,0.957467 1.67287,2.436611 1.8961,2.436611 0.0794,0 -0.0374,-0.277714 -0.25953,-0.617143 z m -5.73786,-9.6 c -0.2952,-1.322053 -2.11,-4.827347 -3.12186,-6.029871 -0.62243,-0.739719 -0.67382,-0.755974 -0.67382,-0.213141 0,0.323206 -0.13127,0.832932 -0.29172,1.132725 -0.38784,0.724683 0.5841,2.779792 1.51534,3.204092 0.36682,0.167136 1.13192,0.926689 1.70021,1.687897 0.5683,0.761207 1.05551,1.384013 1.0827,1.384013 0.0272,0 -0.0677,-0.524572 -0.21085,-1.165715 z m -0.7877,-4.985316 c -0.47546,-1.142101 -0.97648,-2.14577 -1.11337,-2.230375 -0.13689,-0.0846 -0.2489,-0.585826 -0.2489,-1.113826 0,-0.570155 -0.11138,-0.891161 -0.27428,-0.790483 -0.15086,0.09323 -0.27429,0.409091 -0.27429,0.701902 0,0.297311 -0.18715,0.532384 -0.42386,0.532384 -0.33895,0 -0.38777,-0.206029 -0.24373,-1.028571 0.0991,-0.565715 0.34314,-1.159478 0.54238,-1.319474 0.29144,-0.234048 0.19959,-0.540949 -0.46998,-1.570284 -0.63496,-0.976118 -0.94639,-1.950002 -1.31382,-4.108556 -0.26488,-1.556047 -0.67934,-3.194562 -0.92102,-3.641145 l -0.43943,-0.81197 -0.011,1.297767 c -0.006,0.713771 -0.15827,2.1567 -0.33829,3.206507 l -0.32731,1.908741 1.00006,2.004921 c 0.55003,1.102707 1.08382,2.307532 1.18621,2.67739 0.10238,0.369858 0.798,1.407671 1.5458,2.306252 0.74781,0.898581 1.68608,2.299358 2.08505,3.112838 1.03671,2.113821 1.0643,1.327032 0.0398,-1.134018 z m -4.8047,-8.480829 c -0.23024,-0.91736 -0.037,-2.785283 0.28815,-2.785283 0.15085,0 0.31103,0.771428 0.35594,1.714286 0.0816,1.713051 -0.31671,2.375371 -0.64409,1.070997 z m 0.91185,5.684279 c -0.12149,-0.16917 -0.4073,-0.935296 -0.63514,-1.702503 -0.48643,-1.637982 -1.10844,-2.269661 -0.82287,-0.835659 0.1014,0.509158 0.45402,1.851457 0.78362,2.982886 L 242.88,67.337142 243.02801,66.24 c 0.0814,-0.603429 0.0486,-1.235555 -0.0729,-1.404724 z m -1.55426,-17.654517 c -0.15474,-1.385938 -0.50238,-2.972013 -0.77253,-3.524609 -0.57414,-1.174379 -1.3643,-1.474272 -1.49859,-0.568767 -0.0494,0.33284 -0.3042,0.739586 -0.5663,0.903879 -0.39816,0.249583 -0.6781,0.07374 -1.70199,-1.069131 -1.39579,-1.557979 -1.5196,-1.335058 -0.70955,1.277548 0.71864,2.317792 1.12877,2.837774 2.93637,3.722873 0.84015,0.41138 1.71427,1.03295 1.9425,1.381266 0.22823,0.348316 0.46816,0.580095 0.53319,0.515066 0.065,-0.06503 -0.008,-1.252186 -0.1631,-2.638125 z"
       id="path1" />
  </g>
</svg>
