<?xml version="1.0" encoding="UTF-8" standalone="no"?>
<!-- Created with Inkscape (http://www.inkscape.org/) -->

<svg
   version="1.1"
   id="svg1"
   width="294.58286"
   height="294.58286"
   viewBox="0 0 294.58286 294.58286"
   sodipodi:docname="terlingua-medium-7-v.svg"
   inkscape:version="1.4 (86a8ad7, 2024-10-11)"
   xmlns:inkscape="http://www.inkscape.org/namespaces/inkscape"
   xmlns:sodipodi="http://sodipodi.sourceforge.net/DTD/sodipodi-0.dtd"
   xmlns:xlink="http://www.w3.org/1999/xlink"
   xmlns="http://www.w3.org/2000/svg"
   xmlns:svg="http://www.w3.org/2000/svg">
  <defs
     id="defs1">
    <linearGradient
       id="linearGradient1"
       inkscape:collect="always">
      <stop
         style="stop-color:#000000;stop-opacity:0;"
         offset="0.1790393"
         id="stop2" />
      <stop
         style="stop-color:#000000;stop-opacity:1;"
         offset="0.63537121"
         id="stop1" />
    </linearGradient>
    <linearGradient
       inkscape:collect="always"
       xlink:href="#linearGradient1"
       id="linearGradient2"
       x1="35.847182"
       y1="155.40896"
       x2="263.7827"
       y2="155.40896"
       gradientUnits="userSpaceOnUse" />
  </defs>
  <sodipodi:namedview
     id="namedview1"
     pagecolor="#ffffff"
     bordercolor="#000000"
     borderopacity="0.25"
     inkscape:showpageshadow="2"
     inkscape:pageopacity="0.0"
     inkscape:pagecheckerboard="0"
     inkscape:deskcolor="#d1d1d1"
     inkscape:zoom="2.766624"
     inkscape:cx="147.47215"
     inkscape:cy="147.29143"
     inkscape:window-width="1920"
     inkscape:window-height="1017"
     inkscape:window-x="-8"
     inkscape:window-y="-8"
     inkscape:window-maximized="1"
     inkscape:current-layer="g1" />
  <g
     inkscape:groupmode="layer"
     inkscape:label="Image"
     id="g1">
    <path
       style="fill:url(#linearGradient2)"
       d="m 255.22286,184.43012 c -3.10884,-1.64912 -5.31155,-3.40412 -10.10364,-8.05004 -2.77464,-2.69001 -5.33379,-4.98264 -5.68699,-5.09475 -0.35321,-0.1121 -1.32652,-0.66854 -2.16293,-1.23652 -1.83015,-1.24283 -3.09806,-1.78841 -5.39311,-2.32067 -0.95102,-0.22055 -2.2585,-0.6475 -2.90552,-0.94877 -2.29771,-1.06989 -3.4829,-1.38098 -4.20921,-1.10484 -0.51425,0.19552 -1.27784,0.0898 -3.04048,-0.42101 -1.29458,-0.37515 -2.47163,-0.68209 -2.61568,-0.68209 -0.14405,0 -0.65481,-0.29896 -1.13503,-0.66436 -1.38743,-1.05569 -2.10506,-1.10947 -4.10871,-0.30788 -0.98536,0.39421 -2.62624,0.89138 -3.64639,1.10482 -1.61152,0.33717 -2.1058,0.33529 -3.76806,-0.0144 -2.21581,-0.46611 -2.56309,-0.62885 -5.08598,-2.38336 l -1.87675,-1.30516 -1.61648,0.71937 c -2.33899,1.0409 -5.27448,1.06455 -6.84898,0.0552 -1.01357,-0.64977 -1.2446,-0.69287 -2.46857,-0.46057 -1.53392,0.29112 -2.93277,0.1211 -4.91607,-0.59751 -0.75428,-0.27331 -2.48228,-0.58237 -3.84,-0.6868 -2.62642,-0.20203 -3.61838,-0.55482 -4.93714,-1.7559 -0.52959,-0.48234 -1.40938,-0.87399 -2.46857,-1.09891 -0.90514,-0.19221 -2.07771,-0.56692 -2.60571,-0.8327 -1.36397,-0.68658 -2.93411,-0.88399 -4.5552,-0.57272 -1.82605,0.35064 -3.88824,-0.175 -5.19791,-1.32491 -1.25813,-1.10465 -3.25939,-2.10226 -4.69881,-2.34231 -0.63199,-0.10539 -2.08227,-0.0502 -3.22286,0.12273 -2.38542,0.36159 -5.47775,0.0194 -7.33351,-0.81141 -0.79924,-0.35783 -1.3499,-0.43537 -1.97047,-0.27747 -1.65979,0.42234 -4.71513,0.55599 -6.20982,0.27164 -0.83574,-0.15899 -2.22159,-0.72644 -3.10725,-1.27229 l -1.59868,-0.98529 -1.69275,0.48087 c -0.93101,0.26449 -2.55817,0.49095 -3.61592,0.50326 -1.82216,0.0212 -2.04546,-0.0484 -4.25143,-1.32454 -3.09141,-1.7884 -5.71575,-2.44814 -7.67865,-1.93034 -0.76424,0.20161 -1.97134,0.73361 -2.68243,1.18224 -1.70329,1.07462 -2.31302,1.23362 -3.48727,0.9094 -0.82744,-0.22847 -1.26399,-0.1531 -2.82085,0.48704 -1.01305,0.41653 -2.21316,0.8307 -2.66692,0.92037 -1.23713,0.24449 -3.917537,-0.41899 -5.641287,-1.39639 -0.841036,-0.47688 -1.828464,-0.88768 -2.194286,-0.91289 -0.365821,-0.0252 -1.899415,0.36371 -3.407986,0.86426 -2.307128,0.76551 -3.069654,0.89738 -4.8,0.83008 -5.010004,-0.19487 -5.844894,-0.11119 -7.453251,0.74708 -1.912658,1.02065 -6.016941,1.86622 -7.368992,1.51818 -1.33343,-0.34326 -1.804592,-1.36983 -1.359055,-2.96113 0.354356,-1.26564 0.223252,-1.77729 -0.455405,-1.77729 -0.231809,0 -0.783496,-0.25779 -1.225971,-0.57286 -1.174669,-0.83644 -2.496849,-1.13934 -3.433053,-0.7865 -0.43135,0.16257 -1.341603,0.87777 -2.022785,1.58933 -1.524762,1.59275 -5.551906,3.73406 -7.990295,4.24858 -0.958442,0.20223 -2.174621,0.59348 -2.702621,0.86944 -1.302757,0.68087 -7.424044,0.70733 -10.420935,0.0451 -1.130371,-0.2498 -3.000525,-0.53302 -4.155899,-0.62937 l -2.100679,-0.17519 -0.174908,-1.40281 c -0.0962,-0.77155 -0.04675,-2.53273 0.109893,-3.91374 0.192138,-1.69396 0.196514,-3.38956 0.01345,-5.21143 -0.279815,-2.78473 -0.400643,-6.27973 -0.34939,-10.10622 0.01617,-1.20685 0.01751,-2.59436 0.003,-3.08333 -0.01453,-0.48898 0.06282,-0.97829 0.171884,-1.08735 0.354643,-0.35464 3.007007,-0.19174 4.942708,0.30358 1.68438,0.431 2.301797,0.44987 5.662011,0.17303 2.735114,-0.22535 4.699078,-0.23019 7.147157,-0.0176 3.683145,0.31981 5.236172,0.84566 7.615645,2.57862 0.700273,0.51 2.034625,1.20246 2.965225,1.5388 1.436989,0.51936 1.835048,0.56432 2.641119,0.29829 0.522016,-0.17228 1.168317,-0.55545 1.436225,-0.85148 0.267908,-0.29604 0.707548,-0.53825 0.976979,-0.53825 0.697617,0 0.796823,-0.29507 0.512292,-1.52371 -0.137815,-0.5951 -0.182548,-1.46006 -0.09941,-1.92214 0.128111,-0.712 0.327512,-0.88729 1.307446,-1.14938 0.785324,-0.21005 1.529307,-0.22545 2.319013,-0.048 1.553581,0.34906 6.096248,1.72738 8.140045,2.46982 1.751449,0.63623 4.891846,0.79801 10.1873,0.52478 l 2.507299,-0.12937 1.469844,1.00717 c 0.808413,0.55394 2.121602,1.26224 2.918196,1.574 1.223154,0.47871 1.643322,0.52315 2.702292,0.28583 2.00833,-0.45007 4.4496,-1.91777 6.05689,-3.64142 0.485,-0.52011 1.21284,-1.00894 1.61743,-1.08628 0.89751,-0.17157 4.80583,0.517 6.1868,1.08999 1.42668,0.59197 5.729,1.76799 6.49334,1.77493 0.35324,0.003 1.46633,-0.56235 2.47353,-1.2568 2.56465,-1.76829 3.27861,-1.92728 5.79851,-1.29127 1.13143,0.28556 2.85943,0.60095 3.84,0.70085 0.98057,0.0999 2.18271,0.32283 2.67142,0.49539 0.80156,0.28303 0.96269,0.24478 1.64571,-0.3907 1.36302,-1.26813 2.97459,-1.2163 4.98471,0.16032 0.66146,0.453 1.64898,0.76416 3.01353,0.94955 1.81845,0.24704 2.14669,0.38835 3.15429,1.35793 0.61854,0.59521 1.57905,1.2267 2.13447,1.40331 0.55541,0.17661 1.47934,0.69422 2.05317,1.15024 1.26267,1.00344 1.79382,0.94758 4.75413,-0.49994 1.30559,-0.6384 2.38281,-0.9841 2.94857,-0.94625 1.13582,0.076 2.07886,0.0742 4.41477,-0.008 1.52863,-0.054 2.17866,0.0678 3.49715,0.65533 1.11803,0.4982 2.34142,0.77918 3.95093,0.90741 3.36496,0.2681 4.67327,0.60424 5.77355,1.48339 0.53544,0.42784 1.6114,1.05229 2.39101,1.38766 0.80673,0.34705 1.49046,0.83978 1.58689,1.1436 0.23861,0.7518 2.06653,2.00777 3.51047,2.41205 1.12986,0.31634 1.30743,0.29146 2.41313,-0.33806 1.93281,-1.10043 3.45844,-1.35494 5.27917,-0.8807 0.85467,0.22261 2.01304,0.63549 2.57415,0.91751 1.9668,0.98852 2.95121,1.19068 4.18295,0.859 0.76912,-0.2071 1.39104,-0.22027 1.90708,-0.0404 0.58374,0.2035 1.31099,0.11655 3.0594,-0.36577 1.6621,-0.4585 3.42647,-0.68452 6.40792,-0.82086 l 4.11428,-0.18815 2.05715,-1.11384 c 1.13143,-0.61262 2.67863,-1.57368 3.43823,-2.13569 0.7596,-0.56202 2.11732,-1.43741 3.01714,-1.94532 1.63084,-0.92053 1.64743,-0.92342 5.20177,-0.90721 4.30652,0.0196 4.95259,0.27005 6.084,2.35805 0.76223,1.40669 0.80114,1.43365 2.75591,1.90996 2.34746,0.57198 2.31993,0.55811 6.3699,3.20947 3.83163,2.50842 7.54858,3.90679 11.7071,4.40438 1.48827,0.17808 2.9878,0.46505 3.3323,0.6377 0.34449,0.17266 0.97271,0.93885 1.39604,1.70264 0.68021,1.22726 0.82246,1.93089 1.22348,6.05158 0.77499,7.96353 1.02396,11.13119 0.89168,11.34522 -0.0701,0.11338 -0.19545,0.77299 -0.27862,1.46581 -0.0832,0.69281 -0.35451,2.10518 -0.60298,3.1386 -0.24848,1.03342 -0.4392,2.1258 -0.42382,2.42752 0.0154,0.30171 -0.10943,1.04228 -0.27735,1.64571 -0.16793,0.60343 -0.35017,1.46743 -0.40498,1.92 -0.22773,1.88033 -1.00176,4.21269 -2.30784,6.95413 -0.76267,1.60082 -1.40965,2.93355 -1.43773,2.96164 -0.0281,0.0281 -0.35939,0.12614 -0.73622,0.21788 -0.46264,0.11264 -1.13056,-0.0695 -2.05658,-0.56067 z"
       id="path1" />
  </g>
</svg>
