<?xml version="1.0" encoding="UTF-8" standalone="no"?>
<!-- Created with Inkscape (http://www.inkscape.org/) -->

<svg
   version="1.1"
   id="svg1"
   width="294.58286"
   height="294.58286"
   viewBox="0 0 294.58286 294.58286"
   sodipodi:docname="terlingua-large-7-v-outline.svg"
   inkscape:version="1.4 (86a8ad7, 2024-10-11)"
   xmlns:inkscape="http://www.inkscape.org/namespaces/inkscape"
   xmlns:sodipodi="http://sodipodi.sourceforge.net/DTD/sodipodi-0.dtd"
   xmlns="http://www.w3.org/2000/svg"
   xmlns:svg="http://www.w3.org/2000/svg">
  <defs
     id="defs1" />
  <sodipodi:namedview
     id="namedview1"
     pagecolor="#ffffff"
     bordercolor="#000000"
     borderopacity="0.25"
     inkscape:showpageshadow="2"
     inkscape:pageopacity="0.0"
     inkscape:pagecheckerboard="0"
     inkscape:deskcolor="#d1d1d1"
     inkscape:zoom="2.766624"
     inkscape:cx="147.47215"
     inkscape:cy="147.29143"
     inkscape:window-width="1920"
     inkscape:window-height="1017"
     inkscape:window-x="-8"
     inkscape:window-y="-8"
     inkscape:window-maximized="1"
     inkscape:current-layer="g1" />
  <g
     inkscape:groupmode="layer"
     inkscape:label="Image"
     id="g1">
    <path
       style="fill:#000000"
       d="m 254.33845,184.6594 c -2.71957,-1.55791 -8.48201,-6.35126 -12.96389,-10.78369 -2.0991,-2.07595 -3.47788,-3.06943 -6.17456,-4.44909 -4.61429,-2.36074 -6.26941,-2.67223 -8.64,-1.62605 -1.23366,0.54443 -1.7335,0.62789 -2.74286,0.45795 -2.12236,-0.35733 -4.38783,-0.18622 -8.50286,0.64223 -3.58317,0.72137 -4.26243,0.7797 -6.85714,0.58876 -6.85074,-0.50411 -7.8399,-0.73942 -10.62312,-2.52712 -0.63814,-0.40989 -1.22719,-0.74525 -1.30898,-0.74525 -0.0818,0 -0.6827,0.4922 -1.33534,1.09378 -1.5141,1.39566 -2.79278,1.92201 -5.14908,2.11955 -2.97704,0.24958 -6.11122,-0.70855 -8.13701,-2.48751 -0.5567,-0.48887 -1.56761,-1.12312 -2.24647,-1.40944 -2.08183,-0.87804 -4.97705,-2.86715 -6.27581,-4.31169 -1.40003,-1.55716 -3.81368,-3.42242 -4.91573,-3.79884 -0.40694,-0.139 -2.24325,-0.36262 -4.0807,-0.49695 -3.61845,-0.26452 -4.03861,-0.43071 -6.16284,-2.43761 -0.8623,-0.81467 -1.29256,-0.98755 -3.10912,-1.24925 -1.84513,-0.26582 -2.26804,-0.24222 -3.38777,0.18902 -3.72511,1.43467 -2.85165,1.34005 -10.46803,1.13396 -2.64,-0.0714 -5.08196,-0.17113 -5.42658,-0.22154 -0.34462,-0.0504 -1.14855,-0.52797 -1.78651,-1.06124 -1.7424,-1.45647 -2.58654,-1.79641 -4.99262,-2.01057 -1.74219,-0.15507 -2.45655,-0.36081 -3.4672,-0.99858 -1.63858,-1.03403 -3.36297,-1.22876 -5.9797,-0.67527 -1.19343,0.25244 -2.61739,0.36926 -3.42857,0.28129 -1.2946,-0.1404 -1.53977,-0.0597 -3.66593,1.20732 -1.98856,1.18498 -2.53729,1.38202 -4.31163,1.54829 -1.11819,0.10478 -2.68003,0.36118 -3.47074,0.56976 -2.09004,0.55135 -4.879484,-0.0606 -7.654625,-1.67916 -1.144687,-0.66764 -2.317258,-1.21231 -2.605714,-1.21039 -0.288455,0.002 -1.450384,0.29927 -2.582063,0.66077 -1.907515,0.60932 -2.417688,0.65147 -6.994286,0.57786 -3.592094,-0.0578 -5.646399,0.0408 -7.542401,0.36206 -3.187319,0.54001 -5.606895,0.57925 -6.087062,0.0987 -0.194679,-0.19483 -0.416731,-1.04967 -0.49345,-1.89965 -0.13919,-1.54212 -0.143578,-1.54853 -2.056978,-3.00577 -2.321179,-1.76781 -3.030971,-1.85133 -4.220396,-0.49665 -0.465378,0.53003 -1.031245,1.32165 -1.257482,1.75914 -0.649694,1.25637 -4.163368,3.23692 -6.681444,3.76612 -1.158325,0.24343 -2.742985,0.7435 -3.521467,1.11127 -1.228472,0.58034 -1.790002,0.66598 -4.251428,0.64835 -3.263692,-0.0234 -5.353793,-0.31794 -7.037277,-0.99178 -0.929567,-0.37207 -1.548701,-0.42938 -2.88,-0.26657 -3.12079,0.38164 -2.994704,0.41711 -3.397288,-0.95595 -0.27675,-0.94389 -0.296812,-1.71828 -0.08527,-3.29143 0.508058,-3.77823 0.465534,-8.75178 -0.151381,-17.70511 -0.155356,-2.25469 -0.110344,-2.91045 0.247242,-3.60194 0.684633,-1.32393 2.279511,-1.4502 5.508509,-0.43612 1.082655,0.34002 1.922336,0.3793 4.251428,0.19889 3.460793,-0.26807 3.83867,-0.2641 8.250888,0.0865 1.885714,0.14986 3.798857,0.41848 4.251428,0.59694 1.06232,0.41892 3.257784,1.80124 4.700987,2.95988 1.246953,1.00108 3.601173,1.6569 4.835626,1.34707 0.406472,-0.10201 1.171604,-0.56528 1.700291,-1.02947 0.779534,-0.68444 0.910114,-0.93954 0.690745,-1.34944 -0.452171,-0.84489 -0.309078,-2.33849 0.297973,-3.11023 0.527518,-0.67063 0.72297,-0.7227 2.712558,-0.7227 1.179243,0 3.114284,0.1747 4.300092,0.38822 5.432732,0.97825 6.575654,1.08105 8.504998,0.76498 1.174573,-0.19243 2.291115,-0.21844 2.97673,-0.0694 0.603429,0.13122 2.215506,0.32257 3.582394,0.42523 2.148963,0.16141 3.039713,0.0749 6.582857,-0.63947 2.253687,-0.45438 4.591317,-0.90266 5.194747,-0.99618 0.60343,-0.0935 2.05379,-0.55782 3.22302,-1.03177 l 2.12587,-0.86173 1.46395,0.46146 c 0.80517,0.25381 1.68442,0.46147 1.95389,0.46147 0.26947,0 1.43119,0.42011 2.58161,0.93357 1.15041,0.51347 2.64709,1.01462 3.32595,1.11367 0.67885,0.099 1.85805,0.36708 2.62044,0.59561 1.33286,0.39954 1.4639,0.38836 3.40782,-0.29081 2.34151,-0.81807 3.77385,-0.88453 5.60637,-0.26013 1.21338,0.41344 1.46361,0.41246 3.40886,-0.0134 1.15465,-0.25277 2.71651,-0.71901 3.47079,-1.0361 2.13666,-0.89819 3.39801,-0.93184 4.975,-0.13272 0.74283,0.37642 1.90933,0.76819 2.59221,0.87059 0.68288,0.10241 1.85162,0.54124 2.5972,0.97518 3.51671,2.04681 8.09887,3.88524 9.7678,3.919 0.65048,0.0132 1.882,-0.39571 3.48169,-1.15592 2.14972,-1.0216 2.82891,-1.20696 5.16494,-1.40962 1.47935,-0.12834 3.49416,-0.13344 4.47735,-0.0113 2.20006,0.27321 5.43457,1.59303 7.26615,2.9649 0.75558,0.56593 1.89661,1.3847 2.53563,1.8195 0.63902,0.43479 1.66001,1.36051 2.26886,2.05714 2.3605,2.70081 2.74615,3.03099 3.89796,3.3373 0.64323,0.17105 1.84836,0.65856 2.67807,1.08334 0.82971,0.42478 2.00175,0.84263 2.60452,0.92855 1.42923,0.20373 6.09297,-0.35483 7.07942,-0.84788 0.42332,-0.21158 1.90446,-0.48834 3.29143,-0.61502 1.60795,-0.14686 3.11814,-0.47657 4.16749,-0.90984 0.90514,-0.37373 2.32457,-0.83442 3.15428,-1.02375 0.82972,-0.18933 2.61943,-0.87277 3.97715,-1.51876 3.23841,-1.5408 4.49062,-2.04733 5.06129,-2.04733 0.469,0 1.79453,-0.64156 4.14657,-2.00695 0.81695,-0.47426 2.00069,-0.83164 3.3986,-1.02607 1.98758,-0.27644 2.30831,-0.24784 4.36929,0.3897 1.22333,0.37843 2.62511,0.76745 3.11506,0.86449 0.85583,0.1695 2.2962,1.60721 3.02798,3.02237 0.21665,0.41899 0.95958,0.71956 2.98483,1.20762 1.78358,0.42982 2.92851,0.86525 3.38209,1.28625 1.11765,1.03737 6.33945,4.25636 7.7673,4.78817 0.72687,0.27073 2.70173,0.75246 4.38857,1.07052 4.10817,0.77458 5.22353,1.22962 6.46158,2.6361 1.31111,1.48951 1.49953,2.15721 2.35422,8.34267 0.86635,6.26977 0.80126,10.04131 -0.25729,14.90997 -0.38939,1.79095 -0.82771,3.47997 -0.97404,3.75339 -0.14633,0.27342 -0.26866,1.27668 -0.27184,2.22945 -0.01,2.89395 -1.69946,6.8477 -3.99344,9.34375 -0.51991,0.56571 -1.15964,1.01641 -1.42161,1.00156 -0.26197,-0.0148 -1.24457,-0.46711 -2.18357,-1.00502 z m 3.2505,-1.50512 c 0.47352,-0.64114 1.29302,-2.08804 1.82109,-3.21534 0.77946,-1.66394 0.99572,-2.51557 1.14923,-4.52571 0.104,-1.36185 0.31878,-2.72295 0.47728,-3.02466 0.63212,-1.20324 1.50865,-6.65739 1.60661,-9.99703 0.0773,-2.63662 -0.0611,-4.58955 -0.59104,-8.33867 -0.78677,-5.56586 -0.91668,-6.01475 -2.09393,-7.23529 -0.99348,-1.03001 -2.36262,-1.52069 -5.96962,-2.13943 -3.74617,-0.64261 -5.41549,-1.36456 -9.73714,-4.21111 -3.43465,-2.26231 -4.08084,-2.58303 -6.12152,-3.03826 -2.17348,-0.48485 -3.34134,-1.10508 -3.34134,-1.77451 0,-0.46919 -1.6381,-2.35141 -2.04643,-2.35141 -0.19843,0 -1.41302,-0.30493 -2.69909,-0.67762 -3.26188,-0.94526 -5.29606,-0.75309 -7.7602,0.7331 -0.97584,0.58856 -2.72697,1.37889 -3.89141,1.7563 -1.16443,0.37741 -3.22801,1.22551 -4.58573,1.88468 -1.35771,0.65916 -3.27085,1.40042 -4.25143,1.64725 -0.98057,0.24682 -2.73544,0.81174 -3.89972,1.25538 -1.55637,0.59305 -2.58933,0.80662 -3.90123,0.80662 -1.16384,0 -2.19231,0.18215 -2.95742,0.52378 -1.37519,0.61404 -6.17603,1.19884 -7.75591,0.94477 -0.60343,-0.097 -1.83032,-0.5425 -2.72642,-0.9899 -0.89611,-0.44741 -2.20419,-0.9842 -2.90686,-1.19287 -1.25737,-0.3734 -1.93309,-0.9377 -3.98926,-3.33149 -0.91548,-1.06582 -1.11241,-1.16572 -2.29787,-1.16572 -0.71311,0 -2.01407,0.24686 -2.89102,0.54857 -1.65216,0.56843 -3.50394,0.67563 -6.41498,0.37137 -1.05383,-0.11015 -1.65577,-0.2918 -1.5906,-0.48 0.0577,-0.16654 0.46308,-0.28254 0.90093,-0.25778 3.83884,0.21707 5.34622,0.12957 6.99674,-0.40612 0.96449,-0.31304 2.0338,-0.60671 2.37623,-0.6526 0.52739,-0.0707 0.34239,-0.29021 -1.20961,-1.43549 -1.00772,-0.74362 -2.76903,-1.75445 -3.91403,-2.24627 -1.7488,-0.75118 -2.53174,-0.91832 -4.89435,-1.04482 -3.52634,-0.18882 -5.05223,0.12574 -8.03656,1.65668 -1.32367,0.67903 -2.72704,1.2036 -3.21998,1.2036 -0.48055,0 -1.70817,-0.32307 -2.72805,-0.71793 -5.25627,-2.03508 -6.27576,-2.46763 -6.64576,-2.81963 -0.6309,-0.60023 -3.09001,-1.6682 -3.84855,-1.6714 -0.37714,-0.002 -1.47413,-0.37587 -2.43774,-0.83174 l -1.75202,-0.82884 -1.12798,0.53392 c -1.15218,0.54538 -1.90458,0.76694 -5.19461,1.52964 -1.72294,0.39942 -2.00175,0.39775 -3.49383,-0.0209 -1.82673,-0.51255 -3.73188,-0.42846 -5.19382,0.22925 -1.55416,0.6992 -2.31629,0.77279 -3.73491,0.36065 -0.73666,-0.21402 -2.06689,-0.51991 -2.95607,-0.67977 -0.88918,-0.15987 -2.30861,-0.61086 -3.15428,-1.00222 -0.84568,-0.39135 -2.50567,-0.95938 -3.68887,-1.26227 l -2.15128,-0.55072 -1.57468,0.70668 c -0.86838,0.3897 -3.28669,1.02191 -5.39158,1.4095 -2.0993,0.38655 -4.59599,0.88253 -5.548208,1.10216 -0.952218,0.21964 -2.102811,0.39935 -2.556872,0.39935 -1.070976,0 -3.177579,1.23901 -3.412847,2.00728 -0.244226,0.79753 -0.674239,1.31062 -0.953672,1.13792 -0.407276,-0.25171 0.317212,-1.74173 1.241441,-2.55321 l 0.903671,-0.79344 -1.956636,-0.22751 c -1.07615,-0.12513 -2.573779,-0.1821 -3.328065,-0.1266 -2.715142,0.19978 -4.7117,0.0951 -7.542857,-0.39547 -1.584,-0.27446 -3.982908,-0.55618 -5.330906,-0.62605 -3.416985,-0.17709 -3.541611,0.0292 -1.942136,3.21389 1.368306,2.72446 1.940029,4.72375 2.206915,7.71747 0.22396,2.51222 -0.258014,6.58692 -1.032175,8.72618 -0.304716,0.84203 -0.611536,2.17897 -0.68182,2.97097 l -0.127791,1.44 0.916814,-5e-5 c 0.504247,-3e-5 1.904242,-0.19805 3.111099,-0.44004 1.603533,-0.32154 3.734289,-0.43801 7.914458,-0.43261 5.30527,0.007 5.872031,-0.0408 7.813818,-0.6571 1.151506,-0.36547 2.403714,-0.66357 2.782685,-0.66245 0.378972,0.001 1.660781,0.5571 2.848464,1.23551 1.187684,0.67841 2.9045,1.42654 3.81514,1.66251 1.49154,0.3865 1.83494,0.38753 3.46343,0.0104 0.99424,-0.23026 2.59924,-0.50005 3.56665,-0.59952 1.42514,-0.14655 2.13815,-0.41489 3.75716,-1.41403 1.87032,-1.15423 2.13522,-1.23751 4.13821,-1.30112 1.17699,-0.0374 3.01413,-0.22324 4.08254,-0.41303 2.34591,-0.41674 4.38253,-0.0772 5.92008,0.98685 0.78639,0.54425 1.5131,0.74214 3.33512,0.90821 1.76575,0.16094 2.63098,0.38894 3.57462,0.94195 0.68474,0.40128 1.32091,0.85245 1.4137,1.00259 0.0928,0.15014 0.56203,0.48533 1.04275,0.74486 0.70959,0.38309 1.75132,0.4862 5.53689,0.54805 7.22067,0.11797 7.24119,0.11639 9.0461,-0.69398 1.30853,-0.5875 2.04935,-0.73764 3.57104,-0.72375 2.70499,0.0247 3.96967,0.47284 5.91013,2.09425 l 1.69214,1.41392 3.74826,0.29429 c 3.57969,0.28106 3.81495,0.3371 5.23102,1.24595 0.81552,0.52341 2.67701,2.0681 4.13664,3.43265 2.04662,1.91327 3.21215,2.75665 5.09356,3.68568 1.34183,0.66258 2.95057,1.65169 3.57498,2.19802 1.55451,1.36011 4.31485,2.08352 6.99847,1.83411 2.2029,-0.20474 2.6456,-0.39572 4.32337,-1.86509 1.62198,-1.42049 2.26289,-1.54897 3.52802,-0.70719 3.16348,2.10487 3.04878,2.07526 10.26267,2.64943 2.48434,0.19773 3.59787,0.16995 4.93715,-0.12318 4.62849,-1.01304 8.85524,-1.55868 9.70209,-1.25245 1.32967,0.48081 2.20775,0.36593 3.95864,-0.51792 1.67277,-0.84441 2.43675,-0.99971 2.89372,-0.58822 0.14331,0.12906 0.92996,0.44713 1.7481,0.70683 2.08299,0.66122 6.13824,2.74046 7.95498,4.07875 0.8409,0.61945 2.47505,2.0576 3.63144,3.19588 3.65628,3.59905 8.93638,8.05684 11.13542,9.40121 1.16713,0.71352 2.21386,1.29981 2.32605,1.30286 0.1122,0.003 0.59143,-0.51902 1.06496,-1.16017 z m -4.36339,-11.53189 c -1.4908,-1.5247 -2.61659,-4.24089 -3.94561,-9.51953 -1.37221,-5.45019 -3.07494,-9.08529 -5.43988,-11.61342 -0.90518,-0.96764 -1.64579,-1.83619 -1.64579,-1.93011 0,-0.54051 0.91643,0.0126 2.10284,1.26924 2.5296,2.67929 4.32878,6.35938 5.46445,11.17714 1.2452,5.28243 3.08468,9.81151 4.23494,10.42711 0.55038,0.29456 0.89152,1.01318 0.57409,1.20936 -0.11928,0.0737 -0.72455,-0.38519 -1.34504,-1.01979 z m -46.2512,-6.18638 c -0.32717,-0.52937 4.72517,-5.95522 5.35101,-5.7466 0.21487,0.0716 -0.47342,1.00081 -1.76203,2.37873 -1.16305,1.24365 -2.31208,2.56252 -2.5534,2.93081 -0.45543,0.69508 -0.78909,0.8359 -1.03558,0.43706 z m 50.71266,-0.69568 c -0.5935,-0.90579 -3.338,-6.99867 -3.57141,-7.92863 -0.24957,-0.9944 0.33162,-0.98575 0.74937,0.0112 0.17385,0.41485 1.085,2.4515 2.02479,4.52589 0.93978,2.07438 1.60261,3.83717 1.47294,3.91731 -0.12966,0.0801 -0.43373,-0.15644 -0.67569,-0.52573 z m -61.29845,-1.1176 c 0,-0.2765 2.28899,-3.16559 2.50806,-3.16559 0.66172,0 -0.48922,2.11303 -1.60605,2.94857 -0.46089,0.3448 -0.90201,0.45094 -0.90201,0.21702 z m 25.06379,-0.2736 c -0.28599,-0.74528 0.71698,-5.63485 1.15585,-5.63485 0.46456,0 0.46496,-0.0348 -0.0254,2.19429 -0.21569,0.98057 -0.3965,2.17672 -0.4018,2.6581 -0.0107,0.96924 -0.46841,1.46075 -0.7287,0.78246 z m 4.18604,-1.04056 c 0.30345,-2.868 0.42293,-3.49714 0.66412,-3.49714 0.28349,0 0.34757,3.06444 0.0846,4.04571 -0.30704,1.1457 -0.88331,0.72347 -0.74872,-0.54857 z M 177.70464,161.76 c -0.0179,-0.18857 -0.0134,-0.49328 0.0101,-0.67713 0.0234,-0.18385 -0.31256,-1.17128 -0.74658,-2.19428 -0.43402,-1.02301 -0.87198,-2.60059 -0.97325,-3.50573 -0.10126,-0.90515 -0.32095,-2.27229 -0.4882,-3.03809 -0.27308,-1.25044 -0.23081,-1.60464 0.41463,-3.47465 0.39528,-1.14524 0.7187,-2.52439 0.7187,-3.06476 0,-0.72719 0.11673,-0.9825 0.44919,-0.9825 0.38424,0 0.42301,0.22276 0.26812,1.54062 -0.0996,0.84734 -0.44544,2.15518 -0.76857,2.9063 -0.5288,1.22923 -0.55703,1.53434 -0.28259,3.05366 0.1677,0.9284 0.37682,2.33172 0.46471,3.11851 0.0879,0.78679 0.52615,2.29143 0.97391,3.34364 0.65047,1.52859 0.76045,2.05422 0.54717,2.61519 -0.28797,0.75739 -0.53522,0.90863 -0.5873,0.35922 z m 7.74567,-1.50857 c -0.839,-2.88388 -1.65341,-11.04 -1.10237,-11.04 0.46733,0 0.79492,1.37036 0.79492,3.32531 0,2.20284 0.41476,5.25347 0.98108,7.2159 0.45466,1.5755 0.49674,2.35022 0.12767,2.35022 -0.14447,0 -0.50505,-0.83315 -0.8013,-1.85143 z m -5.86174,-1.68563 c -1.61574,-3.34114 -1.79138,-3.86866 -1.28808,-3.86866 0.34093,0 3.27046,5.95138 3.27413,6.65143 0.005,1.02095 -0.46599,0.36052 -1.98605,-2.78277 z m 16.25143,2.97967 c 0,-0.69757 0.85132,-2.26672 1.09667,-2.02137 0.3579,0.3579 -0.25979,2.30447 -0.73126,2.30447 -0.20098,0 -0.36541,-0.12739 -0.36541,-0.2831 z m -12.74989,-0.60833 c -0.93791,-4.04201 -1.7363,-10.19954 -1.42699,-11.00558 0.37141,-0.96786 0.65896,-0.12812 0.8405,2.45447 0.10224,1.45447 0.42895,3.89634 0.72602,5.42637 0.29707,1.53004 0.5405,2.99788 0.54096,3.26188 0.001,0.69379 -0.51167,0.59043 -0.68049,-0.13714 z m 10.46474,-0.13083 c -0.096,-0.15527 0.0922,-0.76917 0.41815,-1.36423 0.56907,-1.0389 0.5753,-1.13455 0.15688,-2.40552 -0.40524,-1.23096 -0.39435,-2.06513 0.027,-2.06513 0.22929,0 0.80009,1.82826 0.99679,3.1927 0.12845,0.89108 0.0278,1.20645 -0.63585,1.99161 -0.4476,0.52958 -0.86389,0.81083 -0.96294,0.65057 z m 3.53396,-3.61709 c -0.17852,-0.28886 1.46053,-2.52993 1.97405,-2.69912 0.48944,-0.16125 0.42459,0.6206 -0.0867,1.04491 -0.23623,0.19605 -0.60969,0.70488 -0.8299,1.13073 -0.40809,0.78915 -0.77963,0.97307 -1.05749,0.52348 z m 8.29783,0.10599 c -0.10153,-0.10153 0.16777,-0.88191 0.59844,-1.73419 0.43067,-0.85227 0.86848,-2.01381 0.97292,-2.58119 0.20174,-1.09591 0.52278,-1.49582 0.81772,-1.0186 0.49657,0.80347 -1.79757,5.92549 -2.38908,5.33398 z m -2.8515,-1.60394 c -0.39121,-1.01949 1.36493,-6.20556 2.10137,-6.20556 0.3452,0 0.34472,0.002 -0.6878,2.88 -0.37886,1.056 -0.69202,2.25215 -0.69592,2.6581 -0.008,0.84357 -0.48121,1.2836 -0.71765,0.66746 z m 19.97914,-2.5437 c -1.42702,-0.67486 -1.85715,-1.19329 -0.99004,-1.19329 0.72339,0 2.84147,1.16076 2.84147,1.55719 0,0.47279 -0.14066,0.44514 -1.85143,-0.3639 z m -58.86586,-0.39034 c -0.39749,-0.31266 -0.72271,-0.80637 -0.72271,-1.09714 0,-0.70652 0.22437,-0.66611 0.87186,0.15705 0.29666,0.37714 0.71128,0.68572 0.92136,0.68572 1.0977,0 3.6925,-3.601 3.6925,-5.12436 0,-0.77451 0.27102,-1.4585 0.57791,-1.4585 0.4745,0 0.23209,2.07319 -0.40089,3.42857 -0.78296,1.67654 -1.90395,3.04036 -2.93893,3.57557 -1.00726,0.52087 -1.14091,0.50972 -2.0011,-0.16691 z m 27.43729,0.38563 c -0.10057,-0.10058 -0.18239,-0.93372 -0.18183,-1.85143 0.001,-1.79459 0.72286,-3.45143 1.50352,-3.45143 0.55254,0 0.52673,0.14599 -0.19947,1.12823 -0.50395,0.68162 -0.60609,1.1499 -0.56595,2.59461 0.0454,1.63448 -0.0971,2.03921 -0.55627,1.58002 z m -46.53714,-0.68505 c 0,-0.53316 2.53134,-4.86668 3.51201,-6.01237 0.50562,-0.59071 1.09483,-1.07401 1.30936,-1.07401 0.58329,0 0.47389,0.37511 -0.32606,1.1179 -0.39386,0.36573 -1.45647,1.9301 -2.36135,3.47638 -1.51455,2.5881 -2.13396,3.31146 -2.13396,2.4921 z m 8.50286,-2.26501 c 0,-0.44463 1.94152,-2.19537 3.11723,-2.81093 0.49245,-0.25782 0.8824,-0.31481 1.04457,-0.15264 0.16216,0.16216 -0.23949,0.57849 -1.07591,1.11522 -0.73407,0.47106 -1.62679,1.1674 -1.98381,1.54744 -0.72981,0.77684 -1.10208,0.87849 -1.10208,0.30091 z m -18.73841,-0.0855 c -0.40538,-0.68227 -0.45938,-3.59592 -0.0861,-4.64446 0.22378,-0.62857 0.49171,-1.70857 0.5954,-2.4 0.11969,-0.79821 0.32735,-1.25716 0.5688,-1.25716 0.50371,0 0.48252,0.34002 -0.18109,2.9047 -0.40989,1.58414 -0.5146,2.5869 -0.38805,3.7161 0.10566,0.94274 0.0645,1.61375 -0.10539,1.71876 -0.15329,0.0947 -0.3349,0.0777 -0.40359,-0.0379 z m 1.06619,-0.042 c -0.0827,-0.13376 0.0416,-0.40249 0.27618,-0.59716 0.60779,-0.50443 1.20808,-1.75304 1.76442,-3.67006 0.26512,-0.91355 0.84738,-2.58671 1.2939,-3.71814 0.44653,-1.13143 0.89694,-2.29378 1.00093,-2.58301 0.13986,-0.38902 0.26922,-0.4457 0.49713,-0.21779 0.2279,0.2279 0.0154,1.07849 -0.81659,3.26872 -0.61856,1.62836 -1.25191,3.45626 -1.40745,4.06201 -0.31423,1.22379 -1.78233,3.69864 -2.19407,3.69864 -0.14528,0 -0.33178,-0.10944 -0.41445,-0.24321 z m -28.20972,-1.47108 c 0.1433,-1.75577 0.25054,-2.12571 0.61619,-2.12571 0.30336,0 0.39297,2.41112 0.1164,3.13185 -0.0916,0.23863 -0.3203,0.43386 -0.50831,0.43386 -0.24442,0 -0.30833,-0.41031 -0.22428,-1.44 z m 33.43453,1.21845 c -0.17417,-0.2818 0.24754,-2.90981 0.54386,-3.38927 0.10335,-0.16722 0.27049,-0.17766 0.42181,-0.0263 0.15132,0.15131 0.12744,0.84008 -0.0602,1.73818 -0.32754,1.56729 -0.62868,2.1252 -0.90542,1.67743 z m 113.38455,-0.57118 c -2.13095,-0.69067 -5.04633,-2.23247 -7.13143,-3.77147 -2.45625,-1.81294 -1.49271,-1.93642 1.14998,-0.14737 3.01513,2.04118 4.62591,2.78346 7.83288,3.60958 0.64114,0.16515 1.16571,0.41895 1.16571,0.564 0,0.40223 -1.33896,0.28918 -3.01714,-0.25474 z M 99.112673,148.32 c -1.749997,-3.52498 -2.059509,-4.59429 -1.329816,-4.59429 0.226285,0 0.411428,0.22217 0.411428,0.49372 0,0.27154 0.108518,0.61097 0.241151,0.75428 0.132634,0.14332 0.396623,0.75429 0.586644,1.35772 0.190021,0.60343 0.583022,1.43573 0.873336,1.84955 0.482184,0.68734 0.478044,1.30473 -0.0088,1.30473 -0.107391,0 -0.455683,-0.52457 -0.773982,-1.16571 z m 44.064467,0.62932 c 0,-0.14416 0.30673,-0.71409 0.68162,-1.26653 0.37489,-0.55243 0.83159,-1.73048 1.01488,-2.61789 0.38981,-1.88725 0.77465,-2.11219 0.76605,-0.44776 -0.006,1.20035 -0.78576,3.25368 -1.56014,4.10936 -0.48005,0.53044 -0.90241,0.63473 -0.90241,0.22282 z m -42.2543,-1.81894 c -0.16994,-0.43942 -0.66254,-2.39652 -1.094666,-4.34911 -0.647844,-2.92731 -0.756716,-3.92582 -0.620561,-5.69142 0.09082,-1.17771 0.257052,-2.14128 0.369409,-2.14128 0.405177,0 0.542668,0.92112 0.383686,2.57056 -0.152319,1.58034 0.522432,5.56114 1.515072,8.93838 0.3625,1.23331 -0.11262,1.81147 -0.55294,0.67287 z m 2.41262,-0.50024 c -0.65315,-1.36966 -1.59008,-5.51316 -1.71113,-7.56728 -0.24583,-4.1716 -0.22778,-5.59314 0.0723,-5.69316 0.39189,-0.13064 0.55396,0.95651 0.72604,4.8703 0.0983,2.23543 0.34524,3.87339 0.84775,5.62286 1.0144,3.53162 1.04985,3.70285 0.76664,3.70285 -0.1405,0 -0.45622,-0.421 -0.7016,-0.93557 z m -20.109008,-1.32706 c -0.01059,-1.09384 -0.06499,-3.03794 -0.12089,-4.32022 -0.07256,-1.6647 0.034,-2.78525 0.372618,-3.91833 0.792114,-2.65054 0.989676,-3.06067 1.316774,-2.73358 0.209902,0.20991 0.131961,0.79431 -0.271167,2.03324 -0.873171,2.6835 -0.960108,3.62302 -0.592359,6.40152 0.355184,2.68357 0.210588,4.52556 -0.355286,4.52594 -0.225584,1.5e-4 -0.33654,-0.63082 -0.34969,-1.98857 z M 223.26857,146.88 c 0,-0.22629 0.12343,-0.41143 0.27429,-0.41143 0.15085,0 0.27428,0.18514 0.27428,0.41143 0,0.22628 -0.12343,0.41143 -0.27428,0.41143 -0.15086,0 -0.27429,-0.18515 -0.27429,-0.41143 z M 76.285903,145.2932 c -0.0073,-0.94816 -0.203154,-2.17848 -0.435282,-2.73404 -0.52528,-1.25718 -0.532315,-1.6014 -0.02878,-1.40818 0.99286,0.381 1.801557,5.86616 0.864869,5.86616 -0.291397,0 -0.390859,-0.4278 -0.400807,-1.72394 z m 9.309935,1.46702 c -0.324879,-0.20559 -0.336726,-0.43546 -0.06857,-1.33048 0.178289,-0.59508 0.324161,-1.53049 0.324161,-2.07871 0,-1.14304 0.453359,-1.33446 0.712756,-0.30094 0.172352,0.68671 0.05057,1.72838 -0.311464,2.66419 -0.331906,0.85793 0.641356,0.54153 1.898367,-0.61714 1.147349,-1.05759 1.814627,-1.36952 1.814627,-0.84827 0,0.13687 -0.630492,0.81573 -1.401094,1.50857 -1.369431,1.23123 -2.17681,1.50395 -2.968782,1.00278 z m 7.279221,-0.17694 c -0.246454,-0.64225 -0.201906,-1.48614 0.07845,-1.48614 0.29712,0 0.577917,0.67725 0.577917,1.39386 0,0.63575 -0.424898,0.69548 -0.656369,0.0923 z m 1.516603,-1.07471 C 94.416484,144.43186 94.533893,144 94.801791,144 c 0.272114,0 0.375351,0.41492 0.375351,1.50857 0,1.15597 -0.09586,1.50857 -0.410129,1.50857 -0.318484,0 -0.402358,-0.33709 -0.375351,-1.50857 z m 67.337278,1.29499 c -0.27197,-0.44007 0.42353,-1.69278 1.44348,-2.59996 0.46774,-0.41602 0.85044,-0.87888 0.85044,-1.02857 0,-0.1497 0.18514,-0.27217 0.41142,-0.27217 0.71208,0 0.45178,0.67139 -0.75428,1.94556 -0.64114,0.67735 -1.29808,1.4661 -1.45985,1.75278 -0.20235,0.35859 -0.35563,0.42173 -0.49121,0.20236 z M 80.243052,145.948 c -0.226069,-0.43717 -0.54417,-1.38893 -0.706891,-2.11502 -0.348096,-1.55327 -1.125071,-10.03836 -0.936477,-10.22695 0.422119,-0.42212 0.734663,0.85798 0.949438,3.88864 0.287783,4.06086 0.740508,6.90427 1.26288,7.93171 0.207113,0.40736 0.376569,0.87022 0.376569,1.02857 0,0.56486 -0.541362,0.27461 -0.945519,-0.50695 z m 35.139208,0.6114 c -0.1009,-0.1009 9.5e-4,-0.38722 0.22633,-0.63627 0.63622,-0.70301 1.51141,-3.52239 1.51141,-4.86893 0,-0.85243 0.10215,-1.17849 0.34286,-1.09433 0.798,0.27899 -0.046,5.08741 -1.10633,6.30299 -0.4496,0.51543 -0.68403,0.58678 -0.97427,0.29654 z m 12.98345,-0.33755 c 0,-0.1357 0.42747,-0.88195 0.94994,-1.65833 1.19998,-1.78316 1.4098,-2.88275 0.88903,-4.65924 -0.26525,-0.90488 -0.31197,-1.45377 -0.13314,-1.56429 0.37927,-0.2344 0.69396,0.3485 1.029,1.90603 0.31534,1.46594 0.18959,2.26753 -0.61042,3.89112 -0.80434,1.63239 -2.12441,2.92779 -2.12441,2.08471 z m -16.18679,-0.58349 c -0.40768,-0.76176 -0.67827,-3.53714 -0.43814,-4.49389 0.33742,-1.34439 0.71636,-0.71387 0.71636,1.19196 0,1.04618 0.12802,2.23885 0.28448,2.65038 0.37052,0.97453 -0.0989,1.5181 -0.5627,0.65155 z m -21.390349,-0.082 c 0,-0.44137 1.142552,-1.55638 1.594821,-1.55638 0.526124,0 0.377541,0.39577 -0.444115,1.18297 -0.855127,0.81926 -1.150706,0.91518 -1.150706,0.37341 z m 55.954289,-1.70795 c 0,-0.23422 0.19132,-1.26702 0.42515,-2.29511 0.38178,-1.67857 0.67399,-2.17962 2.86439,-4.91158 1.34158,-1.67328 2.58112,-3.30744 2.75454,-3.63148 0.20861,-0.38978 0.40743,-0.49704 0.58752,-0.31694 0.3791,0.3791 -0.25622,1.44961 -2.23372,3.76382 -2.31476,2.70889 -3.03002,3.98492 -3.38046,6.03077 -0.19242,1.12339 -0.43801,1.78637 -0.66171,1.78637 -0.19564,0 -0.35571,-0.19163 -0.35571,-0.42585 z m 54.30857,-0.10404 c 0,-0.14058 0.40114,-0.53578 0.89143,-0.87821 0.49028,-0.34244 0.97886,-0.75095 1.08572,-0.90782 0.12953,-0.19013 0.28572,-0.19378 0.46858,-0.0109 0.34481,0.34482 0.11507,0.6846 -0.9795,1.44863 -0.91652,0.63975 -1.46623,0.77034 -1.46623,0.34832 z m -46.22301,-1.1223 c -0.39898,-0.44087 -0.43243,-0.62425 -0.16257,-0.89143 0.26865,-0.26599 0.39641,-0.23594 0.61057,0.14362 0.14896,0.264 0.48847,0.48 0.75446,0.48 0.52955,0 1.77421,-1.21632 2.05269,-2.00595 0.21169,-0.60025 0.72786,-0.35594 0.72786,0.34451 0,0.68892 -2.0512,2.4843 -2.83828,2.4843 -0.35333,0 -0.86846,-0.24977 -1.14473,-0.55505 z m 56.14575,-0.19923 c 0.0927,-0.50168 3.26999,-2.22288 4.15059,-2.24845 0.87627,-0.0255 0.18084,0.5725 -1.61045,1.38471 -0.949,0.4303 -1.80351,0.90867 -1.89893,1.06305 -0.28393,0.45941 -0.7369,0.31861 -0.64121,-0.19931 z M 91.636574,141.42458 c -0.550052,-0.66277 -1.154296,-4.16183 -0.854751,-4.94969 0.352565,-0.92732 0.947587,-0.9366 0.715316,-0.0111 -0.201624,0.80333 0.32815,4.17511 0.691254,4.39952 0.316663,0.19571 0.320776,0.94245 0.0052,0.94245 -0.132385,0 -0.38304,-0.1715 -0.55701,-0.38113 z m 15.212356,-2.95378 c 1.11879,-3.32216 1.44301,-3.75846 2.45149,-3.29896 0.71468,0.32563 1.16884,1.03319 0.86086,1.34116 -0.0931,0.0931 -0.41988,-0.0574 -0.72608,-0.33449 -0.76353,-0.69098 -0.98792,-0.39206 -1.8801,2.50456 -0.50786,1.64887 -0.89634,2.46322 -1.20325,2.52232 -0.38038,0.0733 -0.30048,-0.36631 0.49708,-2.73459 z m 16.43755,0.37368 c 0.19032,-2.15004 0.17966,-2.20736 -0.42702,-2.29621 -0.97197,-0.14235 -0.99219,-0.77684 -0.0247,-0.77684 1.50149,0 1.691,-0.20351 1.691,-1.81593 0,-0.81562 -0.14961,-1.72251 -0.33247,-2.01532 -0.49877,-0.79865 0.0264,-1.06625 0.63037,-0.32122 0.74275,0.91616 0.7534,3.9606 0.0157,4.47977 -0.37872,0.26652 -0.5721,0.91547 -0.75429,2.53124 -0.15989,1.418 -0.37505,2.21569 -0.61936,2.29621 -0.30603,0.10087 -0.33873,-0.2791 -0.17916,-2.0817 z m -2.27508,0.72696 c 0.0472,-0.65687 0.20917,-1.16344 0.36003,-1.12573 0.41242,0.10311 0.33618,2.05937 -0.0857,2.20001 -0.26849,0.0895 -0.33823,-0.18363 -0.27429,-1.07428 z M 95.727243,139.68 c 0.002,-0.98787 0.513448,-2.81143 0.788506,-2.81143 0.435827,0 0.515226,0.32534 0.288233,1.18105 -0.12782,0.48185 -0.301644,1.21552 -0.386275,1.63038 -0.08463,0.41486 -0.27495,0.75428 -0.422933,0.75428 -0.147983,0 -0.268372,-0.33942 -0.267531,-0.75428 z m 7.017067,-0.0292 c -0.10007,-0.16193 0.15534,-0.80409 0.56758,-1.42703 0.41224,-0.62294 0.818,-1.6193 0.90168,-2.21413 0.0837,-0.59483 0.27557,-1.10776 0.42643,-1.13984 0.46513,-0.0989 0.46942,1.65791 0.006,2.60773 -0.64963,1.33252 -1.68824,2.51923 -1.90206,2.17327 z m 121.81726,-1.03206 c -0.43911,-0.43911 -0.13641,-0.653 0.92414,-0.653 0.77317,0 1.08515,0.10618 1.00745,0.34286 -0.1245,0.37925 -1.62203,0.6197 -1.93159,0.31014 z m -5.24581,-0.61363 c -0.13142,-0.21264 1.7887,-1.95937 2.15387,-1.95937 0.41143,0 0.0624,0.66248 -0.73076,1.38689 -0.93294,0.85212 -1.1871,0.95436 -1.42311,0.57248 z m -83.70153,-0.9308 c 0.0996,-0.33942 0.46517,-1.84506 0.8124,-3.34584 0.34722,-1.50079 0.77385,-2.77622 0.94806,-2.83429 0.1742,-0.0581 0.31674,0.0951 0.31674,0.34027 0,0.79437 -0.8625,4.64876 -1.24542,5.56558 -0.42582,1.01955 -1.11735,1.24759 -0.83178,0.27428 z m 24.56863,0.32456 c 0,-0.16092 0.29476,-0.68549 0.65503,-1.16571 0.36027,-0.48022 0.9659,-1.49027 1.34585,-2.24456 0.87764,-1.74231 1.93651,-2.74515 3.46969,-3.28609 1.56887,-0.55352 2.23652,-0.0807 0.75823,0.53694 -0.54987,0.22975 -1.11436,0.41772 -1.25444,0.41772 -0.41432,0 -1.92573,1.86225 -2.36535,2.9144 -0.73369,1.75597 -2.60901,3.78819 -2.60901,2.8273 z m -66.377146,-5.56962 c 0,-0.20707 0.55267,-0.88593 1.228157,-1.50857 1.11897,-1.03143 1.358158,-1.13208 2.690433,-1.13208 0.861107,0 1.681165,-0.16556 1.9947,-0.4027 0.615326,-0.46541 1.218136,-0.54073 1.218136,-0.15219 0,0.56676 -1.495928,1.2164 -2.966658,1.28832 -1.36389,0.0667 -1.640688,0.18992 -2.648583,1.1791 -1.200011,1.17772 -1.516185,1.32956 -1.516185,0.72812 z m 40.212206,-1.15451 c -0.25111,-0.65437 -0.19984,-1.48614 0.0916,-1.48614 0.32055,0 0.44052,0.20899 0.6692,1.16571 0.13191,0.55187 0.0763,0.75429 -0.20702,0.75429 -0.21302,0 -0.46223,-0.19524 -0.55379,-0.43386 z m -81.365277,21.23417 c 0.533617,-0.31862 1.940897,-0.75012 3.127288,-0.95888 2.892894,-0.50906 5.623428,-2.07033 6.632657,-3.79245 1.078217,-1.83984 2.401577,-2.88327 3.656797,-2.88327 0.836685,0 1.447285,0.29915 3.067958,1.50307 1.112857,0.82669 2.114573,1.41187 2.226038,1.30041 0.626791,-0.62679 1.156058,-3.97397 1.158917,-7.32919 0.003,-3.56589 -0.253381,-5.02471 -1.34055,-7.62667 l -0.420468,-1.00632 -1.230814,0.9395 c -2.368812,1.80816 -5.300295,1.49452 -8.45529,-0.90462 -3.05716,-2.32475 -3.731286,-2.5837 -7.452319,-2.86265 -4.357361,-0.32665 -5.23657,-0.33349 -8.682774,-0.0675 -2.439969,0.18834 -3.108168,0.15142 -4.045095,-0.22346 -0.617276,-0.24699 -1.788238,-0.52733 -2.602138,-0.62299 -1.336537,-0.15708 -1.497314,-0.1188 -1.660525,0.39544 -0.09939,0.31314 -0.02006,3.44516 0.17629,6.96002 0.427652,7.65544 0.423582,9.62302 -0.02758,13.33106 -0.426756,3.50748 -0.366772,3.61254 1.852917,3.24544 1.41604,-0.23418 1.86524,-0.18791 3.484267,0.35897 3.610316,1.21951 8.703153,1.3375 10.534421,0.24408 z m 2.682559,-3.95654 c -0.08907,-0.0891 0.01379,-0.66001 0.228571,-1.26877 0.214782,-0.60875 0.390512,-1.39988 0.390512,-1.75806 0,-0.39601 0.161239,-0.65123 0.411429,-0.65123 0.522756,0 0.519979,0.63205 -0.01063,2.41879 -0.397511,1.33857 -0.640531,1.63863 -1.019886,1.25927 z m -14.81655,-1.37655 c -0.09188,-0.0919 0.08421,-0.80159 0.391322,-1.57714 0.545272,-1.37697 0.562846,-2.46847 0.07128,-4.42703 -0.128645,-0.51257 -0.0638,-0.68591 0.256584,-0.68591 0.904236,0 1.120578,3.54904 0.338577,5.55429 -0.491159,1.25946 -0.70475,1.48881 -1.057761,1.13579 z m 3.371192,-0.42722 c 0.0023,-0.20114 0.181996,-0.85943 0.399389,-1.46286 0.461469,-1.28092 0.530698,-3.09996 0.155533,-4.08672 -0.30928,-0.81346 0.04554,-1.16962 0.554396,-0.55649 0.604073,0.72787 0.63755,3.11804 0.06669,4.76134 -0.479769,1.38107 -1.185531,2.18809 -1.176007,1.34473 z M 59.218968,143.52 c -0.497766,-1.30615 -0.614049,-2.26286 -0.275037,-2.26286 0.330969,0 0.785671,0.9877 1.04174,2.26286 0.09505,0.47332 0.034,0.75428 -0.163889,0.75428 -0.173448,0 -0.444715,-0.33942 -0.602814,-0.75428 z m -15.89481,-0.68572 c -0.0071,-0.0377 -0.06506,-0.65485 -0.128708,-1.37142 -0.08553,-0.96297 -0.01995,-1.30286 0.251383,-1.30286 0.398096,0 0.782275,1.69504 0.532001,2.34724 -0.125407,0.32681 -0.608977,0.56837 -0.654676,0.32704 z m 21.681556,-0.72646 c 0,-0.46616 2.154159,-1.00052 2.52766,-0.62702 0.423247,0.42325 0.297283,0.49709 -1.224803,0.718 -0.827142,0.12005 -1.302857,0.0868 -1.302857,-0.091 z m -8.71999,-2.83925 c -1.60309,-4.34873 -1.982718,-6.08099 -1.150214,-5.24849 0.298854,0.29886 2.190204,5.76595 2.190204,6.33095 0,0.82547 -0.546254,0.25691 -1.03999,-1.08246 z m 3.874117,-3.17775 c -0.08539,-0.32652 -0.236161,-0.59368 -0.335052,-0.59368 -0.472121,0 -2.240043,-1.74017 -2.00585,-1.97437 0.253532,-0.25353 3.346775,1.83024 3.346775,2.25456 0,0.11067 -0.19139,0.36005 -0.425312,0.55419 -0.359236,0.29814 -0.44943,0.26075 -0.580561,-0.2407 z m 5.402388,-0.58296 c -0.596114,-0.377 -0.338541,-0.47188 1.706342,-0.62855 1.387037,-0.10627 1.851429,-0.0546 1.851429,0.206 0,0.63377 -2.714082,0.95611 -3.557771,0.42255 z m -15.99334,-2.92183 c -0.09254,-0.0925 0.331246,-0.82984 0.941745,-1.63844 0.83531,-1.10636 1.336369,-1.51265 2.024743,-1.64179 1.012281,-0.1899 1.498908,-0.006 1.498908,0.56743 0,0.27532 -0.248704,0.33764 -0.915585,0.22942 -0.847937,-0.13761 -0.991525,-0.0451 -1.943361,1.25153 -1.006754,1.37147 -1.267153,1.57115 -1.60645,1.23185 z"
       id="path1" />
  </g>
</svg>
