<?xml version="1.0" encoding="UTF-8" standalone="no"?>
<!-- Created with Inkscape (http://www.inkscape.org/) -->

<svg
   version="1.1"
   id="svg1"
   width="294.58286"
   height="294.58286"
   viewBox="0 0 294.58286 294.58286"
   sodipodi:docname="terlingua-large-a-outline.svg"
   inkscape:version="1.4 (86a8ad7, 2024-10-11)"
   xmlns:inkscape="http://www.inkscape.org/namespaces/inkscape"
   xmlns:sodipodi="http://sodipodi.sourceforge.net/DTD/sodipodi-0.dtd"
   xmlns="http://www.w3.org/2000/svg"
   xmlns:svg="http://www.w3.org/2000/svg">
  <defs
     id="defs1" />
  <sodipodi:namedview
     id="namedview1"
     pagecolor="#ffffff"
     bordercolor="#000000"
     borderopacity="0.25"
     inkscape:showpageshadow="2"
     inkscape:pageopacity="0.0"
     inkscape:pagecheckerboard="0"
     inkscape:deskcolor="#d1d1d1"
     inkscape:zoom="2.766624"
     inkscape:cx="147.47215"
     inkscape:cy="147.29143"
     inkscape:window-width="1920"
     inkscape:window-height="1017"
     inkscape:window-x="-8"
     inkscape:window-y="-8"
     inkscape:window-maximized="1"
     inkscape:current-layer="g1" />
  <g
     inkscape:groupmode="layer"
     inkscape:label="Image"
     id="g1">
    <path
       style="fill:#000000"
       d="m 182.92255,117.81831 c -1.14574,-0.19755 -2.34036,-0.49683 -2.65472,-0.66507 -0.31436,-0.16824 -1.53694,-0.27837 -2.71684,-0.24473 -1.1799,0.0336 -2.65376,-0.0906 -3.27525,-0.27605 -1.35489,-0.40433 -4.64889,-3.2631 -6.65031,-5.77162 -2.38153,-2.98493 -3.05241,-3.24515 -6.20829,-2.40801 -1.77319,0.47037 -3.57783,0.36527 -4.85495,-0.28273 -1.56397,-0.79356 -2.94498,-0.15517 -4.16394,1.92483 -0.83423,1.42351 -2.02783,2.18902 -4.35238,2.79137 -0.93698,0.2428 -2.43172,0.86818 -3.32163,1.38975 -2.22259,1.30262 -4.18156,1.68323 -9.77567,1.89931 -4.22662,0.16326 -5.20955,0.11442 -8.22857,-0.40887 -4.56429,-0.79114 -7.6654,-1.58375 -8.50286,-2.17325 -0.37714,-0.26548 -1.516,-0.83215 -2.53079,-1.25927 -1.01479,-0.42712 -2.01833,-1.03699 -2.2301,-1.35528 -0.21176,-0.31828 -1.04776,-0.97211 -1.85778,-1.45295 l -1.47276,-0.87426 -3.15428,0.38239 c -1.73486,0.21031 -3.28145,0.38773 -3.43687,0.39426 -0.15542,0.007 -1.14285,0.56647 -2.19429,1.24431 -1.05143,0.67784 -2.025409,1.23327 -2.164387,1.23428 -0.138979,0.001 -0.44755,0.17808 -0.685715,0.39347 -0.238164,0.21539 -1.297026,0.64196 -2.353026,0.94794 -1.056,0.30597 -3.154285,0.98958 -4.662857,1.51912 -3.11187,1.09233 -6.15302,1.52427 -10.75556,1.52764 -2.424929,0.002 -3.36998,0.1183 -4.467297,0.55082 -1.780731,0.7019 -1.907973,0.69422 -3.184581,-0.19219 -0.857035,-0.59508 -1.506968,-0.77726 -3.304758,-0.92634 -1.23085,-0.10207 -3.040313,-0.47335 -4.021028,-0.82507 l -1.783118,-0.6395 -2.836114,0.59036 c -4.201882,0.87465 -8.109335,1.44502 -9.967544,1.45495 -3.521377,0.0188 -4.273458,0.0183 -9.188571,-0.006 -2.790857,-0.0139 -5.401162,-0.0894 -5.800678,-0.16776 -0.854641,-0.16761 -1.112924,-0.87788 -0.762963,-2.09813 0.77517,-2.70286 1.140559,-6.20233 0.952407,-9.12156 -0.106955,-1.65943 -0.247667,-4.18972 -0.312694,-5.622862 -0.06503,-1.433143 -0.239888,-3.198075 -0.38858,-3.922072 -0.148692,-0.723997 -0.270349,-2.16994 -0.270349,-3.213207 0,-1.594639 0.08453,-1.942086 0.530539,-2.180785 0.855541,-0.457871 2.33467,-0.330027 4.257721,0.368003 1.274244,0.462525 2.146834,0.612402 3.003359,0.51586 0.664009,-0.07484 2.977963,0.117634 5.142121,0.427728 2.164157,0.310094 5.169117,0.704649 6.677688,0.876788 6.551415,0.747567 8.310424,1.209607 9.950926,2.613816 1.612097,1.379894 2.490502,1.572844 4.837976,1.062704 5.5364,-1.203139 8.318921,-1.749509 8.936812,-1.754812 1.113551,-0.0096 3.898552,-1.501525 4.987084,-2.671658 0.76212,-0.819253 1.468817,-1.229484 2.88,-1.671813 1.641621,-0.514559 2.674191,-0.598523 8.452916,-0.687354 3.709338,-0.05702 8.318941,-0.303082 10.560001,-0.563695 5.11847,-0.595228 18.18237,-1.027326 19.91131,-0.65858 0.96347,0.20549 1.56482,0.575409 2.46842,1.518456 1.05723,1.103389 1.40757,1.2868 3.04612,1.594718 1.01833,0.191363 1.92618,0.301782 2.01745,0.245374 0.0913,-0.05641 0.97925,-0.232486 1.97328,-0.391285 1.97253,-0.315112 2.91892,-0.113839 3.93376,0.836616 0.49916,0.467486 0.66124,0.491159 1.2547,0.183267 0.78267,-0.406055 1.93996,-1.691833 3.21435,-3.571226 0.58181,-0.858014 1.33736,-1.53494 2.20257,-1.973379 0.72434,-0.367049 1.69476,-0.985243 2.15649,-1.373764 2.20566,-1.855942 4.98928,-2.307159 8.01583,-1.299343 1.56888,0.52242 2.21083,0.578311 5.34858,0.465659 1.96114,-0.07041 4.18285,-0.216832 4.93714,-0.325384 3.07002,-0.441818 6.39272,0.162478 6.98571,1.270483 0.14269,0.266629 1.31473,1.005158 2.60452,1.641174 2.64387,1.303733 3.82027,2.194138 4.41283,3.340026 0.72262,1.397383 2.66671,2.022128 7.30897,2.348774 1.84964,0.130148 2.2127,0.07693 2.92234,-0.428382 0.44567,-0.317346 1.00571,-0.576993 1.24453,-0.576993 0.23882,0 0.76474,-0.524571 1.16872,-1.165714 1.78932,-2.839803 3.20985,-4.089443 5.03238,-4.426992 0.58691,-0.1087 1.65289,-0.758907 2.74286,-1.673037 2.3666,-1.98481 3.05439,-2.349418 5.48571,-2.908039 1.13143,-0.259959 2.55086,-0.663786 3.15429,-0.897395 0.7508,-0.290663 2.08037,-0.428545 4.21183,-0.436783 1.85617,-0.0072 3.76357,-0.18018 4.72058,-0.428166 0.88323,-0.228869 2.81419,-0.444869 4.29102,-0.48 2.3014,-0.05474 2.84678,0.02112 3.81621,0.530813 2.3076,1.213267 2.8934,1.238627 5.02414,0.2175 1.95764,-0.938173 5.3258,-3.070506 7.87751,-4.987135 1.30227,-0.978158 2.48526,-2.255685 3.74008,-4.038985 0.27104,-0.385194 0.63602,-0.700352 0.81106,-0.700352 0.17504,0 1.10419,0.805497 2.06478,1.789993 1.91448,1.962135 2.83191,3.690579 4.00888,7.552794 0.56367,1.849665 1.09574,2.869214 2.50496,4.8 2.49335,3.416141 3.11578,5.726019 2.10186,7.80007 -0.32063,0.655866 -0.66806,0.970052 -1.09667,0.991731 -0.34505,0.01745 -1.26965,0.472705 -2.05466,1.011674 -1.74589,1.198679 -2.51142,1.49988 -5.06459,1.992679 -3.27838,0.632776 -3.48518,0.783978 -8.2616,6.040382 -0.56084,0.6172 -1.32217,1.19316 -1.69184,1.27992 -0.36967,0.0868 -1.366,0.29695 -2.21406,0.4671 -1.55203,0.31139 -1.84717,0.5116 -3.13641,2.12766 -0.38726,0.48542 -1.5288,1.28771 -2.53678,1.78286 -1.78999,0.87931 -1.91577,0.90009 -5.4002,0.89228 -3.35529,-0.008 -3.65728,-0.0536 -5.0761,-0.7748 -0.82972,-0.42175 -1.75825,-0.9996 -2.0634,-1.28413 -0.49629,-0.46274 -4.5261,-1.62912 -5.64543,-1.63401 -0.24215,-0.001 -0.9416,0.7078 -1.55433,1.57523 -1.58972,2.25049 -3.03567,3.65611 -4.67379,4.54342 -0.78388,0.4246 -2.41097,1.75773 -3.61575,2.96252 -3.11761,3.1176 -4.1422,3.5372 -9.3447,3.82686 -2.24159,0.1248 -4.48155,0.2862 -4.97768,0.35865 -0.49614,0.0725 -1.83949,-0.0299 -2.98523,-0.22743 z m 8.39173,-1.48933 c 4.4022,-0.26619 5.19479,-0.6171 8.17963,-3.62132 1.23375,-1.24176 2.82803,-2.52314 3.75197,-3.0156 1.57483,-0.83937 2.76266,-2.0417 4.66019,-4.71706 0.5113,-0.7209 1.19683,-1.37778 1.5234,-1.45975 0.32656,-0.082 1.62996,0.0963 2.89643,0.3961 1.26647,0.29981 2.61124,0.48789 2.98838,0.41794 0.53949,-0.10005 0.78016,0.0421 1.12861,0.66648 1.37189,2.45841 7.71036,3.10077 11.61739,1.17735 1.41173,-0.695 1.82937,-1.05131 2.09578,-1.78805 0.36413,-1.00698 1.40286,-1.64623 3.16488,-1.9477 2.82398,-0.48317 3.05489,-0.61765 4.74833,-2.765342 2.53384,-3.213538 4.84061,-4.693949 8.04408,-5.162434 1.64605,-0.240724 3.07299,-0.82293 4.30951,-1.75832 0.528,-0.399419 1.32896,-0.911854 1.77991,-1.138745 0.98743,-0.496812 1.37976,-1.48677 1.12577,-2.840647 -0.19565,-1.042917 -2.11326,-4.090516 -3.48539,-5.539226 -0.43545,-0.459754 -0.79428,-1.076896 -0.7974,-1.371429 -0.009,-0.848249 -1.77889,-5.743023 -2.54511,-7.038647 -0.38279,-0.647276 -1.13925,-1.656564 -1.68101,-2.242862 l -0.98503,-1.065996 -0.77831,1.074417 c -1.70184,2.349328 -7.24595,6.383965 -11.49555,8.365715 -2.3896,1.114356 -2.79569,1.207105 -3.56446,0.814084 -3.32861,-1.701699 -3.55606,-1.760884 -6.04201,-1.572181 -1.31371,0.09972 -3.06741,0.362433 -3.89713,0.583806 -0.82971,0.221373 -2.33277,0.403962 -3.34012,0.405752 -1.73811,0.0031 -1.8673,0.04873 -2.5323,0.894684 -0.90842,1.155587 -0.63128,1.204058 2.60637,0.455851 3.5417,-0.818473 4.44607,-0.90442 5.57976,-0.53027 1.39926,0.461797 1.26608,0.950509 -0.18799,0.689846 -1.57965,-0.283175 -1.76286,-0.272219 -3.51357,0.210105 -0.83875,0.231077 -2.75189,0.627499 -4.25143,0.880939 -1.49954,0.25344 -2.84369,0.574878 -2.987,0.714307 -0.14332,0.13943 -0.52708,0.253508 -0.85282,0.253508 -0.68942,0 -3.02781,1.963436 -3.27829,2.752628 -0.19278,0.607411 -0.95689,0.739958 -0.95689,0.165989 0,-0.848234 2.24044,-2.893879 4.26513,-3.894299 2.25927,-1.116325 3.58944,-2.372969 2.70129,-2.551977 -0.27039,-0.0545 -1.4856,0.209908 -2.70045,0.58757 -1.21486,0.377662 -2.82597,0.830432 -3.58026,1.006156 -0.78397,0.182638 -1.72391,0.647526 -2.19429,1.085282 -1.72307,1.603564 -3.52693,2.758321 -4.95925,3.174708 -1.54413,0.44889 -2.11065,1.003511 -4.39783,4.305475 -1.13015,1.631576 -2.71274,2.249902 -5.72863,2.238197 -5.43718,-0.0211 -7.05652,-0.577089 -8.91429,-3.06064 -0.74482,-0.995712 -1.48258,-1.542938 -3.29142,-2.441387 -1.28229,-0.636907 -2.71975,-1.536556 -3.19436,-1.999222 -1.02865,-1.002772 -3.5674,-1.549432 -5.25058,-1.130588 -1.0009,0.249066 -5.8743,0.472636 -8.83506,0.405314 -0.82972,-0.01887 -2.29284,-0.300371 -3.2514,-0.625567 -2.19481,-0.744608 -3.60516,-0.571896 -5.58855,0.684377 -0.79517,0.503659 -2.08003,1.296351 -2.85525,1.761537 -0.77521,0.465185 -1.71433,1.304618 -2.08692,1.865405 -1.913,2.879239 -4.01072,4.664965 -5.13471,4.371034 -0.61586,-0.161051 -1.51746,0.373689 -1.51746,0.900008 0,0.746936 -2.03141,1.508572 -4.02362,1.508572 -1.5643,0 -1.93306,-0.09745 -2.54532,-0.672636 -0.69289,-0.650944 -1.79819,-0.829719 -3.27582,-0.529844 -0.95294,0.19339 -0.75766,-0.523836 0.23151,-0.850289 1.2285,-0.405441 2.39758,-0.155245 3.46279,0.741076 1.20575,1.014568 3.06242,0.763284 4.91511,-0.665213 0.74202,-0.572131 1.35438,-1.128466 1.36081,-1.236301 0.006,-0.107835 -0.23813,-0.329758 -0.54345,-0.493161 -0.4021,-0.215198 -1.15084,-0.205904 -2.71615,0.03372 -1.72732,0.264423 -2.58097,0.258979 -4.25358,-0.02713 -1.15091,-0.196869 -2.15764,-0.463242 -2.23718,-0.591939 -0.20543,-0.332389 -3.61161,-0.287436 -4.8787,0.06439 -0.58499,0.162427 -1.35642,0.588128 -1.71429,0.946003 -0.55084,0.55084 -0.65068,0.923418 -0.65068,2.42815 0,2.059633 -0.34709,3.184609 -0.98256,3.184609 -0.32451,0 -0.38902,-0.131971 -0.23463,-0.48 0.11711,-0.264 0.30471,-1.529143 0.41689,-2.811428 0.11218,-1.282286 0.21471,-2.421921 0.22784,-2.532523 0.0694,-0.583989 2.9699,-1.63943 4.90833,-1.786034 l 2.0649,-0.156168 -0.72667,-0.625061 c -1.53547,-1.320751 -5.32015,-1.082468 -7.44242,0.468574 -0.59544,0.435166 -1.18172,0.791212 -1.30286,0.791212 -0.45275,0 -0.19554,-0.596634 0.53404,-1.238775 l 0.75428,-0.66389 -2.33143,-0.0026 -2.33143,-0.0026 0.68162,0.523713 c 1.13703,0.873627 0.35905,0.990961 -1.23129,0.185701 l -1.49429,-0.756629 -7.20659,0.724583 c -4.06908,0.409124 -8.460444,0.696223 -10.086588,0.659442 -5.568701,-0.125956 -5.171728,-0.231873 -7.400002,1.97441 -1.328687,1.315575 -2.061862,1.861574 -2.248768,1.674668 -0.186905,-0.186905 0.273787,-0.823321 1.41302,-1.95199 0.929687,-0.921067 1.639524,-1.674668 1.577414,-1.674668 -0.06211,0 -0.829997,0.246708 -1.706414,0.54824 -1.119745,0.385249 -1.86314,0.863268 -2.500496,1.607875 -0.498854,0.582799 -1.293522,1.219734 -1.765927,1.415411 -0.722032,0.299075 -0.787066,0.395988 -0.408061,0.60809 0.247973,0.138772 0.952833,0.167506 1.566355,0.06385 0.85903,-0.145132 1.087915,-0.105718 0.995531,0.171434 -0.187465,0.562395 -1.804994,0.871286 -2.780955,0.531065 -0.729416,-0.254276 -1.046431,-0.196961 -2.188829,0.395737 -1.361825,0.70654 -2.375011,0.671485 -1.394419,-0.04825 0.464945,-0.341258 0.387589,-0.363534 -0.712734,-0.205247 -0.678858,0.09766 -2.900572,0.54528 -4.937143,0.994715 -2.036572,0.449436 -4.266954,0.838352 -4.956405,0.864258 -1.255468,0.04717 -1.999751,-0.318486 -4.104093,-2.016308 C 62.750034,94.739048 60.598013,94.154049 57.6,93.807284 49.892833,92.915835 48.224533,92.707122 46.506596,92.419443 c -1.047658,-0.175436 -2.524584,-0.259425 -3.282058,-0.186641 -1.025117,0.0985 -1.819504,-0.03414 -3.107143,-0.518806 -1.80118,-0.677962 -3.216093,-0.836633 -3.491196,-0.391508 -0.08825,0.142798 0.01902,1.531369 0.238387,3.085715 0.219366,1.554345 0.543344,5.232939 0.719951,8.174657 0.302265,5.03476 0.287329,5.5364 -0.254573,8.55003 -0.316623,1.7608 -0.575679,3.35301 -0.575679,3.53823 0,0.25455 0.71992,0.30032 2.948572,0.18748 1.621714,-0.0821 4.368,-0.0658 6.102857,0.0362 4.88877,0.28751 12.75882,-0.46313 15.686842,-1.4962 1.570235,-0.55401 2.583558,-0.4926 4.831619,0.29283 1.13557,0.39674 2.572435,0.68571 3.409627,0.68571 1.843383,0 3.142534,0.37435 3.958086,1.14052 l 0.644046,0.60505 1.712033,-0.58815 c 1.349558,-0.46362 2.350827,-0.58718 4.729175,-0.58359 4.741167,0.007 7.725987,-0.4395 11.052429,-1.65398 1.614878,-0.5896 3.487227,-1.2168 4.160775,-1.39378 0.673547,-0.17699 1.523336,-0.55676 1.888418,-0.84393 0.365083,-0.28718 0.792822,-0.52214 0.950531,-0.52214 0.15771,0 1.035921,-0.48259 1.951585,-1.07243 1.94337,-1.25186 5.34321,-1.99957 9.09201,-1.99957 0.92779,0 3.16085,1.21748 4.64139,2.53052 0.97822,0.86754 5.16596,2.87956 6.99512,3.36083 2.71654,0.71476 7.86405,1.54225 10.0106,1.60926 2.3808,0.0743 7.44836,-0.26279 9.46286,-0.62952 0.82971,-0.15104 2.20441,-0.69634 3.05488,-1.21178 0.85047,-0.51543 2.33161,-1.1357 3.29143,-1.37838 2.30297,-0.58229 3.33911,-1.24989 4.188,-2.69841 1.53627,-2.62144 2.93958,-3.11797 5.76086,-2.03833 1.33702,0.51165 1.73382,0.55068 3.11012,0.30589 0.86766,-0.15433 1.95694,-0.43708 2.42062,-0.62835 0.46368,-0.19127 1.14254,-0.272 1.50857,-0.17939 1.15251,0.29157 2.82425,1.55697 3.8125,2.88578 0.52398,0.70457 1.94331,2.24195 3.15406,3.41641 2.66113,2.58137 3.83344,3.05005 6.92771,2.76965 1.48337,-0.13442 2.09817,-0.0858 2.43327,0.19227 0.66324,0.55044 3.86692,1.07315 5.59512,0.91289 0.82971,-0.0769 3.11314,-0.23692 5.07428,-0.3555 z m -0.35059,-1.4672 c -0.65554,-0.31586 -0.67781,-0.97566 -0.0266,-0.78655 1.94911,0.56597 2.86852,0.10858 3.80627,-1.89356 0.35299,-0.75363 0.81415,-1.37024 1.02482,-1.37024 0.49726,0 0.24585,0.85608 -0.69647,2.37156 -1.12839,1.81476 -2.58798,2.41123 -4.10807,1.67879 z M 48.156734,113.94612 c -0.615685,-0.61568 -0.573646,-0.80397 0.791748,-3.54612 l 1.229172,-2.46857 -0.308043,-1.94567 c -0.264448,-1.6703 -0.238101,-2.20405 0.186168,-3.77142 0.299696,-1.10717 0.640122,-1.82577 0.86493,-1.82577 0.46374,0 0.460458,0.10102 -0.05793,1.78286 -0.3197,1.03723 -0.378698,1.97862 -0.242106,3.86312 l 0.180602,2.49168 -1.126353,2.12592 c -1.110198,2.09543 -1.356739,2.90213 -0.886934,2.90213 0.131681,0 0.812004,-0.25328 1.51183,-0.56284 1.086561,-0.48064 1.39699,-0.80964 2.125342,-2.2525 0.732133,-1.45035 1.407563,-3.91511 2.06876,-7.54928 0.185323,-1.0186 0.792155,-1.04433 0.742057,-0.0315 -0.08913,1.8019 -1.28382,6.18429 -2.160485,7.92511 -0.890976,1.76925 -1.102979,1.99469 -2.459118,2.615 -1.746558,0.79889 -1.893734,0.81372 -2.459642,0.24781 z m 26.231172,-0.32326 c 1.676541,-3.37491 1.863108,-3.87889 1.863306,-5.03336 3.49e-4,-2.03541 0.438291,-2.79992 2.87408,-5.01724 1.26067,-1.1476 2.364065,-2.08655 2.451989,-2.08655 0.591208,0 -0.146702,0.98379 -2.166811,2.8888 l -2.336185,2.20308 v 1.64466 c 0,1.31165 -0.192206,2.04572 -0.949289,3.62549 -0.601066,1.25421 -1.112524,1.98083 -1.394285,1.98083 -0.244749,0 -0.399011,-0.0926 -0.342805,-0.20571 z M 130.56,113.32635 c 0,-0.32189 1.33368,-0.99838 1.54724,-0.78482 0.28059,0.28059 -0.46567,1.01275 -1.03225,1.01275 -0.28325,0 -0.51499,-0.10257 -0.51499,-0.22793 z m 4.38857,-0.55665 c 0,-0.36782 1.26412,-2.14072 2.39941,-3.36511 0.56604,-0.61047 1.12787,-1.28424 1.24851,-1.49727 0.23703,-0.41856 1.01494,-0.53639 1.01494,-0.15372 0,0.12847 -0.755,1.08505 -1.67778,2.12571 -0.92278,1.04066 -1.80659,2.16983 -1.96403,2.50926 -0.27458,0.59199 -1.02105,0.87063 -1.02105,0.38113 z m -88.418884,-0.22859 c -0.09647,-0.0965 -0.177882,-0.86454 -0.180916,-1.70683 -0.003,-0.84228 -0.126479,-2.33371 -0.274324,-3.31428 -0.296579,-1.96704 -0.0859,-4.73906 0.34915,-4.59404 0.152588,0.0509 0.301861,1.07447 0.331719,2.27469 0.02986,1.20021 0.154195,3.306 0.276303,4.67952 0.206341,2.32101 0.03999,3.20287 -0.501932,2.66094 z m 82.721744,-0.68397 c 0.12494,-0.37482 1.53821,-0.9075 1.77623,-0.66948 0.0875,0.0875 0.003,0.34721 -0.18787,0.57714 -0.41116,0.49542 -1.74864,0.57317 -1.58836,0.0923 z m -4.3438,-1.49757 c -0.47254,-1.06848 -0.5969,-1.63715 -0.40091,-1.83315 0.3511,-0.3511 0.33826,-0.36831 1.06667,1.43016 0.67527,1.66727 0.72029,1.95199 0.30866,1.95199 -0.15916,0 -0.59765,-0.69705 -0.97442,-1.549 z m -53.586889,0.79471 c 0.01,-0.74143 1.0136,-4.34893 1.488072,-5.3488 0.233367,-0.49179 1.296014,-1.9953 2.361437,-3.34114 1.065424,-1.34583 2.006829,-2.795454 2.092013,-3.221372 0.165875,-0.829376 0.558097,-1.019355 0.800476,-0.387725 0.216233,0.563495 -0.57046,1.944207 -2.427171,4.259887 -1.815206,2.26391 -2.404314,3.41584 -3.094334,6.05058 -0.256804,0.98057 -0.510622,1.93715 -0.564039,2.12572 -0.146901,0.51858 -0.663821,0.41059 -0.656454,-0.13715 z m 8.885142,-0.006 c -0.495771,-0.41128 -1.760169,-2.33921 -1.760169,-2.68387 0,-0.0668 0.182634,-0.12146 0.405854,-0.12146 0.22322,0 0.645319,0.46939 0.938,1.04309 0.646769,1.26777 1.712136,1.85145 2.491268,1.36487 0.655549,-0.4094 1.027762,-0.0995 0.55895,0.46541 -0.46336,0.55831 -1.924364,0.52057 -2.633903,-0.068 z m 100.548397,-0.45605 c 0,-1.32587 0.3204,-2.037 2.18293,-4.84511 0.90085,-1.35819 1.8499,-3.14196 2.10901,-3.96394 0.50922,-1.61544 0.9211,-1.94799 0.91681,-0.74023 -0.004,1.01289 -1.03172,3.1596 -2.69061,5.61798 -1.37711,2.04078 -2.06312,3.76193 -1.78662,4.48248 0.0915,0.23848 -0.0219,0.39096 -0.29074,0.39096 -0.31929,0 -0.44078,-0.25966 -0.44078,-0.94214 z m 7.13143,0.0247 c 0,-0.20291 0.24686,-0.59232 0.54857,-0.86537 0.30172,-0.27305 0.54858,-0.73447 0.54858,-1.02537 0,-0.30516 0.14504,-0.47745 0.34285,-0.40725 0.50286,0.17844 0.28073,1.31741 -0.39779,2.03967 -0.66587,0.70878 -1.04221,0.80206 -1.04221,0.25832 z M 41.722606,109.96011 c -0.331224,-0.95015 -0.403929,-4.41347 -0.127736,-6.08473 0.211869,-1.28204 0.811987,-1.19294 0.705948,0.10481 -0.04198,0.51375 -0.123111,1.48952 -0.180296,2.16838 -0.08795,1.0441 0.07415,2.53444 0.445864,4.09916 0.186512,0.78512 -0.55833,0.53122 -0.84378,-0.28762 z m 79.511674,0.58994 c 0,-0.56495 0.65949,-1.66705 0.9387,-1.5687 0.54853,0.19323 -0.0758,1.83008 -0.69799,1.83008 -0.13239,0 -0.24071,-0.11762 -0.24071,-0.26138 z m -55.037124,-0.43708 c -0.471625,-1.22903 1.16712,-7.09136 2.353466,-8.41911 0.698463,-0.78172 0.897068,-0.84755 2.624058,-0.86979 1.266971,-0.0163 1.906534,0.0863 1.986861,0.31879 0.08608,0.24913 -0.327537,0.34285 -1.513123,0.34285 -2.362017,0 -2.839546,0.46998 -3.879845,3.81848 -0.853886,2.74847 -1.068111,4.41009 -0.568573,4.41009 0.150857,0 0.274285,-0.0968 0.274285,-0.21514 0,-0.30124 1.501804,-1.15628 2.030892,-1.15628 0.706953,0 0.502894,0.455 -0.365348,0.81464 -0.441665,0.18294 -1.016224,0.5682 -1.276797,0.85613 -0.571424,0.63142 -1.441782,0.68332 -1.665876,0.0993 z m 20.094871,-0.34228 c -0.609372,-1.17839 -1.244617,-3.95132 -1.085826,-4.73977 0.130682,-0.64888 -0.170828,-2.74648 -0.623289,-4.33621 -0.139726,-0.49094 -0.0903,-0.6224 0.198351,-0.52759 0.603688,0.1983 1.100641,2.09764 1.100641,4.20662 0,1.33977 0.204418,2.51276 0.669281,3.84045 0.368104,1.05134 0.669819,2.00409 0.670476,2.11724 0.0028,0.48658 -0.565233,0.14394 -0.929634,-0.56074 z m 57.605033,-0.2929 c -0.64186,-0.70924 -0.9942,-2.09175 -0.9942,-3.90096 0,-0.84445 -0.18381,-2.14126 -0.40846,-2.88181 -0.49431,-1.62943 -0.51728,-2.11217 -0.0938,-1.97101 0.54402,0.18134 1.05438,2.13313 1.29173,4.94001 0.15678,1.85415 0.36655,2.83785 0.67872,3.18279 0.48343,0.53418 0.60051,1.14176 0.22003,1.14176 -0.12747,0 -0.43978,-0.22985 -0.69402,-0.51078 z M 43.746613,107.72571 c -0.253397,-1.71027 -0.05802,-4.11997 0.344815,-4.25272 0.259088,-0.0854 0.342857,0.56275 0.342857,2.65272 0,2.82986 -0.37588,3.70441 -0.687672,1.6 z m 51.160075,0.28322 c -0.886304,-1.45741 -0.982006,-3.03035 -0.293482,-4.82362 0.329945,-0.85935 0.721038,-1.9636 0.869096,-2.45388 0.490822,-1.625331 0.96841,-1.147865 1.369704,1.36935 0.248317,1.55764 1.223157,3.53383 2.024929,4.10494 0.180658,0.12869 0.180145,0.28691 -0.0015,0.46858 -0.150857,0.15086 -0.401241,0.18685 -0.556408,0.08 -0.552379,-0.38041 -2.044792,-2.90368 -2.048921,-3.46417 -0.01006,-1.36625 -0.482306,-1.30996 -0.955218,0.11384 -0.567111,1.70741 -0.424842,3.31866 0.390394,4.42132 0.678937,0.91831 0.700231,1.06615 0.153564,1.06615 -0.228503,0 -0.656965,-0.39712 -0.952137,-0.8825 z M 176.64,107.82787 c 0,-0.58496 0.17415,-1.20809 0.38701,-1.38475 0.51578,-0.42806 0.82513,0.0752 0.46261,0.75258 -0.15009,0.28044 -0.20311,0.77671 -0.11783,1.10281 0.11169,0.42713 0.0311,0.59292 -0.28837,0.59292 -0.33213,0 -0.44342,-0.26693 -0.44342,-1.06356 z m 7.54165,0.78733 c -0.0944,-0.15275 0.19939,-0.58992 0.65287,-0.9715 0.45348,-0.38158 1.52426,-1.62352 2.3795,-2.75988 1.35921,-1.80596 4.26284,-4.49458 4.85455,-4.49508 0.60181,-5e-4 0.0327,0.81757 -1.26717,1.8214 -0.80893,0.62472 -1.82127,1.61215 -2.24963,2.19428 -2.41372,3.28021 -4.00038,4.80902 -4.37012,4.21078 z m -49.21086,-0.77939 c -0.53631,-1.00212 -0.22534,-4.46204 0.34815,-3.87358 0.20576,0.21112 0.32025,4.05572 0.12655,4.24942 -0.098,0.098 -0.31162,-0.0711 -0.4747,-0.37584 z m 9.62369,-0.38438 c -0.5805,-1.91003 -0.5731,-2.2834 0.0729,-3.67772 0.35622,-0.76886 0.78378,-1.48204 0.95014,-1.58486 0.52016,-0.32148 0.33978,0.95461 -0.2757,1.95049 -0.51075,0.82641 -0.54274,1.07628 -0.27429,2.14241 0.16714,0.66378 0.3039,1.39908 0.3039,1.63399 0,0.75346 -0.49714,0.45636 -0.77695,-0.46431 z m -92.872563,0.3737 c -0.262125,-0.42413 0.312875,-6.50123 0.680043,-7.18729 0.448872,-0.838725 0.880505,-0.27886 0.561293,0.72805 -0.140456,0.44304 -0.331765,2.0382 -0.425131,3.54478 -0.162011,2.61429 -0.423861,3.54928 -0.816205,2.91446 z m 8.478737,-0.68636 c -0.213673,-0.51139 -0.473368,-1.94749 -0.577099,-3.19132 -0.15663,-1.87812 -0.123271,-2.23985 0.196778,-2.13369 0.252507,0.0837 0.448258,0.75606 0.567745,1.94994 0.1003,1.00217 0.266878,2.20691 0.370173,2.67721 l 0.18781,0.85509 0.814754,-0.77943 c 1.285412,-1.22968 1.919242,-2.42156 1.71677,-3.22827 -0.226885,-0.90398 0.332345,-0.94775 0.737856,-0.0578 0.229694,0.50412 0.192834,0.84548 -0.166287,1.53994 -0.613434,1.18625 -2.578907,3.29808 -3.069512,3.29808 -0.21477,0 -0.565315,-0.41841 -0.778988,-0.9298 z m 67.179816,-0.0381 c -0.91021,-0.96511 -1.41765,-2.48139 -1.10397,-3.29882 0.24691,-0.64344 0.71778,-0.19955 0.71778,0.67666 0,0.99926 1.09128,2.60668 1.84352,2.71547 0.74618,0.1079 1.39404,-0.8365 1.66577,-2.42824 0.24828,-1.45438 0.88196,-1.81098 0.87326,-0.49142 -0.008,1.18591 -0.89136,3.1195 -1.59834,3.49787 -0.91693,0.49072 -1.44004,0.34423 -2.39802,-0.67152 z m 46.32594,0.51577 c -0.0954,-0.24869 0.24541,-1.69897 0.75742,-3.22286 0.75423,-2.24483 0.92739,-3.17414 0.91232,-4.896408 -0.013,-1.482639 0.0811,-2.125714 0.31106,-2.125714 0.3984,0 0.74604,2.241132 0.49981,3.222182 -0.24176,0.96325 0.28317,0.60162 1.17315,-0.808186 0.47745,-0.756331 0.78691,-1.016631 0.97958,-0.82396 0.32409,0.324094 -1.54413,3.346636 -2.06928,3.347816 -0.3814,8.6e-4 -1.82476,3.96835 -1.82476,5.01588 0,0.81933 -0.46618,1.00298 -0.7393,0.29125 z m -91.104395,-0.5799 c -0.418437,-1.06159 -0.496662,-3.9821 -0.110111,-4.11096 0.318202,-0.10606 0.479299,0.59286 0.725319,3.14681 0.15457,1.6046 -0.165224,2.10578 -0.615208,0.96415 z m 88.179095,0.56746 c -0.26645,-0.26645 -0.20977,-1.75413 0.10776,-2.82864 0.15574,-0.527 0.39711,-2.21527 0.53637,-3.75171 0.20862,-2.301494 0.42118,-3.146929 1.20687,-4.800001 1.27128,-2.674768 3.45932,-5.224562 3.45932,-4.031258 0,0.168656 -0.37172,0.730012 -0.82604,1.247457 -0.45433,0.517445 -1.26963,1.821642 -1.81178,2.898214 -0.8374,1.662865 -1.02218,2.372843 -1.22793,4.718258 -0.13321,1.51847 -0.36705,3.19204 -0.51965,3.71904 -0.1526,0.52701 -0.27746,1.35286 -0.27746,1.83524 0,0.86555 -0.30592,1.33493 -0.64746,0.9934 z m 33.67816,-0.17623 c -0.0847,-0.22072 0.0396,-1.05323 0.27622,-1.85002 0.23662,-0.7968 0.43022,-1.8686 0.43022,-2.38179 0,-0.62449 0.11339,-0.89532 0.34286,-0.81892 0.55044,0.18328 0.56283,0.94918 0.0506,3.12443 -0.48717,2.06867 -0.82093,2.65322 -1.09987,1.9263 z m -58.37278,-0.3416 c -0.43018,-1.12103 0.4254,-4.77757 1.11789,-4.77757 0.46872,0 0.45552,0.25615 -0.0792,1.53582 -0.28339,0.67825 -0.39557,1.52168 -0.31454,2.36492 0.0894,0.93095 0.0269,1.31069 -0.21588,1.31069 -0.18801,0 -0.41674,-0.19524 -0.50831,-0.43386 z m -30.89406,-0.40315 c -0.16564,-0.30949 -0.25902,-0.83406 -0.20752,-1.16571 0.0856,-0.55137 0.13406,-0.52785 0.56579,0.27481 0.25969,0.4828 0.47216,1.00737 0.47216,1.16572 0,0.48814 -0.51296,0.31839 -0.83043,-0.27482 z m 3.48185,0.37987 c -0.3979,-0.39791 -0.1424,-1.21556 0.66842,-2.13903 0.78488,-0.89393 1.6173,-1.27819 1.6173,-0.74658 0,0.12264 -0.37029,0.57773 -0.82286,1.01132 -0.45257,0.43359 -0.82286,1.07383 -0.82286,1.42275 0,0.62108 -0.27584,0.8157 -0.64,0.45154 z M 188.16,106.70998 c 0,-0.1438 0.56696,-0.51225 1.25991,-0.81877 1.82638,-0.8079 3.89817,-2.65227 4.55936,-4.05889 0.52277,-1.11214 1.14448,-1.70285 1.46008,-1.38726 0.31207,0.31207 -1.67517,3.314 -2.83459,4.28196 -2.09077,1.74549 -4.44476,2.79569 -4.44476,1.98296 z m -85.62242,-1.04141 c -0.81844,-0.85947 -2.971866,-4.19916 -2.971866,-4.60898 0,-0.0674 0.17452,-0.12245 0.387822,-0.12245 0.213304,0 0.820434,0.77143 1.349174,1.71429 0.52874,0.94286 1.34165,2.0768 1.80646,2.51989 0.7966,0.75935 1.11131,1.52582 0.62649,1.52582 -0.12024,0 -0.65938,-0.46285 -1.19808,-1.02857 z m 65.05099,0.60087 c 0,-0.23524 0.51026,-1.46708 1.13392,-2.73741 0.904,-1.84138 1.10231,-2.50444 0.97806,-3.27013 -0.15744,-0.970172 0.15085,-1.525263 0.51757,-0.931899 0.50587,0.818509 0.12967,2.703519 -0.99797,5.000419 -1.10668,2.25424 -1.63158,2.87804 -1.63158,1.93902 z m -46.35248,-1.0123 c 0.003,-0.58879 0.89712,-1.72024 2.54647,-3.22278 1.19804,-1.0914 1.66692,-1.7409 1.90832,-2.64349 0.3122,-1.167284 1.03511,-1.673613 1.0231,-0.716585 -0.0131,1.041463 -1.09447,2.783335 -2.44206,3.933565 -0.77923,0.66511 -1.66811,1.61044 -1.97529,2.10072 -0.56979,0.90942 -1.06379,1.16495 -1.06054,0.54857 z m 18.5265,-0.27428 c -0.25847,-0.83679 -0.41593,-4.86857 -0.19014,-4.86857 0.36195,0 0.86183,2.21821 0.86183,3.82431 0,1.26066 -0.40862,1.89593 -0.67169,1.04426 z m 23.40218,-0.64105 c -0.18249,-0.44195 -0.33446,-2.08586 -0.34009,-3.67895 -0.008,-2.348459 0.10238,-3.164201 0.59974,-4.419837 0.63808,-1.610893 1.51517,-2.676835 1.81002,-2.19975 0.0929,0.150312 -0.13215,0.716928 -0.50011,1.259147 -1.14948,1.693861 -1.57329,5.14704 -0.9945,8.10329 0.28993,1.48086 -0.0928,2.10393 -0.57506,0.9361 z m 53.95958,0.13344 c -0.40287,-0.3169 -1.09794,-1.38214 -1.54459,-2.36721 l -0.81209,-1.79103 -1.23527,0.13923 c -0.90628,0.10215 -1.23526,0.0436 -1.23526,-0.22002 0,-0.501359 0.96942,-0.755519 2.08409,-0.546404 0.83514,0.156673 1.04921,0.395194 1.93111,2.151764 1.079,2.14916 1.23755,2.32141 2.36194,2.56586 0.41486,0.0902 0.75429,0.27199 0.75429,0.40399 0,0.46406 -1.57993,0.23355 -2.30422,-0.33618 z m -109.04421,-0.45239 c -0.71846,-1.54496 -0.81557,-2.35874 -0.52833,-4.427051 0.31067,-2.236889 0.39526,-2.466526 0.76215,-2.068952 0.13227,0.143338 0.12229,1.197274 -0.0227,2.394849 -0.23219,1.918084 -0.20043,2.259674 0.30776,3.309454 0.66644,1.37668 0.68826,1.54598 0.19928,1.54598 -0.20207,0 -0.52525,-0.33943 -0.71817,-0.75428 z m 56.75595,-0.36084 c -0.48198,-0.90058 0.18005,-6.564878 0.76729,-6.564878 0.33824,0 0.37382,0.252472 0.20293,1.44 -0.11398,0.792 -0.23958,2.341698 -0.27911,3.443778 -0.0806,2.24704 -0.21426,2.57211 -0.69111,1.6811 z m 37.03819,-0.85098 c 0,-0.47793 0.13503,-1.64436 0.30007,-2.59206 0.33396,-1.917735 0.0154,-3.490669 -0.76786,-3.791227 -0.61531,-0.236117 -2.43987,1.033493 -2.97647,2.071164 -0.29495,0.570362 -0.53385,0.764114 -0.7167,0.581257 -0.57965,-0.57965 1.31896,-2.85856 2.86049,-3.433458 0.65242,-0.243314 1.72747,0.197623 1.98039,0.812272 0.52456,1.274773 0.59561,2.382307 0.28097,4.380042 -0.1867,1.18539 -0.28093,2.30954 -0.2094,2.49811 0.0715,0.18857 -0.0683,0.34286 -0.31071,0.34286 -0.31209,0 -0.44078,-0.2537 -0.44078,-0.86896 z m -97.15639,-0.38584 c -0.28233,-0.61965 -0.43645,-0.68471 -1.25721,-0.53074 -0.98653,0.18508 -1.1418,-0.23308 -0.28681,-0.7724 0.92063,-0.58072 2.42613,0.50397 2.42613,1.74799 0,0.5281 -0.56971,0.24079 -0.88211,-0.44485 z m 5.69641,0.36337 c -0.34175,-1.1093 -0.40369,-1.98179 -0.24709,-3.480115 0.0967,-0.924959 0.28271,-1.6461 0.41341,-1.602535 0.31452,0.10484 0.4913,5.42551 0.18027,5.42551 -0.13253,0 -0.2885,-0.15429 -0.34659,-0.34286 z m 1.52672,-0.54857 c 0.0408,-1.12155 0.28669,-2.10643 0.70126,-2.809144 0.74676,-1.265782 0.70188,0.332369 -0.0904,3.220574 -0.22334,0.81414 -0.6451,0.53006 -0.61083,-0.41143 z m 107.67194,-0.27429 c -0.8514,-0.85641 -3.09948,-4.574289 -3.30687,-5.468901 -0.28893,-1.246362 0.31667,-1.129654 0.89245,0.171987 0.85215,1.926411 3.03244,5.143554 3.40336,5.021834 0.69964,-0.22959 1.05495,-2.694697 0.87244,-6.052845 -0.14294,-2.630007 -0.0861,-3.575206 0.30115,-5.005715 0.26255,-0.969924 0.59852,-1.763499 0.7466,-1.763499 0.2569,0 0.23151,0.323959 -0.3009,3.84 -0.1028,0.678857 -0.0717,2.020423 0.069,2.981257 0.17817,1.216101 0.15429,2.339759 -0.0786,3.697693 -0.52491,3.061049 -1.32728,3.857089 -2.59869,2.578189 z M 91.906574,100.45714 c -0.680136,-1.391034 -1.131253,-4.731426 -0.638975,-4.731426 0.33724,0 0.609254,0.923078 0.614369,2.084862 0.0021,0.467817 0.312317,1.43092 0.68946,2.140228 0.776032,1.459516 0.839609,1.809196 0.328941,1.809196 -0.196225,0 -0.643432,-0.58629 -0.993795,-1.30286 z m 25.487706,1.06425 c 0,-0.13124 0.54175,-0.29968 1.20387,-0.37431 1.76336,-0.19876 3.18826,-1.00686 4.23929,-2.404224 0.8567,-1.138986 1.69019,-1.724902 1.68689,-1.185826 -0.004,0.642107 -2.19611,3.03744 -3.28172,3.58583 -1.21659,0.61455 -3.84833,0.87342 -3.84833,0.37853 z m 81.73715,-0.002 c 0,-0.34212 0.70433,-0.88354 0.89776,-0.69011 0.26503,0.26503 -0.10382,0.93081 -0.51568,0.93081 -0.21015,0 -0.38208,-0.10832 -0.38208,-0.2407 z m -41.09741,-1.885015 c -0.80523,-2.056209 -1.11156,-6.24 -0.45688,-6.24 0.15086,0 0.30283,0.493714 0.33771,1.097143 0.1028,1.778423 0.65522,4.8 0.87756,4.8 0.113,0 0.3628,-0.894857 0.55512,-1.988571 0.19232,-1.093715 0.50762,-2.373584 0.70067,-2.844153 0.32343,-0.788394 1.33532,-1.750133 1.8414,-1.750133 0.37852,0 0.22625,0.759179 -0.18383,0.916543 -0.61486,0.235945 -1.14389,1.487261 -1.63151,3.859046 -0.24536,1.193431 -0.58327,2.335145 -0.75091,2.53714 -0.48037,0.57881 -0.96848,0.43229 -1.28933,-0.387015 z m 66.09669,-0.411429 c -0.57821,-1.857136 -0.90614,-4.13824 -0.73352,-5.10232 0.39024,-2.179347 0.72007,-3.057679 1.14823,-3.057679 0.32391,0 0.38367,0.155311 0.23745,0.617142 -0.70221,2.217899 -0.77814,3.528431 -0.32627,5.631267 0.25173,1.171411 0.45768,2.281304 0.45768,2.466429 0,0.676145 -0.51352,0.312535 -0.78357,-0.554839 z m -37.66788,-0.215609 c -0.94044,-0.49671 -1.86855,-1.475774 -1.86855,-1.971135 0,-0.385028 0.76052,-0.22276 0.92145,0.196603 0.23723,0.618221 1.85541,1.507956 2.74466,1.509116 0.9734,0.0013 3.32359,-1.672135 3.89191,-2.771151 0.2257,-0.436446 0.52333,-0.793538 0.66141,-0.793538 1.10589,0 -0.42392,2.259535 -2.37938,3.514348 -1.56059,1.001432 -2.52771,1.078323 -3.9715,0.315757 z M 53.56709,98.563686 c -0.271042,-0.400258 -0.898165,-1.15739 -1.393605,-1.682515 -0.885768,-0.938839 -0.930396,-0.952396 -2.674286,-0.812414 -0.975417,0.0783 -1.773485,0.03749 -1.773485,-0.09069 0,-0.427544 1.047878,-0.800934 2.244825,-0.799897 1.465421,0.0013 2.794513,0.773089 3.557166,2.06569 1.014807,1.719969 2.008778,1.699098 2.541903,-0.05338 0.423191,-1.391103 1.525621,-1.428591 2.225245,-0.07567 0.302681,0.58532 0.320873,0.823127 0.07461,0.975324 -0.179115,0.110699 -0.368257,0.07349 -0.420314,-0.08268 -0.05206,-0.156173 -0.266122,-0.517455 -0.475698,-0.802848 -0.361987,-0.492942 -0.396745,-0.477764 -0.694913,0.303459 -0.724893,1.899271 -2.291455,2.414207 -3.211452,1.055617 z m 100.1994,0.29388 C 153.67492,98.618942 153.6,97.483399 153.6,96.334138 c 0,-1.666829 0.0691,-2.020503 0.34138,-1.748188 0.42089,0.420894 0.66272,4.705478 0.26558,4.705478 -0.15069,0 -0.3489,-0.195238 -0.44047,-0.433862 z M 80.471952,98.624083 c -0.202117,-0.526708 0.04924,-1.252655 0.433725,-1.252655 0.155592,0 0.288157,0.277714 0.294589,0.617143 0.01029,0.543225 0.137516,0.473886 1.062194,-0.578927 1.293862,-1.473155 1.869997,-1.057196 0.64274,0.464047 -0.888714,1.101602 -2.149298,1.490355 -2.433248,0.750392 z m 35.331478,-1.033226 c -0.39161,-0.391606 -0.43596,-1.042286 -0.071,-1.042286 0.14196,0 0.33438,0.123428 0.42762,0.274286 0.33251,0.538015 0.68622,0.255046 1.37143,-1.097143 0.68593,-1.353631 1.23428,-1.774074 1.23428,-0.946379 0,0.515102 -0.73158,2.001114 -1.30987,2.660664 -0.4888,0.557479 -1.18246,0.620808 -1.65241,0.150858 z M 142.08,97.757449 c 0,-0.0894 0.30082,-1.045974 0.66848,-2.125714 0.36767,-1.07974 0.74355,-2.426021 0.83529,-2.991736 0.10235,-0.631165 0.31831,-1.028571 0.55894,-1.028571 0.44147,0 0.36605,0.748766 -0.33113,3.287809 -0.48765,1.775935 -1.09109,3.020762 -1.46434,3.020762 -0.14698,0 -0.26724,-0.07315 -0.26724,-0.16255 z m 67.74857,-1.501196 c 0,-1.20103 -0.42192,-1.830564 -1.3658,-2.037876 -0.84121,-0.184758 -1.92563,-1.287541 -1.92563,-1.958225 0,-0.599898 0.66764,-0.431726 0.96353,0.242705 0.14892,0.339428 0.6746,0.747675 1.16818,0.907215 1.25161,0.404558 1.61863,0.882336 1.83151,2.384213 0.15264,1.07682 0.11038,1.302857 -0.24356,1.302857 -0.295,0 -0.42823,-0.261622 -0.42823,-0.840889 z M 95.786011,95.553582 c -1.333598,-1.118067 -2.104254,-2.404892 -1.84185,-3.075482 0.144471,-0.369201 0.258062,-0.299722 0.601005,0.367614 0.561983,1.093566 1.690993,2.288855 2.620548,2.774388 0.414857,0.216692 0.754285,0.514244 0.754285,0.661227 0,0.560872 -1.006281,0.217703 -2.133988,-0.727747 z M 217.68214,94.879285 c -0.25504,-1.275194 -0.21137,-2.719286 0.0822,-2.719286 0.33076,0 0.51805,0.663464 0.61365,2.173717 0.0899,1.420914 -0.43802,1.834838 -0.69588,0.545569 z m -70.23802,-0.225557 c -0.2526,-0.408705 0.0776,-2.418007 0.54872,-3.339178 0.42129,-0.823723 2.26312,-3.08914 2.62046,-3.223122 0.55712,-0.208889 0.16969,0.663352 -0.96527,2.173186 -0.77624,1.032636 -1.27828,2.02806 -1.40231,2.7805 -0.2434,1.476494 -0.52902,2.049666 -0.8016,1.608614 z m -46.23269,-0.226627 c -0.22629,-0.08699 -0.78172,-0.431324 -1.234288,-0.765189 -0.452571,-0.333866 -1.162286,-0.6873 -1.577143,-0.78541 -0.414857,-0.09811 -0.754285,-0.361174 -0.754285,-0.584585 0,-0.223412 0.0433,-0.406203 0.09621,-0.406203 0.413565,0 2.136284,0.755561 2.916033,1.278931 1.13812,0.763918 2.40275,0.817519 4.7653,0.201977 1.43898,-0.374913 2.02608,-0.391316 4.01674,-0.112225 2.5434,0.356587 3.02874,0.262466 4.78207,-0.927377 0.57363,-0.389276 1.17226,-0.627864 1.33029,-0.530194 0.38003,0.23487 -0.98735,1.360655 -2.49487,2.05407 -1.09731,0.504728 -1.35566,0.519412 -3.58561,0.203796 -2.09361,-0.296318 -2.63742,-0.281265 -4.22243,0.116878 -1.82621,0.458729 -3.27152,0.55019 -4.03802,0.255531 z M 197.76,94.102739 c 0,-0.13835 0.24686,-0.82744 0.54857,-1.531311 0.96922,-2.26111 0.61747,-3.032074 -0.94328,-2.067474 -0.99864,0.617194 -1.5515,0.367298 -0.76404,-0.345349 0.87759,-0.794205 1.85701,-1.017525 2.4969,-0.569327 0.75817,0.531043 0.7348,1.386376 -0.0888,3.248615 -0.58812,1.329832 -1.24938,1.999283 -1.24938,1.264846 z m 5.40078,-0.50274 c -0.48605,-0.852364 -0.32954,-3.343253 0.17615,-2.803485 0.29234,0.312044 0.49401,3.0092 0.22499,3.0092 -0.15611,0 -0.33662,-0.09257 -0.40114,-0.205715 z m -92.98935,-1.348571 c -0.38079,-0.380786 -0.15649,-0.640782 0.57143,-0.662375 l 0.75428,-0.02237 -0.89143,-0.389841 c -1.16677,-0.510255 -1.18416,-1.063957 -0.0261,-0.832353 1.65116,0.330231 2.15264,1.345944 0.89972,1.822303 -0.83016,0.315627 -1.06188,0.330622 -1.30786,0.08464 z m 53.63325,-3.240591 c -0.48343,-0.406781 -0.87897,-0.913773 -0.87897,-1.126648 0,-0.573592 0.37312,-0.47202 1.09715,0.298668 0.49204,0.523754 0.92077,0.685714 1.81518,0.685714 1.21923,0 1.31897,-0.0812 3.36936,-2.742857 0.29053,-0.377143 0.62133,-0.592957 0.73512,-0.479587 0.27894,0.277926 -0.3631,1.425986 -1.53792,2.750039 -0.82981,0.935216 -1.16198,1.108389 -2.34389,1.221955 -1.20072,0.115374 -1.48962,0.03761 -2.25603,-0.607284 z"
       id="path1" />
  </g>
</svg>
