<?xml version="1.0" encoding="UTF-8" standalone="no"?>
<!-- Created with Inkscape (http://www.inkscape.org/) -->

<svg
   version="1.1"
   id="svg1"
   width="294.58286"
   height="294.58286"
   viewBox="0 0 294.58286 294.58286"
   sodipodi:docname="terlingua-large-3-v.svg"
   inkscape:version="1.4 (86a8ad7, 2024-10-11)"
   xmlns:inkscape="http://www.inkscape.org/namespaces/inkscape"
   xmlns:sodipodi="http://sodipodi.sourceforge.net/DTD/sodipodi-0.dtd"
   xmlns:xlink="http://www.w3.org/1999/xlink"
   xmlns="http://www.w3.org/2000/svg"
   xmlns:svg="http://www.w3.org/2000/svg">
  <defs
     id="defs1">
    <linearGradient
       id="linearGradient1"
       inkscape:collect="always">
      <stop
         style="stop-color:#000000;stop-opacity:0;"
         offset="0.17685589"
         id="stop2" />
      <stop
         style="stop-color:#000000;stop-opacity:1;"
         offset="0.64410478"
         id="stop1" />
    </linearGradient>
    <linearGradient
       inkscape:collect="always"
       xlink:href="#linearGradient1"
       id="linearGradient2"
       x1="35.770772"
       y1="155.92705"
       x2="263.76333"
       y2="155.92705"
       gradientUnits="userSpaceOnUse" />
  </defs>
  <sodipodi:namedview
     id="namedview1"
     pagecolor="#ffffff"
     bordercolor="#000000"
     borderopacity="0.25"
     inkscape:showpageshadow="2"
     inkscape:pageopacity="0.0"
     inkscape:pagecheckerboard="0"
     inkscape:deskcolor="#d1d1d1"
     inkscape:zoom="2.766624"
     inkscape:cx="147.47215"
     inkscape:cy="147.29143"
     inkscape:window-width="1920"
     inkscape:window-height="1017"
     inkscape:window-x="-8"
     inkscape:window-y="-8"
     inkscape:window-maximized="1"
     inkscape:current-layer="g1" />
  <g
     inkscape:groupmode="layer"
     inkscape:label="Image"
     id="g1">
    <path
       style="fill:url(#linearGradient2)"
       d="m 255.35136,184.77549 c -1.67344,-0.60405 -5.83623,-3.92842 -9.87279,-7.88434 -6.39781,-6.27001 -7.84426,-7.38481 -10.82714,-8.34469 -1.35772,-0.43691 -3.16911,-1.0753 -4.02532,-1.41863 l -1.55675,-0.62426 -1.46039,0.63826 c -2.10222,0.91876 -3.07742,1.04511 -4.45541,0.57727 -0.65933,-0.22385 -2.20393,-0.58248 -3.43242,-0.79694 -2.08176,-0.36343 -2.36814,-0.35285 -4.21168,0.1556 -1.08792,0.30005 -2.47175,0.83174 -3.07518,1.18154 -1.53496,0.88981 -3.3576,1.05229 -6.85714,0.61132 -2.75658,-0.34736 -3.16677,-0.477 -4.74973,-1.50118 l -1.73259,-1.12099 -1.18066,0.65915 c -1.80217,1.00614 -4.46256,1.34238 -6.54967,0.8278 -0.93275,-0.22997 -2.66813,-0.60099 -3.8564,-0.82449 -1.20451,-0.22655 -2.78226,-0.75284 -3.56571,-1.18942 -1.0143,-0.56523 -2.4133,-0.96258 -5.02878,-1.42832 -3.46029,-0.61618 -3.63061,-0.67738 -3.7802,-1.35846 -0.0862,-0.39226 0.0233,-1.22332 0.24331,-1.8468 0.21998,-0.62348 0.48235,-1.68304 0.58306,-2.35457 0.17397,-1.16015 0.14626,-1.23021 -0.55636,-1.40655 -0.4067,-0.10208 -1.05094,-0.55578 -1.43165,-1.00822 -0.80604,-0.95792 -2.16306,-1.68831 -3.94684,-2.12431 -0.97482,-0.23827 -2.23821,-0.21835 -5.48571,0.0865 -4.44813,0.41757 -5.79637,0.69577 -6.51986,1.34535 -0.63615,0.57116 -3.63876,1.06565 -4.49471,0.74022 -0.3801,-0.14452 -0.75981,-0.19404 -0.84379,-0.11006 -0.084,0.084 -0.82047,0.30793 -1.63663,0.49766 -1.2049,0.28008 -2.0843,0.2756 -4.67676,-0.0238 -2.93184,-0.33864 -3.44989,-0.49097 -6.33753,-1.86357 -3.24978,-1.54473 -4.87952,-2.56425 -7.00136,-4.37983 -1.50266,-1.28577 -2.27304,-1.6909 -3.70286,-1.94727 -0.60343,-0.10819 -1.95019,-0.56989 -2.99281,-1.02599 -2.16261,-0.94605 -2.98048,-0.98613 -9.14651,-0.44824 -2.07308,0.18085 -5.62068,0.29248 -7.88353,0.24808 -5.43621,-0.10666 -5.7163,-0.1062 -7.9626,0.013 -1.483894,0.0787 -2.200793,-0.0205 -3.110589,-0.43057 l -1.182276,-0.53288 -3.098617,1.046 c -2.994334,1.01079 -3.138406,1.03273 -4.280917,0.65189 -1.124018,-0.37467 -1.280172,-0.35609 -3.167695,0.37684 -4.021304,1.56147 -7.694315,1.61161 -12.031595,0.16422 -2.838608,-0.94727 -4.395427,-1.01411 -11.931429,-0.51227 -4.701094,0.31305 -8.496949,0.9235 -16.182857,2.60252 -5.563842,1.21544 -9.435355,1.8568 -9.969997,1.65164 -0.221844,-0.0851 -0.450587,-0.42357 -0.508319,-0.75208 -0.154249,-0.87774 -0.08179,-5.45389 0.167975,-10.60872 0.140298,-2.89555 0.109351,-5.86796 -0.08592,-8.25207 -0.365071,-4.45732 -0.239476,-5.39085 0.762684,-5.6689 1.623667,-0.45048 3.743298,-0.13994 5.687435,0.83325 1.038948,0.52007 2.45305,1.02808 3.142448,1.12891 0.689398,0.10082 5.009398,0.36375 9.6,0.58428 6.140734,0.295 8.962695,0.54311 10.677977,0.93883 2.866261,0.66126 5.874038,1.01046 11.931428,1.38525 2.564572,0.15868 5.390903,0.45829 6.280736,0.66579 1.8492,0.43124 2.083302,0.37509 5.924979,-1.42102 2.160541,-1.01012 2.603203,-1.11204 6.039275,-1.39049 2.527722,-0.20484 4.317351,-0.21374 5.622861,-0.028 2.23322,0.31777 4.23027,0.13759 6.70456,-0.6049 1.70088,-0.5104 3.04291,-0.49311 3.7191,0.0479 0.15404,0.12325 0.83605,0.20258 1.51557,0.17628 0.94885,-0.0367 1.67931,0.18403 3.14849,0.95152 1.05215,0.54964 2.79293,1.25913 3.86839,1.57664 1.85037,0.54629 2.06826,0.5557 4.05696,0.1752 1.26193,-0.24145 2.34364,-0.31165 2.70747,-0.17572 0.33324,0.12451 1.28475,0.12854 2.11447,0.009 0.82971,-0.11958 1.70719,-0.22643 1.94995,-0.23744 0.24276,-0.011 1.00787,-0.51867 1.70023,-1.12811 1.12152,-0.9872 1.5105,-1.14882 3.5656,-1.4815 1.26871,-0.20538 2.72186,-0.58808 3.22923,-0.85045 1.58225,-0.81821 3.92521,-1.23966 5.38573,-0.96877 0.72166,0.13385 2.73154,0.38835 4.4664,0.56557 1.73486,0.17721 4.20343,0.60901 5.48571,0.95955 1.28229,0.35053 2.74174,0.72259 3.24323,0.82678 0.5015,0.10419 1.30378,0.53129 1.78286,0.94911 0.47908,0.41783 1.37646,1.01588 1.99417,1.32901 1.32215,0.67022 2.59149,2.03618 3.12175,3.35939 0.69975,1.74613 1.91725,2.99066 3.90496,3.99166 2.67095,1.34506 4.12107,1.4734 6.09534,0.53942 0.92403,-0.43714 1.76946,-0.66575 2.08805,-0.56464 0.47142,0.14962 0.53536,0.0359 0.53536,-0.9525 0,-1.60276 0.66619,-1.80501 4.33415,-1.31577 2.62869,0.35062 2.9122,0.34186 3.94841,-0.12207 0.61401,-0.2749 1.75061,-0.68419 2.52579,-0.90954 1.2651,-0.36778 1.57731,-0.36464 3.0491,0.0306 0.90183,0.24218 2.28895,0.59713 3.0825,0.78879 0.79355,0.19165 1.9044,0.6675 2.46857,1.05743 0.89593,0.61924 1.16343,0.67777 2.1134,0.46235 0.68079,-0.15437 1.57763,-0.14155 2.39753,0.0343 1.0893,0.23361 1.57588,0.19062 2.8895,-0.25531 1.06573,-0.36177 2.73964,-0.59485 5.14533,-0.71644 6.32498,-0.31969 8.34338,-1.00767 11.40762,-3.88836 1.00542,-0.9452 1.94975,-1.55878 2.74285,-1.78219 1.92091,-0.54109 4.77899,-0.43807 7.50741,0.27062 3.20184,0.83166 3.65363,1.05618 3.85286,1.91467 0.32241,1.38925 1.51249,2.41077 3.21714,2.76149 1.7662,0.36338 3.81157,1.38073 6.36717,3.16701 3.58661,2.50691 4.31704,2.81586 9.54658,4.03799 4.69664,1.09758 5.05953,1.2282 5.98596,2.15463 1.09615,1.09615 1.6559,2.84315 2.32188,7.2467 0.20534,1.35771 0.51006,3.33257 0.67715,4.38857 0.16841,1.06439 0.2213,2.7145 0.11867,3.70286 -0.10182,0.98057 -0.22572,2.46171 -0.27534,3.29143 -0.11067,1.8507 -0.18599,2.27773 -0.91919,5.21143 -0.608,2.43277 -0.7857,3.42516 -0.98228,5.48571 -0.18657,1.95557 -0.37449,3.02439 -0.71846,4.08621 -0.37707,1.16403 -1.96121,4.35693 -2.48474,5.00814 -0.5146,0.64009 -1.84064,0.8237 -2.97963,0.41257 z"
       id="path1" />
  </g>
</svg>
