<?xml version="1.0" encoding="UTF-8" standalone="no"?>
<!-- Created with Inkscape (http://www.inkscape.org/) -->

<svg
   version="1.1"
   id="svg1"
   width="294.58286"
   height="294.58286"
   viewBox="0 0 294.58286 294.58286"
   sodipodi:docname="terlingua-medium-a-outline.svg"
   inkscape:version="1.4 (86a8ad7, 2024-10-11)"
   xmlns:inkscape="http://www.inkscape.org/namespaces/inkscape"
   xmlns:sodipodi="http://sodipodi.sourceforge.net/DTD/sodipodi-0.dtd"
   xmlns="http://www.w3.org/2000/svg"
   xmlns:svg="http://www.w3.org/2000/svg">
  <defs
     id="defs1" />
  <sodipodi:namedview
     id="namedview1"
     pagecolor="#ffffff"
     bordercolor="#000000"
     borderopacity="0.25"
     inkscape:showpageshadow="2"
     inkscape:pageopacity="0.0"
     inkscape:pagecheckerboard="0"
     inkscape:deskcolor="#d1d1d1"
     inkscape:zoom="2.766624"
     inkscape:cx="147.47215"
     inkscape:cy="147.29143"
     inkscape:window-width="1920"
     inkscape:window-height="1017"
     inkscape:window-x="-8"
     inkscape:window-y="-8"
     inkscape:window-maximized="1"
     inkscape:current-layer="g1" />
  <g
     inkscape:groupmode="layer"
     inkscape:label="Image"
     id="g1">
    <path
       style="fill:#000000"
       d="m 185.14286,117.10887 c -3.85292,-0.1906 -5.65392,-0.4635 -7.3011,-1.10633 -0.43468,-0.16964 -1.654,-0.42006 -2.70958,-0.55648 -2.75489,-0.35605 -4.54016,-1.32223 -6.20392,-3.35755 -0.75915,-0.92868 -2.01914,-2.41888 -2.79998,-3.31155 -0.78084,-0.89268 -1.58033,-1.8483 -1.77663,-2.1236 -0.66411,-0.93133 -1.28801,-1.07907 -2.56708,-0.60787 -1.23956,0.45664 -4.53967,0.57798 -6.53785,0.24039 -1.06361,-0.17969 -1.14218,-0.13733 -2.67412,1.44176 -1.64338,1.69395 -3.90652,3.16684 -6.22825,4.05347 -0.74719,0.28533 -1.87934,0.91633 -2.5159,1.40223 -2.2534,1.72006 -2.65531,1.83225 -5.84929,1.63272 -2.35677,-0.14723 -3.37676,-0.0783 -5.49916,0.37158 -1.43314,0.30378 -3.04617,0.55427 -3.5845,0.55663 -1.53458,0.007 -3.60527,-0.72031 -6.66754,-2.34108 -1.55315,-0.82204 -3.00356,-1.49462 -3.22312,-1.49462 -0.21956,0 -0.94431,-0.55543 -1.61056,-1.23429 -0.66624,-0.67885 -1.34859,-1.23428 -1.51632,-1.23428 -0.16773,0 -1.32998,-0.67436 -2.58276,-1.49857 -3.13335,-2.06145 -3.65252,-2.20565 -7.83234,-2.17548 -4.07761,0.0294 -4.7755,0.23521 -7.035535,2.07456 -0.807029,0.6568 -2.455009,1.70771 -3.662177,2.33535 -1.207169,0.62763 -2.496049,1.46176 -2.864179,1.85362 -2.081918,2.2161 -5.515958,3.26618 -10.912908,3.33703 -2.209352,0.029 -3.959901,0.20783 -5.127037,0.52376 -1.765137,0.4778 -1.776426,0.47723 -2.816632,-0.14271 -0.863469,-0.51461 -1.472031,-0.62783 -3.512964,-0.65357 -1.999251,-0.0252 -2.69497,-0.15012 -3.659404,-0.65697 -1.610307,-0.84628 -3.301377,-1.05524 -4.31723,-0.53345 -2.114816,1.08625 -4.833257,1.52599 -10.674794,1.72676 -9.760384,0.33546 -14.920313,0.33652 -15.376213,0.003 -0.372318,-0.27225 -0.372238,-0.42965 7.58e-4,-1.48683 0.229436,-0.65029 0.55397,-2.25303 0.721185,-3.56165 0.167215,-1.30861 0.396963,-3.02405 0.510551,-3.81208 0.145187,-1.00725 0.0588,-2.18846 -0.290878,-3.97714 -0.30119,-1.54068 -0.50067,-3.806174 -0.505688,-5.743091 -0.0046,-1.759301 -0.19061,-4.151648 -0.41345,-5.316328 -0.222841,-1.16468 -0.338985,-2.224681 -0.258099,-2.355557 0.318397,-0.515178 3.819975,-0.249988 5.525713,0.418485 1.488245,0.583239 1.899327,0.631595 3.686294,0.433622 1.936909,-0.214584 3.400596,-0.06636 5.439827,0.550892 1.033013,0.31268 3.639386,0.742123 6.72,1.10723 5.572327,0.66042 7.444038,1.186975 9.386187,2.640547 0.773251,0.578729 1.234694,0.672923 3.702857,0.755864 2.181725,0.07332 3.191802,-0.02071 4.465241,-0.415672 1.001817,-0.310714 2.480863,-0.511804 3.780238,-0.513958 2.669342,-0.0044 3.627553,-0.397096 5.630077,-2.30718 2.214126,-2.111918 2.912573,-2.287181 9.652542,-2.422135 4.907582,-0.09826 5.744978,-0.179929 6.582857,-0.641976 0.798201,-0.440168 1.537851,-0.532342 4.388571,-0.546903 1.88572,-0.0096 4.14005,-0.173033 5.00962,-0.363115 1.03307,-0.225817 4.26535,-0.359772 9.32572,-0.386484 8.66107,-0.04572 8.54747,-0.06682 10.5493,1.959176 0.76693,0.776181 1.60554,1.237499 3.23458,1.779323 1.20958,0.402308 2.56729,0.734399 3.01715,0.73798 0.44985,0.0036 1.55849,0.31158 2.46363,0.684444 0.90514,0.372864 1.90338,0.678505 2.21831,0.679204 0.35866,7.95e-4 1.48061,-0.919009 3.00282,-2.46179 1.33662,-1.354684 2.86867,-2.670013 3.40455,-2.922955 0.53587,-0.252941 1.14496,-0.700778 1.35352,-0.995192 0.48931,-0.690733 2.40498,-1.558928 3.4608,-1.56846 0.45257,-0.0041 1.31657,-0.311516 1.92,-0.683178 1.40862,-0.867591 2.01128,-0.86028 3.32172,0.0403 0.58677,0.403243 1.62228,0.820878 2.30114,0.928077 1.89443,0.299152 8.22814,-0.37146 9.13784,-0.967513 1.02455,-0.671312 2.93539,-0.391409 4.66808,0.683785 0.78888,0.489529 2.06647,0.956481 3.15428,1.152874 1.78248,0.321806 1.88629,0.387975 4.13612,2.636446 l 2.30775,2.306355 1.41545,-0.146086 c 0.79793,-0.08235 2.12453,0.02072 3.04081,0.236261 2.11325,0.497112 4.3347,0.493268 5.30633,-0.0092 0.6472,-0.334684 1.94191,-2.380282 1.94191,-3.068166 0,-0.100548 0.31572,-0.596746 0.7016,-1.102664 0.80474,-1.055069 2.25747,-1.861043 3.77883,-2.096495 0.68405,-0.105867 1.4514,-0.527163 2.19447,-1.204827 1.94309,-1.772059 4.17219,-3.135444 6.12667,-3.74725 1.57494,-0.493002 2.54873,-0.586215 6.12414,-0.586215 3.42511,0 4.41136,-0.08752 5.07429,-0.450289 0.98875,-0.541068 5.48692,-0.929617 7.52189,-0.649737 0.87413,0.120224 1.71437,0.44637 2.19768,0.853048 0.43036,0.362124 1.13494,0.657201 1.56574,0.655727 0.91485,-0.0031 3.12069,-1.002063 4.47083,-2.024653 0.5196,-0.393538 1.04719,-0.715524 1.17244,-0.715524 0.72723,0 4.06188,-2.555967 6.02336,-4.61682 1.25529,-1.318886 2.42849,-2.488187 2.60712,-2.598447 0.17863,-0.110261 0.81703,-0.0035 1.41868,0.237217 1.73702,0.69502 3.56921,3.634054 4.53056,7.267533 0.57637,2.178436 1.06144,3.324807 2.0246,4.784802 2.22875,3.378402 2.49943,3.825132 2.79463,4.612142 0.15928,0.424678 0.28961,1.261311 0.28961,1.859185 0,0.965472 -0.16986,1.245136 -1.51882,2.500644 -2.61799,2.436618 -3.99981,3.187807 -6.74642,3.667517 -2.78896,0.487108 -4.40032,1.475193 -7.81867,4.79441 -2.79337,2.71236 -3.15975,2.92976 -5.16441,3.06442 -0.9008,0.0605 -1.19833,0.23852 -1.72683,1.03311 -1.02808,1.54571 -2.24438,2.72418 -3.44247,3.3354 -0.9804,0.50016 -1.60215,0.5695 -5.06152,0.56448 l -3.94382,-0.006 -1.2828,-0.84974 c -2.22967,-1.47694 -5.2595,-2.80972 -6.73316,-2.96182 l -1.40904,-0.14542 -2.05602,2.29064 c -1.13081,1.25985 -2.4263,2.59787 -2.87888,2.97338 -0.45257,0.3755 -1.93371,1.77525 -3.29142,3.11054 -2.6768,2.6326 -3.55156,3.19566 -6.04613,3.8917 -3.7169,1.03711 -3.40577,1.01661 -10.27387,0.67686 z m 8.06732,-1.48812 c 4.96829,-1.43157 4.02175,-0.78744 10.34998,-7.04331 5.47374,-5.41115 5.8424,-5.7203 6.8214,-5.7203 1.45201,0 4.25368,0.92861 5.99108,1.98572 0.80838,0.49185 1.87474,1.14234 2.36969,1.44552 0.79752,0.48851 1.32176,0.54549 4.60755,0.50078 3.52266,-0.0479 3.7632,-0.0872 4.82126,-0.78741 0.61249,-0.40533 1.48939,-1.32254 1.94866,-2.03825 1.17411,-1.82969 1.72698,-2.26212 2.79668,-2.18744 1.69096,0.11806 1.90748,-0.01 4.8853,-2.880031 3.27945,-3.161196 5.9848,-4.814622 7.8828,-4.817719 0.56948,-9.3e-4 1.38896,-0.186073 1.82106,-0.411429 0.4321,-0.225356 0.93269,-0.409739 1.11242,-0.409739 0.43306,0 1.83102,-1.045682 3.46053,-2.588505 1.18014,-1.117354 1.29902,-1.335504 1.10205,-2.022287 -0.3101,-1.081261 -0.91126,-2.191411 -2.59391,-4.790111 -1.44569,-2.232733 -2.09887,-3.807951 -2.76212,-6.661151 -0.38402,-1.651986 -2.43498,-4.964419 -3.23007,-5.216772 -0.38913,-0.123504 -1.16864,0.468816 -3.17236,2.410562 -2.00529,1.943267 -3.47495,3.05973 -5.99549,4.55462 -5.178,3.070985 -6.34223,3.33912 -8.51431,1.960943 -1.27271,-0.807529 -1.40359,-0.831302 -4.32952,-0.786422 -2.85503,0.04379 -4.89132,0.517521 -4.39387,1.022205 0.10056,0.102019 0.99724,0.308918 1.99264,0.459775 1.09749,0.166331 1.8589,0.423272 1.93455,0.652818 0.10214,0.309936 -0.21706,0.341989 -1.76143,0.176876 -1.0374,-0.11091 -2.19475,-0.359508 -2.57189,-0.55244 -1.00256,-0.512869 -6.35327,-0.857291 -6.25011,-0.402315 0.0458,0.202126 -0.61676,0.617849 -1.58711,0.995785 -1.98517,0.773194 -3.08179,1.834695 -4.35263,4.213242 -0.71078,1.330328 -0.98788,1.649602 -1.12394,1.295021 -0.47035,-1.225703 2.22338,-4.844756 4.38425,-5.890285 l 1.38668,-0.670942 -1.37143,0.150397 c -2.8372,0.311141 -4.78667,1.312217 -7.57604,3.890398 -0.96734,0.894108 -1.56983,1.216846 -2.54441,1.362994 -1.91237,0.286777 -2.91742,1.101439 -3.90648,3.166459 -1.52414,3.182181 -3.19218,3.938978 -7.19884,3.266144 -1.14868,-0.192897 -2.98197,-0.325841 -4.07398,-0.295432 -2.19001,0.06099 -1.86172,0.249583 -4.41545,-2.536609 -1.54498,-1.68561 -2.04243,-1.981329 -4.02194,-2.390944 -0.90515,-0.187299 -2.22135,-0.698679 -2.9249,-1.136401 -1.56407,-0.973102 -2.93845,-1.235423 -3.82605,-0.730263 -0.36012,0.204952 -1.20905,0.557783 -1.88652,0.784069 -0.80427,0.268642 -1.26673,0.595291 -1.33255,0.941217 -0.0554,0.291384 -0.51217,1.127792 -1.01493,1.858684 -0.50277,0.730893 -0.99143,1.572488 -1.08593,1.870212 -0.14375,0.452932 -0.95769,0.807405 -0.95769,0.417079 0,-0.324422 0.73533,-1.768624 1.40313,-2.755764 1.50691,-2.227524 1.54587,-2.194285 -2.57198,-2.194285 -3.41522,0 -3.68724,-0.04 -4.57435,-0.672683 -1.05971,-0.755776 -1.88948,-0.784977 -2.93013,-0.103116 -0.38923,0.255031 -1.40496,0.557943 -2.25718,0.673137 -1.22607,0.165728 -1.70299,0.380858 -2.28489,1.030672 -0.40447,0.451674 -1.14504,1.028389 -1.64572,1.281589 -0.50067,0.253199 -2.09645,1.618478 -3.54618,3.033953 -2.41591,2.358832 -2.7249,2.573381 -3.70285,2.571083 -0.58685,-0.0014 -1.68414,-0.306091 -2.43843,-0.677137 -0.75428,-0.371046 -1.72894,-0.678489 -2.16591,-0.683207 -0.99482,-0.01074 -5.91973,-1.571294 -6.47409,-2.051441 -0.22628,-0.195994 -0.89246,-0.510959 -1.4804,-0.699921 -1.01631,-0.326644 -2.34399,-0.197282 -4.62711,0.450841 -0.71283,0.202354 -1.2982,1.86126 -1.2982,3.679013 0,2.129361 -0.31927,2.851834 -1.65841,3.752735 -0.61915,0.416536 -1.53388,1.096767 -2.03273,1.511628 -0.89489,0.74422 -1.52029,0.96381 -1.52029,0.5338 0,-0.36001 1.71451,-1.877969 2.65764,-2.352958 1.35441,-0.682128 1.73015,-1.429151 1.73696,-3.453304 0.008,-2.25715 0.69921,-3.90693 1.81065,-4.319083 1.39124,-0.515916 3.88315,-0.981669 4.33156,-0.809597 0.84275,0.323393 0.42281,-0.123148 -0.45681,-0.485752 -1.16609,-0.480693 -15.51742,-0.345986 -17.28611,0.162253 -0.68918,0.19804 -2.41148,0.303042 -4.2455,0.258834 -2.72662,-0.06572 -3.23364,-0.0029 -4.35487,0.539917 -1.16547,0.564193 -1.751056,0.623645 -7.17894,0.728849 -6.586318,0.127658 -7.010505,0.229645 -8.829226,2.122805 -1.815131,1.889425 -3.103338,2.430308 -6.032691,2.532966 -1.435392,0.0503 -3.18658,0.281713 -3.891529,0.514245 -0.837334,0.2762 -2.377941,0.429103 -4.443449,0.441007 -2.751045,0.01585 -3.27929,-0.05603 -4.066846,-0.553414 -2.067067,-1.305465 -3.466837,-1.921957 -4.753637,-2.093614 -0.749603,-0.1 -1.980057,-0.291712 -2.734342,-0.426035 -0.754286,-0.134324 -2.544,-0.384625 -3.977143,-0.556224 -1.433143,-0.1716 -3.531429,-0.557342 -4.662857,-0.857205 -1.900311,-0.503639 -6.525924,-0.736002 -7.136726,-0.358505 -0.116441,0.07196 -1.046405,-0.183334 -2.066587,-0.567329 -1.079378,-0.406277 -2.26677,-0.663663 -2.840067,-0.615631 -0.91148,0.07637 -0.980068,0.144109 -0.916706,0.9054 0.03767,0.452572 0.179315,2.921143 0.314774,5.485714 0.135459,2.564572 0.398692,5.403431 0.584964,6.308571 0.186271,0.90514 0.336921,1.76914 0.334778,1.92 -0.01521,1.07038 -0.733592,6.59335 -1.020415,7.845 l -0.352081,1.53642 4.286176,-0.0514 c 12.799658,-0.15339 17.301776,-0.55046 19.646175,-1.73274 1.232441,-0.62152 3.707273,-0.50833 5.253724,0.2403 0.982269,0.47551 1.970093,0.66442 4.09491,0.7831 2.24392,0.12534 2.917426,0.26245 3.38955,0.69003 0.54998,0.49809 0.675103,0.50722 1.879793,0.13714 0.779132,-0.23934 2.614967,-0.41307 4.632438,-0.43838 2.323396,-0.0291 4.145911,-0.22509 5.980244,-0.64297 2.409778,-0.54897 2.809521,-0.73703 4.613188,-2.17034 1.086133,-0.86311 2.869288,-2.03934 3.962566,-2.61384 1.093279,-0.5745 2.529714,-1.52158 3.192077,-2.10461 1.93274,-1.70127 3.281795,-2.14114 6.828585,-2.22655 4.22705,-0.10178 5.86173,0.17502 7.64047,1.29374 0.80828,0.50835 2.27188,1.38406 3.25245,1.94601 0.98058,0.56195 2.15315,1.36387 2.60572,1.78204 0.45257,0.41817 2.58169,1.64245 4.73138,2.72061 4.70778,2.36117 5.56175,2.51042 9.62387,1.68195 2.27075,-0.46313 3.37575,-0.54378 5.61857,-0.41009 l 2.79189,0.16642 1.37143,-1.00386 c 0.75429,-0.55213 1.94537,-1.26515 2.64686,-1.58451 1.15621,-0.52636 1.27543,-0.66839 1.27543,-1.51948 0,-0.55105 0.22376,-1.18481 0.54172,-1.5343 0.29795,-0.32749 0.69201,-0.88641 0.8757,-1.24203 0.20957,-0.40574 0.43047,-0.55009 0.59304,-0.38753 0.34448,0.34449 -0.0844,1.43629 -0.82698,2.1052 -0.31903,0.28738 -0.58005,0.81192 -0.58005,1.16563 v 0.64313 l 1.41957,-0.75421 c 0.78077,-0.41481 2.16934,-1.48076 3.08572,-2.36876 2.53963,-2.46101 2.43652,-2.4205 5.32693,-2.09307 2.5147,0.28487 4.09251,0.12273 5.63218,-0.57879 0.52826,-0.2407 0.88419,-0.2372 1.49224,0.0147 0.79319,0.32855 1.26893,0.83516 5.37151,5.72009 2.41901,2.88031 3.39992,3.50346 6.12276,3.88963 1.02854,0.14587 2.3807,0.44538 3.00479,0.66557 0.62408,0.22019 1.197,0.33804 1.27315,0.2619 0.0761,-0.0762 0.42673,0.0233 0.77908,0.22106 0.57589,0.32318 2.23794,0.44243 10.21653,0.73301 0.74103,0.027 1.97531,-0.13188 2.74286,-0.35304 z m 0.89212,-1.44482 c -0.0987,-0.15965 0.004,-0.64254 0.22889,-1.0731 0.22456,-0.43056 0.40905,-0.99155 0.40998,-1.24664 0.002,-0.47677 0.47997,-0.93219 0.72334,-0.68883 0.0751,0.0751 0.0524,0.58548 -0.0506,1.13413 -0.21468,1.14433 -1.03678,2.31918 -1.31165,1.87444 z m -15.40516,-1.04026 c -0.60343,-0.52063 -1.92331,-1.26469 -2.93307,-1.65348 -1.33912,-0.51559 -1.98349,-0.93994 -2.38126,-1.56818 -0.51024,-0.80587 -0.53947,-1.29687 -0.0772,-1.29687 0.10943,0 0.40716,0.35245 0.66162,0.78323 0.32459,0.54949 0.95282,0.96194 2.10516,1.3821 1.76147,0.64227 4.52874,2.6282 4.2625,3.05898 -0.24907,0.40299 -0.456,0.31381 -1.63776,-0.70578 z M 49.92,112.65576 c 0,-0.19248 0.524571,-0.59362 1.165714,-0.89143 1.373113,-0.63781 2.134867,-1.95905 2.842396,-4.93004 0.683086,-2.86836 1.438743,-5.43455 1.734169,-5.8892 0.581137,-0.89436 0.607335,0.0939 0.05591,2.10893 -0.321274,1.174 -0.773697,2.93089 -1.005384,3.9042 -0.657161,2.76072 -1.732092,4.69336 -3.014359,5.41959 C 50.458618,113.08 49.92,113.16418 49.92,112.65576 Z m 138.01932,-0.49658 c 0.0546,-0.16389 1.376,-0.71636 2.93639,-1.22773 2.979,-0.97626 3.46379,-1.33766 3.75245,-2.79734 0.17112,-0.86533 0.55538,-1.362 0.83635,-1.08103 0.29849,0.29849 -0.27887,2.19627 -0.88864,2.92093 -0.47458,0.56401 -1.36354,0.99763 -3.33365,1.62612 -2.90168,0.92566 -3.4564,1.01955 -3.3029,0.55905 z M 48,111.66171 c 0,-0.13577 0.42208,-0.66893 0.937955,-1.18481 1.267786,-1.26779 1.921435,-3.51407 1.665142,-5.7223 -0.229924,-1.98105 0.08481,-5.527202 0.478904,-5.395838 0.177188,0.05906 0.268792,1.641068 0.24821,4.286618 -0.03571,4.58969 -0.371576,5.92574 -1.887662,7.5089 C 48.735111,111.89303 48,112.15161 48,111.66171 Z m 28.125065,-0.23314 c 0.113637,-0.264 0.24154,-1.22057 0.28423,-2.12571 0.157354,-3.33641 0.35237,-3.95966 1.684638,-5.38397 0.687338,-0.73482 1.356244,-1.33603 1.486457,-1.33603 0.529156,0 0.174799,0.72807 -0.874935,1.79767 -0.984482,1.00312 -1.142308,1.34895 -1.379294,3.02237 -0.147183,1.03931 -0.190725,2.23968 -0.09676,2.66751 0.118876,0.54124 0.0249,0.93913 -0.308932,1.30801 -0.598747,0.66161 -1.071433,0.69141 -0.795406,0.0501 z m 58.549215,0.11989 c 0,-0.4516 1.24612,-1.63211 2.33143,-2.2087 2.0448,-1.08633 2.60572,-2.00208 2.60572,-4.25411 0,-0.90616 0.10704,-1.71372 0.23787,-1.79457 0.24001,-0.14834 0.58498,1.72064 0.58498,3.16927 0,0.95566 -1.45806,2.65681 -3.10383,3.6213 -0.63154,0.37011 -1.38324,0.93257 -1.67044,1.24992 -0.59504,0.65751 -0.98573,0.74347 -0.98573,0.21689 z m -64.803953,-0.0781 c -0.26867,-0.26867 0.08579,-0.97049 1.44101,-2.85319 0.705847,-0.98057 1.928954,-3.10028 2.718016,-4.71047 1.054875,-2.15261 1.7899,-3.2599 2.776615,-4.182854 0.738077,-0.690385 1.450104,-1.255245 1.582281,-1.255245 0.712488,0 0.459273,0.502693 -0.833707,1.655109 -1.134279,1.01096 -1.759897,1.92509 -2.924172,4.27265 -0.814641,1.64259 -2.079165,3.80391 -2.810054,4.80293 -0.730888,0.99903 -1.328888,1.9556 -1.328888,2.12572 0,0.33168 -0.352315,0.41413 -0.621101,0.14535 z m 51.421063,-1.01214 c -1.21515,-1.23815 -1.38262,-1.56676 -0.79849,-1.56676 0.44455,0 2.3871,1.96246 2.3871,2.41156 0,0.57801 -0.40207,0.36419 -1.58861,-0.8448 z m 77.66004,-0.39084 c 0.0101,-0.87304 -0.0378,-1.75706 -0.10651,-1.96449 -0.0687,-0.20743 0.0225,-0.43142 0.20259,-0.49774 0.48234,-0.17762 0.97277,1.915 0.69764,2.97677 -0.38766,1.49604 -0.81383,1.21977 -0.79372,-0.51454 z M 79.9905,110.02566 c -1.50856,-1.54491 -1.023468,-2.09296 0.51558,-0.5825 l 1.173419,1.15163 0.577393,-0.5774 c 0.687095,-0.68709 0.700979,-0.90567 0.168934,-2.65951 -0.521715,-1.71979 -0.533878,-2.85502 -0.03059,-2.85502 0.247582,0 0.431556,0.41375 0.518332,1.16571 0.07399,0.64114 0.266193,1.65943 0.427125,2.26286 0.40865,1.53227 -0.277585,2.9812 -1.467277,3.09804 -0.654249,0.0643 -1.041645,-0.14227 -1.882918,-1.00381 z m -38.190948,0.0315 c 0.644396,-2.82469 0.733284,-4.49047 0.428113,-8.02285 -0.262402,-3.037325 -0.8925,-6.684997 -1.39771,-8.091433 -0.222105,-0.618311 0.454256,-0.496642 0.762378,0.137142 1.646465,3.38666 1.998256,16.731431 0.441069,16.731431 -0.301685,0 -0.361736,-0.1937 -0.23385,-0.75429 z m 19.124953,-1.14517 c -0.665772,-1.24912 -0.944016,-2.22456 -1.148906,-4.02773 -0.148702,-1.30867 -0.387456,-2.88643 -0.530564,-3.50611 -0.343542,-1.487604 -0.339423,-1.538131 0.125393,-1.538131 0.248451,0 0.462158,0.388091 0.566388,1.028571 0.09206,0.56572 0.2828,1.62093 0.423858,2.34493 0.141058,0.724 0.256468,1.73978 0.256468,2.25731 0,0.51752 0.20461,1.45231 0.454688,2.07732 0.449159,1.12256 0.458726,1.12846 0.786944,0.48555 0.182741,-0.35795 0.735317,-2.04151 1.227947,-3.74125 0.847957,-2.92573 0.877436,-3.17422 0.553166,-4.662855 -0.633792,-2.90957 -0.655393,-3.160459 -0.260792,-3.028925 0.201245,0.06708 0.530571,0.730807 0.731835,1.474944 0.600698,2.220966 0.468583,4.100876 -0.499881,7.112976 -0.485043,1.50857 -0.909126,3.29829 -0.942406,3.97714 -0.08919,1.81929 -0.685459,1.73254 -1.744138,-0.25374 z M 86.031926,107.04 c -0.245457,-1.92343 -0.499484,-3.92914 -0.564502,-4.45714 -0.06502,-0.528 -0.206611,-1.48457 -0.31465,-2.12572 -0.153521,-0.911053 -0.112329,-1.165712 0.188559,-1.165712 0.42003,0 1.05787,2.760962 1.05971,4.587082 5.75e-4,0.56967 0.177984,2.12583 0.394244,3.45813 0.374605,2.3078 0.343577,3.2005 -0.11124,3.2005 -0.113208,0 -0.406663,-1.57371 -0.652121,-3.49714 z m -39.451006,3.08378 c -0.07649,-0.0765 -0.04271,-0.7245 0.07508,-1.44 0.117786,-0.71551 0.221515,-2.50435 0.230507,-3.97521 0.01356,-2.21867 0.08835,-2.67428 0.438964,-2.67428 0.36585,0 0.400833,0.43288 0.260459,3.22285 -0.232514,4.62129 -0.406731,5.46491 -1.005009,4.86664 z m 142.55491,-0.38388 c -0.19575,-0.31672 0.59507,-1.67133 0.97571,-1.67133 0.13351,0 0.24274,0.22773 0.24274,0.50606 0,0.63551 -0.97159,1.5647 -1.21845,1.16527 z M 67.748571,109.34147 c 0,-0.43431 2.12107,-2.91861 2.491882,-2.91861 0.512321,0 0.219268,0.62072 -0.914739,1.93753 -1.200244,1.39372 -1.577143,1.62818 -1.577143,0.98108 z m 101.060289,-0.85266 c -0.21859,-0.52316 -0.39667,-1.17116 -0.39575,-1.44 0.002,-0.66086 2.63077,-3.49507 2.87496,-3.09996 0.20107,0.32534 -1.08896,2.19972 -1.51395,2.19972 -0.49254,0 -0.58449,1.31231 -0.15073,2.15112 0.53782,1.04002 0.53855,1.14031 0.008,1.14031 -0.23399,0 -0.60427,-0.42804 -0.82286,-0.95119 z m 8.23043,0.42267 c -0.59675,-0.27013 -1.31987,-0.75515 -1.60694,-1.07782 -0.57462,-0.64589 -1.56966,-3.32744 -1.36037,-3.66607 0.29737,-0.48116 0.57216,-0.13614 1.01797,1.27813 0.4605,1.46088 1.69864,2.89714 2.49751,2.89714 0.45979,0 1.07096,0.72965 0.768,0.91689 -0.12714,0.0786 -0.71942,-0.0781 -1.31617,-0.34827 z m -110.741824,0.0831 c -0.09411,-0.0941 0.0554,-0.61868 0.332241,-1.16572 0.27684,-0.54703 0.588661,-1.4266 0.692935,-1.9546 0.479299,-2.42699 1.002901,-3.84 1.422937,-3.84 0.301797,0 0.375676,0.14553 0.243674,0.48 -0.104191,0.264 -0.374718,1.28228 -0.601171,2.26285 -0.432608,1.87325 -1.428648,4.38857 -1.737825,4.38857 -0.09993,0 -0.258683,-0.077 -0.352791,-0.1711 z M 43.788443,108 c -0.08708,-0.49029 -0.04314,-1.75543 0.09764,-2.81143 0.140781,-1.056 0.260004,-2.01257 0.264939,-2.12571 0.0049,-0.11315 0.126513,-0.20572 0.27017,-0.20572 0.152934,0 0.238199,1.25041 0.205714,3.01678 -0.03753,2.04058 -0.156548,3.0169 -0.367812,3.01714 -0.171783,2e-4 -0.383577,-0.40077 -0.470654,-0.89106 z m 140.107167,0.59617 c -0.21945,-0.35507 -0.25154,-0.32675 1.20083,-1.05933 1.87342,-0.94496 4.37152,-2.88188 6.94762,-5.3869 2.1652,-2.10544 2.97308,-2.67576 2.97308,-2.09881 0,0.35729 -4.98383,5.10909 -6.59703,6.2899 -2.06557,1.51193 -4.29658,2.62392 -4.5245,2.25514 z m -49.57347,-3.01724 c -0.60043,-1.08823 -0.72528,-1.58797 -0.58437,-2.33906 0.22137,-1.18003 0.83251,-1.07221 0.71308,0.1258 -0.0535,0.53682 0.11867,1.15342 0.45336,1.62346 0.63458,0.89119 0.84272,1.75016 0.45579,1.88097 -0.15086,0.051 -0.61789,-0.53002 -1.03786,-1.29117 z m -17.48322,0.41464 c -0.30935,-0.81368 -0.33401,-1.2725 -0.101,-1.87971 0.28303,-0.73757 0.59311,-0.48155 0.72031,0.59471 0.0669,0.56572 0.21646,1.24457 0.33244,1.50857 0.15253,0.34719 0.087,0.48 -0.23669,0.48 -0.24616,0 -0.56793,-0.3166 -0.71506,-0.70357 z m 10.30806,0.094 c -0.75439,-1.07704 -0.33322,-3.2304 0.63183,-3.2304 0.40277,0 0.39376,0.1427 -0.0658,1.04219 -0.8226,1.61009 0.63827,2.65863 1.9724,1.4157 0.42237,-0.3935 0.60029,-0.88127 0.60029,-1.64572 0,-1.09945 0.35099,-1.44842 0.65637,-0.65259 0.27643,0.72036 0.18777,1.90357 -0.17637,2.35358 -1.11353,1.37618 -2.90806,1.73186 -3.61873,0.71724 z m 77.38283,0.41592 c -0.0941,-0.15223 -0.0512,-0.69469 0.0953,-1.20546 0.14648,-0.51076 0.26634,-1.32334 0.26634,-1.80572 0,-1.02797 0.43205,-1.43435 0.68331,-0.64271 0.37715,1.18829 -0.55476,4.44699 -1.04493,3.65389 z m -23.50124,-0.73376 c 0,-0.20838 0.44528,-0.71851 0.98952,-1.13362 1.27745,-0.97436 2.3572,-3.23045 2.13128,-4.45322 -0.13027,-0.705037 -0.0723,-0.891432 0.27725,-0.891432 0.33971,0 0.44195,0.280282 0.44195,1.211542 0,1.75041 -0.8435,3.48103 -2.26395,4.64498 -1.33746,1.09595 -1.57605,1.19007 -1.57605,0.62175 z M 52.237938,105.52661 c -0.391792,-1.021 1.77283,-6.783754 2.54813,-6.783754 0.222447,0 0.334894,0.154101 0.250184,0.342858 -1.125712,2.508376 -2.090815,5.155016 -2.094495,5.743816 -0.0051,0.82322 -0.476332,1.2899 -0.703819,0.69708 z m 68.309112,-0.20335 c -0.34603,-0.55989 0.18735,-1.25827 1.77873,-2.32897 1.33136,-0.89577 1.73013,-1.34888 2.17252,-2.46858 0.29802,-0.754282 0.62209,-1.895996 0.72017,-2.537139 0.16992,-1.110781 0.14568,-1.165714 -0.51439,-1.165714 -0.54663,0 -0.84639,0.282369 -1.4215,1.339044 -0.40084,0.736475 -1.08083,1.599314 -1.5111,1.917419 -1.19088,0.88046 -1.30452,0.16569 -0.15166,-0.95395 0.54224,-0.526621 0.98589,-1.086782 0.98589,-1.244804 0,-0.158022 0.25527,-0.645794 0.56725,-1.083939 0.64596,-0.907161 1.85388,-1.079171 2.56745,-0.365607 0.53251,0.532514 0.53326,0.706898 0.0117,2.709471 -0.65473,2.513659 -1.11748,3.222939 -2.87222,4.402369 -0.93978,0.63166 -1.63513,1.30079 -1.63894,1.57714 -0.007,0.52367 -0.42093,0.64486 -0.69386,0.20326 z m 65.96723,-0.014 c 0,-0.48711 2.03373,-3.25347 2.4,-3.26459 0.5182,-0.0157 0.43301,0.22634 -0.68571,1.94832 -0.94075,1.44804 -1.71429,2.04198 -1.71429,1.31627 z m -22.01949,-1.53681 C 164.15904,103.21608 163.2,99.713067 163.2,99.043107 c 0,-0.71776 0.42846,-1.397393 0.88095,-1.397393 0.12247,0 0.14558,0.48212 0.0513,1.071379 -0.12018,0.75161 0.0107,1.618467 0.43867,2.904377 0.40594,1.21985 0.51839,1.92459 0.33618,2.10681 -0.15059,0.15059 -0.33616,0.17048 -0.41236,0.0442 z m 32.618,-1.66961 c -0.098,-1.01829 -0.25373,-2.190861 -0.34604,-2.605718 -0.0957,-0.430033 -0.0505,-0.754286 0.10514,-0.754286 0.44005,0 0.83687,1.370644 0.97276,3.360004 0.0928,1.35817 0.0359,1.85143 -0.2136,1.85143 -0.21937,0 -0.4033,-0.65708 -0.51826,-1.85143 z m 20.0429,1.2999 c -0.77955,-0.61319 -1.67836,-2.67482 -1.51034,-3.464333 0.0757,-0.355885 0.35275,-0.01287 0.91729,1.135863 0.4579,0.93172 1.07653,1.76318 1.42593,1.91646 0.67443,0.29589 0.8426,0.96354 0.2427,0.96354 -0.20594,0 -0.68995,-0.24819 -1.07558,-0.55153 z m 12.62121,-0.44431 c -0.0891,-0.14412 0.0276,-0.83768 0.25919,-1.54126 0.41428,-1.2584 0.40769,-1.30732 -0.40495,-3.005349 -1.01789,-2.126925 -2.14162,-5.490443 -2.39189,-7.15936 -0.19107,-1.274117 -0.69806,-1.7891 -1.18325,-1.201892 -0.87826,1.062944 -1.81827,9.934215 -1.13932,10.752301 0.24851,0.29943 0.27076,0.51939 0.0726,0.71756 -0.52691,0.52691 -1.17254,-0.85373 -1.16709,-2.495767 0.006,-1.739007 0.65661,-6.477073 1.11252,-8.098969 0.84215,-2.995941 2.479,-2.656126 3.16472,0.657006 0.42763,2.066105 1.19072,4.238807 2.53636,7.221585 0.46903,1.039653 0.71877,1.914315 0.57242,2.004755 -0.14279,0.0883 -0.25962,0.38636 -0.25962,0.66245 0,0.6304 -0.95333,1.84023 -1.17167,1.48694 z m -27.13741,-0.25039 c -0.1807,-0.18069 -0.0256,-6.990521 0.16352,-7.179641 0.0682,-0.06819 0.27409,0.156521 0.45756,0.499348 0.2383,0.445253 0.2801,1.450829 0.14632,3.519966 -0.17441,2.697717 -0.38065,3.547077 -0.7674,3.160327 z m -93.33663,-0.64753 c -0.30172,-0.10634 -1.03877,-0.41569 -1.63789,-0.68743 -0.75231,-0.34123 -1.49734,-0.45487 -2.40821,-0.36735 -1.42705,0.13712 -1.91528,-0.14242 -1.0539,-0.60342 0.88386,-0.473024 2.46601,-0.32949 4.1057,0.37246 0.84858,0.36328 1.75887,0.7297 2.02287,0.81425 0.264,0.0846 0.48,0.28104 0.48,0.43664 0,0.31454 -0.67109,0.33004 -1.50857,0.0349 z m 66.21369,-0.32684 c -0.51373,-0.51373 -0.56479,-0.83184 -0.48,-2.99066 0.0862,-2.195677 0.17312,-2.52374 0.95361,-3.600711 0.9254,-1.276933 1.61287,-1.836429 1.90165,-1.547651 0.0995,0.09954 -0.28411,0.748564 -0.85256,1.442277 -0.74403,0.907998 -1.09931,1.661298 -1.26837,2.689319 -0.25201,1.532538 -0.0713,3.380136 0.35648,3.644516 0.44948,0.27779 1.59618,-0.67787 2.42879,-2.024158 0.88782,-1.435569 1.83528,-2.173481 2.25359,-1.755171 0.17056,0.170559 0.0568,0.410947 -0.31912,0.67424 -0.3213,0.225048 -0.9463,0.980166 -1.38888,1.67804 -0.70218,1.107229 -2.18945,2.360749 -2.8046,2.363819 -0.11314,5.6e-4 -0.46441,-0.25768 -0.78059,-0.57386 z m 43.51646,-1.964436 c -2.49394,-2.568682 -3.22001,-3.933244 -4.3163,-8.112037 -1.12764,-4.298278 -1.20991,-4.808284 -0.75095,-4.655296 0.21429,0.07143 0.81033,1.786915 1.41781,4.080658 1.19288,4.50409 1.99235,6.043336 4.35127,8.377638 l 1.56977,1.553393 0.43341,-1.459445 c 0.5373,-1.809298 0.54136,-2.76731 0.019,-4.489187 -0.47453,-1.564259 -0.53164,-3.533731 -0.12452,-4.294439 0.53226,-0.994539 0.82292,-0.572443 0.64547,0.937351 -0.116,0.986991 -0.0158,2.132699 0.30573,3.497143 0.40705,1.72717 0.42918,2.265467 0.14867,3.616034 -0.18639,0.897445 -0.61277,1.910273 -0.98148,2.331433 l -0.65191,0.74464 z m -71.3226,1.454396 c -0.0921,-0.14906 0.0366,-0.58253 0.28609,-0.96326 0.7821,-1.193652 -0.20958,-4.291937 -1.68268,-5.257153 -0.46418,-0.304142 -0.60485,-0.547642 -0.42199,-0.730499 0.74474,-0.744736 2.63783,1.760417 3.06621,4.057558 0.28087,1.506127 -0.69964,3.780014 -1.24763,2.893354 z m 23.58347,-1.10539 c -0.26173,-0.423496 0.90112,-4.382421 1.65276,-5.626832 0.98949,-1.638182 2.32096,-2.990688 2.63501,-2.676636 0.17099,0.170996 -0.18151,0.788942 -0.99107,1.737366 -0.92452,1.083103 -1.4357,2.039396 -1.93495,3.619783 -0.37317,1.181293 -0.67849,2.319292 -0.67849,2.528887 0,0.495322 -0.46104,0.776992 -0.68326,0.417432 z M 82.011428,98.88079 c 0,-0.61605 1.768598,-2.452165 3.32241,-3.449243 1.10419,-0.708556 1.652531,-0.879524 2.796951,-0.872063 1.578094,0.01029 2.932068,0.434868 2.932068,0.919441 0,0.219413 -0.271214,0.246422 -0.891429,0.08877 -1.973609,-0.501659 -3.359298,-0.26418 -4.851948,0.831526 -0.773074,0.567489 -1.724865,1.450389 -2.11509,1.962 -0.758967,0.995057 -1.192962,1.184073 -1.192962,0.519565 z m 75.333942,-0.09096 c -0.59641,-0.659025 -0.57279,-1.029663 0.12835,-2.014336 0.74613,-1.047843 1.34199,-0.632775 0.63676,0.443553 -0.32877,0.501753 -0.38936,0.817502 -0.19432,1.012544 0.51959,0.519588 1.55026,0.117559 2.20518,-0.860163 0.78043,-1.165105 1.15866,-1.342685 1.15866,-0.544 0,0.329371 -0.41966,1.018514 -0.93257,1.531429 -1.06435,1.06435 -2.27197,1.237715 -3.00206,0.430973 z m -52.77639,-0.656786 c 0.0615,-0.18454 0.47895,-0.353989 0.92763,-0.376555 1.0646,-0.05354 4.12058,-1.171865 4.52112,-1.654486 0.39833,-0.479955 0.7937,-0.483627 0.7937,-0.0074 0,0.580971 -0.82286,1.137012 -2.63388,1.779814 -1.86647,0.662485 -3.78912,0.800267 -3.60857,0.258599 z m 104.16245,-0.898759 c 0,-0.228571 0.24381,-0.411428 0.54857,-0.411428 0.37014,0 0.54857,-0.182858 0.54857,-0.562193 0,-1.06386 -0.8319,-2.166365 -2.47823,-3.28437 -1.70702,-1.159209 -2.02211,-1.986723 -0.45478,-1.194337 2.95449,1.493678 4.82237,4.725111 3.22533,5.579821 -0.76144,0.407509 -1.38946,0.349883 -1.38946,-0.127493 z M 98.076705,96.414862 c -0.59267,-0.211155 -1.168837,-0.545165 -1.280372,-0.742247 -0.563342,-0.995419 -1.929948,-2.689758 -2.169483,-2.689758 -0.149911,0 -0.272565,-0.185143 -0.272565,-0.411429 0,-0.956101 1.306752,-0.04798 2.372442,1.648711 0.578486,0.921013 1.049375,1.32566 1.810415,1.555736 0.565714,0.171026 1.028572,0.476562 1.028572,0.678969 0,0.449264 -0.125225,0.445902 -1.489009,-0.03998 z m 35.406175,-0.264868 c -0.0841,-0.219217 -0.62189,-0.707745 -1.19505,-1.085618 -0.85823,-0.565813 -1.21151,-0.648621 -2.00212,-0.469295 -1.02082,0.231545 -1.64571,0.137815 -1.64571,-0.246847 0,-0.333933 2.32114,-0.638993 3.19437,-0.419826 0.77772,0.195195 2.56563,1.810851 2.56563,2.318449 0,0.44505 -0.73912,0.366987 -0.91712,-0.09686 z m 84.58528,-1.687458 c -0.67103,-2.172537 -0.7162,-3.125394 -0.14816,-3.125394 0.25194,0 0.41143,0.256333 0.41143,0.661277 0,0.363703 0.24526,1.443703 0.54503,2.4 0.29977,0.956298 0.54663,1.76958 0.54857,1.807295 0.002,0.03771 -0.17664,0.06857 -0.39687,0.06857 -0.25413,0 -0.60484,-0.661879 -0.96,-1.811749 z m 1.54398,-0.130957 c -0.7822,-2.797175 -0.79937,-3.933389 -0.0438,-2.900136 0.52047,0.711783 0.80702,2.634378 0.44639,2.995011 -0.20894,0.208939 -0.32526,0.181525 -0.40255,-0.09488 z M 100.59429,93.925605 c -0.46003,-0.47256 -0.13956,-0.668599 1.09714,-0.671142 0.80787,-0.0017 1.86029,-0.262179 2.77009,-0.685715 1.69607,-0.789562 3.30312,-0.868534 5.52705,-0.271606 0.82971,0.222705 1.81714,0.408273 2.19429,0.412373 0.84143,0.0091 1.49844,0.394502 1.27872,0.750006 -0.10166,0.164487 -0.8631,0.116093 -2.02371,-0.128619 -3.46831,-0.731284 -5.32869,-0.753312 -6.65094,-0.07875 -1.22128,0.623046 -3.83328,1.042608 -4.19264,0.673454 z m 56.29714,-3.959891 c -0.51903,-0.519029 -0.75168,-1.371429 -0.37431,-1.371429 0.0958,0 0.46753,0.316444 0.82597,0.703209 0.45429,0.49018 0.81695,0.650764 1.19717,0.530088 0.38605,-0.122527 0.54545,-0.04748 0.54545,0.256791 0,0.633731 -1.52432,0.5513 -2.19428,-0.118659 z m 74.24501,-3.121006 c -0.25409,-0.66215 0.2999,-2.429601 0.9587,-3.058626 1.40573,-1.342197 5.24407,-3.694654 6.02831,-3.694654 0.84039,0 2.69941,0.670039 2.69941,0.972935 0,0.09794 -0.72924,0.09343 -1.62053,-0.01001 l -1.62054,-0.188083 -2.43104,1.634635 c -2.89872,1.949088 -3.11075,2.181097 -3.30295,3.614054 -0.15023,1.120026 -0.4454,1.422831 -0.71136,0.729751 z"
       id="path1" />
  </g>
</svg>
