<?xml version="1.0" encoding="UTF-8" standalone="no"?>
<!-- Created with Inkscape (http://www.inkscape.org/) -->

<svg
   version="1.1"
   id="svg1"
   width="294.58286"
   height="294.58286"
   viewBox="0 0 294.58286 294.58286"
   sodipodi:docname="terlingua-medium-5-v-outline.svg"
   inkscape:version="1.4 (86a8ad7, 2024-10-11)"
   xmlns:inkscape="http://www.inkscape.org/namespaces/inkscape"
   xmlns:sodipodi="http://sodipodi.sourceforge.net/DTD/sodipodi-0.dtd"
   xmlns="http://www.w3.org/2000/svg"
   xmlns:svg="http://www.w3.org/2000/svg">
  <defs
     id="defs1" />
  <sodipodi:namedview
     id="namedview1"
     pagecolor="#ffffff"
     bordercolor="#000000"
     borderopacity="0.25"
     inkscape:showpageshadow="2"
     inkscape:pageopacity="0.0"
     inkscape:pagecheckerboard="0"
     inkscape:deskcolor="#d1d1d1"
     inkscape:zoom="2.766624"
     inkscape:cx="147.47215"
     inkscape:cy="147.29143"
     inkscape:window-width="1920"
     inkscape:window-height="1017"
     inkscape:window-x="-8"
     inkscape:window-y="-8"
     inkscape:window-maximized="1"
     inkscape:current-layer="g1" />
  <g
     inkscape:groupmode="layer"
     inkscape:label="Image"
     id="g1">
    <path
       style="fill:#000000"
       d="m 253.84051,185.46268 c -3.14224,-1.90727 -4.11667,-2.735 -7.94337,-6.74741 -3.70812,-3.88807 -7.9601,-7.41526 -10.87488,-9.02112 -0.65653,-0.36171 -2.74907,-1.23029 -4.65008,-1.93019 -2.83653,-1.04432 -3.78667,-1.27253 -5.29803,-1.27253 -1.01291,0 -2.0861,-0.13083 -2.38488,-0.29073 -0.29878,-0.15991 -1.2333,-0.40305 -2.07671,-0.54031 -0.8434,-0.13727 -2.33269,-0.62359 -3.30952,-1.0807 -0.97683,-0.45712 -1.95145,-0.83112 -2.16581,-0.83112 -0.21437,0 -0.97194,0.29481 -1.68349,0.65513 -0.71156,0.36031 -1.94948,0.84967 -2.75093,1.08746 -2.67774,0.79447 -6.81235,-0.20497 -8.88922,-2.14874 -1.67123,-1.56414 -2.87703,-1.59049 -5.16327,-0.11281 -1.54409,0.99799 -1.88815,1.11283 -3.01087,1.00495 -0.96954,-0.0932 -1.61299,-0.39484 -2.73671,-1.28309 -1.04036,-0.82236 -1.63499,-1.11562 -2.03737,-1.00481 -1.66185,0.45767 -2.65777,0.46381 -3.98029,0.0245 -0.98147,-0.32599 -1.51066,-0.38223 -1.74745,-0.18571 -0.18681,0.15503 -0.92424,0.48035 -1.63873,0.72293 -2.31843,0.78713 -4.88671,-0.0982 -6.76173,-2.3309 -0.9159,-1.09061 -1.70405,-1.67426 -3.18464,-2.35834 -2.43424,-1.12469 -3.58406,-1.31004 -5.96963,-0.96234 -2.39387,0.34891 -3.90193,-0.0745 -5.49487,-1.54284 -0.84929,-0.78285 -1.78142,-1.27323 -3.43248,-1.80578 -2.04765,-0.66047 -2.66933,-0.73108 -6.43655,-0.73108 -3.62252,0 -4.30213,-0.0708 -5.17653,-0.53947 -0.89252,-0.47837 -1.35813,-0.52113 -4.11022,-0.3775 -2.29091,0.11957 -3.71982,0.0454 -5.45648,-0.28338 -2.8619,-0.54173 -4.76028,-0.55079 -7.11006,-0.0339 -2.81105,0.61832 -3.47926,0.55136 -3.9701,-0.39781 -0.49861,-0.96421 -0.54336,-3.41453 -0.10246,-5.60996 0.29154,-1.45168 0.27263,-1.61693 -0.24419,-2.13375 l -0.56021,-0.56021 -1.79116,0.71658 c -0.98513,0.39412 -1.95867,0.71657 -2.16341,0.71657 -0.20474,0 -1.35149,0.31983 -2.54833,0.71073 -1.96227,0.6409 -2.40525,0.92766 -4.50863,2.91869 -1.28291,1.21438 -2.72547,2.37213 -3.20569,2.57278 -1.2268,0.51259 -4.42334,0.84708 -5.72867,0.59945 -0.60343,-0.11447 -1.94055,-0.13526 -2.97137,-0.0462 -1.798346,0.15539 -1.925027,0.12546 -3.129106,-0.73925 -1.430152,-1.02705 -2.556452,-1.13803 -6.104491,-0.6015 -2.280385,0.34484 -2.340772,0.32773 -6.006184,-1.70103 -2.481606,-1.37354 -3.923523,-1.35289 -5.869136,0.0841 -3.552773,2.6239 -4.926831,2.72578 -7.628747,0.56564 -0.603799,-0.48273 -1.221146,-0.59449 -3.977142,-0.71999 -2.784435,-0.1268 -3.563785,-0.0639 -5.319542,0.42927 -1.783934,0.5011 -2.84034,0.58113 -7.954285,0.6026 -7.695085,0.0323 -10.067698,0.52245 -13.330163,2.75383 -2.153425,1.47284 -6.434691,1.69756 -6.04468,0.31728 0.571756,-2.0235 0.783307,-6.77104 0.519533,-11.65914 -0.156582,-2.90168 -0.297452,-6.44836 -0.313044,-7.8815 -0.01559,-1.43314 -0.101213,-3.18345 -0.190266,-3.88957 -0.153862,-1.21999 -0.120512,-1.30527 0.670445,-1.71429 0.457799,-0.23673 1.041184,-0.43043 1.296411,-0.43043 1.166753,0 4.267661,1.19088 5.617374,2.15731 2.342803,1.67751 3.054443,1.849 9.822788,2.36699 0.812334,0.0622 2.47862,-0.0798 3.702857,-0.31546 2.888835,-0.55612 5.948243,-0.34921 8.671602,0.58648 2.499641,0.85883 5.595759,1.17608 6.894741,0.70649 2.483632,-0.89785 5.281018,-1.40904 10.501572,-1.91904 2.402572,-0.23471 2.885422,-0.37472 4.114286,-1.19299 2.38712,-1.58953 2.779342,-1.79056 4.429347,-2.27023 1.726362,-0.50187 1.771489,-0.50091 12.18577,0.25902 4.05422,0.29584 5.32241,0.48678 6.30857,0.94983 0.67886,0.31876 1.64035,0.58227 2.13664,0.58558 0.4963,0.003 1.3603,0.24323 1.92,0.53315 1.06586,0.5521 3.44262,2.89185 4.98765,4.90999 0.77716,1.01514 1.01065,1.16028 1.62315,1.00901 0.94071,-0.23232 2.2032,-1.45306 2.40374,-2.32424 0.0878,-0.38132 0.57696,-1.45394 1.08707,-2.3836 0.57339,-1.04499 0.92746,-2.07069 0.92746,-2.68675 0,-2.42783 2.40747,-3.02976 5.87527,-1.46896 1.06803,0.4807 2.15489,1.05255 2.41523,1.27078 0.35836,0.30039 0.9885,0.36372 2.59385,0.2607 1.34945,-0.0866 2.72322,0.007 3.77808,0.25676 0.91166,0.21607 2.645,0.40193 3.85186,0.41302 1.20686,0.0111 2.31771,0.0951 2.46857,0.18669 0.15086,0.0916 0.88214,0.35326 1.62507,0.58151 1.06895,0.32841 1.53144,0.67178 2.21669,1.64576 0.71269,1.01299 1.05608,1.2577 1.94065,1.38294 0.5911,0.0837 1.35876,0.30741 1.7059,0.49715 0.98863,0.54038 3.52881,0.22771 5.23209,-0.64401 1.58857,-0.81301 2.98058,-0.93786 4.57819,-0.4106 0.52403,0.17295 1.42518,0.23464 2.00254,0.13709 0.75968,-0.12834 1.49709,-0.008 2.6686,0.43625 1.31703,0.4992 2.23248,0.62082 4.91027,0.65232 4.72603,0.0556 4.69854,0.0506 5.82778,1.05707 0.56615,0.50458 1.76993,1.38572 2.67508,1.95807 0.90514,0.57235 2.27668,1.69574 3.04787,2.49641 1.91941,1.9928 2.48203,2.08895 4.82847,0.82518 l 1.88778,-1.01675 1.46873,0.42697 c 0.80779,0.23483 1.89166,0.42697 2.40859,0.42697 0.51693,0 1.54708,0.30857 2.28921,0.68572 1.12362,0.571 1.86365,0.70932 4.42371,0.82679 1.76696,0.0811 3.57493,0.0173 4.25143,-0.15002 0.64739,-0.1601 3.01171,-0.39777 5.25404,-0.52815 4.06385,-0.2363 4.08418,-0.24079 6.30858,-1.39321 2.31597,-1.19985 4.73151,-2.58844 6.62016,-3.80563 3.09175,-1.99257 7.85461,-2.55514 10.49458,-1.23958 1.07517,0.53578 1.52486,0.95639 1.87782,1.75639 0.43232,0.97986 0.56213,1.06414 1.89546,1.23073 1.64584,0.20564 2.54939,0.64878 6.19387,3.03773 5.25582,3.44519 7.98649,4.43621 13.617,4.94188 l 1.9873,0.17849 1.13626,1.41228 c 2.06532,2.56704 2.52852,3.93506 2.75353,8.13229 0.10918,2.03658 0.31443,4.32 0.45612,5.07429 0.1815,0.96619 0.14293,2.22244 -0.13052,4.25143 -0.21347,1.584 -0.50557,3.86743 -0.6491,5.07428 -0.14353,1.20686 -0.44726,3.05829 -0.67494,4.11429 -0.22769,1.056 -0.59521,2.88947 -0.8167,4.07437 -0.31119,1.66475 -0.79321,2.87373 -2.12086,5.31949 -1.77631,3.27227 -2.95012,4.74865 -3.74378,4.70882 -0.25239,-0.0127 -1.20438,-0.47552 -2.11553,-1.02857 z m 3.93184,-2.88289 c 1.71736,-2.91788 2.7127,-5.54213 3.07123,-8.09742 0.15592,-1.11126 0.33344,-2.1013 0.39449,-2.20008 0.061,-0.0988 0.18851,-0.73242 0.28325,-1.40809 0.0947,-0.67567 0.40526,-2.70963 0.69004,-4.51992 0.74655,-4.74563 0.8513,-6.16997 0.5446,-7.40571 -0.14976,-0.60343 -0.38781,-2.81129 -0.529,-4.90635 -0.27761,-4.1195 -0.73992,-5.54068 -2.44559,-7.51805 -0.72105,-0.83591 -0.95437,-0.92288 -3.08075,-1.14831 -4.09279,-0.4339 -6.23715,-1.03299 -9.01259,-2.51794 -1.43756,-0.76914 -3.16917,-1.78811 -3.84803,-2.26437 -3.03834,-2.13158 -4.25145,-2.72508 -6.17143,-3.01931 -1.90608,-0.29211 -1.9242,-0.303 -2.49968,-1.50211 -0.81783,-1.70409 -1.86372,-2.1948 -4.70858,-2.20921 -2.65454,-0.0134 -4.09697,0.49531 -7.73513,2.72819 -5.67084,3.4804 -8.76567,4.61759 -11.4864,4.22065 -1.12266,-0.16378 -1.18438,-0.13937 -1.01298,0.40063 0.1487,0.46854 0.0399,0.61077 -0.58736,0.7679 -0.90404,0.22647 -3.82942,1.71959 -4.99455,2.54924 -0.758,0.53974 -2.80925,1.39047 -3.35266,1.39047 -0.13189,0 -0.2398,-0.17955 -0.2398,-0.399 0,-0.23894 0.38563,-0.47135 0.96133,-0.57935 0.52873,-0.0992 1.44133,-0.52806 2.02801,-0.95304 1.18472,-0.85821 3.47413,-2.06381 4.95703,-2.61036 l 0.96791,-0.35674 -0.96,-0.0146 c -0.528,-0.008 -1.824,0.17131 -2.88,0.39849 -2.86968,0.61736 -8.08531,0.2941 -9.6241,-0.5965 -0.61668,-0.35692 -1.53154,-0.64894 -2.03303,-0.64894 -0.50149,0 -1.54133,-0.19845 -2.31077,-0.44099 l -1.39898,-0.44099 -1.68842,0.98956 c -0.92864,0.54426 -1.94934,0.98956 -2.26823,0.98956 -1.07941,0 -2.38906,-0.75264 -3.87851,-2.22893 -2.04824,-2.03015 -2.92953,-2.30708 -5.08068,-1.59652 -1.80581,0.59648 -4.44793,0.71075 -9.10493,0.39377 -1.7763,-0.12091 -2.52035,-0.27209 -2.44484,-0.49677 0.0753,-0.22396 0.8581,-0.29787 2.55337,-0.24107 5.37218,0.17997 7.36549,0.0866 8.79626,-0.41194 l 1.41428,-0.49282 -1.26614,-1.09715 -1.26613,-1.09714 -3.71386,-0.0118 c -3.17982,-0.0101 -3.96377,-0.10311 -5.45185,-0.64668 -1.12379,-0.4105 -2.02818,-0.57683 -2.55913,-0.47064 -0.45163,0.0903 -1.62318,-0.0372 -2.60345,-0.28347 l -1.78231,-0.4477 -1.96713,1.05379 c -4.91015,2.63037 -6.76713,3.32162 -6.76713,2.51901 0,-0.23954 0.65664,-0.58168 1.71428,-0.89323 1.30994,-0.38586 1.55255,-0.52975 1.02858,-0.61005 -0.37715,-0.0578 -1.17943,-0.2749 -1.78286,-0.48246 -0.60343,-0.20756 -1.55437,-0.45152 -2.1132,-0.54214 -0.9743,-0.15799 -1.14952,-0.30954 -2.63,-2.27468 -0.55395,-0.73529 -3.80172,-1.51004 -5.78593,-1.38023 l -1.24937,0.0817 0.81496,0.53151 c 0.44823,0.29233 1.46802,0.58575 2.26619,0.65204 1.91381,0.15895 1.75585,0.75055 -0.18637,0.698 -1.08206,-0.0293 -1.68577,-0.22561 -2.53032,-0.82286 -2.59631,-1.83607 -3.1779,-2.02822 -5.57985,-1.84359 l -2.21343,0.17014 -2.46491,-1.26928 c -2.69337,-1.38691 -4.64584,-1.70732 -4.98695,-0.81839 -0.18852,0.49126 0.43548,3.37805 1.46172,6.7623 1.01745,3.35531 0.82497,6.17859 -0.56042,8.22008 -1.16618,1.71847 -2.09909,8.04672 -1.26247,8.56378 0.14909,0.0922 1.6098,-0.038 3.24601,-0.28918 2.51143,-0.38555 3.33455,-0.40592 5.2832,-0.13074 3.46957,0.48996 5.95629,0.62911 7.59151,0.4248 1.27012,-0.15869 1.66118,-0.36641 2.88193,-1.53075 1.67361,-1.59629 2.46502,-1.42017 0.92417,0.20566 -0.54623,0.57635 -0.99421,1.11387 -0.99552,1.19448 -0.001,0.0806 0.35609,0.35834 0.79423,0.61715 0.61647,0.36416 1.44825,0.47056 3.67847,0.47056 2.84233,0 2.89067,-0.0108 3.5234,-0.78829 0.35283,-0.43356 0.85178,-1.17413 1.10876,-1.64571 0.47641,-0.87424 1.04133,-1.14533 1.04133,-0.4997 0,0.19675 -0.35873,0.9234 -0.79719,1.61477 l -0.79718,1.25703 1.14004,0.18168 c 0.62703,0.0999 1.96988,0.43345 2.98412,0.74115 1.68536,0.51131 2.42074,0.94535 4.69043,2.76841 0.67193,0.53971 1.01701,0.60756 2.60571,0.51239 4.42363,-0.26501 4.96789,-0.18909 7.52081,1.04909 1.8459,0.89527 2.6813,1.49452 3.62761,2.60219 0.95897,1.12249 1.56485,1.55308 2.7542,1.95735 1.23823,0.42089 1.62537,0.45546 2.0601,0.18396 0.29444,-0.18387 0.76876,-0.33432 1.05405,-0.33432 0.28528,0 0.67236,-0.18514 0.86016,-0.41143 0.4438,-0.53474 1.36024,-0.52121 2.76496,0.0409 0.92894,0.37169 1.40645,0.40212 2.67984,0.17075 1.76346,-0.3204 2.36069,-0.16336 3.82683,1.00627 0.55775,0.44494 1.33483,0.92907 1.72684,1.07584 0.76178,0.28521 0.70084,0.30827 3.34287,-1.26513 2.22127,-1.32284 3.91728,-1.11919 6.0145,0.7222 1.52648,1.34027 3.193,1.95313 5.47602,2.01381 1.80052,0.0479 2.24309,-0.0539 4.28056,-0.98387 2.5808,-1.178 2.88416,-1.16965 5.72001,0.1574 1.0299,0.48195 1.99902,0.76222 2.3333,0.6748 0.31447,-0.0822 0.80987,-0.003 1.10088,0.17593 0.44894,0.27613 0.60944,0.22154 1.05922,-0.36027 0.29156,-0.37715 0.858,-1.67315 1.25876,-2.88 0.76828,-2.31366 1.12209,-2.96299 1.49043,-2.73534 0.26524,0.16392 -1.12496,4.40715 -1.8411,5.61948 -0.6481,1.09715 -0.24823,1.37218 1.70235,1.17086 1.23957,-0.12793 1.93297,0.0361 5.23485,1.2382 2.09331,0.76212 4.42316,1.7306 5.17745,2.1522 2.99373,1.67328 7.02886,5.01942 11.52,9.55298 3.37883,3.41075 5.15209,4.98509 6.43947,5.71712 0.97714,0.55561 1.98825,1.01021 2.24691,1.01021 0.29901,0 0.96094,-0.83362 1.8174,-2.28878 z m -7.48786,-13.55122 c -0.29824,-1.5116 -1.18405,-4.37975 -2.13897,-6.92571 -0.53753,-1.43315 -1.25588,-3.39952 -1.59632,-4.36973 -0.86736,-2.4718 -1.89791,-3.58456 -3.31977,-3.58456 -0.94874,0 -1.05474,-0.0573 -0.76086,-0.41143 0.85154,-1.02604 3.0581,0.006 4.0294,1.88392 0.3998,0.77313 1.22091,3.00619 3.67417,9.99214 0.79788,2.27205 1.03919,4.16966 0.53023,4.16966 -0.14799,0 -0.33603,-0.33943 -0.41788,-0.75429 z m 6.9207,-2.54275 c -0.6164,-0.94363 -2.25147,-5.25286 -2.80787,-7.40011 -0.53949,-2.082 -0.39808,-3.76014 0.42972,-5.09955 0.59275,-0.95909 4.65218,-4.50045 5.15883,-4.50045 0.61761,0 -0.076,0.82997 -2.13195,2.55091 -3.77752,3.16205 -3.89196,4.40122 -1.07555,11.64622 1.0889,2.80111 1.29053,4.12524 0.42682,2.80298 z m -32.01547,-2.53154 c 6.3e-4,-0.0377 0.3092,-0.67577 0.68571,-1.41791 0.37651,-0.74214 0.68526,-1.54442 0.6861,-1.78286 0.003,-0.84575 0.57726,-2.49065 0.86955,-2.49065 0.46841,0 0.0135,2.67747 -0.73399,4.32 -0.38182,0.83901 -0.83336,1.44 -1.08192,1.44 -0.23463,0 -0.42608,-0.0309 -0.42545,-0.0686 z m 10.69599,-1.15542 c 0,-0.84816 1.15135,-3.43886 1.52828,-3.43886 0.49548,0 0.4973,-0.0175 -0.15685,1.50857 -0.30171,0.70387 -0.54857,1.51639 -0.54857,1.8056 0,0.2892 -0.18514,0.52583 -0.41143,0.52583 -0.22628,0 -0.41143,-0.18051 -0.41143,-0.40114 z m -14.41738,-0.88675 c 0.0982,-0.25577 0.37242,-1.05806 0.60949,-1.78286 0.49753,-1.52113 1.2707,-1.88137 0.91514,-0.42639 -0.42134,1.72413 -0.87936,2.67428 -1.28914,2.67428 -0.27647,0 -0.35468,-0.15444 -0.23549,-0.46503 z m -14.6569,-0.33934 c 0,-0.14069 0.23058,-0.32899 0.51239,-0.41843 0.28182,-0.0894 0.73295,-0.40634 1.00252,-0.7042 0.26956,-0.29786 0.59441,-0.54157 0.72188,-0.54157 0.49217,0 0.19812,0.80952 -0.49093,1.35152 -0.74456,0.58567 -1.74586,0.765 -1.74586,0.31268 z m 11.84252,-0.68405 c -0.42518,-0.72061 -0.68742,-0.9051 -1.12424,-0.79087 -0.31334,0.0819 -0.56971,0.0359 -0.56971,-0.10243 0,-0.36821 0.60306,-0.90971 1.01314,-0.90971 0.44306,0 2.0477,2.17597 1.84568,2.50284 -0.27486,0.44473 -0.60747,0.24491 -1.16487,-0.69983 z m -16.12227,-0.26932 c -0.26578,-0.69262 -1.62884,-1.05388 -3.17433,-0.84132 -1.30678,0.17973 -1.41183,0.15651 -1.08324,-0.23941 1.16193,-1.40005 4.9716,-0.49988 4.9716,1.17473 0,0.42811 -0.54101,0.35689 -0.71403,-0.094 z m -22.32597,-1.52445 c 0,-1.08153 0.77108,-2.14389 1.80334,-2.48457 0.70615,-0.23305 1.07458,-0.24218 1.28492,-0.0318 0.21034,0.21035 0.14412,0.3432 -0.23096,0.46335 -1.44111,0.46163 -1.75284,0.70471 -1.96785,1.53445 -0.26548,1.02451 -0.88945,1.38833 -0.88945,0.51861 z m 5.16325,-0.13908 c -0.54911,-0.37313 -1.05927,-0.83599 -1.13369,-1.02857 -0.21661,-0.56059 0.13483,-6.35287 0.40646,-6.69888 0.13576,-0.17294 0.47977,-0.79009 0.76446,-1.37143 0.44543,-0.90956 0.54604,-0.98412 0.72133,-0.5346 0.13306,0.34122 -0.0236,0.95082 -0.45164,1.75772 -0.53944,1.01685 -0.66934,1.71407 -0.73448,3.94215 l -0.0791,2.70681 0.96315,0.56827 c 0.52973,0.31255 0.96315,0.74122 0.96315,0.95261 0,0.54025 -0.27589,0.48309 -1.41961,-0.29408 z m 28.4039,0.006 c -0.0914,-0.23811 -0.10065,-0.68329 -0.0206,-0.9893 0.08,-0.30601 0.0309,-0.95217 -0.10907,-1.4359 -0.14001,-0.48374 -0.37473,-1.62009 -0.52159,-2.52523 -0.16059,-0.98978 -0.45422,-1.78278 -0.7367,-1.9896 -0.37853,-0.27715 -0.40222,-0.41022 -0.12209,-0.68572 0.52648,-0.51775 1.33891,0.64048 1.54817,2.20714 0.0949,0.71007 0.28676,1.64888 0.42647,2.08625 0.53699,1.68113 0.10124,4.80682 -0.46456,3.33236 z m -18.20415,-2.7808 c -1.96177,-1.12126 -2.16687,-1.84398 -0.69752,-2.45791 1.19753,-0.50036 2.06595,-0.50922 2.06595,-0.0211 0,0.227 -0.43541,0.44599 -1.09714,0.55181 -0.60343,0.0965 -1.09714,0.26676 -1.09714,0.37838 0,0.11162 0.54711,0.49319 1.2158,0.84793 1.18755,0.62999 1.84261,1.41451 1.17559,1.40791 -0.18384,-0.002 -0.88833,-0.31999 -1.56554,-0.70706 z m 35.65415,-0.097 c 0,-0.14232 0.65086,-0.87432 1.44637,-1.62668 0.93911,-0.88817 1.77535,-2.04796 2.38441,-3.30695 0.90503,-1.87078 1.38064,-2.39504 1.38064,-1.52184 0,0.22946 -0.3905,1.21811 -0.86779,2.197 -1.11031,2.27717 -4.34363,5.4471 -4.34363,4.25847 z m -54.95603,-0.48013 c -0.0965,-0.0965 -0.1754,-0.5102 -0.1754,-0.9194 0,-0.4092 -0.31561,-1.43337 -0.70135,-2.27593 -1.02568,-2.24039 -0.90686,-4.9649 0.24931,-5.71626 0.59396,-0.38599 0.65165,0.0803 0.13329,1.07746 -0.64694,1.24452 -0.51794,2.53729 0.46876,4.69759 0.67814,1.48474 0.87293,2.89654 0.43682,3.16607 -0.12982,0.0802 -0.31496,0.0669 -0.41143,-0.0295 z m 27.77742,-0.40371 c -0.49694,-0.92854 -0.13962,-3.60375 0.66466,-4.97615 0.79929,-1.36389 2.9919,-3.48125 3.60496,-3.48125 0.65941,0 0.51536,0.2253 -1.07103,1.67517 -2.24186,2.04893 -3.07599,4.27677 -2.47936,6.62197 0.23307,0.9161 -0.25636,1.02516 -0.71923,0.16026 z m 16.31689,-0.0643 c -0.1004,-0.26165 -0.0468,-0.6115 0.11916,-0.77745 0.21943,-0.21942 0.3515,-0.17197 0.48427,0.17402 0.10041,0.26165 0.0468,0.6115 -0.11916,0.77745 -0.21943,0.21942 -0.3515,0.17196 -0.48427,-0.17402 z m 4.9689,-0.15095 c -0.0987,-0.31084 -0.49478,-0.93999 -0.88027,-1.39812 -0.73159,-0.86944 -0.66031,-1.40888 0.12105,-0.91602 0.61284,0.38657 1.39049,1.49816 1.49356,2.13492 0.11657,0.72017 -0.51382,0.87402 -0.73434,0.17922 z M 165.12,153.71217 c 0,-0.0892 0.42889,-0.66317 0.95308,-1.27557 0.5242,-0.61241 1.1611,-1.68117 1.41534,-2.37503 0.25424,-0.69387 0.62764,-1.44231 0.82977,-1.6632 0.31637,-0.34574 0.36715,-0.30757 0.36484,0.27428 -0.006,1.47755 -2.27969,5.20163 -3.17598,5.20163 -0.21288,0 -0.38705,-0.0729 -0.38705,-0.16211 z m 15.11018,-1.29591 c -0.65565,-1.3544 -0.68907,-1.81395 -0.27297,-3.75416 0.18244,-0.8507 0.42437,-1.35328 0.61715,-1.28208 0.17439,0.0644 0.28788,0.25098 0.2522,0.41459 -0.42798,1.96252 -0.38041,3.37813 0.14754,4.39104 0.52565,1.00848 0.53519,1.41435 0.0332,1.41435 -0.11225,0 -0.46197,-0.53268 -0.77714,-1.18374 z m 9.84982,-0.44908 c 0,-0.3888 1.98729,-0.87818 2.29926,-0.5662 0.16199,0.16199 -0.0209,0.36493 -0.4896,0.54311 -0.93583,0.35581 -1.80966,0.36695 -1.80966,0.0231 z m -29.34857,-1.11916 c 0,-0.15587 0.28839,-0.86558 0.64086,-1.57714 0.35247,-0.71156 1.04521,-2.31202 1.5394,-3.5566 0.52232,-1.3154 1.0579,-2.26285 1.27914,-2.26285 0.20933,0 0.3806,0.0479 0.3806,0.10646 0,0.0586 -0.56606,1.44713 -1.25792,3.08572 -0.69185,1.63858 -1.39777,3.31867 -1.5687,3.73353 -0.29863,0.72478 -1.01338,1.0569 -1.01338,0.47088 z m 56.50285,-0.16635 c 0,-0.31867 0.95062,-0.90407 1.48252,-0.91295 0.50515,-0.008 0.50601,0.01 0.0261,0.53985 -0.46179,0.51026 -1.50858,0.76915 -1.50858,0.3731 z m -26.04657,-1.8131 c 0.006,-0.18857 0.40558,-0.59137 0.88838,-0.8951 1.2733,-0.80104 1.30787,-1.42823 0.0708,-1.28381 -0.54048,0.0631 -0.96973,-0.008 -0.96973,-0.16174 0,-0.69007 2.66056,-0.86726 2.91877,-0.19437 0.21673,0.56478 -0.57032,1.69475 -1.63081,2.34138 -1.02308,0.6238 -1.2919,0.66456 -1.27739,0.19364 z m 33.27464,-0.20388 c -0.64903,-0.26187 -1.06142,-0.7742 -0.81861,-1.017 0.0857,-0.0857 0.53692,0.002 1.00272,0.19499 0.63584,0.26337 0.92514,0.27257 1.1608,0.0369 0.46223,-0.46224 0.75274,-0.38299 0.75274,0.20534 0,0.79115 -0.93394,1.04928 -2.09765,0.57975 z m -74.42807,-0.40794 c 0,-0.28447 1.88367,-3.04829 2.36715,-3.4732 0.28207,-0.2479 1.43857,-0.84068 2.57,-1.31727 2.38399,-1.00422 3.77537,-2.24206 5.87515,-5.22684 1.68888,-2.40068 2.18311,-2.86634 2.79357,-2.63209 0.37643,0.14445 0.33248,0.26178 -0.27787,0.74188 -0.39876,0.31366 -1.23186,1.33026 -1.85134,2.2591 -1.9109,2.8652 -3.62286,4.42133 -5.9621,5.4194 -2.40948,1.02804 -3.06549,1.54647 -4.0219,3.17846 -0.38111,0.65031 -0.87286,1.18238 -1.09279,1.18238 -0.21993,0 -0.39987,-0.0593 -0.39987,-0.13182 z M 129.6,147.46062 c -0.45257,-0.20269 -1.03561,-0.60752 -1.29564,-0.89962 -0.57277,-0.64342 -1.36551,-2.79797 -1.15488,-3.13878 0.30235,-0.48922 0.58744,-0.22301 0.90839,0.84824 0.42409,1.41546 1.3163,2.39224 2.43484,2.66563 0.49099,0.12001 0.92299,0.34162 0.96,0.49248 0.10394,0.42369 -0.93802,0.44172 -1.85271,0.032 z m 118.76571,-0.11892 c -2.02657,-0.8638 -2.83081,-1.40633 -4.84891,-3.27106 -1.10453,-1.02058 -2.37829,-2.12279 -2.83059,-2.44934 -0.86703,-0.62599 -0.82142,-1.07966 0.0798,-0.79363 0.29319,0.0931 1.62061,1.1626 2.94982,2.37676 2.6365,2.4083 4.48854,3.50197 6.39117,3.77413 0.67662,0.0968 1.28163,0.3302 1.34447,0.51871 0.16888,0.50664 -1.76032,0.40939 -3.08576,-0.15557 z m -109.02857,-0.1941 c 0,-0.22996 0.49903,-1.12481 1.10896,-1.98857 2.22487,-3.15077 2.57251,-3.78713 2.71897,-4.9771 0.20262,-1.64627 0.83644,-1.83747 0.83042,-0.2505 -0.005,1.27391 -0.25257,1.767 -2.72473,5.42328 -1.47714,2.18466 -1.93362,2.60792 -1.93362,1.79289 z m -4.11428,-0.70526 c 0,-0.96787 2.44856,-4.08806 3.20809,-4.08806 0.55371,0 0.42633,0.38975 -0.36535,1.11791 -0.39763,0.36572 -1.142,1.31295 -1.65414,2.10495 -0.51215,0.792 -0.9891,1.44 -1.05989,1.44 -0.0708,0 -0.12871,-0.25866 -0.12871,-0.5748 z m 48.32982,-0.67892 c -0.48631,-0.75058 -0.64775,-1.43865 -0.70713,-3.01375 -0.0423,-1.1226 0.0209,-2.0411 0.14053,-2.0411 0.47722,0 0.83112,1.20834 0.67195,2.29423 -0.12683,0.86517 -0.0355,1.34744 0.38499,2.0324 1.03244,1.68193 0.57129,2.3668 -0.49034,0.72822 z m -14.2829,0.41064 c -0.92645,-0.19872 -2.20043,-1.1977 -1.90463,-1.4935 0.0866,-0.0866 0.68004,0.11482 1.31866,0.44769 1.03063,0.53719 1.26785,0.56662 2.11063,0.26187 0.96497,-0.34894 1.37012,-0.26956 1.07353,0.21034 -0.29439,0.47633 -1.65317,0.77631 -2.59819,0.5736 z m -20.15356,-0.46049 c -0.19035,-0.30799 0.54412,-2.28004 1.03021,-2.76613 0.70907,-0.70906 0.80668,-0.14174 0.19354,1.12484 -0.31898,0.65893 -0.57997,1.34423 -0.57997,1.52289 0,0.36012 -0.44393,0.44176 -0.64378,0.1184 z m 46.47157,-0.0903 c -0.88447,-0.35789 -0.38493,-0.84998 0.59642,-0.58753 0.77579,0.20748 1.04072,0.7077 0.42456,0.80161 -0.19654,0.0299 -0.65598,-0.0664 -1.02098,-0.21408 z m 14.78935,-1.63676 c 0,-0.15829 0.9093,-0.71963 2.02067,-1.24742 1.91633,-0.91006 2.08635,-0.94307 3.29251,-0.63936 1.56242,0.39342 2.42598,0.0969 3.7232,-1.2784 1.43956,-1.52621 2.7447,-2.42994 3.0575,-2.11714 0.18285,0.18286 -0.0543,0.52492 -0.71152,1.0262 -0.5422,0.41355 -1.46293,1.23382 -2.04608,1.82283 -1.47027,1.48504 -2.27606,1.7516 -4.03436,1.3346 -1.37221,-0.32544 -1.46747,-0.30845 -2.94442,0.52509 -1.57031,0.88622 -2.3575,1.07775 -2.3575,0.5736 z m -13.15777,-0.52434 c -0.66727,-0.42199 -0.0858,-0.66274 1.43615,-0.59459 0.78975,0.0354 1.94932,-0.11795 2.57682,-0.3407 1.08521,-0.38524 1.4648,-0.34979 1.4648,0.13681 0,0.33767 -2.71237,1.06254 -3.95835,1.05785 -0.61377,-0.002 -1.2975,-0.11902 -1.51942,-0.25937 z m -6.22716,-0.41785 c -0.60066,-0.42072 -1.26439,-1.89211 -0.98124,-2.17526 0.32832,-0.32832 0.57175,-0.13804 0.85205,0.66601 0.43288,1.24177 1.09767,1.34979 1.95881,0.31827 0.79264,-0.94945 1.09817,-1.08302 1.09817,-0.48007 0,0.58506 -1.35315,2.07819 -1.88335,2.07819 -0.25474,0 -0.72474,-0.18322 -1.04444,-0.40714 z m -57.41507,-0.97108 c 0,-0.15459 0.28466,-0.3893 0.63257,-0.52158 0.65305,-0.24828 1.86588,-1.67817 2.20804,-2.60321 0.26231,-0.70914 0.84302,-0.14059 0.60912,0.59636 -0.28754,0.90594 -2.22465,2.8095 -2.85902,2.8095 -0.32489,0 -0.59071,-0.12648 -0.59071,-0.28107 z m 93.12,-1.51208 c -0.15086,-0.0434 -0.61371,-0.15372 -1.02857,-0.24522 -1.226,-0.2704 -0.91782,-0.79865 0.36551,-0.62652 0.61589,0.0826 1.19394,0.22435 1.28457,0.31498 0.21826,0.21825 -0.27185,0.6573 -0.62151,0.55676 z M 134.4,133.70816 c 0,-0.22966 -0.49372,-0.95318 -1.09714,-1.60782 -1.71885,-1.86473 -1.41468,-2.6042 0.32333,-0.78606 1.49633,1.56533 2.02166,2.81143 1.18524,2.81143 -0.22629,0 -0.41143,-0.1879 -0.41143,-0.41755 z m -95.731213,17.67529 c 0.675833,-0.15572 1.601547,-0.56689 2.057143,-0.91371 1.432589,-1.09056 2.940016,-1.71727 5.580501,-2.32008 2.190837,-0.50016 3.420312,-0.58395 8.568486,-0.58395 5.346163,0 6.170142,-0.0606 7.453569,-0.54843 1.056344,-0.40149 2.104331,-0.54804 3.911514,-0.54698 3.637787,0.002 5.531485,0.3816 6.736348,1.34986 0.558308,0.44867 1.324174,0.89333 1.701923,0.98814 0.818561,0.20544 2.476779,-0.57195 3.802167,-1.7825 0.498644,-0.45544 1.32634,-0.9666 1.839324,-1.1359 1.416404,-0.46745 4.060179,-0.0764 5.531666,0.81832 3.288559,1.99945 3.168893,1.96954 6.185993,1.54631 3.103886,-0.4354 4.592266,-0.23906 5.979222,0.78873 0.806993,0.59802 1.130135,0.64227 4.949817,0.67786 2.24756,0.0209 4.57276,-0.0929 5.16711,-0.25291 0.76157,-0.20507 1.7489,-0.93254 3.34396,-2.46387 2.43997,-2.34247 4.06597,-3.24645 6.87719,-3.82339 0.9049,-0.18571 2.35127,-0.63283 3.21416,-0.99359 1.82034,-0.76107 2.48273,-0.81576 2.9571,-0.24418 0.29192,0.35174 0.46466,0.22182 1.18523,-0.89143 1.21747,-1.88092 1.33785,-4.39404 0.35119,-7.33169 -0.39261,-1.16893 -0.71383,-2.41986 -0.71383,-2.77984 0,-1.15349 -0.46622,-0.70494 -1.24407,1.19692 -0.84933,2.07661 -2.16062,3.46123 -3.73719,3.94618 -0.88465,0.27211 -1.10493,0.23707 -1.85143,-0.29448 -0.46602,-0.33184 -0.84731,-0.72126 -0.84731,-0.86538 0,-0.14412 -1.003,-1.30679 -2.22888,-2.5837 -2.2502,-2.34386 -3.16484,-2.87174 -4.98205,-2.87537 -0.42086,-8.5e-4 -1.26597,-0.257 -1.878,-0.56924 -0.61204,-0.31224 -1.16207,-0.51844 -1.22228,-0.45822 -0.30442,0.30441 1.47071,1.46657 3.05393,1.99937 1.72539,0.58065 2.22832,0.99389 1.41691,1.16424 -0.67307,0.1413 -3.49747,-1.06795 -4.45215,-1.90617 -1.2233,-1.07407 -2.14131,-1.3273 -5.89034,-1.62481 -9.791403,-0.77701 -10.110808,-0.7426 -13.636846,1.46882 -1.794149,1.12523 -2.290581,1.58022 -2.433338,2.23019 -0.545212,2.48233 -2.346605,7.16851 -3.029693,7.8815 -0.413228,0.43132 -0.85166,0.78421 -0.974293,0.78421 -0.411097,0 -0.228357,-0.73295 0.302522,-1.21339 0.289021,-0.26156 0.782654,-1.11384 1.096963,-1.89394 0.711441,-1.76578 1.953674,-6.02511 1.801581,-6.1772 -0.283837,-0.28384 -9.387722,1.12925 -11.42837,1.77389 -1.938587,0.6124 -2.561055,0.6914 -4.245442,0.53876 -1.085582,-0.0984 -2.877483,-0.49656 -3.982004,-0.88487 -2.253543,-0.79226 -5.117936,-0.93662 -10.401044,-0.52421 -3.106286,0.24249 -8.107926,-0.13497 -9.858433,-0.74398 -0.534192,-0.18585 -1.502296,-0.75856 -2.151342,-1.27269 -1.250399,-0.99047 -4.249937,-2.21951 -5.416843,-2.21951 -0.650357,0 -0.686964,0.0693 -0.543269,1.02857 0.177246,1.18325 0.575583,12.38109 0.578106,16.25143 9.34e-4,1.43314 -0.10681,3.50057 -0.239431,4.59429 -0.270428,2.23019 -0.332024,2.17043 1.744253,1.69202 z m 60.071063,-4.16059 c -0.610387,-1.00111 -0.652912,-1.20414 -0.298131,-1.42341 0.2429,-0.15012 1.39828,1.54891 1.39828,2.05623 0,0.55193 -0.581853,0.21724 -1.100149,-0.63282 z m 9.60301,0.35904 c 0,-0.14195 0.11344,-0.32821 0.25208,-0.4139 0.13865,-0.0857 0.38282,-0.76537 0.5426,-1.51041 0.26064,-1.21531 0.22089,-1.50417 -0.38655,-2.80896 -0.7763,-1.66752 -0.86013,-2.41435 -0.27099,-2.41435 0.22629,0 0.41143,0.19006 0.41143,0.42236 0,0.2323 0.26233,0.93657 0.58296,1.56505 0.93401,1.83083 0.43499,5.41831 -0.75369,5.41831 -0.20781,0 -0.37784,-0.11615 -0.37784,-0.2581 z M 45.815433,147.36 c 0.0053,-0.11314 0.186115,-0.51429 0.40171,-0.89143 0.215594,-0.37714 0.396363,-1.02514 0.401709,-1.44 0.0066,-0.50996 0.154343,-0.75429 0.456204,-0.75429 0.36954,0 0.415303,0.195 0.265551,1.1315 -0.227015,1.41967 -0.61536,2.15993 -1.133115,2.15993 -0.220978,0 -0.397404,-0.0926 -0.392059,-0.20571 z m 55.178047,-0.41211 c -1.157238,-1.39439 -1.935998,-5.96503 -1.016338,-5.96503 0.317438,0 0.412568,0.3603 0.416398,1.57714 0.004,1.22955 0.18523,1.90417 0.82286,3.06096 0.44984,0.81611 0.81789,1.52582 0.81789,1.57715 0,0.24346 -0.78839,0.0539 -1.04081,-0.25022 z M 58.655281,146.0748 c -0.609886,-1.33855 0.670601,-4.56236 1.678686,-4.22634 0.210857,0.0703 0.108466,0.37967 -0.295709,0.89349 -0.447373,0.56874 -0.630399,1.19305 -0.662213,2.25883 -0.05248,1.75804 -0.26489,2.07455 -0.720764,1.07402 z m 31.171222,0.11614 c -0.223966,-0.36239 0.141188,-0.65246 2.882068,-2.28948 1.131428,-0.67576 2.356372,-1.54718 2.722097,-1.93649 0.640261,-0.68154 1.392189,-0.94476 1.392189,-0.48735 0,0.41775 -1.787013,1.91347 -3.565715,2.98448 -0.980571,0.59043 -2.110856,1.29013 -2.511744,1.55489 -0.510263,0.337 -0.785879,0.38917 -0.918895,0.17395 z m 4.576242,-0.17964 c 0.133454,-0.68812 0.774397,-0.7826 0.774397,-0.11416 0,0.33692 -0.177103,0.57143 -0.43154,0.57143 -0.255426,0 -0.395348,-0.18662 -0.342857,-0.45727 z m -37.532858,-0.24524 c -0.334809,-0.87249 0.196263,-3.51466 0.944516,-4.69912 0.410078,-0.64913 0.83461,-1.18047 0.943405,-1.18074 0.108794,-2.7e-4 1.014727,-0.98792 2.013184,-2.19477 1.111519,-1.34352 2.018526,-2.19429 2.339335,-2.19429 0.693146,0 0.673885,0.0609 -0.36747,1.16197 -2.301341,2.4333 -4.226039,4.70283 -4.662857,5.49826 -0.300575,0.54734 -0.48,1.46521 -0.48,2.45549 0,1.51109 -0.369079,2.09404 -0.730113,1.1532 z m 46.243683,-0.70393 c -0.47061,-0.92247 -0.60296,-1.62671 -0.57636,-3.06697 0.0357,-1.93463 0.15484,-2.38373 0.63224,-2.38373 0.18068,0 0.21356,0.61976 0.0927,1.74806 -0.15599,1.45653 -0.09,1.96783 0.39572,3.06587 0.77188,1.74496 0.30165,2.29504 -0.54433,0.63677 z m -30.036982,0.55033 c -0.235799,-0.38154 4.540336,-5.08521 5.555424,-5.47115 1.303362,-0.49554 1.231434,0.17058 -0.11247,1.04157 -0.719463,0.46629 -2.152843,1.7229 -3.185289,2.79246 -1.032447,1.06956 -1.920019,1.94466 -1.972384,1.94466 -0.05236,0 -0.180741,-0.1384 -0.285281,-0.30754 z m -30.288017,-0.14999 c 0,-0.10079 0.132313,-0.94305 0.294029,-1.87169 0.357818,-2.05474 1.324552,-3.45488 2.071199,-2.99976 0.749446,0.45683 0.841924,1.05408 0.134573,0.8691 -0.45382,-0.11868 -0.684896,0.0275 -0.996722,0.6305 -0.223265,0.43175 -0.405936,1.01956 -0.405936,1.30626 0,0.7615 -0.561965,2.24883 -0.849689,2.24883 -0.1361,0 -0.247454,-0.0825 -0.247454,-0.18324 z m 19.088935,-0.25913 c -0.227598,-0.59312 0.289904,-2.42839 0.805376,-2.85619 0.661797,-0.54924 0.81567,-0.0703 0.314848,0.97988 -0.253323,0.53123 -0.460588,1.20125 -0.460588,1.48894 0,0.68645 -0.444664,0.94758 -0.659636,0.38737 z m -17.523023,-0.0231 c -0.197013,-0.33351 0.294506,-1.45448 0.637754,-1.45448 0.395558,0 0.221939,1.43538 -0.189959,1.57047 -0.174746,0.0573 -0.376254,0.005 -0.447795,-0.11599 z m 35.188374,-0.78881 c 0,-0.26515 3.099662,-3.68281 3.340136,-3.68281 0.534501,0 0.124166,0.79196 -1.172452,2.26286 -1.185864,1.34526 -2.167684,1.9884 -2.167684,1.41995 z m -29.270828,-1.5571 c -1.523172,-2.02096 -1.803928,-2.59217 -1.39753,-2.84334 0.180076,-0.11129 0.367013,-0.0836 0.415415,0.0617 0.0484,0.14521 0.640675,1.0002 1.316162,1.89999 1.182888,1.57568 1.501832,2.32169 0.992592,2.32169 -0.132732,0 -0.72972,-0.648 -1.326639,-1.44 z m 54.557131,0.13715 c 0.0468,-0.56572 0.20855,-1.02857 0.35941,-1.02857 0.15086,0 0.31259,0.46285 0.35942,1.02857 0.0662,0.8005 -0.0134,1.02857 -0.35942,1.02857 -0.34597,0 -0.42567,-0.22807 -0.35941,-1.02857 z m -20.623446,-0.44745 c 0,-0.48437 1.82916,-1.8914 2.268477,-1.74496 0.192296,0.0641 -0.12884,0.53416 -0.762404,1.11598 -1.18122,1.08474 -1.506073,1.22041 -1.506073,0.62898 z m -12.964508,-0.60849 c -0.341612,-0.34161 0.44171,-1.43251 1.404184,-1.95555 0.550178,-0.29898 1.613592,-0.70845 2.363143,-0.90992 1.811064,-0.4868 4.078578,-2.64308 4.517186,-4.29558 0.367496,-1.38458 0.842394,-1.79087 0.833971,-0.71349 -0.01809,2.31365 -2.486681,4.95341 -5.460415,5.83902 -1.723088,0.51316 -3.036418,1.35072 -3.036418,1.93643 0,0.29394 -0.368119,0.35262 -0.621651,0.0991 z m 41.545074,-0.71321 c -0.18102,-0.18102 -0.32983,-0.7056 -0.33067,-1.16571 -0.005,-2.70076 -1.28472,-4.01378 -3.39105,-3.47914 -1.25838,0.31941 -1.93585,-0.009 -1.02474,-0.49633 0.80079,-0.42857 2.82803,-0.43038 3.51215,-0.003 0.92855,0.57989 1.46222,1.77753 1.6399,3.68018 0.17468,1.87064 0.13698,2.00671 -0.40559,1.46414 z M 53.356367,140.4469 c -0.08895,-0.14392 -0.08263,-0.57682 0.01405,-0.962 0.112985,-0.45017 0.01018,-0.95305 -0.287811,-1.40784 -0.506771,-0.77343 -0.408077,-1.09367 0.258253,-0.83797 0.598107,0.22951 0.909474,1.22932 0.760165,2.44091 -0.123186,0.99961 -0.415056,1.3002 -0.744656,0.7669 z m 2.232204,-1.01833 c -0.370696,-0.3707 -0.190901,-1.73714 0.228571,-1.73714 0.287347,0 0.411429,0.28952 0.411429,0.96 0,0.90767 -0.230085,1.18706 -0.64,0.77714 z m 31.085714,-1.03441 c 0,-0.0661 0.189455,-0.96092 0.421011,-1.98857 0.578361,-2.56677 1.479233,-4.74845 1.960758,-4.74845 0.428719,0 0.320904,0.63127 -0.327923,1.92 -0.189876,0.37714 -0.556915,1.64229 -0.815642,2.81143 -0.313099,1.41484 -0.598794,2.12571 -0.854308,2.12571 -0.211143,0 -0.383896,-0.0541 -0.383896,-0.12012 z m -40.456781,-2.07358 c -0.105184,-0.17019 0.006,-0.52738 0.247055,-0.79375 0.241064,-0.26637 0.438298,-0.61941 0.438298,-0.78453 0,-0.16511 0.32581,-0.68741 0.724022,-1.16066 0.50439,-0.59944 0.811145,-0.77333 1.011224,-0.57325 0.20008,0.20008 0.114818,0.47551 -0.281068,0.90798 -0.312549,0.34142 -0.647323,0.88221 -0.743941,1.20174 -0.247957,0.82003 -1.151046,1.59815 -1.39559,1.20247 z m 3.153924,-0.21661 c 0,-0.26797 2.550986,-2.80111 2.82085,-2.80111 0.475348,0 0.11088,0.69007 -0.955334,1.80879 -1.052082,1.1039 -1.865516,1.53659 -1.865516,0.99232 z m 18.105287,-0.13776 c -0.375807,-0.19014 -0.725964,-0.56732 -0.778129,-0.83819 -0.08891,-0.46165 -0.04268,-0.46551 0.738236,-0.0617 1.045255,0.54052 1.580152,0.54634 1.782367,0.0194 0.219835,-0.57288 0.723668,-0.51559 0.723668,0.0823 0,1.08764 -1.155113,1.46152 -2.466142,0.79821 z m 24.826403,-2.65369 c -0.151997,-0.24593 1.117481,-1.54866 2.644171,-2.71342 0.803862,-0.61329 4.022602,-1.48333 5.043937,-1.36339 1.059154,0.12437 1.274594,0.8491 0.222454,0.74833 -1.06824,-0.10232 -3.564209,0.53532 -3.959395,1.01149 -0.1768,0.21303 -0.530107,0.38733 -0.785125,0.38733 -0.255019,0 -0.826192,0.3809 -1.269273,0.84646 -1.004109,1.05503 -1.676767,1.43918 -1.896769,1.0832 z m -1.788833,-3.39504 c 0,-0.4571 1.693061,-1.39884 2.206901,-1.22756 0.242194,0.0807 -0.01022,0.38934 -0.704062,0.86082 -1.218325,0.82787 -1.502839,0.8973 -1.502839,0.36674 z"
       id="path1" />
  </g>
</svg>
