<?xml version="1.0" encoding="UTF-8" standalone="no"?>
<!-- Created with Inkscape (http://www.inkscape.org/) -->

<svg
   version="1.1"
   id="svg1"
   width="294.58286"
   height="294.58286"
   viewBox="0 0 294.58286 294.58286"
   sodipodi:docname="pony-side-body.svg"
   inkscape:version="1.4 (86a8ad7, 2024-10-11)"
   xmlns:inkscape="http://www.inkscape.org/namespaces/inkscape"
   xmlns:sodipodi="http://sodipodi.sourceforge.net/DTD/sodipodi-0.dtd"
   xmlns="http://www.w3.org/2000/svg"
   xmlns:svg="http://www.w3.org/2000/svg">
  <defs
     id="defs1" />
  <sodipodi:namedview
     id="namedview1"
     pagecolor="#ffffff"
     bordercolor="#000000"
     borderopacity="0.25"
     inkscape:showpageshadow="2"
     inkscape:pageopacity="0.0"
     inkscape:pagecheckerboard="0"
     inkscape:deskcolor="#d1d1d1"
     inkscape:zoom="2.766624"
     inkscape:cx="147.47215"
     inkscape:cy="147.29143"
     inkscape:window-width="1920"
     inkscape:window-height="1017"
     inkscape:window-x="-8"
     inkscape:window-y="-8"
     inkscape:window-maximized="1"
     inkscape:current-layer="g1" />
  <g
     inkscape:groupmode="layer"
     inkscape:label="Image"
     id="g1">
    <path
       style="fill:#000000"
       d="m 244.38857,252.37046 c -0.22629,-0.12403 -1.39886,-0.37988 -2.60571,-0.56855 -5.34915,-0.83625 -12.64658,-3.88404 -16.39474,-6.8473 -1.6092,-1.27222 -3.15378,-2.41405 -5.57396,-4.12055 -0.74007,-0.52183 -1.86592,-1.34452 -2.50187,-1.82819 -1.29574,-0.98546 -3.64051,-1.93966 -5.70086,-2.31995 -0.75429,-0.13923 -3.96343,-0.4339 -7.13143,-0.65483 -8.62778,-0.6017 -13.95315,-1.32683 -19.88572,-2.70776 -2.94171,-0.68474 -6.336,-1.44379 -7.54285,-1.68678 -6.25494,-1.25935 -13.58918,-3.44896 -17.96572,-5.3636 -2.36151,-1.03311 -5.41843,-2.02912 -9.6,-3.12789 -1.88571,-0.49549 -4.04571,-1.15547 -4.8,-1.46661 -3.70839,-1.52971 -15.41157,-4.71352 -20.43428,-5.55909 -7.70787,-1.2976 -18.17465,-2.26776 -19.93204,-1.84748 -0.71854,0.17184 -1.58492,0.18053 -2.33142,0.0234 -0.75421,-0.15876 -2.640142,-0.1349 -5.165113,0.0654 -2.187429,0.17349 -4.409143,0.21885 -4.937143,0.1008 -1.412815,-0.31586 -3.277905,-0.37526 -4.536549,-0.14446 -0.609387,0.11175 -1.615337,0.0892 -2.235443,-0.0502 -0.725248,-0.16295 -2.961632,-0.13273 -6.268854,0.0847 -3.361143,0.22099 -5.531283,0.24865 -6.267414,0.0799 -0.619314,-0.14198 -1.61974,-0.19153 -2.223169,-0.11012 -0.603428,0.0814 -2.886857,0.0161 -5.074285,-0.14513 -2.692113,-0.19844 -4.553191,-0.20483 -5.76,-0.0198 -1.052803,0.16144 -1.971874,0.17378 -2.244451,0.0301 -0.27482,-0.14484 -1.329167,-0.12259 -2.605714,0.055 -1.544348,0.21483 -2.988103,0.21482 -5.161264,-3e-5 -1.892549,-0.1871 -3.407612,-0.20528 -4.064722,-0.0488 -0.602629,0.14354 -1.399214,0.14867 -1.875456,0.0121 -0.48421,-0.13887 -2.443728,-0.11576 -4.720397,0.0557 -4.9859,0.37544 -10.145081,0.0128 -11.319349,-0.79557 -1.047977,-0.72145 -6.951427,-4.48613 -10.469511,-6.6765 -1.554618,-0.96791 -3.220798,-2.01153 -3.702622,-2.31917 l -0.876044,-0.55934 -0.02503,-11.0978 c -0.01377,-6.10379 -0.17346,-12.85487 -0.354877,-15.00239 -0.262824,-3.11119 -0.259994,-4.0308 0.01393,-4.52572 0.391013,-0.70647 0.385316,-5.47285 -0.02137,-17.87759 -0.146022,-4.45398 -0.149415,-7.9237 -0.0081,-8.29535 0.142827,-0.37567 0.135773,-1.51541 -0.01712,-2.76639 -0.24643,-2.01629 -0.365115,-6.37392 -0.222296,-8.16179 0.03615,-0.45258 -0.03026,-1.94772 -0.147594,-3.32255 l -0.213325,-2.4997 3.651947,-1.99762 c 2.008571,-1.09869 3.898804,-2.16389 4.200519,-2.36711 2.889884,-1.9465 4.7673,-3.14053 6.985478,-4.44271 l 2.614522,-1.53486 5.074285,0.0527 c 2.790857,0.029 6.29497,0.16228 7.786917,0.29621 1.825685,0.16388 4.434059,0.12809 7.977439,-0.10947 3.372969,-0.22613 5.946415,-0.26755 7.161655,-0.11526 1.123348,0.14078 3.686423,0.12676 6.285418,-0.0344 2.413714,-0.14964 5.437714,-0.25579 6.72,-0.23588 2.508099,0.0389 2.655093,0.0386 9.051428,-0.0214 2.338286,-0.0219 5.290358,0.0838 6.56016,0.23505 1.511052,0.17994 2.899624,0.18294 4.01896,0.009 1.035874,-0.16127 2.237449,-0.17043 3.047313,-0.0232 1.32294,0.24045 8.574742,0.0206 14.962002,-0.45358 2.30455,-0.1711 3.72658,-0.14307 5.01362,0.0988 1.78215,0.3349 2.89612,0.29188 9.86231,-0.38089 1.35226,-0.1306 2.72914,-0.13462 3.05973,-0.009 0.33058,0.12569 1.81619,0.11611 3.30134,-0.0213 1.48515,-0.13741 4.05799,-0.37575 5.71742,-0.52964 1.65943,-0.1539 4.18972,-0.40384 5.62286,-0.55544 1.43314,-0.15159 4.58057,-0.46477 6.99428,-0.69596 9.12325,-0.87382 14.84831,-1.51484 15.90858,-1.78125 0.60342,-0.15162 2.88685,-0.45088 5.07428,-0.66503 6.43185,-0.62967 11.85126,-1.26437 13.02857,-1.52585 2.03351,-0.45164 13.30996,-1.62951 22.21715,-2.32068 8.90306,-0.69084 13.30154,-1.23325 15.63428,-1.928 5.68809,-1.69405 14.12616,-4.42578 15.36,-4.97262 0.75429,-0.3343 2.00403,-1.08038 2.77721,-1.65795 0.77317,-0.57757 1.81217,-1.29698 2.30889,-1.59869 0.49671,-0.30172 1.33597,-0.81639 1.86503,-1.14371 0.52906,-0.327323 1.77348,-0.744863 2.7654,-0.927866 0.99191,-0.183003 1.98864,-0.427607 2.21496,-0.543564 0.22632,-0.115958 1.493,-0.03765 2.81485,0.174023 1.88881,0.302459 2.90188,0.654395 4.7318,1.643817 1.28064,0.69243 2.42081,1.4049 2.53372,1.58328 0.1129,0.17838 0.51386,0.52003 0.891,0.75922 1.15791,0.73438 2.65683,2.43308 3.44806,3.90763 0.41445,0.77237 1.21714,1.91476 1.78376,2.53865 1.2692,1.39749 1.73889,2.29116 2.77356,5.27729 0.85162,2.45781 0.98107,3.95095 0.76392,8.81122 -0.0879,1.96706 -0.0142,2.50314 0.47179,3.43012 0.31677,0.60428 0.7174,1.62399 0.89029,2.26604 0.17288,0.64205 0.68924,1.72286 1.14746,2.40181 0.94987,1.40744 1.98808,3.91149 2.27957,5.4981 0.10895,0.59302 0.54682,1.63365 0.97305,2.31251 1.10478,1.75961 2.11381,4.50618 2.42864,6.61068 0.14898,0.99588 0.63522,2.53874 1.08055,3.42857 0.44532,0.88984 0.96567,2.1116 1.15633,2.71503 0.19066,0.60343 0.4979,1.28229 0.68274,1.50857 0.51443,0.62976 0.96798,5.71315 0.6449,7.22799 -0.21057,0.9873 -0.18187,1.44683 0.12933,2.07065 0.36027,0.72218 0.33624,1.12229 -0.24222,4.03212 -0.50342,2.53238 -0.58584,3.48175 -0.38146,4.39376 0.43051,1.92103 0.0761,3.11127 -1.56786,5.26494 -0.76243,0.99883 -0.92312,1.41558 -0.79425,2.05992 0.0889,0.44427 0.0355,1.27602 -0.11865,1.84834 -0.21321,0.79181 -0.18455,1.31818 0.11986,2.20175 0.34337,0.99665 0.3465,1.3166 0.0221,2.25831 -0.31498,0.91423 -0.31799,1.27132 -0.018,2.14195 0.29685,0.86163 0.29718,1.82759 0.002,5.50968 -0.23408,2.91845 -0.27569,5.12988 -0.12014,6.38488 0.23235,1.8747 0.89953,9.60351 0.87607,10.14857 -0.0479,1.11184 -0.89669,10.97478 -1.03865,12.06857 -0.27255,2.10002 -1.64554,6.19751 -3.40059,10.14857 -0.59788,1.34597 -3.27253,8.37374 -3.70579,9.73715 -0.65132,2.04956 -1.37875,3.18462 -2.27067,3.54308 -0.4108,0.1651 -1.30847,0.6516 -1.99483,1.08111 -0.68636,0.42952 -1.92064,0.99919 -2.74286,1.26594 -1.31722,0.42734 -5.69199,2.90695 -6.85712,3.88661 -0.7598,0.63885 -2.62074,1.14513 -5.37676,1.46278 -1.48558,0.17122 -2.8862,0.36133 -3.11248,0.42245 -0.22629,0.0611 -0.59657,0.01 -0.82286,-0.11437 z"
       id="path1" />
  </g>
</svg>
