<?xml version="1.0" encoding="UTF-8" standalone="no"?>
<!-- Created with Inkscape (http://www.inkscape.org/) -->

<svg
   version="1.1"
   id="svg1"
   width="294.58286"
   height="294.58286"
   viewBox="0 0 294.58286 294.58286"
   sodipodi:docname="2c-large-a.svg"
   inkscape:version="1.4 (86a8ad7, 2024-10-11)"
   xmlns:inkscape="http://www.inkscape.org/namespaces/inkscape"
   xmlns:sodipodi="http://sodipodi.sourceforge.net/DTD/sodipodi-0.dtd"
   xmlns:xlink="http://www.w3.org/1999/xlink"
   xmlns="http://www.w3.org/2000/svg"
   xmlns:svg="http://www.w3.org/2000/svg">
  <defs
     id="defs1">
    <linearGradient
       id="linearGradient1"
       inkscape:collect="always">
      <stop
         style="stop-color:#000000;stop-opacity:0;"
         offset="0.17248908"
         id="stop2" />
      <stop
         style="stop-color:#000000;stop-opacity:1;"
         offset="0.6048035"
         id="stop1" />
    </linearGradient>
    <linearGradient
       inkscape:collect="always"
       xlink:href="#linearGradient1"
       id="linearGradient2"
       x1="35.327071"
       y1="131.66289"
       x2="267.07071"
       y2="131.66289"
       gradientUnits="userSpaceOnUse" />
  </defs>
  <sodipodi:namedview
     id="namedview1"
     pagecolor="#ffffff"
     bordercolor="#000000"
     borderopacity="0.25"
     inkscape:showpageshadow="2"
     inkscape:pageopacity="0.0"
     inkscape:pagecheckerboard="0"
     inkscape:deskcolor="#d1d1d1"
     inkscape:zoom="2.766624"
     inkscape:cx="147.47215"
     inkscape:cy="147.29143"
     inkscape:window-width="1920"
     inkscape:window-height="1017"
     inkscape:window-x="-8"
     inkscape:window-y="-8"
     inkscape:window-maximized="1"
     inkscape:current-layer="g1" />
  <g
     inkscape:groupmode="layer"
     inkscape:label="Image"
     id="g1">
    <path
       style="fill:url(#linearGradient2)"
       d="m 38.015089,165.38911 c -2.174027,-0.38095 -2.253433,-0.56247 -2.037487,-4.65768 0.01193,-0.22629 -0.107924,-1.24619 -0.266348,-2.26645 -0.158423,-1.02027 -0.190639,-2.19465 -0.07159,-2.60975 0.119049,-0.4151 0.09742,-3.84806 -0.04807,-7.62881 l -0.264523,-6.87409 0.906723,-1.28638 c 0.702236,-0.99627 1.156996,-1.34977 2.016466,-1.56748 5.056607,-1.28088 7.837695,-2.57384 10.35134,-4.81248 1.345422,-1.19822 2.747412,-1.54672 6.529831,-1.62315 2.809031,-0.0568 3.334384,-0.14811 4.79968,-0.83464 2.042325,-0.95688 3.360944,-0.95972 6.32137,-0.0136 2.172501,0.6943 2.244898,0.69911 4.662857,0.30921 1.350851,-0.21782 3.504289,-0.71355 4.785417,-1.10161 l 2.329323,-0.70556 4.116391,0.58025 c 3.979381,0.56094 4.207683,0.56497 6.859248,0.1211 1.508571,-0.25253 5.088,-0.6145 7.954285,-0.80436 2.866286,-0.18987 5.968211,-0.54791 6.893161,-0.79564 1.80026,-0.48217 3.15229,-0.36393 5.53062,0.48368 1.96525,0.7004 3.62171,0.78523 6.64402,0.34027 1.58128,-0.23281 3.7856,-0.50079 4.89849,-0.59551 1.11289,-0.0947 2.34718,-0.30199 2.74286,-0.46058 0.39568,-0.1586 2.50913,-0.44924 4.69656,-0.64588 5.02856,-0.45204 10.58771,-1.15919 11.65715,-1.48286 0.45257,-0.13697 2.36571,-0.38945 4.25142,-0.56106 2.89261,-0.26325 3.75016,-0.45565 5.48572,-1.2308 2.75128,-1.2288 3.99237,-1.3597 6.98018,-0.73622 3.30463,0.6896 5.21473,0.34143 8.8847,-1.61948 3.67557,-1.9639 4.70887,-2.72003 8.01316,-5.86368 2.5737,-2.44859 3.1884,-2.88413 5.53585,-3.92242 3.27979,-1.45067 6.86727,-1.94578 10.701,-1.47683 1.97494,0.24157 2.62148,0.21798 3.82785,-0.13966 2.026,-0.60064 3.42145,-1.34719 5.01726,-2.6842 1.80237,-1.51007 5.0453,-3.48518 7.26857,-4.42693 1.34099,-0.56803 2.22587,-0.75389 3.57031,-0.74993 1.89288,0.006 2.44325,0.20939 5.32346,1.97133 l 1.6252,0.9942 4.82051,-0.023 c 5.68265,-0.0272 7.04396,-0.30882 10.44338,-2.16074 1.28228,-0.69856 3.7435,-1.96555 5.46936,-2.81553 l 3.13793,-1.545429 6.59921,-0.324553 c 5.49174,-0.270088 6.89131,-0.42486 8.33978,-0.922259 1.35994,-0.466997 1.82587,-0.526919 2.1306,-0.27401 0.33416,0.277325 0.31598,0.449199 -0.1269,1.199818 -0.98268,1.665533 -1.20649,2.744713 -0.77903,3.756503 0.21259,0.50322 0.68954,1.22352 1.05988,1.60067 1.29462,1.31839 2.15643,2.67736 2.56027,4.03726 0.22389,0.75389 0.7469,1.81226 1.16227,2.35194 1.33421,1.73354 4.09873,5.78957 4.54952,6.67495 0.76214,1.49689 1.20369,3.04891 0.98075,3.44728 -0.11856,0.21185 -0.0983,0.90708 0.045,1.54495 0.41428,1.84382 0.16276,2.2995 -1.74919,3.16896 -0.93471,0.42506 -2.27691,1.18582 -2.98266,1.69058 -2.02195,1.44613 -3.70619,2.19934 -7.65671,3.42416 -3.51306,1.08919 -3.84257,1.14116 -7.3801,1.16407 -3.63708,0.0236 -6.19529,-0.25995 -13.30286,-1.47421 -2.67453,-0.45692 -3.48741,-0.50404 -4.33705,-0.25144 -1.43481,0.42659 -2.93475,1.85719 -4.40518,4.20156 -1.72202,2.74548 -3.7428,3.99123 -9.08295,5.59936 -0.75242,0.22658 -2.48042,0.97288 -3.84,1.65844 -3.41808,1.72356 -5.29052,2.05241 -7.88511,1.38484 -1.09591,-0.28196 -2.36285,-0.45879 -2.81542,-0.39295 -1.39681,0.20323 -3.842,1.23501 -5.56318,2.34746 -0.90375,0.58412 -2.72569,1.39223 -4.04876,1.79579 -1.32306,0.40356 -3.05898,1.1025 -3.85759,1.55321 -1.72418,0.97307 -2.56864,1.03112 -5.36929,0.36911 -2.02571,-0.47883 -2.15706,-0.47917 -3.38884,-0.009 -0.70479,0.26917 -1.66961,0.82357 -2.14404,1.23201 -0.81955,0.70557 -3.69604,1.66476 -8.61708,2.87344 -0.94611,0.23239 -2.30383,0.68862 -3.01714,1.01387 -4.53478,2.06768 -5.12477,2.2195 -7.16172,1.84295 -1.626,-0.30058 -4.18247,0.0376 -5.52256,0.73062 -0.4503,0.23285 -2.86515,0.46993 -6.81874,0.66942 l -6.12153,0.30888 -2.51048,1.06544 c -1.38077,0.58599 -2.69563,1.10051 -2.92191,1.14339 -0.63699,0.12071 -4.32388,-0.86525 -6.34201,-1.69599 -2.30513,-0.94888 -3.66931,-1.17726 -5.10512,-0.85466 -0.93456,0.20998 -1.50048,0.13768 -3.14345,-0.40161 -1.10204,-0.36173 -2.74428,-0.79166 -3.64942,-0.95539 -1.57468,-0.28486 -1.7641,-0.25416 -4.38857,0.71116 -4.59497,1.69011 -4.09599,1.6566 -7.99968,0.53725 l -3.4882,-1.00021 -3.307491,1.65585 c -1.819119,0.91072 -3.497776,1.71245 -3.73035,1.78161 -0.232574,0.0692 -1.343432,-0.1053 -2.468572,-0.3877 -1.12514,-0.2824 -2.78628,-0.64536 -3.691423,-0.80658 -0.905143,-0.16122 -2.959515,-0.66044 -4.565272,-1.10939 -2.525765,-0.70616 -3.088109,-0.77849 -4.169197,-0.53621 -1.012228,0.22684 -1.695281,0.17421 -3.595295,-0.27704 -3.499436,-0.83112 -5.134422,-0.29238 -8.062781,2.65674 -2.502475,2.52022 -4.125646,3.23455 -7.447455,3.2775 -1.799748,0.0233 -3.4541,0.25008 -5.348571,0.73329 -1.508572,0.38478 -3.853715,0.82113 -5.211429,0.96967 -1.357714,0.14855 -3.147429,0.51784 -3.977143,0.82066 -1.796568,0.65568 -4.827463,0.92769 -6.693482,0.60071 z"
       id="path1" />
  </g>
</svg>
