<?xml version="1.0" encoding="UTF-8" standalone="no"?>
<!-- Created with Inkscape (http://www.inkscape.org/) -->

<svg
   version="1.1"
   id="svg1"
   width="294.58286"
   height="294.58286"
   viewBox="0 0 294.58286 294.58286"
   sodipodi:docname="2c-medium-v-outline.svg"
   inkscape:version="1.4 (86a8ad7, 2024-10-11)"
   xmlns:inkscape="http://www.inkscape.org/namespaces/inkscape"
   xmlns:sodipodi="http://sodipodi.sourceforge.net/DTD/sodipodi-0.dtd"
   xmlns="http://www.w3.org/2000/svg"
   xmlns:svg="http://www.w3.org/2000/svg">
  <defs
     id="defs1" />
  <sodipodi:namedview
     id="namedview1"
     pagecolor="#ffffff"
     bordercolor="#000000"
     borderopacity="0.25"
     inkscape:showpageshadow="2"
     inkscape:pageopacity="0.0"
     inkscape:pagecheckerboard="0"
     inkscape:deskcolor="#d1d1d1"
     inkscape:zoom="2.766624"
     inkscape:cx="147.47215"
     inkscape:cy="147.29143"
     inkscape:window-width="1920"
     inkscape:window-height="1017"
     inkscape:window-x="-8"
     inkscape:window-y="-8"
     inkscape:window-maximized="1"
     inkscape:current-layer="g1" />
  <g
     inkscape:groupmode="layer"
     inkscape:label="Image"
     id="g1">
    <path
       style="fill:#000000"
       d="m 247.35732,230.92765 c -0.30486,-0.87451 -0.56568,-1.38444 -2.9268,-5.72203 -0.77502,-1.42377 -1.48358,-2.82329 -1.5746,-3.11005 -0.25979,-0.81853 -2.04554,-3.78935 -3.00454,-4.99843 -0.88699,-1.11829 -3.4171,-5.74344 -3.4171,-6.24661 0,-0.84925 -2.35325,-5.51864 -4.52381,-8.97625 -1.37318,-2.18742 -2.76529,-4.53257 -3.09358,-5.21142 -0.96752,-2.00075 -2.14652,-3.20272 -4.07065,-4.14997 -1.68666,-0.83034 -2.01082,-0.89037 -5.40737,-1.0013 -2.88219,-0.0941 -4.21362,-0.003 -6.58122,0.44932 -2.65045,0.50661 -3.15529,0.70093 -4.71779,1.8159 -0.96235,0.68672 -1.8299,1.37831 -1.92789,1.53686 -0.4724,0.76435 -2.46317,1.89776 -3.33331,1.89776 -0.78741,0 -1.16888,0.25442 -2.44001,1.6274 -0.82867,0.89506 -2.14902,2.05412 -2.93409,2.57567 -0.78508,0.52154 -1.66615,1.21263 -1.95794,1.53574 -0.29179,0.32311 -0.94978,0.84658 -1.46219,1.16327 -1.2169,0.75209 -3.41725,0.56698 -5.11965,-0.43069 l -1.18935,-0.69701 -2.29486,0.40386 c -2.93797,0.51704 -5.39339,0.51452 -6.64112,-0.007 -1.40954,-0.58895 -2.70372,-0.51039 -4.57633,0.27778 -2.04125,0.85915 -4.48286,1.50507 -5.68921,1.50507 -0.50567,0 -1.49803,-0.18889 -2.20523,-0.41975 -1.36476,-0.44552 -1.76528,-0.37952 -4.85154,0.79942 -1.47599,0.56383 -3.66264,0.53832 -8.09143,-0.0944 -4.50531,-0.64366 -5.43321,-0.95995 -8.477,-2.88953 -1.95966,-1.24231 -2.59861,-1.51092 -3.60391,-1.51508 -2.38317,-0.01 -7.59833,-1.10261 -8.73148,-1.82955 -1.29806,-0.83273 -5.21621,0.44559 -9.15461,2.98675 l -2.53585,1.63619 -2.42425,-0.18237 -2.42425,-0.18237 -1.37048,1.1556 c -1.31696,1.11049 -1.427,1.14977 -2.81846,1.00616 -1.36836,-0.14123 -2.63101,-0.56602 -5.74523,-1.93284 -0.73904,-0.32436 -2.12505,-1.35265 -3.08294,-2.28725 -0.95714,-0.93388 -2.01347,-1.78467 -2.34739,-1.89066 -0.33392,-0.10598 -0.775991,-0.36155 -0.982374,-0.56793 -0.206383,-0.20639 -0.854064,-0.37524 -1.439292,-0.37524 -0.585228,0 -1.677321,-0.13153 -2.426874,-0.29228 -2.546396,-0.5461 -5.127356,0.2809 -11.007035,3.52692 -0.829714,0.45807 -2.731354,1.23567 -4.225866,1.728 -2.699563,0.88931 -2.722831,0.89187 -3.565714,0.39117 -2.758397,-1.63858 -2.812878,-1.65749 -3.77491,-1.31035 -0.524101,0.18912 -3.092991,0.38701 -6.026335,0.46422 -4.265896,0.11229 -5.356334,0.2274 -6.582857,0.69491 -2.468763,0.94102 -5.293361,1.39473 -8.465886,1.35987 -1.640072,-0.018 -3.143801,0.0688 -3.341619,0.1929 -0.197818,0.12412 -3.445384,0.19044 -7.216813,0.14738 -5.462704,-0.0624 -6.937374,-0.15719 -7.251682,-0.46628 -0.288629,-0.28384 -0.406264,-1.18141 -0.43822,-3.34366 -0.03982,-2.69422 -0.761114,-9.51721 -1.108898,-10.48944 -0.138911,-0.38833 0.121829,-2.96331 0.764703,-7.55194 0.169082,-1.20685 0.290912,-2.84613 0.270733,-3.64283 -0.06559,-2.58971 1.484687,-3.14218 5.569952,-1.98497 2.769624,0.78453 3.784158,1.29807 4.283567,2.16824 0.242737,0.42294 1.00772,1.04317 1.699964,1.37827 1.231662,0.59624 1.304435,0.60009 3.39711,0.1797 1.180915,-0.23723 3.489501,-0.42745 5.155629,-0.4248 2.321041,0.004 3.206988,-0.1014 3.839999,-0.45545 0.473676,-0.26494 1.521221,-0.48041 2.468572,-0.50777 0.991687,-0.0286 2.136235,-0.27287 2.88,-0.61454 2.206177,-1.01346 3.232589,-1.0324 4.994571,-0.0922 0.855876,0.45672 2.036325,0.90719 2.62322,1.00104 1.173097,0.18758 4.181831,-0.46827 5.19569,-1.13257 0.368878,-0.2417 1.468718,-0.43754 2.746597,-0.48906 1.35343,-0.0546 2.467012,-0.26173 3.050999,-0.56758 0.890261,-0.46626 0.963074,-0.46296 2.278607,0.10296 l 1.358959,0.58461 1.287107,-1.3569 c 1.045065,-1.10173 1.519216,-1.39302 2.521393,-1.549 0.678857,-0.10566 1.631787,-0.42094 2.117623,-0.70062 1.41986,-0.81738 4.533839,-1.63371 6.23197,-1.63371 1.51085,0 4.03223,0.8083 6.32469,2.02755 0.45257,0.24071 0.95095,0.4384 1.10751,0.43933 0.15655,9.3e-4 0.71198,0.36696 1.23428,0.8134 0.78725,0.67291 1.19835,0.81362 2.40407,0.82286 0.79993,0.006 2.33703,0.21189 3.41576,0.45725 1.96513,0.44695 2.64512,0.91086 3.79443,2.58862 l 0.43604,0.63655 1.64926,-0.60135 c 1.96987,-0.71825 4.03923,-0.77045 5.61104,-0.14153 l 1.14921,0.45982 1.17212,-1.35125 1.17212,-1.35125 3.37565,-0.0514 c 1.85661,-0.0282 3.9928,-0.17289 4.74708,-0.32142 1.13062,-0.22263 1.64837,-0.17697 2.94857,0.26 1.56581,0.52624 1.58892,0.52608 3.21421,-0.0214 2.27171,-0.76528 3.71038,-0.72206 4.84801,0.14566 1.0218,0.77936 1.17506,0.74331 3.24359,-0.76305 0.90985,-0.66257 1.29521,-0.78021 2.1763,-0.66435 0.58887,0.0774 1.39526,0.38076 1.79198,0.67407 0.48425,0.35802 1.30978,0.57075 2.51188,0.6473 1.58864,0.10115 2.01885,0.2644 3.81468,1.4475 1.90592,1.25562 2.12916,1.3333 3.82316,1.33023 2.67298,-0.005 4.9028,-0.54818 6.48327,-1.57979 2.12548,-1.38735 3.9697,-2.25069 5.27182,-2.46791 0.99545,-0.16607 1.2887,-0.37397 1.88452,-1.33605 0.38809,-0.62666 1.03015,-1.49442 1.42681,-1.92836 0.88011,-0.96282 3.17397,-2.08469 4.26994,-2.08834 1.06176,-0.004 2.45863,0.97843 2.84392,1.9992 l 0.30823,0.81659 0.76384,-0.50754 c 1.89649,-1.26014 2.34673,-1.37029 5.4367,-1.33003 1.79532,0.0234 3.35778,0.18622 3.87725,0.40408 0.80694,0.33842 0.95059,0.30912 1.97906,-0.40361 0.82106,-0.569 1.60255,-0.8227 3.0101,-0.97721 1.47677,-0.16211 2.36883,-0.46687 3.99646,-1.36534 1.15243,-0.63616 2.29439,-1.46045 2.53768,-1.83175 0.71928,-1.09777 1.77099,-1.46993 4.15398,-1.46993 2.1584,0 2.17718,-0.006 2.51599,-0.82411 0.44302,-1.06954 2.04315,-2.46731 2.82452,-2.46731 0.33641,0 1.04183,-0.22877 1.56759,-0.50838 0.52577,-0.27961 1.44966,-0.59849 2.05309,-0.70862 0.60342,-0.11012 1.64287,-0.56021 2.30988,-1.00019 1.31839,-0.86965 2.57691,-1.01767 4.16347,-0.48968 1.04913,0.34914 3.01479,2.11575 3.85166,3.46161 0.31863,0.51244 0.86585,0.96015 1.28621,1.05233 1.59872,0.35058 5.64178,1.53304 7.12068,2.08257 1.25915,0.46788 2.02372,1.04928 3.90975,2.9731 1.28948,1.31532 2.73753,2.59473 3.2179,2.84314 0.92675,0.47924 5.43172,5.86849 5.87177,7.02433 0.14333,0.37647 0.54319,1.05533 0.88858,1.50857 0.34539,0.45324 0.94116,1.44122 1.32393,2.1955 0.38277,0.75429 1.04828,1.69292 1.47892,2.08585 0.43063,0.39293 1.51307,1.67581 2.40543,2.85084 1.39031,1.83072 2.09113,2.44293 4.8977,4.27845 1.80138,1.17811 4.11711,2.46372 5.14606,2.85691 1.02896,0.39318 1.99303,0.86212 2.14238,1.04208 0.14936,0.17996 0.45473,1.29732 0.67862,2.48304 0.34566,1.83065 0.35142,2.32703 0.0382,3.29076 -0.20288,0.62421 -0.49903,2.02118 -0.6581,3.10439 -0.37562,2.55789 -0.63463,3.19357 -1.67914,4.12105 -0.92825,0.82424 -2.26601,3.24333 -2.56968,4.64676 -0.20734,0.95826 -0.67622,1.45393 -2.01885,2.13422 -0.963,0.48794 -1.32001,1.16271 -1.71479,3.24113 -0.13594,0.71565 -0.44833,1.60821 -0.69421,1.98346 -0.47171,0.71993 -1.85921,1.23698 -3.32631,1.23953 -1.45271,0.003 -2.2711,0.55771 -3.01395,2.04461 -0.94536,1.89224 -1.8523,2.79891 -3.77738,3.77628 -0.89956,0.45671 -2.10053,1.1239 -2.66883,1.48265 -1.33961,0.84566 -1.5616,0.82347 -1.91542,-0.1915 z m 3.61411,-1.6531 c 2.6022,-1.41389 2.90913,-1.69664 3.84,-3.53741 1.07412,-2.12406 1.54515,-2.46182 3.88243,-2.78396 1.10809,-0.15273 2.21177,-0.4548 2.45262,-0.67128 0.49495,-0.44487 1.07066,-2.16072 1.07066,-3.19102 0,-0.91308 0.91064,-2.02458 2.1959,-2.68028 0.86724,-0.44243 1.127,-0.78239 1.51358,-1.98092 0.59314,-1.83895 1.59385,-3.59498 2.4182,-4.2434 0.35329,-0.2779 0.79623,-0.79281 0.98431,-1.14425 0.36608,-0.68402 1.10955,-4.96018 1.2939,-7.44203 0.17971,-2.41938 -0.0873,-2.72434 -3.88017,-4.43179 -0.75429,-0.33956 -2.80787,-1.57668 -4.56352,-2.74916 -2.58199,-1.72435 -3.45611,-2.48689 -4.57354,-3.98971 -0.75981,-1.02185 -1.83382,-2.28991 -2.3867,-2.81791 -0.55287,-0.528 -1.31938,-1.57715 -1.70335,-2.33143 -0.38396,-0.75429 -1.0518,-1.88738 -1.48408,-2.51799 -0.43228,-0.63061 -0.78596,-1.26565 -0.78596,-1.4112 0,-0.57386 -4.67548,-6.03543 -5.66623,-6.6189 -0.57957,-0.34132 -1.94292,-1.57684 -3.02966,-2.74559 -2.28484,-2.45727 -3.05685,-2.85694 -8.24057,-4.26619 -2.52975,-0.68774 -3.61169,-1.11084 -3.90925,-1.52874 -1.80493,-2.53486 -3.51615,-3.81425 -5.10167,-3.81425 -1.17641,0 -2.57592,1.04605 -3.13051,2.33984 -0.79932,1.86474 -1.52712,1.85343 -0.81762,-0.0127 0.2701,-0.71041 0.25708,-0.72179 -0.61714,-0.5395 -0.49118,0.10242 -1.13992,0.34063 -1.44163,0.52934 -0.30172,0.18872 -1.00626,0.42809 -1.56564,0.53192 -1.01279,0.188 -2.68579,1.778 -2.68579,2.55253 0,0.62756 -1.04687,0.90715 -3.39658,0.90715 h -2.3355 l -0.73475,0.9633 c -0.4041,0.52981 -1.49039,1.36296 -2.41395,1.85143 l -1.67922,0.88813 -0.0804,2.14461 c -0.0574,1.52888 -0.17548,2.11133 -0.41143,2.02868 -0.19671,-0.0689 -0.30719,-0.54946 -0.27233,-1.18462 0.11949,-2.17734 0.041,-2.25792 -2.04457,-2.09841 -2.44363,0.18689 -2.81408,0.40069 -2.81408,1.62416 0,1.17902 -1.0248,3.0162 -1.44698,2.59403 -0.19085,-0.19085 -0.13599,-0.50049 0.17192,-0.97043 0.24871,-0.37958 0.4522,-0.93826 0.4522,-1.24151 0,-0.4585 -0.13025,-0.52532 -0.77332,-0.3967 -0.42532,0.0851 -1.19675,-0.0203 -1.71428,-0.23417 -0.63454,-0.26221 -1.84956,-0.37324 -3.73105,-0.34095 -2.6434,0.0454 -2.86337,0.0949 -4.18414,0.94243 -1.5219,0.97661 -2.5901,0.98948 -2.89309,0.0349 -0.31649,-0.99718 -1.26899,-1.94198 -1.95781,-1.94198 -0.99964,0 -2.64543,0.92983 -3.62942,2.05053 -0.476,0.54213 -0.86546,1.09536 -0.86546,1.2294 0,0.13403 -0.31954,0.62345 -0.71009,1.0876 -0.51704,0.61446 -0.94583,0.84396 -1.57715,0.84412 -0.97484,2.4e-4 -3.70975,1.21605 -5.48878,2.44006 -1.57691,1.08494 -3.99947,1.674 -6.88446,1.674 h -2.37559 l -2.13793,-1.37142 c -1.98251,-1.27173 -2.26268,-1.37143 -3.8538,-1.37143 -1.43008,0 -1.85159,-0.11421 -2.53079,-0.68572 -1.0645,-0.89571 -1.84251,-0.86557 -3.08197,0.11943 -0.55723,0.44283 -1.15496,0.85241 -1.32829,0.91019 -0.5121,0.1707 0.45356,2.31915 1.98907,4.42537 1.37481,1.88579 1.59983,2.36216 1.11581,2.36216 -0.43056,0 -2.74122,-3.18656 -3.47862,-4.79726 -0.38055,-0.83122 -0.85103,-1.51132 -1.04551,-1.51132 -0.19449,0 -0.79739,-0.35267 -1.33979,-0.78371 -0.90292,-0.71756 -1.1007,-0.76562 -2.34272,-0.56928 -0.7461,0.11794 -1.73259,0.4089 -2.1922,0.64658 -1.09511,0.5663 -1.6344,0.54533 -3.14353,-0.12223 -0.92283,-0.40821 -1.54667,-0.50744 -2.3663,-0.37637 -0.61219,0.0979 -1.11307,0.23821 -1.11307,0.31183 0,0.0736 0.20654,0.71536 0.45897,1.4261 0.43975,1.23816 0.35787,2.40811 -0.14672,2.09626 -0.13211,-0.0816 -0.31509,-0.61404 -0.40664,-1.1831 -0.31511,-1.95885 -0.60061,-2.12835 -3.75095,-2.227 l -2.80805,-0.0879 -1.33,1.39443 c -1.41432,1.48283 -1.91082,1.63743 -3.1624,0.98469 -1.1002,-0.5738 -3.39728,-0.51288 -5.1027,0.13531 -2.30831,0.87734 -2.8112,0.70351 -4.13442,-1.42909 -0.55898,-0.90089 -1.86534,-1.29853 -5.17718,-1.57587 -2.14228,-0.1794 -2.48259,-0.28705 -3.36955,-1.0658 -0.54262,-0.47643 -1.12602,-0.86624 -1.29644,-0.86624 -0.17042,0 -1.21732,-0.43074 -2.32646,-0.95721 -3.262799,-1.54872 -4.037173,-1.66102 -6.71104,-0.97326 -1.259889,0.32407 -2.750917,0.891 -3.313397,1.25984 -0.623587,0.40892 -1.422281,0.67063 -2.046631,0.67063 -0.89315,0 -1.21087,0.20085 -2.487388,1.57248 l -1.463449,1.57249 -1.623945,-0.56891 c -1.594779,-0.55869 -1.63765,-0.55965 -2.387063,-0.0538 -0.495444,0.33439 -1.035545,0.46425 -1.539783,0.37023 l -0.776664,-0.14482 0.707659,0.841 c 0.389213,0.46255 1.163076,1.78786 1.719696,2.94512 1.288456,2.67881 1.451475,4.31424 0.66548,6.67615 -0.319516,0.96015 -0.758587,2.59479 -0.975713,3.63255 -0.217127,1.03775 -0.54127,2.0236 -0.720319,2.19076 -0.557197,0.52022 -0.0677,-2.91945 0.749272,-5.26514 1.045497,-3.00182 0.9782,-4.0954 -0.425281,-6.91092 -1.882761,-3.777 -3.340405,-4.79585 -3.748573,-2.62013 -0.176515,0.94091 -0.48105,1.22828 -0.78333,0.73918 -0.07996,-0.12938 -0.03424,-0.62278 0.101607,-1.09644 0.231436,-0.80697 0.212306,-0.84264 -0.303783,-0.56644 -1.124648,0.6019 -3.437633,1.14033 -5.050983,1.17582 -1.39488,0.0307 -1.944525,-0.11082 -3.405838,-0.87677 -1.975795,-1.03563 -2.748745,-1.02106 -4.947767,0.0933 -0.981183,0.49721 -1.537052,0.60779 -2.443842,0.48616 l -1.173772,-0.15744 0.992257,1.34283 c 0.545741,0.73855 1.088648,1.46624 1.206459,1.6171 0.415232,0.5317 1.698671,3.26649 1.698671,3.61957 0,0.7612 -0.575312,0.29969 -1.178383,-0.94528 -1.004515,-2.07372 -2.581635,-4.39504 -3.217054,-4.73511 -0.321515,-0.17206 -0.790927,-0.21995 -1.043139,-0.10642 -0.252212,0.11354 -2.124853,0.30065 -4.161424,0.41581 -2.036572,0.11515 -4.704595,0.29352 -5.928941,0.39637 -2.097404,0.17619 -2.299546,0.14395 -3.496939,-0.55777 -0.698971,-0.40962 -1.514602,-1.08708 -1.812514,-1.50546 -0.627416,-0.88112 -1.281766,-1.18154 -4.162228,-1.91092 -2.66619,-0.67513 -3.28374,-0.54891 -3.065223,0.62648 0.08821,0.4745 0.166065,0.92445 0.173001,0.99987 0.0069,0.0754 -0.139271,0.66874 -0.324902,1.31846 -0.185632,0.64972 -0.513879,2.85556 -0.729438,4.90187 -0.340672,3.23401 -0.340154,4.06594 0.004,6.36155 0.477577,3.18595 1.063271,8.61034 1.062573,9.84098 l -5.05e-4,0.89143 4.40915,0.0686 c 8.914294,0.13864 10.376217,-0.0399 10.693902,-1.30561 0.241639,-0.96276 0.709533,-0.84999 0.709533,0.17101 v 0.85396 l 2.811429,-0.12466 c 2.220227,-0.0985 3.38821,-0.31601 5.554285,-1.03461 1.819691,-0.60368 3.204441,-0.89616 4.114286,-0.86899 0.754286,0.0225 2.272462,-0.0307 3.373724,-0.11834 l 2.002296,-0.15928 -0.731094,-0.95851 c -0.508299,-0.66642 -0.643762,-1.04585 -0.444518,-1.24509 0.199245,-0.19925 0.556736,0.0967 1.173095,0.97114 0.859309,1.21911 2.039224,1.83844 2.711233,1.42312 0.375642,-0.23216 0.358483,-2.65326 -0.02566,-3.62057 -0.486384,-1.22476 -0.760383,-2.58863 -0.602638,-2.99971 0.21872,-0.56997 0.63499,-0.45376 0.63499,0.17728 0,0.30548 0.246857,1.25778 0.548571,2.11621 0.301714,0.85843 0.548572,2.02792 0.548572,2.59886 0,0.97432 0.05138,1.03808 0.836478,1.03808 0.869281,0 2.072708,0.52385 3.317393,1.44407 l 0.7253,0.53623 2.554505,-0.86325 c 1.404978,-0.47479 3.176879,-1.20433 3.937557,-1.6212 0.760679,-0.41687 1.629909,-0.89301 1.931624,-1.05808 3.829472,-2.09517 7.037315,-2.96625 9.462857,-2.5696 0.829714,0.13569 2.144961,0.32128 2.92277,0.41243 l 1.414196,0.16573 -0.490176,-1.85745 c -0.637506,-2.41572 -1.024691,-3.36603 -1.37143,-3.36603 -0.154591,0 -0.281075,-0.18514 -0.281075,-0.41142 0,-0.48514 0.132802,-0.50645 0.830197,-0.13322 0.590853,0.31622 2.013614,4.45425 1.842184,5.35789 -0.0774,0.40783 0.23025,0.8204 1.12228,1.50519 0.67587,0.51886 1.89835,1.58665 2.71662,2.37287 0.81826,0.78622 1.94054,1.57488 2.49395,1.75258 0.55341,0.1777 1.71219,0.61595 2.57508,0.97389 2.22331,0.92227 3.47097,0.86756 4.48266,-0.19655 1.25195,-1.31682 1.99687,-1.60752 3.41721,-1.33352 2.50074,0.48243 3.05596,0.35672 5.54449,-1.25531 2.51488,-1.62909 6.04725,-3.06806 8.00115,-3.2594 0.8368,-0.082 1.53847,0.0451 2.28261,0.41326 1.39134,0.68838 4.50881,1.34667 7.61728,1.60848 2.35238,0.19814 2.55895,0.26969 4.38857,1.52023 2.79752,1.91209 3.83828,2.29299 7.88065,2.8842 5.14244,0.75211 7.06075,0.71668 8.92408,-0.16481 1.30097,-0.61546 1.71868,-0.68503 3.18075,-0.52975 3.92886,0.41727 5.4222,0.31275 7.30595,-0.51135 2.98439,-1.3056 4.08008,-1.45421 6.42201,-0.87103 1.44624,0.36014 2.53041,0.45856 3.76975,0.34224 0.95682,-0.0898 2.60367,-0.24532 3.65967,-0.34558 1.73794,-0.16501 2.04742,-0.11427 3.26371,0.53512 2.74567,1.46595 5.50793,0.3731 4.92522,-1.94859 -0.11467,-0.45686 -0.0381,-0.62542 0.28419,-0.62542 0.25109,0 0.44117,0.2253 0.44117,0.5229 0,0.93717 1.07006,0.32288 3.40232,-1.95319 2.38224,-2.32484 3.03673,-2.80524 3.46294,-2.54183 0.48543,0.30001 1.39014,-0.17135 3.10651,-1.61852 0.92695,-0.78157 2.11737,-1.7195 2.64537,-2.08429 0.528,-0.36479 1.0587,-0.82373 1.17934,-1.01987 0.12084,-0.19647 0.71115,-0.35662 1.31442,-0.35662 0.6023,0 2.04645,-0.19755 3.20923,-0.43899 1.59469,-0.33112 2.99028,-0.40188 5.67987,-0.28796 5.3998,0.22872 7.45934,1.15237 9.88591,4.43358 0.82332,1.11329 1.49694,2.21682 1.49694,2.4523 0,0.23547 0.82355,1.69232 1.8301,3.23745 2.39552,3.67732 3.76671,6.24315 4.74841,8.88544 1.08249,2.91359 2.48907,5.60719 3.84749,7.36795 0.98596,1.27799 2.66361,4.33546 6.50699,11.8588 0.55873,1.09371 1.08138,1.98683 1.16145,1.98471 0.0801,-0.002 1.07128,-0.50684 2.20271,-1.12159 z m 1.37143,-17.9281 c 0,-0.6897 0.90643,-2.34074 1.28508,-2.34074 0.52945,0 0.4446,0.42645 -0.32853,1.65117 -0.73854,1.16993 -0.95655,1.32709 -0.95655,0.68957 z m 6.51649,-5.78995 c -0.19936,-0.19937 0.10825,-1.27542 1.0064,-3.52043 0.79819,-1.99517 0.90911,-3.90992 0.29525,-5.09698 -0.58974,-1.14044 0.002,-1.33299 0.67946,-0.22124 0.70871,1.16241 0.70223,2.92063 -0.018,4.88215 -0.30465,0.82971 -0.75618,2.09486 -1.0034,2.81143 -0.43343,1.2563 -0.62268,1.4821 -0.95972,1.14507 z m -16.66507,-0.65218 c 0,-0.66197 1.98487,-1.12221 2.34271,-0.54322 0.2413,0.39043 0.17658,0.42521 -1.17699,0.63254 -0.69758,0.10685 -1.16572,0.071 -1.16572,-0.0893 z m -131.45142,-2.21086 c -0.86135,-0.8633 -0.9309,-1.09346 -0.33039,-1.09346 0.47726,0 1.77039,1.19295 1.77039,1.63325 0,0.4929 -0.65439,0.2476 -1.44,-0.53979 z m 44.77714,-0.0225 c 0,-0.16528 0.22798,-0.62814 0.50662,-1.02857 1.16566,-1.67516 1.40546,-3.53489 0.69511,-5.39091 -0.90523,-2.36522 -1.01007,-3.36984 -0.50986,-4.88589 0.29901,-0.90626 0.4535,-2.16537 0.42562,-3.4687 -0.0382,-1.78793 -0.17013,-2.27996 -1.04557,-3.90077 -0.55099,-1.02012 -0.90591,-1.95065 -0.78872,-2.06784 0.28488,-0.28488 0.88344,0.53623 1.84349,2.52891 0.66108,1.37215 0.79291,1.9935 0.79309,3.73793 1.3e-4,1.23974 -0.16742,2.49344 -0.41121,3.07691 -0.5135,1.22897 -0.5052,2.20165 0.0308,3.60802 1.12794,2.95963 1.03513,5.01076 -0.31955,7.06286 -0.66118,1.00156 -1.2198,1.33498 -1.2198,0.72805 z m -9.0741,-1.66862 c -0.51553,-0.63045 -1.19801,-1.64005 -1.51661,-2.24355 l -0.57928,-1.09728 -2.17916,-0.0534 c -2.09591,-0.0514 -3.63417,-0.51752 -4.07807,-1.23576 -0.35606,-0.57612 0.17749,-0.63254 1.04709,-0.11073 0.66038,0.39626 1.47076,0.54372 3.21441,0.5849 2.32971,0.055 2.33182,0.0557 2.85583,0.96431 0.28843,0.50009 0.99814,1.53779 1.57715,2.30601 1.628,2.16001 1.33095,2.93061 -0.34136,0.88553 z m 16.86343,0.76128 c -0.0886,-0.23087 -0.10485,-0.57812 -0.0361,-0.77167 0.13781,-0.38815 -0.72574,-2.27141 -1.16641,-2.54376 -0.15302,-0.0946 -0.27821,-0.35415 -0.27821,-0.57684 0,-0.31358 0.11818,-0.34164 0.52406,-0.12442 0.81399,0.43564 1.67023,2.03254 1.67023,3.11502 0,1.04163 -0.44435,1.60315 -0.71353,0.90167 z m 7.9821,-0.27398 c -1.5141,-0.66833 -2.11695,-1.69984 -2.46023,-4.20959 -0.16649,-1.21721 -0.12933,-1.44 0.2402,-1.44 0.29368,0 0.43767,0.24757 0.4387,0.75428 0.002,1.11395 0.53806,2.8772 1.04873,3.45122 0.24595,0.27645 0.85971,0.67501 1.36391,0.88568 0.50421,0.21067 0.83886,0.50905 0.74367,0.66307 -0.21829,0.3532 -0.3626,0.34222 -1.37498,-0.10466 z m -91.122361,-0.41577 c -0.180731,-0.28939 -0.677106,-0.73204 -1.103055,-0.98365 -1.09998,-0.64978 -3.911729,-5.2205 -3.911729,-6.35883 0,-0.83967 0.627633,-0.2494 1.263408,1.1882 1.0269,2.322 2.757169,4.71715 3.432684,4.75174 0.09371,0.005 0.252245,-0.60842 0.352305,-1.36271 0.259938,-1.95951 0.747144,-1.7238 0.708671,0.34286 -0.01755,0.94285 0.05204,1.992 0.154642,2.33143 0.23648,0.78229 -0.423391,0.84921 -0.896926,0.091 z m 107.326151,-0.0736 c -0.53506,-1.71581 -0.25631,-5.19951 0.51189,-6.39731 0.20688,-0.32258 0.43717,-2.00025 0.55501,-4.04329 0.19682,-3.41238 0.18569,-3.51857 -0.48825,-4.66008 -0.37931,-0.64247 -1.07522,-1.55909 -1.54647,-2.03693 -0.82183,-0.83333 -0.7568,-1.47962 0.10037,-0.99748 0.64436,0.36245 2.31196,2.69801 2.53174,3.54586 0.11249,0.43394 0.2154,2.39356 0.22868,4.3547 0.0133,1.96115 0.13182,4.23039 0.26343,5.04277 0.19757,1.21955 0.17208,1.45495 -0.14617,1.35023 -0.21431,-0.0705 -0.42325,-0.57412 -0.47058,-1.1342 -0.0468,-0.55405 -0.19236,-1.00737 -0.32341,-1.00737 -0.41989,0 -0.88717,3.03142 -0.6992,4.53593 0.11484,0.91915 0.074,1.51153 -0.11204,1.62653 -0.16097,0.0995 -0.34322,0.0188 -0.405,-0.17936 z m -34.67864,-0.71707 c -0.19139,-0.34712 -0.42129,-1.50555 -0.51089,-2.5743 -0.13391,-1.5972 -0.0942,-1.92039 0.22284,-1.81515 0.25781,0.0856 0.45501,0.80292 0.59455,2.16287 0.25714,2.50588 0.1753,3.10038 -0.3065,2.22658 z m -95.41053,-0.67174 c 0.769216,-3.2901 1.177202,-4.58606 1.417701,-4.50332 0.407141,0.14008 0.180354,1.9954 -0.449774,3.67957 -0.53038,1.41757 -1.249931,2.02994 -0.967927,0.82375 z m 7.742034,-0.84611 c -0.757623,-1.40682 -0.373182,-1.86446 0.494086,-0.58816 0.827873,1.21832 0.897302,1.50284 0.366736,1.50284 -0.20253,0 -0.5899,-0.41161 -0.860822,-0.91468 z m 46.221776,0.72908 c 0.0194,-0.44518 1.34166,-1.84574 1.54784,-1.63956 0.30398,0.30398 -0.53139,1.66773 -1.08713,1.77476 -0.25881,0.0498 -0.46613,-0.011 -0.46071,-0.1352 z m 131.29011,-0.27518 c -0.0796,-0.12887 -0.007,-1.28134 0.16033,-2.56105 0.16783,-1.27971 0.31163,-3.28334 0.31956,-4.45252 0.008,-1.16917 0.0919,-2.12575 0.18655,-2.12571 0.59401,2.1e-4 0.85444,0.95197 0.69607,2.54378 -0.56968,5.72586 -0.90294,7.33909 -1.36251,6.5955 z M 84.370143,198.90129 c -0.187886,-0.304 0.699359,-3.06129 0.985068,-3.06129 0.354758,0 0.256858,1.30546 -0.175501,2.34024 -0.409507,0.98009 -0.564279,1.11794 -0.809567,0.72105 z M 107.84914,198.528 c -0.37842,-0.37843 -0.44044,-1.04229 -0.0974,-1.04229 0.26552,0 1.13966,0.9107 1.13966,1.18731 0,0.30379 -0.6894,0.20786 -1.04229,-0.14502 z m 7.81001,0.0322 c -0.0591,-0.2138 -0.25959,-0.86082 -0.4456,-1.43783 -0.376,-1.16638 -0.23715,-1.53506 0.38399,-1.01956 0.54232,0.45009 0.85674,2.15839 0.46868,2.54645 -0.2167,0.21669 -0.3294,0.19203 -0.40707,-0.0891 z M 178.56,198.4827 c 0,-0.20594 -0.24686,-0.68826 -0.54857,-1.07183 -0.61847,-0.78626 -0.72096,-1.3989 -0.20572,-1.22973 0.43431,0.14261 1.57715,1.81296 1.57715,2.30514 0,0.20397 -0.18515,0.37086 -0.41143,0.37086 -0.22629,0 -0.41143,-0.1685 -0.41143,-0.37444 z M 47.339867,198.24 c -0.05189,-0.18857 -0.229318,-1.21761 -0.394287,-2.28676 -0.164969,-1.06915 -0.378703,-2.14915 -0.474964,-2.4 -0.11791,-0.30727 -0.0329,-0.4561 0.260527,-0.4561 0.239551,0 0.498615,0.27772 0.575698,0.61714 0.775287,3.41395 0.897866,4.86858 0.410265,4.86858 -0.155592,0 -0.325349,-0.15429 -0.377239,-0.34286 z m 100.513893,-0.18 c -0.15843,-0.29602 -0.28805,-0.77902 -0.28805,-1.07334 0,-0.29431 -0.17349,-0.94773 -0.38554,-1.45205 -0.26784,-0.637 -0.34027,-1.51549 -0.23726,-2.87754 0.11261,-1.48901 0.0415,-2.17472 -0.29577,-2.85073 -0.47807,-0.95832 -0.39089,-1.43631 0.21927,-1.20218 0.56564,0.21706 1.06548,2.70058 0.88854,4.4149 -0.0853,0.82688 -0.0303,1.83072 0.12232,2.23075 0.75494,1.97884 0.73612,4.22956 -0.0235,2.81019 z m -30.45948,-0.24192 c 0,-0.68178 2.27987,-2.52665 3.12241,-2.52665 0.40068,0 0.86688,0.25693 1.11977,0.61714 0.38398,0.54693 0.6276,0.60714 2.14126,0.52923 4.14247,-0.21323 4.67402,-0.19163 4.80484,0.1953 0.0965,0.28549 -0.0616,0.34524 -0.62733,0.23709 -0.416,-0.0795 -1.57383,0.0293 -2.57294,0.24179 -2.13946,0.45505 -3.76305,0.27017 -4.16123,-0.47384 -0.42882,-0.80126 -1.13543,-0.63173 -2.3895,0.57329 -1.28671,1.23639 -1.43728,1.29994 -1.43728,0.60665 z m -49.852129,-0.40094 c -0.321829,-0.40331 -1.165009,-2.0312 -1.165009,-2.24923 0,-0.0829 0.118979,-0.15077 0.264398,-0.15077 0.328099,0 1.655602,1.92045 1.655602,2.3951 0,0.445 -0.401727,0.4476 -0.754991,0.005 z m 20.678963,0.15254 c -0.27938,-0.27938 -0.174261,-2.05471 0.182938,-3.08958 0.467558,-1.3546 3.208892,-3.18172 3.206635,-2.13724 -4.08e-4,0.18857 -0.460316,0.58971 -1.02202,0.89142 -1.225481,0.65826 -1.710623,1.52604 -1.716053,3.06953 -0.0039,1.10204 -0.2796,1.63777 -0.6515,1.26587 z M 182.83061,196.8 c -0.28435,-0.528 -0.62099,-0.96 -0.74809,-0.96 -0.1271,0 -0.23109,-0.18514 -0.23109,-0.41143 0,-0.22629 0.11245,-0.41143 0.2499,-0.41143 0.42184,0 1.6701,1.65577 1.6701,2.21533 0,0.80207 -0.36677,0.63348 -0.94082,-0.43247 z m -10.67151,-1.71429 c -0.58154,-3.03486 -0.58964,-3.3433 -0.0736,-2.80163 0.21043,0.2209 0.58071,1.40138 0.82285,2.62329 0.53045,2.67675 0.52757,2.57834 0.0755,2.57834 -0.2407,0 -0.52124,-0.81641 -0.82468,-2.4 z m -35.51015,0 c -0.2922,-0.41485 -0.61337,-1.019 -0.71371,-1.34254 -0.23947,-0.77214 1.09822,-3.88228 1.49789,-3.48261 0.18724,0.18723 0.0959,0.70139 -0.28064,1.57981 -0.68306,1.59353 -0.6837,1.76646 -0.01,2.6282 0.57401,0.73383 0.71021,1.37143 0.29296,1.37143 -0.14059,0 -0.49468,-0.33943 -0.78687,-0.75429 z M 129.88061,194.88 c -0.22977,-0.37714 -0.60254,-0.9894 -0.82839,-1.36057 -0.2645,-0.43469 -0.90148,-0.82062 -1.78993,-1.08446 -1.74606,-0.51852 -4.31503,-2.71048 -5.30203,-4.52392 -0.82478,-1.51539 -0.86042,-1.67105 -0.38265,-1.67105 0.18883,0 0.63445,0.54876 0.99026,1.21946 0.76372,1.43963 3.46453,3.88136 4.59324,4.15262 1.4635,0.35172 2.23417,0.91012 2.95599,2.14181 0.39445,0.67309 0.71718,1.3561 0.71718,1.51781 0,0.52632 -0.52602,0.31027 -0.95367,-0.3917 z m 101.51488,0.12284 c -0.0766,-0.36928 -0.19268,-0.97998 -0.25786,-1.35713 -0.0652,-0.37714 -0.20931,-0.90171 -0.32028,-1.16571 -0.13825,-0.32891 -0.0769,-0.48 0.19499,-0.48 0.80062,0 1.35677,2.35555 0.77373,3.27712 -0.19864,0.31398 -0.28041,0.25656 -0.39058,-0.27428 z m -122.22978,-0.40805 c 0,-0.81497 -0.98586,-2.86908 -1.377,-2.86908 -0.14779,0 -0.26871,-0.18514 -0.26871,-0.41143 0,-0.66569 0.74288,-0.47208 1.31552,0.34286 0.73359,1.044 1.27231,2.65358 1.06712,3.1883 -0.26413,0.68831 -0.73693,0.5275 -0.73693,-0.25065 z m 22.62396,-0.31183 c -0.2632,-0.55466 -0.5875,-1.98226 -0.72066,-3.17244 -0.13913,-1.24362 -0.49299,-2.65204 -0.83202,-3.31153 l -0.58991,-1.14756 -0.22694,0.82285 c -0.12482,0.45258 -0.26065,1.24518 -0.30184,1.76134 -0.0412,0.51617 -0.22738,0.98931 -0.41374,1.05143 -0.46816,0.15605 -0.43754,-1.64513 0.0556,-3.26996 0.33559,-1.10581 0.33519,-1.45712 -0.003,-2.58074 -0.45361,-1.50723 -0.51442,-3.13349 -0.11716,-3.13349 0.15086,0 0.27428,0.0449 0.27428,0.0997 0,0.9624 0.78449,3.48549 1.63548,5.26006 0.79061,1.64868 1.13552,2.77739 1.26644,4.14442 0.099,1.03327 0.40111,2.39379 0.67144,3.02339 0.45919,1.06944 0.45326,1.461 -0.0221,1.461 -0.10853,0 -0.41267,-0.45381 -0.67587,-1.00847 z m 28.83984,-0.30597 c -0.0901,-0.14573 0.26767,-0.80445 0.79497,-1.46383 1.65484,-2.06935 2.28102,-5.46993 1.30994,-7.11383 -0.64967,-1.09981 -0.18259,-1.38641 0.66138,-0.40582 0.64572,0.75025 0.68665,0.95689 0.54928,2.77327 -0.0822,1.08654 -0.41218,2.57572 -0.73928,3.33608 -0.625,1.45286 -2.29988,3.32137 -2.57629,2.87413 z m -44.99694,-1.89984 c -0.53963,-0.86271 -0.98114,-1.88439 -0.98114,-2.2704 0,-0.99772 0.73216,-1.92104 1.52333,-1.92104 1.34432,0 4.22824,3.40958 3.49993,4.13788 -0.22733,0.22734 -0.42469,0.061 -0.75604,-0.63729 -0.61149,-1.28861 -2.16728,-2.75227 -2.79822,-2.63251 -0.85837,0.16293 -0.78868,1.4675 0.15714,2.94142 0.46333,0.72205 0.84243,1.45629 0.84243,1.63166 0,0.70566 -0.55713,0.23756 -1.48743,-1.24972 z m 24.92236,0.0267 c 0.10721,-0.5851 0.61763,-1.82444 1.13428,-2.75409 0.76048,-1.36841 0.93936,-1.98648 0.93936,-3.24572 0,-1.12391 0.0951,-1.52296 0.34286,-1.43839 0.22707,0.0775 0.34285,0.71851 0.34285,1.89804 0,1.49805 -0.12033,1.95459 -0.75742,2.87366 -0.41659,0.60097 -0.91301,1.63004 -1.10317,2.28683 -0.45912,1.58576 -1.17517,1.88825 -0.89876,0.37967 z m 52.59437,-0.21966 c -2.60289,-1.36693 -2.63779,-1.39283 -2.39827,-1.7804 0.11011,-0.17815 1.03943,0.17906 2.45001,0.94175 1.24994,0.67583 2.55644,1.22878 2.90333,1.22878 0.57935,0 0.61852,-0.0909 0.48093,-1.11675 -0.18006,-1.34245 -1.33384,-3.17682 -2.26502,-3.60109 -0.7984,-0.36378 -0.88418,-0.76787 -0.16299,-0.76787 1.8048,0 4.2012,4.77751 2.99928,5.97943 -0.58194,0.58194 -1.67534,0.34078 -4.00727,-0.88385 z m 62.94958,1.03759 c -0.21913,-0.21913 0.0286,-0.64746 0.37445,-0.64746 0.14195,0 0.2581,0.18515 0.2581,0.41143 0,0.42416 -0.32365,0.54493 -0.63255,0.23603 z m -86.43634,-0.62023 c -0.0964,-0.15595 -0.0945,-0.89187 0.004,-1.63536 0.12662,-0.95456 0.0403,-1.77047 -0.29387,-2.77647 -0.33694,-1.01442 -0.38845,-1.50941 -0.17888,-1.71898 0.62471,-0.62471 1.47335,2.76253 1.17112,4.67438 -0.24337,1.53961 -0.42207,1.9101 -0.70245,1.45643 z m 34.08055,-0.91865 c -0.0716,-0.74279 -0.21172,-0.9059 -0.84023,-0.97822 -1.0442,-0.12015 -0.99848,-0.87321 0.053,-0.87321 0.9517,0 1.66127,0.84615 1.66127,1.98103 0,1.11056 -0.76542,0.99707 -0.87405,-0.1296 z m -38.14481,-2.46858 c -0.13038,-2.552 0.0313,-3.67736 0.43458,-3.02484 0.26545,0.42951 0.53718,4.38856 0.35188,5.12685 -0.35661,1.42086 -0.646,0.64741 -0.78646,-2.10201 z m -109.6507,1.25715 c -0.0037,-0.57829 -0.132153,-1.59565 -0.285478,-2.26081 -0.323657,-1.4041 0.08919,-2.24025 0.531588,-1.07665 0.426802,1.12257 0.49971,4.1315 0.103452,4.26949 -0.23475,0.0817 -0.344971,-0.21213 -0.349562,-0.93203 z m 171.98385,0.3379 c 0,-0.25338 0.13755,-1.00698 0.30568,-1.67467 0.44715,-1.77579 0.12837,-2.94558 -1.12683,-4.135 -1.29812,-1.23009 -1.82886,-2.46724 -2.05797,-4.79708 -0.15936,-1.62058 -0.13987,-1.71351 0.25618,-1.22159 0.23576,0.29284 0.42865,0.79501 0.42865,1.11594 0,1.44518 0.84155,3.35511 1.91661,4.34979 0.60529,0.56003 1.11674,1.16756 1.13655,1.35005 0.0198,0.18249 0.19265,-0.65563 0.3841,-1.86249 0.19145,-1.20685 0.61552,-3.42857 0.94239,-4.93714 0.36531,-1.68602 0.55404,-3.35054 0.48982,-4.32 -0.0759,-1.14603 -0.009,-1.57714 0.24346,-1.57714 0.48592,0 0.7489,1.67998 0.52832,3.37502 -0.10199,0.78374 -0.48728,2.74292 -0.8562,4.35374 -0.42085,1.83758 -0.67076,3.7725 -0.67076,5.1934 0,1.72248 -0.13462,2.54272 -0.5623,3.42619 -0.66996,1.38395 -1.3577,2.07335 -1.3577,1.36098 z m -123.97714,-0.44767 c 0,-0.16095 0.55564,-1.44262 1.23477,-2.84815 0.67912,-1.40554 1.31266,-2.94496 1.40785,-3.42094 0.21398,-1.06987 0.81488,-0.94713 0.70879,0.14477 -0.0976,1.00472 -2.68362,6.41694 -3.06606,6.41694 -0.15694,0 -0.28535,-0.13168 -0.28535,-0.29262 z m -8.75268,-1.1654 c -0.590225,-1.21925 -0.739196,-2.10769 -0.353409,-2.10769 0.272546,0 1.426084,2.33552 1.426084,2.88734 0,0.76547 -0.500956,0.40136 -1.072675,-0.77965 z m 89.42709,0.005 c -0.6749,-1.09201 -1.10436,-3.48425 -0.62549,-3.48425 0.16848,0 0.37732,0.33943 0.46408,0.75429 0.0868,0.41485 0.40467,1.29655 0.70648,1.95932 0.69722,1.53111 0.28507,2.11384 -0.54507,0.77064 z m -8.52132,-2.10594 c -0.84599,-2.45178 -0.97366,-3.58547 -0.32304,-2.86859 0.25524,0.28122 1.9528,4.92729 1.9528,5.34462 0,0.14297 -0.15428,0.25994 -0.34286,0.25992 -0.18857,-1e-5 -0.76767,-1.23119 -1.2869,-2.73595 z m -84.770238,2.19695 c 0,-0.61973 -4.495783,-4.82517 -7.133032,-6.67237 -0.469586,-0.32891 -0.576631,-0.54865 -0.368605,-0.75668 0.606344,-0.60634 8.050209,5.9482 8.050209,7.08845 0,0.33294 -0.123429,0.60534 -0.274286,0.60534 -0.150857,0 -0.274286,-0.11913 -0.274286,-0.26474 z m 119.709998,-0.12426 c -0.71635,-0.52381 -0.29771,-0.87652 0.57072,-0.48083 0.52985,0.24142 0.81975,0.23818 1.22297,-0.0136 0.65555,-0.4094 1.02777,-0.0995 0.55896,0.4654 -0.43589,0.52522 -1.65355,0.54026 -2.35265,0.0291 z m -71.53272,-0.89658 c -0.10364,-0.10364 0.26349,-0.65125 0.81585,-1.21692 0.88437,-0.90567 0.98518,-1.14619 0.84431,-2.0143 -0.088,-0.5422 -0.35028,-1.36729 -0.58288,-1.83354 -0.4684,-0.93893 -0.32226,-1.53364 0.25844,-1.0517 0.44335,0.36795 1.22986,2.58895 1.22986,3.47297 0,0.34983 -0.44636,1.13013 -0.99192,1.734 -1.00665,1.11424 -1.23623,1.24692 -1.57366,0.90949 z m -95.761569,-0.89522 c -0.23682,-0.74615 0.357751,-2.82132 0.765355,-2.67122 0.180129,0.0663 0.281995,0.29031 0.226367,0.49774 -0.05563,0.20742 -0.164251,0.90171 -0.241386,1.54285 -0.149224,1.24035 -0.470986,1.51078 -0.750336,0.63063 z m 68.077629,0.36556 c -0.20025,-0.20024 0.0506,-1.68266 0.40066,-2.36762 0.27641,-0.54087 1.17681,-0.67125 0.94714,-0.13714 -0.0811,0.18857 -0.30211,0.86743 -0.49117,1.50857 -0.33542,1.13748 -0.51108,1.34175 -0.85663,0.99619 z m -38.939052,-2.2155 c -0.862696,-0.59243 -1.389269,-1.45497 -0.888243,-1.45497 0.28299,0 2.867113,1.78931 2.871886,1.98857 0.01005,0.41935 -0.986195,0.15136 -1.983643,-0.5336 z m 25.31977,-0.2664 c 0.03083,-1.41649 0.664281,-4.18958 0.943087,-4.12858 0.324225,0.0709 0.315111,1.14223 -0.02715,3.19161 -0.266044,1.59298 -0.945333,2.28787 -0.915933,0.93697 z m 104.096352,-0.40379 c -0.87435,-0.76964 -1.19983,-1.22508 -1.01067,-1.41424 0.18916,-0.18916 0.63648,0.0439 1.389,0.7238 0.61049,0.55154 1.23306,1.0028 1.38348,1.0028 0.16535,0 0.2735,-1.20205 0.2735,-3.04 0,-2.06879 0.0953,-3.00822 0.29844,-2.94052 0.32781,0.10927 0.64567,5.44065 0.37519,6.29287 -0.26592,0.83785 -1.32479,0.59366 -2.70894,-0.62471 z m 16.02388,0.82635 c 0,-0.76725 2.25498,-7.111 2.74064,-7.71003 0.76521,-0.94382 0.9584,-0.38657 0.32648,0.94172 -0.30876,0.64902 -0.94507,2.37254 -1.41403,3.83004 -0.46896,1.4575 -1.03276,2.79947 -1.25288,2.98216 -0.31766,0.26364 -0.40021,0.25458 -0.40021,-0.0439 z m -23.21815,-0.99399 c -0.10372,-0.41486 -0.47583,-1.40461 -0.8269,-2.19945 -0.71364,-1.6157 -1.73781,-4.55765 -1.73781,-4.9919 0,-0.15561 0.15681,-0.28294 0.34846,-0.28294 0.19403,0 0.63155,0.91198 0.98722,2.05779 0.35133,1.13178 0.74,2.12034 0.86373,2.19681 0.12372,0.0765 0.3679,-0.29411 0.54261,-0.8235 0.17472,-0.52939 0.43152,-0.96252 0.57068,-0.96252 0.39262,0 0.29875,1.03593 -0.17728,1.95647 -0.3386,0.6548 -0.36783,1.01128 -0.13714,1.67303 0.36669,1.0519 0.37889,2.1305 0.0241,2.1305 -0.14798,0 -0.35393,-0.33943 -0.45766,-0.75429 z M 92.27571,182.47931 c -1.145422,-2.5038 -1.167773,-2.58224 -0.777183,-2.72739 0.16419,-0.061 0.707545,0.77643 1.207454,1.861 l 0.908926,1.97194 1.126218,-1.20957 c 0.619419,-0.66527 1.327716,-1.51815 1.573992,-1.89529 0.55336,-0.84741 0.986416,-0.52962 0.558401,0.40977 -0.372566,0.8177 -2.414684,3.08069 -3.121224,3.45882 -0.435573,0.23311 -0.623814,-0.005 -1.476584,-1.86928 z m 122.36766,-0.0107 c 0.25915,-2.45292 0.74528,-4.00611 1.60779,-5.13692 0.5274,-0.69146 0.70884,-1.25581 0.70884,-2.20478 0,-1.65936 0.64994,-1.54163 0.77228,0.13988 0.0614,0.84433 -0.0656,1.39567 -0.43751,1.89868 -1.00039,1.35314 -1.48493,2.57404 -1.73807,4.37947 -0.31347,2.23573 -0.47504,2.7751 -0.8313,2.7751 -0.17922,0 -0.2083,-0.65629 -0.082,-1.85143 z m -43.48909,0.48965 c 0,-0.14555 0.24686,-0.39675 0.54858,-0.55822 0.32824,-0.17567 0.54857,-0.57431 0.54857,-0.99251 0,-0.44102 0.12651,-0.65413 0.34285,-0.57754 0.41559,0.14714 0.35728,1.46837 -0.0885,2.00551 -0.36312,0.43753 -1.35149,0.52731 -1.35149,0.12276 z m -67.19999,-1.19069 c 0,-0.57398 1.00601,-1.74272 1.27194,-1.47769 0.26487,0.26397 -0.4406,1.60657 -0.92909,1.76817 -0.18857,0.0624 -0.34285,-0.0683 -0.34285,-0.29048 z m 105.54548,-0.33634 c -0.0875,-0.0874 -0.0577,-0.55325 0.0661,-1.0351 0.12379,-0.48185 0.35751,-1.84663 0.51937,-3.03285 0.43101,-3.15857 1.61581,-5.27727 3.52251,-6.29906 0.79624,-0.4267 1.71431,-1.13642 2.04015,-1.57714 0.64922,-0.87812 1.03785,-1.02574 1.03785,-0.39423 0,0.63767 -1.3871,1.99492 -2.74285,2.68384 -1.74551,0.88697 -2.90445,3.22867 -3.28128,6.63004 -0.24413,2.20353 -0.72665,3.45967 -1.16181,3.0245 z m -99.14226,-0.55159 c -0.0893,-0.23279 -0.0884,-0.49724 0.002,-0.58766 0.23716,-0.23716 1.02333,0.4778 0.84416,0.76771 -0.2341,0.37878 -0.66705,0.28665 -0.84614,-0.18005 z m 95.35677,-2.41423 c 0,-0.20291 0.25025,-0.59539 0.5561,-0.87218 0.77863,-0.70465 3.31926,-4.58886 4.36833,-6.67845 0.58508,-1.16541 0.96906,-1.65669 1.15191,-1.47383 0.67252,0.67251 -4.76409,9.39337 -5.85586,9.39337 -0.12126,0 -0.22048,-0.16601 -0.22048,-0.36891 z m -20.84571,-0.39381 c 0,-0.37185 1.62343,-0.86667 1.81681,-0.55376 0.0954,0.15437 0.003,0.38841 -0.20453,0.52009 -0.47132,0.29854 -1.61228,0.32236 -1.61228,0.0337 z m 33.55837,-10.20625 c 0.0983,-0.49164 0.17877,-1.12531 0.17877,-1.40817 0,-0.28286 0.13019,-0.51428 0.28932,-0.51428 0.4463,0 0.19875,2.53756 -0.26238,2.68958 -0.29959,0.0988 -0.34501,-0.0706 -0.20571,-0.76713 z"
       id="path1" />
  </g>
</svg>
