<?xml version="1.0" encoding="UTF-8" standalone="no"?>
<!-- Created with Inkscape (http://www.inkscape.org/) -->

<svg
   version="1.1"
   id="svg1"
   width="294.58286"
   height="294.58286"
   viewBox="0 0 294.58286 294.58286"
   sodipodi:docname="pony-large-v.svg"
   inkscape:version="1.4 (86a8ad7, 2024-10-11)"
   xmlns:inkscape="http://www.inkscape.org/namespaces/inkscape"
   xmlns:sodipodi="http://sodipodi.sourceforge.net/DTD/sodipodi-0.dtd"
   xmlns:xlink="http://www.w3.org/1999/xlink"
   xmlns="http://www.w3.org/2000/svg"
   xmlns:svg="http://www.w3.org/2000/svg">
  <defs
     id="defs1">
    <linearGradient
       id="linearGradient1"
       inkscape:collect="always">
      <stop
         style="stop-color:#000000;stop-opacity:0;"
         offset="0.17685589"
         id="stop2" />
      <stop
         style="stop-color:#000000;stop-opacity:1;"
         offset="0.63973796"
         id="stop1" />
    </linearGradient>
    <linearGradient
       inkscape:collect="always"
       xlink:href="#linearGradient1"
       id="linearGradient2"
       x1="29.597815"
       y1="193.21586"
       x2="268.98679"
       y2="193.21586"
       gradientUnits="userSpaceOnUse" />
  </defs>
  <sodipodi:namedview
     id="namedview1"
     pagecolor="#ffffff"
     bordercolor="#000000"
     borderopacity="0.25"
     inkscape:showpageshadow="2"
     inkscape:pageopacity="0.0"
     inkscape:pagecheckerboard="0"
     inkscape:deskcolor="#d1d1d1"
     inkscape:zoom="2.766624"
     inkscape:cx="147.47215"
     inkscape:cy="147.29143"
     inkscape:window-width="1920"
     inkscape:window-height="1017"
     inkscape:window-x="-8"
     inkscape:window-y="-8"
     inkscape:window-maximized="1"
     inkscape:current-layer="g1" />
  <g
     inkscape:groupmode="layer"
     inkscape:label="Image"
     id="g1">
    <path
       style="fill:url(#linearGradient2)"
       d="m 245.20389,212.38708 c -0.373,-0.25225 -1.24048,-0.97533 -1.92774,-1.60686 -2.23145,-2.05047 -5.11425,-2.49068 -7.52758,-1.14948 -2.72758,1.51584 -3.72732,1.89686 -4.48152,1.70798 -0.40145,-0.10053 -1.59391,-1.05378 -2.64991,-2.11833 -1.82014,-1.83486 -1.98063,-1.93278 -3.08571,-1.88272 -1.56359,0.0708 -2.34904,0.0655 -4.45715,-0.0301 -1.55315,-0.0704 -1.95954,0.0218 -3.15428,0.71582 -0.75429,0.43816 -1.82198,1.03037 -2.37265,1.31603 l -1.00122,0.51937 -1.74164,-0.82705 c -0.9579,-0.45488 -2.43004,-1.20396 -3.27142,-1.66463 -3.00154,-1.64335 -8.51218,-1.66404 -13.1445,-0.0493 l -1.50857,0.52584 -1.7842,-0.92619 c -0.98132,-0.50941 -2.09217,-1.20803 -2.46858,-1.55248 -1.5692,-1.43603 -2.37234,-1.80585 -4.5774,-2.10776 -2.64913,-0.36272 -6.42664,-0.007 -9.0855,0.85503 l -1.73281,0.56194 -3.20433,-1.86942 c -1.76238,-1.02819 -3.84303,-2.20014 -4.62368,-2.60434 -3.24696,-1.6812 -7.64717,-1.13426 -10.21754,1.27002 -1.95248,1.82631 -2.54508,1.96126 -4.07586,0.92815 -0.69468,-0.46883 -2.09015,-1.5875 -3.10104,-2.48593 -1.67084,-1.48496 -2.0026,-1.66078 -3.64818,-1.93347 -1.98275,-0.32855 -5.31039,0.0457 -6.33802,0.7129 -0.30172,0.19588 -1.03164,0.51453 -1.62206,0.70811 -0.59041,0.19358 -1.60909,0.7608 -2.26372,1.26049 l -1.19023,0.90853 -1.63337,-0.92323 c -0.89835,-0.50778 -1.89545,-1.16741 -2.21579,-1.46585 -0.7227,-0.6733 -4.38841,-1.02486 -7.66339,-0.73495 -1.88521,0.16687 -2.36039,0.31903 -3.36341,1.077 -0.64242,0.48546 -1.3834,0.96231 -1.64663,1.05965 -0.60248,0.2228 -2.53353,-0.59612 -4.52907,-1.92068 l -1.53728,-1.02039 -3.44753,-0.005 -3.44752,-0.005 -1.28893,0.99744 c -1.60292,1.24043 -3.73338,1.9854 -4.95062,1.73111 -0.490535,-0.10248 -2.002739,-0.68905 -3.360453,-1.30348 -2.404895,-1.08834 -2.546399,-1.11724 -5.485715,-1.12006 -2.962262,-0.003 -3.060103,0.0174 -5.378965,1.11433 l -2.361822,1.11724 -1.61532,-1.22166 c -2.270684,-1.71731 -2.744101,-1.92753 -5.06902,-2.2509 -2.551993,-0.35495 -3.802185,-0.0647 -7.245319,1.6824 -1.356683,0.68837 -2.989413,1.33514 -3.628288,1.43726 -1.221262,0.1952 -3.079523,-0.27191 -5.081469,-1.27733 -0.567397,-0.28496 -1.986826,-0.65255 -3.154285,-0.81687 -1.936346,-0.27254 -2.377964,-0.23711 -5.031457,0.40369 -2.715538,0.65578 -2.996032,0.6762 -4.221695,0.30733 -0.722091,-0.21732 -2.382807,-0.53233 -3.690479,-0.70004 -2.071494,-0.26566 -2.881987,-0.22851 -6.295534,0.28849 -2.154871,0.32638 -4.654806,0.82274 -5.55541,1.10304 -1.183835,0.36845 -1.669439,0.42111 -1.752884,0.19008 -0.458161,-1.26849 -0.857191,-5.70525 -0.633251,-7.04104 0.138961,-0.8289 0.240766,-2.80309 0.226234,-4.38709 -0.01453,-1.584 0.04934,-4.54628 0.141943,-6.58285 0.0926,-2.03658 0.196927,-4.4678 0.231833,-5.40271 0.03491,-0.93492 0.122569,-1.75896 0.194805,-1.8312 0.123663,-0.12366 2.045919,0.26313 4.514669,0.90843 6.938948,1.81375 7.963142,1.98062 10.241618,1.66866 2.795278,-0.38273 4.645853,-0.14691 6.901239,0.87941 3.349664,1.52428 3.798295,1.62998 5.473553,1.28966 1.399561,-0.28432 4.124931,-1.71046 6.56701,-3.43642 0.512595,-0.36228 1.141459,-0.65869 1.397475,-0.65869 0.256017,0 1.210339,0.48142 2.120716,1.06983 2.460226,1.59012 2.65024,1.6691 5.016463,2.08512 2.727999,0.47963 4.52336,0.0902 6.899332,-1.49637 1.847118,-1.23346 3.294003,-1.77596 4.151446,-1.55655 0.331417,0.0848 1.245068,0.71844 2.030335,1.40807 0.855369,0.7512 2.064945,1.47604 3.017143,1.80804 1.439892,0.50204 1.788271,0.52385 3.703927,0.23193 1.82728,-0.27845 2.550396,-0.57694 5.322849,-2.19715 3.618676,-2.11475 3.365376,-2.1102 5.728326,-0.10281 3.07519,2.61246 7.55667,2.56248 11.49057,-0.12815 1.50951,-1.03245 2.59448,-1.56619 3.64201,-1.79167 0.77544,-0.16691 1.03438,-0.0381 2.38864,1.18833 2.55479,2.31364 3.93604,2.72878 7.45204,2.23975 1.86108,-0.25885 2.24437,-0.41209 3.01467,-1.20524 1.13449,-1.16815 3.3711,-2.65027 3.99942,-2.65027 0.59972,0 1.55725,1.2443 2.66887,3.46817 1.26507,2.53084 2.14551,2.9803 5.8126,2.96726 2.75421,-0.01 2.96777,-0.0532 4.49192,-0.9134 0.88013,-0.49672 2.29136,-1.56724 3.13607,-2.37893 0.84471,-0.8117 2.11771,-1.71763 2.8289,-2.01319 l 1.29306,-0.53737 0.67186,0.62266 c 0.36952,0.34246 1.18226,1.43082 1.80608,2.41858 0.72815,1.15293 1.3693,1.85492 1.79079,1.96071 0.36111,0.0906 1.61517,-0.0186 2.78679,-0.24279 1.86849,-0.3575 2.18463,-0.35835 2.57301,-0.007 0.24353,0.22039 0.97521,0.58856 1.62594,0.81815 1.05834,0.37341 1.3724,0.37355 2.97719,0.001 0.98672,-0.22884 2.33518,-0.65544 2.99658,-0.94801 1.52423,-0.67424 1.91087,-0.52429 4.1987,1.62843 2.56077,2.40953 4.25663,3.48011 6.47062,4.08483 1.68807,0.46108 2.28572,0.49643 4.52572,0.26776 1.78368,-0.18209 2.96203,-0.46343 3.81509,-0.91088 0.67886,-0.35608 1.91314,-0.97233 2.74286,-1.36944 0.82971,-0.39711 1.73829,-0.84752 2.01905,-1.0009 0.38723,-0.21155 0.8177,-0.12372 1.78286,0.36377 1.02348,0.51694 1.42314,0.94321 2.04314,2.17913 0.66054,1.31676 0.99393,1.64956 2.33142,2.32728 1.31413,0.66588 1.87078,0.78643 3.52382,0.76317 1.95382,-0.0275 3.87258,-0.69894 4.60787,-1.61248 0.15737,-0.19551 0.86697,-0.78996 1.5769,-1.32099 2.86192,-2.14078 4.71446,-1.97845 6.42573,0.56304 0.58335,0.86636 1.17455,1.65739 1.31377,1.75784 0.13923,0.10045 1.12086,0.26978 2.18141,0.37629 1.06055,0.10651 2.39872,0.43886 2.97371,0.73856 1.6176,0.84314 2.66565,0.51109 4.60554,-1.45915 0.88751,-0.9014 2.17098,-1.88544 2.85215,-2.18675 1.11225,-0.492 1.33043,-0.50881 2.14055,-0.16485 0.49614,0.21065 1.4309,0.92182 2.07725,1.58038 0.99214,1.0109 1.33504,1.19319 2.20172,1.17047 1.47119,-0.0386 3.21545,-1.02601 5.26311,-2.97944 5.38062,-5.13306 8.73767,-6.75814 12.68976,-6.14286 1.98709,0.30937 4.99374,0.0137 6.97628,-0.68603 0.92815,-0.32758 1.49211,-0.35011 2.90482,-0.11601 l 1.75307,0.29049 -0.35909,1.54384 c -0.71522,3.07506 -1.54875,18.12526 -1.15645,20.88099 0.36061,2.5332 -0.12089,5.83249 -1.19029,8.15602 -0.46967,1.02048 -0.99992,2.39658 -1.17833,3.05801 -0.28985,1.07456 -0.41716,1.20989 -1.19576,1.27114 -0.47926,0.0377 -1.02465,0.19015 -1.21198,0.33878 -0.75388,0.59813 -2.3414,0.60927 -5.01767,0.0352 -1.76552,-0.37871 -3.79361,-0.59462 -5.74579,-0.61171 -2.61953,-0.0229 -3.16933,0.0539 -4.17193,0.58307 -1.38412,0.73052 -1.67323,0.74758 -2.55561,0.15085 z"
       id="path1" />
  </g>
</svg>
