<?xml version="1.0" encoding="UTF-8" standalone="no"?>
<!-- Created with Inkscape (http://www.inkscape.org/) -->

<svg
   version="1.1"
   id="svg1"
   width="294.58286"
   height="294.58286"
   viewBox="0 0 294.58286 294.58286"
   sodipodi:docname="two-hole-canine-marble.svg"
   inkscape:version="1.3.2 (091e20e, 2023-11-25, custom)"
   xmlns:inkscape="http://www.inkscape.org/namespaces/inkscape"
   xmlns:sodipodi="http://sodipodi.sourceforge.net/DTD/sodipodi-0.dtd"
   xmlns="http://www.w3.org/2000/svg"
   xmlns:svg="http://www.w3.org/2000/svg">
  <defs
     id="defs1" />
  <sodipodi:namedview
     id="namedview1"
     pagecolor="#ffffff"
     bordercolor="#000000"
     borderopacity="0.25"
     inkscape:showpageshadow="2"
     inkscape:pageopacity="0.0"
     inkscape:pagecheckerboard="0"
     inkscape:deskcolor="#d1d1d1"
     inkscape:zoom="2.1759583"
     inkscape:cx="147.29143"
     inkscape:cy="147.29143"
     inkscape:window-width="1600"
     inkscape:window-height="837"
     inkscape:window-x="-8"
     inkscape:window-y="-8"
     inkscape:window-maximized="1"
     inkscape:current-layer="g1" />
  <g
     inkscape:groupmode="layer"
     inkscape:label="Image"
     id="g1">
    <path
       style="fill:#000000"
       d="m 240,259.26444 -1.78286,-0.47587 -0.17108,-4.38857 c -0.38312,-9.82746 -0.57889,-62.94326 -0.27651,-75.01714 0.38609,-15.41563 2.09201,-58.71599 2.78799,-70.76572 1.48281,-25.672309 3.54115,-37.50761 9.03727,-51.963493 0.3862,-1.015784 1.27378,-0.629702 1.47723,0.642565 0.13217,0.82659 0.34732,1.10785 1.13462,1.483286 1.10615,0.527489 1.35286,1.032558 1.63447,3.346216 0.23604,1.939295 0.39457,2.172415 1.94307,2.857394 0.64603,0.285768 1.31735,0.786322 1.49183,1.112342 0.3179,0.593999 0.25998,0.739773 -0.92775,2.334698 -0.28105,0.377408 1.25083,3.631726 2.44897,5.202568 l 0.74834,0.981123 -0.82608,1.710223 -0.82608,1.710223 0.50285,3.977143 c 0.58576,4.632814 0.63107,8.216728 0.15953,12.617143 -0.29614,2.763502 -0.46535,3.395073 -1.36581,5.097848 -0.90823,1.717461 -0.99256,2.036541 -0.72491,2.742861 0.16658,0.43961 0.53899,1.05141 0.82756,1.35956 0.49529,0.52889 0.51007,0.80542 0.26379,4.93714 -0.57453,9.63862 -2.30871,52.15333 -2.75181,67.46259 -0.15718,5.43086 -0.26649,21.56529 -0.24291,35.85429 l 0.0429,25.98 -1.30643,2.09609 c -0.71854,1.15284 -2.00667,2.97727 -2.86251,4.05428 -2.55062,3.20975 -2.57075,3.25293 -2.35162,5.04399 0.10612,0.86738 0.408,1.82392 0.67084,2.12564 0.26285,0.30171 0.73048,1.17649 1.0392,1.94396 0.49177,1.22255 0.51849,1.5199 0.21574,2.40056 -0.60432,1.75785 -1.6602,2.86685 -3.15105,3.30958 -2.27763,0.67638 -4.85653,0.76192 -6.85877,0.22748 z m -12.91766,-8.38194 c -1.14586,-0.93166 -3.23645,-2.92822 -4.64577,-4.43679 -1.40932,-1.50857 -3.72791,-3.94181 -5.15242,-5.4072 -1.4245,-1.46539 -2.76097,-2.90844 -2.96993,-3.20676 -0.43323,-0.61853 0.0262,-7.68187 2.24068,-34.44889 1.7304,-20.91573 1.72155,-20.80223 2.32042,-29.76 0.96134,-14.37941 1.18174,-21.10484 0.99776,-30.44572 -0.0966,-4.90286 -0.29133,-10.45714 -0.43282,-12.34286 -0.14149,-1.88571 -0.50701,-6.63771 -0.81226,-10.56 -1.00808,-12.9529 -1.20191,-18.84838 -1.01003,-30.719995 0.1,-6.185143 0.2527,-11.704384 0.33939,-12.264982 0.11157,-0.721476 0.32948,-1.07351 0.74585,-1.204928 0.32352,-0.102113 2.63166,-2.187317 5.12921,-4.633785 5.5833,-5.46912 10.09287,-8.913448 11.67015,-8.913448 0.51344,0 0.51698,-0.116307 -0.33738,11.108572 -0.57619,7.570183 -0.80226,26.690686 -0.39989,33.821496 0.17614,3.12161 0.62312,9.49823 0.99329,14.17028 1.95077,24.62151 1.62694,36.22475 -2.34262,83.93965 -0.74047,8.90057 -1.72144,21.552 -2.17994,28.11429 -0.80766,11.5598 -1.55018,18.94724 -1.90019,18.90535 -0.0936,-0.0112 -1.10765,-0.78262 -2.2535,-1.71428 z m -65.72837,-17.05141 c -1.04344,-0.45096 -1.82964,-1.63881 -2.41629,-3.65071 -0.35388,-1.21361 -0.63411,-1.59893 -1.69563,-2.33143 -2.05609,-1.41881 -4.79222,-3.49997 -5.99149,-4.55725 -0.61333,-0.54072 -1.32316,-1.10656 -1.57739,-1.25742 -0.37311,-0.22139 -0.67566,-1.86114 -1.56888,-8.50285 -1.31012,-9.74168 -2.97171,-20.67648 -4.12621,-27.15429 -3.07874,-17.27464 -12.0082,-56.74517 -15.90913,-70.32246 -0.45007,-1.5665 -0.78342,-2.87719 -0.74077,-2.91264 0.16307,-0.13558 7.57401,-2.60216 9.40325,-3.12968 1.056,-0.30454 2.75105,-0.79636 3.76678,-1.09295 l 1.84678,-0.53924 0.6902,2.2442 c 1.12438,3.656 4.87581,18.7427 7.51478,30.22134 6.97557,30.34148 9.37353,42.75565 12.3507,63.93929 2.44678,17.40976 3.24651,23.82438 3.00369,24.09271 -0.12968,0.14332 -0.23589,0.45189 -0.23601,0.68572 -3e-4,0.59462 -1.47693,3.65117 -1.94491,4.02586 -0.69091,0.55318 -1.46599,0.63227 -2.36947,0.2418 z m 43.5361,-3.4565 c -1.58325,-0.91913 -4.24158,-2.57034 -5.90739,-3.66938 -1.66582,-1.09903 -3.64067,-2.30801 -4.38858,-2.68662 -1.43871,-0.72832 -4.9034,-1.9609 -6.31665,-2.24718 -0.82592,-0.1673 -6.67031,0.74219 -7.98758,1.24302 -0.36764,0.13978 -0.76952,0.25414 -0.89306,0.25414 -0.2915,0 -2.63313,-5.49829 -4.20531,-9.87429 -7.33889,-20.42716 -11.91599,-55.63773 -10.643,-81.87428 0.5313,-10.95016 1.32397,-19.75236 2.50337,-27.79871 0.29519,-2.01386 0.5367,-3.69762 0.5367,-3.741693 0,-0.04407 0.33943,-0.163188 0.75429,-0.264706 0.66753,-0.163349 2.93385,-0.978427 8.43428,-3.033368 2.49171,-0.930894 4.59402,-1.905949 6.43213,-2.983237 0.91261,-0.534869 1.65878,-0.883794 1.65813,-0.775388 -6.4e-4,0.108406 -0.30665,1.904397 -0.68002,3.991092 -2.36588,13.22238 -3.98224,30.82746 -3.98125,43.36297 0.001,14.37073 1.59204,31.37362 4.27494,45.68875 0.98806,5.27198 3.20155,14.53701 4.32492,18.10286 l 0.64807,2.05714 0.19126,-3.29143 c 0.50174,-8.63435 1.75873,-18.42134 5.07925,-39.54746 2.13422,-13.57853 3.51833,-25.03475 4.11964,-34.09825 1.23626,-18.6337 1.28055,-34.716208 0.11751,-42.668232 L 198.7988,85.40639 201.87,83.671823 c 1.68917,-0.954012 3.95487,-2.098953 5.03489,-2.544312 1.08002,-0.44536 3.17659,-1.369588 4.65904,-2.05384 1.49298,-0.689112 2.79368,-1.137257 2.91576,-1.004598 0.24124,0.262137 1.19111,5.265744 1.65963,8.742355 1.17307,8.704686 0.59423,36.076172 -1.1137,52.662852 -0.58093,5.64184 -2.24327,18.30268 -3.15114,24 -4.54512,28.52291 -5.40789,36.3316 -5.43986,49.23429 -0.019,7.65259 0.32754,12.27122 1.31068,17.4706 0.19411,1.0266 0.27879,1.86654 0.18818,1.86654 -0.0906,0 -1.46015,-0.752 -3.04341,-1.67112 z m -148.0187,-1.9729 c -1.376656,-1.285 -1.468833,-1.32319 -4.384509,-1.81691 -1.662341,-0.28149 -4.069022,-0.93109 -5.446861,-1.47019 -3.656494,-1.43065 -3.854683,-1.56422 -3.756478,-2.53173 0.13826,-1.36213 2.98283,-20.09093 4.874114,-32.09143 3.318909,-21.05901 4.181721,-25.81509 9.130756,-50.33143 1.355161,-6.71314 2.672808,-13.37829 2.928106,-14.81143 0.255297,-1.43314 0.54871,-2.69837 0.652027,-2.81162 0.195531,-0.21432 15.884023,-0.89297 16.08135,-0.69565 0.126417,0.12642 -2.843852,15.46867 -6.148505,31.7587 -2.471812,12.18461 -3.754228,19.25995 -5.766901,31.81714 -2.038053,12.71553 -4.838142,30.95155 -5.643517,36.75429 -0.38735,2.79085 -0.796318,5.62971 -0.908818,6.30857 l -0.204545,1.23428 z m 31.765185,-0.11312 c -0.745974,-1.46223 -0.931078,-1.5782 -3.607984,-2.2605 -1.282286,-0.32683 -3.725812,-1.26206 -5.430059,-2.07829 -1.704247,-0.81623 -3.524818,-1.56401 -4.045714,-1.66173 -1.149307,-0.21561 -1.143252,-0.13285 -0.409879,-5.60234 0.2933,-2.18743 0.975271,-8.42057 1.51549,-13.85143 0.54022,-5.43085 1.405388,-13.70057 1.922597,-18.37714 2.054833,-18.57968 2.981843,-28.84719 4.544212,-50.33143 0.47722,-6.56228 0.966175,-12.19059 1.086567,-12.50735 0.192532,-0.50657 0.525023,-0.59904 2.760669,-0.76781 1.397976,-0.10553 4.525644,-0.556 6.950374,-1.00104 2.42473,-0.44504 4.809743,-0.80924 5.300028,-0.80934 0.772212,-1.5e-4 0.891434,0.0932 0.891434,0.69778 0,0.97941 -1.788419,24.62979 -2.622838,34.68491 -0.780863,9.40973 -1.816671,19.88197 -3.404761,34.42285 -0.593134,5.43086 -1.335595,12.528 -1.649915,15.77143 -0.806216,8.31926 -2.774691,24.22805 -3.033074,24.51264 -0.119019,0.13109 -0.464236,-0.24746 -0.767147,-0.84121 z m 29.664515,-0.68774 c -0.33921,-0.16239 -1.03813,-1.1712 -1.60184,-2.31206 -1.25126,-2.53235 -2.33873,-3.4288 -6.2473,-5.14994 -2.65728,-1.17013 -3.10234,-1.28687 -4.28571,-1.12412 l -1.32049,0.18162 -0.16877,-1.18674 c -0.83855,-5.89607 -1.74004,-18.69955 -2.13131,-30.26988 -0.32361,-9.56961 -0.0273,-27.47569 0.58996,-35.64828 0.64897,-8.59286 3.34862,-33.7528 3.65448,-34.05866 0.2135,-0.2135 3.58272,-1.0031 8.54705,-2.00307 2.86629,-0.57735 5.75175,-1.2519 6.41215,-1.499 0.66039,-0.24709 1.26564,-0.38434 1.34499,-0.30499 0.0794,0.0793 -0.067,1.71959 -0.32523,3.64499 -1.32451,9.87582 -3.06384,25.93917 -3.7351,34.49501 -0.55273,7.04506 -0.76441,15.79805 -0.67327,27.84 0.12753,16.84923 0.92861,28.05443 3.09899,43.34748 0.11856,0.83539 0.11299,1.91475 -0.0124,2.39857 -0.34563,1.33379 -1.9969,2.1993 -3.14622,1.64907 z m -87.306784,-6.11161 c -4.942376,-0.36246 -5.845654,-0.61659 -7.981779,-2.24562 -1.010598,-0.77069 -1.508873,-1.4417 -2.185964,-2.94377 -0.779807,-1.72994 -0.903366,-2.3559 -1.114945,-5.6484 -0.130871,-2.03657 -0.162564,-6.10972 -0.07043,-9.05143 0.29472,-9.40979 0.318676,-15.16383 0.07255,-17.42473 -0.142478,-1.30878 -0.135647,-3.0306 0.01684,-4.24503 0.164606,-1.31093 0.153614,-3.81479 -0.03067,-6.98669 -0.187103,-3.22037 -0.198127,-6.23426 -0.03163,-8.64641 0.171612,-2.48619 0.15585,-5.09976 -0.04797,-7.95428 -0.181091,-2.5362 -0.216502,-5.41336 -0.08777,-7.13143 0.381416,-5.09045 0.403087,-9.93409 0.05816,-12.9997 -0.273281,-2.42886 -0.267666,-3.41178 0.03,-5.25056 0.201419,-1.24427 0.300331,-2.51425 0.219804,-2.82219 -0.214968,-0.82203 0.40123,-2.43864 1.236319,-3.2435 2.050418,-1.9762 6.964805,-2.95648 12.797484,-2.55273 1.810286,0.12531 4.943768,0.23574 6.963294,0.2454 l 3.671865,0.0176 -0.176557,2.53715 c -0.334947,4.8132 -0.982716,18.46903 -1.265303,26.67428 -0.752008,21.83539 -1.56189,30.78546 -3.983576,44.02286 -1.702339,9.3053 -1.885323,10.96742 -1.902369,17.28 -0.0088,3.24343 0.0809,6.54514 0.199236,7.33714 l 0.215162,1.44 -1.038019,-0.038 c -0.57091,-0.0209 -3.07459,-0.18736 -5.563732,-0.36991 z m 237.702924,-8.01678 c -0.0963,-1.32527 -0.30371,-6.97644 -0.46098,-12.55816 -0.56188,-19.94221 0.61031,-36.80268 4.55444,-65.50958 0.3697,-2.69084 0.67702,-4.97427 0.68292,-5.07428 0.031,-0.52482 0.82311,1.81084 1.0735,3.16533 0.21692,1.17344 0.5241,1.81491 1.21628,2.53995 1.30383,1.36572 1.49982,1.85073 1.94424,4.81123 0.33801,2.25164 0.50624,2.73484 1.19044,3.41904 1.0399,1.0399 1.9817,3.06058 1.78215,3.82369 -0.086,0.3289 -0.63011,0.83968 -1.20912,1.13506 -1.20474,0.61461 -1.69321,1.3474 -1.4958,2.24394 0.0754,0.34252 0.26546,2.46123 0.4223,4.70825 0.25093,3.59505 0.41407,4.46758 1.35906,7.26857 0.59065,1.7507 1.45992,4.1088 1.93172,5.24023 0.53417,1.28101 0.96376,2.93677 1.13862,4.38857 0.15445,1.28229 0.50397,2.88686 0.77672,3.56572 0.90024,2.24064 1.37894,5.01699 1.23562,7.16632 -0.18943,2.84099 -1.84553,6.32896 -3.89386,8.20103 -1.62975,1.48949 -4.68955,3.1347 -6.35255,3.41566 -1.55197,0.2622 -1.75243,0.60856 -1.28803,2.2255 0.98819,3.44066 0.78669,6.40597 -0.7438,10.94577 -0.70226,2.08307 -2.62649,5.90616 -3.62873,7.20959 -0.0331,0.043 -0.13886,-1.00616 -0.23514,-2.33143 z"
       id="path1" />
  </g>
</svg>
