<?xml version="1.0" encoding="UTF-8" standalone="no"?>
<!-- Created with Inkscape (http://www.inkscape.org/) -->

<svg
   version="1.1"
   id="svg1"
   width="294.58286"
   height="294.58286"
   viewBox="0 0 294.58286 294.58286"
   sodipodi:docname="2c-side-body.svg"
   inkscape:version="1.4 (86a8ad7, 2024-10-11)"
   xmlns:inkscape="http://www.inkscape.org/namespaces/inkscape"
   xmlns:sodipodi="http://sodipodi.sourceforge.net/DTD/sodipodi-0.dtd"
   xmlns="http://www.w3.org/2000/svg"
   xmlns:svg="http://www.w3.org/2000/svg">
  <defs
     id="defs1" />
  <sodipodi:namedview
     id="namedview1"
     pagecolor="#ffffff"
     bordercolor="#000000"
     borderopacity="0.25"
     inkscape:showpageshadow="2"
     inkscape:pageopacity="0.0"
     inkscape:pagecheckerboard="0"
     inkscape:deskcolor="#d1d1d1"
     inkscape:zoom="2.766624"
     inkscape:cx="147.47215"
     inkscape:cy="147.29143"
     inkscape:window-width="1920"
     inkscape:window-height="1017"
     inkscape:window-x="-8"
     inkscape:window-y="-8"
     inkscape:window-maximized="1"
     inkscape:current-layer="g1" />
  <g
     inkscape:groupmode="layer"
     inkscape:label="Image"
     id="g1">
    <path
       style="fill:#000000"
       d="m 240.17392,259.32904 c -2.22291,-0.55962 -4.20202,-1.67954 -7.63174,-4.3186 -4.26775,-3.28389 -8.1193,-6.45556 -8.36988,-6.89241 -0.11991,-0.20906 -2.33658,-2.58399 -4.92594,-5.27764 -2.58935,-2.69364 -5.44151,-5.82325 -6.33812,-6.95468 -1.67254,-2.11057 -1.75644,-2.17141 -7.19396,-5.21681 -1.43314,-0.80266 -4.21028,-2.50911 -6.17142,-3.79211 -4.1704,-2.72832 -6.75488,-3.98394 -9.76929,-4.74622 l -2.17958,-0.55117 -3.27175,0.58049 c -4.32863,0.76801 -8.21186,2.03943 -15.35841,5.02852 l -2.87616,1.20298 -0.5944,1.72615 c -0.64976,1.88692 -1.2666,2.8487 -2.34199,3.65159 -0.65009,0.48536 -0.76008,0.49223 -1.52752,0.0954 -1.21844,-0.63008 -2.16836,-1.89889 -2.64272,-3.52989 -0.51228,-1.76138 -0.75889,-2.08061 -2.50104,-3.23766 -1.6037,-1.0651 -3.5006,-2.52725 -4.66286,-3.59417 -1.02381,-0.93983 -8.02098,-5.12153 -9.87428,-5.90114 -2.22086,-0.93422 -3.5727,-1.00554 -6.60842,-0.34866 -4.28945,0.92818 -10.874,3.97284 -12.62082,5.8358 -0.49351,0.52632 -0.93571,1.36136 -1.05078,1.98427 -0.2179,1.17951 -1.03369,2.23101 -2.02901,2.61527 -0.9439,0.36441 -2.02184,-0.52988 -2.91663,-2.41969 -1.26651,-2.67492 -1.62504,-3.00976 -4.90132,-4.57755 -3.75133,-1.7951 -4.35039,-1.93373 -6.53955,-1.5134 -2.31344,0.44421 -4.93017,1.78693 -7.801117,4.00301 -2.508091,1.93599 -2.933248,2.57237 -3.26552,4.88788 -0.211525,1.47405 -0.718984,2.25262 -1.71695,2.63425 -1.048982,0.40113 -3.334919,-1.31699 -4.20582,-3.16112 -0.333178,-0.70551 -0.6603,-0.87163 -2.739802,-1.39139 -1.298798,-0.32462 -3.829084,-1.28007 -5.622857,-2.12322 -4.245085,-1.99536 -8.298096,-2.88698 -11.586968,-2.549 l -1.823011,0.18733 -1.836877,1.9521 c -1.454905,1.54617 -1.904112,2.23237 -2.160206,3.29989 -0.374743,1.5621 -1.684784,3.2083 -2.553157,3.2083 -0.719569,0 -1.585872,-0.55413 -3.051058,-1.95162 -1.029215,-0.98166 -1.279864,-1.07588 -3.977143,-1.49506 -2.706695,-0.42063 -4.400538,-0.9821 -9.735844,-3.22718 -2.418465,-1.01768 -5.384206,-1.52075 -11.388402,-1.93177 -5.866767,-0.40162 -6.142073,-0.47922 -8.750499,-2.46671 -1.162676,-0.88589 -1.665209,-1.52267 -2.301454,-2.91623 -0.711376,-1.55812 -0.843257,-2.24962 -1.046224,-5.48571 -0.127732,-2.03657 -0.160208,-6.10972 -0.07217,-9.05143 0.286563,-9.57504 0.306067,-14.89116 0.06617,-18.03514 -0.136263,-1.78579 -0.132082,-3.54692 0.0099,-4.17893 0.146473,-0.6519 0.13448,-4.24125 -0.02974,-8.90167 -0.182577,-5.18132 -0.183364,-8.07269 -0.0023,-8.59198 0.184336,-0.52879 0.165959,-2.32081 -0.05665,-5.52436 -0.196752,-2.83142 -0.237957,-5.36623 -0.102277,-6.29195 0.12497,-0.85264 0.219816,-2.5994 0.210771,-3.88169 -0.009,-1.28228 0.02345,-3.38057 0.07222,-4.66285 0.04877,-1.28229 -0.06233,-3.85132 -0.246872,-5.70897 -0.204092,-2.05441 -0.240229,-3.62821 -0.09225,-4.01743 0.246172,-0.64748 0.329293,-1.61795 0.302381,-3.53042 -0.01754,-1.24681 0.588623,-2.55089 1.585873,-3.41178 2.607559,-2.25101 6.214908,-2.86614 14.317259,-2.4414 3.616927,0.18961 6.820339,0.19121 9.868386,0.005 2.482174,-0.15169 4.774341,-0.18269 5.093707,-0.0689 0.319365,0.11381 1.043574,0.10251 1.609353,-0.0251 0.565779,-0.1276 1.662194,-0.12921 2.436479,-0.004 0.774284,0.12564 4.061503,0.11774 7.304932,-0.0175 3.243429,-0.13529 8.797714,-0.36823 12.342857,-0.51766 7.312372,-0.3082 15.229766,-1.08859 19.474286,-1.91951 1.584,-0.31009 4.484571,-0.74403 6.445716,-0.96431 1.96114,-0.22027 4.73828,-0.6568 6.17143,-0.97006 1.43314,-0.31327 5.28489,-1.11234 8.55944,-1.77573 3.27455,-0.66339 6.18612,-1.33053 6.47015,-1.48254 0.28403,-0.15201 1.76928,-0.58637 3.30054,-0.96524 1.53127,-0.37888 4.85284,-1.36281 7.38128,-2.18651 2.52844,-0.82371 5.70801,-1.82643 7.06573,-2.22826 1.35771,-0.40184 4.07314,-1.28842 6.03428,-1.97019 4.83376,-1.68039 5.2582,-1.8175 9.18858,-2.96832 1.88571,-0.55214 4.10742,-1.29476 4.93714,-1.65028 0.82971,-0.35551 2.08395,-0.77508 2.78718,-0.93239 0.70324,-0.15731 2.12267,-0.60443 3.15429,-0.99362 1.03162,-0.38918 2.4311,-0.865886 3.10996,-1.059351 2.25264,-0.64197 10.5258,-3.777783 12.75428,-4.834315 1.20686,-0.572175 3.12,-1.644916 4.25143,-2.383868 1.9304,-1.260767 12.70753,-6.931974 13.173,-6.931974 0.11743,0 1.73754,-0.86506 3.60025,-1.922355 1.86272,-1.057295 4.31247,-2.302248 5.44389,-2.766561 1.13143,-0.464314 3.35315,-1.435491 4.93715,-2.158173 1.584,-0.722682 3.37371,-1.46929 3.97714,-1.659128 2.29746,-0.722781 3.41972,-1.561091 7.68,-5.736825 4.73312,-4.639194 7.67248,-7.008733 10.57217,-8.522672 1.0113,-0.528 3.11941,-1.998386 4.6847,-3.267525 3.82264,-3.099393 4.03851,-3.21239 6.63414,-3.472516 3.79095,-0.379918 4.68479,-0.133616 4.9666,1.368578 0.11181,0.596033 0.37563,1.014512 0.70559,1.119235 1.05218,0.333952 1.83683,1.652564 2.03719,3.423561 0.25332,2.23906 0.33322,2.398611 1.37291,2.741741 0.48977,0.161641 1.24173,0.660494 1.671,1.108562 l 0.78051,0.81467 -0.5666,0.61899 c -0.98569,1.076847 -0.972,1.61046 0.0971,3.787337 0.55189,1.123695 1.28524,2.414858 1.62967,2.869251 l 0.62624,0.826169 -0.77347,1.642402 -0.77347,1.642402 0.48765,4.114286 c 0.86223,7.274471 0.99851,9.944401 0.64135,12.564255 -0.18114,1.328626 -0.44651,2.562911 -0.58973,2.742857 -0.14321,0.179945 -0.71834,1.219382 -1.27806,2.309859 -0.93359,1.818848 -0.99157,2.061808 -0.70168,2.940178 0.17877,0.5417 0.78598,1.32972 1.39827,1.81466 1.27362,1.00873 2.30917,2.70466 2.57511,4.2173 0.10449,0.5943 0.43343,1.39659 0.73099,1.78286 0.29757,0.38627 0.86469,1.19603 1.26028,1.79946 0.3956,0.60343 1.49075,2.22846 2.43368,3.61118 1.2538,1.83859 1.76678,2.86326 1.90933,3.81387 0.16291,1.08632 0.43017,1.52939 1.62712,2.69739 0.89167,0.87011 1.80057,2.15027 2.40827,3.39197 0.53684,1.09693 1.42253,2.66703 1.9682,3.48912 1.11848,1.68506 1.63244,2.98801 1.90509,4.82963 0.13306,0.89878 0.42748,1.49055 1.0235,2.05714 1.22847,1.16785 1.64396,2.1459 2.04117,4.80487 0.30241,2.02436 0.50557,2.57994 1.34606,3.68105 0.54445,0.71326 1.17775,1.66009 1.40734,2.10406 0.37663,0.72834 0.37407,0.87341 -0.0262,1.48429 -0.244,0.37238 -0.73929,0.78947 -1.10065,0.92686 -0.93931,0.35712 -1.58928,1.46557 -1.40078,2.38885 0.086,0.42099 0.28506,2.55849 0.44245,4.75 0.3031,4.22044 0.93408,6.60988 3.37638,12.78595 0.62848,1.5893 1.02605,3.1409 1.1496,4.48663 0.10388,1.13142 0.41374,2.57498 0.68858,3.20791 0.27483,0.63292 0.71133,2.102 0.96999,3.26462 1.20278,5.4063 -1.33982,10.80621 -6.56054,13.93305 -0.88473,0.52989 -2.27476,1.11252 -3.08896,1.29473 -1.97788,0.44263 -2.11693,0.66251 -1.55731,2.46248 0.30974,0.99624 0.45529,2.3831 0.44348,4.22578 -0.0153,2.39445 -0.14707,3.13938 -1.03705,5.8646 -0.94481,2.89312 -3.07234,6.99216 -4.9284,9.4954 -0.33557,0.45257 -1.32932,2.05714 -2.20833,3.56571 -1.87175,3.21232 -3.15213,5.1271 -5.6692,8.47816 -1.00961,1.34413 -2.24611,3.16937 -2.74778,4.05608 -2.22587,3.93423 -5.26616,8.63578 -6.92917,10.71535 -1.02208,1.2781 -1.93647,2.73414 -2.10585,3.35329 -0.38051,1.39091 -0.11525,3.37195 0.5492,4.1016 0.97986,1.07599 1.59923,2.93939 1.30749,3.93367 -0.42994,1.46532 -2.17941,3.23646 -3.53264,3.57641 -2.1265,0.5342 -4.64968,0.6047 -6.34724,0.17734 z"
       id="path1" />
  </g>
</svg>
