<?xml version="1.0" encoding="UTF-8" standalone="no"?>
<!-- Created with Inkscape (http://www.inkscape.org/) -->

<svg
   version="1.1"
   id="svg1"
   width="294.58286"
   height="294.58286"
   viewBox="0 0 294.58286 294.58286"
   sodipodi:docname="pony-tight-a-outline.svg"
   inkscape:version="1.4 (86a8ad7, 2024-10-11)"
   xmlns:inkscape="http://www.inkscape.org/namespaces/inkscape"
   xmlns:sodipodi="http://sodipodi.sourceforge.net/DTD/sodipodi-0.dtd"
   xmlns="http://www.w3.org/2000/svg"
   xmlns:svg="http://www.w3.org/2000/svg">
  <defs
     id="defs1" />
  <sodipodi:namedview
     id="namedview1"
     pagecolor="#ffffff"
     bordercolor="#000000"
     borderopacity="0.25"
     inkscape:showpageshadow="2"
     inkscape:pageopacity="0.0"
     inkscape:pagecheckerboard="0"
     inkscape:deskcolor="#d1d1d1"
     inkscape:zoom="2.766624"
     inkscape:cx="147.47215"
     inkscape:cy="147.29143"
     inkscape:window-width="1920"
     inkscape:window-height="1017"
     inkscape:window-x="-8"
     inkscape:window-y="-8"
     inkscape:window-maximized="1"
     inkscape:current-layer="g1" />
  <g
     inkscape:groupmode="layer"
     inkscape:label="Image"
     id="g1">
    <path
       style="fill:#000000"
       d="m 56.914285,160.54897 c -0.452571,-0.23912 -1.010999,-0.59839 -1.240952,-0.79836 -0.229952,-0.19997 -1.093952,-0.48007 -1.92,-0.62245 -0.826047,-0.14237 -2.208535,-0.51874 -3.072195,-0.83637 -1.668514,-0.61363 -2.952723,-0.73802 -3.380567,-0.32746 -0.514065,0.49331 -2.725014,0.72311 -4.563171,0.47429 -1.928922,-0.26111 -2.435077,-0.11933 -5.82036,1.63028 -1.160529,0.59979 -4.711735,0.79963 -6.059897,0.34101 -1.023963,-0.34834 -1.092278,-0.43697 -1.024197,-1.32872 0.202325,-2.65014 0.10505,-5.42209 -0.216414,-6.16691 -0.696627,-1.61405 -1.54187,-11.1565 -1.092827,-12.33757 0.149226,-0.39249 0.148033,-1.0047 -0.003,-1.53126 -0.298017,-1.03913 0.396734,-4.03158 1.062603,-4.57688 0.901005,-0.73786 4.241847,-0.0261 6.118399,1.30347 3.342564,2.3683 3.149945,2.28326 5.033726,2.22228 l 1.767349,-0.0572 0.932862,1.4583 c 0.867909,1.35676 1.068276,1.50191 2.877738,2.08469 1.069682,0.34451 2.017478,0.74386 2.106213,0.88743 0.221527,0.35844 4.028895,0.33004 4.979676,-0.0372 0.424677,-0.164 1.574427,-0.3272 2.554998,-0.36266 1.460083,-0.0528 1.995154,0.0563 2.955488,0.6026 1.215121,0.69124 1.264705,0.69159 4.047786,0.0288 1.215566,-0.28949 1.575874,-0.26177 3.017142,0.23213 2.332599,0.79934 7.143521,0.6204 9.543962,-0.35499 0.90761,-0.3688 1.820193,-0.67054 2.027961,-0.67054 0.812193,0 1.982912,-0.86835 2.953721,-2.19086 1.310876,-1.78577 1.796384,-2.03134 4.116797,-2.08227 1.056,-0.0232 2.436762,-0.13555 3.06836,-0.24972 1.112952,-0.20118 2.316043,0.0684 4.885926,1.09478 0.452571,0.18075 1.254857,0.49213 1.782857,0.69196 1.423145,0.5386 2.421083,1.30388 3.321914,2.54744 0.582252,0.80378 1.16238,1.2296 2.099533,1.5411 0.896428,0.29796 1.464348,0.70048 1.845328,1.30788 0.3027,0.4826 0.67983,0.93206 0.83806,0.99879 0.15823,0.0667 1.62087,-0.54411 3.25031,-1.35745 2.93079,-1.4629 2.98958,-1.47884 5.47231,-1.48371 2.32751,-0.005 7.26207,-0.58661 7.80193,-0.92027 0.12944,-0.08 0.4545,-0.67598 0.72235,-1.32442 0.77338,-1.87225 0.8315,-1.95349 2.08683,-2.91711 1.22385,-0.93946 1.50487,-0.97385 3.62488,-0.44362 0.67029,0.16765 0.79812,0.0853 1.1408,-0.73471 0.69016,-1.65157 1.48295,-2.43209 2.47029,-2.43209 0.54925,0 1.09025,0.21289 1.39404,0.54857 0.65203,0.72049 1.40293,0.68098 2.74285,-0.1443 1.4918,-0.91882 2.26808,-0.85874 3.56872,0.27618 1.248,1.08899 1.11845,1.05021 3.24458,0.97135 1.58992,-0.059 1.6117,-0.0492 2.91959,1.3077 l 1.31772,1.36711 1.15608,-0.51759 c 1.51645,-0.67894 2.19163,-0.65292 3.34361,0.12883 0.98697,0.66978 1.56008,0.77272 7.05754,1.26773 l 3.13356,0.28215 2.11495,-2.05815 c 1.16322,-1.13199 2.30996,-2.05815 2.54833,-2.05815 0.23836,0 0.85511,0.37028 1.37056,0.82285 0.51545,0.45257 1.02546,0.82286 1.13336,0.82286 0.1079,0 0.75164,-0.61781 1.43055,-1.37292 1.48786,-1.65486 2.25429,-1.91844 3.26551,-1.12301 0.94406,0.7426 1.08664,0.73168 3.16866,-0.24262 1.52154,-0.71201 1.87897,-0.78271 2.74636,-0.54321 0.54845,0.15143 1.06482,0.45161 1.14749,0.66706 0.3283,0.85554 1.92179,1.34942 4.87161,1.50989 2.64728,0.14402 3.0022,0.22849 3.92845,0.93497 0.93923,0.71639 1.1387,0.7616 2.57069,0.58269 2.67266,-0.33393 4.33288,-1.11529 5.27297,-2.48167 1.2573,-1.82741 2.57662,-2.718 4.08011,-2.75423 0.69324,-0.0167 1.46635,-0.0492 1.71803,-0.0722 0.25169,-0.023 1.11569,-0.60867 1.92,-1.30144 l 1.4624,-1.25957 1.64572,0.18661 c 0.90514,0.10263 2.41714,0.29916 3.36,0.43672 0.94285,0.13755 2.48571,0.3429 3.42857,0.45632 1.32283,0.15912 1.96482,0.40495 2.81143,1.07654 1.03547,0.8214 1.26849,0.88104 4.14567,1.06095 l 3.04853,0.19062 1.12784,-1.01893 c 1.63211,-1.47451 2.7834,-3.72065 3.21069,-6.26399 0.19801,-1.17858 0.51562,-2.33037 0.7058,-2.55953 0.19018,-0.22915 1.03203,-0.76604 1.87077,-1.19308 0.83874,-0.42704 2.0187,-1.29114 2.62212,-1.92022 1.19661,-1.24748 2.28498,-1.92143 3.10295,-1.92143 0.28847,0 0.99042,0.37028 1.55991,0.82285 1.41003,1.12056 2.92626,1.13372 4.25751,0.037 1.36372,-1.12351 3.01966,-1.95697 3.88814,-1.95697 0.83148,0 3.5798,-0.95912 4.54636,-1.5866 0.47363,-0.30748 1.09973,-0.36459 2.60571,-0.23769 3.20332,0.26993 4.36794,0.46682 5.14832,0.87037 0.70705,0.36563 4.37682,3.86378 4.37682,4.17213 0,0.0827 0.23129,0.65751 0.51398,1.27746 0.92199,2.02197 1.40876,3.84368 1.40737,5.26711 -7.4e-4,0.76838 0.24276,2.10658 0.54111,2.97377 0.29836,0.86718 0.62332,2.21336 0.72213,2.99151 0.11205,0.88241 0.53077,1.9903 1.11273,2.94416 1.36922,2.24419 1.44155,3.18366 0.40693,5.28527 l -0.85411,1.73494 -2.54221,0.97221 c -3.90275,1.49251 -8.40873,3.57712 -10.13001,4.68647 -2.7404,1.76617 -3.30342,1.76188 -8.59506,-0.0654 -3.18448,-1.09966 -5.09807,-1.30113 -6.72,-0.70753 -2.03447,0.74459 -3.26353,0.77807 -5.07429,0.13821 -4.31749,-1.52565 -4.09018,-1.49994 -6.26449,-0.70858 -1.37332,0.49983 -2.50681,0.71445 -3.76849,0.71352 -1.55759,-0.001 -1.97885,0.11423 -3.07976,0.84345 -0.70145,0.46462 -1.60455,1.23605 -2.00689,1.71428 -1.3835,1.64448 -2.25806,2.10381 -4.00563,2.10381 -1.17973,0 -1.97104,0.18723 -3.00442,0.71089 -1.49679,0.75848 -1.97705,0.75643 -4.0529,-0.0174 -0.98809,-0.36832 -1.4454,-0.39962 -2.38432,-0.1632 -2.22622,0.56057 -2.4565,0.46736 -5.00377,-2.02528 l -2.36861,-2.3178 -2.50691,0.16241 c -2.30592,0.1494 -2.53102,0.21531 -2.8075,0.82214 -0.16533,0.36285 -0.3006,0.81094 -0.3006,0.99575 0,0.67811 -1.67399,2.38102 -2.34058,2.38102 -0.75461,0 -1.03545,0.26743 -1.87224,1.78286 l -0.60583,1.09714 -2.13627,0.0386 c -1.95213,0.0353 -2.22787,0.11226 -3.19903,0.89271 -1.48938,1.1969 -2.01068,1.33721 -4.67516,1.25837 -2.74181,-0.0811 -3.91914,-0.56974 -5.60517,-2.32623 -1.34669,-1.40296 -2.29346,-1.92063 -3.51265,-1.92063 -0.63379,0 -1.32171,-0.29327 -2.13934,-0.91202 -1.7004,-1.28681 -5.52643,-1.86421 -11.9023,-1.79622 -4.19696,0.0447 -4.81961,0.11402 -6.23173,0.69326 -0.86288,0.35395 -1.79794,0.64355 -2.0779,0.64355 -0.27997,0 -0.80826,0.32058 -1.17398,0.71241 -0.87283,0.93511 -2.50272,1.75616 -3.48622,1.75616 -0.86077,0 -1.64738,0.70554 -2.36092,2.11759 -0.83388,1.65019 -2.11865,1.88221 -3.33793,0.6028 -1.45762,-1.52949 -3.83164,-2.06911 -5.33132,-1.21182 -0.97219,0.55576 -1.57677,0.502 -3.28222,-0.29185 -1.46326,-0.68111 -1.52413,-0.68675 -2.52774,-0.23419 -1.31425,0.59265 -2.48921,0.40565 -4.17712,-0.66479 -1.4248,-0.90358 -1.56118,-0.89278 -3.45292,0.27342 -2.03814,1.25646 -3.04135,1.62486 -5.48571,2.01446 -3.83125,0.61065 -6.36927,0.7607 -7.23501,0.42775 -0.71747,-0.27593 -0.92232,-0.20312 -2.251089,0.80011 -1.675169,1.26477 -2.290567,1.3504 -3.496271,0.48652 -0.822707,-0.58946 -1.138839,-0.77892 -2.857631,-1.71259 -0.452114,-0.2456 -1.481954,-0.41042 -2.570703,-0.41143 -2.083249,-0.002 -4.995449,-0.8616 -7.434205,-2.19453 l -1.570623,-0.85845 -1.720806,0.96112 c -1.42832,0.79775 -1.909194,0.93568 -2.82917,0.8115 -0.947656,-0.12791 -1.540757,0.0622 -4.090446,1.3108 l -2.982081,1.4604 -3.828118,0.0841 -3.828117,0.084 -1.40244,1.22682 c -1.172122,1.02535 -1.583393,1.22502 -2.504294,1.21584 -0.606019,-0.006 -1.472139,-0.20663 -1.924711,-0.44576 z m 2.873517,-1.1855 c 0.278314,-0.14895 0.743805,-0.67352 1.034424,-1.16572 0.447144,-0.75728 0.522146,-1.37995 0.487732,-4.04918 -0.02237,-1.73486 -0.140083,-3.432 -0.261589,-3.77143 -0.141667,-0.39574 -0.114509,-0.61714 0.0757,-0.61714 0.629388,0 0.969902,1.35168 1.086239,4.31186 l 0.120952,3.07758 4.016098,-0.0604 c 3.988837,-0.06 4.028635,-0.0669 5.86294,-1.00803 1.015762,-0.52117 1.84684,-1.04845 1.84684,-1.17173 0,-0.12329 -0.349912,-0.99587 -0.777584,-1.93908 -1.063746,-2.34604 -1.205628,-3.05394 -0.865363,-4.31759 0.420705,-1.56238 0.942193,-1.36708 1.309124,0.49028 0.171366,0.86742 0.398135,1.87567 0.503931,2.24055 0.154697,0.53353 0.107731,0.63093 -0.239899,0.49753 -0.349095,-0.13396 -0.309359,0.10779 0.206538,1.25659 0.393872,0.87708 0.779319,1.38043 1.005309,1.31281 0.201584,-0.0603 1.065816,-0.13505 1.920516,-0.16608 1.109749,-0.0403 1.906305,-0.2629 2.786372,-0.77866 l 1.232372,-0.72221 0.103028,-2.9517 c 0.05667,-1.62343 0.0841,-2.98696 0.06097,-3.03007 -0.02314,-0.0431 -0.52108,0.72617 -1.106543,1.7095 -1.070187,1.79745 -1.475909,2.17098 -1.475909,1.35879 0,-0.46563 1.861235,-3.67375 2.328942,-4.01428 0.872585,-0.63532 0.990341,-0.22698 0.945167,3.2775 l -0.04495,3.48742 0.691442,0.18492 c 0.380293,0.10171 1.042305,0.37303 1.471137,0.60295 3.002578,1.60979 4.628149,2.10771 7.499695,2.29719 2.374426,0.15668 3.890825,0.74148 5.393808,2.08014 0.911522,0.81186 1.580542,0.41435 2.250914,-1.33744 0.321117,-0.83914 0.585739,-1.85414 0.588049,-2.25558 0.005,-0.87144 0.426081,-1.6253 0.735171,-1.31622 0.26129,0.2613 0.27889,0.36544 0.32349,1.91436 0.0325,1.12894 0.0878,1.20675 1.06285,1.49631 1.11048,0.32977 5.30411,0.18515 6.92572,-0.23883 0.528,-0.13805 1.26857,-0.25351 1.64571,-0.25658 0.37714,-0.003 0.95228,-0.15804 1.27807,-0.34439 4.68277,-2.67844 5.38822,-2.84579 7.09982,-1.68427 1.38079,0.93703 2.14552,1.21092 2.5988,0.93078 0.287,-0.17738 0.29807,-0.31697 0.0489,-0.61717 -0.62338,-0.75112 -0.99067,-4.37904 -0.67274,-6.64481 0.30905,-2.2024 0.4176,-2.49134 0.83828,-2.23134 0.15828,0.0978 0.1539,0.7112 -0.0115,1.60461 -0.14723,0.79543 -0.20621,2.46544 -0.13107,3.71112 0.15774,2.61497 0.70168,3.77948 1.64961,3.53159 0.33422,-0.0874 1.25664,0.14979 2.16124,0.55576 0.86799,0.38953 1.76769,0.6355 1.99934,0.54661 0.88302,-0.33884 0.33116,-6.08813 -0.8118,-8.45737 -0.81187,-1.68292 -0.79765,-1.59575 -0.26042,-1.59575 0.98886,0 2.31625,4.7674 2.31625,8.31897 l 0,1.14784 1.23879,-0.0985 c 1.52893,-0.1216 3.25299,0.52533 4.4414,1.66657 1.35016,1.29658 1.72242,0.79099 1.73753,-2.35987 0.0138,-2.87873 0.64109,-5.18694 1.45079,-5.33847 0.45653,-0.0854 0.48521,0.0467 0.31169,1.43553 -0.10512,0.84129 -0.10978,1.96317 -0.0104,2.49307 0.16604,0.88507 0.2593,0.96345 1.14634,0.96345 1.14038,0 1.82349,-0.32438 3.12383,-1.48341 0.901,-0.80308 0.95565,-0.94814 0.8892,-2.36041 -0.15267,-3.24464 -0.61341,-6.04937 -1.17439,-7.14897 -0.38907,-0.76265 -0.49092,-1.23224 -0.30712,-1.41604 0.1838,-0.1838 0.50795,0.18472 0.97747,1.11127 0.75229,1.48458 1.4102,5.66966 1.21428,7.72416 -0.0867,0.90943 -0.0205,1.10483 0.37454,1.10483 0.9345,0 2.97833,-1.19921 3.13971,-1.84221 0.0865,-0.3445 0.34337,-0.62636 0.57089,-0.62636 0.27865,0 0.36686,0.17907 0.27023,0.54857 -0.0793,0.30337 -0.002,0.57186 0.17372,0.60067 0.17445,0.0286 2.60061,0.065 5.39147,0.0807 6.58946,0.0372 9.63085,0.50816 11.17386,1.73025 0.61094,0.48387 1.23234,0.87976 1.3809,0.87976 0.62312,0 0.95887,-1.68877 0.82,-4.1244 -0.10532,-1.84722 -0.0557,-2.45846 0.19954,-2.45846 0.61307,0 0.91711,4.00669 0.43231,5.6971 -0.24531,0.85534 -0.21373,0.91124 0.74006,1.30976 0.54797,0.22896 1.74759,1.1377 2.66583,2.01943 1.45617,1.39829 1.84354,1.62452 3.03136,1.77035 2.33565,0.28676 4.04011,0.0661 5.00614,-0.64814 0.95412,-0.70541 1.0455,-1.09312 0.57543,-2.44157 -0.44922,-1.28862 -0.0901,-1.35637 0.93064,-0.17556 0.72915,0.8435 1.15657,1.07953 2.26286,1.24959 0.76394,0.11743 1.57508,0.0981 1.84393,-0.0439 0.6516,-0.34417 0.62036,-1.76292 -0.0686,-3.11423 -0.65033,-1.27559 -0.6757,-1.50857 -0.16431,-1.50857 0.21134,0 0.61037,0.54669 0.88673,1.21486 0.30879,0.74658 0.61001,1.12883 0.78146,0.99167 0.15344,-0.12275 0.66733,-0.30615 1.14197,-0.40755 1.04851,-0.22399 1.56657,-0.78079 2.00951,-2.15972 0.41693,-1.29797 0.22593,-2.34997 -0.79037,-4.35326 -0.73515,-1.44909 -0.79691,-1.86886 -0.27496,-1.86886 0.276,0 1.8957,3.25988 1.89564,3.81524 -5e-5,0.40429 1.07835,0.50487 3.45316,0.32205 0.4318,-0.0332 0.93606,-1.27726 0.93179,-2.29877 -0.005,-1.29247 -1.51113,-5.39799 -2.25117,-6.13804 -0.62345,-0.62345 -0.69204,-0.63117 -2.72845,-0.30716 l -2.08892,0.33236 0.65611,0.86019 c 0.75279,0.98696 0.83584,1.49413 0.24467,1.49413 -0.22628,0 -0.41143,-0.11862 -0.41143,-0.2636 0,-0.14498 -0.25335,-0.49963 -0.563,-0.78812 -0.30965,-0.28848 -0.58367,-0.79888 -0.60893,-1.13423 -0.0253,-0.33534 -0.39852,-0.90641 -0.82947,-1.26903 -0.68417,-0.57568 -1.06116,-0.6593 -2.97247,-0.6593 -2.88297,0 -4.26253,-0.37917 -5.54784,-1.52479 -0.58237,-0.51908 -1.17218,-0.94379 -1.31068,-0.94379 -0.1385,0 -0.98535,0.37029 -1.88189,0.82286 -0.89654,0.45257 -1.89366,0.82286 -2.21581,0.82286 -0.44616,0 -0.54122,0.11438 -0.39893,0.48 0.30154,0.77478 0.30018,0.95371 -0.008,1.06856 -0.16027,0.0597 -0.56867,-0.44664 -0.90757,-1.12522 -0.3389,-0.67857 -0.70285,-1.28734 -0.80878,-1.35281 -0.28149,-0.17397 -0.89775,0.36418 -1.92812,1.68375 -0.75218,0.9633 -1.07174,1.16572 -1.84033,1.16572 -0.89803,0 -0.92479,0.0307 -0.77631,0.89143 0.0846,0.49028 0.26663,1.24927 0.40457,1.68664 0.13793,0.43737 0.25079,1.0501 0.25079,1.36163 0,1.15258 -0.81792,-0.2074 -1.13975,-1.89508 -0.57145,-2.99675 -0.79485,-3.69034 -1.18863,-3.69034 -0.21297,0 -0.48593,0.1759 -0.60657,0.39089 -0.12064,0.21498 -0.99052,1.18934 -1.93308,2.16525 l -1.71374,1.77437 -1.16626,-0.2647 c -0.64144,-0.14558 -1.58526,-0.21693 -2.09737,-0.15855 -0.51211,0.0584 -1.74639,-0.0518 -2.74285,-0.24476 -0.99647,-0.193 -2.37652,-0.35544 -3.0668,-0.36099 -0.98631,-0.008 -1.39724,-0.16144 -1.91915,-0.71698 -0.74285,-0.79074 -1.21051,-0.78392 -3.35268,0.0489 l -1.31544,0.51139 -1.29027,-1.45856 -1.29027,-1.45856 -1.98733,0.0919 -1.98734,0.0919 -0.001,0.87805 c -6.8e-4,0.48292 0.18391,1.58886 0.41019,2.45763 0.49259,1.89115 0.52168,2.64393 0.0967,2.50227 -0.3399,-0.1133 -2.15383,-6.23363 -2.15383,-7.2672 0,-0.81617 -0.52078,-0.80207 -2.13609,0.0578 -0.70846,0.37715 -1.45687,0.68572 -1.66313,0.68572 -0.29311,0 -0.35026,0.43433 -0.26164,1.98857 0.0916,1.60668 0.30807,2.37624 1.12712,4.00723 1.16305,2.31598 1.14011,2.23277 0.6156,2.23277 -0.22659,0 -0.90282,-1.01847 -1.5694,-2.36368 -1.03099,-2.08063 -1.17218,-2.58958 -1.179,-4.25001 -0.005,-1.27326 -0.11412,-1.88679 -0.33505,-1.88775 -0.18001,-7.8e-4 -0.50209,-0.25097 -0.71573,-0.55598 -0.35855,-0.51189 -0.41777,-0.51962 -0.76984,-0.10045 -0.20977,0.24975 -0.62827,0.96196 -0.92998,1.58268 -0.68724,1.41387 -1.59143,1.78241 -3.12847,1.27514 -1.48999,-0.49174 -2.17153,-0.0176 -3.35958,2.33723 -1.33824,2.65255 -2.34842,3.02553 -9.14624,3.37706 l -3.56571,0.1844 -2.87482,1.45038 c -1.58115,0.79771 -3.09315,1.39328 -3.36,1.3235 -0.36772,-0.0962 -0.48518,0.0378 -0.48518,0.55327 0,0.49346 -0.12845,0.65541 -0.46797,0.59002 -0.52885,-0.10184 -0.83588,-0.9735 -0.87612,-2.48724 -0.015,-0.56571 -0.11991,-1.03394 -0.23305,-1.04051 -0.11315,-0.007 -0.752703,-0.11753 -1.42124,-0.24657 -0.668537,-0.12904 -1.383977,-0.16998 -1.589867,-0.091 -0.624199,0.23953 -1.681639,2.65034 -1.974527,4.50164 -0.413192,2.61173 -1.202407,5.17355 -1.593801,5.17355 -0.440564,0 -0.422308,-0.41197 0.079,-1.78285 0.220665,-0.60343 0.476768,-1.83772 0.569118,-2.74286 0.384628,-3.76983 1.858949,-7.30173 2.576139,-6.17143 0.445519,0.70215 0.294703,-0.01 -0.168011,-0.79307 -0.629795,-1.06616 -1.867461,-1.82451 -4.322926,-2.64877 -1.185073,-0.3978 -2.527748,-0.88015 -2.983722,-1.07187 -0.682646,-0.28703 -1.052902,-0.27915 -2.09675,0.0446 -0.752187,0.23332 -1.801013,0.33448 -2.579155,0.24877 -1.710438,-0.1884 -1.914137,-0.0903 -3.221038,1.5511 -1.311301,1.64692 -2.622317,2.66921 -3.423079,2.66921 -0.319229,0 -1.37525,0.31445 -2.346711,0.69878 -1.527248,0.60421 -2.285991,0.7128 -5.606294,0.80235 -3.296824,0.0889 -3.914567,0.0386 -4.367149,-0.35593 -0.586442,-0.51117 -0.468034,-0.21406 0.434979,1.09143 0.578203,0.83591 0.621991,1.0548 0.211012,1.0548 -0.439528,0 -2.175366,-1.39081 -2.180185,-1.74684 -0.01246,-0.92065 -0.429716,-1.0302 -2.126817,-0.55836 -1.619069,0.45014 -1.715675,0.44703 -3.129809,-0.10071 -1.797786,-0.69634 -3.93505,-0.97431 -4.630337,-0.6022 -0.28662,0.15339 -1.54179,0.38518 -2.789268,0.51507 -2.160125,0.22493 -2.346514,0.19951 -3.913855,-0.53367 -0.905143,-0.42341 -2.191475,-0.92893 -2.858517,-1.12338 -0.988687,-0.2882 -1.363734,-0.59633 -2.02957,-1.66743 -0.79107,-1.27257 -0.858119,-1.31391 -2.13101,-1.31391 -0.722833,0 -1.369872,0.0926 -1.437864,0.20572 -0.21754,0.362 1.323591,5.11537 2.379123,7.33802 0.686919,1.44646 0.930007,2.23952 0.743592,2.42594 -0.398483,0.39848 -2.533064,-4.2814 -3.456944,-7.57904 l -0.751862,-2.68365 -2.085617,-1.46839 c -2.108114,-1.48422 -3.56875,-2.07428 -5.141596,-2.07707 -0.707494,-0.001 -0.894879,0.13069 -1.047137,0.73734 -0.534433,2.12935 0.330193,14.33173 1.210928,17.0897 0.193093,0.60466 0.239129,1.80897 0.124375,3.25361 -0.2158,2.71669 -0.1716,2.77045 2.282839,2.77648 1.418522,0.003 2.110063,-0.18095 4.065003,-1.08413 1.29563,-0.59859 2.752342,-1.16275 3.237137,-1.2537 0.676472,-0.1269 0.879282,-0.30436 0.87214,-0.76309 -0.01438,-0.92396 0.51652,-0.97224 0.674303,-0.0613 0.118999,0.687 0.307739,0.84566 1.23698,1.03984 0.629186,0.13147 1.330364,0.12197 1.645126,-0.0223 0.608677,-0.279 1.602622,-2.77256 1.358615,-3.40843 -0.08437,-0.21986 0.213904,-1.2017 0.662827,-2.18186 0.448923,-0.98016 0.953935,-2.29353 1.122248,-2.9186 0.168314,-0.62507 0.424696,-1.13649 0.569739,-1.13649 0.519897,0 0.24133,1.5445 -0.644447,3.57309 -0.772614,1.76943 -0.879948,2.27724 -0.750937,3.55275 l 0.150526,1.48824 1.645714,0.32936 c 0.905143,0.18115 2.201143,0.51819 2.88,0.74898 0.678858,0.23078 1.810373,0.54806 2.514478,0.70505 0.704106,0.157 1.739616,0.59722 2.301133,0.97828 1.077591,0.73127 2.020019,0.87043 2.857906,0.42201 z M 34.834285,158.3819 c 0,-0.23624 0.262077,-1.53224 0.582393,-2.88 0.384012,-1.61577 0.711016,-2.45047 0.96,-2.45047 0.476003,0 0.475989,1.9e-4 -0.170964,2.46857 -0.296544,1.13143 -0.541285,2.33486 -0.543871,2.67428 -0.0028,0.36363 -0.173712,0.61715 -0.416129,0.61715 -0.226286,0 -0.411429,-0.19329 -0.411429,-0.42953 z m 20.571429,-1.31983 c 0,-0.057 0.185143,-0.54676 0.411428,-1.08834 0.226286,-0.54157 0.411429,-1.79093 0.411429,-2.77635 0,-1.70035 0.292628,-2.3057 0.656369,-1.3578 0.553361,1.44203 -0.247053,5.32613 -1.097579,5.32613 -0.209906,0 -0.381647,-0.0466 -0.381647,-0.10364 z m 118.831716,-1.61064 c -0.31801,-0.33943 -0.97666,-1.60457 -1.46365,-2.81143 -0.78876,-1.95465 -0.90621,-2.60314 -1.07548,-5.93811 -0.14497,-2.85613 -0.34127,-4.17223 -0.82787,-5.55059 -0.35081,-0.99371 -0.5621,-1.88249 -0.46953,-1.97506 0.8005,-0.80049 1.91446,3.06577 1.98255,6.8809 0.0343,1.91909 0.22848,3.61182 0.53368,4.65114 0.52224,1.77845 1.62641,4.12171 2.07194,4.39707 0.334,0.20642 0.37566,0.96322 0.053,0.96322 -0.12456,0 -0.48667,-0.27771 -0.80467,-0.61714 z M 64.256264,153.97109 c -0.168657,-0.98462 -0.637309,-2.46605 -1.041449,-3.29208 -0.738487,-1.50942 -0.749713,-2.09646 -0.02865,-1.49803 0.660762,0.54838 1.600179,3.07955 1.748008,4.70983 0.197764,2.18098 -0.307821,2.24085 -0.677911,0.0803 z m 22.404768,-0.69459 c -0.340438,-1.2643 -0.04411,-4.1031 0.424682,-4.06844 0.160975,0.0119 0.23576,0.68857 0.181028,1.63799 -0.09562,1.65863 0.09797,2.75395 0.486721,2.75395 0.120644,0 0.572868,-0.52457 1.004942,-1.16572 0.563507,-0.83617 0.806174,-1.56232 0.858405,-2.56867 0.11426,-2.20147 1.210901,-4.76847 2.037129,-4.76847 0.365071,0 0.270953,0.59923 -0.170784,1.08734 -0.495299,0.5473 -1.34194,3.74532 -1.134586,4.28568 0.151613,0.3951 -0.912224,2.57441 -1.695205,3.4727 -0.230113,0.264 -0.70307,0.48 -1.051018,0.48 -0.510501,0 -0.692222,-0.22131 -0.941314,-1.14636 z m -19.80389,-2.29217 c -1.621714,-1.57936 -2.948571,-2.93293 -2.948571,-3.00795 0,-0.075 0.191824,-0.13638 0.426276,-0.13638 0.528627,0 5.882295,5.15525 5.882295,5.66429 0,0.2035 -0.09257,0.36585 -0.205714,0.36079 -0.113143,-0.005 -1.532571,-1.3014 -3.154286,-2.88075 z m 28.941085,2.27281 c 0.07216,-0.18857 0.354766,-1.05257 0.628008,-1.92 0.467034,-1.48264 0.746913,-1.85293 1.036568,-1.37143 0.06806,0.11315 -0.114273,0.97715 -0.40519,1.92 -0.355063,1.15076 -0.670563,1.71429 -0.959765,1.71429 -0.236954,0 -0.371783,-0.15429 -0.299621,-0.34286 z m -56.849656,-1.27403 c 0,-0.135 -0.66713,-1.1753 -1.482512,-2.31177 -1.360886,-1.8968 -1.553224,-2.37991 -0.947489,-2.37991 0.121785,0 0.841785,0.88335 1.6,1.96301 1.30288,1.85524 1.718323,2.97413 1.104287,2.97413 -0.150857,0 -0.274286,-0.11046 -0.274286,-0.24546 z m 77.323929,-1.0574 c -0.63974,-1.92705 -0.41918,-7.2 0.30116,-7.2 0.16389,0 0.20429,0.92172 0.10521,2.4 -0.14474,2.15941 -0.0303,3.16712 0.59163,5.21143 0.3394,1.11553 -0.62275,0.71888 -0.998,-0.41143 z m 65.57533,-0.89847 c -0.31526,-0.61796 -0.98413,-1.76595 -1.48637,-2.55109 -1.44448,-2.25808 -2.37081,-5.61708 -1.61837,-5.8684 0.19772,-0.066 0.44579,0.50227 0.64844,1.48551 0.36541,1.77289 0.62896,2.35625 2.35923,5.22207 1.25302,2.07535 1.36798,2.40427 0.93404,2.67245 -0.14507,0.0897 -0.52171,-0.34258 -0.83697,-0.96054 z m -98.298485,0.12175 c -0.285371,-0.74366 -0.190055,-6.42328 0.107797,-6.42328 0.336388,0 0.308933,-0.2478 0.402662,3.63429 0.07179,2.97334 -0.09339,3.87585 -0.510459,2.78899 z m 35.548545,-2.76686 c 0.0533,-1.59925 0.19152,-2.41505 0.42211,-2.49142 0.25746,-0.0853 0.34286,0.50701 0.34286,2.37786 0,2.05976 -0.0731,2.49143 -0.42211,2.49143 -0.35359,0 -0.40924,-0.386 -0.34286,-2.37787 z m -43.623566,-0.076 c 0.05921,-1.0479 0.188357,-1.98598 0.28699,-2.08461 0.441351,-0.44135 0.620465,0.2411 0.536178,2.0429 -0.07136,1.52554 -0.181966,1.94699 -0.510952,1.94699 -0.347009,0 -0.401191,-0.33064 -0.312216,-1.90528 z m 49.230096,1.14967 c -0.32851,-0.53153 -0.67103,-3.50237 -0.43257,-3.75182 0.37032,-0.38739 0.47139,-0.15921 0.781,1.76332 0.25713,1.59659 0.0699,2.66531 -0.34843,1.9885 z m 27.79844,-0.3558 c 0,-0.15871 0.36039,-0.41419 0.80086,-0.56774 0.44048,-0.15355 0.86861,-0.4557 0.95139,-0.67145 0.0828,-0.21574 0.27783,-0.39226 0.43342,-0.39226 0.53637,0 0.2811,0.78446 -0.43981,1.35152 -0.76773,0.6039 -1.74586,0.76073 -1.74586,0.27993 z m 29.50453,-1.87528 c -0.79114,-1.2801 -1.34965,-8.70888 -0.63596,-8.45897 0.23201,0.0812 0.31693,0.60697 0.26266,1.62618 -0.0441,0.82836 0.1719,2.66112 0.48,4.07281 0.30811,1.41168 0.56019,2.66505 0.56019,2.78525 0,0.29596 -0.47959,0.27778 -0.66689,-0.0253 z m 1.84104,-0.92188 c -0.31452,-0.40777 -1.17415,-2.57057 -1.17415,-2.95413 0,-0.1478 0.15429,-0.26692 0.34286,-0.26471 0.28174,0.003 1.57714,2.78549 1.57714,3.38727 0,0.29756 -0.46792,0.19189 -0.74585,-0.16843 z m 1.53117,-1.37143 c -1.1071,-1.94209 -1.38019,-2.99929 -1.14659,-4.43881 0.25054,-1.54387 0.75934,-1.00283 0.77627,0.82547 0.0127,1.3736 0.17261,1.8863 1.03431,3.31663 1.12955,1.87493 1.17463,2.01099 0.66626,2.01099 -0.19416,0 -0.79277,-0.77143 -1.33025,-1.71428 z m -39.73389,0.60833 c 0,-0.45742 -0.18514,-1.27478 -0.41143,-1.81635 -0.22628,-0.54158 -0.41142,-1.15476 -0.41142,-1.36262 0,-0.78856 0.50288,-0.3271 1.06336,0.97577 0.69321,1.61141 0.77338,3.03487 0.17092,3.03487 -0.27525,0 -0.41143,-0.27527 -0.41143,-0.83167 z m 3.69203,-1.22672 c 0.0571,-2.14513 0.37054,-2.75166 0.72915,-1.41077 0.28602,1.06948 -0.0228,3.46916 -0.44646,3.46916 -0.24195,0 -0.32195,-0.58248 -0.28269,-2.05839 z m -62.335558,0.99438 c -0.44817,-0.27699 -0.798216,-3.87314 -0.377007,-3.87314 0.167476,0 0.386541,0.61845 0.486811,1.37432 l 0.182309,1.37431 0.945422,-1.51145 c 0.909212,-1.45357 1.453013,-1.89168 1.450537,-1.1686 -6.46e-4,0.18857 -0.370403,0.89828 -0.821683,1.57714 -0.45128,0.67886 -0.821037,1.37346 -0.821683,1.54356 -0.0018,0.48108 -0.667623,0.91691 -1.044706,0.68386 z m 73.606548,-0.73833 c -0.10107,-0.53871 -0.25144,-1.15585 -0.33416,-1.37143 -0.0902,-0.23515 0.0185,-0.39195 0.27189,-0.39195 0.42902,0 0.55187,0.26084 0.872,1.85143 0.13734,0.6824 0.085,0.89143 -0.22328,0.89143 -0.24459,0 -0.47485,-0.38457 -0.58645,-0.97948 z m -126.126152,0.51773 c -0.609106,-1.0307 -0.149505,-5.26939 0.598312,-5.51796 0.311667,-0.10359 0.341394,0.0983 0.158262,1.07465 -0.124017,0.66121 -0.237672,1.90431 -0.252565,2.76245 -0.02599,1.49729 -0.223408,2.15568 -0.504009,1.68086 z m 175.113042,7.45872 c 1.05969,-0.49332 1.93631,-0.68378 3.15598,-0.68572 l 1.68875,-0.003 1.14641,-1.36927 c 0.63054,-0.7531 1.87631,-1.81979 2.7684,-2.37042 0.89458,-0.55216 1.62149,-1.19892 1.62088,-1.44215 -0.003,-1.16722 -0.89871,-5.8096 -1.3609,-7.05278 -0.78416,-2.10919 -2.24458,-4.77109 -2.6176,-4.77109 -0.18155,0 -0.87803,-0.41839 -1.54774,-0.92975 -1.27159,-0.97094 -1.90045,-1.11651 -6.19837,-1.43487 -1.799,-0.13325 -1.98795,-0.0995 -1.98203,0.35438 0.0141,1.08443 0.52789,2.66624 0.94105,2.89745 0.49145,0.27503 0.3187,0.7585 -0.27102,0.7585 -0.61157,0 -1.23493,-1.50876 -1.30144,-3.14991 -0.0366,-0.9027 -0.19854,-1.55548 -0.40609,-1.63672 -0.54488,-0.21326 -1.61782,0.30251 -2.59568,1.24778 -1.24485,1.20337 -2.4429,1.66356 -3.77591,1.4504 -1.01687,-0.1626 -1.16951,-0.0971 -2.12648,0.9118 -0.56704,0.59784 -1.25327,1.41643 -1.52495,1.81909 -0.27169,0.40266 -0.98274,0.98145 -1.58012,1.28621 l -1.08613,0.5541 0.54414,0.7472 c 1.01755,1.39727 1.98989,4.47151 2.02989,6.4179 0.0364,1.77227 0.062,1.83559 0.80286,1.9839 0.46157,0.0924 1.652,1.02579 2.99991,2.35216 1.22908,1.20942 2.46549,2.19895 2.7476,2.19895 0.2821,0 1.03417,-0.13126 1.67126,-0.29168 0.96068,-0.2419 1.41436,-0.20132 2.6586,0.23779 1.98803,0.7016 1.91502,0.70323 3.59873,-0.0806 z m -1.13848,-1.89427 c 0,-2.21559 -1.08902,-7.40864 -2.0648,-9.84609 -0.70871,-1.77033 -0.76163,-2.3673 -0.17788,-2.00652 0.5367,0.3317 1.74885,3.92613 2.39666,7.10685 0.78398,3.84938 0.88897,6.5002 0.25745,6.5002 -0.32283,0 -0.41143,-0.37779 -0.41143,-1.75444 z m -6.03428,-0.65024 c -0.57846,-1.32649 -0.67993,-1.9586 -0.64868,-4.04103 0.0374,-2.49203 0.38577,-3.97714 0.93298,-3.97714 0.20374,0 0.22756,0.41174 0.0754,1.30285 -0.42294,2.47633 -0.26912,5.03548 0.39462,6.56514 0.71736,1.65324 0.73012,1.73355 0.27429,1.72733 -0.18857,-0.003 -0.65143,-0.71229 -1.02857,-1.57715 z m 3.29142,-0.8332 c 0,-0.59913 -0.30857,-2.15414 -0.68571,-3.45558 -0.80374,-2.77353 -0.78687,-2.63225 -0.31424,-2.63225 0.8925,0 2.17964,6.76471 1.34281,7.05727 -0.23685,0.0828 -0.34286,-0.21692 -0.34286,-0.96944 z m 8.77715,-0.30678 c 0,-2.40849 -0.77787,-6.71363 -1.49676,-8.28389 -0.37835,-0.82643 -0.81985,-2.48366 -0.98111,-3.68274 -0.16126,-1.19907 -0.35689,-2.39614 -0.43472,-2.66014 -0.0904,-0.3067 0.007,-0.48 0.26991,-0.48 0.49358,0 0.62384,0.40805 0.87462,2.73982 0.10528,0.97889 0.54948,2.67404 0.98712,3.76699 0.80976,2.02228 1.71776,7.23285 1.55213,8.90695 -0.1496,1.51211 -0.77119,1.26467 -0.77119,-0.30699 z M 199.0547,143.5439 c -0.0762,-0.12629 -0.40472,-1.12698 -0.72994,-2.22376 -0.36312,-1.22459 -0.91782,-2.36603 -1.4374,-2.95779 -0.85724,-0.97635 -0.86049,-1.57853 -0.006,-1.04691 0.80871,0.50292 1.62802,1.95691 2.24233,3.9794 0.37744,1.24265 0.49814,2.04981 0.33145,2.21651 -0.14419,0.14419 -0.32455,0.15884 -0.40081,0.0326 z m 0.80112,-6.36067 c -0.53447,-0.55787 -0.76572,-1.10546 -0.8056,-1.90766 -0.0584,-1.17413 0.43215,-1.63868 0.57396,-0.54358 0.22666,1.75024 1.05986,2.62926 2.31868,2.44619 0.28216,-0.041 0.48,0.10687 0.48,0.35886 0,0.77537 -1.71117,0.53952 -2.56704,-0.35381 z m 50.39255,10.60325 c 0.62397,-0.33115 1.70284,-0.94966 2.3975,-1.37446 0.69466,-0.42479 2.05237,-1.09283 3.01714,-1.48452 0.96477,-0.39169 2.61813,-1.11435 3.67413,-1.60591 1.056,-0.49156 2.58763,-1.1263 3.40362,-1.41053 1.26592,-0.44095 1.55682,-0.67776 1.98254,-1.61392 0.27442,-0.60343 0.50165,-1.38098 0.50496,-1.7279 0.008,-0.87972 -0.72904,-2.27318 -1.58252,-2.99032 -0.66118,-0.55555 -0.72359,-0.7917 -0.77905,-2.94806 -0.0379,-1.4726 -0.22082,-2.66592 -0.49206,-3.20964 -0.23748,-0.47602 -0.43177,-1.40148 -0.43177,-2.05656 0,-2.39589 -1.48984,-5.87344 -3.54778,-8.28114 -1.39626,-1.63356 -2.37936,-2.24959 -3.83551,-2.40338 -4.42655,-0.46753 -4.46173,-0.46526 -6.37754,0.41124 -1.00616,0.46032 -2.48731,0.94145 -3.29143,1.06917 -1.05129,0.16697 -1.98704,0.59282 -3.3308,1.51583 -1.6387,1.12559 -2.04484,1.28362 -3.29897,1.28362 -0.82819,0 -1.67777,-0.17341 -2.01835,-0.41196 -0.55784,-0.39073 -0.60213,-0.36599 -0.8593,0.48 -0.14913,0.49058 -0.33895,2.16021 -0.42183,3.71029 -0.1225,2.29131 -0.0536,3.13759 0.3683,4.52571 0.28543,0.93906 0.71527,2.86543 0.95519,4.28082 0.23992,1.41539 0.51955,2.70828 0.62141,2.87309 0.285,0.46115 1.13632,-2.68657 1.49159,-5.51509 0.22706,-1.80782 0.42649,-2.53715 0.69377,-2.53715 0.52153,0 0.21528,2.94678 -0.64139,6.17143 -1.19491,4.49787 -1.29579,5.30778 -0.93072,7.47216 0.40058,2.37489 0.40037,2.36407 0.0479,2.48158 -0.4153,0.13843 -0.86733,-1.85094 -0.90264,-3.9725 -0.0171,-1.02682 -0.24933,-2.79267 -0.51606,-3.9241 -0.26674,-1.13142 -0.62196,-2.87986 -0.78938,-3.88541 -0.16742,-1.00554 -0.48775,-2.34792 -0.71184,-2.98305 -0.56575,-1.60352 -0.56308,-7.58806 0.004,-8.94527 0.53661,-1.28429 0.51991,-1.46627 -0.13454,-1.46627 -0.30028,0 -1.07171,0.56755 -1.71429,1.26121 -1.23892,1.33742 -2.96655,2.57879 -3.58893,2.57879 -0.72202,0 -1.26504,0.99277 -1.43156,2.61726 -0.24186,2.35938 -1.78665,5.31633 -3.68483,7.05331 l -1.50272,1.3751 -2.6716,-0.17508 c -3.02099,-0.19797 -2.88169,-0.39103 -1.55716,2.15799 1.24011,2.38655 2.06212,5.63633 2.20277,8.70857 l 0.0597,1.30285 h 1.60808 c 1.85375,0 3.08391,-0.52868 3.32509,-1.42901 0.38229,-1.42712 0.16028,-4.03407 -0.52138,-6.12227 -0.43976,-1.34718 -0.60103,-2.23169 -0.43684,-2.39589 0.34171,-0.34171 0.61894,0.23898 1.39909,2.93058 0.49133,1.69511 0.59601,2.57192 0.47682,3.99363 l -0.15272,1.82167 1.28253,0.0237 c 0.7054,0.013 2.11568,0.3395 3.13397,0.7255 l 1.85142,0.70182 v -0.96792 c 0,-0.53236 -0.31308,-1.90059 -0.69575,-3.04053 -0.38266,-1.13993 -0.63773,-2.13063 -0.56682,-2.20154 0.52326,-0.52326 1.6827,2.3229 1.96586,4.82571 0.22229,1.96481 0.23366,1.96893 3.03854,1.10259 2.46575,-0.76159 3.9068,-0.59918 8.46389,0.95387 1.96114,0.66836 3.73405,1.22806 3.9398,1.2438 0.20574,0.0157 0.8846,-0.24234 1.50857,-0.57349 z m -5.39253,-1.76493 c -0.16852,-0.16851 0.006,-2.32087 0.25073,-3.09599 0.0888,-0.28095 0.20587,-0.30569 0.42232,-0.0892 0.1934,0.1934 0.23181,0.84115 0.10842,1.82872 -0.1793,1.43501 -0.37071,1.76728 -0.78147,1.35651 z m 10.05295,-2.08591 c -0.10697,-0.17308 -0.0345,-0.36804 0.16112,-0.43323 0.19558,-0.0652 1.23176,-0.96733 2.30262,-2.00476 1.07085,-1.03742 2.04354,-1.88622 2.16153,-1.88622 0.56602,0 0.0548,0.76418 -1.63692,2.44692 -1.95402,1.94365 -2.66953,2.39314 -2.98835,1.87729 z m -7.04864,-2.60993 c -0.40012,-0.65062 -0.77142,-3.84913 -0.63464,-5.46702 0.46478,-5.49768 0.50713,-6.46013 0.33484,-7.6091 -0.1091,-0.7275 -0.48269,-1.60309 -0.89109,-2.08844 -0.73846,-0.87761 -0.66276,-1.40401 0.13247,-0.92112 1.46624,0.89036 2.03787,4.69635 1.32236,8.80448 -0.39502,2.26802 -0.39812,2.74178 -0.0305,4.66286 0.22505,1.17609 0.4092,2.29263 0.40923,2.4812 5e-5,0.37388 -0.4394,0.46766 -0.64266,0.13714 z m 3.46884,-2.88 c 0.37196,-2.31393 1.90095,-6.51428 2.3713,-6.51428 0.3978,0 0.36063,0.63624 -0.0996,1.70498 -0.5873,1.36374 -1.5321,4.54449 -1.5321,5.15792 0,0.31604 -0.18442,0.54281 -0.44144,0.54281 -0.34457,0 -0.40999,-0.19561 -0.29814,-0.89143 z m -9.83424,-1.09714 c 0.10554,-0.49029 0.42176,-2.24914 0.7027,-3.90857 0.28095,-1.65943 0.71385,-3.88114 0.96201,-4.93714 0.30524,-1.29888 0.39243,-2.40803 0.26951,-3.42858 -0.17532,-1.45572 -0.16419,-1.49151 0.31763,-1.02153 0.6358,0.62017 0.64048,2.93175 0.011,5.42775 -0.24486,0.97087 -0.64626,3.05179 -0.89201,4.62428 -0.49893,3.19258 -0.78327,4.13522 -1.24736,4.13522 -0.2123,0 -0.25265,-0.29133 -0.12347,-0.89143 z M 228.947,133.94135 c -0.74654,-1.20793 -1.37421,-6.94707 -0.75977,-6.94707 0.36045,0 0.63523,0.99883 0.44214,1.6072 -0.089,0.28052 0.0801,1.54566 0.3758,2.81142 0.29573,1.26576 0.4359,2.40471 0.3115,2.531 -0.1244,0.12629 -0.29075,0.12514 -0.36967,-0.003 z m 2.22826,-1.39278 c -0.0262,-0.11314 -0.057,-1.53251 -0.0686,-3.15416 -0.0156,-2.18701 0.0676,-2.94847 0.32188,-2.94857 0.25442,-9e-5 0.34286,0.81352 0.34286,3.15416 0,1.92 -0.10733,3.15428 -0.27429,3.15428 -0.15086,0 -0.2957,-0.0926 -0.32188,-0.20571 z m 22.9163,-6.77366 c -1.21315,-0.55169 -1.4722,-0.81363 -1.89214,-1.91323 -0.41118,-1.07664 -0.43605,-1.4426 -0.16055,-2.36214 0.44134,-1.47307 0.97891,-1.43984 0.74134,0.0458 -0.31141,1.94749 0.17908,2.83326 2.04623,3.69526 1.61682,0.74644 2.07474,1.2197 1.1507,1.18928 -0.264,-0.009 -1.11251,-0.30344 -1.88558,-0.655 z"
       id="path1" />
  </g>
</svg>
