<?xml version="1.0" encoding="UTF-8" standalone="no"?>
<!-- Created with Inkscape (http://www.inkscape.org/) -->

<svg
   version="1.1"
   id="svg1"
   width="294.58286"
   height="294.58286"
   viewBox="0 0 294.58286 294.58286"
   sodipodi:docname="pony-large-v-outline.svg"
   inkscape:version="1.4 (86a8ad7, 2024-10-11)"
   xmlns:inkscape="http://www.inkscape.org/namespaces/inkscape"
   xmlns:sodipodi="http://sodipodi.sourceforge.net/DTD/sodipodi-0.dtd"
   xmlns="http://www.w3.org/2000/svg"
   xmlns:svg="http://www.w3.org/2000/svg">
  <defs
     id="defs1" />
  <sodipodi:namedview
     id="namedview1"
     pagecolor="#ffffff"
     bordercolor="#000000"
     borderopacity="0.25"
     inkscape:showpageshadow="2"
     inkscape:pageopacity="0.0"
     inkscape:pagecheckerboard="0"
     inkscape:deskcolor="#d1d1d1"
     inkscape:zoom="2.766624"
     inkscape:cx="147.47215"
     inkscape:cy="147.29143"
     inkscape:window-width="1920"
     inkscape:window-height="1017"
     inkscape:window-x="-8"
     inkscape:window-y="-8"
     inkscape:window-maximized="1"
     inkscape:current-layer="g1" />
  <g
     inkscape:groupmode="layer"
     inkscape:label="Image"
     id="g1">
    <path
       style="fill:#000000"
       d="m 244.8,213.51436 c -0.45257,-0.23382 -1.37829,-0.96794 -2.05714,-1.63138 -2.49649,-2.4398 -4.18157,-2.61407 -7.56862,-0.78272 -3.60206,1.9476 -4.8204,1.74165 -7.62645,-1.28922 l -1.56912,-1.69483 -1.42362,0.14256 c -0.78299,0.0784 -2.08767,0.0225 -2.89929,-0.12431 -1.45862,-0.2638 -1.49923,-0.25249 -3.51402,0.97864 -1.12109,0.68503 -2.45541,1.32376 -2.96515,1.41939 -1.09004,0.20449 -3.31676,-0.46053 -4.92266,-1.47019 -2.66848,-1.67771 -3.67502,-1.97156 -6.73393,-1.96592 -2.08115,0.004 -3.41257,0.16105 -4.8,0.5668 -1.056,0.30882 -2.60353,0.62674 -3.43895,0.70648 -1.88411,0.17985 -3.38263,-0.46001 -6.00195,-2.56281 -1.33302,-1.07016 -2.12259,-1.49683 -3.02044,-1.63223 -1.99926,-0.30147 -6.70417,0.10449 -8.59119,0.74129 -2.1471,0.72457 -3.58658,0.59131 -5.33783,-0.49415 -5.9772,-3.70479 -6.67117,-4.03869 -8.62329,-4.14899 -2.08856,-0.11801 -4.41348,0.60498 -5.3533,1.66475 -1.05691,1.1918 -2.63787,2.13105 -3.58704,2.13105 -1.34964,0 -2.52386,-0.63888 -4.65172,-2.53094 -2.81766,-2.50543 -3.17978,-2.67828 -5.61357,-2.67946 -2.41886,-0.001 -5.13722,0.92572 -7.62527,2.60006 -0.78839,0.53054 -1.71223,0.96463 -2.05297,0.96463 -0.78539,0 -3.61384,-1.48182 -4.60682,-2.41351 -0.66999,-0.62863 -1.03442,-0.72244 -3.21069,-0.82649 -3.50068,-0.16737 -4.66963,0.07 -6.22899,1.26498 -1.12224,0.85998 -1.53403,1.01465 -2.69598,1.01265 -1.38087,-0.002 -2.43307,-0.42104 -5.85989,-2.33161 -1.28289,-0.71525 -1.74564,-0.82031 -3.61324,-0.82031 -1.82483,0 -2.25671,0.0931 -2.91725,0.6289 -1.21256,0.98355 -2.03886,1.43993 -3.49848,1.93229 -2.355337,0.79449 -4.023401,0.53262 -7.700146,-1.20884 -1.705597,-0.80784 -2.179445,-0.90911 -4.250995,-0.90848 -2.170804,6.6e-4 -2.473155,0.074 -4.388571,1.06466 -2.981797,1.5422 -3.814727,1.47561 -6.410279,-0.51242 -2.003678,-1.53469 -2.065959,-1.5598 -4.2957,-1.73175 l -2.262545,-0.17447 -3.047166,1.5677 c -2.605918,1.3407 -3.328913,1.59056 -4.992842,1.72553 -1.569939,0.12734 -2.275482,0.0437 -3.653516,-0.43321 -0.939313,-0.32507 -1.990151,-0.77601 -2.335197,-1.00209 -1.126486,-0.73811 -3.980723,-0.90235 -6.235754,-0.35883 -2.23484,0.53866 -5.299401,0.6528 -6.390349,0.23803 -1.702781,-0.6474 -4.379278,-0.86771 -6.593795,-0.54275 -3.260306,0.47841 -5.811951,0.96571 -7.880301,1.50492 -2.626966,0.68484 -2.700956,0.59124 -2.694075,-3.40815 0.003,-1.74957 -0.02179,-4.53875 -0.05511,-6.19818 -0.08001,-3.98448 0.280525,-16.01705 0.503156,-16.79265 0.163565,-0.56983 0.285426,-0.59895 1.859254,-0.44426 0.92632,0.091 2.363074,0.38431 3.192789,0.6517 0.829714,0.26739 2.310857,0.6281 3.291428,0.80157 0.980572,0.17347 2.338286,0.4883 3.017143,0.69962 0.873954,0.27206 2.515464,0.37073 5.622857,0.338 l 4.388572,-0.0462 2.316016,1.18591 c 1.989235,1.01858 2.495669,1.16864 3.589277,1.06356 1.288858,-0.12384 3.658866,-1.37138 5.820559,-3.06385 0.766218,-0.5999 1.396113,-0.83254 2.468571,-0.91173 1.526101,-0.11269 1.622144,-0.075 4.852396,1.9052 3.020801,1.85178 5.968809,1.68936 9.067466,-0.49956 0.678857,-0.47955 1.954949,-1.09679 2.835759,-1.37165 l 1.601473,-0.49973 1.41567,0.75117 c 0.778618,0.41315 1.951663,1.22828 2.606767,1.81141 1.250148,1.11279 2.067367,1.39294 4.063427,1.39294 1.460902,0 2.546365,-0.4319 5.12648,-2.0398 3.973359,-2.47615 5.029699,-2.54803 7.396129,-0.50326 1.97071,1.70284 3.50786,2.3375 5.10304,2.10695 0.69134,-0.0999 1.3804,-0.2725 1.53125,-0.38353 0.15086,-0.11103 0.64458,-0.28878 1.09715,-0.395 0.45257,-0.10623 1.59444,-0.69327 2.53748,-1.30455 2.08275,-1.35002 3.39333,-1.84146 4.95322,-1.85735 1.04896,-0.0107 1.34479,0.14179 2.62589,1.35341 2.08853,1.97524 3.51984,2.53996 5.83617,2.30265 1.58982,-0.16289 1.96242,-0.31011 2.68382,-1.06042 1.82365,-1.89675 3.15871,-2.69882 4.70578,-2.82712 1.36745,-0.1134 1.52881,-0.0611 2.27387,0.73646 0.44109,0.47218 1.20982,1.67015 1.7083,2.66215 1.25239,2.4923 2.02806,2.99226 4.64239,2.99226 1.81037,0 2.30023,-0.11686 3.90857,-0.93246 1.01134,-0.51286 1.83879,-1.00997 1.83879,-1.1047 0,-0.0947 0.74384,-0.82699 1.65298,-1.62724 1.17131,-1.03103 2.08838,-1.57887 3.14721,-1.88008 2.16354,-0.61548 2.81681,-0.26549 4.58548,2.45667 l 1.42352,2.19095 1.38398,-0.18703 c 3.88549,-0.52511 3.65767,-0.53578 4.80767,0.22525 1.38751,0.91821 1.91004,0.90597 4.98875,-0.11688 3.18431,-1.05794 4.07926,-0.95342 5.77864,0.67487 2.55088,2.44418 4.61824,3.97195 6.15748,4.55037 1.45783,0.54782 1.82971,0.5776 4.34466,0.34789 2.44533,-0.22334 2.91685,-0.35697 4.25143,-1.20489 2.16939,-1.3783 4.71427,-2.26516 5.93264,-2.06744 1.58511,0.25723 2.99755,1.36618 3.70546,2.90928 0.82739,1.80354 2.46714,2.75973 4.73259,2.75973 1.71794,0 2.13318,-0.2039 4.67846,-2.29735 1.95593,-1.60873 3.01726,-2.09174 4.59167,-2.08969 2.1237,0.003 3.10858,0.44692 4.11803,1.85712 0.51009,0.7126 1.00195,1.4928 1.09301,1.73378 0.12103,0.32028 0.68321,0.48155 2.08967,0.59946 1.05825,0.0887 2.29751,0.35441 2.75391,0.59042 1.37727,0.71222 1.88499,0.54019 3.54978,-1.2028 3.22449,-3.37595 6.03629,-3.61037 8.82237,-0.73552 l 1.19626,1.23437 1.53004,-0.83557 c 0.84151,-0.45956 2.33231,-1.6082 3.31288,-2.55253 2.66059,-2.56226 4.67547,-4.09278 6.70033,-5.08961 1.70474,-0.83924 1.9792,-0.89108 4.4835,-0.84682 1.46718,0.0259 3.37067,0.0584 4.22997,0.0722 0.89978,0.0144 2.41197,-0.23336 3.56571,-0.58421 1.53123,-0.46563 2.32655,-0.56411 3.37478,-0.41785 0.75429,0.10524 1.63607,0.18266 1.95953,0.17205 0.32346,-0.0106 0.74319,0.16756 0.93273,0.39595 0.41949,0.50544 0.37006,3.94709 -0.072,5.01287 -0.59775,1.44119 -0.80319,4.99329 -0.85136,14.72092 l -0.0489,9.87429 -1.02551,2.13419 c -1.07578,2.23881 -3.05382,4.61517 -4.43694,5.33041 -0.93612,0.48409 -4.12115,0.33304 -6.74326,-0.31979 -0.82972,-0.20657 -2.55923,-0.45702 -3.84337,-0.55654 -2.22183,-0.17219 -2.42089,-0.14021 -4.11429,0.66089 -2.03804,0.96415 -2.29889,0.99566 -3.4252,0.41377 z m 3.3182,-1.77987 c 1.50878,-0.79367 1.70524,-0.8281 3.79928,-0.6658 1.21453,0.0941 3.40454,0.40904 4.86669,0.6998 1.46215,0.29076 3.30647,0.52865 4.09847,0.52865 1.39479,0 1.48693,-0.0492 2.93335,-1.56662 0.82838,-0.86904 1.87356,-2.36518 2.34724,-3.36 l 0.85391,-1.79338 0.0159,-9.46286 c 0.0165,-9.80255 0.20143,-13.17154 0.81306,-14.81142 0.19693,-0.528 0.42293,-1.59405 0.50223,-2.369 l 0.14417,-1.409 -1.28626,-0.36343 c -1.44621,-0.40861 -2.09161,-0.37415 -3.71423,0.19834 -1.97423,0.69655 -4.55315,0.94215 -6.25218,0.59542 -2.20588,-0.45017 -4.87264,0.0653 -7.07367,1.36741 -0.92733,0.54859 -2.82266,2.06266 -4.21183,3.36461 -1.38918,1.30194 -3.05035,2.6972 -3.69149,3.10056 -0.64115,0.40337 -1.16572,0.93269 -1.16572,1.17628 0,0.36679 -0.23811,0.42001 -1.38585,0.30972 -1.03944,-0.0999 -1.35286,-0.0472 -1.25385,0.21084 0.70159,1.82833 0.80193,2.63071 0.38155,3.05109 -0.514,0.514 -1.03328,0.27411 -1.03328,-0.47734 0,-0.91173 -1.2728,-3.7278 -2.21454,-4.89967 -1.42886,-1.77803 -2.89829,-1.40493 -5.47632,1.39048 -1.84006,1.9952 -2.9981,2.32023 -4.86795,1.3663 -0.70437,-0.35934 -1.68302,-0.58563 -2.58455,-0.59761 -1.95936,-0.026 -2.26046,-0.18464 -3.21854,-1.69537 -0.45431,-0.71637 -0.94981,-1.30249 -1.10112,-1.30249 -0.31586,0 -0.51913,0.75964 -0.62387,2.33143 -0.0593,0.88991 -0.17672,1.09714 -0.62168,1.09714 -0.4677,0 -0.56072,-0.21034 -0.63102,-1.42679 -0.0525,-0.90841 0.0746,-1.73054 0.3499,-2.26285 l 0.43235,-0.83607 h -1.39209 c -1.64117,0 -2.52716,0.41238 -3.83342,1.78428 -1.51758,1.59382 -3.76663,2.60429 -5.79652,2.60429 -1.46311,0 -1.93827,-0.14062 -3.4364,-1.01699 -0.95618,-0.55935 -1.74334,-1.14563 -1.74925,-1.30286 -0.006,-0.15723 -0.19129,0.0844 -0.41196,0.53699 -0.22068,0.45257 -0.82818,1.50171 -1.35002,2.33143 -0.52183,0.82971 -0.95359,1.72457 -0.95946,1.98857 -0.0133,0.59864 -0.83354,0.6425 -0.83354,0.0446 0,-0.23949 0.432,-1.20792 0.96,-2.15208 0.82666,-1.4782 0.96,-1.96797 0.96,-3.52615 0,-1.55897 -0.0844,-1.86864 -0.6096,-2.2365 -0.33528,-0.23484 -0.92157,-0.42692 -1.30286,-0.42684 -1.02025,2e-4 -3.53609,1.02356 -4.65505,1.89352 -1.14576,0.8908 -2.66682,1.31095 -5.50106,1.51951 -3.69254,0.27173 -5.78985,-0.62297 -9.52636,-4.06387 -1.24179,-1.14354 -2.59185,-2.16301 -3.00015,-2.26548 -0.51087,-0.12823 -1.51739,0.0848 -3.22792,0.68307 -3.04461,1.06493 -3.7339,1.07081 -5.58981,0.0477 -1.10253,-0.6078 -1.60899,-0.74685 -2.07499,-0.56968 -0.33905,0.12891 -1.31811,0.32204 -2.17568,0.42919 -1.2163,0.15197 -1.70738,0.0977 -2.23289,-0.24659 -0.66326,-0.43458 -0.67574,-0.42766 -0.80832,0.4484 -0.074,0.4894 -0.19975,1.6921 -0.27931,2.67267 -0.19354,2.38526 -0.59571,3.69119 -1.40595,4.56545 -0.59385,0.64078 -0.6729,0.97549 -0.6729,2.84897 0,1.66447 0.17739,2.61831 0.8215,4.41709 0.45182,1.26181 0.82211,2.74163 0.82286,3.28849 7.4e-4,0.54686 0.076,1.36749 0.16722,1.82363 l 0.16587,0.82934 1.48766,-0.65791 c 1.75723,-0.77713 4.33398,-0.88188 6.12746,-0.24911 0.63728,0.22484 2.04137,0.94385 3.1202,1.59779 6.06107,3.67397 5.89584,3.62364 8.58903,2.61599 1.32673,-0.49639 2.20031,-0.59328 5.56457,-0.61714 4.46049,-0.0316 4.56478,0.003 7.83077,2.58724 1.19344,0.94439 3.83628,2.14758 4.10647,1.86954 0.0516,-0.0531 0.16815,-1.13437 0.25903,-2.40286 0.16406,-2.29002 0.54725,-3.31348 1.05171,-2.80901 0.1591,0.15909 0.14268,0.46907 -0.0432,0.81645 -0.16483,0.30799 -0.2997,1.36939 -0.2997,2.35865 v 1.79867 l 1.02858,-0.38294 c 2.0151,-0.75024 4.42806,-1.05725 7.30427,-0.92933 2.83105,0.12591 2.88277,0.14059 5.28595,1.50001 2.62811,1.48666 3.91982,2.01099 4.95418,2.01099 0.36439,0 1.70117,-0.63469 2.97061,-1.41042 l 2.30807,-1.41042 1.51032,0.30332 c 0.83068,0.16682 2.28348,0.23388 3.22846,0.14903 1.89772,-0.17041 1.56658,-0.35581 4.13485,2.31497 0.72577,0.75473 1.70539,1.53205 2.17693,1.72737 0.80995,0.33549 1.00995,0.27583 3.61757,-1.07927 1.92023,-0.99788 3.07233,-1.43182 3.78584,-1.42592 1.70739,0.0141 3.66638,0.94656 5.44157,2.59007 0.91053,0.84298 1.88279,1.5327 2.16059,1.5327 0.27779,0 1.22105,-0.37663 2.09613,-0.83694 z m -4.83405,-5.91694 c -1.69605,-2.89035 -4.8328,-5.31061 -6.47329,-4.99469 -0.62578,0.12052 -0.86361,0.99847 -0.89781,3.31428 -0.015,1.01829 -0.13357,1.85143 -0.26342,1.85143 -0.36024,0 -0.55884,-2.43844 -0.32203,-3.95408 0.4074,-2.60747 2.09416,-2.74048 5.22545,-0.41203 1.53372,1.14048 2.23786,1.91855 3.30376,3.65057 1.44419,2.34672 1.55426,2.63554 1.00448,2.63554 -0.19257,0 -0.90229,-0.94096 -1.57714,-2.09102 z m -26.5869,0.85673 c -0.003,-0.15085 -0.0526,-2.09485 -0.10957,-4.32 -0.0782,-3.0536 -0.0217,-4.04571 0.2304,-4.04571 0.22525,0 0.39211,0.81783 0.51227,2.51071 0.26827,3.77931 0.21888,5.01069 -0.22449,5.59687 -0.22148,0.29283 -0.40536,0.40899 -0.40861,0.25813 z m 36.05703,-1.51796 c -3.43259,-0.25219 -6.72,-2.19486 -6.72,-3.97115 0,-0.90866 0.49031,-1.18218 3.41912,-1.90741 1.45961,-0.36143 2.93442,-0.84099 3.27736,-1.0657 1.56423,-1.02492 3.80844,-3.8421 4.1524,-5.21254 0.27586,-1.09914 0.67112,-1.15625 0.67112,-0.097 0,1.07801 -1.009,2.71579 -2.78833,4.52593 -1.48455,1.51026 -2.66418,2.12189 -4.86057,2.52018 -3.22292,0.58442 -3.82152,1.30791 -2.14205,2.5889 1.45823,1.11225 2.92724,1.62382 5.19336,1.80854 1.16733,0.0952 2.20824,0.25884 2.31315,0.36375 0.43915,0.43915 -0.45503,0.59786 -2.51556,0.44648 z m -31.13142,-2.96076 c 0,-0.83556 0.85603,-4.55647 1.12198,-4.87692 0.17234,-0.20766 0.8027,-0.50933 1.4008,-0.67038 0.75736,-0.20394 1.22641,-0.54381 1.5452,-1.11965 0.75844,-1.37001 1.08783,-1.75565 1.30989,-1.53359 0.11622,0.11621 -0.058,0.76562 -0.38717,1.44313 -0.43851,0.9026 -0.87386,1.34974 -1.62887,1.67298 -0.56672,0.24263 -1.21457,0.53157 -1.43966,0.6421 -0.2473,0.12143 -0.57291,1.04992 -0.82285,2.34638 -0.22749,1.17999 -0.5679,2.19573 -0.75647,2.2572 -0.18857,0.0615 -0.34285,-0.0111 -0.34285,-0.16125 z m 8.85009,-0.52699 c 1.00645,-5.61434 0.93032,-7.07867 -0.42311,-8.13789 -0.47707,-0.37336 -0.77159,-0.77464 -0.6545,-0.89174 0.33965,-0.33965 1.65601,0.54379 2.05879,1.3817 0.49615,1.03214 0.43403,5.16671 -0.10489,6.98144 -0.44073,1.48412 -1.11476,1.99677 -0.87629,0.66649 z m -39.73244,-0.72106 c -0.0964,-0.25119 -0.11725,-1.65743 -0.0463,-3.12497 0.142,-2.93916 1.11185,-6.37111 1.80044,-6.37111 0.21527,0 0.32285,0.16701 0.24248,0.37644 -0.8447,2.20126 -1.37598,4.74703 -1.4255,6.83065 -0.0572,2.40779 -0.24172,3.14729 -0.57108,2.28899 z m 18.96152,-0.63722 c -0.2326,-0.92674 0.12645,-8.03601 0.40585,-8.03601 0.41808,0 0.50636,1.26243 0.34771,4.97205 -0.15839,3.7035 -0.37352,4.57818 -0.75356,3.06396 z m -6.8384,-1.33844 c -0.29447,-0.76737 -0.17587,-2.11667 0.39557,-4.5005 0.6097,-2.54345 1.23826,-3.79789 1.6811,-3.35505 0.17994,0.17994 0.12483,0.55687 -0.16269,1.11287 -0.62544,1.20947 -1.24884,4.0623 -1.25356,5.73654 -0.004,1.39972 -0.32291,1.88567 -0.66042,1.00614 z m -31.29986,-1.58562 c -0.63296,-1.51488 -0.95981,-4.27733 -0.79957,-6.75766 0.19147,-2.96384 0.33016,-3.63512 0.70337,-3.40447 0.20346,0.12575 0.23989,1.23227 0.11552,3.50836 -0.14299,2.61666 -0.089,3.6718 0.25361,4.95468 0.23941,0.8965 0.55302,1.77186 0.69691,1.94524 0.26838,0.32337 0.09,0.67619 -0.34189,0.67619 -0.13341,0 -0.41599,-0.41505 -0.62795,-0.92234 z m 6.44337,-0.38052 c -0.008,-2.32451 -1.05693,-5.77964 -1.83179,-6.03177 -0.35435,-0.1153 -0.88804,1.58393 -0.81409,2.59197 0.0245,0.33325 -0.079,0.64182 -0.22983,0.68572 -0.40059,0.11654 -0.49985,-2.19885 -0.13231,-3.08617 0.3156,-0.76192 1.10833,-1.16735 1.77914,-0.90993 0.39874,0.15301 1.35637,2.24774 1.61255,3.52733 0.0906,0.45257 0.2244,1.656 0.29732,2.67428 0.10806,1.50897 0.0577,1.85143 -0.27206,1.85143 -0.29927,0 -0.40576,-0.33927 -0.40893,-1.30286 z m 5.37373,0.43512 c -0.47983,-1.14839 -0.6845,-4.14877 -0.29631,-4.34369 0.15643,-0.0786 0.36063,0.56601 0.47792,1.50857 0.11264,0.90515 0.33078,2.00821 0.48476,2.45126 0.43209,1.24328 -0.16385,1.58656 -0.66637,0.38386 z m 62.55605,-2.30198 c -1.03614,-1.00628 -2.09692,-2.79676 -2.09692,-3.53935 0,-0.6703 0.42966,-0.49144 0.79739,0.33193 0.58767,1.31586 1.63321,2.67072 2.41933,3.13509 0.94858,0.56034 2.16644,0.36212 2.69065,-0.43793 0.46473,-0.70927 1.22394,-4.49778 1.22401,-6.10788 5e-5,-1.30796 0.39955,-2.555 0.81851,-2.555 0.33211,0 0.17396,1.98493 -0.44749,5.61663 -0.64305,3.75787 -1.21149,4.53194 -3.32801,4.53194 -0.85849,0 -1.27396,-0.19507 -2.07747,-0.97543 z m -28.53283,-2.26315 c -0.0783,-0.12671 0.0983,-1.00372 0.39247,-1.94891 0.29418,-0.94519 0.53879,-2.17038 0.54359,-2.72266 0.008,-0.95723 0.0283,-0.97851 0.42673,-0.45556 0.4603,0.60407 0.37467,1.57382 -0.33272,3.7682 -0.42506,1.31856 -0.77208,1.77637 -1.03007,1.35893 z m -51.626,-1.80879 c -0.0977,-0.25467 0.0328,-1.32909 0.29008,-2.3876 0.31345,-1.28966 0.44145,-2.75599 0.38798,-4.4448 -0.0475,-1.50187 0.0262,-2.49819 0.18251,-2.4657 0.76616,0.15925 0.80093,4.56337 0.0617,7.81261 -0.39738,1.74657 -0.65983,2.16932 -0.92224,1.48549 z m -4.25647,-2.7012 c -0.48131,-1.7101 -0.41463,-4.53998 0.13722,-5.82408 0.62737,-1.45983 1.06439,-0.80502 0.51448,0.77089 -0.38687,1.10866 -0.36014,2.49773 0.0999,5.19034 0.24647,1.44266 -0.33689,1.33621 -0.75157,-0.13715 z m 95.38521,-0.12174 c -0.62146,-0.62146 0.63785,-5.56165 1.76216,-6.91283 l 0.54704,-0.65742 0.66022,0.62024 c 0.36312,0.34114 1.09249,1.43926 1.62083,2.44029 1.44513,2.73804 1.65889,2.97859 2.22753,2.50667 0.25832,-0.21439 0.57719,-0.67259 0.7086,-1.01822 0.28753,-0.75626 0.80107,-0.83116 0.80107,-0.11683 0,0.68038 -0.9453,1.8533 -1.64009,2.03499 -0.79995,0.20919 -1.46509,-0.48675 -2.6325,-2.75439 -1.34269,-2.60812 -1.60408,-2.81259 -2.17762,-1.70349 -0.67269,1.30085 -1.22347,3.2907 -1.22682,4.43226 -0.003,0.98285 -0.29294,1.48621 -0.65042,1.12873 z m -81.85504,-2.58596 c 0.16116,-1.81111 0.9311,-3.75055 1.33041,-3.35124 0.18805,0.18806 0.17148,0.53704 -0.0512,1.07714 -0.18114,0.43942 -0.40173,1.40632 -0.49019,2.14867 -0.094,0.7892 -0.31855,1.4018 -0.54059,1.47515 -0.30221,0.0998 -0.35293,-0.17575 -0.24847,-1.34972 z m -19.12786,16.6671 c 0.40406,-0.29545 0.56723,-0.97954 0.79274,-3.32355 0.26794,-2.78513 0.24805,-3.05162 -0.35278,-4.72695 -0.35021,-0.97648 -0.70024,-2.56648 -0.77785,-3.53333 -0.13731,-1.71066 0.3425,-4.93093 0.77448,-5.19791 0.3102,-0.19172 0.5766,-3.10042 0.62547,-6.82931 0.0406,-3.09628 0.0134,-3.26777 -0.57895,-3.65578 -1.10967,-0.72687 -2.68091,-0.0311 -5.33084,2.36069 -2.77478,2.50444 -4.24364,3.14054 -7.33157,3.175 -1.79022,0.02 -2.25102,-0.0797 -3.34678,-0.72384 -0.6989,-0.41086 -1.34701,-0.90458 -1.44024,-1.09715 -1.09538,-2.26245 -2.37287,-4.25142 -2.9323,-4.56542 -0.60631,-0.34032 -0.81033,-0.33242 -1.64512,0.0637 -0.52413,0.24872 -1.62894,1.07839 -2.45515,1.84372 -1.86207,1.72487 -2.30451,1.90215 -4.90393,1.96495 -1.69219,0.0409 -2.30312,-0.065 -3.24968,-0.56322 -0.64115,-0.33747 -1.16572,-0.56491 -1.16572,-0.50541 0,0.0595 0.31339,0.66888 0.69642,1.3542 0.52022,0.93077 0.61106,1.29878 0.35905,1.45453 -0.18556,0.11468 -0.37619,0.0941 -0.42363,-0.0458 -0.0474,-0.13986 -0.3903,-0.748 -0.76191,-1.35142 l -0.67566,-1.09715 -0.0518,1.50857 c -0.0677,1.97339 -0.0949,1.70874 0.4566,4.44346 0.42923,2.12837 0.44236,2.67688 0.12142,5.07429 -0.19791,1.47838 -0.33354,3.89113 -0.3014,5.36165 0.0321,1.47052 -0.0556,3.08658 -0.19492,3.59124 l -0.25335,0.91756 1.13172,-0.2193 c 1.47539,-0.28588 4.92824,-0.28071 6.43041,0.01 0.65142,0.12591 1.51542,0.53617 1.92,0.9117 0.40458,0.37552 1.32385,1.02059 2.04284,1.43347 1.47988,0.84984 2.17604,0.79929 3.4212,-0.24845 0.71266,-0.59966 1.58772,-1.01155 4.73441,-2.22848 1.3915,-0.53814 5.29593,-0.50607 6.39077,0.0525 0.48279,0.24631 1.7418,1.21061 2.7978,2.14287 1.056,0.93227 2.22518,1.90331 2.59818,2.15788 0.81726,0.55777 2.18257,0.60082 2.88004,0.0908 z m -21.1125,-11.21713 c 0,-7.39111 0.0699,-8.86343 0.50753,-10.69655 0.50526,-2.11621 1.00696,-2.80806 0.9945,-1.37143 -0.004,0.41486 -0.12888,1.248 -0.2784,1.85143 -0.64783,2.61447 -0.78418,5.28808 -0.49156,9.63872 0.31992,4.75646 0.12118,9.15025 -0.41384,9.14926 -0.23465,-4.3e-4 -0.31823,-2.25162 -0.31823,-8.57143 z m 4.52412,4.11488 c -8.7e-4,-1.39543 -0.12643,-3.27772 -0.27902,-4.18286 -0.33135,-1.96555 -0.0513,-8.15634 0.36276,-8.01833 0.16622,0.0554 0.29344,1.57234 0.3171,3.78114 0.0217,2.02874 0.14457,5.32405 0.27298,7.3229 0.21132,3.28961 0.19051,3.63429 -0.21938,3.63429 -0.38819,0 -0.45307,-0.36228 -0.45444,-2.53714 z m 12.69196,-3.80944 c 0.0879,-3.50455 0.24433,-5.14224 0.59233,-6.20199 0.26007,-0.792 0.587,-1.44 0.72651,-1.44 0.389,0 0.30215,1.17 -0.18579,2.50266 -0.32352,0.88362 -0.45013,2.31558 -0.48,5.42878 -0.0312,3.25366 -0.12494,4.2567 -0.40654,4.35056 -0.29876,0.0996 -0.34404,-0.75275 -0.24651,-4.64001 z m -27.57632,2.59905 c -0.075,-0.12629 0.15376,-1.37324 0.50846,-2.771 0.86543,-3.41042 0.89906,-5.52428 0.12489,-7.85065 -0.33837,-1.0168 -0.54902,-1.91491 -0.46813,-1.99581 0.32759,-0.32758 0.71976,0.27926 1.29226,1.99964 0.51662,1.55243 0.57625,2.15029 0.41693,4.17987 -0.27174,3.46182 -1.38033,7.26941 -1.87441,6.43795 z m 4.57019,-3.8174 c -0.46385,-1.8481 0.89572,-8.61793 1.73071,-8.61793 0.46329,0 0.46155,0.0141 -0.33499,2.72877 -0.46762,1.59368 -0.67996,2.98556 -0.67996,4.45714 0,2.11368 -0.3626,2.83913 -0.71576,1.43202 z m 14.26898,-0.52417 c -0.21142,-0.84238 -0.0437,-4.96328 0.21243,-5.21941 0.4781,-0.4781 0.65973,0.25662 0.46444,1.87873 -0.11668,0.96921 -0.12016,2.10616 -0.008,2.52655 l 0.20442,0.76435 0.57716,-0.73374 c 0.50217,-0.63841 0.78339,-1.52699 1.337,-4.22452 0.19341,-0.9424 0.66478,-0.73459 0.66478,0.29307 0,3.18306 -2.85753,7.08551 -3.4525,4.71497 z m -42.50822,10.29017 c 0.62668,-0.23826 0.70357,-0.41844 0.70357,-1.6487 0,-0.78786 0.22946,-1.8807 0.53414,-2.54393 1.3483,-2.93501 1.87475,-7.76022 1.14708,-10.51361 -0.15582,-0.58959 -0.36964,-3.08784 -0.47517,-5.55168 -0.18866,-4.40481 -0.20294,-4.48391 -0.85396,-4.73143 -1.01146,-0.38455 -1.16832,-0.33972 -3.371719,0.96378 -4.08421,2.41614 -4.641231,2.65481 -6.574207,2.81687 -1.321412,0.11078 -2.225866,0.0314 -3.122604,-0.27419 -0.694311,-0.23657 -1.313535,-0.3458 -1.376054,-0.24273 -0.06252,0.10307 -0.30921,0.98969 -0.548201,1.97026 -0.345816,1.41887 -0.424188,3.18283 -0.383875,8.64 0.04721,6.39004 0.0115,6.95464 -0.524152,8.28843 l -0.574807,1.43129 0.998909,-0.43316 c 2.566498,-1.11291 5.328524,-1.13723 7.675882,-0.0676 0.702522,0.32013 1.771027,0.74707 2.374456,0.94877 0.603429,0.20169 1.590857,0.55218 2.194286,0.77887 1.335333,0.50164 1.306682,0.49942 2.176426,0.16874 z m -6.131629,-7.02757 c -0.3377,-1.34113 -0.18027,-4.10974 0.306525,-5.39064 0.486863,-1.28109 0.785608,-0.84628 0.565359,0.82285 -0.268324,2.03347 -0.254112,4.12024 0.03456,5.07429 0.177744,0.58743 0.137845,0.75428 -0.180373,0.75428 -0.25664,0 -0.526671,-0.46889 -0.726071,-1.26078 z m 1.900739,-9.3516 c 0.0039,-0.71305 1.289925,-3.37619 1.630417,-3.37619 0.467102,0 0.331317,0.75345 -0.393595,2.184 -0.751165,1.48235 -1.240938,1.95445 -1.236822,1.19219 z m 22.59749,16.02953 c 0.59438,-0.92708 1.5285,-4.24665 1.7995,-6.39489 1.04168,-8.25742 1.06124,-7.20189 -0.25387,-13.69654 -0.30547,-1.50857 -0.55581,-3.26743 -0.55632,-3.90857 l -9.1e-4,-1.16572 h -1.08423 c -1.29309,0 -2.11611,0.33142 -4.1272,1.66196 -3.08783,2.04292 -6.57482,2.72643 -8.91688,1.74785 -0.57786,-0.24144 -1.1335,-0.32628 -1.26643,-0.19335 -0.44207,0.44207 -1.12971,5.33963 -0.93244,6.64112 0.70547,4.65439 0.53226,7.38169 -0.67171,10.57671 -0.70795,1.87869 -1.04764,4.52571 -0.58078,4.52571 0.16482,0 0.29967,-0.11751 0.29967,-0.26114 0,-0.51639 2.51985,-3.85314 2.90982,-3.85314 0.536,0 0.7597,0.66419 0.43158,1.28142 -0.2499,0.47011 -0.0927,0.50183 2.51602,0.50782 2.52862,0.006 2.89523,0.0739 4.01687,0.74642 2.34951,1.4087 4.52892,2.40105 5.27367,2.40126 0.47574,1.4e-4 0.89198,-0.2244 1.14364,-0.61692 z m -8.85881,-7.12878 c -0.66693,-1.75418 -0.89563,-4.13535 -0.56532,-5.88594 0.31525,-1.67075 0.61902,-2.26315 0.91497,-1.7843 0.0772,0.1249 7.3e-4,1.0421 -0.1699,2.03823 -0.25552,1.49174 -0.23299,2.16596 0.12774,3.82311 0.43481,1.99741 0.22761,3.21631 -0.30749,1.8089 z m 6.16892,-1.26576 c -0.26681,-0.43171 -0.0404,-9.6429 0.23477,-9.55227 0.54234,0.17862 0.69557,1.82677 0.52192,5.61376 -0.16481,3.59425 -0.35563,4.58744 -0.75669,3.93851 z m -32.220075,6.20025 1.47551,-2.26286 -0.06803,-6.99428 c -0.06715,-6.90365 -0.14014,-7.61245 -1.20664,-11.71785 -0.182878,-0.70397 -0.498174,-1.22049 -0.804333,-1.31766 -0.732597,-0.23252 -2.905304,0.58147 -4.349095,1.62936 -1.896895,1.37674 -3.750368,1.88977 -5.982845,1.656 -1.957847,-0.20502 -3.092586,-0.67357 -5.49622,-2.2695 -1.741637,-1.15638 -2.977734,-1.2724 -4.102518,-0.38507 -1.496045,1.18022 -4.71197,3.0474 -5.740638,3.33304 -1.737148,0.48237 -2.531211,0.34776 -5.138799,-0.87118 l -2.493736,-1.16571 -4.388571,-0.0117 c -3.663459,-0.01 -4.747047,-0.11173 -6.558161,-0.61714 -1.193275,-0.333 -2.439095,-0.60545 -2.768489,-0.60545 -0.329395,0 -1.316402,-0.24686 -2.19335,-0.54857 -1.817637,-0.62536 -3.699062,-0.72968 -3.710042,-0.20571 -0.004,0.18857 -0.09652,2.81142 -0.205714,5.82857 -0.171216,4.73099 -0.1361,17.98191 0.04814,18.16654 0.03495,0.035 0.919464,-0.18191 1.965581,-0.48208 2.360503,-0.67731 8.878377,-1.61515 10.553311,-1.51849 0.685061,0.0395 1.857633,0.26524 2.605715,0.50158 2.433163,0.76867 3.290502,0.80027 5.765334,0.2125 3.848278,-0.91396 6.055786,-0.72836 9.171957,0.77116 1.249053,0.60105 1.886054,0.72505 3.702858,0.72081 2.142225,-0.005 2.265869,-0.043 5.211428,-1.60244 l 3.017143,-1.59732 2.468571,0.17708 c 2.614823,0.18758 3.803898,0.67129 5.702328,2.31969 0.79227,0.68792 1.38603,1.03585 1.87359,1.09788 0.09361,0.0119 0.834184,-0.99663 1.645715,-2.2412 z m -32.535918,-6.99419 c 0,-3.13034 -0.111629,-6.29445 -0.248064,-7.03135 -0.204365,-1.10381 -0.180205,-1.31763 0.137143,-1.21379 0.581729,0.19036 1.011732,3.19974 1.011546,7.07933 -1.92e-4,4.02658 -0.242143,6.64065 -0.626339,6.76707 -0.176945,0.0582 -0.274286,-1.92961 -0.274286,-5.60126 z m 17.968969,4.82276 c 0.0018,-0.50285 0.185469,-1.59314 0.408174,-2.42285 0.480003,-1.78832 0.51461,-3.57356 0.125893,-6.49444 -0.371984,-2.79516 -0.601037,-3.43791 -1.720713,-4.82855 -0.977743,-1.21435 -1.559466,-2.58206 -1.559466,-3.66652 0,-1.05833 0.461543,-0.73177 0.785804,0.55599 0.166297,0.66042 0.801215,1.86385 1.410929,2.67428 1.295453,1.72192 1.506844,2.40844 1.931739,6.27352 0.245487,2.23309 0.241056,3.24967 -0.01972,4.52572 -0.18498,0.90514 -0.413694,2.19127 -0.508252,2.85807 -0.208988,1.47371 -0.859184,1.87308 -0.854384,0.52478 z m -12.569748,-1.07533 c -0.134211,-0.364 -0.46228,-1.80146 -0.729041,-3.19435 -0.464342,-2.42458 -0.464213,-2.6209 0.003,-4.60498 0.268427,-1.13984 0.58338,-2.13135 0.699896,-2.20336 0.501504,-0.30994 0.531828,0.57045 0.08006,2.32418 -0.473485,1.83802 -0.471227,1.95502 0.09382,4.86145 0.334871,1.72249 0.477218,3.08367 0.337622,3.22849 -0.142578,0.1479 -0.341226,-0.0205 -0.485378,-0.41143 z m 5.435064,0.36495 c 0,-0.11414 0.128021,-0.63871 0.28449,-1.16571 0.778156,-2.62091 1.673119,-7.47878 1.692474,-9.18676 0.01591,-1.40401 -0.136246,-2.27625 -0.566174,-3.2456 -0.679131,-1.53122 -0.718769,-1.82869 -0.243679,-1.82869 0.18934,0 0.637357,0.75589 0.995593,1.67976 0.56953,1.46877 0.633465,1.99414 0.509025,4.18285 -0.178872,3.14609 -1.726836,9.77168 -2.282998,9.77168 -0.213802,0 -0.388731,-0.0934 -0.388731,-0.20753 z m 14.149072,-0.79051 c -0.09486,-0.24721 -0.29446,-1.63578 -0.443552,-3.08572 -0.149093,-1.44993 -0.34595,-3.04097 -0.437462,-3.53564 -0.09151,-0.49467 -0.07874,-2.06838 0.02838,-3.49714 0.150829,-2.01179 0.285524,-2.59775 0.597141,-2.59775 0.337613,0 0.373429,0.40838 0.222518,2.53714 -0.1696,2.3924 0.374532,8.92485 0.845683,10.15265 0.123315,0.32136 0.04901,0.47592 -0.2288,0.47592 -0.226286,0 -0.489043,-0.20225 -0.583905,-0.44946 z m -32.663272,-1.19611 c -0.114865,-0.18586 0.155843,-0.68843 0.640744,-1.18955 1.449313,-1.4978 2.294277,-4.24824 2.58382,-8.41059 0.08399,-1.20743 0.545639,-1.25542 0.680916,-0.0708 0.147279,1.28973 -0.682667,5.78262 -1.307285,7.07697 -0.677907,1.40477 -2.319964,3.04415 -2.598195,2.59397 z m 36.73725,-0.63112 c -0.07528,-0.19618 -0.102266,-1.98627 -0.05996,-3.97798 0.106331,-5.00632 0.603881,-4.75319 0.701389,0.35683 0.0508,2.66252 -0.02006,3.97784 -0.214323,3.97784 -0.159625,0 -0.351821,-0.16051 -0.427103,-0.35669 z M 37.575124,184.6997 c -1.968312,-1.70244 -2.665455,-2.88042 -2.241708,-3.78785 0.20737,-0.44407 0.293971,-0.47866 0.394429,-0.15757 0.482687,1.54282 0.785822,1.99027 2.212726,3.2662 0.878743,0.78576 1.742743,1.38149 1.92,1.32384 0.509483,-0.16572 0.956058,-1.30183 1.481231,-3.76833 0.287589,-1.35068 0.642258,-2.33765 0.866762,-2.41202 0.300946,-0.0997 0.339817,0.0954 0.186859,0.93794 -0.793281,4.36949 -1.535905,6.13809 -2.57735,6.13809 -0.254161,0 -1.263488,-0.69313 -2.242949,-1.5403 z m 48.276304,-8.18066 c 0,-0.0665 -0.123429,-0.19723 -0.274286,-0.29047 -0.150857,-0.0932 -0.274285,-0.0388 -0.274285,0.12096 0,0.15976 0.123428,0.29047 0.274285,0.29047 0.150857,0 0.274286,-0.0544 0.274286,-0.12096 z"
       id="path1" />
  </g>
</svg>
