<?xml version="1.0" encoding="UTF-8" standalone="no"?>
<!-- Created with Inkscape (http://www.inkscape.org/) -->

<svg
   version="1.1"
   id="svg1"
   width="294.58286"
   height="294.58286"
   viewBox="0 0 294.58286 294.58286"
   sodipodi:docname="2c-medium-a-outline.svg"
   inkscape:version="1.4 (86a8ad7, 2024-10-11)"
   xmlns:inkscape="http://www.inkscape.org/namespaces/inkscape"
   xmlns:sodipodi="http://sodipodi.sourceforge.net/DTD/sodipodi-0.dtd"
   xmlns="http://www.w3.org/2000/svg"
   xmlns:svg="http://www.w3.org/2000/svg">
  <defs
     id="defs1" />
  <sodipodi:namedview
     id="namedview1"
     pagecolor="#ffffff"
     bordercolor="#000000"
     borderopacity="0.25"
     inkscape:showpageshadow="2"
     inkscape:pageopacity="0.0"
     inkscape:pagecheckerboard="0"
     inkscape:deskcolor="#d1d1d1"
     inkscape:zoom="2.766624"
     inkscape:cx="147.47215"
     inkscape:cy="147.29143"
     inkscape:window-width="1920"
     inkscape:window-height="1017"
     inkscape:window-x="-8"
     inkscape:window-y="-8"
     inkscape:window-maximized="1"
     inkscape:current-layer="g1" />
  <g
     inkscape:groupmode="layer"
     inkscape:label="Image"
     id="g1">
    <path
       style="fill:#000000"
       d="m 35.886211,166.60039 c -0.251156,-0.0771 -0.544274,-0.34916 -0.651375,-0.60458 -0.373339,-0.89033 -0.702038,-12.29703 -0.503424,-17.4701 0.110047,-2.86628 0.170071,-6.08451 0.133385,-7.15162 -0.06266,-1.82259 -0.01653,-1.9939 0.761073,-2.82633 0.695653,-0.7447 0.97216,-0.86353 1.732381,-0.74454 0.497533,0.0779 2.138892,0.21727 3.647463,0.30975 1.508571,0.0925 3.483429,0.32771 4.388571,0.52272 1.400843,0.30179 2.382053,0.34135 4.464062,0.17999 0.192377,-0.0149 1.145835,-0.76768 2.118796,-1.67282 1.604558,-1.49272 1.880931,-1.64572 2.972787,-1.64572 0.662071,0 1.831355,0.11902 2.598408,0.26449 0.767053,0.14547 2.851328,0.28584 4.631723,0.31194 3.005107,0.0441 3.355016,-0.007 4.882796,-0.70825 1.897773,-0.87146 3.581867,-0.95063 6.137038,-0.28852 2.747187,0.71187 3.939389,0.5743 6.295867,-0.72651 2.472834,-1.36503 4.162813,-1.55411 5.442142,-0.60889 0.718709,0.53102 0.864205,0.54655 1.87492,0.2002 0.602661,-0.20652 1.479456,-0.55567 1.948433,-0.77589 1.383044,-0.64943 4.431521,-0.80484 5.833227,-0.29737 0.792511,0.28692 2.143484,0.43636 3.977143,0.43995 1.527323,0.003 3.640943,0.13189 4.696943,0.28645 1.056,0.15456 2.91529,0.32353 4.13175,0.37548 2.24374,0.0958 3.41816,0.5177 5.79531,2.08179 l 0.87563,0.57614 0.43288,-0.8371 c 0.63373,-1.22551 2.3969,-2.0442 3.9454,-1.83195 1.13859,0.15606 3.64202,1.46015 4.30167,2.24083 0.62791,0.74312 3.01039,2.39244 3.77106,2.6106 0.87884,0.25204 2.17703,-0.23508 2.58917,-0.97154 0.12343,-0.22056 0.89243,-0.89942 1.70889,-1.50858 1.28077,-0.95558 1.6767,-1.10755 2.8855,-1.10755 0.85951,0 1.81692,-0.21203 2.47703,-0.54858 0.59179,-0.30171 1.38932,-0.54867 1.77228,-0.54879 0.70416,-2.3e-4 3.11208,-0.81557 3.47225,-1.17574 0.10751,-0.10751 0.57943,-0.19547 1.04872,-0.19547 0.46929,0 1.12758,-0.19214 1.46287,-0.42698 0.33529,-0.23485 1.47874,-0.78539 2.54101,-1.22344 1.92758,-0.79487 5.40871,-3.08724 7.00126,-4.61041 1.12074,-1.07193 2.37234,-1.69345 3.41018,-1.69345 1.13313,0 2.19345,-0.58195 2.96154,-1.62542 0.7165,-0.97339 3.94652,-3.19452 5.02236,-3.45364 0.85332,-0.20552 2.05378,0.30186 3.93506,1.66318 1.26737,0.91708 1.45222,0.97075 2.74285,0.79635 1.66166,-0.22454 5.77833,-1.56269 7.728,-2.51204 1.36719,-0.66572 1.42085,-0.73663 1.89841,-2.50819 0.42905,-1.59161 0.70959,-2.04173 2.20944,-3.5449 2.21807,-2.22297 3.53186,-2.79301 7.16412,-3.1084 3.34612,-0.29055 3.31103,-0.27012 6.26498,-3.64892 2.1417,-2.44972 2.77833,-2.91358 4.71324,-3.43413 1.54489,-0.41562 2.9655,-0.0305 5.28,1.43122 1.96754,1.24264 2.58582,1.33297 5.48571,0.8015 0.98057,-0.17971 3.20229,-0.32837 4.93714,-0.33035 3.65276,-0.004 4.46732,-0.19094 7.81715,-1.79229 3.15866,-1.50997 5.65459,-2.1706 10.37826,-2.74694 5.4062,-0.65962 9.80928,-0.46414 12.38745,0.54995 2.71963,1.06973 3.31495,1.10897 5.49377,0.36203 2.08489,-0.71473 2.7649,-0.70839 2.9986,0.028 0.0838,0.26415 0.94368,1.24847 1.91076,2.18737 1.93898,1.88249 2.62544,3.32936 2.62544,5.53368 l 0,1.28173 -1.87747,0.82926 c -1.55694,0.68769 -2.08645,1.10439 -3.10154,2.44084 -0.67324,0.88637 -1.54955,2.17733 -1.94735,2.86881 -0.78011,1.35601 -2.44091,2.99221 -3.69598,3.64123 -0.42946,0.22208 -1.70197,0.60165 -2.82782,0.84348 -1.12584,0.24184 -2.72188,0.62255 -3.54675,0.84602 -0.82488,0.22348 -2.46478,0.40632 -3.64422,0.40632 -1.17944,0 -3.15825,0.23719 -4.39736,0.52709 -1.23912,0.2899 -2.99351,0.67444 -3.89865,0.85454 -0.90514,0.1801 -3.00343,0.86366 -4.66286,1.51902 -1.65943,0.65536 -4.26953,1.50403 -5.80022,1.88592 -4.07373,1.01634 -5.11922,1.52771 -5.71601,2.79581 -0.77233,1.64108 -2.48836,4.06123 -3.45842,4.87748 -0.48319,0.40658 -1.56984,1.08515 -2.41479,1.50795 -1.32825,0.66464 -1.98877,0.79446 -4.87811,0.95878 -2.2307,0.12686 -3.73007,0.0855 -4.50944,-0.12435 l -1.1676,-0.3144 -1.38972,1.50517 c -1.28713,1.39406 -1.50587,1.51969 -2.96311,1.70176 -0.86536,0.10812 -1.9512,0.14113 -2.41297,0.0734 -0.74522,-0.10937 -0.91371,0.003 -1.49915,1.00224 -0.45912,0.78344 -1.20611,1.44518 -2.45801,2.17751 -0.98915,0.57863 -1.97996,1.3112 -2.20182,1.62794 -0.68911,0.98384 -2.61792,2.10991 -3.61401,2.10991 -0.5096,0 -1.67405,-0.37734 -2.58767,-0.83853 -0.91361,-0.4612 -2.25619,-0.90901 -2.98349,-0.99515 -1.27253,-0.15071 -1.37247,-0.11021 -2.65106,1.0745 -2.01515,1.86718 -2.32232,1.97258 -3.86373,1.32585 -2.87955,-1.20818 -6.96539,-1.73556 -8.39603,-1.08372 -0.36915,0.1682 -0.89811,0.80904 -1.17546,1.42409 -0.27735,0.61506 -0.97491,1.57051 -1.55012,2.12323 l -1.04586,1.00495 -3.57351,-0.0836 c -1.96544,-0.046 -3.9648,-0.20956 -4.44303,-0.36353 -0.47823,-0.15398 -1.30151,-0.2643 -1.82951,-0.24518 -0.528,0.0191 -1.52068,-0.0596 -2.20594,-0.17499 -1.47212,-0.24785 -5.90976,0.81097 -7.94264,1.89511 -0.67885,0.36203 -2.16,1.10971 -3.29142,1.6615 -1.13143,0.55179 -2.21858,1.13697 -2.41588,1.30039 -0.59503,0.49287 -5.61149,2.11254 -6.56072,2.11827 -0.48684,0.003 -1.71505,0.31772 -2.72935,0.6995 -1.48427,0.55868 -2.35936,0.69778 -4.48389,0.71277 -2.50201,0.0176 -2.71368,-0.0269 -4.05797,-0.85405 -1.12231,-0.69057 -1.66177,-0.85505 -2.58523,-0.78824 -1.33073,0.0963 -4.6141,-0.17992 -7.56949,-0.63675 l -2.01395,-0.31131 -1.82342,0.93457 c -1.760875,0.90252 -1.93169,0.9347 -4.98033,0.93816 -3.354513,0.004 -3.791201,0.13833 -5.50814,1.69667 -0.97553,0.88542 -4.251361,1.55529 -6.513084,1.33185 -1.362799,-0.13463 -2.054287,-0.3846 -3.237854,-1.17044 l -1.504975,-0.99925 -1.373634,0.49395 c -1.781449,0.6406 -3.207608,0.4719 -5.692266,-0.67336 -1.888245,-0.87034 -2.041965,-0.89559 -4.543941,-0.74632 -3.30908,0.19742 -3.926129,0.50212 -4.96149,2.44995 -1.067023,2.0074 -1.907421,2.88792 -2.975977,3.11803 -0.471341,0.1015 -1.437982,0.72505 -2.14809,1.38566 -1.272481,1.18377 -1.319101,1.2011 -3.231667,1.2011 -1.144916,0 -2.35867,-0.17619 -2.960322,-0.42974 -1.072481,-0.45195 -0.745785,-0.47228 -7.295186,0.45405 -2.28191,0.32275 -7.535803,0.55358 -8.169793,0.35894 z m 6.578641,-1.49153 c 0.953384,-0.15471 2.18767,-0.29075 2.742858,-0.30231 0.555188,-0.0116 1.854502,-0.20523 2.887364,-0.43037 l 1.877932,-0.40935 -0.84936,-0.51653 c -0.868111,-0.52793 -1.123852,-1.07316 -0.503366,-1.07316 0.190296,0 0.961725,0.4294 1.714285,0.95421 3.148176,2.19547 4.743933,2.29724 6.577504,0.41949 0.577369,-0.59128 1.431207,-1.15599 1.897418,-1.2549 1.148375,-0.24365 1.68379,-0.76961 2.673265,-2.62606 1.11396,-2.09 1.574878,-2.45944 3.597214,-2.88325 2.847644,-0.59676 5.309918,-0.47635 7.057176,0.34511 2.811058,1.3216 2.611661,1.35997 2.561488,-0.49291 -0.02969,-1.09639 -0.196071,-1.80105 -0.506164,-2.1437 -0.502763,-0.55555 -0.704139,-2.11722 -0.289902,-2.2482 0.141267,-0.0447 0.367177,0.34455 0.502022,0.86493 0.286017,1.10378 3.560209,4.40242 4.369788,4.40242 0.734112,0 2.448558,0.75952 3.103653,1.37495 1.140999,1.07191 5.875116,0.93992 7.483938,-0.20866 2.858556,-2.04079 2.985831,-2.082 6.500892,-2.10487 3.228138,-0.021 3.322236,-0.0393 4.893593,-0.95315 l 1.60217,-0.93173 2.23783,0.30166 c 4.32436,0.58293 6.91186,0.79849 8.06611,0.67198 0.97176,-0.10651 1.3953,0.0198 2.54875,0.75994 1.31485,0.84373 1.50653,0.88597 3.87165,0.8531 1.90207,-0.0264 2.93713,-0.19649 4.39331,-0.72176 1.04775,-0.37794 2.27182,-0.68717 2.72016,-0.68717 0.44834,0 1.55808,-0.25027 2.46608,-0.55616 1.90563,-0.64196 7.07042,-3.07639 8.48035,-3.99722 0.528,-0.34484 1.824,-0.88813 2.88,-1.20731 1.056,-0.31918 2.51681,-0.77435 3.24625,-1.01149 0.97941,-0.31841 1.73259,-0.37547 2.88,-0.21819 0.85456,0.11713 2.09504,0.19964 2.75663,0.18334 0.66158,-0.0163 1.46156,0.10881 1.77773,0.27802 0.31617,0.16921 1.82778,0.33841 3.35914,0.37602 2.62151,0.0644 2.77629,0.0378 2.64742,-0.45504 -0.16906,-0.64649 0.28163,-0.67826 0.89669,-0.0632 0.64574,0.64573 1.18828,0.24155 2.17419,-1.61975 0.83638,-1.57901 1.80276,-2.36458 3.28292,-2.66868 0.79166,-0.16264 0.67452,-0.25357 -1.96332,-1.52405 -2.58043,-1.24282 -3.64258,-2.05343 -2.69064,-2.05343 0.41786,0 4.47275,1.92839 6.45584,3.07022 0.67886,0.39088 2.00424,0.84098 2.9453,1.00023 0.94106,0.15926 2.28521,0.54355 2.98701,0.85399 l 1.276,0.56443 1.27119,-1.18905 c 2.16957,-2.02938 2.50335,-2.17829 4.03865,-1.80182 0.7333,0.17981 2.03948,0.67875 2.9026,1.10875 2.30435,1.148 3.19132,1.05904 4.64465,-0.46588 0.65403,-0.68623 1.93878,-1.68622 2.85501,-2.22219 1.1339,-0.6633 1.89313,-1.35074 2.37753,-2.1527 l 0.71166,-1.1782 2.50808,-0.0968 2.50807,-0.0967 1.19388,-1.37143 c 0.65662,-0.75428 1.10249,-1.40559 0.9908,-1.44734 -0.11168,-0.0418 -1.304,0.34861 -2.6496,0.86747 -2.85286,1.10005 -4.36515,1.43736 -4.61702,1.02982 -0.10522,-0.17025 0.57253,-0.51366 1.68287,-0.8527 1.98047,-0.60473 2.48873,-0.99323 2.79432,-2.13588 0.10547,-0.39437 0.35806,-0.77248 0.5613,-0.84023 0.28184,-0.0939 0.32723,0.0884 0.19125,0.76828 -0.16508,0.82541 -0.13261,0.87855 0.43837,0.71726 0.33916,-0.0958 1.52587,-0.3538 2.63712,-0.57332 1.11126,-0.21952 2.1604,-0.50943 2.33143,-0.64424 0.72293,-0.56982 3.25719,-1.18917 4.16728,-1.01844 1.27594,0.23937 1.19761,0.70075 -0.11898,0.70075 -1.04164,0 -2.10492,0.30742 -4.27257,1.2353 -1.81102,0.77522 -0.66321,1.05448 3.37803,0.82186 3.03256,-0.17456 3.65845,-0.2967 5.00722,-0.97711 1.84678,-0.93165 3.29423,-2.50736 4.76062,-5.18247 1.32284,-2.41323 1.86784,-2.73411 6.54004,-3.8507 1.85259,-0.44274 4.59643,-1.31698 6.09741,-1.94276 1.50098,-0.62578 4.10031,-1.42293 5.7763,-1.77145 1.67598,-0.34851 3.52741,-0.75417 4.11429,-0.90145 0.58687,-0.14728 2.30132,-0.34438 3.80989,-0.43798 1.50857,-0.0936 3.55117,-0.38468 4.53909,-0.64682 l 1.79624,-0.47663 -0.74247,-0.61489 c -0.40836,-0.33819 -1.01096,-0.6149 -1.3391,-0.6149 -0.77264,0 -0.57602,-0.65555 0.23225,-0.77433 0.40377,-0.0593 0.93586,0.2442 1.61017,0.91852 0.98863,0.98862 1.02755,1.00104 2.11833,0.67587 1.32476,-0.39493 3.40528,-2.45637 4.81406,-4.76991 1.59364,-2.61713 2.44397,-3.46777 4.29813,-4.29967 1.64974,-0.74019 1.73616,-0.82643 1.73616,-1.73258 0,-1.57585 -0.48307,-2.38953 -2.61826,-4.41018 l -2.03699,-1.92772 -1.71809,0.60987 c -2.261,0.80259 -2.79581,0.78034 -5.29456,-0.22021 -2.29783,-0.92009 -5.29232,-1.3524 -7.88083,-1.13774 -1.36046,0.11282 -1.57127,0.20596 -1.57127,0.69426 0,0.55214 -3.33149,4.03097 -3.86025,4.03097 -0.61859,0 -0.13341,-0.74771 1.39168,-2.14474 1.96367,-1.79878 2.1661,-2.56236 0.61714,-2.32801 -0.56571,0.0856 -1.14583,0.26297 -1.28914,0.39418 -0.14332,0.13121 -0.55257,0.23857 -0.90946,0.23857 -1.01248,0 -1.66081,0.47406 -2.26322,1.65488 -0.54183,1.06208 -1.09246,1.43559 -1.09246,0.74105 0,-0.1908 0.24709,-0.80794 0.5491,-1.37142 0.44246,-0.82553 0.47184,-1.02451 0.1513,-1.02451 -0.81475,0 -5.01684,1.46897 -6.87183,2.40227 -2.76225,1.38977 -3.06789,1.45189 -8.37773,1.70291 -2.64661,0.12511 -5.31596,0.37846 -5.93188,0.563 -0.94403,0.28284 -1.33783,0.26313 -2.50799,-0.12554 -0.76347,-0.25358 -1.84507,-0.82419 -2.40356,-1.26803 -2.31576,-1.84034 -4.5835,-1.66039 -6.69836,0.53153 -0.67912,0.70386 -1.84759,1.94035 -2.5966,2.74774 -2.1932,2.36415 -2.87988,2.68425 -6.05266,2.82148 -3.16972,0.1371 -3.90689,0.43948 -6.07849,2.49329 -1.21846,1.15237 -1.54553,1.67706 -2.00306,3.21335 -0.30074,1.00985 -0.78336,2.05017 -1.07248,2.31182 -0.72385,0.65508 -5.04779,2.47768 -6.88291,2.90125 -0.82971,0.19151 -1.66349,0.4711 -1.85284,0.62132 -0.67241,0.53345 -3.05141,0.0595 -4.2693,-0.85047 -0.63054,-0.47114 -1.5553,-1.07039 -2.05503,-1.33169 -0.88627,-0.4634 -0.9402,-0.45854 -2.19429,0.19768 -0.70712,0.37002 -1.94877,1.32933 -2.75922,2.13179 -1.90947,1.89066 -2.4029,2.19702 -3.82679,2.37592 -1.42109,0.17855 -1.85166,0.39555 -3.42866,1.72798 -1.71066,1.44536 -3.87285,2.98855 -5.06631,3.61591 -2.7201,1.42985 -5.81121,2.76588 -7.00985,3.02978 -0.73197,0.16115 -1.68241,0.47481 -2.11209,0.697 -0.42968,0.2222 -1.1885,0.40481 -1.68628,0.4058 -0.49778,9.9e-4 -1.27534,0.24704 -1.72791,0.54676 -0.56501,0.37419 -1.28747,0.54553 -2.30554,0.54677 -1.5957,0.002 -2.1933,0.32987 -4.64836,2.55075 -1.13127,1.02337 -1.26985,1.07373 -2.64186,0.95995 -1.26199,-0.10466 -1.71908,-0.32889 -3.5589,-1.74592 -3.20835,-2.47105 -4.29914,-3.1344 -5.15407,-3.1344 -1.12359,0 -2.32449,0.70439 -2.81367,1.65035 -0.57625,1.11435 -1.56257,1.07457 -3.58738,-0.14471 -1.8925,-1.13961 -3.06691,-1.50204 -4.87385,-1.50411 -1.16218,-0.001 -1.30675,0.0597 -1.13274,0.47847 0.58521,1.40833 0.95637,3.04487 0.95637,4.2169 0,1.08343 -0.15166,1.49103 -0.85127,2.28784 -0.4682,0.53325 -0.96191,0.96954 -1.09714,0.96954 -0.47441,0 -0.23915,-0.73355 0.43984,-1.37143 0.56377,-0.52963 0.68572,-0.90214 0.68572,-2.09466 0,-1.6292 -0.90442,-4.35555 -1.5237,-4.59319 -0.2234,-0.0857 -2.1011,-0.22629 -4.17267,-0.31238 -2.071571,-0.0861 -4.54743,-0.35224 -5.50191,-0.59146 -1.109131,-0.27798 -2.320199,-0.38192 -3.355824,-0.28802 -1.387662,0.12583 -1.863958,0.33002 -3.316052,1.42158 -1.29438,0.973 -1.890772,1.2551 -2.520196,1.1921 -1.177579,-0.11788 -1.287715,-0.76211 -0.135367,-0.79183 0.896925,-0.0231 0.900321,-0.0278 0.178864,-0.24552 -0.404481,-0.12207 -1.018231,-0.42003 -1.363887,-0.66214 -0.345656,-0.2421 -0.834381,-0.44019 -1.086054,-0.44019 -0.581737,0 -2.894766,1.02631 -2.71178,1.20323 0.07543,0.0729 -0.912,0.82534 -2.194286,1.67202 -1.282286,0.84667 -2.668299,1.92695 -3.080029,2.40062 -0.882638,1.01542 -1.357339,0.79064 -0.710492,-0.33642 l 0.450606,-0.78514 -1.141471,-0.18959 c -1.530751,-0.25424 -2.468265,-0.76611 -3.262929,-1.78151 l -0.661156,-0.8448 -2.174407,0.86818 c -1.942638,0.77564 -2.466768,0.86722 -4.917265,0.85912 l -2.742857,-0.009 1.645714,0.5458 c 2.035363,0.67504 3.674125,0.7667 4.623472,0.25863 0.958515,-0.51298 1.311219,-0.11548 0.488999,0.5511 -0.44831,0.36345 -1.076858,0.52496 -2.042989,0.52496 -1.472591,0 -5.388775,-1.07469 -7.104269,-1.94958 -0.559704,-0.28544 -1.535973,-0.51899 -2.169487,-0.51899 -1.019154,0 -1.330886,0.17078 -2.706102,1.48251 -2.207776,2.10586 -3.637386,2.44332 -7.081192,1.6715 -1.872375,-0.41964 -6.290042,-0.88727 -7.988476,-0.84563 -0.792431,0.0194 -0.972787,0.14535 -1.148553,0.80186 -0.176142,0.65792 -0.662339,12.08953 -0.585155,13.75833 0.01395,0.30172 0.106347,2.89372 0.205316,5.76 0.09897,2.86629 0.228124,5.36572 0.28701,5.55429 0.133674,0.42806 3.622971,0.46086 6.109136,0.0574 z m 10.373405,-3.4706 c -0.593416,-0.59342 0.04349,-2.29169 0.985416,-2.62757 0.42562,-0.15178 -0.714207,-1.47903 -1.478485,-1.7216 -0.687468,-0.2182 -0.639651,-0.67195 0.07081,-0.67195 0.678471,0 2.441142,1.66789 2.441142,2.30988 0,0.24461 -0.308571,0.58533 -0.685714,0.75717 -0.492105,0.22422 -0.685714,0.52776 -0.685714,1.07508 0,0.76751 -0.32191,1.20453 -0.647457,0.87899 z m 6.001007,-0.62449 c -0.0905,-0.14643 0.02798,-0.63852 0.263282,-1.09355 0.372809,-0.72093 0.378662,-0.94497 0.04552,-1.74229 -0.210265,-0.50323 -0.768027,-1.35429 -1.23947,-1.89123 -1.331869,-1.51692 -1.059913,-2.27961 0.297835,-0.83527 1.782904,1.8966 2.238809,3.4817 1.443667,5.01933 -0.45365,0.87726 -0.560167,0.9486 -0.810835,0.54301 z m 27.59892,-3.31895 c -0.773705,-0.63221 -1.640498,-0.68707 -1.858996,-0.11768 -0.240391,0.62645 -0.697695,0.49062 -0.598265,-0.1777 0.183179,-1.23125 1.654744,-1.35709 3.001536,-0.25668 0.434551,0.35506 0.560398,0.62401 0.37754,0.80687 -0.182857,0.18286 -0.490128,0.0979 -0.921815,-0.25481 z m 4.181726,-1.47234 c -0.331929,-0.86499 0.163548,-1.82548 1.155495,-2.23994 2.067038,-0.86366 7.643136,-0.19442 8.014551,0.96191 0.09352,0.29117 -0.03516,0.33559 -0.530378,0.18309 -2.489953,-0.76677 -4.065845,-1.00842 -5.453864,-0.83628 -1.924335,0.23866 -2.468572,0.53835 -2.468572,1.35934 0,0.79019 -0.48505,1.17694 -0.717232,0.57188 z m 27.53269,-0.57276 c -0.59209,-0.5505 -1.30885,-0.95258 -1.6981,-0.95258 -0.37045,0 -0.75038,-0.1243 -0.84427,-0.27622 -0.24042,-0.38901 0.55707,-0.63869 1.38015,-0.43211 0.84012,0.21085 2.92778,2.04267 2.71688,2.38391 -0.24216,0.39182 -0.46917,0.28624 -1.55466,-0.723 z m -54.559364,-0.0611 c -0.38074,-0.41486 -1.162301,-1.57418 -1.736803,-2.57628 -1.143063,-1.99383 -1.447788,-2.14546 -4.325005,-2.15213 -0.973896,-0.002 -1.302857,-0.1069 -1.302857,-0.41445 0,-0.45504 1.346772,-0.523 3.565714,-0.17993 l 1.234286,0.19084 0.754286,-1.50704 c 0.866965,-1.73217 1.001834,-3.78269 0.333138,-5.06498 -0.576511,-1.10552 -0.06694,-1.56379 0.601326,-0.54078 0.817801,1.25193 0.66739,4.2446 -0.305876,6.08589 l -0.767795,1.45257 0.883615,1.70171 c 0.485988,0.93595 1.244623,2.08012 1.685855,2.54261 0.441232,0.46249 0.717784,0.92535 0.61456,1.02858 -0.312297,0.31229 -0.511907,0.22067 -1.234444,-0.56661 z m 58.068424,-0.32524 c -0.27092,-0.29936 -1.15677,-1.00174 -1.96855,-1.56083 -1.53099,-1.05443 -1.81811,-1.47778 -0.99597,-1.46853 0.55789,0.006 4.06897,2.7772 3.99772,3.15497 -0.0896,0.47518 -0.53893,0.42055 -1.0332,-0.12561 z m -11.5468,-0.63271 c -0.2531,-0.65957 -1.31194,-0.79755 -2.60884,-0.33997 -1.32406,0.46715 -1.68259,0.3398 -0.99085,-0.35195 0.67103,-0.67102 3.69109,-0.67351 4.11922,-0.003 0.22279,0.3487 0.21602,0.55828 -0.0258,0.80015 -0.25408,0.25407 -0.36499,0.23052 -0.49368,-0.10484 z m 13.72269,-2.23288 c -2.60377,-1.7681 -4.7453,-4.8032 -5.22444,-7.40441 -0.31635,-1.71739 0.37372,-1.10312 1.06356,0.94675 0.4235,1.25842 1.03739,2.29118 2.06251,3.46978 1.40473,1.61505 3.2686,3.093 3.90065,3.093 0.35296,0 0.20931,0.61028 -0.17371,0.73796 -0.14277,0.0476 -0.87563,-0.3318 -1.62857,-0.84308 z m -42.437978,-1.60917 c -0.662669,-1.24457 -1.444093,-2.74046 -1.736498,-3.3242 -0.292405,-0.58374 -0.994503,-1.50403 -1.560217,-2.04509 C 77.024507,144.38793 76.83927,144 77.42514,144 c 0.677866,0 2.489122,2.07431 3.233283,3.70286 0.413603,0.90514 1.195801,2.429 1.738219,3.38635 1.125694,1.98681 1.118212,1.96222 0.596999,1.96222 -0.214069,0 -0.9314,-1.01829 -1.594069,-2.26286 z m -14.296131,0.97034 c -0.09443,-0.5714 -0.177155,-1.65605 -0.183834,-2.41034 l -0.01214,-1.37143 -0.550395,0.66105 c -0.352179,0.42299 -0.645357,0.56609 -0.81408,0.39737 -0.300031,-0.30003 1.228214,-2.55675 1.749312,-2.58317 0.17552,-0.009 0.986819,-0.81819 1.802885,-1.79844 1.476187,-1.77317 2.812379,-2.74821 3.328772,-2.42906 0.375298,0.23194 0.05624,0.6654 -0.701995,0.95368 -0.737968,0.28057 -3.341081,3.31199 -3.743821,4.35981 -0.150737,0.39218 -0.233199,1.68994 -0.183247,2.88392 0.05962,1.42509 -0.01406,2.20602 -0.214472,2.27319 -0.171312,0.0574 -0.380639,-0.35361 -0.476981,-0.93658 z m 22.708411,0.30981 c -0.524219,-1.60417 -0.82745,-2.11673 -1.711418,-2.89287 -0.536153,-0.47075 -1.384944,-1.02726 -1.886201,-1.2367 -0.985219,-0.41165 -1.215766,-0.92201 -0.416505,-0.92201 0.67819,0 2.844544,1.40864 3.554593,2.31132 0.81753,1.03932 1.302508,2.59499 0.926275,2.97123 -0.210341,0.21034 -0.344172,0.14411 -0.466744,-0.23097 z m 19.353858,-0.51663 c 0,-1.51199 -1.75951,-3.43781 -3.14094,-3.43781 -0.55191,0 -0.4242,-0.65037 0.14958,-0.76178 0.21547,-0.0418 0.95471,0.28095 1.64275,0.7173 1.31933,0.83669 2.27265,2.36211 2.12063,3.39325 -0.12967,0.87957 -0.77202,0.95365 -0.77202,0.089 z m -69.942853,0.13346 c 0,-0.67116 0.921161,-2.47412 1.264067,-2.47412 0.483642,0 0.484926,-0.0121 -0.157177,1.48583 -0.484187,1.12956 -1.10689,1.68554 -1.10689,0.98829 z m 62.020793,-1.46467 c -0.62115,-0.95338 -1.12936,-1.88215 -1.12936,-2.06394 0,-0.865 -3.526678,-1.1916 -4.617438,-0.4276 -0.989126,0.69281 -0.670993,1.51073 0.896515,2.30494 1.22418,0.62026 1.950762,1.37143 1.326537,1.37143 -0.458557,0 -2.979148,-1.31718 -3.330327,-1.74033 -0.609033,-0.73384 -0.259352,-1.88595 0.787565,-2.59484 0.816311,-0.55273 1.217773,-0.63415 2.682198,-0.54392 1.582464,0.0975 1.715992,0.0626 1.645714,-0.43048 -0.153328,-1.07569 0.546356,-0.71591 0.836106,0.42993 0.16367,0.64723 0.79672,2.00317 1.40678,3.01319 0.61006,1.01002 1.1092,1.96659 1.1092,2.12572 0,0.67637 -0.55641,0.17837 -1.61349,-1.4441 z m 27.25921,0.56846 c -1.32107,-0.69107 -2.77208,-1.73436 -3.64619,-2.62163 -1.59973,-1.62382 -3.33096,-4.84314 -2.85852,-5.31558 0.18709,-0.18709 0.65248,0.44336 1.42885,1.93566 1.37276,2.63861 2.38453,3.60972 5.5699,5.34607 1.31829,0.7186 2.32543,1.42217 2.23809,1.56348 -0.23397,0.37858 -0.34015,0.34329 -2.73213,-0.908 z m -69.582602,-1.72077 c -1.187664,-0.86328 -2.691687,-2.90426 -2.691687,-3.65267 0,-0.60869 0.764346,-0.31494 0.933426,0.35873 0.18125,0.72216 1.772002,2.48196 2.906574,3.21546 0.46336,0.29956 0.596773,0.53565 0.411429,0.72807 -0.187658,0.19483 -0.680275,-0.0103 -1.559742,-0.64959 z m 56.828312,0.15693 c -1.18496,-0.62982 -1.78663,-1.27705 -3.4228,-3.682 -0.83904,-1.23329 -1.18938,-1.97818 -1.01321,-2.15434 0.17616,-0.17617 0.79337,0.47868 1.78505,1.89393 1.76991,2.52584 2.18768,2.9399 3.53367,3.50229 0.54988,0.22976 1.07722,0.54303 1.17187,0.69618 0.28253,0.45715 -1.01756,0.29513 -2.05458,-0.25606 z m 17.62286,-0.48817 c -1.72608,-0.72482 -2.1736,-1.17162 -1.17354,-1.17162 0.76349,0 3.57354,1.28224 3.57354,1.63062 0,0.43282 -0.50733,0.33579 -2.4,-0.459 z m 20.49719,-1.0477 c -0.69115,-1.61238 -1.82308,-3.24547 -3.58804,-5.17661 -1.33038,-1.45565 -1.6214,-2.28068 -0.576,-1.63292 1.47907,0.91648 5.26685,6.44651 5.26685,7.68942 0,0.78309 -0.59267,0.31023 -1.10281,-0.87989 z m -16.30048,-0.1384 c -1.31665,-0.39324 -3.16814,-1.4665 -3.16814,-1.83647 0,-0.46563 0.0884,-0.44675 1.67621,0.35784 0.76103,0.38564 1.99122,0.77312 2.73374,0.86106 0.87743,0.10392 1.35005,0.29055 1.35005,0.53312 0,0.4259 -1.30611,0.46846 -2.59186,0.0845 z m 13.72011,0.0463 c -0.0824,-0.13334 -0.72791,-0.51416 -1.43446,-0.84628 -0.91184,-0.42862 -1.17819,-0.66964 -0.91782,-0.83055 0.64471,-0.39846 3.48709,1.1084 3.1425,1.66596 -0.19828,0.32081 -0.59529,0.32628 -0.79022,0.0109 z m -8.21128,-3.22909 c -0.70803,-0.55162 -1.96558,-1.90414 -2.79456,-3.00559 -0.82897,-1.10145 -1.8745,-2.21959 -2.32339,-2.48475 -0.82694,-0.48848 -0.99329,-0.77057 -0.59838,-1.01464 0.47023,-0.29062 2.08217,1.09716 3.49783,3.01141 0.81785,1.10591 2.10613,2.47296 2.86284,3.0379 0.75671,0.56493 1.37583,1.12423 1.37583,1.24289 0,0.47547 -0.79918,0.16405 -2.02017,-0.78722 z m -13.13411,-1.09869 c -2.32902,-0.71292 -1.41972,-1.23809 1.01582,-0.58668 0.67617,0.18085 1.32053,0.23769 1.4319,0.12632 0.3011,-0.3011 -0.7346,-2.06425 -1.3221,-2.25072 -0.66576,-0.2113 -0.65499,-0.67299 0.0157,-0.67299 1.02789,0 2.51333,2.40222 2.11971,3.42796 -0.19751,0.51472 -1.49315,0.49728 -3.26104,-0.0439 z m -78.821559,-0.14601 c -0.201125,-0.32543 0.377287,-0.75913 1.020626,-0.76529 0.830165,-0.008 2.178566,-0.61111 2.434274,-1.0889 0.181472,-0.33908 0.09422,-0.78037 -0.299565,-1.51509 -0.739402,-1.37956 -0.260599,-1.91543 0.545727,-0.61077 0.961852,1.55631 0.686429,2.88986 -0.709024,3.43298 -1.562944,0.6083 -2.812944,0.83685 -2.992038,0.54707 z m 32.39518,-0.3282 c -0.86474,-0.37682 -2.049273,-2.18278 -1.676312,-2.55574 0.200623,-0.20062 0.510712,0.11644 1.350787,1.38117 0.18303,0.27555 0.754712,0.58729 1.270405,0.69276 1.092026,0.22335 1.486824,0.86884 0.521496,0.85265 -0.352,-0.006 -1.011869,-0.17278 -1.466376,-0.37084 z m 1.597741,-0.86664 c -1.139799,-0.95579 -2.279937,-2.5081 -2.279937,-3.10416 0,-0.66169 0.742966,-0.26496 1.166297,0.62278 0.244773,0.51329 0.94649,1.33623 1.559372,1.82876 0.612882,0.49253 1.114331,1.05999 1.114331,1.26102 0,0.56043 -0.310686,0.43927 -1.560063,-0.6084 z m 52.470298,-0.0753 c -1.24919,-1.97883 -2.57212,-2.98312 -4.89881,-3.71888 -0.264,-0.0835 -0.48,-0.27909 -0.48,-0.43468 0,-0.83912 3.07977,0.4044 4.49206,1.81376 1.07584,1.07361 2.38107,3.00736 2.1714,3.21703 -0.347,0.347 -0.63672,0.14916 -1.28465,-0.87723 z m -47.618806,0.20109 c 0,-0.16478 0.240379,-0.60519 0.534176,-0.97869 0.438958,-0.55804 0.479908,-0.7982 0.22973,-1.34728 -0.364007,-0.79891 -0.118383,-1.15449 0.463751,-0.67136 0.641098,0.53206 0.522809,2.00575 -0.216764,2.70054 -0.702108,0.6596 -1.010893,0.75025 -1.010893,0.29679 z m 5.626861,-0.2425 c -0.181398,-0.29351 0.0073,-0.39151 1.298853,-0.67451 0.859549,-0.18834 0.927498,-0.58075 0.342857,-1.97999 -0.501704,-1.20074 -0.501485,-1.19198 -0.02978,-1.19198 0.402744,0 1.264068,1.84986 1.264068,2.71483 0,0.28019 -0.154286,0.63188 -0.342857,0.78154 -0.53591,0.42532 -2.333138,0.67372 -2.533139,0.35011 z m 69.549645,-0.51352 c -0.5154,-0.96305 -0.22178,-3.86072 0.41265,-4.0722 0.28801,-0.096 0.31406,4.19602 0.0272,4.48287 -0.0788,0.0788 -0.27678,-0.10596 -0.43986,-0.41067 z m 7.29206,0.32419 c -0.37432,-0.37433 -0.16387,-0.67536 0.41281,-0.59051 0.75376,0.11091 1.00711,0.77336 0.29577,0.77336 -0.28915,0 -0.608,-0.0823 -0.70858,-0.18285 z m -57.8719,-0.27191 c -0.0993,-0.0993 -0.0478,-0.34039 0.11445,-0.53585 0.21551,-0.25967 0.16336,-0.57811 -0.19367,-1.18251 -0.52485,-0.8885 -0.3667,-1.40182 0.26927,-0.87401 0.70745,0.58713 1.10759,1.89663 0.72165,2.36167 -0.37046,0.44638 -0.63028,0.51212 -0.9117,0.2307 z m 48.57766,-1.94524 c -0.23059,-0.264 -0.56583,-0.93668 -0.74497,-1.49486 -0.17914,-0.55817 -0.75017,-1.38754 -1.26896,-1.84305 -1.08115,-0.94926 -1.14594,-1.11923 -0.4266,-1.11923 0.64122,0 2.50049,2.01257 2.50049,2.70666 0,0.28093 0.24686,0.82462 0.54857,1.20819 0.30171,0.38356 0.54857,0.77049 0.54857,0.85984 0,0.34676 -0.75872,0.13854 -1.1571,-0.31755 z m 8.42673,0.20742 c -0.15955,-0.25816 0.1323,-0.47162 2.40517,-1.75913 1.70811,-0.9676 4.8241,-3.89183 5.03271,-4.723 0.20101,-0.80088 0.92678,-0.86515 0.92678,-0.0821 0,1.55559 -7.71725,7.61173 -8.36466,6.5642 z m -28.80106,-1.0969 c -1.25913,-0.28226 -2.60571,-1.0665 -2.60571,-1.51756 0,-0.51614 0.0593,-0.51008 1.15004,0.11761 0.4989,0.28709 1.30824,0.60547 1.79853,0.7075 0.83843,0.17449 1.14843,0.52147 0.68571,0.76752 -0.11314,0.0602 -0.576,0.0264 -1.02857,-0.0751 z m 28.27423,-0.51363 c -0.0807,-0.13057 0.46446,-0.61733 1.21146,-1.08169 1.25974,-0.78309 1.86779,-0.84396 1.42193,-0.14233 -0.20507,0.3227 -1.99201,1.45874 -2.29714,1.46039 -0.10424,5.7e-4 -0.25555,-0.1058 -0.33625,-0.23637 z m -19.10167,-1.11983 c -1.51706,-0.46034 -3.10341,-1.5468 -2.85213,-1.95337 0.0748,-0.12108 0.82502,0.14227 1.66709,0.58522 1.02057,0.53685 1.93329,0.80538 2.73748,0.80538 1.20061,0 1.59962,0.339 0.77257,0.65637 -0.55397,0.21258 -1.43256,0.17721 -2.32501,-0.0936 z m 18.81618,-0.544 c -0.392,-0.63428 2.93224,-1.98465 3.49653,-1.42036 0.19589,0.19589 0.0518,0.37236 -0.46417,0.56854 -0.41153,0.15646 -0.90175,0.28448 -1.08939,0.28448 -0.18763,0 -0.58074,0.18122 -0.87357,0.4027 -0.62864,0.47548 -0.85568,0.51044 -1.0694,0.16464 z m -6.47231,-0.71627 c -1.78619,-0.55046 -4.46469,-3.1425 -3.24733,-3.1425 0.16686,0 0.52937,0.28729 0.80557,0.63843 0.47012,0.59766 1.85386,1.38966 3.63794,2.08223 0.42337,0.16435 0.6938,0.42172 0.60096,0.57193 -0.20565,0.33275 -0.23958,0.32992 -1.79714,-0.15009 z m 21.12801,0.003 c -0.20226,-0.2437 -0.85354,-0.69093 -1.44729,-0.99385 -0.71971,-0.36716 -0.98813,-0.64217 -0.80527,-0.82503 0.18286,-0.18286 0.63414,-0.0907 1.35384,0.27646 1.33266,0.67988 1.9199,1.33209 1.54075,1.71124 -0.18286,0.18285 -0.39687,0.12658 -0.64203,-0.16882 z m -34.4826,-3.48872 c 0.0733,-0.21648 0.66308,-0.34544 1.6,-0.34986 0.81613,-0.004 1.77611,-0.10935 2.13328,-0.23444 0.57131,-0.20008 0.63217,-0.35591 0.5061,-1.29585 -0.10281,-0.7665 -0.0427,-1.06842 0.21268,-1.06842 0.82943,0 0.92944,1.95381 0.14039,2.74286 -0.45212,0.45212 -0.91429,0.54857 -2.62857,0.54857 -1.54308,0 -2.05003,-0.0885 -1.96388,-0.34286 z m 17.50421,-0.71467 c -0.36596,-0.10554 -0.71886,-0.35235 -0.78424,-0.54848 -0.0912,-0.27349 0.15976,-0.31498 1.07681,-0.17803 1.4118,0.21083 2.76504,-0.20695 2.54316,-0.78515 -0.25019,-0.65199 0.38423,-0.78172 0.72342,-0.14793 0.25913,0.48418 0.2248,0.67714 -0.19195,1.07866 -0.57728,0.5562 -2.37656,0.86662 -3.3672,0.58093 z M 188.16,130.59678 c 0,-0.16334 0.36663,-0.48657 0.81472,-0.71829 0.4481,-0.23172 0.9603,-0.69775 1.13821,-1.03562 0.17791,-0.33786 0.45929,-0.70498 0.62527,-0.81581 0.45944,-0.30678 -1.34369,-0.24857 -2.18281,0.0705 -0.4056,0.15422 -0.97803,0.58622 -1.27205,0.96 -0.47244,0.60062 -1.59191,0.95982 -1.59191,0.51079 0,-0.0928 0.51222,-0.63704 1.13827,-1.20931 1.26412,-1.15552 2.775,-1.54971 4.27307,-1.11485 1.32224,0.38383 3.09151,1.44704 3.09151,1.85778 0,0.49703 -0.13633,0.4649 -1.55493,-0.36646 -1.02105,-0.59838 -1.28436,-0.65918 -1.48464,-0.34285 -0.1339,0.21148 -0.24534,0.51729 -0.24765,0.67957 -0.002,0.16227 -0.28192,0.55427 -0.62135,0.87109 -0.71833,0.6705 -2.12571,1.10317 -2.12571,0.6535 z m -8.61785,-2.11791 c 0.0778,-1.66733 0.27735,-2.10428 0.67428,-1.47664 0.34122,0.53956 0.33068,1.82272 -0.0204,2.47866 -0.49714,0.92892 -0.72756,0.57584 -0.65391,-1.00202 z m -2.07929,0.6503 c 0,-0.58342 0.88777,-2.68346 1.1344,-2.68346 0.36353,0 0.28244,0.92145 -0.17808,2.02365 -0.40127,0.96036 -0.95632,1.34332 -0.95632,0.65981 z m -18.85715,-1.04629 c -0.96597,-0.38827 -0.72533,-0.74683 0.48,-0.71522 1.10575,0.029 1.49219,0.51348 0.66328,0.83157 -0.23862,0.0916 -0.45462,0.15866 -0.48,0.1491 -0.0254,-0.01 -0.32385,-0.12902 -0.66328,-0.26545 z m 53.5858,-0.56424 c -0.92408,-0.72688 -1.54008,-1.91115 -1.54008,-2.96082 0,-0.54789 -0.16362,-0.86993 -0.49549,-0.97526 -0.90245,-0.28642 -3.03022,0.30664 -4.7274,1.31764 -1.90617,1.1355 -1.90854,1.13624 -1.90854,0.59865 0,-0.21906 0.77143,-0.85183 1.71428,-1.40615 1.36259,-0.8011 2.08006,-1.03455 3.49715,-1.13792 0.98057,-0.0715 2.30008,-0.37193 2.93225,-0.66756 0.72808,-0.34048 1.57486,-0.50629 2.31011,-0.45236 1.58177,0.11602 1.746,0.72709 0.18945,0.70491 -2.40955,-0.0343 -3.18793,0.68145 -2.7023,2.48495 0.28325,1.05193 1.11239,2.01757 2.00192,2.33151 0.264,0.0932 0.48,0.29671 0.48,0.4523 0,0.47723 -0.98296,0.31453 -1.75135,-0.28989 z m -26.2258,-0.52436 c 0,-0.15085 0.18515,-0.27428 0.41143,-0.27428 0.22629,0 0.41143,0.12343 0.41143,0.27428 0,0.15086 -0.18514,0.27429 -0.41143,0.27429 -0.22628,0 -0.41143,-0.12343 -0.41143,-0.27429 z m 12.59005,-1.12615 c -0.80793,-0.86489 -0.99596,-1.4606 -0.54833,-1.73725 0.13609,-0.0841 0.50701,0.28703 0.82428,0.82475 0.46756,0.79246 0.71667,0.96126 1.31494,0.89102 0.61997,-0.0728 0.83712,-0.343 1.35682,-1.68837 0.34029,-0.88094 0.7632,-1.7758 0.93978,-1.98857 0.48991,-0.59031 2.27109,-0.48858 2.86113,0.1634 0.53474,0.59089 0.37822,1.07899 -0.20061,0.62559 -0.59052,-0.46256 -1.53718,-0.5854 -1.96828,-0.2554 -0.2255,0.17261 -0.67229,1.02406 -0.99287,1.89211 -0.85883,2.32547 -2.16913,2.79041 -3.58686,1.27272 z m -25.67189,-0.0848 c -1.17903,-1.01479 -0.52563,-1.32442 0.79547,-0.37696 0.38202,0.27398 0.73446,0.21783 1.92,-0.30587 1.78423,-0.78817 2.96066,-1.02551 2.96066,-0.59731 0,0.17271 -0.216,0.38321 -0.48,0.46777 -0.264,0.0845 -1.17429,0.45097 -2.02287,0.81424 -1.91991,0.82192 -2.21635,0.82175 -3.17326,-0.002 z m 16.92184,-1.21894 c 0,-0.12958 0.4931,-0.65415 1.09577,-1.16571 0.60267,-0.51156 1.09638,-1.00314 1.09714,-1.09241 7.6e-4,-0.0893 -0.48715,-0.30866 -1.08425,-0.48756 -1.16037,-0.34765 -1.52337,-0.68388 -1.23757,-1.14632 0.1102,-0.1783 0.29877,-0.19189 0.49619,-0.0357 0.87661,0.69333 2.36998,0.91251 3.89378,0.5715 0.83819,-0.18757 1.58379,-0.43781 1.65688,-0.55608 0.0731,-0.11827 -0.36826,-0.34999 -0.98079,-0.51493 -1.31192,-0.35326 -1.21976,-0.97804 0.10105,-0.68504 0.47242,0.1048 1.5378,0.22501 2.36752,0.26713 1.31312,0.0667 1.61518,-0.0197 2.33143,-0.66674 1.44553,-1.30583 2.39145,-1.93249 2.91699,-1.93249 0.70872,0 0.6417,0.51099 -0.10557,0.80479 -0.33942,0.13345 -1.31578,0.87096 -2.16967,1.63892 -0.85389,0.76796 -1.80284,1.39629 -2.10877,1.39629 -0.30594,0 -1.52045,0.31214 -2.6989,0.69364 -1.58823,0.51415 -2.49705,1.01096 -3.51226,1.92 -1.29,1.15508 -2.05897,1.5251 -2.05897,0.99075 z m -27.42857,-0.7113 c 0,-0.34018 0.35875,-0.42452 1.80572,-0.42452 1.32208,0 1.77539,0.0918 1.69251,0.34286 -0.0701,0.21229 -0.75774,0.37395 -1.80571,0.42451 -1.37997,0.0666 -1.69252,0.003 -1.69252,-0.34285 z m 17.28,0.18785 c 0,-0.82638 4.87442,-1.22316 5.14003,-0.41839 0.0783,0.23719 -0.34347,0.31555 -1.4868,0.27622 -0.87785,-0.0302 -2.05894,0.0506 -2.62466,0.17941 -0.65369,0.1489 -1.02857,0.13533 -1.02857,-0.0372 z M 230.4,122.35011 c 0,-0.14059 0.36681,-0.51681 0.81513,-0.83604 0.44833,-0.31924 1.18223,-1.34593 1.6309,-2.28154 1.03152,-2.15101 3.01128,-4.87341 4.18964,-5.76121 1.16903,-0.88077 3.22062,-1.56347 4.6882,-1.56007 1.98018,0.005 5.24105,1.90008 4.71978,2.74352 -0.13358,0.21613 -0.37396,0.14593 -0.78116,-0.22811 -1.13712,-1.04453 -2.73274,-1.69531 -4.14986,-1.69255 -1.63323,0.003 -3.78615,0.93323 -4.83418,2.08834 -1.05209,1.15958 -2.82592,3.89648 -3.46092,5.33997 -0.6741,1.53236 -2.81753,3.19664 -2.81753,2.18769 z m -3.84,-1.23176 c 0,-0.21462 0.68603,-0.97632 1.52452,-1.69266 2.2241,-1.9001 2.86405,-3.1361 2.86405,-5.5316 0,-1.6999 0.0907,-2.05118 0.72351,-2.80327 0.71313,-0.84751 4.62895,-3.02225 5.44183,-3.02225 0.92452,0 0.3083,0.53944 -1.7082,1.49535 -1.16914,0.55422 -2.46514,1.33159 -2.88,1.72748 -0.68067,0.64956 -0.75428,0.90481 -0.75428,2.61561 0,2.49379 -0.48477,3.47101 -2.85246,5.75013 -1.97445,1.9006 -2.35897,2.13878 -2.35897,1.46121 z m -6.98257,-0.1394 c -0.20801,-0.33656 0.0522,-0.47748 1.32149,-0.71559 0.75836,-0.14227 1.54731,-0.65864 2.80759,-1.83757 1.9043,-1.78138 2.87275,-3.23081 5.04179,-7.54579 1.28983,-2.56594 1.92598,-3.37958 1.92598,-2.46335 0,0.50921 -2.38258,5.27585 -3.62022,7.2427 -1.37774,2.18948 -4.27457,4.9079 -5.6316,5.28476 -1.27739,0.35474 -1.64306,0.36164 -1.84503,0.0348 z m 19.514,-0.47038 c -0.3577,-0.3577 -0.18693,-0.64571 0.38285,-0.64571 0.3192,0 0.52351,0.14377 0.46286,0.32571 -0.13361,0.40083 -0.59159,0.57412 -0.84571,0.32 z m -27.79713,-1.51056 c -0.57987,-0.77739 -1.22748,-1.64717 -1.43915,-1.93287 -0.24458,-0.33011 -0.28935,-0.61495 -0.12282,-0.78148 0.27311,-0.2731 3.11338,3.201 3.11338,3.80815 0,0.65181 -0.52589,0.28104 -1.55141,-1.0938 z m 4.84284,-0.0951 c 0,-0.29844 0.30711,-0.41143 1.11824,-0.41143 1.15872,0 2.00502,-0.61138 3.03742,-2.19429 0.24598,-0.37714 0.55035,-0.58581 0.67637,-0.4637 0.36692,0.35551 -0.77045,2.17289 -1.78688,2.85521 -1.09919,0.73787 -3.04515,0.87476 -3.04515,0.21421 z m -29.21262,-2.05908 c -0.19596,-0.31706 -0.0688,-0.36167 2.28361,-0.80099 2.21743,-0.41412 2.93578,-0.74991 3.29612,-1.54077 0.28024,-0.61506 0.23804,-0.64404 -1.19906,-0.8236 -0.81924,-0.10235 -1.79278,-0.10999 -2.16341,-0.017 -0.80229,0.20136 -1.13987,-0.18308 -0.57351,-0.65312 0.5089,-0.42234 3.99768,-0.11503 4.71795,0.41559 0.479,0.35287 0.47868,0.39949 -0.009,1.31262 -0.58876,1.10244 -1.097,1.40348 -3.32344,1.96855 -1.90559,0.48364 -2.79104,0.52418 -3.02928,0.13869 z m 12.13834,-1.60436 c -1.30193,-0.27009 -2.12572,-0.57577 -2.12572,-0.78878 0,-0.45573 0.8843,-0.43521 2.74286,0.0636 2.62853,0.70553 4.93714,0.4394 4.93714,-0.56914 0,-0.68923 -0.99631,-2.39993 -1.89488,-3.2536 -0.79879,-0.75887 -1.11513,-1.52583 -0.62936,-1.52583 0.34279,0 2.10109,1.95036 2.77055,3.07318 0.55421,0.92952 0.66302,0.98995 1.27804,0.70973 0.36974,-0.16847 0.75252,-0.22603 0.85063,-0.12793 0.19084,0.19084 -2.16903,2.39172 -2.89813,2.70289 -0.71025,0.30312 -2.7577,0.18748 -5.03113,-0.28416 z m 22.01545,-2.54722 c 0.004,-0.37256 2.81642,-1.60649 3.66155,-1.60649 1.06733,0 0.3041,0.7286 -1.26792,1.21039 -0.94157,0.28858 -1.86623,0.5795 -2.0548,0.64649 -0.18857,0.067 -0.34104,-0.0457 -0.33883,-0.25039 z m 13.71026,-0.18947 c 0,-0.29416 2.81703,-2.23987 3.24293,-2.23987 0.56303,0 0.35104,0.42393 -0.55713,1.11413 -1.6549,1.2577 -2.6858,1.6898 -2.6858,1.12574 z m -21.39429,-0.58462 c 0,-0.55366 1.82895,-2.31544 2.88,-2.77424 0.60343,-0.26341 2.19528,-0.6822 3.53745,-0.93065 2.57192,-0.47609 4.70343,-1.40386 7.35036,-3.19933 1.57834,-1.07062 2.14077,-1.27914 2.14077,-0.79368 0,0.36353 -3.63422,2.77387 -5.48572,3.63832 -0.82971,0.38739 -2.60867,0.90944 -3.95324,1.16012 -2.80496,0.52295 -4.18503,1.14316 -5.18312,2.32932 -0.69288,0.82345 -1.2865,1.08652 -1.2865,0.57014 z m 27.64118,-3.17979 c -0.23989,-0.23989 0.53064,-1.76689 0.89158,-1.76689 0.14699,0 0.26724,0.17147 0.26724,0.38104 0,0.51979 -0.92211,1.62256 -1.15882,1.38585 z m 4.45025,-3.36018 c 0,-0.4034 0.77447,-1.28939 0.96262,-1.10124 0.29902,0.29903 -0.1419,1.3231 -0.56967,1.3231 -0.21612,0 -0.39295,-0.0998 -0.39295,-0.22186 z m -5.76,-0.40741 c 0,-0.49129 0.76456,-1.16618 1.0255,-0.90523 0.22878,0.22878 -0.25127,1.04785 -0.70224,1.19817 -0.17779,0.0593 -0.32326,-0.0726 -0.32326,-0.29294 z M 77.30724,158.2721 c 0.270652,-0.1453 0.09221,-0.42774 -0.664081,-1.05114 -0.568799,-0.46885 -1.143712,-0.78476 -1.277585,-0.70203 -0.223035,0.13785 -0.04671,1.58583 0.255478,2.09794 0.12623,0.21392 0.964919,0.0424 1.686188,-0.34477 z m -0.327927,-21.0925 c 0.416002,-0.2418 0.286066,-0.2966 -0.727885,-0.30697 -0.678857,-0.007 -1.974857,-0.19145 -2.88,-0.41 -2.251617,-0.54368 -2.500074,-0.53919 -2.022262,0.0365 0.684677,0.82499 1.948506,1.2105 3.573004,1.0899 0.852909,-0.0633 1.778623,-0.24758 2.057143,-0.40947 z"
       id="path1" />
  </g>
</svg>
