<?xml version="1.0" encoding="UTF-8" standalone="no"?>
<!-- Created with Inkscape (http://www.inkscape.org/) -->

<svg
   version="1.1"
   id="svg1"
   width="294.58286"
   height="294.58286"
   viewBox="0 0 294.58286 294.58286"
   sodipodi:docname="2c-body-outline.svg"
   inkscape:version="1.4 (86a8ad7, 2024-10-11)"
   xmlns:inkscape="http://www.inkscape.org/namespaces/inkscape"
   xmlns:sodipodi="http://sodipodi.sourceforge.net/DTD/sodipodi-0.dtd"
   xmlns="http://www.w3.org/2000/svg"
   xmlns:svg="http://www.w3.org/2000/svg">
  <defs
     id="defs1" />
  <sodipodi:namedview
     id="namedview1"
     pagecolor="#ffffff"
     bordercolor="#000000"
     borderopacity="0.25"
     inkscape:showpageshadow="2"
     inkscape:pageopacity="0.0"
     inkscape:pagecheckerboard="0"
     inkscape:deskcolor="#d1d1d1"
     inkscape:zoom="2.766624"
     inkscape:cx="147.47215"
     inkscape:cy="147.29143"
     inkscape:window-width="1920"
     inkscape:window-height="1017"
     inkscape:window-x="-8"
     inkscape:window-y="-8"
     inkscape:window-maximized="1"
     inkscape:current-layer="g1" />
  <g
     inkscape:groupmode="layer"
     inkscape:label="Image"
     id="g1">
    <path
       style="fill:#000000"
       d="m 240.27428,260.01973 c -3.26607,-0.59695 -5.16097,-1.79736 -13.52909,-8.57067 -1.44604,-1.17045 -2.72726,-2.3003 -2.84717,-2.51078 -0.11991,-0.21049 -2.40209,-2.64714 -5.07151,-5.41478 -2.66942,-2.76764 -5.47259,-5.85337 -6.22927,-6.85719 -1.54202,-2.04563 -2.03365,-2.44251 -4.96296,-4.00648 -3.04322,-1.62478 -6.09297,-3.46205 -9.29,-5.59658 -4.23939,-2.83047 -8.4356,-4.61186 -10.87,-4.61457 -3.29331,-0.004 -8.571,1.40177 -14.94201,3.97898 -6.1424,2.48474 -5.95001,2.36661 -6.41733,3.94024 -0.47398,1.59608 -1.55834,3.38498 -2.41597,3.98568 -1.78258,1.24857 -4.40344,-0.49001 -5.1939,-3.44542 -0.42493,-1.58877 -0.61405,-1.83345 -2.29936,-2.97497 -1.19336,-0.80831 -3.29439,-2.45121 -5.62285,-4.39681 -1.32376,-1.1061 -8.10846,-4.97151 -9.71147,-5.53286 -3.02804,-1.06038 -6.79141,-0.32819 -12.4518,2.42259 -4.43095,2.15331 -5.62476,3.14869 -6.21612,5.1829 -0.30993,1.06612 -0.68453,1.67294 -1.34256,2.17485 -1.83873,1.40246 -3.35625,0.7046 -4.72127,-2.17117 -1.14714,-2.41678 -1.83282,-2.99156 -5.65892,-4.74365 -3.44741,-1.57869 -4.61161,-1.63317 -7.47225,-0.34969 -1.96916,0.8835 -6.607657,4.21029 -7.562031,5.42358 -0.330722,0.42044 -0.543582,1.10964 -0.543582,1.76001 0,2.60578 -1.604598,4.13387 -3.717513,3.54027 -1.384867,-0.38906 -2.105315,-1.00628 -3.058768,-2.62049 -0.748921,-1.26793 -0.820272,-1.31168 -3.098005,-1.89969 -1.282286,-0.33102 -4.015203,-1.36712 -6.07315,-2.30244 -2.057947,-0.93533 -3.995925,-1.70059 -4.306618,-1.70059 -0.310692,0 -1.275707,-0.18514 -2.144477,-0.41143 -0.868769,-0.22629 -2.386791,-0.41202 -3.373382,-0.41274 l -1.793802,-0.001 -2.125714,2.25538 c -1.389299,1.47405 -2.125714,2.47528 -2.125714,2.89012 0,1.83381 -1.589924,3.63425 -3.209308,3.63425 -1.211651,0 -1.858641,-0.34368 -3.373549,-1.79205 -1.13706,-1.08712 -1.407133,-1.20563 -3.428572,-1.50456 -2.868202,-0.42415 -5.490359,-1.21846 -8.365714,-2.53417 -3.977355,-1.81998 -6.367739,-2.31874 -12.81207,-2.6733 -2.596353,-0.14285 -5.263725,-0.39648 -5.927494,-0.56362 -0.688989,-0.17349 -2.002365,-0.91195 -3.060748,-1.72095 -1.595102,-1.21925 -1.965061,-1.67405 -2.650262,-3.25802 -0.438002,-1.01252 -0.890243,-2.37024 -1.00498,-3.01714 -0.114737,-0.6469 -0.170301,-5.80476 -0.123476,-11.4619 0.04683,-5.65714 0.05721,-12.26057 0.02308,-14.67429 -0.03413,-2.41371 -0.04731,-4.82057 -0.02928,-5.34857 0.06804,-1.99231 0.0079,-21.49556 -0.106547,-34.56 -0.142228,-16.2346 -0.142803,-14.60273 0.0063,-17.97713 0.06725,-1.52158 0.302407,-3.18667 0.525418,-3.72041 0.49794,-1.19174 2.094659,-2.48762 4.060716,-3.29565 1.481475,-0.60886 1.56747,-0.61183 20.002157,-0.68901 10.182857,-0.0426 19.625143,-0.15053 20.982857,-0.23976 1.357715,-0.0892 5.677715,-0.27323 9.6,-0.40889 3.922286,-0.13566 7.563429,-0.36641 8.091429,-0.51278 0.528,-0.14637 2.256,-0.33651 3.84,-0.42254 1.584,-0.086 4.237714,-0.41107 5.897143,-0.72232 4.2075,-0.78918 5.625809,-1.00716 8.823883,-1.3561 1.53428,-0.16741 4.59518,-0.7258 6.80201,-1.24088 2.20682,-0.51507 5.20979,-1.12906 6.67326,-1.36441 2.69585,-0.43355 4.18681,-0.76957 5.67799,-1.27967 1.07963,-0.36931 2.01074,-0.62688 4.66286,-1.28987 1.20685,-0.3017 4.29257,-1.22581 6.85714,-2.05358 2.56457,-0.82777 5.77371,-1.83686 7.13143,-2.24241 1.35771,-0.40555 4.01143,-1.27336 5.89714,-1.92846 5.49448,-1.9088 5.71073,-1.97925 9.73714,-3.17213 2.112,-0.6257 4.272,-1.35337 4.8,-1.61703 0.528,-0.26366 1.62317,-0.61996 2.4337,-0.79179 0.81053,-0.17182 2.35339,-0.66203 3.42857,-1.08934 1.07518,-0.427312 2.32516,-0.865329 2.77773,-0.97337 0.45257,-0.108041 2.18057,-0.701565 3.84,-1.318941 1.65943,-0.617377 3.75772,-1.389926 4.66286,-1.716777 3.50557,-1.265877 7.34353,-3.202008 9.36313,-4.723411 0.47314,-0.356431 4.23772,-2.362384 8.36571,-4.457672 4.128,-2.095288 8.70406,-4.440195 10.16904,-5.210905 1.46497,-0.770711 3.43983,-1.6967 4.38857,-2.057755 0.94874,-0.361055 2.92639,-1.221335 4.39478,-1.911734 1.4684,-0.690399 2.84443,-1.255271 3.05786,-1.255271 0.21344,0 1.11031,-0.378049 1.99306,-0.840109 1.11072,-0.581389 2.78756,-2.010981 5.44499,-4.64214 5.45427,-5.400335 10.09358,-9.054894 11.49483,-9.054894 0.34423,0 0.861,-0.26072 1.14838,-0.579377 0.98279,-1.089751 5.72374,-4.768351 6.94187,-5.386337 1.05395,-0.534693 1.64183,-0.617143 4.40038,-0.617143 3.70761,0 4.55611,0.324729 4.26862,1.633647 -0.144,0.655623 -0.0528,0.804419 0.67909,1.107561 1.25,0.517771 1.92398,1.525834 1.92398,2.877709 0,1.887455 0.44981,2.784863 1.63323,3.258371 1.14092,0.456505 2.20677,1.608136 2.20677,2.384371 0,0.269796 -0.30858,0.857254 -0.68572,1.305462 -0.77897,0.925757 -0.85347,1.298385 -0.30189,1.510045 0.2111,0.08101 0.53924,0.618784 0.72919,1.195059 0.18996,0.576276 0.84198,1.705878 1.44895,2.510227 1.09289,1.448311 1.09896,1.469529 0.62727,2.194286 -1.35113,2.076007 -1.38265,2.327607 -0.85725,6.842187 0.58958,5.066025 0.70432,14.111126 0.19215,15.146789 -0.57373,1.160138 -1.82972,3.390342 -2.33906,4.153382 l -0.48382,0.72481 1.68565,1.46613 c 1.88022,1.63537 2.72738,3.02745 2.72738,4.48172 0,0.65858 0.18797,1.12806 0.58091,1.45093 0.31951,0.26252 0.85254,1.05187 1.18451,1.75411 0.33198,0.70224 0.94111,1.68967 1.35362,2.19429 2.27616,2.7844 3.22591,4.36708 3.44237,5.73637 0.19217,1.21566 0.41505,1.59068 1.59608,2.68561 0.93012,0.86231 1.74942,2.02437 2.54104,3.60408 0.64258,1.28228 1.38492,2.57828 1.64966,2.88 0.84479,0.96279 1.58735,2.72068 1.91687,4.53784 0.26971,1.48739 0.50765,1.96568 1.51207,3.03948 0.74875,0.80048 1.24558,1.61744 1.33614,2.19707 0.72197,4.62121 0.72305,4.62479 1.82508,6.07216 1.16567,1.53094 1.76942,3.1843 1.52233,4.16882 -0.0919,0.36629 -0.58881,0.80165 -1.26068,1.10463 -0.71888,0.32417 -1.16731,0.73263 -1.27489,1.16127 -0.0913,0.36367 -0.0388,2.47287 0.11666,4.68711 0.26728,3.80748 0.93234,6.72912 2.22759,9.7859 1.63005,3.8469 2.19013,5.69429 2.37064,7.81931 0.11635,1.3697 0.41002,2.75052 0.71287,3.35182 0.68335,1.35682 1.33447,4.53332 1.32614,6.46966 -0.015,3.49525 -1.54857,7.06969 -4.05299,9.44684 -1.76324,1.67364 -4.88303,3.37861 -6.72792,3.67683 -0.91011,0.14711 -1.02748,0.24712 -0.87837,0.74839 0.0947,0.31822 0.31291,1.85074 0.485,3.40559 0.24098,2.17738 0.23615,3.1985 -0.021,4.44359 -0.47408,2.29524 -2.01793,6.77172 -2.83719,8.22654 -1.32887,2.3598 -2.33254,3.9879 -3.58549,5.81618 -0.69317,1.01147 -1.71807,2.67775 -2.27754,3.70286 -1.18415,2.16967 -2.60002,4.28387 -4.92197,7.34953 -1.91148,2.52375 -2.64652,3.63502 -4.17274,6.30858 -2.06263,3.61322 -3.45441,5.76096 -5.12551,7.90949 -3.07613,3.95501 -3.56598,5.38773 -2.322,6.79139 0.91656,1.03421 1.59756,2.74508 1.60414,4.03004 0.0113,2.2038 -1.68736,4.43503 -3.77788,4.96241 -1.53801,0.38799 -5.24865,0.55765 -6.63896,0.30354 z m 6.78497,-1.78285 c 0.73515,-0.29415 1.27208,-0.77087 1.67433,-1.48658 0.99883,-1.77719 0.70596,-3.5487 -0.85405,-5.16599 -0.98574,-1.02193 -1.04017,-1.93623 -0.28959,-4.86431 0.59277,-2.31243 0.36323,-4.49708 -0.73555,-7.00055 -1.07274,-2.44416 -1.15085,-4.05048 -0.3117,-6.41018 0.74829,-2.10418 1.06183,-2.4174 3.71226,-3.70841 2.51291,-1.22403 3.97041,-2.50923 4.77459,-4.21015 0.88599,-1.87397 1.68115,-2.43673 3.74479,-2.65032 0.98904,-0.10237 1.94234,-0.3302 2.11843,-0.50629 0.17609,-0.17609 0.53881,-1.18114 0.80604,-2.23345 0.62082,-2.44461 1.16895,-3.2606 2.60326,-3.87541 0.63611,-0.27267 1.22217,-0.72097 1.30235,-0.99622 0.0802,-0.27525 0.28042,-1.02164 0.44495,-1.65865 0.1673,-0.64768 0.89445,-1.89994 1.64967,-2.84096 1.03871,-1.29426 1.38776,-1.97672 1.51188,-2.95608 0.0888,-0.70033 0.39747,-2.13733 0.68602,-3.19333 0.79083,-2.89424 0.8908,-3.76661 0.53463,-4.66571 -0.83499,-2.10782 -0.82064,-2.59864 0.10518,-3.59683 0.74202,-0.80004 1.18405,-0.99642 3.02563,-1.34421 5.93667,-1.12115 10.14385,-5.52913 10.52003,-11.02214 0.19966,-2.91535 -0.45442,-6.03073 -1.60152,-7.62804 -0.78294,-1.09022 -0.85598,-1.36923 -0.81976,-3.13128 0.0341,-1.65708 -0.08,-2.17175 -0.79587,-3.58979 -0.45959,-0.91045 -1.24561,-2.11458 -1.7467,-2.67583 -0.54891,-0.61482 -0.97609,-1.43616 -1.07464,-2.06623 -0.09,-0.57518 -0.53402,-1.60504 -0.98678,-2.28859 -1.04696,-1.58062 -1.53849,-3.72287 -1.53203,-6.67707 0.004,-1.76361 0.13203,-2.56523 0.52625,-3.29142 0.40819,-0.75193 0.59049,-2.00039 0.8411,-5.76 0.31361,-4.70479 0.30758,-4.83537 -0.30407,-6.58286 -0.48843,-1.39545 -0.92077,-2.05146 -1.9896,-3.01894 -0.92957,-0.84142 -1.55367,-1.71329 -1.9547,-2.73071 -0.32402,-0.82205 -1.13635,-2.27744 -1.80518,-3.23421 -0.66882,-0.95676 -1.21604,-1.95619 -1.21604,-2.22096 0,-0.67502 -1.46735,-2.59559 -2.33982,-3.06253 -0.63554,-0.34013 -0.70849,-0.51336 -0.573,-1.36067 0.0854,-0.53401 -0.0251,-1.64873 -0.24557,-2.47717 -0.22045,-0.82843 -0.4031,-1.93824 -0.40588,-2.46624 -0.005,-0.93475 -0.44463,-1.80691 -1.45939,-2.89477 -0.68422,-0.73351 -1.67311,-2.19362 -2.5806,-3.81034 -0.4188,-0.7461 -1.10089,-1.66844 -1.51574,-2.04965 -0.43951,-0.40386 -0.75493,-0.9824 -0.75582,-1.38632 -0.004,-1.79266 -0.58831,-2.87862 -2.52669,-4.69559 -2.27149,-2.12921 -2.33311,-2.44478 -0.92913,-4.758622 0.54383,-0.896268 0.98878,-1.846706 0.98878,-2.112085 0,-0.265379 0.216,-0.603391 0.48,-0.751139 0.42444,-0.237541 0.48301,-0.781142 0.50602,-4.696778 l 0.026,-4.428146 -1.46602,-2.911511 C 255.812,83.07979 255.36,81.856438 255.36,81.125841 c 0,-1.296151 0.89305,-3.126955 1.64111,-3.364382 0.30425,-0.09656 0.55317,-0.323365 0.55317,-0.504005 0,-0.180639 0.25217,-0.798931 0.56038,-1.37398 0.30821,-0.57505 0.49372,-1.25556 0.41226,-1.512245 -0.0815,-0.256685 -0.76564,-1.114126 -1.52038,-1.905425 -0.8832,-0.925983 -1.38955,-1.705241 -1.4208,-2.186551 -0.0267,-0.411304 -0.0752,-1.255877 -0.10784,-1.876829 -0.0625,-1.190414 -0.42299,-2.078053 -1.21228,-2.985282 -0.63867,-0.734096 -1.37419,-3.013034 -1.37419,-4.257778 0,-1.294306 -0.66189,-1.894104 -2.37405,-2.151349 -1.78358,-0.267975 -5.11621,0.361707 -6.67738,1.261654 -1.69242,0.975604 -4.03137,2.806772 -5.34857,4.187405 -0.60343,0.632485 -1.71429,1.564805 -2.46857,2.071821 -0.75429,0.507017 -2.72915,1.912611 -4.38858,3.123543 -2.1869,1.595842 -4.67762,3.023169 -9.05142,5.186971 -3.31886,1.641903 -6.528,3.14197 -7.13143,3.333484 -0.60343,0.191513 -1.80128,0.700491 -2.66189,1.131062 -0.86061,0.430571 -2.40292,1.098342 -3.42735,1.483937 -1.02443,0.385595 -3.40601,1.513494 -5.2924,2.506442 -1.88638,0.992948 -6.53645,3.37462 -10.33349,5.292603 -3.79703,1.917983 -7.26215,3.788866 -7.70027,4.157517 -1.14392,0.96255 -7.14281,3.896339 -10.35603,5.064676 -1.50857,0.548521 -3.54514,1.29834 -4.52572,1.666263 -0.98057,0.367924 -2.4,0.840707 -3.15428,1.050627 -1.70994,0.47589 -5.92324,1.8866 -8.64,2.89287 -1.13143,0.41907 -3.6,1.20879 -5.48572,1.75493 -3.69649,1.07058 -3.62097,1.04586 -8.0679,2.64094 -1.64649,0.59059 -4.48535,1.51243 -6.30857,2.04854 -1.82323,0.53612 -5.35153,1.64601 -7.84067,2.46644 -2.48914,0.82042 -5.328,1.67461 -6.30857,1.89819 -0.98057,0.22359 -2.65,0.70213 -3.70985,1.06344 -1.05984,0.3613 -3.40499,0.92853 -5.21143,1.26049 -1.80644,0.33197 -5.44443,1.08401 -8.08443,1.67119 -2.64,0.58719 -6.15772,1.20085 -7.81715,1.36369 -1.659425,0.16284 -4.621711,0.60687 -6.582853,0.98672 -1.961143,0.37986 -4.861715,0.80569 -6.445715,0.94631 -4.805589,0.4266 -5.825354,0.54539 -6.090893,0.7095 -0.140039,0.0866 -3.609734,0.26778 -7.710433,0.40275 -4.100699,0.13496 -8.875245,0.30532 -10.610102,0.37858 -5.052119,0.21335 -31.431302,0.245 -31.76604,0.0381 -0.542821,-0.33549 -6.430463,0.41523 -7.801671,0.99476 -0.717669,0.30332 -1.655018,0.95031 -2.082997,1.43775 -0.687926,0.78351 -0.78488,1.12135 -0.836236,2.91394 -0.03195,1.11522 -0.174824,2.55091 -0.317497,3.19041 -0.168467,0.75513 -0.154342,2.34167 0.0403,4.52572 0.164835,1.84963 0.257629,5.02926 0.206208,7.06583 l -0.09349,3.70286 5.211428,-0.0453 c 2.866286,-0.0249 5.581714,-0.15707 6.034286,-0.29371 1.309989,-0.39551 2.282389,-2.06361 2.832642,-4.85926 0.322064,-1.6363 0.635874,-2.53251 0.956822,-2.73259 0.348035,-0.21697 0.531263,-0.21203 0.675487,0.0182 0.108848,0.17376 0.100284,3.19776 -0.01903,6.72 -0.119316,3.52223 -0.107893,8.37891 0.02538,10.79263 0.133277,2.41371 0.169185,5.376 0.0798,6.58286 -0.141696,1.91305 -0.229091,2.19428 -0.681876,2.19428 -0.429766,0 -0.668641,-0.54708 -1.384857,-3.17164 -1.0438,-3.825 -1.640901,-4.78059 -3.136598,-5.01976 -2.460326,-0.39342 -8.166113,-0.75843 -9.269433,-0.59297 l -1.186906,0.17798 -0.03886,6.08606 c -0.02137,3.34732 -0.01803,7.56719 0.0074,9.37747 0.02547,1.81029 0.01952,4.40229 -0.01321,5.76 -0.09465,3.92614 -0.01723,7.29815 0.171904,7.48728 0.225025,0.22503 11.890618,0.19769 12.116701,-0.0284 0.09406,-0.0941 0.347532,-1.37878 0.56327,-2.85495 0.383227,-2.62218 0.823584,-3.62311 1.429289,-3.24876 0.165333,0.10218 0.300606,0.59729 0.300606,1.10025 0,0.59365 0.157439,0.97488 0.448764,1.08667 0.411643,0.15796 0.409653,0.21543 -0.02406,0.69468 -0.276354,0.30536 -0.573073,1.30026 -0.714076,2.39428 -0.320438,2.48623 -0.303159,10.32867 0.02618,11.88324 0.143818,0.67886 0.321116,2.28343 0.393994,3.56571 0.07288,1.28229 0.204392,2.85692 0.292251,3.49919 0.12927,0.94498 0.06984,1.20225 -0.31152,1.3486 -0.308438,0.11835 -0.639349,-0.0267 -0.957754,-0.41995 -0.387995,-0.47916 -0.489397,-1.13702 -0.500845,-3.24932 -0.0079,-1.45669 -0.145652,-3.04636 -0.306128,-3.53261 -0.260227,-0.78849 -0.419316,-0.89438 -1.471388,-0.97928 -1.50063,-0.1211 -10.829199,0.24419 -11.351191,0.4445 -0.332769,0.12769 -0.369483,1.3886 -0.241915,8.30828 0.17866,9.69113 0.316622,10.33823 2.748731,12.89271 1.89839,1.9939 2.754103,2.25554 8.320617,2.54411 2.690085,0.13945 5.938308,0.43872 7.218273,0.66504 5.139425,0.90872 10.575009,0.29111 20.56721,-2.33693 3.11384,-0.81897 4.625161,-1.04902 8.155364,-1.2414 3.03912,-0.16562 4.428992,-0.0535 8.85035,0.7137 0.829714,0.14398 3.707772,0.39327 6.395684,0.55399 6.357263,0.38012 7.910303,0.10409 13.078602,-2.32458 6.099176,-2.8661 8.238796,-3.13813 23.222506,-2.9525 6.39541,0.0792 8.03179,-0.0275 14.15991,-0.9237 3.36718,-0.49243 5.75584,-0.49059 8.56566,0.007 2.39734,0.4242 7.4089,1.70679 8.08693,2.06967 0.23294,0.12466 1.20841,0.43004 2.16772,0.67863 1.61194,0.41769 6.93863,2.43387 7.5687,2.86479 0.31173,0.21319 2.98155,1.08859 5.62286,1.84367 1.45872,0.417 2.70538,0.50721 6.85714,0.4962 2.79086,-0.007 6.65772,-0.11836 8.59303,-0.24656 7.27813,-0.48211 11.94816,0.90109 19.13047,5.66621 1.72351,1.14346 4.61479,2.91274 6.42507,3.93174 5.42018,3.05098 5.82446,3.35326 7.59411,5.67797 0.91303,1.19941 2.43304,2.94007 3.3778,3.86814 0.94476,0.92806 3.2154,3.27636 5.04587,5.21844 4.63336,4.91586 12.57399,11.47188 15.38794,12.70473 2.16337,0.94783 3.42425,1.17036 5.9371,1.04784 1.37969,-0.0673 2.99551,-0.31716 3.59072,-0.55531 z m 5.39719,-18.09974 c 1.09907,-1.65943 2.58361,-4.0757 3.29899,-5.36949 0.71537,-1.29379 2.51173,-3.99905 3.99191,-6.01169 1.48017,-2.01264 3.64875,-5.27408 4.81907,-7.24765 1.17031,-1.97357 2.424,-3.94613 2.78597,-4.38347 0.36197,-0.43734 1.027,-1.48648 1.47784,-2.33143 0.45084,-0.84495 1.12189,-2.02998 1.49123,-2.63341 0.36933,-0.60343 1.12525,-2.45486 1.67982,-4.11429 0.92793,-2.77666 1.00834,-3.26855 1.00884,-6.17143 5.1e-4,-2.88658 -0.39122,-5.22541 -0.87138,-5.2027 -0.10145,0.005 -0.39863,0.17136 -0.6604,0.37014 -0.44962,0.34141 -0.44381,0.45662 0.10496,2.08161 l 0.58092,1.7202 -0.61055,2.36681 c -0.3358,1.30174 -0.75893,3.2308 -0.94029,4.2868 -0.36559,2.12866 -0.45007,2.31207 -1.78925,3.88429 -0.52019,0.6107 -1.25118,2.00229 -1.64572,3.13294 -0.6745,1.93294 -0.77569,2.06565 -2.03282,2.66602 -1.39326,0.66538 -1.86826,1.38757 -2.24917,3.41956 -0.13775,0.73483 -0.51664,1.31051 -1.3088,1.98857 -0.96212,0.82354 -1.30984,0.95434 -2.53714,0.95434 -1.78608,0 -2.59683,0.59352 -3.49719,2.56014 -0.47432,1.03607 -1.04712,1.72552 -2.00575,2.41424 -1.77652,1.27632 -3.81516,2.43133 -4.29142,2.43133 -0.67738,0 -1.51526,1.18707 -2.12687,3.01327 -0.70137,2.09419 -0.62391,2.89677 0.54775,5.67546 0.45657,1.08279 0.91088,2.74133 1.00958,3.68563 l 0.17945,1.71691 0.79606,-0.94278 c 0.43783,-0.51853 1.69529,-2.30049 2.79436,-3.95992 z m -88.7053,-7.86421 c 0.45587,-0.62932 0.90561,-1.62422 0.99943,-2.2109 0.25647,-1.60387 1.29352,-2.423 4.93621,-3.89895 1.7877,-0.72435 3.62065,-1.47328 4.07322,-1.66431 1.91654,-0.80894 3.42114,-1.33994 5.48571,-1.93599 l 2.19429,-0.6335 -2.46857,0.18965 c -1.35772,0.1043 -4.62857,0.18964 -7.26857,0.18964 -4.99711,0 -5.09468,-0.0152 -10.14858,-1.57572 -0.98057,-0.30278 -3.07885,-1.11066 -4.66285,-1.79529 -3.83491,-1.65749 -10.84833,-3.7911 -15.21661,-4.62916 -2.07499,-0.39809 -6.42453,-0.39449 -8.37196,0.007 -0.37715,0.0777 -2.46311,0.34095 -4.63547,0.58492 -3.05445,0.34302 -6.16311,0.4281 -13.71429,0.37535 -9.10959,-0.0636 -9.94045,-0.029 -12.38729,0.51699 -2.52989,0.56448 -6.813968,2.22117 -7.663455,2.96352 -0.67561,0.59041 -1.90263,0.97084 -4.799498,1.48805 -3.791712,0.67699 -7.009138,0.52518 -17.691429,-0.83475 -3.694489,-0.47033 -9.850909,-0.0533 -12.157132,0.82354 -1.768817,0.6725 -9.646618,2.30129 -14.034021,2.90162 l -1.368296,0.18723 0.819724,0.43084 c 1.675551,0.88067 4.160326,1.73533 5.756868,1.98013 0.905143,0.13879 2.435824,0.3874 3.401514,0.55246 0.96569,0.16506 2.107405,0.22288 2.537143,0.1285 0.968242,-0.21266 1.121383,0.53609 0.1642,0.80282 -0.596756,0.1663 -0.583299,0.2036 0.407401,1.12914 1.282048,1.19772 2.385794,1.27842 3.206977,0.23445 0.318319,-0.40468 0.568479,-1.12729 0.568479,-1.64212 0,-0.75526 0.364977,-1.32963 2.044258,-3.21707 2.589776,-2.91079 3.406025,-3.32211 6.16611,-3.10717 3.494544,0.27214 6.034843,0.9552 9.366468,2.51852 2.826284,1.32619 4.27682,1.84257 7.282242,2.59242 0.472492,0.11788 0.982713,0.29074 1.133823,0.38414 0.151111,0.0934 0.844679,-0.002 1.541263,-0.21137 0.834461,-0.25113 1.325172,-0.28625 1.438459,-0.10295 0.202318,0.32736 -0.386695,0.75526 -1.047864,0.76125 -1.663294,0.0151 0.09458,3.02033 2.013167,3.44173 1.285781,0.2824 1.998966,-0.6393 1.772595,-2.29086 -0.162355,-1.1845 -0.152161,-1.20216 1.823106,-3.15749 1.092505,-1.08148 2.629992,-2.45413 3.416637,-3.05035 0.786646,-0.59621 1.380831,-1.13345 1.320423,-1.19386 -0.08663,-0.0866 -1.748819,0.64052 -3.504973,1.53331 -0.113142,0.0575 -0.205714,-0.0888 -0.205714,-0.32509 0,-0.60095 2.301471,-1.70286 5.145685,-2.46368 3.21731,-0.86061 9.49235,-1.94045 10.04463,-1.72853 0.83655,0.32102 0.44411,0.73616 -0.72174,0.7635 -2.80171,0.0657 -2.71303,0.3161 0.62255,1.75786 3.65996,1.58196 4.72541,2.50349 6.06897,5.24919 0.75308,1.53898 1.05092,1.89508 1.64237,1.96362 0.80913,0.0938 1.88325,-0.99971 1.88325,-1.91719 0,-1.63498 1.90398,-3.38977 5.89728,-5.43517 1.48571,-0.761 2.83404,-1.48459 2.99629,-1.60798 0.6162,-0.46864 5.60226,-1.68689 7.59272,-1.85514 2.71204,-0.22925 4.00397,0.20277 8.35543,2.79404 1.84741,1.10013 3.738,2.19625 4.20129,2.43583 0.4633,0.23958 1.58754,1.10051 2.49831,1.91318 0.91077,0.81266 2.74565,2.22392 4.07751,3.13613 l 2.42157,1.65857 0.60689,1.92294 c 0.63437,2.01001 1.73327,3.31678 2.78918,3.31678 0.30172,0 0.87903,-0.48762 1.35467,-1.14421 z m -1.64828,-3.7632 c 0,-0.34204 1.3106,-0.63457 1.94332,-0.43376 0.94608,0.30028 0.55092,0.67831 -0.70904,0.67831 -0.67886,0 -1.23428,-0.11004 -1.23428,-0.24455 z M 59.245714,225.46808 c 0,-0.14798 0.295046,-0.34311 0.655658,-0.43362 0.360612,-0.0905 1.000848,-0.52486 1.422745,-0.96522 0.841158,-0.87798 1.213025,-1.00602 1.213025,-0.41766 0,0.59905 -1.864064,2.08556 -2.615258,2.08556 -0.371894,0 -0.67617,-0.12108 -0.67617,-0.26906 z M 80.914285,222.72 c 0,-0.15238 0.731429,-0.27429 1.645714,-0.27429 0.914286,0 1.645715,0.12191 1.645715,0.27429 0,0.15238 -0.731429,0.27428 -1.645715,0.27428 -0.914285,0 -1.645714,-0.1219 -1.645714,-0.27428 z m 35.382855,-0.37835 c 0,-0.59724 4.17314,-1.01499 4.52075,-0.45255 0.19239,0.3113 -0.44946,0.46498 -2.80646,0.67195 -1.32992,0.11679 -1.71429,0.0676 -1.71429,-0.2194 z M 29.253565,195.29143 h 3.66072 l -0.0019,-2.4 c -0.0011,-1.32 -0.07996,-3.2259 -0.175302,-4.23532 l -0.173351,-1.83532 -5.996127,0.0203 -5.996128,0.0203 v 4.39323 4.39322 l 2.510709,-0.17822 c 1.38089,-0.098 4.158032,-0.17821 6.171428,-0.17821 z m 248.838075,-35.04 c -0.26558,-1.01829 -0.49188,-2.83886 -0.50289,-4.04572 -0.0253,-2.77091 -0.38605,-3.47997 -0.79661,-1.56561 -0.24721,1.1527 -0.20341,1.81521 0.26055,3.94097 0.44373,2.03313 1.06809,3.52179 1.47708,3.52179 0.0246,0 -0.17255,-0.83315 -0.43813,-1.85143 z M 34.783249,156.20571 c -0.128843,-1.50857 -0.165053,-4.59428 -0.08047,-6.85714 0.120872,-3.23361 0.08448,-3.99686 -0.170033,-3.56571 -0.178104,0.30171 -0.51296,0.76693 -0.744125,1.03382 -0.281211,0.32467 -0.437752,1.14562 -0.473035,2.48073 -0.029,1.0975 -0.141147,3.05686 -0.249208,4.35411 l -0.196474,2.35865 1.023769,1.54191 c 0.563072,0.84805 1.046283,1.50919 1.073801,1.4692 0.02752,-0.04 -0.05538,-1.307 -0.184227,-2.81557 z m -2.642534,-1.37143 c 0.122425,-0.45257 0.303966,-2.21682 0.403425,-3.92056 l 0.180834,-3.0977 -1.893916,0.2177 c -1.041653,0.11974 -3.837915,0.21617 -6.213915,0.2143 l -4.32,-0.003 3.29e-4,3.43198 3.28e-4,3.43198 3.633957,0.0635 c 1.998676,0.0349 4.2511,0.1774 5.005386,0.31668 2.298491,0.4244 2.94761,0.2918 3.203572,-0.65443 z m 247.904995,-7.20299 c 0,-0.23585 -0.33298,-0.99508 -0.73996,-1.68719 -0.71499,-1.21594 -0.74645,-1.23526 -0.93265,-0.57267 -0.10599,0.37714 -0.20501,1.39126 -0.22005,2.2536 l -0.0273,1.5679 0.96,-0.56642 c 0.528,-0.31152 0.96,-0.75937 0.96,-0.99522 z m -6.43847,-15.39263 c -0.10016,-0.45602 -0.68565,-1.60656 -1.30109,-2.55675 -0.61543,-0.95019 -1.29746,-2.15271 -1.51562,-2.67226 -0.472,-1.12411 -2.29929,-3.86345 -2.92169,-4.38 -0.38948,-0.32324 -0.44027,-0.25789 -0.44027,0.56643 0,0.75091 0.24219,1.15974 1.24741,2.10569 1.3355,1.25675 2.31561,2.66905 2.31728,3.33911 5.6e-4,0.22676 0.41871,0.99978 0.92921,1.71782 0.51051,0.71803 1.08255,1.67817 1.27121,2.13363 0.42126,1.01702 0.66043,0.87033 0.41356,-0.25367 z M 257.6726,81.668571 c -0.21295,-2.238192 -0.39164,-2.744847 -0.69492,-1.970365 -0.36159,0.923341 -0.2627,2.239864 0.23375,3.112117 0.264,0.463843 0.51833,0.844131 0.56518,0.845085 0.0469,9.54e-4 4e-5,-0.893123 -0.10401,-1.986837 z m -31.95575,-9.805714 c 3.52425,-1.938084 8.84975,-5.772923 12.1921,-8.779405 3.64184,-3.275867 6.7953,-5.056712 9.46605,-5.345727 2.17929,-0.235832 2.77357,-0.384001 2.77357,-0.691522 0,-0.159443 -1.21874,-0.269061 -2.99146,-0.269061 h -2.99146 l -2.1514,1.44 c -1.18327,0.792 -3.39393,2.705143 -4.91259,4.251429 -2.45231,2.496923 -3.41023,3.233077 -3.41023,2.620723 0,-0.104888 0.33166,-0.536888 0.73703,-0.96 1.5571,-1.625269 -0.19511,-0.693861 -3.51405,1.867923 -2.00804,1.549948 -8.30304,7.42289 -7.72322,7.205404 0.15467,-0.05801 1.29121,-0.660907 2.52566,-1.339764 z"
       id="path1" />
  </g>
</svg>
