<?xml version="1.0" encoding="UTF-8" standalone="no"?>
<!-- Created with Inkscape (http://www.inkscape.org/) -->

<svg
   version="1.1"
   id="svg1"
   width="294.58286"
   height="294.58286"
   viewBox="0 0 294.58286 294.58286"
   sodipodi:docname="2c-medium-a.svg"
   inkscape:version="1.4 (86a8ad7, 2024-10-11)"
   xmlns:inkscape="http://www.inkscape.org/namespaces/inkscape"
   xmlns:sodipodi="http://sodipodi.sourceforge.net/DTD/sodipodi-0.dtd"
   xmlns:xlink="http://www.w3.org/1999/xlink"
   xmlns="http://www.w3.org/2000/svg"
   xmlns:svg="http://www.w3.org/2000/svg">
  <defs
     id="defs1">
    <linearGradient
       id="linearGradient1"
       inkscape:collect="always">
      <stop
         style="stop-color:#000000;stop-opacity:0;"
         offset="0.17685589"
         id="stop2" />
      <stop
         style="stop-color:#000000;stop-opacity:1;"
         offset="0.63755459"
         id="stop1" />
    </linearGradient>
    <linearGradient
       inkscape:collect="always"
       xlink:href="#linearGradient1"
       id="linearGradient2"
       x1="35.124106"
       y1="133.49579"
       x2="260.20964"
       y2="133.49579"
       gradientUnits="userSpaceOnUse" />
  </defs>
  <sodipodi:namedview
     id="namedview1"
     pagecolor="#ffffff"
     bordercolor="#000000"
     borderopacity="0.25"
     inkscape:showpageshadow="2"
     inkscape:pageopacity="0.0"
     inkscape:pagecheckerboard="0"
     inkscape:deskcolor="#d1d1d1"
     inkscape:zoom="2.766624"
     inkscape:cx="147.47215"
     inkscape:cy="147.29143"
     inkscape:window-width="1920"
     inkscape:window-height="1017"
     inkscape:window-x="-8"
     inkscape:window-y="-8"
     inkscape:window-maximized="1"
     inkscape:current-layer="g1" />
  <g
     inkscape:groupmode="layer"
     inkscape:label="Image"
     id="g1">
    <path
       style="fill:url(#linearGradient2)"
       d="m 37.117569,166.02025 c -0.479051,-0.06 -0.991796,-0.25625 -1.139432,-0.43611 -0.452178,-0.55084 -0.847431,-4.77273 -0.548261,-5.85623 0.179092,-0.64862 0.169339,-1.57443 -0.02944,-2.79464 -0.384243,-2.35867 -0.375596,-4.06659 0.0752,-14.85327 0.09593,-2.29537 0.453614,-3.19989 1.409007,-3.56313 0.66667,-0.25347 6.433501,0.27703 9.058216,0.83328 0.754286,0.15985 2.162903,0.21035 3.130261,0.11222 1.609289,-0.16326 1.877479,-0.28815 3.154285,-1.46889 2.316076,-2.14181 2.543469,-2.23385 4.43348,-1.79447 4.104962,0.9543 8.861485,0.7347 11.749352,-0.54245 l 1.525551,-0.67468 3.226392,0.68386 c 3.684861,0.78103 4.749708,0.67064 6.92925,-0.71834 2.234146,-1.42378 2.642924,-1.48622 4.286337,-0.65473 l 1.454351,0.73583 1.998228,-0.74226 c 3.322463,-1.23415 3.758269,-1.28901 6.708076,-0.84439 1.482726,0.22349 3.313008,0.40996 4.067294,0.41439 0.754285,0.004 3.601246,0.2342 6.326566,0.51062 l 4.95514,0.50258 1.89449,1.14262 c 1.04197,0.62845 2.06226,1.07825 2.2673,0.99957 0.20504,-0.0787 0.47781,-0.14306 0.60617,-0.14306 0.12835,0 0.31159,-0.24645 0.40719,-0.54767 0.27013,-0.85112 2.45714,-2.01696 3.36467,-1.79363 0.86153,0.21201 2.84567,1.32196 3.45834,1.93464 1.0193,1.01929 3.07704,2.40837 4.10494,2.77103 1.46057,0.51532 2.47025,0.27206 3.7051,-0.89269 1.85406,-1.74881 2.99194,-2.3629 5.05261,-2.72683 3.251,-0.57414 5.20324,-1.09008 6.48251,-1.71319 0.66433,-0.32358 1.65176,-0.66818 2.19428,-0.76576 0.54253,-0.0976 1.10984,-0.27102 1.26069,-0.38541 0.15086,-0.1144 1.18767,-0.5944 2.30402,-1.06667 2.05148,-0.86789 4.51181,-2.46727 7.0217,-4.56455 1.73054,-1.44606 2.15169,-1.6539 3.84,-1.895 1.18189,-0.16879 1.56096,-0.39371 2.74285,-1.62748 1.6301,-1.70165 4.57873,-3.52343 5.28001,-3.2622 0.264,0.0983 1.09714,0.63967 1.85142,1.20296 1.72308,1.28676 2.75801,1.47329 5.36982,0.96781 2.32381,-0.44974 6.97126,-2.15604 7.72136,-2.83488 0.26856,-0.24303 0.62407,-0.94616 0.79003,-1.56249 0.47919,-1.77957 1.20272,-2.98292 2.52807,-4.20459 1.98058,-1.82563 3.47653,-2.43588 6.86332,-2.79977 1.63649,-0.17583 3.21655,-0.46747 3.51123,-0.64809 0.29468,-0.18062 1.50968,-1.45562 2.70001,-2.83334 3.27449,-3.78999 5.31129,-4.5401 7.92169,-2.91739 0.70964,0.44114 1.96705,1.12225 2.79423,1.51356 1.46697,0.69399 1.54429,0.70169 3.14353,0.313 0.90176,-0.21917 2.99728,-0.46078 4.65671,-0.53691 5.7343,-0.26309 7.0832,-0.50912 9.67876,-1.76537 2.60994,-1.26321 5.05017,-2.05412 7.60124,-2.46366 3.04919,-0.48951 9.31908,-1.06188 10.14857,-0.92646 2.08784,0.34086 3.7206,0.78365 5.56072,1.508 2.13382,0.83997 3.09494,0.81116 5.42557,-0.16264 l 0.92486,-0.38643 1.94594,1.94594 c 1.94915,1.94915 2.60249,2.90007 3.03955,4.42403 0.4256,1.48396 0.0504,2.09523 -1.80129,2.93484 -1.76967,0.80241 -2.73602,1.83722 -4.79601,5.13582 -1.18534,1.89805 -3.34839,3.77107 -4.77904,4.13823 -4.08746,1.04902 -5.83592,1.37453 -8.26315,1.53832 -1.50857,0.1018 -3.44116,0.3613 -4.29463,0.57666 -0.85347,0.21536 -2.57568,0.58579 -3.82714,0.82319 -1.25145,0.23739 -3.60483,0.96602 -5.22974,1.61916 -1.62491,0.65315 -4.30806,1.51122 -5.96257,1.90683 -1.6545,0.39561 -3.35482,0.90009 -3.77848,1.12107 -0.42367,0.22097 -0.91786,0.40253 -1.0982,0.40346 -0.18035,9.3e-4 -0.79609,0.89265 -1.36831,1.9816 -1.26846,2.41389 -3.55505,4.81204 -5.57535,5.84737 -1.45562,0.74596 -1.62847,0.76948 -5.20844,0.70849 -2.03657,-0.0347 -4.10758,-0.0777 -4.60224,-0.0957 -0.74636,-0.027 -1.1197,0.20317 -2.19429,1.353 l -1.2949,1.38557 -2.4836,0.18707 -2.4836,0.18706 -0.51878,0.96332 c -0.34652,0.64343 -1.14192,1.33351 -2.39535,2.07816 -1.03211,0.61317 -1.99937,1.34431 -2.14947,1.62476 -0.15009,0.28046 -0.90402,0.93494 -1.6754,1.45442 l -1.40251,0.9445 -1.81136,-0.90872 c -2.15226,-1.07975 -4.40747,-1.62075 -5.31612,-1.27528 -0.35082,0.13339 -1.36876,0.86621 -2.26207,1.62851 -1.40355,1.19769 -1.68111,1.335 -2.04298,1.01063 -0.49853,-0.44687 -2.9456,-1.103 -5.70064,-1.52852 -1.67555,-0.25878 -2.19988,-0.23786 -3.3142,0.13225 -1.17551,0.39045 -1.39303,0.59301 -1.94258,1.80898 -1.26229,2.79303 -3.25004,3.36237 -9.08775,2.60298 -1.87747,-0.24422 -3.97337,-0.56807 -4.65754,-0.71965 -1.10361,-0.24451 -1.67191,-0.15304 -5.03688,0.81065 -2.35941,0.67571 -4.22171,1.38323 -4.92747,1.87204 -2.7046,1.87321 -8.41218,4.22474 -11.23056,4.62701 -0.72537,0.10353 -2.1448,0.46667 -3.15428,0.80697 -1.25652,0.42358 -2.02684,0.54614 -2.44231,0.38858 -0.35328,-0.13398 -0.94468,-0.1124 -1.41525,0.0516 -0.6601,0.23011 -1.02671,0.17198 -1.99883,-0.31693 -0.65476,-0.32931 -1.37561,-0.75292 -1.6019,-0.94137 -0.62737,-0.52247 -1.73688,-0.70482 -2.66644,-0.43822 -0.54082,0.1551 -1.94021,0.0914 -3.95389,-0.17999 -4.78898,-0.64543 -6.47892,-0.61039 -7.71803,0.15999 -1.765749,1.09781 -3.402549,1.39497 -5.407689,0.98176 -1.710184,-0.35243 -1.758146,-0.34577 -3.304709,0.45913 -0.863136,0.44921 -1.788845,1.05931 -2.057132,1.35576 -0.828321,0.91528 -4.261575,1.5425 -6.136904,1.12114 -0.635641,-0.14282 -1.624588,-0.5846 -2.197661,-0.98174 -1.370865,-0.95001 -2.656556,-1.14069 -3.975518,-0.58959 -1.462213,0.61095 -1.864471,0.56419 -4.23893,-0.49277 -2.484526,-1.10595 -4.648699,-1.42018 -6.82222,-0.99053 -3.007632,0.59452 -3.321919,0.76583 -4.053472,2.20948 -0.940508,1.856 -2.194484,3.20569 -3.179334,3.422 -0.457488,0.10048 -1.425359,0.70986 -2.150823,1.35417 -1.752999,1.55692 -2.671325,1.70608 -5.15693,0.83767 -1.522471,-0.53192 -2.120993,-0.62539 -2.669441,-0.41687 -0.788504,0.29979 -9.4886,1.3925 -10.562302,1.3266 -0.377142,-0.0231 -1.077665,-0.0912 -1.556716,-0.15119 z"
       id="path1" />
  </g>
</svg>
