<?xml version="1.0" encoding="UTF-8" standalone="no"?>
<!-- Created with Inkscape (http://www.inkscape.org/) -->

<svg
   version="1.1"
   id="svg1"
   width="294.58286"
   height="294.58286"
   viewBox="0 0 294.58286 294.58286"
   sodipodi:docname="two-hole-canine-large-v.svg"
   inkscape:version="1.3.2 (091e20e, 2023-11-25, custom)"
   xmlns:inkscape="http://www.inkscape.org/namespaces/inkscape"
   xmlns:sodipodi="http://sodipodi.sourceforge.net/DTD/sodipodi-0.dtd"
   xmlns:xlink="http://www.w3.org/1999/xlink"
   xmlns="http://www.w3.org/2000/svg"
   xmlns:svg="http://www.w3.org/2000/svg">
  <defs
     id="defs1">
    <linearGradient
       id="linearGradient1"
       inkscape:collect="always">
      <stop
         style="stop-color:#000000;stop-opacity:0;"
         offset="0.22349571"
         id="stop2" />
      <stop
         style="stop-color:#000000;stop-opacity:1;"
         offset="0.75358164"
         id="stop1" />
    </linearGradient>
    <linearGradient
       inkscape:collect="always"
       xlink:href="#linearGradient1"
       id="linearGradient2"
       x1="32.83532"
       y1="196.65903"
       x2="271.79327"
       y2="196.65903"
       gradientUnits="userSpaceOnUse" />
  </defs>
  <sodipodi:namedview
     id="namedview1"
     pagecolor="#ffffff"
     bordercolor="#000000"
     borderopacity="0.25"
     inkscape:showpageshadow="2"
     inkscape:pageopacity="0.0"
     inkscape:pagecheckerboard="0"
     inkscape:deskcolor="#d1d1d1"
     inkscape:zoom="2.1759583"
     inkscape:cx="147.29143"
     inkscape:cy="147.29143"
     inkscape:window-width="1600"
     inkscape:window-height="837"
     inkscape:window-x="-8"
     inkscape:window-y="-8"
     inkscape:window-maximized="1"
     inkscape:current-layer="g1" />
  <g
     inkscape:groupmode="layer"
     inkscape:label="Image"
     id="g1">
    <path
       style="fill:url(#linearGradient2)"
       d="m 247.74715,231.70286 c -0.15086,-0.18858 -0.36847,-0.65143 -0.48356,-1.02858 -0.1151,-0.37714 -1.02795,-2.10514 -2.02856,-3.84 -1.00061,-1.73485 -1.97102,-3.46285 -2.15648,-3.84 -0.63809,-1.29764 -1.90431,-3.43315 -3.32819,-5.61306 -0.78478,-1.20147 -1.86431,-3.11461 -2.39896,-4.25143 -0.53465,-1.13681 -1.33001,-2.82515 -1.76746,-3.75186 -0.43745,-0.92671 -0.79537,-1.82509 -0.79537,-1.9964 0,-0.57844 -1.60656,-3.49917 -3.49995,-6.36294 -1.03533,-1.56594 -2.30633,-3.52602 -2.82444,-4.35573 -1.23231,-1.97343 -2.53174,-3.18787 -4.30667,-4.02501 -2.10319,-0.99196 -3.05714,-0.6959 -8.42129,2.61355 -1.50279,0.92716 -2.86467,1.68574 -3.02639,1.68574 -0.16172,0 -0.96874,0.43559 -1.79337,0.96798 -0.82462,0.53239 -1.99303,1.11017 -2.59646,1.28396 -1.68813,0.48618 -4.71989,2.53672 -6.99429,4.73061 -2.3262,2.24386 -2.98841,2.6921 -7.40571,5.01276 -4.9342,2.59222 -6.79066,2.79693 -10.34721,1.141 -0.8913,-0.41499 -1.72324,-0.58757 -2.60319,-0.54003 -0.9402,0.0508 -1.72642,-0.13291 -2.88,-0.67292 -1.37633,-0.6443 -2.11413,-0.7749 -5.56389,-0.98489 -2.18743,-0.13315 -4.224,-0.25739 -4.52571,-0.27608 -0.30172,-0.0187 -1.23919,0.15489 -2.08327,0.38575 -2.05554,0.56218 -6.40987,0.59612 -7.92439,0.0618 -0.64343,-0.22701 -1.92927,-0.41276 -2.85742,-0.41276 -1.3642,0 -2.07136,-0.18394 -3.69072,-0.96 -1.4617,-0.7005 -2.37245,-0.96 -3.36925,-0.96 -0.90818,0 -1.88078,-0.24349 -2.90167,-0.72645 -0.92341,-0.43685 -2.31084,-0.80725 -3.48016,-0.92911 -1.20906,-0.126 -2.56701,-0.49584 -3.59026,-0.97784 -1.60101,-0.75413 -1.77239,-0.77546 -6.30858,-0.78518 -4.53488,-0.01 -4.71178,0.0114 -6.44571,0.77059 -0.98057,0.42931 -2.02971,1.00377 -2.33143,1.27656 -1.21767,1.10097 -2.59348,1.42808 -5.21143,1.23906 -1.35771,-0.098 -3.08571,-0.35705 -3.84,-0.5756 -2.27772,-0.65995 -6.16952,-2.32284 -8.64,-3.69171 -1.28228,-0.7105 -3.10186,-1.63222 -4.0435,-2.04825 l -1.712066,-0.75642 -2.688474,0.44789 c -1.47866,0.24634 -2.998349,0.44789 -3.377087,0.44789 -0.378737,0 -1.299063,0.38908 -2.045169,0.86461 -2.338877,1.49069 -4.144206,2.14687 -6.653375,2.41827 -1.31075,0.14178 -2.762715,0.37203 -3.226588,0.51167 -1.517885,0.45694 -5.778934,0.66744 -7.168208,0.35411 -0.722755,-0.16301 -2.219157,-0.50007 -3.325337,-0.74904 -2.191475,-0.49324 -4.089075,-0.39927 -6.07315,0.30076 -0.645235,0.22765 -1.875199,0.41391 -2.733252,0.41391 -0.858053,0 -2.971678,0.1972 -4.696943,0.43823 -1.725266,0.24102 -3.75399,0.47058 -4.508276,0.51012 -0.754285,0.0395 -2.041831,0.27434 -2.861211,0.52177 -1.200697,0.36258 -2.754994,0.44988 -8.009951,0.44988 -4.01537,0 -6.765709,-0.11188 -7.159329,-0.29122 -0.924906,-0.42142 -1.259223,-1.40835 -1.574822,-4.649 -0.154097,-1.58231 -0.402762,-3.57002 -0.552589,-4.41714 -0.296504,-1.67643 0.273872,-12.24248 0.845676,-15.66594 0.272403,-1.6309 0.436938,-1.96233 1.411163,-2.84248 1.025467,-0.92645 1.201331,-0.98783 2.50765,-0.87525 0.930094,0.0802 2.285409,0.55107 4.010556,1.3935 2.885502,1.40906 8.350815,2.9361 10.508347,2.9361 2.781844,0 7.471401,-1.64718 10.456094,-3.67265 0.548149,-0.37198 1.393679,-0.75392 1.878954,-0.84874 0.485276,-0.0948 1.561177,-0.50487 2.390891,-0.91122 2.176242,-1.06581 5.444372,-1.01286 10.148571,0.16443 5.877418,1.4709 6.743533,1.57125 8.898058,1.03091 1.430511,-0.35876 2.770468,-0.45122 5.610643,-0.38714 l 3.731299,0.0842 1.851665,-1.42036 c 2.181795,-1.67359 2.88253,-1.8575 7.06262,-1.85364 2.85995,0.003 3.30455,0.073 4.76457,0.75429 0.88566,0.41325 1.95246,0.75137 2.37067,0.75137 1.54096,0 5.01086,0.89294 6.48671,1.66929 0.83571,0.4396 1.72809,0.79928 1.98308,0.79928 0.25499,0 1.01388,-0.56533 1.68643,-1.25628 1.6749,-1.72073 2.39011,-2.04298 4.4328,-1.99725 0.94994,0.0213 2.66265,-0.10724 3.80601,-0.28557 2.34873,-0.36633 4.21172,-0.0955 5.46079,0.79395 0.40608,0.28915 1.44208,0.78904 2.30223,1.11086 0.87833,0.32863 2.2222,1.16119 3.06556,1.89919 2.38253,2.0849 3.45391,2.13595 7.90011,0.37643 3.20164,-1.267 3.27342,-1.28152 4.52571,-0.9152 1.85021,0.54123 4.00737,0.64807 5.83296,0.28891 1.81296,-0.35668 2.04037,-0.28131 4.12629,1.36752 0.96348,0.76158 1.72055,1.09713 2.97322,1.31779 0.92433,0.16281 2.36811,0.6684 3.20841,1.12353 l 1.52781,0.8275 1.61355,-1.49386 c 1.64653,-1.5244 3.01582,-2.12853 4.55801,-2.01102 0.52741,0.0402 1.3009,-0.27019 2.28085,-0.91524 2.15748,-1.42014 2.46875,-1.55272 4.10964,-1.75042 0.8181,-0.0986 2.28973,-0.56851 3.2703,-1.04431 1.74789,-0.84813 1.86357,-0.86558 5.89715,-0.88938 4.79448,-0.0283 5.3645,-0.18256 8.44885,-2.28661 1.95068,-1.33068 2.24527,-1.44819 3.32529,-1.32646 1.42578,0.16071 2.77926,-0.34969 3.03105,-1.143 0.31614,-0.99607 2.0647,-1.66537 4.35084,-1.66537 l 2.03503,0 1.05537,-1.30285 c 1.31824,-1.62736 1.68497,-1.91718 2.71357,-2.14442 0.45257,-0.1 0.94628,-0.27086 1.09714,-0.37972 0.15086,-0.10887 1.07657,-0.48995 2.05714,-0.84685 0.98057,-0.35689 2.09143,-0.80824 2.46857,-1.00298 0.95186,-0.49151 3.41663,-0.44589 4.47077,0.0828 0.48279,0.24211 1.61838,1.15584 2.52352,2.0305 1.25099,1.20886 1.94176,1.65581 2.88,1.86348 1.31936,0.29203 6.97664,2.35606 9.10143,3.32061 1.02233,0.4641 1.67199,1.09956 3.18513,3.11553 1.04546,1.39289 2.64012,3.22334 3.54368,4.06766 2.06396,1.92865 3.64816,4.06303 4.4591,6.00772 0.97398,2.33568 2.18512,4.04399 4.69458,6.62168 2.88918,2.96774 4.7193,4.38251 7.43631,5.74859 2.68902,1.35201 4.82833,2.72337 5.68178,3.64219 0.58951,0.63465 0.67591,1.02504 0.78884,3.5643 0.0931,2.09291 -2e-4,3.42553 -0.35061,5.00884 -0.54763,2.47445 -0.91109,3.26903 -2.29839,5.02461 -0.54788,0.69332 -1.48823,2.23039 -2.08968,3.41572 -0.60144,1.18532 -1.40373,2.35197 -1.78285,2.59255 -0.94573,0.60013 -1.02538,0.73663 -1.69594,2.90637 -0.70253,2.27321 -1.39326,3.04553 -2.92651,3.27218 -0.62764,0.0928 -1.64437,0.24286 -2.25941,0.33351 -0.97096,0.1431 -1.24088,0.35084 -2.04925,1.57714 -0.51205,0.77678 -1.08917,1.61016 -1.28248,1.85197 -0.53758,0.67243 -3.96361,3.20652 -5.16105,3.81741 -1.23471,0.6299 -1.73442,0.67715 -2.1161,0.20009 z"
       id="path1" />
  </g>
</svg>
