<?xml version="1.0" encoding="UTF-8" standalone="no"?>
<!-- Created with Inkscape (http://www.inkscape.org/) -->

<svg
   version="1.1"
   id="svg1"
   width="294.58286"
   height="294.58286"
   viewBox="0 0 294.58286 294.58286"
   sodipodi:docname="pony-large-a.svg"
   inkscape:version="1.4 (86a8ad7, 2024-10-11)"
   xmlns:inkscape="http://www.inkscape.org/namespaces/inkscape"
   xmlns:sodipodi="http://sodipodi.sourceforge.net/DTD/sodipodi-0.dtd"
   xmlns:xlink="http://www.w3.org/1999/xlink"
   xmlns="http://www.w3.org/2000/svg"
   xmlns:svg="http://www.w3.org/2000/svg">
  <defs
     id="defs1">
    <linearGradient
       id="linearGradient1"
       inkscape:collect="always">
      <stop
         style="stop-color:#000000;stop-opacity:0;"
         offset="0.16812228"
         id="stop2" />
      <stop
         style="stop-color:#000000;stop-opacity:1;"
         offset="0.64847159"
         id="stop1" />
    </linearGradient>
    <linearGradient
       inkscape:collect="always"
       xlink:href="#linearGradient1"
       id="linearGradient2"
       x1="29.518187"
       y1="139.8648"
       x2="265.69116"
       y2="139.8648"
       gradientUnits="userSpaceOnUse" />
  </defs>
  <sodipodi:namedview
     id="namedview1"
     pagecolor="#ffffff"
     bordercolor="#000000"
     borderopacity="0.25"
     inkscape:showpageshadow="2"
     inkscape:pageopacity="0.0"
     inkscape:pagecheckerboard="0"
     inkscape:deskcolor="#d1d1d1"
     inkscape:zoom="2.766624"
     inkscape:cx="147.47215"
     inkscape:cy="147.29143"
     inkscape:window-width="1920"
     inkscape:window-height="1017"
     inkscape:window-x="-8"
     inkscape:window-y="-8"
     inkscape:window-maximized="1"
     inkscape:current-layer="g1" />
  <g
     inkscape:groupmode="layer"
     inkscape:label="Image"
     id="g1">
    <path
       style="fill:url(#linearGradient2)"
       d="m 32.721431,160.90563 c -1.237498,-0.32304 -2.396036,-0.73338 -2.574528,-0.91187 -0.291892,-0.29189 -0.450744,-4.02697 -0.627717,-14.75948 -0.02935,-1.77966 0.595872,-9.54537 0.814333,-10.11467 0.07342,-0.19134 0.838417,-0.55317 1.699988,-0.80408 3.263928,-0.95052 4.191141,-1.04967 7.178,-0.76756 1.590243,0.1502 4.208734,0.35573 5.818871,0.45674 3.203625,0.20098 4.421935,0.67375 4.886757,1.89633 0.336938,0.88621 1.216075,1.10775 4.329177,1.09094 l 2.543455,-0.0137 0.86882,-1.05403 c 0.956218,-1.16005 3.076712,-2.62135 3.803857,-2.62135 0.254989,0 1.187395,0.4817 2.072014,1.07044 1.367941,0.91041 1.977453,1.12259 4.07697,1.41922 4.148369,0.58612 4.412104,0.53777 7.904458,-1.44898 3.619824,-2.05927 3.608139,-2.0596 5.942663,0.16716 1.450757,1.38379 1.623037,1.46822 3.380026,1.65637 1.018244,0.10905 2.781458,0.11111 3.918253,0.005 1.841923,-0.1726 2.260767,-0.32643 3.84798,-1.41321 1.953816,-1.33781 4.918959,-2.82646 5.630526,-2.8268 0.248863,-1.1e-4 1.072352,0.67803 1.829976,1.50699 0.75763,0.82896 1.72658,1.65138 2.15324,1.82758 1.17444,0.48504 5.87026,0.40478 6.83901,-0.11689 0.43663,-0.23513 1.51759,-0.80677 2.40214,-1.27033 0.88454,-0.46355 2.0803,-1.26928 2.65723,-1.7905 1.92329,-1.73758 4.13266,-1.90183 4.52554,-0.33646 0.0866,0.3452 0.65342,0.94917 1.25952,1.34217 1.38839,0.90025 4.35665,1.22675 7.49409,0.82432 2.95754,-0.37935 4.71336,-1.04254 6.10636,-2.30642 0.63777,-0.57865 1.37171,-1.0521 1.63097,-1.0521 0.8608,0 2.44144,1.35357 3.51147,3.00702 1.03608,1.60099 1.09173,1.64034 2.90284,2.05227 1.70925,0.38876 2.0593,0.38161 4.70885,-0.0962 3.34069,-0.60243 4.46396,-1.13122 6.52057,-3.06956 0.82972,-0.782 1.94877,-1.70035 2.4868,-2.04076 0.9202,-0.58224 1.02108,-0.59294 1.70082,-0.1805 0.39743,0.24115 1.0319,1.00672 1.40992,1.70128 1.33864,2.45953 2.64625,2.89546 4.72426,1.57498 1.09828,-0.6979 1.17365,-0.70795 2.44359,-0.32575 2.58162,0.77695 3.92657,0.42359 6.86234,-1.80297 l 2.17799,-1.65183 0.54857,0.66315 c 0.30171,0.36473 0.73371,0.89838 0.96,1.18588 1.41478,1.79752 3.89542,2.48718 7.22447,2.00854 2.63523,-0.37889 4.58202,-1.3446 6.62696,-3.28734 0.75428,-0.71659 1.96962,-1.62766 2.70075,-2.02461 1.62591,-0.88274 2.18329,-0.68198 2.9559,1.06464 0.62237,1.40697 1.28288,1.63521 4.64571,1.60535 2.05795,-0.0183 2.08625,-0.0285 3.70286,-1.33588 0.89598,-0.7246 1.93763,-1.66458 2.31478,-2.08885 0.87816,-0.98789 3.59897,-3.26743 3.89993,-3.26743 0.12643,0 0.85923,0.67621 1.62845,1.50269 1.62274,1.74353 2.46927,2.00998 4.45902,1.40347 1.2568,-0.3831 1.42725,-0.37434 2.53483,0.13022 1.47833,0.67346 2.30719,0.49113 3.15305,-0.69357 1.11328,-1.55926 2.85224,-3.31267 3.89632,-3.92868 1.21264,-0.71548 1.96794,-0.51988 3.16474,0.81957 1.24584,1.39433 2.32051,1.23117 6.26245,-0.95077 4.52442,-2.50437 4.86482,-2.66476 7.48121,-3.52517 l 2.33142,-0.76669 1.66739,0.81018 c 0.91707,0.4456 1.87589,0.81018 2.13071,0.81018 0.25483,0 1.48034,-0.40379 2.72337,-0.89731 2.18578,-0.86782 2.31856,-0.88697 4.04072,-0.58275 3.19077,0.56364 4.66067,1.36972 4.66067,2.55587 0,0.25655 0.23213,0.71563 0.51585,1.02016 0.28372,0.30454 0.65308,1.19355 0.82079,1.97559 0.16772,0.78203 0.47729,1.83437 0.68795,2.33854 0.21065,0.50416 0.3198,1.24728 0.24255,1.65138 -0.0772,0.4041 0.1204,1.50694 0.4392,2.45076 0.46144,1.36609 0.52453,1.90824 0.30937,2.65847 -0.27867,0.97168 -0.14242,1.915 0.2766,1.915 0.47913,0 1.83803,3.19305 2.01674,4.73879 0.15783,1.36521 0.11631,1.60833 -0.30007,1.75671 -0.71091,0.25333 -2.69088,1.87184 -4.87261,3.98306 -2.3573,2.2811 -3.05371,2.75921 -7.53174,5.17074 -6.41003,3.45197 -9.06968,3.34654 -13.55722,-0.53739 -0.71385,-0.61783 -1.32649,-1.12334 -1.36142,-1.12334 -0.0349,0 -1.63361,-0.30158 -3.55263,-0.67019 -2.83811,-0.54514 -3.65479,-0.61286 -4.37696,-0.36294 -1.55891,0.53948 -2.41989,1.21249 -3.38552,2.64636 -0.51795,0.7691 -1.24831,1.59926 -1.62303,1.84478 -0.65942,0.43207 -0.72312,0.41308 -1.98315,-0.59118 -0.71601,-0.57068 -1.77065,-1.48003 -2.34363,-2.02078 -0.86622,-0.8175 -1.24272,-0.98319 -2.23406,-0.98319 -0.75541,0 -1.3887,0.17776 -1.72836,0.48515 -0.48889,0.44245 -0.60612,0.44863 -1.33165,0.0703 -0.43756,-0.22819 -0.92092,-0.41565 -1.07414,-0.41658 -0.76576,-0.005 -2.1677,1.14656 -3.4173,2.80614 -0.80719,1.07201 -1.66767,1.91718 -2.04948,2.013 -0.4736,0.11887 -1.18897,-0.14485 -2.55151,-0.94062 -2.71037,-1.58294 -3.82287,-1.66803 -8.0148,-0.61303 -3.31644,0.83467 -3.4315,0.88926 -4.97273,2.35934 -0.86776,0.8277 -1.71525,1.50491 -1.88332,1.50491 -0.46706,0 -2.54452,-1.09449 -3.18,-1.67535 -0.31066,-0.28397 -1.24908,-0.65372 -2.08537,-0.82167 -1.43009,-0.2872 -1.75514,-0.23786 -5.46563,0.8297 -3.06734,0.88251 -4.06801,1.28764 -4.49749,1.82086 -0.3038,0.3772 -0.90754,0.91707 -1.34164,1.19971 l -0.78927,0.5139 -3.60589,-1.77161 c -3.86269,-1.89778 -4.48963,-2.02936 -7.15843,-1.50242 -2.74679,0.54235 -4.15564,1.32768 -5.08167,2.83268 -0.44841,0.72876 -1.19519,1.55604 -1.65951,1.83841 -0.83854,0.50995 -0.85234,0.50885 -2.05476,-0.16319 -0.6658,-0.37212 -1.42766,-1.05025 -1.69302,-1.50695 -0.30672,-0.52788 -1.01185,-1.06601 -1.93572,-1.47727 -2.52098,-1.1222 -3.17378,-1.20993 -6.58723,-0.88525 l -3.1765,0.30215 -2.3458,1.50073 c -1.29018,0.82541 -2.613,1.74426 -2.9396,2.0419 -0.83748,0.76324 -1.51974,0.45324 -2.90111,-1.3182 -1.42773,-1.8309 -2.4371,-2.19944 -4.83367,-1.76486 -1.27216,0.23069 -2.01966,0.2019 -3.63096,-0.13985 -2.7279,-0.57856 -3.42561,-0.40379 -5.05828,1.26708 -0.74762,0.76511 -1.70477,1.57286 -2.127,1.79499 -0.70909,0.37306 -0.88615,0.34965 -2.31985,-0.30672 -0.8537,-0.39084 -1.92767,-0.99211 -2.3866,-1.33617 -1.20575,-0.90394 -2.7424,-1.44515 -5.1313,-1.80727 -2.79627,-0.42387 -4.71206,0.0961 -6.6733,1.81112 -0.7536,0.65899 -1.895325,1.39872 -2.537172,1.64385 l -1.166995,0.44568 -3.359975,-1.51454 c -1.847987,-0.83299 -3.651872,-1.58249 -4.008634,-1.66555 -0.356762,-0.0831 -2.0679,0.0141 -3.802529,0.21581 -3.05564,0.3554 -3.212171,0.40666 -5.025696,1.64579 -2.128053,1.45403 -2.097368,1.45868 -4.318557,-0.65428 -0.956151,-0.90957 -1.352063,-1.08815 -2.779755,-1.25385 -3.683921,-0.42757 -6.610571,0.26064 -8.703563,2.04666 -0.869954,0.74236 -1.865911,1.42107 -2.213238,1.50825 -0.402347,0.10098 -1.954336,-0.33724 -4.276924,-1.20763 -2.004981,-0.75136 -4.143794,-1.44581 -4.752918,-1.54321 -1.800134,-0.28786 -4.044418,0.31768 -5.103816,1.37708 -1.23136,1.23136 -2.342709,1.49803 -4.832051,1.15947 -2.790065,-0.37946 -5.388404,0.0427 -7.126304,1.15795 -0.726638,0.46628 -1.433782,0.83399 -1.571432,0.81713 -0.13765,-0.0169 -1.262771,-0.29496 -2.50027,-0.618 z"
       id="path1" />
  </g>
</svg>
