<?xml version="1.0" encoding="UTF-8" standalone="no"?>
<!-- Created with Inkscape (http://www.inkscape.org/) -->

<svg
   version="1.1"
   id="svg1"
   width="294.58286"
   height="294.58286"
   viewBox="0 0 294.58286 294.58286"
   sodipodi:docname="pony-standard-a.svg"
   inkscape:version="1.4 (86a8ad7, 2024-10-11)"
   xmlns:inkscape="http://www.inkscape.org/namespaces/inkscape"
   xmlns:sodipodi="http://sodipodi.sourceforge.net/DTD/sodipodi-0.dtd"
   xmlns:xlink="http://www.w3.org/1999/xlink"
   xmlns="http://www.w3.org/2000/svg"
   xmlns:svg="http://www.w3.org/2000/svg">
  <defs
     id="defs1">
    <linearGradient
       id="linearGradient1"
       inkscape:collect="always">
      <stop
         style="stop-color:#000000;stop-opacity:0;"
         offset="0.16812228"
         id="stop2" />
      <stop
         style="stop-color:#000000;stop-opacity:1;"
         offset="0.6419214"
         id="stop1" />
    </linearGradient>
    <linearGradient
       inkscape:collect="always"
       xlink:href="#linearGradient1"
       id="linearGradient2"
       x1="28.704075"
       y1="137.89376"
       x2="265.65701"
       y2="137.89376"
       gradientUnits="userSpaceOnUse" />
  </defs>
  <sodipodi:namedview
     id="namedview1"
     pagecolor="#ffffff"
     bordercolor="#000000"
     borderopacity="0.25"
     inkscape:showpageshadow="2"
     inkscape:pageopacity="0.0"
     inkscape:pagecheckerboard="0"
     inkscape:deskcolor="#d1d1d1"
     inkscape:zoom="2.766624"
     inkscape:cx="147.47215"
     inkscape:cy="147.29143"
     inkscape:window-width="1920"
     inkscape:window-height="1017"
     inkscape:window-x="-8"
     inkscape:window-y="-8"
     inkscape:window-maximized="1"
     inkscape:current-layer="g1" />
  <g
     inkscape:groupmode="layer"
     inkscape:label="Image"
     id="g1">
    <path
       style="fill:url(#linearGradient2)"
       d="m 56.271872,159.50804 c -0.956756,-0.52554 -2.191042,-1.02926 -2.742857,-1.11938 -0.551816,-0.0901 -1.682158,-0.39324 -2.511872,-0.67361 -0.829715,-0.28036 -2.152819,-0.58412 -2.940231,-0.67502 -1.227748,-0.14174 -1.515359,-0.0816 -2.019314,0.42237 -0.520662,0.52066 -0.779581,0.56715 -2.271198,0.40774 -2.6066,-0.27856 -3.072447,-0.22815 -4.624496,0.50039 -0.79619,0.37374 -1.817904,0.76629 -2.270476,0.87232 -0.452571,0.10603 -0.946285,0.28278 -1.097143,0.39276 -0.535977,0.39076 -3.174298,0.563 -4.237685,0.27666 -1.302737,-0.35079 -1.500091,-0.83508 -1.204245,-2.9551 0.268401,-1.92336 0.176782,-2.8209 -0.326984,-3.20333 -0.216501,-0.16435 -0.366146,-0.70877 -0.34386,-1.25098 0.03049,-0.74182 -0.656306,-8.58511 -0.960711,-10.97143 -0.115824,-0.90798 0.398302,-5.60552 0.668823,-6.11099 0.257163,-0.48052 0.506534,-0.52632 2.249799,-0.41323 2.229251,0.14462 2.966926,0.46847 5.514167,2.42083 1.716045,1.31527 1.880312,1.38135 3.0122,1.21161 1.673815,-0.251 2.242272,0.007 3.049636,1.38478 0.584069,0.99664 0.943673,1.27826 2.126611,1.66545 0.783023,0.25628 2.036422,0.77297 2.785331,1.14818 1.329074,0.66587 1.41439,0.67363 3.565715,0.32425 3.679345,-0.59753 5.838351,-0.57849 7.333472,0.0647 0.833354,0.3585 1.586194,0.50286 2.06769,0.3965 0.416451,-0.092 1.374327,-0.30447 2.128613,-0.47215 0.754285,-0.16768 2.482285,-0.29175 3.84,-0.2757 3.869569,0.0457 7.842853,-0.96375 12.197388,-3.09896 2.663968,-1.30626 3.210803,-1.47238 5.528085,-1.67934 3.954576,-0.3532 4.611459,-0.3034 6.823098,0.51732 3.418566,1.26861 4.156206,1.62944 4.946365,2.4196 0.857193,0.85719 3.204478,1.87035 4.320927,1.86504 0.40928,-0.002 1.5082,-0.24309 2.44206,-0.53588 0.93387,-0.29278 3.15558,-0.66067 4.93715,-0.81752 2.32321,-0.20455 3.70459,-0.47777 4.88493,-0.96619 0.90514,-0.37455 2.1005,-0.68393 2.65635,-0.68751 1.93542,-0.0125 4.98067,-0.81709 5.70438,-1.50723 1.02284,-0.9754 1.97653,-1.25941 3.14534,-0.93669 1.36564,0.37707 2.0081,0.10192 2.49762,-1.06965 0.82347,-1.97085 1.98946,-2.53833 2.93838,-1.43008 0.63099,0.73695 1.74988,0.68974 3.08078,-0.12999 1.09846,-0.67655 2.60572,-0.92486 2.60572,-0.42927 0,0.36916 1.11733,1.38904 1.82513,1.66596 0.32897,0.1287 2.21331,0.10583 4.25143,-0.0516 2.68937,-0.20773 4.49746,-0.1955 6.81487,0.0461 2.14823,0.22397 3.60996,0.24462 4.58299,0.0647 1.28181,-0.23695 1.62916,-0.18357 3.37846,0.51925 1.07237,0.43085 2.35503,0.78336 2.85036,0.78336 1.05852,0 2.64958,-0.50762 3.03961,-0.96977 0.5773,-0.68404 1.20681,-0.63784 2.21388,0.16248 0.55871,0.44401 1.1752,0.80729 1.36996,0.80729 0.4066,0 1.06121,-0.60566 1.68722,-1.56107 0.23829,-0.36369 0.76358,-0.83206 1.1673,-1.04084 0.65212,-0.33722 0.82357,-0.32055 1.53641,0.14936 1.05456,0.69518 1.71736,0.66942 3.31698,-0.12894 2.04389,-1.02008 2.67536,-1.01994 3.81988,8.6e-4 1.26618,1.1293 2.45214,1.51151 4.73149,1.52485 2.30883,0.0135 3.84089,-0.2126 5.1541,-0.7607 0.47304,-0.19743 1.9926,-0.49667 3.3768,-0.66497 1.7721,-0.21547 2.99462,-0.54312 4.13199,-1.10742 0.98752,-0.48996 2.44052,-0.91621 3.73871,-1.09677 1.93633,-0.26932 2.24053,-0.40061 3.45211,-1.48993 1.49769,-1.34655 2.11517,-1.53287 3.52684,-1.06418 0.54102,0.17962 2.39245,0.47149 4.11429,0.64859 1.72184,0.1771 3.50728,0.50453 3.96764,0.72762 1.06623,0.51669 2.11084,0.16181 3.27956,-1.11413 0.60243,-0.6577 1.16854,-0.96105 2.05993,-1.10382 2.68701,-0.43036 3.84999,-1.03666 5.99344,-3.12458 1.13914,-1.10963 2.20002,-2.2822 2.35751,-2.60572 0.15749,-0.32351 0.96466,-0.9166 1.79372,-1.31796 0.82906,-0.40136 2.10922,-1.35794 2.84479,-2.12571 1.30158,-1.35858 1.97739,-1.63292 3.02874,-1.22948 0.23862,0.0916 0.43386,0.31283 0.43386,0.49169 0,0.46407 2.27609,1.01111 3.34758,0.80455 0.49712,-0.0958 1.33585,-0.50896 1.86385,-0.91805 1.41887,-1.09933 2.43678,-1.55744 4.17436,-1.87865 0.85667,-0.15836 2.39704,-0.6809 3.42304,-1.16119 l 1.86545,-0.87326 2.60572,0.35011 c 1.43314,0.19256 3.04439,0.52218 3.58056,0.7325 0.91265,0.35799 3.82515,3.30933 3.82515,3.87617 0,0.14061 0.2235,0.55002 0.49665,0.9098 0.60998,0.80339 1.12055,2.47477 1.58233,5.17984 0.19314,1.13143 0.54216,3.03423 0.7756,4.22844 0.23343,1.19421 0.35191,2.46021 0.26328,2.81332 -0.12147,0.48398 0.079,0.9078 0.81432,1.72173 1.50019,1.66053 1.81255,3.54342 0.96329,5.80665 -0.29251,0.77952 -0.74404,1.03654 -3.66118,2.08405 -1.056,0.3792 -2.05486,0.79755 -2.21968,0.92967 -0.16483,0.13212 -1.18881,0.60686 -2.27552,1.05499 -1.08671,0.44812 -3.05014,1.42015 -4.36317,2.16007 -3.2781,1.84725 -3.64293,1.89751 -6.55346,0.90275 -1.32921,-0.45429 -3.50399,-1.1394 -4.83284,-1.52246 -2.11111,-0.60855 -2.49198,-0.64896 -3.01715,-0.32014 -0.85973,0.53831 -3.36947,1.07145 -4.24509,0.90178 -0.40948,-0.0794 -1.20038,-0.26328 -1.75754,-0.40873 -1.02176,-0.26675 -1.69257,-0.16184 -5.48176,0.85732 -0.8567,0.23042 -1.82825,0.56378 -2.159,0.7408 -0.33076,0.17701 -2.27026,0.47879 -4.31001,0.67062 l -3.70863,0.34878 -0.85236,0.99353 c -0.81136,0.94574 -0.96809,1.00625 -3.25787,1.25778 -1.32303,0.14533 -2.67735,0.45464 -3.0096,0.68736 -0.7671,0.53729 -1.52706,0.53333 -3.42296,-0.0178 -1.19818,-0.34832 -1.81067,-0.38283 -2.91592,-0.16429 -1.17936,0.23319 -1.62761,0.19116 -2.85354,-0.26752 -0.98908,-0.37006 -1.78088,-0.4907 -2.47487,-0.37708 -0.56125,0.0919 -3.24218,0.28179 -5.9576,0.42201 -6.01328,0.3105 -6.17012,0.34801 -6.17563,1.47696 -0.002,0.47269 -0.11048,1.02716 -0.24036,1.23216 -0.36082,0.56946 -2.47183,0.69455 -3.82079,0.22641 -0.92254,-0.32015 -1.15517,-0.33273 -1.04926,-0.0567 0.2036,0.53056 -0.50661,1.38637 -1.56878,1.89041 -0.97932,0.46471 -4.22007,0.61163 -5.93332,0.26898 -0.54989,-0.10997 -1.53969,-0.78501 -2.58541,-1.76323 -0.93192,-0.87177 -2.18183,-1.77191 -2.77757,-2.00031 -1.31881,-0.50563 -4.86499,-1.05313 -5.42622,-0.83777 -0.22389,0.0859 -0.84006,0.0367 -1.36925,-0.10946 -0.62088,-0.17143 -1.40452,-0.17132 -2.20927,3.2e-4 -0.93053,0.19846 -1.78923,0.15676 -3.38276,-0.16427 -1.33934,-0.26981 -3.94578,-0.45628 -6.99018,-0.50009 l -4.85451,-0.0698 -1.11549,1.08841 c -1.05765,1.03199 -1.21837,1.09401 -3.09977,1.19626 -1.09136,0.0593 -2.13858,0.23263 -2.32715,0.38517 -0.18857,0.15253 -0.34286,0.70233 -0.34286,1.22177 0,2.09499 -1.32938,2.66218 -2.86694,1.22321 -1.31558,-1.23123 -2.93611,-1.74915 -4.33882,-1.3867 -2.31479,0.59813 -2.92408,0.59891 -4.3034,0.006 -1.58694,-0.68269 -2.55617,-0.73645 -3.02798,-0.16796 -0.44894,0.54095 -1.18452,0.50751 -3.01714,-0.13714 -2.25322,-0.79261 -3.37239,-0.70518 -5.42649,0.42389 -1.44725,0.79551 -2.32484,1.05069 -4.82278,1.40233 -2.84894,0.40106 -6.75202,0.37991 -8.26502,-0.0448 -0.43967,-0.12341 -0.637352,0.0599 -0.99582,0.92329 -0.603321,1.45319 -1.851445,1.79137 -2.937816,0.796 -1.631206,-1.49456 -3.059508,-2.04471 -5.74018,-2.21098 -1.447845,-0.0898 -2.912528,-0.34234 -3.40214,-0.58659 -0.472863,-0.23589 -0.973859,-0.4289 -1.113326,-0.4289 -0.139466,0 -1.15174,-0.432 -2.249497,-0.96 -1.097758,-0.528 -2.099765,-0.96 -2.226684,-0.96 -0.126919,0 -0.69781,0.32367 -1.268646,0.71926 -0.807087,0.55931 -1.548814,0.77104 -3.335501,0.95214 -1.96236,0.1989 -2.506337,0.37334 -3.728046,1.19549 -0.786736,0.52944 -1.946109,1.10496 -2.576385,1.27895 -1.303,0.3597 -7.346198,0.47926 -8.475791,0.1677 -0.562363,-0.15511 -0.712869,-0.11714 -0.608964,0.15363 0.07591,0.19781 -0.266809,0.82526 -0.761593,1.39434 -1.30586,1.50193 -2.534719,1.58349 -4.833449,0.32082 z"
       id="path1" />
  </g>
</svg>
