<?xml version="1.0" encoding="UTF-8" standalone="no"?>
<!-- Created with Inkscape (http://www.inkscape.org/) -->

<svg
   version="1.1"
   id="svg1"
   width="294.58286"
   height="294.58286"
   viewBox="0 0 294.58286 294.58286"
   sodipodi:docname="two-hole-cheval-marble.svg"
   inkscape:version="1.3.2 (091e20e, 2023-11-25, custom)"
   xmlns:inkscape="http://www.inkscape.org/namespaces/inkscape"
   xmlns:sodipodi="http://sodipodi.sourceforge.net/DTD/sodipodi-0.dtd"
   xmlns="http://www.w3.org/2000/svg"
   xmlns:svg="http://www.w3.org/2000/svg">
  <defs
     id="defs1" />
  <sodipodi:namedview
     id="namedview1"
     pagecolor="#ffffff"
     bordercolor="#000000"
     borderopacity="0.25"
     inkscape:showpageshadow="2"
     inkscape:pageopacity="0.0"
     inkscape:pagecheckerboard="0"
     inkscape:deskcolor="#d1d1d1"
     inkscape:zoom="2.1759583"
     inkscape:cx="147.29143"
     inkscape:cy="147.29143"
     inkscape:window-width="1600"
     inkscape:window-height="837"
     inkscape:window-x="-8"
     inkscape:window-y="-8"
     inkscape:window-maximized="1"
     inkscape:current-layer="g1" />
  <g
     inkscape:groupmode="layer"
     inkscape:label="Image"
     id="g1">
    <path
       style="fill:#000000"
       d="m 251.52245,243.51562 c 0.001,-4.42273 0.12091,-10.01619 0.26569,-12.42991 1.70617,-28.44437 2.06378,-38.07038 1.82399,-49.09714 -0.45039,-20.71031 -0.51015,-31.9409 -0.19411,-36.48 0.67785,-9.73558 1.93669,-20.03982 4.00428,-32.77714 1.55703,-9.59199 1.4021,-8.95386 2.03488,-8.38119 0.27806,0.25164 0.88091,1.16174 1.33965,2.02243 0.45875,0.8607 1.15883,1.86999 1.55575,2.24287 1.04855,0.98506 1.63553,2.04083 2.5933,4.66446 1.18517,3.24653 1.52246,5.64875 1.13377,8.07501 -0.21165,1.32115 -0.22499,2.3286 -0.042,3.1707 0.46804,2.15372 1.64328,5.15148 2.54114,6.48186 l 0.86811,1.28629 -0.60277,6.19592 c -0.94031,9.66556 -1.18841,17.24316 -0.87419,26.70024 0.71198,21.42848 0.62657,31.80828 -0.40572,49.30141 -0.2092,3.54514 -0.58001,10.39543 -0.82403,15.22285 -0.24402,4.82743 -0.50744,10.01332 -0.58538,11.5242 l -0.1417,2.74705 -1.96657,1.12152 c -1.08161,0.61684 -2.63467,1.34126 -3.45124,1.60983 -0.81658,0.26857 -2.60629,1.21094 -3.97714,2.09415 -2.93525,1.89112 -3.65176,2.29975 -4.48104,2.55556 l -0.61714,0.19038 z m -19.21785,5.44282 c -3.25116,-1.36007 -5.74086,-2.77268 -7.52746,-4.27095 -0.90514,-0.75907 -2.10762,-1.66143 -2.67217,-2.00524 -0.56455,-0.34381 -1.02741,-0.81934 -1.02857,-1.05674 -0.002,-0.50329 1.09202,-6.5533 4.11481,-22.74551 4.41579,-23.65405 5.12789,-30.36543 4.84562,-45.66857 -0.24025,-13.02495 -0.65862,-18.17836 -3.32898,-41.00572 -1.66501,-14.23321 -2.04715,-18.14706 -2.14082,-21.92615 l -0.0642,-2.589 4.25142,-1.40386 c 5.2862,-1.74554 6.07643,-2.09026 7.80332,-3.40405 2.76868,-2.10637 2.51767,-2.51892 2.70333,4.44303 0.16498,6.18625 0.39882,8.69401 2.35825,25.29146 2.72878,23.11432 3.13995,28.84394 3.15913,44.02286 0.0152,12.05956 -0.1833,14.97208 -1.7725,26.00203 -0.84423,5.85939 -1.0435,6.98349 -4.92074,27.75797 -1.33737,7.16571 -2.64688,14.47886 -2.91002,16.25143 -0.26313,1.77257 -0.55031,3.21187 -0.63817,3.19843 -0.0879,-0.0134 -1.09238,-0.41457 -2.23228,-0.89142 z m -28.51032,-12.95076 c -4.97438,-0.36654 -7.85893,-0.64547 -8.41254,-0.81347 -0.23846,-0.0724 -0.21855,-0.43718 0.0773,-1.41726 1.29386,-4.28555 3.04538,-14.60163 4.08858,-24.0809 1.64529,-14.95024 1.63645,-14.65434 1.63877,-54.86177 0.001,-20.36571 0.11085,-38.46861 0.24373,-40.22866 l 0.2416,-3.20009 1.54125,-0.15442 c 0.8477,-0.0849 2.52869,-0.22564 3.73555,-0.31267 1.20686,-0.087 3.83971,-0.34693 5.85078,-0.57756 2.01108,-0.23062 3.69805,-0.37776 3.74884,-0.32697 0.0508,0.0508 -0.046,1.44993 -0.21513,3.10921 -0.20973,2.05777 -0.31456,15.00683 -0.32975,40.73116 -0.0196,33.15883 -0.0799,38.45973 -0.49981,43.88572 -1.16683,15.07965 -2.82309,27.36701 -4.88956,36.27428 -0.53301,2.2975 -0.58803,2.39845 -1.28822,2.36355 -0.40229,-0.02 -2.89144,-0.19562 -5.53144,-0.39015 z M 168,229.4471 c -2.89242,-0.81558 -7.54512,-2.44785 -9.6,-3.36789 -0.90514,-0.40526 -1.66711,-0.74141 -1.69325,-0.74699 -0.0262,-0.006 0.56087,-3.65047 1.30447,-8.09976 5.55307,-33.22608 8.90417,-55.24538 9.70506,-63.7696 1.07289,-11.41931 1.13059,-19.19855 0.2355,-31.75328 -0.24487,-3.43459 -0.35874,-6.33119 -0.25305,-6.43689 0.1057,-0.10569 1.14244,-0.27926 2.30387,-0.38572 3.92544,-0.35978 10.05969,-1.0895 11.09454,-1.31978 0.56572,-0.12588 1.02857,-0.14465 1.02857,-0.0417 0,0.10295 0.18732,2.40412 0.41626,5.11371 1.27719,15.11591 0.97021,28.91589 -0.97906,44.01224 -1.07101,8.29461 -7.71991,50.24428 -10.55319,66.58285 -0.17855,1.02969 -0.12592,1.02596 -3.00972,0.21282 z m -23.17714,-7.66439 c -1.87716,-0.81192 -6.7316,-2.34924 -10.05594,-3.18455 l -2.51308,-0.63147 -0.0275,-7.15477 c -0.0151,-3.93513 -0.27038,-13.81992 -0.56721,-21.96621 -0.29683,-8.14628 -0.68065,-18.6942 -0.85293,-23.4398 -0.39473,-10.87308 -0.18604,-26.76534 0.41787,-31.82283 0.73522,-6.15703 1.90225,-12.47808 2.61687,-14.1738 0.19895,-0.47208 0.54174,-0.61609 1.70686,-0.71707 1.58783,-0.1376 6.22783,-0.61043 11.19507,-1.14081 1.73485,-0.18524 3.17176,-0.32723 3.19313,-0.31553 0.0214,0.0117 -0.43557,1.4407 -1.0154,3.17556 -1.24369,3.72112 -2.23796,8.4851 -2.9195,13.98857 -0.72786,5.87751 -0.6507,27.83873 0.16671,47.45143 0.80142,19.22907 1.08863,40.5965 0.54558,40.58903 -0.21008,-0.003 -1.06081,-0.29887 -1.89052,-0.65775 z m -52.937146,-7.29899 c -1.368108,-0.33702 -3.220167,-0.39364 -4.731429,-0.14466 -0.716571,0.11806 -1.302857,0.11532 -1.302857,-0.006 0,-0.12141 1.121001,-6.83143 2.491113,-14.91114 5.97692,-35.24661 6.869606,-43.35398 7.926039,-71.98424 0.144083,-3.90476 0.302758,-7.14035 0.352612,-7.1902 0.04985,-0.0499 2.985337,-0.22994 6.523298,-0.4002 3.53796,-0.17025 6.80294,-0.32895 7.25551,-0.35265 l 0.82286,-0.0431 -0.0854,3.97714 c -0.4239,19.7457 -1.69896,36.3767 -4.03667,52.65187 -1.48714,10.35342 -6.16542,37.69398 -6.48351,37.89058 -0.15564,0.0962 -1.721062,0.26082 -3.47871,0.36583 -1.757648,0.10502 -3.442581,0.23424 -3.744295,0.28715 -0.301714,0.0529 -0.980571,-0.0102 -1.508571,-0.14028 z m -60.581853,-0.17753 -1.473282,-0.12003 0.164743,-1.28736 c 0.09061,-0.70806 0.301715,-5.91594 0.469125,-11.57309 0.229185,-7.74463 0.22091,-15.46951 -0.0335,-31.26857 -0.371991,-23.10131 -0.259363,-33.60573 0.420544,-39.22286 0.469594,-3.87959 1.698868,-10.41904 2.022163,-10.75742 0.103743,-0.10859 2.346182,-0.063 4.983197,0.10138 2.637015,0.16435 6.004717,0.28909 7.483782,0.27722 2.472961,-0.0199 2.67657,0.0182 2.532032,0.47362 -1.172702,3.69486 -2.129531,9.11365 -2.646826,14.9897 -0.289031,3.28316 -0.215856,25.34783 0.162337,48.94979 0.111538,6.96077 -0.227525,24.14908 -0.545112,27.63365 l -0.181182,1.98794 -0.730943,-0.20423 c -0.83532,-0.2334 -1.120731,-0.23416 -6.902372,-0.0184 -2.338286,0.0873 -4.914405,0.10466 -5.72471,0.0386 z m 25.695117,-0.18074 c -0.866097,-0.32519 -0.888625,-0.42901 -1.378682,-6.35402 -0.433892,-5.24595 -0.424403,-20.46133 0.01599,-25.64572 0.809556,-9.53018 1.471305,-13.49596 5.949917,-35.65714 2.834322,-14.02486 4.155628,-21.15675 4.65595,-25.13099 l 0.176912,-1.40527 2.025576,-0.13 c 1.114066,-0.0715 2.616633,-0.0332 3.339037,0.0852 0.7275,0.11917 2.67516,0.0841 4.36577,-0.0787 3.752958,-0.36127 5.039121,-0.18147 5.039121,0.70444 0,2.52649 -1.416475,10.46347 -5.484502,30.73147 -5.112605,25.47237 -5.597352,29.25966 -5.602555,43.77242 -0.0024,6.64504 0.127768,10.54821 0.470172,14.10028 0.260407,2.70144 0.399632,4.98487 0.309388,5.07429 -0.09024,0.0894 -1.665117,0.10394 -3.49972,0.0323 -4.595677,-0.17951 -7.547916,-0.17362 -8.684212,0.0173 -0.528,0.0887 -1.292173,0.0366 -1.698164,-0.11585 z m -37.661835,-5.7485 c -1.206857,-0.7627 -3.243429,-2.02779 -4.525715,-2.81131 L 12.48,204.14107 12.457619,192.79053 c -0.01346,-6.82423 -0.15392,-12.55369 -0.352241,-14.36767 -0.270306,-2.47242 -0.261122,-3.41331 0.05087,-5.21143 0.397842,-2.29289 0.39147,-3.9513 -0.06481,-16.86857 -0.139468,-3.94835 -0.144266,-7.71098 -0.01102,-8.64 0.129825,-0.90515 0.182551,-1.89258 0.11717,-2.19429 -0.351791,-1.62341 -0.622945,-6.99989 -0.408077,-8.09143 0.14978,-0.76088 0.134732,-1.97795 -0.03923,-3.17321 -0.167046,-1.14773 -0.187664,-2.41491 -0.05053,-3.10538 0.228704,-1.1515 0.275412,-1.19072 3.643965,-3.06021 1.876761,-1.04157 3.437738,-1.86586 3.468837,-1.83176 0.0311,0.0341 -0.235947,1.54313 -0.593438,3.35342 -0.934082,4.73006 -2.238504,15.58227 -2.621019,21.80571 -0.415941,6.76728 -0.417417,20.89727 -0.0027,25.92 1.013706,12.27749 2.59354,21.36196 5.102093,29.33842 0.520125,1.65384 0.920541,3.02782 0.889813,3.05327 -0.03073,0.0255 -1.043297,-0.57774 -2.250154,-1.34045 z M 274.66415,184.18286 c -0.38164,-1.30146 -0.21902,-10.2838 0.27063,-14.94858 0.55865,-5.32198 0.56423,-8.75462 0.0227,-13.95175 -0.23398,-2.24536 -0.38826,-4.86934 -0.34286,-5.83107 l 0.0825,-1.7486 0.57954,1.09714 c 0.31875,0.60343 0.79747,1.776 1.06381,2.60571 0.26635,0.82972 0.63526,1.69372 0.81979,1.92 0.49107,0.60217 0.97215,5.74487 0.66521,7.11098 -0.18655,0.83024 -0.15061,1.36913 0.13723,2.05803 0.2843,0.68044 0.3223,1.21821 0.14026,1.98499 -0.13733,0.57845 -0.31489,1.54543 -0.39459,2.14886 -0.0797,0.60343 -0.26673,1.47372 -0.41562,1.93398 -0.17804,0.55036 -0.17809,1.32521 -1.5e-4,2.26348 0.41209,2.17296 -0.0356,3.77191 -1.60846,5.74393 -0.53357,0.669 -0.72805,1.25553 -0.77366,2.33327 -0.1179,2.78607 -0.0852,3.51606 0.17972,4.01106 0.15593,0.29134 0.17316,0.83154 0.0413,1.29556 l -0.2261,0.79586 z"
       id="path1" />
  </g>
</svg>
