<?xml version="1.0" encoding="UTF-8" standalone="no"?>
<!-- Created with Inkscape (http://www.inkscape.org/) -->

<svg
   version="1.1"
   id="svg1"
   width="294.58286"
   height="294.58286"
   viewBox="0 0 294.58286 294.58286"
   sodipodi:docname="pony-tight-v-outline.svg"
   inkscape:version="1.4 (86a8ad7, 2024-10-11)"
   xmlns:inkscape="http://www.inkscape.org/namespaces/inkscape"
   xmlns:sodipodi="http://sodipodi.sourceforge.net/DTD/sodipodi-0.dtd"
   xmlns="http://www.w3.org/2000/svg"
   xmlns:svg="http://www.w3.org/2000/svg">
  <defs
     id="defs1" />
  <sodipodi:namedview
     id="namedview1"
     pagecolor="#ffffff"
     bordercolor="#000000"
     borderopacity="0.25"
     inkscape:showpageshadow="2"
     inkscape:pageopacity="0.0"
     inkscape:pagecheckerboard="0"
     inkscape:deskcolor="#d1d1d1"
     inkscape:zoom="2.766624"
     inkscape:cx="147.47215"
     inkscape:cy="147.29143"
     inkscape:window-width="1920"
     inkscape:window-height="1017"
     inkscape:window-x="-8"
     inkscape:window-y="-8"
     inkscape:window-maximized="1"
     inkscape:current-layer="g1" />
  <g
     inkscape:groupmode="layer"
     inkscape:label="Image"
     id="g1">
    <path
       style="fill:#000000"
       d="m 250.28571,213.77266 c -1.056,-0.21498 -2.6837,-0.63492 -3.61712,-0.9332 -0.93341,-0.29827 -1.90219,-0.54232 -2.15283,-0.54232 -0.82573,0 -2.24234,-0.83766 -4.0091,-2.37064 -0.95752,-0.83083 -2.66666,-1.95418 -3.79809,-2.49635 -1.13143,-0.54216 -2.48914,-1.25492 -3.01714,-1.58389 -0.528,-0.32898 -1.80765,-1.06336 -2.84366,-1.63196 -2.06641,-1.13412 -2.35556,-1.06354 -2.36357,0.57701 -0.005,1.01497 -0.91359,1.74583 -2.17047,1.74583 -0.6339,0 -1.04123,0.27713 -1.83983,1.25171 -1.05268,1.28466 -2.38038,2.16967 -2.94437,1.96264 -0.5814,-0.21342 -1.96025,0.77592 -2.04768,1.46923 -0.16857,1.33676 -0.64779,2.42546 -1.13582,2.58036 -1.65198,0.52432 -4.12503,-1.0502 -5.37791,-3.42394 -0.3583,-0.67886 -0.89358,-1.5401 -1.1895,-1.91387 -0.49836,-0.62947 -0.6067,-0.65475 -1.46923,-0.34285 -1.31427,0.47524 -1.78851,0.42492 -3.49796,-0.3712 -2.21851,-1.03319 -4.56839,-1.51606 -5.89715,-1.21181 -0.60342,0.13818 -2.64,0.33507 -4.52571,0.43755 -2.85814,0.15532 -3.65674,0.29932 -4.8,0.86552 -0.75429,0.37356 -1.58619,0.86828 -1.84867,1.09937 -0.37565,0.33073 -0.89395,0.38524 -2.43484,0.25606 -1.75902,-0.14747 -2.10016,-0.0906 -3.36276,0.56107 -1.19983,0.61923 -1.80596,0.73588 -4.14802,0.79827 -2.64044,0.0703 -4.18758,-0.20515 -6.10826,-1.08768 -0.44201,-0.2031 -1.11815,-0.18813 -2.33143,0.0516 -1.43398,0.28338 -1.89329,0.27229 -2.85527,-0.0689 -1.83796,-0.6519 -2.47806,-1.15781 -6.59314,-5.21099 -4.40435,-4.3381 -5.52946,-5.18772 -7.49388,-5.65898 -2.87046,-0.68861 -5.32326,0.42082 -6.81903,3.08433 -1.36558,2.43167 -2.84652,4.33257 -3.50394,4.49757 -0.42944,0.10778 -1.29032,-0.20785 -2.74613,-1.00684 -1.9659,-1.07895 -2.18143,-1.1388 -2.95475,-0.82041 -3.31301,1.364 -4.38731,1.65344 -6.12664,1.65068 -1.72923,-0.003 -1.92078,-0.068 -3.21038,-1.09422 -1.4686,-1.16864 -2.82382,-1.41778 -4.41706,-0.81203 -0.65204,0.24791 -1.12869,0.1017 -3.65214,-1.12024 -2.85,-1.38007 -3.92194,-1.92139 -6.27512,-3.16889 l -1.1786,-0.62482 -0.95846,0.65043 c -1.68648,1.14448 -3.59252,1.63218 -6.24664,1.59834 -2.04214,-0.026 -2.56102,-0.12722 -3.24472,-0.6327 l -0.81384,-0.6017 -1.33184,0.57295 c -1.563114,0.67243 -3.080452,0.74124 -3.561582,0.16151 -0.472216,-0.56898 -0.672781,-0.52526 -1.704742,0.37159 -1.220782,1.06096 -2.805416,1.77099 -3.476854,1.55788 -0.310451,-0.0985 -0.943041,0.0279 -1.449049,0.28953 -0.757204,0.39157 -1.393909,0.43733 -4.059423,0.29179 -3.716896,-0.20296 -4.675344,-0.44184 -6.218178,-1.54982 -1.324071,-0.95088 -1.724186,-0.98761 -4.039065,-0.37078 -2.343135,0.62436 -3.421911,0.37573 -4.963361,-1.14389 -1.193047,-1.17616 -1.92689,-1.52826 -3.416361,-1.63919 -1.220881,-0.0909 -1.295033,-0.12065 -2.307246,-0.92506 -0.746101,-0.59292 -1.41364,-0.83379 -2.712002,-0.97854 -0.999826,-0.11148 -2.225774,-0.47189 -2.922552,-0.85919 -1.55884,-0.86649 -1.832284,-0.84591 -3.518951,0.2649 -3.252904,2.14229 -3.491058,2.22693 -5.245842,1.86449 -2.283506,-0.47165 -2.5809,-0.42868 -4.06131,0.58688 -1.879764,1.28951 -2.525136,1.38839 -4.530984,0.69422 -1.882904,-0.65162 -3.627092,-0.81317 -9.556937,-0.88521 l -3.977143,-0.0483 -0.08663,-1.04867 c -0.04765,-0.57677 0.06103,-1.43849 0.241505,-1.91493 0.43171,-1.13969 0.836897,-15.59203 0.506599,-18.0695 -0.170222,-1.27678 -0.150467,-2.05235 0.06428,-2.52367 0.634896,-1.39345 3.24685,-1.2483 7.63996,0.42455 4.429402,1.68667 4.859687,1.8533 6.010459,2.32756 0.615415,0.25363 1.226787,0.34749 1.43305,0.22002 0.197853,-0.12228 1.035737,-0.31407 1.861965,-0.42619 1.194322,-0.16207 1.757945,-0.0962 2.749807,0.3213 1.205967,0.50764 3.762955,0.93741 7.892037,1.32646 1.089883,0.10269 2.132854,0.33796 2.317715,0.52282 0.494796,0.49479 1.080593,0.41698 2.805349,-0.37264 1.62051,-0.74189 2.444506,-0.74992 4.89535,-0.0477 0.824614,0.23628 1.345282,0.19883 2.625584,-0.18881 1.366513,-0.41375 1.87881,-0.43981 3.549665,-0.18057 3.63536,0.56405 5.075366,0.42213 7.708506,-0.75971 3.291447,-1.47731 4.833987,-1.77346 6.562971,-1.26 0.748995,0.22243 1.522159,0.59762 1.718143,0.83377 0.29135,0.35105 0.715653,0.39568 2.326654,0.24472 l 1.970321,-0.18463 1.055724,1.26298 c 0.612022,0.73217 1.290685,1.26551 1.614783,1.26901 1.47211,0.0159 3.287139,1.2835 5.084774,3.55127 1.78676,2.25405 2.03596,2.429 4.90381,3.44263 2.20863,0.78064 3.0693,0.96448 3.84,0.82025 0.54633,-0.10224 1.54739,-0.17935 2.22456,-0.17135 1.05408,0.0125 1.37722,-0.128 2.24587,-0.97621 0.94622,-0.92396 1.12574,-0.9892 2.66226,-0.96741 1.33421,0.0189 1.9244,-0.12923 3.1027,-0.77881 0.8003,-0.4412 1.733,-0.80441 2.07268,-0.80714 0.42402,-0.003 0.92678,-0.43532 1.60396,-1.3779 1.1339,-1.57831 1.88316,-1.87059 3.61078,-1.40852 1.17228,0.31354 1.22941,0.29788 2.32035,-0.63592 0.61516,-0.52655 1.68617,-1.16696 2.38003,-1.42313 0.69387,-0.25618 1.78926,-0.76656 2.43421,-1.13419 0.90683,-0.5169 1.65292,-0.68705 3.29143,-0.75062 1.16533,-0.0452 3.10622,-0.27131 4.31307,-0.50242 2.33003,-0.44621 4.87241,-0.25584 7.0279,0.52623 0.6232,0.22611 1.55993,0.30206 2.51275,0.20372 2.95872,-0.30537 4.27298,0.59071 5.14093,3.50512 0.31212,1.04803 0.50128,2.01262 0.42036,2.14355 -0.0809,0.13092 0.87693,0.92648 2.12854,1.76791 2.11352,1.42086 3.56006,3.03181 4.18519,4.66087 0.0953,0.2483 0.27654,0.38762 0.4028,0.30959 0.50359,-0.31124 6.70752,-1.77498 7.52308,-1.77498 0.56502,0 1.0887,0.23131 1.48945,0.65788 0.78642,0.83711 1.73447,1.01913 3.43388,0.65931 0.97969,-0.20744 1.75006,-0.19658 2.80523,0.0396 l 1.45463,0.32554 1.81371,-1.29424 c 0.99754,-0.71183 2.2594,-1.71458 2.80414,-2.22833 1.75093,-1.65134 5.18723,-3.89127 6.46213,-4.21229 1.11241,-0.28011 1.35116,-0.24845 2.34687,0.31117 l 1.10848,0.623 1.49926,-1.41794 c 0.8246,-0.77987 1.69792,-1.41794 1.94073,-1.41794 0.67609,0 2.06169,0.7943 2.71935,1.55887 l 0.59019,0.68614 1.63806,-1.2185 c 2.3042,-1.71402 3.37553,-1.85557 4.62062,-0.61048 0.43311,0.43311 0.53963,0.39039 1.70484,-0.68366 0.68358,-0.6301 1.6791,-1.3279 2.21227,-1.55068 0.86,-0.35933 1.04154,-0.35778 1.60852,0.0137 0.65829,0.43134 0.86642,1.38167 1.0257,4.6836 l 0.0661,1.37044 1.50857,0.58743 c 0.82971,0.32308 2.14395,1.15667 2.92052,1.85242 0.77658,0.69574 1.49353,1.26498 1.59323,1.26498 0.0997,0 0.66362,-0.38762 1.25316,-0.86139 0.95259,-0.76552 1.20733,-0.84283 2.28863,-0.69463 1.16657,0.1599 1.26179,0.11789 2.30976,-1.01902 0.60117,-0.65219 1.22752,-1.43709 1.39189,-1.74422 0.62779,-1.17304 2.69655,-2.04415 5.73896,-2.41656 2.41719,-0.29588 3.04667,-0.47843 4.00049,-1.16011 3.01323,-2.15351 5.27922,-2.78927 9.77193,-2.74168 2.25334,0.0239 3.28914,-0.0987 4.76032,-0.56308 1.34929,-0.42595 2.58869,-0.5948 4.38857,-0.59788 1.37954,-0.002 3.24882,-0.1831 4.15397,-0.40165 1.75278,-0.42323 4.98309,-0.53171 7.1183,-0.23905 1.2152,0.16657 1.2895,0.22325 1.16848,0.89143 -0.92066,5.08317 -1.64406,12.77247 -1.44766,15.38784 0.0963,1.28229 0.0541,2.94858 -0.0938,3.70286 -0.17937,0.91482 -0.17389,1.99922 0.0165,3.257 0.31244,2.06446 -0.0356,6.20675 -0.67813,8.07182 -0.47642,1.38283 -2.56056,4.16832 -3.11879,4.16832 -0.24553,0 -1.07478,0.47356 -1.84278,1.05236 -0.76799,0.57879 -1.66595,1.19593 -1.99546,1.37143 -0.84417,0.44959 -7.97111,0.36341 -10.37232,-0.12541 z m 11.04534,-1.96125 c 0.79494,-0.56256 1.87941,-1.2697 2.40994,-1.57141 1.21727,-0.69227 2.46041,-2.56854 2.89506,-4.36952 0.18457,-0.76476 0.33517,-2.56305 0.33466,-3.9962 -5.1e-4,-1.43314 0.003,-3.408 0.009,-4.38857 0.005,-0.98057 -0.0197,-3.10391 -0.0556,-4.71854 -0.0548,-2.46575 0.35951,-7.25026 1.23631,-14.27574 l 0.1626,-1.30286 -0.9271,-0.042 c -1.80328,-0.0817 -4.23238,0.0869 -5.31567,0.36901 -0.60343,0.15716 -2.64,0.38231 -4.52572,0.50034 -1.88571,0.11803 -4.10742,0.42829 -4.93714,0.68945 -1.08457,0.34139 -2.5493,0.48511 -5.21143,0.51136 -3.43789,0.0339 -3.82056,0.0914 -5.34776,0.80289 -0.9047,0.42152 -1.89381,1.00023 -2.19803,1.28602 -0.9171,0.86158 -2.53481,1.3888 -5.16096,1.682 -2.67908,0.29912 -4.58792,1.1328 -5.15979,2.25355 -0.16485,0.32308 -0.87174,1.17862 -1.57088,1.9012 -1.25851,1.30073 -1.28479,1.31211 -2.64258,1.14432 -1.27604,-0.15768 -1.42746,-0.11075 -2.17703,0.67478 -1.18841,1.24543 -2.02634,1.13091 -3.85725,-0.52718 -0.83291,-0.75428 -1.65179,-1.37142 -1.81973,-1.37142 -0.58758,0 -0.0647,2.84981 1.10001,5.99474 0.84027,2.26897 1.34119,4.27992 1.84475,7.40572 0.77125,4.7875 1.44917,7.71954 1.78486,7.71954 0.12252,0 0.38192,-0.20151 0.57644,-0.44779 0.19452,-0.24629 0.82731,-0.95046 1.40622,-1.56482 l 1.05255,-1.11703 -0.45012,-0.9439 c -0.58964,-1.23649 -0.14135,-1.74545 0.59809,-0.67903 0.29571,0.42648 0.61952,1.00169 0.71958,1.27823 0.28334,0.78313 0.82869,0.3879 1.07047,-0.77577 0.12062,-0.58053 0.35045,-1.21354 0.51075,-1.40668 0.41705,-0.50252 0.0621,-1.37804 -1.20298,-2.9672 -1.44719,-1.81793 -2.61281,-4.4112 -2.8359,-6.30932 -0.14695,-1.25038 -0.10537,-1.52384 0.23173,-1.52384 0.29386,0 0.45313,0.40997 0.55945,1.44 0.19381,1.87765 1.1885,4.06152 2.7703,6.08223 0.69965,0.8938 1.2721,1.85037 1.2721,2.12572 0,0.27534 0.18485,0.50062 0.41077,0.50062 0.22593,0 1.55279,0.63794 2.94858,1.41764 1.39578,0.77969 3.71666,2.01667 5.15751,2.74884 1.44085,0.73218 2.98853,1.66796 3.4393,2.07952 1.39662,1.27513 3.05821,2.53115 3.34846,2.53115 0.15242,0 1.1838,0.30745 2.29196,0.68322 3.40015,1.15298 7.67851,1.73661 11.61485,1.58443 2.02797,-0.0784 2.30383,-0.16236 3.63962,-1.10767 z m -6.24534,-0.76828 c 0,-0.0863 0.3203,-0.70343 0.71178,-1.37143 0.68136,-1.16265 1.20822,-1.55905 1.20822,-0.90905 0,0.56826 -1.19558,2.43735 -1.55908,2.43735 -0.1985,0 -0.36092,-0.0706 -0.36092,-0.15687 z m -14.81143,-6.36232 c 0,-0.11584 0.31665,-0.6766 0.70366,-1.24613 0.38701,-0.56954 0.72068,-1.26156 0.74149,-1.53782 0.052,-0.69019 -1.41093,-4.13903 -2.06639,-4.87154 -0.7707,-0.8613 -0.4924,-1.35586 0.37779,-0.67137 0.77957,0.61321 2.43774,4.2829 2.43774,5.39496 0,0.8258 -0.38796,1.65663 -1.17923,2.52537 -0.56401,0.61924 -1.01506,0.79988 -1.01506,0.40653 z m -17.90857,-4.32117 c -0.78793,-1.60655 -0.89535,-2.05107 -0.49566,-2.05107 0.34666,0 1.39734,1.84551 1.58507,2.78416 0.25271,1.26355 -0.28892,0.89908 -1.08941,-0.73309 z m 0.80145,-1.84536 c -0.091,-0.33942 -0.16315,-1.296 -0.16041,-2.12571 0.005,-1.3858 0.0377,-1.46524 0.40769,-0.97615 0.24676,0.32625 0.4027,1.14941 0.4027,2.12572 0,1.60463 -0.34336,2.12029 -0.64998,0.97614 z m 37.22243,-4.72019 c 0.17157,-2.02973 0.89622,-4.26802 1.50323,-4.64317 0.55278,-0.34164 0.56956,0.30012 0.036,1.37848 -0.29632,0.5989 -0.63038,1.9979 -0.74237,3.10888 -0.13631,1.35222 -0.33131,2.06235 -0.58988,2.14817 -0.31989,0.10617 -0.35546,-0.23619 -0.20701,-1.99236 z M 247.68,194.52591 c 0,-0.14446 0.18514,-0.78741 0.41143,-1.42877 0.22628,-0.64136 0.41143,-1.65459 0.41143,-2.25163 0,-1.36499 0.65642,-1.29613 0.74879,0.0786 0.0747,1.11125 -0.7393,3.59859 -1.22879,3.75497 -0.18858,0.0602 -0.34286,-0.009 -0.34286,-0.15312 z m -11.30649,-6.30453 c -1.34085,-0.62107 -4.60208,-3.34756 -4.60208,-3.84749 0,-0.3175 0.1422,-0.30091 0.75428,0.088 0.41486,0.2636 1.00115,0.69551 1.30286,0.95981 0.30171,0.26429 1.5102,0.94496 2.68552,1.5126 1.92143,0.92799 2.20493,0.99569 2.81101,0.67133 0.91927,-0.49198 1.23903,-0.0708 0.4388,0.57797 -0.79814,0.64706 -2.04496,0.66095 -3.39039,0.0378 z m 14.42203,-4.31488 c -0.18696,-0.48721 0.0736,-2.01769 0.44279,-2.60135 0.42074,-0.66509 0.96425,0.0576 0.58136,0.77308 -0.16483,0.308 -0.29969,0.93839 -0.29969,1.40088 0,0.87709 -0.45002,1.14258 -0.72446,0.42739 z m -32.68387,27.31611 c 0.2284,-1.33794 0.96156,-2.27744 2.16685,-2.77669 0.43767,-0.18129 0.79576,-0.38696 0.79576,-0.45704 0,-0.0701 -0.18153,-0.88824 -0.40341,-1.81815 -0.22187,-0.9299 -0.66187,-3.35702 -0.97776,-5.39359 -0.39502,-2.54669 -1.00623,-4.98381 -1.95752,-7.80538 -1.0991,-3.26001 -1.35144,-4.33392 -1.22871,-5.22931 0.15016,-1.09555 0.12627,-1.13766 -0.86193,-1.51896 -0.55901,-0.2157 -1.10895,-0.43394 -1.22209,-0.48498 -0.11315,-0.051 -0.20572,0.52155 -0.20572,1.27243 0,2.12414 -0.51175,6.85922 -0.95421,8.82906 -0.22025,0.98057 -0.5333,2.95024 -0.69567,4.37703 -0.16236,1.4268 -0.57392,3.42521 -0.91458,4.44091 l -0.61937,1.84674 0.57977,0.14551 c 0.57642,0.14467 2.32978,2.3118 2.32978,2.87957 0,0.43204 1.94327,2.51539 2.59707,2.78428 1.00405,0.41294 1.35673,0.16804 1.57174,-1.09143 z m -1.60462,-1.54047 c -0.21634,-0.56378 0.19094,-1.82444 0.63729,-1.97261 0.22078,-0.0733 0.29411,0.26044 0.23408,1.06528 -0.0911,1.22128 -0.56252,1.71217 -0.87137,0.90733 z m -1.82312,-5.78678 c -0.0953,-0.0953 -0.0523,-0.39917 0.0955,-0.67535 0.14781,-0.27618 0.42118,-1.56054 0.60749,-2.85412 0.18631,-1.29359 0.46218,-2.34241 0.61304,-2.33071 0.38213,0.0296 0.20252,2.84116 -0.29345,4.59339 -0.38611,1.3641 -0.62695,1.66246 -1.02262,1.26679 z m -35.14785,3.86776 c 0.62505,-1.27756 0.73728,-1.85093 0.71137,-3.63428 -0.0169,-1.16458 -0.0641,-2.36427 -0.10482,-2.66598 -0.0407,-0.30172 0.0489,-0.58576 0.19928,-0.6312 0.84781,-0.25626 0.87329,5.92118 0.0297,7.20861 -0.5696,0.86933 -0.52512,0.94244 0.69152,1.13656 0.68223,0.10885 1.25843,-0.0393 2.1927,-0.56388 1.2353,-0.69356 1.2891,-0.78033 2.13162,-3.43807 0.47538,-1.4996 0.97023,-3.29341 1.09966,-3.98624 0.12944,-0.69283 0.31192,-1.33628 0.40553,-1.42988 0.45002,-0.45002 0.52238,0.41571 0.20622,2.46723 -0.19105,1.2397 -0.41828,3.03339 -0.50496,3.98597 l -0.15759,1.73196 1.20469,-0.0862 1.20468,-0.0862 -0.0972,-2.91318 c -0.0638,-1.91397 0.0154,-3.12358 0.23112,-3.52659 0.48495,-0.90614 0.87608,-0.31057 0.54376,0.82797 -0.29816,1.02148 -0.07,4.57124 0.30892,4.8054 0.12586,0.0778 0.73522,-0.11691 1.35414,-0.43266 0.61892,-0.31575 1.73401,-0.64618 2.47798,-0.73429 0.74397,-0.0881 1.35267,-0.26775 1.35267,-0.39919 0,-0.13144 -0.23566,-1.31768 -0.5237,-2.63608 -0.84395,-3.86295 -0.95974,-5.99993 -0.43484,-8.02558 0.54807,-2.11507 0.9231,-2.88239 1.24932,-2.55616 0.1371,0.13709 0.003,0.99999 -0.31183,2.01287 -0.33286,1.06948 -0.51896,2.31909 -0.46904,3.14948 l 0.0827,1.37658 0.36967,-1.23429 c 0.20332,-0.67885 0.65143,-1.728 0.9958,-2.33143 0.92466,-1.62023 1.33226,-3.75346 1.15785,-6.05962 -0.0834,-1.10272 -0.0855,-2.25785 -0.005,-2.56695 0.30338,-1.16013 0.57939,-0.48533 0.76603,1.87284 0.22939,2.89826 -0.133,4.98088 -1.25392,7.20608 -0.42929,0.85222 -0.98945,2.38119 -1.24479,3.39772 -0.39803,1.58456 -0.41677,2.10699 -0.1314,3.66194 0.63469,3.45837 0.34622,3.11506 2.43749,2.90086 1.01255,-0.10371 1.95153,-0.29144 2.08662,-0.41718 0.33073,-0.30786 1.2278,-2.73812 1.81222,-4.90953 0.4763,-1.76967 1.10921,-2.55191 1.08224,-1.33758 -0.0148,0.66655 -1.10879,4.94623 -1.47823,5.78285 -0.18379,0.4162 -0.0529,0.48 0.98491,0.48 0.65828,0 1.59342,0.11373 2.0781,0.25274 0.84647,0.24276 0.88647,0.21842 1.014,-0.61715 0.073,-0.47843 0.19033,-2.47444 0.26068,-4.43559 0.0931,-2.59672 0.31739,-4.29819 0.82517,-6.2611 0.86133,-3.32963 1.89691,-5.67033 2.50869,-5.67033 0.25307,0 0.38691,0.14982 0.3063,0.34286 -0.0787,0.18857 -0.66959,1.88572 -1.31302,3.77143 l -1.16986,3.42857 -0.0367,5.11331 -0.0367,5.11331 0.91186,0.43483 c 1.39272,0.66415 2.43919,0.3377 2.94145,-0.91759 0.65289,-1.63171 1.20753,-4.09101 1.41298,-6.26515 0.10432,-1.10385 0.35979,-2.64671 0.56773,-3.42857 0.20793,-0.78186 0.50707,-3.08785 0.66474,-5.12442 0.15768,-2.03658 0.42659,-4.50515 0.59759,-5.48572 0.3118,-1.78802 0.35132,-5.0517 0.0667,-5.51217 -0.24548,-0.3972 -1.52823,0.4285 -2.99048,1.92494 -0.74861,0.76612 -1.51687,1.39295 -1.70724,1.39295 -0.19037,0 -0.53308,-0.36154 -0.76159,-0.80342 -0.61882,-1.19666 -1.35773,-1.30387 -2.6647,-0.38661 -3.5659,2.50265 -3.91298,2.65078 -4.18715,1.78695 -0.18811,-0.5927 -1.16967,-1.69407 -1.50977,-1.69407 -0.39694,0 0.39463,2.50684 1.29915,4.11429 0.7577,1.34653 1.3666,3.45857 1.81876,6.30857 0.26214,1.65234 -1.33381,6.30857 -2.16231,6.30857 -0.54083,0 -0.5652,0.11112 0.45796,-2.08777 0.71593,-1.53863 0.87613,-2.22034 0.86295,-3.67223 -0.0213,-2.34521 -0.73662,-4.97789 -1.87872,-6.91428 -0.50791,-0.86114 -1.00753,-2.12628 -1.11027,-2.81143 -0.10275,-0.68514 -0.20834,-1.24572 -0.23466,-1.24572 -0.0263,0 -0.70519,0.61715 -1.5086,1.37143 -1.05614,0.99156 -1.68005,1.37143 -2.25244,1.37143 -0.51241,0 -0.79168,-0.14173 -0.79168,-0.40178 0,-0.70673 -0.9839,-1.02129 -2.18385,-0.69817 -0.59643,0.1606 -1.159,0.41267 -1.25015,0.56016 -0.0911,0.14749 -0.92951,0.78618 -1.86301,1.41931 -0.9335,0.63313 -2.12928,1.57229 -2.65728,2.08702 -1.67992,1.63773 -4.91836,3.61632 -5.91895,3.61632 -0.4982,0 -0.9821,-0.12343 -1.07533,-0.27429 -0.0932,-0.15086 -0.5641,-0.27428 -1.04638,-0.27428 -0.70508,0 -0.94628,0.15684 -1.23125,0.80064 -0.19492,0.44036 -0.78891,1.36971 -1.31997,2.06522 -0.91958,1.20433 -0.95715,1.3393 -0.78873,2.83364 0.0973,0.86299 0.36945,2.24792 0.60486,3.07764 l 0.42801,1.50857 0.37351,-0.82286 c 0.25907,-0.57073 0.32885,-1.45316 0.22776,-2.88 -0.14744,-2.08091 0.088,-3.59192 0.58546,-3.75775 0.34987,-0.11663 0.14944,6.71551 -0.21748,7.41331 -0.14497,0.2757 -0.41785,0.44207 -0.60641,0.36972 -0.26176,-0.10045 -0.29309,0.17017 -0.13246,1.14444 0.30175,1.8302 0.28552,2.29586 -0.0758,2.17541 -0.32072,-0.10691 -0.91674,-2.56384 -1.76846,-7.29008 l -0.45966,-2.55066 0.86515,-1.15219 c 0.47582,-0.63371 1.04037,-1.469 1.25454,-1.8562 0.37943,-0.68596 0.37006,-0.70115 -0.36587,-0.59314 -0.4154,0.061 -1.20377,-0.0765 -1.75193,-0.30558 -0.99378,-0.41523 -1.00054,-0.41332 -2.35074,0.66172 -2.34966,1.87083 -3.19987,1.1245 -0.9327,-0.81874 1.73522,-1.48731 0.98024,-1.46088 -4.05468,0.14191 -1.53588,0.48893 -3.26906,0.57476 -3.51664,0.17416 -0.10362,-0.16766 -0.84944,0.7771 -1.68994,2.1407 -0.82745,1.34245 -1.65874,2.44452 -1.84731,2.44904 -0.50604,0.0121 -0.41865,-0.48638 0.24982,-1.42516 0.32598,-0.4578 1.00011,-1.76955 1.49806,-2.91501 0.88863,-2.04416 0.89657,-2.09773 0.42938,-2.89767 -0.46463,-0.79556 -3.98604,-3.41468 -4.62361,-3.4389 -0.17635,-0.007 -0.88446,0.69753 -1.57357,1.56496 -1.48299,1.86673 -3.49175,6.64888 -3.67032,8.73773 l -0.11973,1.40059 1.38977,0.18436 c 3.32476,0.44105 4.71586,1.3678 9.91734,6.60691 2.33904,2.35597 3.88506,3.67823 4.86506,4.16094 1.38002,0.67974 1.50541,0.69385 3.19027,0.35895 1.65787,-0.32953 1.85685,-0.3105 3.6378,0.34787 1.03621,0.38306 2.33779,0.71136 2.89241,0.72956 0.9608,0.0315 1.04343,-0.0385 1.75054,-1.48379 z m -9.52687,0.28037 c -0.0767,-0.0767 0.14922,-1.21836 0.50193,-2.53714 0.3527,-1.31878 0.6417,-2.80384 0.64221,-3.30014 9.5e-4,-0.91876 0.84899,-2.88847 1.38669,-3.22078 0.55291,-0.34172 0.64464,0.15934 0.17478,0.95475 -0.25727,0.43553 -0.63798,1.75858 -0.84602,2.94013 -0.67317,3.82314 -1.34216,5.68062 -1.85959,5.16318 z m -4.72272,-3.31164 c -0.25669,-0.66892 -0.19807,-1.86226 0.13897,-2.8291 0.31984,-0.91749 1.02818,-1.03989 0.79376,-0.13715 -0.0743,0.28606 -0.136,1.16814 -0.13714,1.96017 -0.002,1.41131 -0.43163,1.95455 -0.79559,1.00608 z m 13.67394,-0.40679 c -0.23961,-0.3877 0.0939,-2.11058 0.4513,-2.33148 0.4597,-0.28411 0.53128,-0.006 0.34617,1.34446 -0.17128,1.24962 -0.43412,1.57493 -0.79747,0.98702 z m 29.69309,-0.18792 c -0.0607,-0.11314 0.21981,-1.68686 0.62325,-3.49714 0.40345,-1.81029 0.95338,-4.97287 1.22206,-7.02796 0.46922,-3.58896 0.74984,-4.67194 1.11577,-4.30601 0.24673,0.24673 -0.8434,8.44068 -1.50815,11.33591 -0.31148,1.35665 -0.62721,2.74434 -0.70162,3.08377 -0.13221,0.60313 -0.53136,0.82171 -0.75131,0.41143 z m -40.51638,-1.17353 c 0,-0.57046 1.27675,-3.26232 2.01254,-4.24318 0.93379,-1.24482 0.71664,-0.001 -0.40281,2.30673 -1.20318,2.48062 -1.60973,2.96968 -1.60973,1.93645 z m 16.09793,-2.93014 c -0.09,-0.8723 -0.0501,-1.6996 0.0888,-1.83845 0.34768,-0.34768 0.58037,0.35431 0.63597,1.91861 0.0679,1.91091 -0.52603,1.84521 -0.72474,-0.0802 z m -22.9539,-2.2049 c 6.5e-4,-0.11314 0.37757,-0.76114 0.8376,-1.44 0.46004,-0.67886 1.14805,-1.83557 1.52892,-2.57048 0.46471,-0.89669 0.7833,-1.24538 0.96859,-1.06009 0.31607,0.31606 -0.10764,1.26469 -1.65115,3.69674 -0.86464,1.36238 -1.68772,2.03388 -1.68396,1.37383 z m 25.86296,-3.29143 c 0.15316,-3.34536 0.51062,-5.39589 1.03679,-5.94743 0.51488,-0.5397 0.56408,0.15203 0.1426,2.0051 -0.2442,1.07367 -0.43781,3.14425 -0.43781,4.68219 0,2.3752 -0.0625,2.75728 -0.45084,2.75728 -0.40306,0 -0.43388,-0.37061 -0.29074,-3.49714 z m 12.98684,2.65158 c -0.0636,-0.2138 -0.24741,-2.05501 -0.40854,-4.09158 -0.16112,-2.03657 -0.37441,-3.98057 -0.47397,-4.32 -0.13117,-0.44722 -0.0671,-0.61714 0.23267,-0.61714 0.22753,0 0.50403,0.33943 0.61444,0.75428 0.31342,1.17756 0.62209,8.13037 0.37344,8.41158 -0.12933,0.14627 -0.27084,0.0889 -0.33804,-0.13714 z m -44.04849,-2.10301 c 0.0219,-0.75656 2.07674,-5.65688 2.42005,-5.77132 0.50974,-0.16991 0.35858,0.53579 -0.6511,3.03977 -0.528,1.30942 -0.96,2.56769 -0.96,2.79615 0,0.22847 -0.18515,0.4154 -0.41143,0.4154 -0.22629,0 -0.40517,-0.216 -0.39752,-0.48 z m 49.88689,-9.00599 c -0.46965,-0.5659 -0.50733,-2.89977 -0.0494,-3.05823 0.23557,-0.0815 0.34286,0.21275 0.34286,0.94034 0,0.58243 0.18078,1.31707 0.40174,1.63254 0.60753,0.86736 -0.0166,1.30307 -0.69523,0.48535 z m -71.41269,18.19789 c 0.0452,-0.0452 -0.0265,-0.94734 -0.15924,-2.00476 -0.33821,-2.69357 0.22389,-4.91699 1.10535,-4.37222 0.2089,0.12911 0.26977,0.56501 0.16789,1.20215 -0.0879,0.54978 -0.0501,1.36742 0.084,1.81698 l 0.24386,0.81738 0.0278,-0.96 c 0.0337,-1.16458 0.42915,-1.89479 0.81575,-1.50628 0.14885,0.1496 0.30828,1.01257 0.35428,1.91771 l 0.0836,1.64571 1.37143,0.007 c 1.0678,0.006 1.77197,0.23337 3.18064,1.02857 0.99507,0.56172 1.8749,1.02131 1.95517,1.02131 0.0803,0 0.5771,-0.648 1.10405,-1.44 l 0.95809,-1.44 -0.1704,-2.87203 c -0.0937,-1.57962 -0.1038,-3.73962 -0.0224,-4.8 0.0814,-1.06039 0.0314,-3.23174 -0.11119,-4.82523 -0.14256,-1.59349 -0.18124,-3.20787 -0.086,-3.58751 0.3322,-1.32358 4.30056,-5.18497 4.30056,-4.18464 0,0.0907 -0.78802,1.01601 -1.75114,2.05628 l -1.75115,1.8914 0.086,6.19858 c 0.0473,3.40922 0.14519,6.25777 0.21752,6.33011 0.0723,0.0723 0.22152,-0.1555 0.3315,-0.50629 0.49796,-1.58823 1.54853,-3.51782 1.9153,-3.51782 0.51194,0 0.50837,0.0539 -0.14518,2.19429 -0.29941,0.98057 -0.54533,1.87195 -0.54648,1.98084 -0.001,0.10889 0.66254,-0.13464 1.47487,-0.54118 l 1.47696,-0.73916 0.17161,-1.65311 c 0.24015,-2.31331 2.29576,-7.22213 3.8559,-9.20795 1.11066,-1.41369 1.24714,-1.74097 1.24714,-2.9908 0,-1.73724 -0.5525,-3.11599 -1.49651,-3.73453 -0.57618,-0.37752 -1.07784,-0.43795 -2.51887,-0.30338 -1.31999,0.12326 -2.06614,0.0549 -2.80058,-0.25645 -1.67583,-0.71051 -5.69029,-0.81744 -8.39838,-0.22369 -2.12702,0.46635 -2.33995,0.57164 -2.33995,1.15705 0,0.87547 -0.87816,0.69997 -1.10334,-0.22051 -0.21009,-0.85877 -0.71502,-0.79053 -2.73666,0.36984 l -1.50857,0.86589 -0.0561,1.78285 c -0.0308,0.98058 -0.30819,3.07886 -0.61632,4.66286 -0.32816,1.68699 -0.56057,3.98779 -0.56106,5.55429 -6.8e-4,2.19391 -0.0747,2.67428 -0.41226,2.67428 -0.26621,0 -0.41142,-0.26686 -0.41142,-0.75609 0,-0.41586 -0.11392,-1.15331 -0.25316,-1.63879 -0.13923,-0.48548 -0.34155,-2.01268 -0.44959,-3.39377 -0.16289,-2.0823 -0.13137,-2.48943 0.18458,-2.3843 0.20956,0.0697 0.44885,0.48688 0.53175,0.92701 0.1392,0.73903 0.17566,0.69535 0.47672,-0.5712 0.79137,-3.32915 1.10269,-6.72 0.61699,-6.72 -0.49501,0 -2.98683,2.32968 -3.0071,2.81143 -0.03,0.71426 -0.45813,0.58291 -1.11734,-0.34286 -0.96095,-1.34953 -1.90564,-1.14495 -3.16647,0.68572 -0.85072,1.23521 -1.18126,1.50857 -1.82408,1.50857 -0.4318,0 -1.53741,0.37977 -2.45691,0.84393 -1.39899,0.70621 -1.87889,0.8181 -2.94075,0.68564 -1.0697,-0.13343 -1.3917,-0.0563 -2.05086,0.49127 l -0.78192,0.64956 0.1965,2.35894 c 0.16719,2.00713 0.33992,2.60138 1.15817,3.98455 0.52892,0.89409 1.25522,1.75937 1.614,1.92284 0.35878,0.16347 0.65232,0.41601 0.65232,0.5612 0,0.68475 -0.6491,0.47084 -2.24258,-0.73902 -2.13453,-1.62066 -2.98492,-3.1517 -3.11839,-5.61433 l -0.093,-1.71601 h -0.90729 c -0.85843,0 -0.90266,0.048 -0.82118,0.89143 0.10444,1.08108 -0.31963,1.15788 -1.30539,0.23641 -0.3854,-0.36026 -1.68816,-0.9821 -2.89501,-1.38186 -4.29591,-1.42298 -4.5,-1.52806 -5.49243,-2.82782 -0.98674,-1.29229 -1.16046,-1.16732 -0.66437,0.47794 0.15891,0.527 0.39666,2.04359 0.52834,3.37019 0.22604,2.27724 0.45627,2.95406 2.14186,6.29657 0.0571,0.11314 -0.0965,0.20571 -0.34126,0.20571 -0.76168,0 -2.3421,-3.68163 -2.35154,-5.47798 -0.004,-0.83397 -0.35891,-2.92332 -0.78784,-4.643 -0.891009,-3.57228 -1.137347,-3.87913 -3.704503,-4.61452 -1.316389,-0.37709 -1.753695,-0.65796 -2.331428,-1.49737 l -0.711118,-1.03321 -2.415089,0.17067 c -2.307762,0.1631 -2.421917,0.14457 -2.568729,-0.41684 -0.09991,-0.38204 -0.512098,-0.69491 -1.17862,-0.8946 -1.177165,-0.35269 -3.26105,0.13211 -5.546953,1.29047 -2.516444,1.27518 -3.846437,1.46131 -7.193312,1.00668 -2.758929,-0.37476 -3.116917,-0.36953 -4.557191,0.0665 -1.456334,0.44094 -1.683841,0.44296 -3.331964,0.0296 -2.306342,-0.57841 -2.577798,-0.56316 -4.202428,0.23602 -1.604501,0.78928 -2.380351,0.8521 -3.276025,0.26523 -0.358056,-0.23461 -1.248571,-0.47638 -1.978921,-0.53726 -3.619235,-0.30171 -6.676763,-0.79279 -7.938796,-1.27506 -1.402356,-0.53589 -1.897455,-0.52462 -3.983336,0.0907 -0.850582,0.25092 -1.246854,0.19299 -2.742857,-0.40102 -6.359324,-2.52503 -8.304771,-3.19605 -9.734726,-3.35768 l -1.61391,-0.18243 -0.08164,6.40465 c -0.123068,9.6549 -0.276564,13.43781 -0.587458,14.47791 -0.154837,0.51801 -0.238208,0.98515 -0.185268,1.03808 0.330321,0.33033 2.564584,-0.58523 3.769668,-1.54474 0.78491,-0.62495 1.560924,-1.09173 1.724475,-1.03728 0.661715,0.22028 0.423412,1.0013 -0.496183,1.62618 l -0.962892,0.6543 1.975363,0.29396 c 1.086449,0.16167 2.697132,0.31516 3.579294,0.34108 0.882163,0.0259 2.223241,0.29124 2.980173,0.5896 0.794567,0.31319 1.623722,0.46721 1.961782,0.36442 0.853628,-0.25955 1.545542,-0.94584 1.545542,-1.53297 0,-0.58079 1.319574,-2.69447 1.682163,-2.69447 0.396594,0 0.26489,0.63941 -0.310734,1.50858 -0.740643,1.11833 -0.692377,1.25588 0.317196,0.90394 0.6436,-0.22436 1.304116,-0.21468 2.573969,0.0377 1.906385,0.37893 2.189287,0.29079 4.949992,-1.54221 1.957241,-1.29954 3.12119,-1.44273 4.47026,-0.54996 0.736631,0.48748 1.580897,0.74973 2.742004,0.85172 1.810841,0.15908 2.886688,0.59553 3.709737,1.50499 0.287025,0.31716 0.810244,0.57665 1.16271,0.57665 h 0.640846 l -0.683357,-1.81551 c -0.786512,-2.08957 -0.815651,-2.29877 -0.320194,-2.29877 0.20848,0 0.646584,0.8625 1.028572,2.02496 0.597549,1.81846 0.760637,2.05959 1.599217,2.36451 0.513596,0.18675 1.459158,0.88009 2.101249,1.54075 1.273135,1.30996 2.013979,1.47732 3.959367,0.89447 l 1.023785,-0.30673 -0.37482,-1.24543 c -0.631964,-2.09986 -0.357314,-3.9011 0.594831,-3.9011 0.457916,0 0.538213,0.43187 0.127493,0.68571 -0.361889,0.22366 -0.347953,1.52167 0.03256,3.03283 0.281247,1.11693 0.378504,1.21865 1.165715,1.21925 0.545452,4.2e-4 1.433247,0.39084 2.432874,1.06989 1.534739,1.04256 1.652528,1.07414 4.721374,1.26589 4.243967,0.26517 4.440131,0.20174 4.675829,-1.51199 0.103814,-0.75482 0.314418,-1.45007 0.468009,-1.54499 0.399229,-0.24674 0.7574,0.43862 0.762295,1.45865 0.0052,1.08717 0.295525,1.28095 1.286503,0.85875 1.175361,-0.50075 2.009125,-1.34729 2.009125,-2.0399 0,-0.77691 0.390559,-1.0411 0.869316,-0.58804 0.200733,0.18995 0.904856,0.61133 1.564717,0.93639 0.964595,0.47517 1.354356,0.53711 1.988571,0.31602 0.675374,-0.23544 0.788524,-0.41905 0.786734,-1.27672 -0.001,-0.55096 -0.23662,-1.77293 -0.523266,-2.71548 -0.321272,-1.05644 -0.418672,-1.77709 -0.253942,-1.8789 0.146973,-0.0908 0.324689,-0.10769 0.394928,-0.0375 0.23145,0.23145 1.20723,3.88961 1.20723,4.52587 0,0.52499 0.10628,0.59656 0.67423,0.45402 0.44581,-0.11189 0.93367,0.0129 1.44,0.3682 0.42117,0.29559 1.22676,0.62148 1.7902,0.72422 1.10541,0.20156 1.13626,0.0948 0.40995,-1.4192 -0.39134,-0.81572 0.10658,-1.42809 0.73626,-0.9055 0.22607,0.18762 0.53988,0.26151 0.69734,0.16419 0.16243,-0.10039 0.2863,0.0604 0.2863,0.37163 0,0.30171 -0.12342,0.62485 -0.27428,0.71808 -0.15086,0.0932 -0.27429,0.42587 -0.27429,0.73919 0,0.51698 0.11363,0.55409 1.22871,0.40125 0.67579,-0.0926 1.66322,-0.34996 2.19428,-0.57186 0.87929,-0.36738 0.96558,-0.50274 0.96558,-1.51458 0,-1.26186 0.50993,-1.48288 1.29793,-0.56257 0.46296,0.5407 1.9935,0.77781 1.9935,0.30883 0,-0.13186 -0.61714,-0.83842 -1.37143,-1.57013 -1.19754,-1.16171 -1.71626,-2.03013 -1.21263,-2.03013 0.0873,0 0.87543,0.62331 1.75131,1.38513 1.04506,0.90896 1.64828,1.66395 1.75474,2.19622 0.17764,0.8882 1.92437,2.18244 3.71433,2.75212 0.5426,0.17269 1.86884,0.79488 2.94722,1.38265 1.67326,0.912 2.0679,1.02789 2.69214,0.79056 0.4023,-0.15296 1.30971,-0.27757 2.01646,-0.27692 1.07042,9.8e-4 1.52251,0.18125 2.7073,1.07953 0.95371,0.72308 1.76699,1.10739 2.46857,1.16649 0.91047,0.0767 2.46776,-0.14869 2.71153,-0.39245 z m 9.7176,-2.23684 c 0,-0.66186 -0.98594,-4.61248 -1.30746,-5.23896 -0.38915,-0.75824 -0.4377,-0.77922 -0.63482,-0.27428 -0.1174,0.30071 -0.22212,1.56504 -0.23272,2.80961 -0.0106,1.24457 -0.1295,2.26286 -0.26422,2.26286 -0.40504,0 -0.57792,-0.77394 -0.57792,-2.58722 0,-4.44004 1.87168,-4.88176 3.00728,-0.70972 0.60281,2.21466 0.72332,3.84551 0.28415,3.84551 -0.15086,0 -0.27429,-0.0485 -0.27429,-0.1078 z m -60.617138,-1.35826 c 0,-0.76017 0.784091,-1.55108 1.53771,-1.55108 0.702792,0 1.753719,0.74897 1.753719,1.24984 0,0.52872 -0.19292,0.49969 -1.024084,-0.1541 -0.781481,-0.61472 -1.444488,-0.34687 -1.444488,0.58356 0,0.28324 -0.185142,0.51498 -0.411428,0.51498 -0.248749,0 -0.411429,-0.25432 -0.411429,-0.6432 z m 40.766228,-1.46747 c -1.97481,-2.1945 -3.18188,-4.34207 -3.18641,-5.66912 -0.001,-0.43204 -0.23269,-1.23432 -0.51382,-1.78286 -1.30128,-2.53906 -1.63486,-3.60306 -1.1296,-3.60306 0.2835,0 2.18932,3.76914 2.18932,4.32983 0,0.16817 0.16791,0.40447 0.37313,0.52511 0.6972,0.40984 4.15249,5.93366 3.78772,6.05525 -0.23961,0.0799 -0.13186,0.39438 0.35281,1.02981 0.78739,1.03233 0.84473,1.22909 0.35491,1.21783 -0.18857,-0.004 -1.1912,-0.95059 -2.22806,-2.10279 z m -0.3402,-2.20933 c -1.72064,-2.69225 -1.82239,-2.83221 -1.95936,-2.69523 -0.29053,0.29052 2.38718,4.27238 2.87308,4.27238 0.0518,0 -0.35933,-0.70972 -0.91372,-1.57715 z m -2.64912,2.73639 c -0.49645,-0.55692 -1.71286,-3.48241 -1.98738,-4.77972 -0.10536,-0.49788 -0.44075,-1.31542 -0.74532,-1.81674 -0.37865,-0.62326 -0.46474,-1.00053 -0.27226,-1.19302 0.34936,-0.34936 1.56539,1.66617 1.84891,3.06452 0.10705,0.528 0.604,1.85305 1.10433,2.94456 0.88445,1.92948 0.90802,2.74099 0.0517,1.7804 z m -13.48967,-2.23542 c -0.0891,-0.14425 0.087,-0.67084 0.39145,-1.17019 0.30445,-0.49936 0.55391,-1.09306 0.55436,-1.31935 0.001,-0.64504 -1.57775,-3.81865 -2.36612,-4.75557 -0.8505,-1.01077 -0.3905,-1.37183 0.5828,-0.45745 0.7036,0.66099 2.60741,4.3628 2.60741,5.06989 0,0.52197 -0.97832,2.50589 -1.34855,2.73471 -0.14259,0.0881 -0.3322,0.0422 -0.42135,-0.10204 z m -21.546253,-0.98664 c -0.178138,-0.53976 -0.790253,-1.34462 -1.387855,-1.82487 -1.905956,-1.53167 -4.095987,-5.68395 -4.095987,-7.76596 0,-1.01687 0.665297,-0.14761 1.098641,1.43547 0.589377,2.15309 2.034681,4.55162 3.395269,5.63457 1.02331,0.81449 2.196897,2.81561 1.916927,3.26861 -0.281782,0.45593 -0.619683,0.18334 -0.926995,-0.74782 z m 41.693983,-0.13147 c -0.12115,-0.22629 -0.43425,-1.152 -0.69578,-2.05714 -0.26152,-0.90515 -0.76911,-2.31261 -1.12796,-3.1277 -0.35885,-0.81508 -0.73038,-1.96927 -0.82562,-2.56485 -0.15367,-0.961 -0.11468,-1.07169 0.34633,-0.98341 0.35093,0.0672 0.62717,0.49894 0.85134,1.33058 0.58889,2.18466 1.95178,6.85071 2.10309,7.20025 0.0808,0.18668 0.08,-1.32687 -0.002,-3.36344 -0.113,-2.81135 -0.0552,-3.9633 0.23989,-4.78457 0.50677,-1.41021 1.22352,-1.73722 0.86584,-0.39503 -0.13604,0.51049 -0.22213,2.79705 -0.1913,5.08123 l 0.056,4.15306 -0.69985,-0.0388 c -0.38492,-0.0213 -0.79898,-0.22391 -0.92013,-0.4502 z m -2.91866,-1.44869 c -1.58983,-2.38882 -2.02049,-3.32412 -2.01044,-4.36626 0.008,-0.8552 0.0309,-0.87572 0.41143,-0.37263 0.22148,0.29284 0.4027,0.73986 0.4027,0.99338 0,0.25353 0.6301,1.42617 1.40021,2.60587 1.64229,2.51572 1.80206,2.86557 1.30342,2.85393 -0.20471,-0.005 -0.883,-0.77621 -1.50732,-1.71429 z m 13.75808,1.38012 c -1.12367,-3.37632 -1.20568,-5.16512 -0.41588,-9.0719 0.55858,-2.76306 0.89134,-3.50114 1.89558,-4.20454 0.51206,-0.35866 0.59456,-0.35437 0.74543,0.0388 0.24752,0.64503 -0.40805,3.49935 -1.41821,6.17479 -0.91469,2.42258 -1.03107,3.96647 -0.42011,5.5734 0.1612,0.42399 0.29309,1.00971 0.29309,1.3016 0,0.58834 -0.50058,0.72666 -0.6799,0.18786 z m -45.125816,-1.07352 c 0,-0.32644 -0.565876,-1.69731 -1.257501,-3.04638 -0.708672,-1.38232 -1.546645,-3.5927 -1.92,-5.06451 -0.768257,-3.02855 -0.774527,-3.08988 -0.31596,-3.08988 0.210946,0 0.581474,0.99273 0.946966,2.53715 0.344352,1.45508 1.126245,3.58995 1.833337,5.00571 1.436794,2.87679 1.807459,4.25143 1.14638,4.25143 -0.261302,0 -0.433222,-0.23554 -0.433222,-0.59352 z m -5.044898,-0.28053 c -0.05714,-0.19813 -0.240473,-0.85395 -0.407418,-1.45738 -0.166945,-0.60343 -0.973906,-1.92681 -1.793245,-2.94084 -1.504804,-1.86238 -2.017298,-2.84403 -1.6616,-3.18269 0.106896,-0.10177 0.334166,0.0508 0.505044,0.33899 0.170879,0.28822 0.836925,1.15222 1.480104,1.92 1.317419,1.57264 2.526739,3.83754 2.530762,4.73978 0.003,0.68377 -0.496141,1.12835 -0.653647,0.58214 z m -37.070959,-0.97738 c 0.07184,-0.56571 0.206213,-1.82964 0.298598,-2.80871 0.160162,-1.69738 0.465155,-2.47129 0.973914,-2.47129 0.334625,0 2.991916,4.00854 2.991916,4.51333 0,0.82612 -0.475095,0.40034 -1.659517,-1.48725 -1.349246,-2.15028 -1.62121,-2.09747 -1.627711,0.31606 -0.0045,1.67407 -0.363283,2.96643 -0.82351,2.96643 -0.168908,0 -0.231293,-0.41751 -0.15369,-1.02857 z m 10.017317,-0.82286 c -0.999809,-1.68622 -1.681368,-3.90935 -1.913036,-6.24 -0.119962,-1.20685 -0.300848,-2.3978 -0.401968,-2.64654 -0.10112,-0.24874 -0.0582,-0.52991 0.09537,-0.62482 0.49373,-0.30515 0.959855,1.02637 1.016431,2.9035 0.05611,1.86177 0.785619,4.2742 1.77988,5.88595 0.557967,0.9045 0.693474,1.75048 0.280385,1.75048 -0.135956,0 -0.521633,-0.46285 -0.857061,-1.02857 z m 29.307943,-0.27247 c -0.386325,-0.41586 -1.028775,-1.32482 -1.427666,-2.01992 -0.398892,-0.69511 -1.350535,-1.97837 -2.114762,-2.85169 -2.067196,-2.3623 -3.122022,-5.07353 -2.551915,-6.5592 0.09157,-0.23862 0.323264,-0.43386 0.514878,-0.43386 0.248476,0 0.310113,0.3396 0.214919,1.18416 -0.165624,1.46941 0.796813,3.52128 2.587092,5.51553 0.667109,0.74312 1.534168,1.91569 1.926798,2.60572 0.392631,0.69002 1.02612,1.59483 1.407755,2.01068 0.462587,0.50407 0.602453,0.84753 0.419595,1.03038 -0.182857,0.18286 -0.508422,0.0223 -0.976694,-0.4818 z m -16.957975,-0.62777 c 0,-0.60827 -0.185142,-1.54906 -0.411428,-2.09063 -0.506879,-1.21314 -0.514072,-1.46627 -0.04167,-1.46627 0.444265,0 1.275952,2.43412 1.275952,3.73435 0,0.64248 -0.126741,0.92851 -0.411429,0.92851 -0.297689,0 -0.411429,-0.30574 -0.411429,-1.10596 z m 74.716698,-0.14862 c -0.45087,-1.0791 -0.65599,-5.53633 -0.31147,-6.76828 0.11679,-0.41762 0.40534,-0.75429 0.64649,-0.75429 0.29772,0 0.37876,0.14798 0.25611,0.4676 -0.3666,0.95534 -0.49075,2.83305 -0.30314,4.58487 0.20287,1.89443 0.52269,2.32213 0.78544,1.05039 0.0857,-0.41486 0.55382,-1.18569 1.04025,-1.71296 1.50087,-1.62692 2.2025,-3.51624 2.10823,-5.67699 -0.0762,-1.74764 -0.1217,-1.86572 -0.70994,-1.84419 -0.89844,0.0329 -0.66293,-0.82273 0.25586,-0.92955 0.59559,-0.0692 0.77272,0.068 1.02623,0.79521 0.16851,0.4834 0.30629,1.57021 0.30617,2.41513 -2.5e-4,1.78478 -1.06066,4.30058 -2.39251,5.67622 -0.47325,0.4888 -0.90648,1.30283 -1.02183,1.92 -0.36629,1.95981 -1.05836,2.27871 -1.68589,0.77684 z m -51.01009,-1.96828 c -0.257646,-1.768 -0.87568,-3.29381 -1.83308,-4.52554 -0.439645,-0.56563 -0.748076,-1.18224 -0.685402,-1.37027 0.145159,-0.43547 1.711772,1.22847 2.395677,2.54451 0.549877,1.05813 1.185132,4.02332 0.94514,4.41163 -0.342259,0.55379 -0.643768,0.16502 -0.822335,-1.06033 z m -58.379833,0.5187 c -0.17968,-0.29073 1.175895,-2.50727 1.533376,-2.50727 0.334925,0 0.274522,0.48114 -0.167779,1.33645 -0.496837,0.96078 -1.149548,1.52039 -1.365597,1.17082 z m 31.121952,-1.08221 c -0.560405,-2.08119 -0.641291,-2.79649 -0.316224,-2.79649 0.393207,0 0.824138,1.10359 1.036812,2.65522 0.206027,1.50313 -0.325801,1.60739 -0.720588,0.14127 z m -12.77395,-0.33637 c -0.706916,-1.14381 -0.57788,-4.34641 0.194351,-4.82368 0.49099,-0.30344 0.571235,0.15729 0.235959,1.35478 -0.248401,0.8872 -0.259722,1.47866 -0.0433,2.26246 0.288144,1.04358 0.02306,1.86994 -0.387006,1.20644 z m -21.800491,-0.2619 c 0,-0.14869 0.143969,-0.80863 0.319931,-1.46653 0.285824,-1.06867 0.238265,-1.45653 -0.446113,-3.63823 -0.421325,-1.34312 -0.873865,-2.55929 -1.005645,-2.7026 -0.323093,-0.35137 -0.305107,-1.248 0.02503,-1.248 0.389815,0 0.802235,0.88884 1.7056,3.67588 0.820627,2.53177 0.851528,3.47742 0.163011,4.98855 -0.301866,0.66252 -0.761818,0.89855 -0.761818,0.39093 z m 36.665586,-1.03251 c -0.336281,-0.57136 -0.479237,-1.98857 -0.200591,-1.98857 0.316201,0 0.837862,1.12114 0.837862,1.80072 0,0.41332 -0.429971,0.54007 -0.637271,0.18785 z m -28.000388,-1.18579 c -1.619763,-1.92497 -2.846505,-5.41144 -2.35704,-6.69883 0.385231,-1.01324 0.630092,-0.69974 0.696049,0.89117 0.06222,1.50066 1.06705,3.91059 2.179488,5.22715 0.511471,0.60532 0.675778,0.9994 0.492921,1.18226 -0.182857,0.18286 -0.519997,-0.0177 -1.011418,-0.60175 z M 49.803993,184.8 c -0.758414,-2.02931 -1.235341,-3.85631 -1.074569,-4.11644 0.26615,-0.43064 0.584697,0.13468 1.276296,2.26501 0.367312,1.13143 0.758351,2.27314 0.868976,2.53714 0.140452,0.33518 0.075,0.48 -0.216951,0.48 -0.240672,0 -0.602963,-0.49467 -0.853752,-1.16571 z m 31.741608,-0.60934 c 0.218485,-1.34637 0.962597,-2.50075 1.357452,-2.10589 0.206453,0.20645 0.206216,0.39582 -8.1e-4,0.64646 -0.161036,0.19497 -0.402161,0.77809 -0.535833,1.29583 -0.353451,1.36897 -1.038575,1.50553 -0.820809,0.1636 z m 62.783539,-4.0398 c -0.38787,-0.38788 -0.44333,-1.59086 -0.0733,-1.59086 0.14069,0 0.33699,0.25578 0.43621,0.56841 0.11449,0.36073 0.33072,0.51072 0.59181,0.41054 0.61703,-0.23678 0.99217,0.10068 0.61591,0.55404 -0.39307,0.47362 -1.12777,0.50069 -1.57059,0.0579 z m -7.73486,23.232 c 0,-0.22629 -0.12342,-0.41143 -0.27428,-0.41143 -0.15086,0 -0.27429,0.18514 -0.27429,0.41143 0,0.22628 0.12343,0.41142 0.27429,0.41142 0.15086,0 0.27428,-0.18514 0.27428,-0.41142 z"
       id="path1" />
  </g>
</svg>
