<?xml version="1.0" encoding="UTF-8" standalone="no"?>
<!-- Created with Inkscape (http://www.inkscape.org/) -->

<svg
   version="1.1"
   id="svg1"
   width="294.58286"
   height="294.58286"
   viewBox="0 0 294.58286 294.58286"
   sodipodi:docname="pony-standard-v.svg"
   inkscape:version="1.4 (86a8ad7, 2024-10-11)"
   xmlns:inkscape="http://www.inkscape.org/namespaces/inkscape"
   xmlns:sodipodi="http://sodipodi.sourceforge.net/DTD/sodipodi-0.dtd"
   xmlns:xlink="http://www.w3.org/1999/xlink"
   xmlns="http://www.w3.org/2000/svg"
   xmlns:svg="http://www.w3.org/2000/svg">
  <defs
     id="defs1">
    <linearGradient
       id="linearGradient1"
       inkscape:collect="always">
      <stop
         style="stop-color:#000000;stop-opacity:0;"
         offset="0.17030568"
         id="stop2" />
      <stop
         style="stop-color:#000000;stop-opacity:1;"
         offset="0.63755459"
         id="stop1" />
    </linearGradient>
    <linearGradient
       inkscape:collect="always"
       xlink:href="#linearGradient1"
       id="linearGradient2"
       x1="29.750048"
       y1="194.31714"
       x2="268.71119"
       y2="194.31714"
       gradientUnits="userSpaceOnUse" />
  </defs>
  <sodipodi:namedview
     id="namedview1"
     pagecolor="#ffffff"
     bordercolor="#000000"
     borderopacity="0.25"
     inkscape:showpageshadow="2"
     inkscape:pageopacity="0.0"
     inkscape:pagecheckerboard="0"
     inkscape:deskcolor="#d1d1d1"
     inkscape:zoom="2.766624"
     inkscape:cx="147.47215"
     inkscape:cy="147.29143"
     inkscape:window-width="1920"
     inkscape:window-height="1017"
     inkscape:window-x="-8"
     inkscape:window-y="-8"
     inkscape:window-maximized="1"
     inkscape:current-layer="g1" />
  <g
     inkscape:groupmode="layer"
     inkscape:label="Image"
     id="g1">
    <path
       style="fill:url(#linearGradient2)"
       d="m 253.85143,213.4998 c -3.4204,-0.34545 -8.67884,-1.55337 -10.07628,-2.31463 -0.26195,-0.1427 -0.62146,-0.25946 -0.79889,-0.25946 -0.17744,0 -1.1974,-0.72008 -2.26658,-1.60019 -1.98082,-1.63053 -3.91688,-2.85776 -5.03469,-3.1914 -0.34218,-0.10213 -1.39132,-0.64934 -2.33143,-1.21601 -0.9401,-0.56667 -2.36584,-1.3842 -3.16831,-1.81673 -1.64289,-0.88553 -1.73734,-0.83959 -2.27071,1.10433 -0.40345,1.4704 -0.61909,1.68446 -1.90384,1.8899 -0.87178,0.13941 -1.2515,0.39718 -1.84625,1.25333 -0.77256,1.11212 -1.2983,1.42136 -3.27354,1.92548 -1.50581,0.38431 -1.92869,0.84525 -2.15403,2.34791 -0.23673,1.57868 -0.85353,1.97017 -2.10726,1.33754 -1.37229,-0.69246 -2.34999,-1.72536 -3.51591,-3.71442 -0.59209,-1.0101 -1.30775,-1.88081 -1.61109,-1.96013 -0.30017,-0.0785 -1.03701,0.0265 -1.63741,0.23337 -1.03261,0.35577 -1.18574,0.33207 -2.83214,-0.43838 -1.88199,-0.88069 -4.5903,-1.49683 -5.53607,-1.25945 -0.32391,0.0813 -2.56176,0.33651 -4.97301,0.56714 -3.83835,0.36714 -4.57536,0.51857 -5.92062,1.21654 -1.1958,0.62042 -2.07691,0.8413 -3.97352,0.99611 -1.82082,0.14862 -2.72404,0.36576 -3.57226,0.85878 -0.98804,0.57429 -1.28631,0.62594 -2.29984,0.39821 -0.74357,-0.16707 -1.41631,-0.16595 -1.86095,0.003 -0.793,0.30149 -1.56036,0.17186 -4.37908,-0.73977 -1.57788,-0.51032 -2.15092,-0.58604 -2.74,-0.36207 -0.40968,0.15576 -1.15629,0.20601 -1.65915,0.11168 -1.30452,-0.24473 -4.32985,-1.97077 -4.95252,-2.82555 -0.48896,-0.67124 -0.76049,-0.74757 -3.70244,-1.04076 -1.93018,-0.19236 -3.6349,-0.22435 -4.34848,-0.0816 -0.79028,0.15809 -2.20414,0.0915 -4.32799,-0.20396 -3.01894,-0.41992 -3.28374,-0.41523 -6.17143,0.10931 l -3.01714,0.54806 -1.92,-0.89985 c -2.80493,-1.31458 -2.81194,-1.31546 -4.2134,-0.53218 -1.14597,0.6405 -4.61279,1.77022 -5.43232,1.77022 -0.18207,0 -1.1218,-0.54137 -2.08828,-1.20306 -2.0762,-1.42142 -3.0342,-1.68336 -4.6073,-1.25977 -1.08657,0.29258 -1.30339,0.24861 -3.24581,-0.65831 L 120,201.6213 l -7.40572,-0.42761 c -6.15341,-0.35529 -7.67605,-0.52645 -9.00445,-1.01217 l -1.59874,-0.58456 -1.49134,0.61812 c -1.431624,0.59338 -1.536257,0.60016 -2.612974,0.16934 -1.308176,-0.52343 -1.954222,-0.38186 -3.194664,0.70005 -0.493052,0.43004 -1.233624,0.85635 -1.645714,0.94735 -0.412091,0.091 -1.489827,0.35285 -2.39497,0.58187 -1.920202,0.48587 -1.478185,0.47953 -4.937143,0.0709 -2.505507,-0.29603 -4.515793,-0.95136 -4.918839,-1.60351 -0.329487,-0.53312 -2.764653,-0.61789 -4.5886,-0.15973 -1.683895,0.42299 -1.869989,0.42276 -2.732613,-0.003 -0.509114,-0.25144 -1.296225,-0.88006 -1.749135,-1.39695 -0.700188,-0.79909 -1.124287,-0.9971 -2.832722,-1.32263 -1.181277,-0.22508 -2.254786,-0.60737 -2.605098,-0.9277 -1.046204,-0.95667 -1.677184,-0.97204 -3.531731,-0.0861 l -1.726976,0.82502 -1.638558,-0.5603 -1.638559,-0.56031 -1.859855,0.55914 c -1.761381,0.52953 -1.97234,0.53729 -3.984299,0.14644 -2.556841,-0.49669 -4.064866,-0.32299 -5.309009,0.61149 -1.467711,1.10242 -2.08694,1.26269 -2.877387,0.74477 -1.249895,-0.81896 -10.314846,-1.56514 -12.834407,-1.05646 -1.064509,0.21492 -1.067325,0.21316 -0.916914,-0.57367 0.08298,-0.43409 0.03457,-1.00656 -0.107576,-1.27217 -0.171465,-0.32038 -0.145875,-0.69063 0.07604,-1.10006 0.52445,-0.96764 0.72945,-2.89706 0.500779,-4.71323 -0.117698,-0.93479 -0.08037,-2.87165 0.0852,-4.42005 0.210703,-1.97059 0.21009,-3.45389 -0.0022,-5.20419 -0.267124,-2.2029 -0.243147,-2.59157 0.239442,-3.88141 0.816828,-2.18317 0.966829,-2.18369 6.67869,-0.0231 7.034202,2.66078 6.41685,2.49714 8.091428,2.14481 1.823629,-0.38369 1.280432,-0.38702 7.145905,0.0438 3.996843,0.29359 4.946277,0.44654 5.590565,0.90064 1.658351,1.16881 1.919657,1.25564 3.282736,1.0909 0.739706,-0.0894 1.769165,-0.38019 2.287687,-0.64621 0.906787,-0.46521 1.019989,-0.46306 2.966223,0.0563 2.012609,0.53706 2.032285,0.53706 3.670035,1e-4 1.530707,-0.50188 1.825679,-0.51409 4.191713,-0.17352 3.395119,0.48868 5.04051,0.26682 8.167993,-1.10135 3.035476,-1.32791 4.53806,-1.47807 5.532188,-0.55285 0.808279,0.75225 2.33008,1.04056 3.616937,0.68524 0.947556,-0.26163 1.036412,-0.22688 1.805447,0.70609 1.029973,1.24954 2.014964,1.58248 6.736853,2.27713 2.112,0.3107 4.10423,0.63025 4.42718,0.71011 0.32295,0.0799 1.61895,-0.0465 2.88,-0.28086 1.9801,-0.36796 2.59968,-0.37646 4.54265,-0.0623 1.2374,0.20007 2.55612,0.56446 2.93048,0.80976 0.37436,0.24529 1.96069,0.64534 3.52517,0.889 2.60612,0.4059 2.93226,0.40637 3.89158,0.006 0.5759,-0.24062 1.26991,-0.43749 1.54225,-0.43749 0.27234,0 0.72247,-0.28897 1.00028,-0.64216 0.81754,-1.03932 1.49094,-1.27994 2.7136,-0.96959 1.24967,0.3172 1.75797,0.14669 3.81225,-1.27879 0.75256,-0.5222 1.55484,-0.95227 1.78285,-0.95569 0.22802,-0.003 1.19393,-0.42624 2.14649,-0.93959 1.4225,-0.76661 1.86352,-0.88825 2.46857,-0.68088 0.52929,0.18141 1.61175,0.0707 3.84539,-0.39339 l 3.10874,-0.64586 2.51412,0.55291 c 1.38276,0.3041 3.43983,0.5724 4.57126,0.59621 2.87753,0.0606 2.87377,0.0597 3.86648,0.89968 0.49028,0.41486 1.80428,1.248 2.91999,1.85143 1.64526,0.88984 2.42663,1.56358 4.13533,3.56572 2.49643,2.92514 4.02556,3.81229 7.36445,4.27257 1.35115,0.18627 2.35155,0.48068 2.69661,0.79359 0.78787,0.71447 2.06557,0.90793 3.83553,0.58073 1.19545,-0.22099 1.7893,-0.20044 2.63579,0.0912 0.60097,0.20705 1.36563,0.30808 1.69924,0.22452 0.81394,-0.20387 2.68372,-1.47923 4.89227,-3.33698 2.37302,-1.99609 4.40528,-3.46055 5.76461,-4.15404 l 1.09565,-0.55895 1.19661,0.70125 c 1.46658,0.85947 1.97114,0.71498 3.69169,-1.05722 0.67255,-0.69274 1.31305,-1.25953 1.42332,-1.25953 0.11027,0 0.77136,0.49408 1.46907,1.09795 1.45262,1.25723 2.07916,1.2619 3.70193,0.0276 2.29026,-1.74201 2.64457,-1.804 3.79102,-0.66332 0.59904,0.59602 1.301,0.41607 2.70442,-0.69326 1.77817,-1.40556 2.55133,-1.80335 2.87534,-1.47933 0.5194,0.51939 1.01902,3.40281 0.70794,4.08557 -0.49112,1.07788 0.0752,1.79854 1.9858,2.52681 0.96579,0.36814 2.29377,1.17192 3.05885,1.85143 0.74365,0.66046 1.51614,1.20084 1.71664,1.20084 0.20051,0 0.84439,-0.3818 1.43085,-0.84844 0.94711,-0.75361 1.20523,-0.83008 2.30938,-0.6842 1.20435,0.15913 1.28246,0.12358 2.50544,-1.14013 0.69429,-0.71741 1.4036,-1.58063 1.57625,-1.91828 0.17265,-0.33765 0.64977,-0.6941 1.06027,-0.79211 0.41051,-0.098 0.90637,-0.30446 1.10193,-0.45879 0.19555,-0.15432 1.54014,-0.44454 2.98797,-0.64492 1.96418,-0.27184 2.9421,-0.55656 3.85236,-1.12159 2.74218,-1.70216 3.59737,-2.09285 5.65343,-2.58277 1.72184,-0.41027 2.36923,-0.45436 3.23773,-0.2205 1.19244,0.32109 2.53442,0.19299 5.85581,-0.55896 1.20686,-0.27323 3.41044,-0.57869 4.89684,-0.67881 1.48641,-0.10012 3.64641,-0.36399 4.8,-0.58638 1.36313,-0.26277 2.70453,-0.34035 3.83147,-0.22159 1.52699,0.16093 1.76577,0.26624 1.9999,0.88204 0.14623,0.38461 0.19785,1.01728 0.11471,1.40593 -0.13982,0.65362 -0.22861,1.31847 -0.57059,4.27235 -0.37303,3.2221 -0.7515,12.60219 -0.61422,15.22286 0.0435,0.82971 0.0487,2.77539 0.0116,4.32372 -0.0987,4.11693 -1.29218,7.13631 -3.21341,8.12936 -0.45837,0.23692 -1.51226,0.92271 -2.34197,1.52397 -1.47798,1.07103 -1.56421,1.09556 -4.25143,1.20909 -1.50857,0.0637 -3.23657,0.066 -3.84,0.005 z"
       id="path1" />
  </g>
</svg>
