<?xml version="1.0" encoding="UTF-8" standalone="no"?>
<!-- Created with Inkscape (http://www.inkscape.org/) -->

<svg
   version="1.1"
   id="svg1"
   width="294.58286"
   height="294.58286"
   viewBox="0 0 294.58286 294.58286"
   sodipodi:docname="pony-large-a-outline.svg"
   inkscape:version="1.4 (86a8ad7, 2024-10-11)"
   xmlns:inkscape="http://www.inkscape.org/namespaces/inkscape"
   xmlns:sodipodi="http://sodipodi.sourceforge.net/DTD/sodipodi-0.dtd"
   xmlns="http://www.w3.org/2000/svg"
   xmlns:svg="http://www.w3.org/2000/svg">
  <defs
     id="defs1" />
  <sodipodi:namedview
     id="namedview1"
     pagecolor="#ffffff"
     bordercolor="#000000"
     borderopacity="0.25"
     inkscape:showpageshadow="2"
     inkscape:pageopacity="0.0"
     inkscape:pagecheckerboard="0"
     inkscape:deskcolor="#d1d1d1"
     inkscape:zoom="2.766624"
     inkscape:cx="147.47215"
     inkscape:cy="147.29143"
     inkscape:window-width="1920"
     inkscape:window-height="1017"
     inkscape:window-x="-8"
     inkscape:window-y="-8"
     inkscape:window-maximized="1"
     inkscape:current-layer="g1" />
  <g
     inkscape:groupmode="layer"
     inkscape:label="Image"
     id="g1">
    <path
       style="fill:#000000"
       d="m 34.971428,162.44276 c -0.452571,-0.0508 -1.378285,-0.2612 -2.057143,-0.4676 -0.678857,-0.20639 -1.693175,-0.45209 -2.254039,-0.54598 -1.601312,-0.26809 -1.901819,-0.75043 -1.868293,-2.99877 0.016,-1.07272 -0.157575,-3.6167 -0.385712,-5.65327 -0.228137,-2.03657 -0.329332,-4.07314 -0.224879,-4.52571 0.104454,-0.45257 0.202403,-1.93372 0.217665,-3.29143 0.02997,-2.6657 0.55887,-8.89642 0.849835,-10.01143 0.245627,-0.94126 0.619104,-1.36541 1.055007,-1.19814 0.20164,0.0774 0.734495,-0.0495 1.184122,-0.28206 0.784529,-0.40569 3.434772,-1.00958 4.58058,-1.04373 0.301714,-0.009 2.091429,0.14519 3.977143,0.34263 1.885714,0.19744 4.370948,0.32942 5.522741,0.29328 1.433403,-0.045 2.427483,0.0736 3.150542,0.37568 1.294172,0.54074 2.298146,1.44863 2.298146,2.0782 0,0.62042 1.444083,0.88814 3.501104,0.64909 1.40641,-0.16345 1.660411,-0.29496 2.396038,-1.24057 0.940185,-1.20856 2.135972,-2.01318 3.58756,-2.41398 1.255895,-0.34677 2.64273,0.0856 4.180294,1.30342 0.820646,0.64996 1.382023,0.86837 2.283046,0.88823 0.657148,0.0145 1.811957,0.17402 2.566243,0.35453 1.587471,0.3799 2.096524,0.21406 5.753358,-1.87436 3.232329,-1.84598 5.068266,-1.70959 7.027705,0.52209 1.254859,1.4292 1.689783,1.58331 4.602104,1.63063 l 2.617666,0.0425 2.068155,-1.3595 c 3.1302,-2.05764 5.031711,-2.90797 6.502835,-2.90797 1.178408,0 1.384242,0.1126 2.807059,1.53554 0.84447,0.84454 1.74369,1.64704 1.99827,1.78333 0.25458,0.1363 1.51814,0.25922 2.80791,0.27316 2.19056,0.0237 2.41303,-0.0273 3.37713,-0.77439 0.56765,-0.43986 1.46409,-0.96713 1.99209,-1.1717 0.528,-0.20458 1.47165,-0.83438 2.097,-1.39956 2.13791,-1.9322 5.71301,-2.18822 6.38168,-0.45701 0.26693,0.69109 1.24073,1.64929 2.08132,2.04797 0.86157,0.40863 6.15543,0.2328 7.26857,-0.24141 0.528,-0.22494 1.31984,-0.49837 1.75964,-0.60763 0.4398,-0.10926 1.35203,-0.6849 2.02719,-1.27919 1.28574,-1.13176 2.50309,-1.39001 3.94389,-0.83667 0.90492,0.34754 2.89466,2.4399 3.45275,3.63082 0.26052,0.55594 0.65882,1.02096 0.88511,1.03337 0.22628,0.0124 0.88662,0.10068 1.46741,0.19617 1.3564,0.22301 4.91608,-0.34502 6.41641,-1.02389 0.6401,-0.28964 2.07929,-1.32504 3.1982,-2.30089 3.65835,-3.19062 5.38581,-3.17721 7.45528,0.0579 0.5184,0.81039 1.12206,1.54233 1.34146,1.62652 0.2194,0.0842 0.78485,-0.12174 1.25655,-0.45762 1.13745,-0.80994 3.02146,-1.02142 3.86097,-0.43341 1.25843,0.88144 2.79874,0.40083 5.57173,-1.73852 2.35049,-1.81339 4.06867,-1.96609 4.92669,-0.43785 1.20533,2.14686 3.36385,3.02172 6.39594,2.59232 2.26473,-0.32072 4.04516,-1.27801 6.41282,-3.44798 2.00738,-1.83977 4.18463,-2.79896 5.56624,-2.45219 0.79939,0.20063 1.80765,1.6119 1.80927,2.53246 9.4e-4,0.52971 0.18895,0.59351 2.12674,0.72177 1.21627,0.0805 2.36041,0.0201 2.67429,-0.14119 0.69884,-0.35909 2.55953,-1.92286 4.66285,-3.91877 0.90515,-0.85892 2.016,-1.79291 2.46857,-2.07554 1.19589,-0.74681 3.42858,-0.65432 3.42858,0.14204 0,0.17874 0.52596,0.84118 1.16882,1.47209 l 1.16882,1.14711 1.36832,-0.42184 c 1.57166,-0.48453 3.24402,-0.36168 3.96556,0.2913 0.46723,0.42284 0.53594,0.39504 1.12877,-0.45675 1.12806,-1.62084 3.31654,-3.9129 4.19412,-4.39265 1.69055,-0.92417 3.63037,-0.4894 4.98168,1.11654 l 0.68183,0.8103 1.57389,-0.80457 c 0.86565,-0.44251 2.06761,-1.1022 2.67104,-1.46596 3.73419,-2.2511 7.79283,-3.77781 10.12837,-3.80992 1.03202,-0.0142 1.69869,0.16432 2.5799,0.69079 l 1.18826,0.70992 2.24031,-0.93991 2.24031,-0.93992 2.19428,0.34133 c 3.06812,0.47724 4.89105,1.32625 5.74201,2.67426 0.92364,1.46315 1.82626,4.2263 1.98049,6.06279 0.0697,0.82971 0.3058,2.12571 0.52472,2.88 0.21892,0.75428 0.43253,2.25136 0.4747,3.32683 0.0645,1.64467 0.19704,2.11323 0.83427,2.94867 1.09265,1.43254 1.55622,2.71139 1.52504,4.20712 -0.0412,1.9747 -0.25103,2.38072 -1.89266,3.66151 -0.82971,0.64734 -2.31085,1.96379 -3.29143,2.92546 -2.08258,2.04243 -3.60013,3.09444 -7.40899,5.13614 -4.29056,2.29992 -4.89932,2.4803 -8.36243,2.47784 -2.80991,-0.002 -3.10741,-0.0551 -4.33136,-0.7725 -0.72282,-0.4237 -1.90148,-1.29194 -2.61925,-1.92942 -1.34395,-1.19362 -1.82683,-1.36194 -6.11563,-2.13179 -1.76358,-0.31657 -1.85968,-0.30383 -3.07269,0.40703 -0.84289,0.49397 -1.54233,1.21895 -2.13994,2.21808 -1.79036,2.99329 -3.63517,2.77538 -7.41303,-0.87563 l -1.28047,-1.23747 -0.94619,0.58478 c -1.05242,0.65043 -1.87022,0.73547 -2.71662,0.28249 -0.79955,-0.4279 -1.57472,0.0556 -2.83705,1.76963 -1.59656,2.16784 -2.26289,2.644 -3.70216,2.64558 -0.98939,0.001 -1.67775,-0.2574 -3.37441,-1.26711 -2.27237,-1.35231 -2.35237,-1.36265 -5.25692,-0.67905 -3.29335,0.7751 -4.09495,1.12378 -5.32636,2.31686 -1.61382,1.56358 -2.84292,2.18597 -3.87098,1.96016 -0.43537,-0.0956 -1.62979,-0.72782 -2.65427,-1.40489 -1.70132,-1.12439 -1.98147,-1.22138 -3.2341,-1.11966 -0.75429,0.0613 -2.05029,0.32251 -2.88,0.58058 -0.82972,0.25807 -2.064,0.60901 -2.74286,0.77986 -0.76193,0.19177 -1.49319,0.6146 -1.91082,1.10487 -1.78264,2.09276 -3.40956,2.09336 -7.65866,0.003 -2.94942,-1.45108 -3.312,-1.56262 -4.90574,-1.50916 -2.44605,0.082 -4.6697,1.23155 -5.66381,2.92787 -0.9214,1.57225 -1.81069,2.15999 -3.26545,2.15819 -1.51571,-0.002 -2.78321,-0.69607 -3.58237,-1.96202 -0.52275,-0.82808 -1.0375,-1.1846 -2.58965,-1.79356 -1.8018,-0.70691 -2.13208,-0.74927 -4.72491,-0.6059 l -2.7877,0.15415 -2.36973,1.5344 c -1.30335,0.84392 -2.78913,1.83203 -3.30172,2.19581 -1.65019,1.17108 -2.57451,0.76699 -4.76106,-2.08146 l -0.73692,-0.96 -3.23073,-0.0202 c -1.87167,-0.0117 -3.72163,-0.17436 -4.3977,-0.38665 l -1.16696,-0.36644 -1.8754,1.81055 c -1.03147,0.99579 -2.19338,1.89035 -2.58202,1.98789 -1.15742,0.29049 -3.57164,-0.37176 -5.15386,-1.41378 -2.26742,-1.49327 -2.85206,-1.73942 -5.00874,-2.10879 -2.52471,-0.43241 -3.83471,-0.0987 -5.55421,1.41486 -1.51216,1.33105 -2.880228,2.00095 -4.446989,2.17755 -1.030861,0.11619 -1.662877,-0.0833 -4.617629,-1.45775 l -3.423301,-1.59237 -2.936246,0.27492 c -2.920981,0.27348 -2.946837,0.28228 -4.973657,1.69185 -1.120576,0.77932 -2.231433,1.41648 -2.468571,1.41592 -0.601316,-0.001 -1.86591,-0.82826 -3.258369,-2.13041 -1.389514,-1.29939 -2.338739,-1.53786 -5.073113,-1.27449 -2.47622,0.23851 -2.823214,0.37072 -4.170621,1.58903 -1.299608,1.17509 -3.05698,2.09118 -4.011587,2.09118 -0.934311,0 -2.98609,-0.63079 -6.214902,-1.91067 -2.470804,-0.97942 -2.83836,-1.05391 -4.252846,-0.86196 -1.182887,0.16052 -1.67786,0.37482 -2.097265,0.908 -1.108226,1.40888 -2.230297,1.68494 -6.596363,1.62289 -3.974516,-0.0565 -3.980363,-0.0557 -5.245348,0.74914 -1.824858,1.161 -2.203534,1.30702 -3.122175,1.20393 z m 3.1322,-2.73364 c 0.66671,-0.34287 1.515066,-0.62341 1.885235,-0.62341 h 0.673036 l -0.168457,-3.22285 c -0.09265,-1.77258 -0.245672,-4.056 -0.340045,-5.07429 -0.107519,-1.16012 -0.06969,-1.85143 0.101307,-1.85143 0.36898,0 0.916611,3.60285 1.088985,7.16439 l 0.140984,2.91297 2.64052,0.14911 c 3.110823,0.17567 4.21773,-0.19832 5.101457,-1.72361 0.508813,-0.8782 0.555726,-1.42744 0.550567,-6.44572 -0.0038,-3.68798 -0.133929,-6.08965 -0.397107,-7.3286 -0.350753,-1.65124 -0.289115,-2.50611 0.149099,-2.0679 0.835478,0.83548 1.57986,11.31632 0.997612,14.0463 l -0.252614,1.18443 1.125754,-0.14342 c 0.619164,-0.0789 1.187467,-0.19862 1.262896,-0.26607 0.07543,-0.0675 0.141289,-3.10534 0.146356,-6.75084 0.0088,-6.34865 0.313177,-9.52555 0.950287,-9.9193 0.487756,-0.30145 0.540083,0.41637 0.153209,2.10172 -0.304989,1.32863 -0.377406,3.25268 -0.307463,8.16905 l 0.09149,6.43109 3.940202,1.4444 c 5.247189,1.92352 5.411392,1.91687 8.064977,-0.32694 1.461812,-1.23608 2.567875,-1.65007 5.132367,-1.92103 1.76643,-0.18664 1.662654,0.009 1.59479,-3.00717 -0.07686,-3.41625 -0.574088,-7.62827 -1.15901,-9.81805 -0.314108,-1.17593 -0.492314,-2.21685 -0.396014,-2.31315 0.787423,-0.78742 1.770768,3.80521 2.14231,10.00548 l 0.316396,5.28 h 0.728608 c 0.687697,0 3.287206,1.73931 3.287206,2.19944 0,0.11332 0.314198,0.41192 0.698217,0.66353 1.251492,0.82001 1.938824,0.24712 2.612168,-2.17725 0.125698,-0.45257 0.498595,-1.56343 0.828662,-2.46857 0.771798,-2.1165 0.92926,-5.68658 0.508103,-11.52 -0.22769,-3.15371 -0.422194,-4.44905 -0.69125,-4.6035 -0.431186,-0.24752 -1.213043,-2.68445 -1.213043,-3.78087 0,-0.62521 -0.140244,-0.76418 -0.891429,-0.88327 -0.942824,-0.14947 -1.021488,-0.11908 -4.457142,1.72241 -3.519282,1.88631 -3.482806,1.8571 -3.133515,2.50975 0.567239,1.0599 -0.17537,1.1796 -0.822467,0.13257 -0.620308,-1.00367 -0.819587,-1.11309 -2.604949,-1.43032 l -1.075216,-0.19104 0.569782,0.93071 c 0.668725,1.09232 1.84866,4.54448 2.122794,6.2107 0.158361,0.96253 0.115876,1.16571 -0.243749,1.16571 -0.276607,0 -0.435537,-0.23967 -0.435537,-0.65682 0,-0.84936 -1.010815,-4.12626 -1.676449,-5.43478 -0.531374,-1.04458 -1.821549,-2.41125 -2.276294,-2.41125 -0.14052,0 -0.48121,-0.20428 -0.757089,-0.45394 -0.479613,-0.43405 -0.501597,-0.39356 -0.501597,0.92368 0,1.17207 0.179657,1.64553 1.204073,3.1732 1.803512,2.68951 2.47992,4.95385 2.47595,8.28849 -0.0037,3.13097 -0.395589,6.04619 -0.800023,5.95169 -0.296116,-0.0692 -0.295502,-0.59267 0.0059,-4.99169 0.183155,-2.67356 0.145084,-3.03729 -0.531113,-5.07429 -0.400625,-1.20686 -1.245306,-2.93486 -1.877067,-3.84 -1.02216,-1.46448 -1.16052,-1.8512 -1.256367,-3.51164 -0.09224,-1.598 -0.201318,-1.92725 -0.759654,-2.29309 -0.422634,-0.27692 -0.91114,-0.36212 -1.388852,-0.24222 -1.00084,0.2512 -2.669632,1.48442 -3.286524,2.42871 -0.750367,1.1486 -1.248274,1.31722 -3.87627,1.31268 l -2.39001,-0.004 v 2.9377 c 0,3.64607 -0.514517,4.14448 -0.627436,0.60779 -0.04338,-1.35854 -0.188809,-2.47009 -0.323186,-2.47009 -0.134377,0 -0.399808,-0.69478 -0.589846,-1.54396 -0.48127,-2.15054 -1.249864,-2.61143 -4.219532,-2.53029 -1.206857,0.033 -3.552,-0.1002 -5.211428,-0.29594 -3.533018,-0.41674 -6.418761,-0.22601 -8.529621,0.56377 -1.26513,0.47334 -1.486807,0.66182 -1.515995,1.28899 -0.0188,0.40402 -0.106317,1.78372 -0.194474,3.06601 -0.08816,1.28228 -0.131063,5.47885 -0.09535,9.32571 0.03572,3.84686 0.06209,8.01667 0.05861,9.26624 -0.0044,1.58198 0.09741,2.30188 0.335249,2.37047 0.187867,0.0542 1.39072,0.3463 2.673005,0.64914 2.170091,0.51252 2.378881,0.51975 3.017143,0.10437 0.377143,-0.24544 1.231204,-0.72679 1.897914,-1.06967 z m 24.909556,-1.06165 c -0.330924,-0.33093 0.152204,-0.92713 1.400296,-1.72802 0.703458,-0.45141 1.501753,-1.19781 1.773988,-1.65867 0.4927,-0.83407 1.012532,-1.10997 1.012532,-0.53739 0,0.71335 -1.056837,1.9893 -2.262858,2.73203 -0.716571,0.4413 -1.302857,0.92693 -1.302857,1.07919 0,0.30463 -0.363314,0.37065 -0.621101,0.11286 z m -2.309064,-7.17319 c 0.08303,-0.264 0.357464,-1.03542 0.609861,-1.71428 0.626362,-1.68469 0.411656,-6.31693 -0.399279,-8.61437 -0.680942,-1.92916 -0.669711,-1.80849 -0.168312,-1.80849 0.260874,0 0.623477,0.70302 1.025671,1.98857 0.902533,2.88482 0.905233,7.77806 0.0052,9.46286 -0.611289,1.14432 -1.36982,1.629 -1.073162,0.68571 z m 12.530165,-5.41714 c 0,-1.30397 0.371411,-1.65662 0.649979,-0.61714 0.291759,1.0887 0.193484,1.85143 -0.23855,1.85143 -0.304762,0 -0.411429,-0.32 -0.411429,-1.23429 z M 40.600991,145.6 c 0.0037,-0.20114 0.114822,-0.85943 0.246966,-1.46286 0.132144,-0.60343 0.323151,-1.80686 0.42446,-2.67428 0.101309,-0.86743 0.298746,-1.57715 0.438748,-1.57715 0.669351,0 -0.07459,5.73448 -0.774022,5.96634 -0.188572,0.0625 -0.33984,-0.0509 -0.336152,-0.25205 z m 94.746719,13.58962 c 0.68069,-0.26121 1.29421,-1.68377 1.19685,-2.77511 -0.0541,-0.60643 0.0432,-1.02455 0.25544,-1.09717 0.31793,-0.10881 0.445,0.44665 0.43855,1.91694 -0.001,0.264 0.0478,0.48 0.10878,0.48 0.39351,0 3.90974,-2.52368 3.90944,-2.80589 -2.1e-4,-0.19162 -0.18518,-1.39753 -0.41106,-2.67982 -0.55771,-3.16616 -0.55771,-6.58286 0,-6.58286 0.33153,0 0.41369,0.43945 0.42305,2.26286 0.006,1.24457 0.16779,3.312 0.35866,4.59429 l 0.34704,2.33142 3.27563,0.003 c 2.90777,0.003 3.44504,0.0806 4.78419,0.69086 2.36325,1.07689 3.26029,1.69483 3.34773,2.30617 0.1052,0.73556 1.91987,1.63947 2.83184,1.41058 1.27999,-0.32125 1.56867,-1.67304 1.38132,-6.46818 -0.0914,-2.33828 -0.23655,-4.95714 -0.32265,-5.81968 -0.12921,-1.29435 -0.004,-2.03687 0.71575,-4.25142 0.47977,-1.47575 0.9401,-3.3929 1.02297,-4.26033 0.0829,-0.86743 0.25695,-1.57714 0.38685,-1.57714 0.62207,0 -0.10067,5.74558 -0.84531,6.72 -0.64912,0.84942 -0.72372,2.54922 -0.23475,5.34857 0.27668,1.584 0.56661,3.73772 0.64428,4.78605 0.0777,1.04833 0.1814,1.94623 0.23051,1.99534 0.0491,0.0491 0.84856,-0.26978 1.77656,-0.70866 1.00755,-0.47649 2.41381,-0.87576 3.49075,-0.99109 l 1.80346,-0.19313 3.19963,1.6347 c 1.7598,0.89908 3.54013,1.71493 3.95629,1.81299 0.87303,0.20572 1.95239,-0.27421 2.90113,-1.28997 0.54093,-0.57914 0.59109,-0.77849 0.32228,-1.28077 -0.63571,-1.18783 -1.64848,-5.06957 -1.64209,-6.29379 0.007,-1.288 0.36849,-3.22956 0.65518,-3.51626 0.33716,-0.33715 0.46881,0.22603 0.69744,2.98341 0.30351,3.66051 1.2167,6.36646 2.19521,6.50476 0.66691,0.0943 3.55066,-0.6038 4.46476,-1.08077 1.24782,-0.65111 4.19429,-0.11204 5.42086,0.99177 0.81881,0.73685 2.27687,1.50256 2.86116,1.50256 0.55177,0 0.65152,-0.57904 0.80322,-4.66285 0.0701,-1.88572 0.37208,-4.60115 0.67117,-6.03429 0.2991,-1.43314 0.67816,-3.96343 0.84236,-5.62286 0.16797,-1.69758 0.60728,-3.97681 1.00447,-5.21142 0.72593,-2.25643 0.76961,-3.80113 0.1532,-5.41715 -0.51758,-1.35691 -2.10602,-0.83554 -4.71505,1.5476 -1.93565,1.76807 -4.31539,3.19495 -5.8113,3.48445 -0.63679,0.12323 -1.98262,0.22944 -2.99074,0.23601 -2.08679,0.0136 -2.15201,0.0866 -2.20631,2.47055 -0.0232,1.01926 -0.13733,1.38139 -0.4353,1.38139 -0.33398,0 -0.37819,-0.37414 -0.25557,-2.16305 0.14346,-2.09316 0.12659,-2.17292 -0.52229,-2.46857 -0.85587,-0.38996 -0.91902,-0.3847 -0.91902,0.0766 0,0.21015 -0.16811,0.4466 -0.37359,0.52545 -0.20547,0.0788 -0.66594,1.20291 -1.02327,2.49791 -0.35732,1.29501 -0.73735,2.35456 -0.8445,2.35456 -0.4932,0 -0.45014,-0.66441 0.18511,-2.85652 0.98602,-3.40256 0.85311,-5.64634 -0.33446,-5.64634 -0.24828,0 -1.35828,0.6946 -2.46667,1.54356 -2.05831,1.57653 -3.49444,2.26299 -4.7792,2.2844 -0.94811,0.0158 -1.01368,0.27619 -1.46984,5.83687 -0.38006,4.63308 -0.48118,5.1466 -1.01339,5.1466 -0.18498,0 -0.23279,-0.37953 -0.12955,-1.02857 0.09,-0.56571 0.24672,-2.57143 0.34829,-4.45714 0.10158,-1.88572 0.33731,-3.94346 0.52384,-4.57276 0.39891,-1.34576 0.1585,-1.73581 -1.06989,-1.73581 -1.00639,0 -3.44457,1.59717 -3.45437,2.26285 -0.004,0.29361 -0.21856,0.48 -0.5517,0.48 -0.41603,0 -0.61751,-0.28947 -0.85333,-1.22599 -0.16979,-0.67429 -0.48014,-1.36826 -0.68966,-1.54215 -0.31732,-0.26336 -0.38096,-0.0613 -0.38096,1.2098 0,0.83928 -0.13083,1.60682 -0.29073,1.70565 -0.18402,0.11373 -0.22424,0.71182 -0.10958,1.62954 0.13547,1.08425 0.0425,1.89032 -0.36855,3.19651 -1.17039,3.71886 -1.23226,4.0595 -1.07593,5.92415 0.086,1.0263 0.19689,2.03364 0.24633,2.23853 0.0494,0.20489 -0.0573,0.42675 -0.23723,0.493 -0.41792,0.15391 -0.73357,-1.41746 -0.75425,-3.75475 -0.0101,-1.14405 0.21515,-2.51995 0.6287,-3.84 0.54098,-1.72681 0.65543,-2.73983 0.71275,-6.30857 0.0744,-4.63092 -0.0747,-5.48572 -0.95704,-5.48572 -0.89904,0 -1.63624,0.48058 -3.55447,2.31716 -1.14851,1.09963 -2.3684,1.95825 -3.42857,2.4132 -2.14962,0.92248 -6.31611,1.51993 -7.68015,1.10129 l -0.98889,-0.3035 0.18711,1.89879 c 0.16243,1.64843 0.12818,1.89878 -0.25977,1.89878 -0.34261,0 -0.44727,-0.27199 -0.44856,-1.16572 -9.3e-4,-0.64114 -0.18607,-1.51925 -0.41143,-1.95135 -0.22536,-0.4321 -0.41055,-0.98753 -0.41155,-1.23429 -9.9e-4,-0.24675 -0.235,-0.80235 -0.52001,-1.23466 -0.45934,-0.69673 -0.53601,-0.72789 -0.67488,-0.27429 -0.0862,0.28146 -0.058,1.22145 0.0627,2.08888 0.17049,1.22584 0.13968,1.57714 -0.13833,1.57714 -0.19672,0 -0.46672,-0.40114 -0.6,-0.89143 l -0.24231,-0.89143 -0.40712,1.35673 c -0.42039,1.40095 -1.04393,2.00011 -1.04393,1.00311 0,-0.31123 0.17931,-1.03123 0.39848,-1.6 0.34411,-0.89301 0.97295,-3.81896 0.97295,-4.52706 0,-0.24034 -1.66988,-1.03278 -2.17632,-1.03278 -0.15067,0 -0.88082,0.539 -1.62256,1.19777 -0.85579,0.76006 -1.73271,1.26982 -2.39968,1.39494 -0.57808,0.10845 -1.42561,0.40223 -1.88339,0.65285 -0.60108,0.32906 -1.51822,0.45589 -3.30091,0.45648 l -2.46857,8.2e-4 0.0772,0.82286 c 0.0424,0.45257 0.69044,2.09825 1.44,3.65706 1.29857,2.70055 1.36284,2.942 1.36284,5.12042 0,2.34519 -0.1482,3.15395 -0.57792,3.15395 -0.13472,0 -0.24494,-1.21754 -0.24494,-2.70564 0,-2.65569 -0.0228,-2.75148 -1.23387,-5.18879 -0.67862,-1.36572 -1.33181,-2.95619 -1.45153,-3.53436 -0.15801,-0.76312 -0.42692,-1.15201 -0.9812,-1.419 -0.41995,-0.20228 -0.80896,-0.32236 -0.86448,-0.26685 -0.0555,0.0555 0.0234,0.65302 0.17541,1.32779 0.15199,0.67477 0.27646,1.72056 0.27659,2.32399 1.4e-4,0.60343 0.23093,1.83771 0.51287,2.74286 1.01133,3.24675 1.19005,4.59404 0.85898,6.47536 -0.56884,3.23248 -1.1111,5.36416 -1.9461,7.65035 l -0.55098,1.50857 0.94629,-1.09714 c 0.52045,-0.60343 1.08385,-1.49829 1.25199,-1.98857 0.35231,-1.02728 1.24598,-1.29012 0.93262,-0.27429 -0.1047,0.33943 -0.3605,0.95165 -0.56844,1.36049 -0.37386,0.73508 -0.36509,0.74727 0.78904,1.09714 0.6419,0.19459 2.4631,0.3624 4.0471,0.37291 1.584,0.0105 3.08553,0.0414 3.33675,0.0686 0.44752,0.0485 0.93717,0.51744 2.70062,2.58661 0.91633,1.07519 1.04243,1.13642 1.76748,0.85819 z m 0.42207,-10.18391 c -9e-4,-1.92343 -0.0699,-4.48457 -0.15339,-5.69143 -0.13402,-1.93792 0.11422,-3.28714 0.52842,-2.87205 0.22809,0.22858 0.50019,9.85156 0.31034,10.97528 -0.36286,2.14773 -0.68375,1.0185 -0.68537,-2.4118 z m 47.08736,2.76572 c -0.10057,-0.10057 -0.18432,-0.68686 -0.18611,-1.30286 -0.004,-1.41138 -0.55947,-3.48321 -1.3831,-5.1597 -0.35041,-0.71326 -0.55006,-1.38389 -0.44366,-1.49028 0.27501,-0.27502 0.59744,0.12283 1.36958,1.68998 1.31979,2.67865 1.80753,7.42709 0.64329,6.26286 z m -13.44513,-2.75538 c -0.39234,-2.37411 -0.0528,-8.44462 0.47228,-8.44462 0.32281,0 0.27718,9.29094 -0.0462,9.39872 -0.13994,0.0466 -0.33169,-0.3827 -0.42612,-0.9541 z m 19.20513,0.83538 c -0.29823,-0.29823 -0.15659,-5.87606 0.18633,-7.33777 0.39593,-1.68763 1.18775,-2.16572 0.89277,-0.53904 -0.52147,2.87565 -0.70411,5.05084 -0.54429,6.48252 0.16247,1.45551 -0.0139,1.91523 -0.53481,1.39429 z m -27.94753,-1.80572 c -0.13922,-3.86123 0.13324,-5.96571 0.77239,-5.96571 0.33135,0 0.36897,0.20019 0.19328,1.02857 -0.11997,0.56571 -0.21587,2.29371 -0.21309,3.84 0.004,2.09068 -0.0841,2.81143 -0.34286,2.81143 -0.23731,0 -0.36755,-0.54495 -0.40972,-1.71429 z m -11.04983,-0.10932 c 0.79513,-1.88587 1.04515,-2.93198 1.10469,-4.62211 0.0372,-1.056 0.0823,-2.32114 0.10016,-2.81142 0.0205,-0.56331 0.17308,-0.89143 0.41439,-0.89143 0.31143,0 0.35573,0.54397 0.24009,2.94857 -0.16297,3.38896 -0.76706,5.63928 -1.55342,5.78671 -0.41332,0.0775 -0.47609,-0.007 -0.30591,-0.41032 z m -23.17407,-0.33838 c 0,-0.15823 0.42108,-1.06338 0.93573,-2.01143 0.51466,-0.94805 1.07889,-2.4643 1.25385,-3.36944 0.43569,-2.25395 1.39746,-5.92451 1.71461,-6.54373 0.15734,-0.3072 0.36032,-0.41005 0.5113,-0.25907 0.15098,0.15098 -0.008,1.11545 -0.40115,2.42945 -0.35834,1.19849 -0.79767,3.04725 -0.97629,4.10836 -0.20742,1.23222 -0.69458,2.61257 -1.34832,3.8204 -0.93644,1.73013 -1.68973,2.54393 -1.68973,1.82546 z m -28.006378,10.96301 c 0.236325,-0.14965 0.320099,-0.47944 0.219503,-0.86412 -0.180858,-0.69161 0.373784,-3.37509 0.901324,-4.36081 0.583361,-1.09002 0.833571,-2.24626 1.115691,-5.15567 0.23494,-2.42285 0.21088,-2.93372 -0.17318,-3.6764 -0.24532,-0.4744 -0.510483,-1.80287 -0.589257,-2.95216 -0.118865,-1.7342 -0.06534,-2.15425 0.314737,-2.46968 0.69196,-0.57428 0.91174,-0.11216 1.09965,2.3121 0.40399,5.21209 0.12041,8.77394 -1.12187,14.09077 -0.249027,1.06581 -0.309781,1.84653 -0.15568,2.00062 0.32815,0.32816 2.04476,-1.56462 2.82873,-3.11903 0.72731,-1.44207 0.69927,-1.41047 1.05605,-1.18997 0.19759,0.12212 0.15701,0.44031 -0.12594,0.98747 -0.2296,0.44401 -0.38344,0.81182 -0.34185,0.81737 0.0416,0.006 1.29042,0.0634 2.77519,0.12861 2.9662,0.13024 4.28965,0.58821 6.97233,2.41277 1.54381,1.04998 3.49842,1.52782 4.35387,1.06438 0.87449,-0.47375 2.52527,-4.1489 3.3976,-7.56409 1.40908,-5.51662 1.38475,-6.20748 -0.42131,-11.96032 -0.3552,-1.13143 -0.79008,-2.79772 -0.96638,-3.70286 -0.44103,-2.26419 -1.29261,-4.16946 -1.93916,-4.33854 -0.95809,-0.25054 -2.55524,0.38913 -3.67367,1.47135 -0.60343,0.58389 -1.64905,1.25604 -2.32362,1.49367 -0.67456,0.23764 -1.48036,0.67057 -1.79066,0.96209 -1.01729,0.95569 -2.54487,1.2916 -4.93714,1.08566 -1.20686,-0.1039 -2.42696,-0.28685 -2.71134,-0.40656 -0.48241,-0.20307 -0.50435,-0.11603 -0.32752,1.29925 0.15138,1.2116 0.10767,1.54832 -0.21718,1.67297 -0.59164,0.22703 -0.91959,-0.31569 -1.12907,-1.86846 -0.26853,-1.99047 -0.679699,-3.20692 -1.322111,-3.91151 -0.962607,-1.05578 -2.599142,-0.4808 -7.392742,2.59739 l -2.128529,1.36682 -2.877185,-0.0982 c -2.827136,-0.0965 -2.877713,-0.0874 -2.907546,0.52222 -0.05952,1.21638 0.08048,2.00056 0.464072,2.59938 0.457236,0.71379 0.50076,1.17537 0.110829,1.17537 -0.626863,0 -1.36535,-1.78811 -1.366372,-3.30842 -9.19e-4,-1.36744 -0.0841,-1.58699 -0.802572,-2.11817 l -0.801547,-0.59261 0.283393,0.88388 c 0.729154,2.27419 1.345315,9.17633 1.1952,13.38843 -0.09163,2.57119 -0.261805,3.57752 -0.95352,5.63877 -0.463089,1.37997 -0.841979,2.58968 -0.841979,2.68825 0,0.0986 0.43136,-0.1498 0.958579,-0.55193 0.736379,-0.56167 1.374559,-0.76454 2.753137,-0.8752 1.471687,-0.11813 1.88812,-0.26299 2.314581,-0.80515 0.286012,-0.3636 0.566385,-0.80019 0.62305,-0.97018 0.05666,-0.17 0.250363,-0.21803 0.430439,-0.10673 0.227409,0.14054 0.245502,0.3554 0.05924,0.70344 -0.233234,0.4358 -0.108364,0.54133 0.958402,0.80994 0.674617,0.16987 1.936676,0.65932 2.804576,1.08767 3.306725,1.632 4.075031,1.92952 5.00657,1.93871 0.528,0.005 1.131985,-0.0994 1.34219,-0.23254 z m -15.879333,-2.73359 c 0,-0.13263 0.33523,-0.96577 0.744955,-1.85143 0.442143,-0.95573 0.766012,-2.16421 0.796757,-2.97302 0.02849,-0.7495 0.182423,-1.40626 0.342072,-1.45948 0.403504,-0.1345 0.678949,1.1376 0.477848,2.20687 -0.355403,1.88971 -2.361632,5.35321 -2.361632,4.07706 z m 7.835098,-2.19838 c -0.09961,-0.16117 -0.04802,-1.02694 0.114636,-1.92395 0.27769,-1.53136 0.05918,-4.33453 -0.4391,-5.63302 -0.105122,-0.27395 -0.0098,-0.42637 0.266592,-0.42637 0.684365,0 1.070225,2.02952 0.950913,5.00153 -0.100558,2.50485 -0.455457,3.68984 -0.893041,2.98181 z m 18.073873,-6.20076 c -0.0103,-6.00767 0.16901,-7.86469 0.52297,-5.41686 0.59474,4.11292 0.46608,11.86317 -0.19692,11.86257 -0.22791,-2.1e-4 -0.31807,-1.78257 -0.32605,-6.44571 z m -21.246113,3.74142 c 0,-1.5284 0.376899,-3.05543 0.754139,-3.05543 0.326459,0 0.369519,0.25342 0.221381,1.30286 -0.24491,1.735 -0.4128,2.26286 -0.719718,2.26286 -0.140691,0 -0.255802,-0.22963 -0.255802,-0.51029 z m 27.588063,-2.28353 c -0.24368,-1.51456 -0.31169,-7.90346 -0.0841,-7.90339 0.50239,1.6e-4 0.75232,1.64378 0.703,4.62322 -0.0291,1.75669 -1e-4,3.3637 0.0644,3.57113 0.0645,0.20743 -0.03,0.43136 -0.20988,0.49761 -0.19651,0.0724 -0.38551,-0.24246 -0.47338,-0.78857 z M 92.289,143.61464 c -0.536741,-0.81917 -0.4637,-3.75752 0.09801,-3.94293 0.284381,-0.0939 0.323183,0.15303 0.177126,1.12701 -0.135229,0.90177 -0.06516,1.4915 0.252987,2.12924 0.24201,0.48512 0.440017,0.9865 0.440017,1.11418 0,0.45939 -0.544592,0.21892 -0.968142,-0.4275 z m -5.448831,-1.14722 c -0.215146,-0.56066 -0.21472,-3.23243 6.05e-4,-3.79356 0.38656,-1.00736 0.656368,-0.29037 0.656368,1.74424 0,2.06869 -0.295648,2.99092 -0.656973,2.04932 z M 193.9158,152.16 c 0.003,-0.48575 0.15067,-0.75429 0.41563,-0.75429 0.27605,0 0.41143,0.27609 0.41143,0.83905 0,0.60498 0.0951,0.77714 0.34104,0.61714 0.18758,-0.12205 1.3293,-0.53376 2.53715,-0.91493 1.80158,-0.56853 2.21184,-0.80258 2.28374,-1.30286 0.10326,-0.71845 0.87235,-0.83117 0.87235,-0.12785 0,0.39812 0.20283,0.46651 1.16572,0.3931 0.8569,-0.0653 1.49268,0.0949 2.4,0.60493 4.67531,2.62805 5.03393,2.59934 5.31506,-0.42554 0.10684,-1.14951 0.35884,-2.17922 0.598,-2.44349 0.50017,-0.55268 0.70326,-5.09842 0.32822,-7.3464 -0.26531,-1.59021 -0.0906,-2.10096 0.46075,-1.34696 0.31409,0.42954 0.39701,0.36945 0.83721,-0.60674 0.37131,-0.82342 0.44371,-1.42183 0.30162,-2.49297 -0.14139,-1.06579 -0.10384,-1.38175 0.15398,-1.29581 0.8847,0.29489 0.88043,3.23008 -0.007,4.58718 -0.67705,1.03577 -0.52501,7.75389 0.1917,8.4706 0.38473,0.38473 0.63555,0.43734 1.09902,0.23054 0.41294,-0.18426 0.92926,-0.15946 1.653,0.0794 0.97473,0.32168 1.13627,0.29446 2.18628,-0.36838 0.62358,-0.39364 1.21946,-0.71572 1.32418,-0.71572 0.10472,0 1.06374,0.84461 2.13117,1.87692 1.06742,1.03231 2.20444,2.01657 2.52671,2.18724 0.56286,0.2981 0.59344,0.24027 0.77642,-1.46837 0.12177,-1.13708 0.47209,-2.30641 0.97116,-3.24165 1.50496,-2.82023 2.19219,-5.50095 2.19219,-8.55125 0,-3.0599 0.37275,-4.13504 1.19659,-3.45132 0.2382,0.19769 0.58492,0.77932 0.77049,1.29251 0.18557,0.51318 0.42463,0.93306 0.53124,0.93306 0.10661,0 0.3526,-0.61945 0.54664,-1.37656 0.19404,-0.75711 0.48316,-1.32979 0.64249,-1.27262 0.37451,0.13437 0.2665,1.11234 -0.28661,2.59527 -0.56022,1.50197 -1.1361,1.43687 -1.94954,-0.22037 l -0.60584,-1.23429 -0.0113,2.6647 c -0.007,1.66702 -0.17189,3.13768 -0.44021,3.92799 -0.30858,0.90892 -0.34664,1.3624 -0.13566,1.61662 0.21008,0.25313 0.18766,0.65598 -0.0791,1.42058 -0.20477,0.58699 -0.45636,1.71382 -0.55908,2.50406 l -0.18676,1.43681 1.2004,-0.81014 c 1.97768,-1.33472 2.55225,-1.46948 4.71479,-1.10581 3.8992,0.65573 5.43355,1.16976 6.58285,2.20537 1.80329,1.62489 2.82326,2.22183 4.43769,2.59711 2.54054,0.59057 4.85794,0.12453 8.45374,-1.70007 4.22271,-2.14272 5.73358,-3.16637 8.67691,-5.87878 1.41284,-1.30201 2.96995,-2.70155 3.46024,-3.1101 0.78609,-0.65504 0.89142,-0.9036 0.89142,-2.10349 0,-1.4884 -0.50034,-2.70466 -1.59306,-3.87251 -0.64035,-0.68437 -0.71324,-0.99163 -0.76721,-3.23387 -0.0414,-1.71865 -0.19313,-2.68137 -0.4954,-3.14269 -0.26432,-0.40341 -0.43575,-1.25678 -0.43575,-2.16911 0,-0.84617 -0.30261,-2.46199 -0.69181,-3.69403 -0.62001,-1.96266 -0.83276,-2.30219 -2.04971,-3.27114 -1.1601,-0.92369 -1.66567,-1.12695 -3.47079,-1.39543 -2.0065,-0.29843 -2.20612,-0.27862 -3.96454,0.39331 -1.01841,0.38915 -1.99921,0.88535 -2.17956,1.10266 -0.45583,0.54924 -0.60693,0.51351 -2.09842,-0.49633 -1.6559,-1.12115 -2.94381,-1.14423 -5.94701,-0.10655 -2.46601,0.85207 -3.03181,1.12463 -6.06674,2.92256 -1.20685,0.71495 -2.56457,1.4742 -3.01714,1.68721 -0.52055,0.24501 -0.79325,0.55961 -0.74226,0.85633 0.0472,0.27478 -0.0948,0.46903 -0.34286,0.46903 -0.2329,0 -0.42345,-0.144 -0.42345,-0.32 0,-0.176 -0.0736,-0.24642 -0.16352,-0.15648 -0.0899,0.0899 0.0367,1.04373 0.28136,2.11954 0.45706,2.00955 0.62624,5.49869 0.29278,6.03824 -0.10311,0.16685 -0.38698,0.26494 -0.63081,0.21798 -0.35923,-0.0692 -0.45234,-0.50132 -0.49081,-2.27805 -0.0525,-2.42487 -0.97585,-6.46415 -1.77988,-7.78627 -0.42431,-0.69772 -0.69584,-0.85211 -1.49865,-0.85211 -0.80428,0 -1.24911,0.25409 -2.47561,1.41407 -0.82234,0.77773 -1.9509,2.01166 -2.50792,2.74207 -1.22753,1.60965 -1.76968,1.82357 -2.72236,1.07418 -0.86572,-0.68097 -2.37099,-0.7383 -3.52744,-0.13434 -0.47332,0.2472 -1.14326,0.3659 -1.57714,0.27946 -0.6127,-0.12208 -0.75429,-0.0516 -0.75429,0.37523 0,0.28904 -0.13903,0.61146 -0.30897,0.71648 -0.20067,0.12403 -0.25786,0.75459 -0.16315,1.79905 0.1081,1.19214 0.0559,1.60809 -0.20184,1.60809 -0.36748,0 -0.60747,-1.58456 -0.68546,-4.52572 -0.072,-2.71558 -0.55991,-2.46731 -0.56601,0.288 -0.005,2.47923 -0.63302,8.64945 -0.96863,9.52405 -0.1,0.26052 -0.36691,0.47367 -0.5932,0.47367 -0.24509,0 -0.35025,-0.15942 -0.26011,-0.39433 0.3112,-0.81098 0.71131,-3.63029 0.70309,-4.95424 -0.0228,-3.67156 -0.3048,-8.09143 -0.51625,-8.09143 -0.25004,0 -1.8196,1.31781 -5.47196,4.59428 l -2.2167,1.98858 h -2.68926 -2.68927 l -0.36105,1.44 c -0.58275,2.3242 -1.14277,3.87635 -1.57465,4.36428 -0.27191,0.30721 -0.44854,1.33513 -0.54201,3.15429 -0.0763,1.48421 -0.26236,3.06885 -0.41356,3.52143 -0.1512,0.45257 -0.33233,2.42742 -0.40251,4.38857 -0.0702,1.96114 -0.14113,3.75085 -0.15768,3.97714 -0.0165,0.22629 -0.009,0.65829 0.0173,0.96 0.0716,0.82882 0.57801,-0.064 0.58338,-1.02857 z m 50.54134,-1.7588 c -0.76278,-0.30779 -0.26608,-0.64141 0.96,-0.6448 2.5524,-0.007 6.37466,-1.01257 9.35224,-2.46025 1.56405,-0.76044 3.16021,-1.63156 3.54702,-1.93582 0.48027,-0.37778 0.79244,-0.46406 0.98442,-0.27208 0.41074,0.41074 -0.31159,0.89965 -4.07796,2.76019 -2.55159,1.26045 -3.91765,1.7505 -6.07738,2.18017 -2.7398,0.54507 -4.01061,0.64606 -4.68834,0.37259 z M 197.76,149.25437 c 0,-0.12724 0.25781,-0.96039 0.57291,-1.85143 0.36216,-1.02413 0.66198,-2.83086 0.81505,-4.91151 0.23038,-3.13138 0.14901,-4.04432 -0.59589,-6.68572 -0.22768,-0.80735 0.52535,-0.55349 0.88466,0.29824 0.26744,0.63397 0.38041,2.12503 0.38041,5.02101 0,3.59477 -0.0847,4.38928 -0.66543,6.24 -0.38966,1.24184 -0.81593,2.12075 -1.02857,2.12075 -0.19973,0 -0.36314,-0.1041 -0.36314,-0.23134 z m 41.9134,-2.82453 c -1.97358,-1.0709 -4.83581,-3.68572 -4.45323,-4.0683 0.18286,-0.18285 0.80098,0.21589 1.85437,1.19623 0.86904,0.80879 2.3765,1.87476 3.34991,2.36884 0.97341,0.49408 1.76983,1.00328 1.76983,1.13157 0,0.45268 -0.97783,0.20895 -2.52088,-0.62834 z m 3.07538,0.003 c -3.21901,-1.54134 -6.05362,-3.62671 -5.57725,-4.10308 0.18581,-0.1858 0.66868,0.0512 1.47214,0.72244 0.65761,0.54941 2.3118,1.56735 3.67599,2.26208 2.33272,1.18797 2.61093,1.26331 4.67462,1.26583 3.42614,0.004 6.67749,-1.27943 9.33361,-3.68482 1.52071,-1.37716 2.06205,-1.64903 2.03384,-1.02143 -0.0221,0.49228 -3.02751,2.94966 -4.55988,3.72843 -2.52709,1.2843 -4.15553,1.68891 -6.78193,1.68505 -2.22065,-0.003 -2.6891,-0.097 -4.27114,-0.8545 z m -8.12019,-1.41679 c -2.81412,-2.40824 -5.14046,-5.42242 -4.49358,-5.82222 0.16582,-0.10248 0.33324,-0.14311 0.37206,-0.0903 0.0388,0.0528 0.36324,0.52804 0.72093,1.05604 1.1248,1.66034 2.27011,2.90123 4.04057,4.37778 0.94286,0.78633 1.71429,1.54244 1.71429,1.68024 0,0.54912 -0.76447,0.15895 -2.35427,-1.20155 z m -19.42855,-1.63393 c 0.032,-3.54496 0.0811,-4.09827 0.34874,-3.93285 0.40149,0.24814 0.66264,5.63888 0.29466,6.08227 -0.17712,0.21342 -0.3995,0.3879 -0.49417,0.38773 -0.0947,-1.8e-4 -0.16182,-1.14189 -0.14923,-2.53715 z m 6.6971,2.03183 c 0,-0.2781 0.24686,-1.22314 0.54857,-2.10009 0.64575,-1.87691 0.7052,-3.8942 0.15364,-5.21424 -0.48207,-1.15377 -0.084,-1.52456 0.56813,-0.52923 0.76387,1.16581 0.80632,3.3999 0.10786,5.67597 -0.33545,1.09313 -0.65547,2.14179 -0.71116,2.33036 -0.15641,0.52966 -0.66704,0.40505 -0.66704,-0.16277 z m -17.47377,-4.06 c 0.14203,-3.00591 0.43268,-4.34933 0.84786,-3.91894 0.0631,0.0654 0.0474,1.75428 -0.0348,3.75314 -0.12302,2.9904 -0.2228,3.63429 -0.5632,3.63429 -0.35558,0 -0.39068,-0.48735 -0.24982,-3.46849 z m 54.015,2.85134 c 0.16507,-0.52919 3.8733,-2.40726 4.17191,-2.11291 0.31174,0.30728 0.4158,0.22392 -1.80913,1.44931 -1.92122,1.05812 -2.54005,1.23192 -2.36278,0.6636 z m -16.27673,-1.88556 c -2.49619,-1.31703 -8.15297,-5.67712 -8.40733,-6.48015 -0.23772,-0.75049 0.59531,-0.23793 3.34525,2.05832 1.77212,1.47974 3.9329,2.96106 5.63087,3.86022 2.51708,1.3329 3.31109,1.97814 2.41243,1.96041 -0.18858,-0.004 -1.53012,-0.63318 -2.98122,-1.3988 z m 4.14693,-0.0335 c 0,-0.31798 0.41581,-0.44351 1.75067,-0.5285 2.47942,-0.15788 5.54086,-1.70291 7.66729,-3.86948 1.06721,-1.08736 1.69225,-1.53961 1.8751,-1.35675 0.18286,0.18286 -0.25932,0.8183 -1.32653,1.90632 -2.14552,2.18737 -5.55701,3.91148 -8.15175,4.11976 -1.50499,0.12081 -1.81478,0.0745 -1.81478,-0.27135 z m 16.59097,-1.30916 c -0.0951,-0.1538 -0.0309,-0.70966 0.14254,-1.23523 0.17346,-0.52557 0.23414,-1.32545 0.13485,-1.7775 -0.13669,-0.62234 -0.0826,-0.8219 0.22297,-0.8219 0.61059,0 0.80844,1.29143 0.42628,2.78252 -0.33671,1.31379 -0.58834,1.59949 -0.92664,1.05211 z m -4.64597,-2.44124 c -0.0858,-0.13878 0.16294,-0.50316 0.55269,-0.80973 0.38975,-0.30658 1.06296,-1.04655 1.49603,-1.64439 0.7345,-1.01395 1.76181,-1.65231 2.10567,-1.30846 0.0822,0.0822 -0.26652,0.57506 -0.77496,1.09521 -0.50844,0.52014 -1.34353,1.38986 -1.85577,1.9327 -0.96484,1.02249 -1.25832,1.16399 -1.52366,0.73467 z m -58.1656,-1.71887 c -0.24502,-0.64555 0.0201,-2.78864 0.35894,-2.90159 0.23088,-0.077 0.33023,0.34578 0.33023,1.40516 0,1.43275 -0.39106,2.28188 -0.68917,1.49643 z m 17.84301,-2.48595 c -0.0751,-0.33943 -0.32177,-1.60457 -0.54809,-2.81143 -0.22631,-1.20686 -0.48651,-2.45807 -0.57822,-2.78047 -0.23155,-0.814 0.37422,-1.1052 0.66929,-0.32175 0.13126,0.34851 0.39864,1.53405 0.59419,2.63454 0.19554,1.10049 0.45245,2.06079 0.57089,2.13399 0.11845,0.0732 0.35031,-0.36806 0.51524,-0.9806 0.3046,-1.13118 0.82286,-1.26572 0.82286,-0.21362 0,0.67428 -1.27527,2.95648 -1.65205,2.95648 -0.14162,0 -0.31897,-0.27771 -0.39411,-0.61714 z m 23.76922,0.0389 c -0.95061,-0.30109 -1.79695,-0.72616 -1.88078,-0.94459 -0.0838,-0.21844 -0.29408,-0.39716 -0.46725,-0.39716 -0.17317,0 -1.19917,-0.66526 -2.28001,-1.47836 -1.08083,-0.81309 -2.65546,-1.79439 -3.49918,-2.18066 -1.4083,-0.64473 -2.101,-1.34439 -1.71409,-1.7313 0.0854,-0.0854 0.50177,0.091 0.92532,0.39188 0.42354,0.30091 1.20207,0.72752 1.73007,0.94802 0.528,0.22049 1.79968,1.0369 2.82596,1.81423 1.02627,0.77733 1.98284,1.41333 2.12571,1.41333 0.14287,0 0.25976,0.16264 0.25976,0.36141 0,0.65515 3.48106,1.56693 5.96572,1.56257 1.24457,-0.002 2.26285,0.10506 2.26285,0.23832 0,0.7469 -3.89872,0.74834 -6.25408,0.002 z m 11.46551,-1.84781 c 0,-0.12748 0.216,-0.42286 0.48,-0.65641 0.75189,-0.66516 6.01123,-3.50039 6.49322,-3.50039 0.91673,0 0.34699,0.51171 -1.83036,1.64391 -1.24457,0.64717 -2.77881,1.52947 -3.40942,1.96067 -1.15937,0.79275 -1.73344,0.97563 -1.73344,0.55222 z m -8.39195,-4.26342 c -0.17883,-0.46602 0.0615,-0.99052 0.45385,-0.99052 0.34592,0 0.33096,1.01974 -0.0181,1.23548 -0.15192,0.0939 -0.348,-0.0163 -0.43573,-0.24496 z m 9.08975,-0.4224 c -0.21908,-0.35448 0.0373,-0.47157 1.77077,-0.80863 0.82972,-0.16133 1.80281,-0.37708 2.16244,-0.47943 1.06566,-0.30331 0.56005,0.53128 -0.53771,0.88756 -1.46461,0.47534 -3.2212,0.68253 -3.3955,0.4005 z m -9.57383,-1.58129 c -0.48683,-0.48683 0.4972,-2.55254 1.21594,-2.55254 0.4002,0 0.2971,0.72023 -0.15705,1.09714 -0.22629,0.1878 -0.41143,0.56591 -0.41143,0.84025 0,0.54437 -0.36831,0.8943 -0.64746,0.61515 z m 8.89637,-1.42174 c -0.36596,-0.10226 -0.72113,-0.35319 -0.78927,-0.55762 -0.0997,-0.29915 0.13715,-0.32652 1.21395,-0.14024 0.73581,0.12729 2.4487,0.24885 3.80641,0.27014 3.02032,0.0474 3.11909,0.0623 2.60572,0.39406 -0.45966,0.29705 -5.80017,0.32335 -6.83681,0.0337 z"
       id="path1" />
  </g>
</svg>
