<?xml version="1.0" encoding="UTF-8" standalone="no"?>
<!-- Created with Inkscape (http://www.inkscape.org/) -->

<svg
   version="1.1"
   id="svg1"
   width="294.58286"
   height="294.58286"
   viewBox="0 0 294.58286 294.58286"
   sodipodi:docname="2c-large-a-outline.svg"
   inkscape:version="1.4 (86a8ad7, 2024-10-11)"
   xmlns:inkscape="http://www.inkscape.org/namespaces/inkscape"
   xmlns:sodipodi="http://sodipodi.sourceforge.net/DTD/sodipodi-0.dtd"
   xmlns="http://www.w3.org/2000/svg"
   xmlns:svg="http://www.w3.org/2000/svg">
  <defs
     id="defs1" />
  <sodipodi:namedview
     id="namedview1"
     pagecolor="#ffffff"
     bordercolor="#000000"
     borderopacity="0.25"
     inkscape:showpageshadow="2"
     inkscape:pageopacity="0.0"
     inkscape:pagecheckerboard="0"
     inkscape:deskcolor="#d1d1d1"
     inkscape:zoom="2.766624"
     inkscape:cx="147.47215"
     inkscape:cy="147.29143"
     inkscape:window-width="1920"
     inkscape:window-height="1017"
     inkscape:window-x="-8"
     inkscape:window-y="-8"
     inkscape:window-maximized="1"
     inkscape:current-layer="g1" />
  <g
     inkscape:groupmode="layer"
     inkscape:label="Image"
     id="g1">
    <path
       style="fill:#000000"
       d="m 37.231468,165.88024 c -1.75241,-0.36512 -2.621024,-1.47765 -2.112401,-2.70558 0.244917,-0.59128 0.277986,-1.45448 0.117718,-3.07275 -0.122584,-1.23777 -0.213251,-2.68248 -0.201484,-3.21048 0.01177,-0.528 0.0048,-1.76229 -0.01546,-2.74286 -0.02027,-0.98057 -0.03946,-4.4456 -0.04263,-7.70007 l -0.0058,-5.91721 0.750508,-1.13406 c 0.579967,-0.87636 1.016257,-1.2037 1.92,-1.44058 5.371217,-1.40779 8.045926,-2.66025 10.400215,-4.87003 1.102497,-1.03483 3.503127,-1.80834 5.169277,-1.66562 2.476869,0.21218 4.55668,-0.0465 6.171429,-0.76767 2.400975,-1.07226 3.651082,-1.09967 6.72,-0.14734 3.025259,0.93878 4.082712,0.88939 7.954285,-0.37152 2.663914,-0.86759 5.168788,-1.00125 7.870898,-0.41996 2.258751,0.4859 7.772305,0.27357 9.200614,-0.35432 0.815381,-0.35845 1.856244,-0.44334 5.074286,-0.41383 3.278675,0.0301 4.50896,-0.0738 6.47014,-0.54605 3.0891,-0.74389 3.61719,-0.73332 6.16982,0.12357 2.871,0.96376 4.30831,1.09122 6.53899,0.57986 1.03139,-0.23643 2.99896,-0.49003 4.37237,-0.56355 1.47669,-0.079 2.93379,-0.32514 3.56571,-0.60221 0.71845,-0.31501 2.28194,-0.53806 4.77146,-0.6807 4.35595,-0.24957 9.99423,-0.95737 11.93143,-1.4978 0.75428,-0.21042 2.66742,-0.46279 4.25142,-0.56081 2.38217,-0.1474 3.16809,-0.31573 4.54659,-0.97376 2.73967,-1.3078 4.36601,-1.51271 7.56379,-0.95302 3.2404,0.56715 4.73486,0.42619 7.04013,-0.66403 3.55868,-1.68299 6.45083,-3.67947 9.37363,-6.47073 2.12674,-2.03101 3.49072,-3.08793 4.90275,-3.79901 3.3027,-1.66322 4.47199,-1.87666 10.45883,-1.90912 l 5.34857,-0.029 1.78286,-0.92565 c 0.98057,-0.5091 2.50405,-1.51194 3.3855,-2.22853 3.33127,-2.70818 8.11345,-4.92006 10.66205,-4.93146 1.68944,-0.008 3.48057,0.61883 5.6037,1.9597 1.57829,0.99678 1.91671,1.09792 4.13108,1.23461 1.32657,0.0819 3.75245,0.0213 5.39084,-0.13454 3.18163,-0.3027 4.70228,-0.87369 9.36397,-3.51606 1.056,-0.59857 3.03086,-1.57369 4.38857,-2.166923 l 2.46857,-1.07861 4.38857,0.07409 c 4.83489,0.08163 7.21406,-0.206492 10.23074,-1.238955 1.91914,-0.656831 2.02434,-0.665169 2.53714,-0.201091 0.71328,0.645511 0.68323,0.910977 -0.3375,2.980886 l -0.87247,1.7693 0.66676,0.81299 c 0.36672,0.44714 1.19098,1.45364 1.83168,2.23667 0.68618,0.83859 1.34001,2.02596 1.59096,2.8892 0.23432,0.80603 0.6796,1.78787 0.98951,2.18185 1.09524,1.39238 3.40691,4.68872 4.23955,6.04541 1.17348,1.91207 1.41728,2.87185 1.5522,6.11064 0.11607,2.78632 0.10852,2.82847 -0.5955,3.32402 -0.39219,0.27605 -0.97279,0.58242 -1.29023,0.68083 -0.31744,0.0984 -1.7188,0.91094 -3.11413,1.80563 -1.78386,1.14382 -3.40384,1.90967 -5.45712,2.5799 -5.15897,1.68398 -6.07253,1.87152 -9.64016,1.97897 -3.41035,0.10272 -4.07251,0.0333 -12.45185,-1.30558 -1.94566,-0.31089 -4.10554,-0.50123 -4.79973,-0.42298 -1.10328,0.12435 -1.44371,0.33732 -2.70453,1.69187 -0.79331,0.85229 -1.67588,2.00732 -1.96127,2.56674 -1.10303,2.1621 -3.02399,3.40626 -7.64979,4.95458 -1.40252,0.46944 -3.86201,1.48476 -5.46555,2.25626 -3.41241,1.64181 -4.95632,1.88412 -8.49635,1.33342 -2.96744,-0.46162 -4.01804,-0.20818 -7.35093,1.77329 -1.36539,0.81176 -3.14273,1.6227 -3.97714,1.81463 -0.82971,0.19086 -2.61047,0.883 -3.95724,1.53809 -1.34676,0.6551 -2.68391,1.19108 -2.97144,1.19108 -0.28753,0 -1.52115,-0.2549 -2.74139,-0.56646 -1.22023,-0.31155 -2.49644,-0.49672 -2.83602,-0.4115 -0.33958,0.0852 -1.21023,0.60747 -1.93478,1.16053 -1.42634,1.08875 -1.98658,1.29388 -7.36484,2.69667 -1.96115,0.51152 -4.6264,1.4207 -5.92279,2.02041 -3.33223,1.54148 -4.19356,1.72765 -6.7305,1.4547 -2.18883,-0.23549 -3.08875,-0.0986 -5.72386,0.87079 -0.77583,0.28541 -2.70697,0.44054 -6.59413,0.52971 -4.311,0.0989 -5.6797,0.22058 -6.34384,0.56402 -1.68218,0.86989 -4.56456,1.82971 -5.4947,1.82971 -1.3378,0 -5.02792,-0.9822 -6.88292,-1.83202 -1.35195,-0.61937 -1.889,-0.70921 -3.95453,-0.66157 -1.93325,0.0446 -2.82457,-0.0836 -4.66286,-0.67041 -3.03922,-0.97022 -4.22388,-0.92735 -7.1214,0.25771 -3.47719,1.42214 -4.01499,1.45566 -7.44625,0.46419 -1.61666,-0.46713 -3.12632,-0.84933 -3.35481,-0.84933 -0.2285,0 -1.786146,0.69536 -3.461446,1.54524 -3.038736,1.54156 -3.050649,1.54488 -4.995983,1.39217 -1.901912,-0.1493 -4.634048,-0.72612 -9.081413,-1.91731 -1.218094,-0.32625 -3.658573,-0.68063 -5.485714,-0.79657 -1.810286,-0.11486 -3.88712,-0.28704 -4.615188,-0.38261 -1.970372,-0.25865 -3.284759,0.36486 -5.457159,2.58873 -2.689442,2.75315 -4.106528,3.35965 -8.441939,3.61306 -2.106384,0.12313 -3.904559,0.38073 -4.662857,0.668 -0.689824,0.26133 -2.565192,0.55656 -4.251428,0.66928 -2.301907,0.15388 -3.297337,0.34667 -4.199107,0.81328 -0.706609,0.36563 -2.08549,0.7155 -3.428571,0.86994 -2.638734,0.30343 -3.439665,0.29197 -5.197997,-0.0744 z m 8.107909,-2.04192 c 1.306633,-0.55977 2.399615,-0.7784 4.717766,-0.94371 1.715786,-0.12236 3.76709,-0.45781 4.755865,-0.77774 1.236403,-0.40005 2.465828,-0.56259 4.255513,-0.56259 2.238025,0 2.703356,-0.091 4.201192,-0.82176 1.045568,-0.5101 2.399766,-1.53289 3.570588,-2.69676 2.663124,-2.64733 4.80794,-3.30711 7.799296,-2.39921 0.861605,0.26151 1.969312,0.33684 3.455204,0.235 1.800998,-0.12344 2.509688,-0.0425 4.014978,0.4584 1.005368,0.33456 2.721383,0.77448 3.813367,0.97759 1.091984,0.20312 2.664282,0.56523 3.493996,0.80471 0.829715,0.23947 2.187429,0.44819 3.017143,0.4638 1.33284,0.0251 1.846818,-0.15125 4.412265,-1.51382 1.597032,-0.84823 3.21236,-1.54223 3.58963,-1.54223 0.37726,0 1.90946,0.36888 3.40488,0.81973 1.49541,0.45085 3.04286,0.82114 3.43875,0.82286 0.73811,0.003 5.30215,-1.72566 5.92903,-2.24593 0.47211,-0.39181 2.62689,-0.0821 5.29723,0.76151 1.68675,0.53285 2.68152,0.67224 4.58094,0.64193 2.12169,-0.0339 2.68283,0.0657 4.46965,0.79298 5.4155,2.20429 6.35867,2.20211 11.5062,-0.0265 0.69062,-0.29901 2.49929,-0.46837 6.44571,-0.60359 4.85241,-0.16626 5.72321,-0.26836 7.54286,-0.88438 1.86965,-0.63295 2.31742,-0.68076 4.91288,-0.52455 l 2.85573,0.17186 3.04711,-1.35174 c 1.67591,-0.74347 3.66168,-1.49871 4.41283,-1.67832 3.70265,-0.88534 6.46971,-1.79842 8.08573,-2.66814 0.98057,-0.52773 2.24889,-1.20403 2.81847,-1.5029 l 1.03562,-0.54339 2.44343,0.58072 c 1.34388,0.31939 2.68794,0.58072 2.98678,0.58072 0.29884,0 1.46632,-0.48902 2.59441,-1.0867 1.12808,-0.59768 2.89743,-1.29372 3.93189,-1.54675 1.03446,-0.25303 2.25112,-0.72768 2.70369,-1.05477 1.57534,-1.13858 3.85106,-2.25548 5.54894,-2.72337 1.58927,-0.43796 1.80055,-0.43968 3.01714,-0.0246 1.58599,0.54115 4.50609,0.55662 5.98406,0.0317 0.59628,-0.21179 2.07157,-0.87893 3.27843,-1.48254 1.20686,-0.60362 2.688,-1.24664 3.29143,-1.42894 4.62348,-1.39677 7.15983,-2.79465 8.08398,-4.45538 0.8764,-1.57493 3.18346,-4.21547 4.26955,-4.88671 0.96668,-0.59744 2.53803,-0.69423 4.68332,-0.28847 5.61657,1.06231 11.35987,1.6884 14.48335,1.57886 4.89223,-0.17158 10.60627,-1.88455 14.06412,-4.21618 1.02691,-0.69245 2.48425,-1.54758 3.23854,-1.90029 l 1.37142,-0.64128 -0.086,-2.68016 c -0.0847,-2.64 -0.59798,-4.32412 -1.781,-5.84338 -0.18003,-0.23119 -1.72393,-0.85346 -3.4309,-1.38281 -1.70697,-0.52936 -3.06468,-1.08077 -3.01714,-1.22537 0.11726,-0.35666 1.03295,-0.2105 3.4096,0.54423 l 2.00102,0.63544 -1.08362,-1.5957 c -0.59599,-0.87763 -1.20797,-1.67255 -1.35996,-1.76649 -0.31554,-0.19501 -1.1424,-1.96909 -1.64009,-3.5189 -0.18544,-0.57747 -0.98737,-1.77864 -1.78206,-2.66926 -2.18235,-2.44581 -2.29726,-2.88747 -1.30363,-5.0108 l 0.82012,-1.752564 -1.30345,0.495272 c -2.56767,0.975639 -6.15674,1.407452 -10.01435,1.204864 -3.41021,-0.179092 -3.66459,-0.154498 -5.83296,0.563948 -1.24698,0.41317 -3.22183,1.30368 -4.38857,1.97891 -3.47264,2.00974 -6.3106,3.35515 -7.96788,3.77738 -0.94893,0.24176 -3.33046,0.43227 -6.08488,0.48678 -4.90669,0.0971 -4.51483,0.18297 -7.54286,-1.65331 -1.96497,-1.19162 -3.25649,-1.53734 -5.11386,-1.36892 -2.44308,0.22153 -6.40045,2.21211 -9.43081,4.74376 -0.75843,0.63361 -2.30129,1.6288 -3.42857,2.21153 l -2.04961,1.05951 -4.46026,-0.0733 c -5.46798,-0.0899 -7.51892,0.21207 -10.35117,1.52412 -1.78748,0.82804 -2.7595,1.55056 -5.24296,3.89714 -3.11428,2.94265 -5.13837,4.3569 -9.0199,6.3023 -3.14145,1.57449 -4.7305,1.83541 -7.78003,1.27749 -3.14154,-0.57475 -4.00335,-0.56347 -5.86416,0.0767 -1.76789,0.60825 -2.66871,1.13954 -4.16869,2.45863 -0.68393,0.60146 -1.12278,0.82709 -1.19387,0.61382 -0.0618,-0.18547 0.0845,-0.55476 0.32509,-0.82064 0.4152,-0.45879 0.31534,-0.47849 -1.96043,-0.38661 -1.31885,0.0532 -3.13848,0.27661 -4.04362,0.49638 -2.24769,0.54572 -7.79059,1.23685 -11.93143,1.48768 -1.88572,0.11424 -3.92229,0.3939 -4.52572,0.62149 -1.28867,0.48602 -3.93126,0.8667 -5.48571,0.79024 -0.60343,-0.0297 -1.89111,0.1505 -2.86152,0.40041 -2.10489,0.54208 -3.65886,0.39951 -6.59397,-0.60499 -2.23688,-0.76553 -3.27197,-0.76307 -6.59022,0.0157 -1.11388,0.26142 -3.172283,0.42316 -5.485719,0.43104 -2.533375,0.009 -4.135999,0.14648 -5.074286,0.43648 -2.264799,0.7 -6.760354,0.81803 -10.126632,0.26588 -3.271959,-0.53668 -4.374503,-0.45321 -7.341004,0.55576 -1.081075,0.3677 -2.245258,0.66854 -2.587075,0.66854 -0.341817,0 -0.703795,0.13318 -0.804396,0.29596 -0.246766,0.39928 -2.274721,0.1014 -4.968684,-0.72984 -2.785593,-0.8595 -3.582806,-0.83645 -5.875657,0.16989 -1.706395,0.74894 -2.182058,0.83348 -4.70624,0.83648 -3.695954,0.004 -4.922022,0.30739 -6.475703,1.60038 -2.469472,2.05512 -4.294707,2.99656 -7.867197,4.05783 -2.758562,0.81948 -3.586861,1.17996 -3.936288,1.71312 -0.380176,0.58006 -0.445616,1.79783 -0.464293,8.64 -0.01196,4.38061 0.102278,9.08027 0.253856,10.44367 0.196635,1.76868 0.187231,2.82706 -0.03282,3.69401 -0.169632,0.6683 -0.259274,1.26424 -0.199204,1.3243 0.373047,0.37305 2.283905,0.55774 4.607862,0.44536 2.099419,-0.10153 3.060302,-0.28951 4.388571,-0.85855 z m -2.940409,-2.79729 c -0.09748,-0.15773 -0.04306,-1.3665 0.120925,-2.68616 0.163988,-1.31966 0.260669,-2.76471 0.214847,-3.2112 -0.05254,-0.51198 0.05886,-0.85929 0.301603,-0.94033 0.321885,-0.10748 0.359575,0.42147 0.230168,3.23019 -0.144148,3.12867 -0.429676,4.31598 -0.867543,3.6075 z m 8.451054,-5.67996 c -0.200184,-0.7976 0.02052,-3.0312 0.451182,-4.56619 0.157747,-0.56225 0.903184,-1.94382 1.656527,-3.07016 1.142717,-1.70851 1.619118,-2.16992 2.874636,-2.78418 1.182795,-0.57869 1.767849,-0.70666 2.73327,-0.59784 1.538668,0.17343 2.048123,0.58798 2.063924,1.67946 0.01462,1.0099 -1.640936,4.53226 -2.138133,4.54909 -0.527908,0.0179 -0.42401,-0.37707 0.657477,-2.49918 1.178468,-2.31241 1.063155,-2.79273 -0.70173,-2.92292 -1.826004,-0.13471 -3.389758,0.78168 -4.758354,2.7885 -1.498202,2.19686 -2.103097,3.99353 -2.114153,6.27949 -0.009,1.85986 -0.392866,2.46584 -0.724646,1.14393 z m 67.097078,-0.53895 c -0.67652,-0.37045 -1.64338,-0.67355 -2.14857,-0.67355 -0.61201,0 -0.88096,-0.11441 -0.80595,-0.34286 0.21534,-0.65581 1.58599,-0.52221 3.32274,0.32388 2.05111,0.99923 2.16682,1.00645 4.29971,0.26832 1.31167,-0.45393 1.74021,-0.50464 2.05522,-0.2432 0.47847,0.39709 0.23769,0.91683 -0.32476,0.701 -0.21945,-0.0842 -0.83919,0.0308 -1.37718,0.25559 -1.49154,0.6232 -3.57405,0.50327 -5.02121,-0.28918 z m 14.33258,0.352 c -0.14436,-0.18691 -0.4819,-1.14212 -0.75008,-2.12269 -0.76148,-2.78427 -1.99097,-5.78009 -2.67643,-6.52149 -0.34353,-0.37157 -1.11831,-0.98427 -1.72174,-1.36156 -1.64129,-1.02621 -2.56542,-1.95295 -3.74495,-3.75554 -0.71052,-1.08584 -0.9734,-1.7185 -0.79018,-1.90171 0.15101,-0.15101 0.3178,-0.22107 0.37065,-0.1557 0.0529,0.0654 0.62715,0.93776 1.27623,1.93865 0.86612,1.33557 1.60843,2.09265 2.78974,2.84522 2.17266,1.38415 3.03833,2.44269 3.95394,4.83496 1.58775,4.14837 2.28282,7.48164 1.29282,6.19986 z m -29.55533,-2.48026 c 0.13945,-1.30213 0.0762,-1.9897 -0.25605,-2.78497 -0.46897,-1.1224 -0.42021,-1.40468 0.20143,-1.16614 0.96307,0.36957 1.21022,5.68011 0.26435,5.68011 -0.32148,0 -0.36047,-0.32142 -0.20973,-1.729 z m 45.70413,0.0312 c -0.18073,-0.78295 -0.64021,-1.8321 -1.02107,-2.33143 -0.60808,-0.79723 -0.84955,-0.90894 -1.98137,-0.9166 -1.19292,-0.008 -1.24925,-0.0387 -0.75647,-0.41143 1.79482,-1.35753 4.5184,1.07698 4.53583,4.05444 0.009,1.47271 -0.39293,1.26856 -0.77692,-0.39498 z m -12.60884,-0.8863 c -2.12463,-2.02939 -3.14269,-3.84054 -4.28525,-7.62355 -0.53379,-1.76737 -1.58727,-4.42109 -2.34107,-5.89714 -1.45957,-2.85808 -1.95826,-4.4666 -1.38479,-4.4666 0.18384,0 0.40501,0.27055 0.49148,0.60122 0.0865,0.33067 0.81782,1.94723 1.62522,3.59236 0.80739,1.64512 1.887,4.402 2.39912,6.12641 1.04863,3.53094 1.91785,5.0553 4.11982,7.22492 0.83685,0.82456 1.52154,1.59599 1.52154,1.71429 0,0.52378 -0.70119,0.1082 -2.14607,-1.27191 z m -50.448212,0.62535 c -0.188571,-0.18987 -0.342857,-0.63306 -0.342857,-0.98488 0,-0.80758 -0.698749,-2.49886 -1.312671,-3.17723 -0.725712,-0.80191 -1.971496,-1.34611 -2.676458,-1.16918 -0.35124,0.0882 -1.220154,0.90049 -1.93092,1.80518 -1.273212,1.6206 -1.759951,1.9796 -1.759951,1.29807 0,-0.65335 2.696958,-3.69647 3.441623,-3.88337 1.879695,-0.47177 4.236182,1.52483 4.806272,4.07226 0.382282,1.70822 0.288678,2.5564 -0.225038,2.03915 z m 38.050682,-1.91715 c -0.32971,-0.65909 -1.10886,-1.72585 -1.73144,-2.37058 -1.09025,-1.12903 -1.13403,-1.24337 -1.18805,-3.10272 -0.0712,-2.44942 0.52978,-2.49831 0.73166,-0.0595 0.12235,1.47801 0.26166,1.79175 1.29145,2.90851 1.29407,1.40337 2.15859,3.15993 1.75422,3.5643 -0.16162,0.16162 -0.48283,-0.19035 -0.85784,-0.93999 z m 34.76683,0.69345 c -0.0909,-0.0909 -0.0432,-0.48655 0.10603,-0.87912 0.6828,-1.79591 -0.75589,-4.44442 -2.41101,-4.43846 -0.64358,0.002 -0.85352,0.18882 -1.23502,1.09714 -0.41505,0.98821 -1.04894,1.49159 -1.04894,0.83298 0,-0.40427 0.64039,-1.74189 1.08953,-2.27577 0.91884,-1.0922 3.09568,-0.27929 4.01555,1.49956 0.83506,1.61483 0.40492,5.08473 -0.51614,4.16367 z m 10.49677,-0.28559 c 0,-0.0971 0.42337,-0.56001 0.94081,-1.02857 1.42658,-1.29181 1.49294,-1.93274 0.31511,-3.04357 -0.98345,-0.92752 -0.92518,-1.5196 0.0958,-0.9732 1.59101,0.85148 1.83546,2.77688 0.53989,4.25244 -0.73634,0.83865 -1.89159,1.3229 -1.89159,0.7929 z m -59.55117,-1.12621 c -0.19141,-0.56571 -0.35527,-2.016 -0.36413,-3.22286 -0.0131,-1.78587 0.12427,-2.53942 0.73816,-4.0486 0.5325,-1.30909 0.75429,-2.33735 0.75429,-3.49714 0,-1.27743 0.0915,-1.64283 0.41142,-1.64283 0.62829,0 0.53274,2.69917 -0.16288,4.60114 -1.37751,3.76642 -1.39308,3.86659 -0.94081,6.05355 0.22989,1.11162 0.41798,2.19307 0.41798,2.40322 0,0.75144 -0.51226,0.36368 -0.85403,-0.64648 z m 7.06297,-0.0329 c -0.20039,-1.25316 -0.66214,-1.71768 -1.49178,-1.50072 -0.83646,0.21873 -0.77263,-0.38932 0.0817,-0.77859 0.56392,-0.25694 0.77967,-0.22588 1.22396,0.17619 0.63552,0.57515 1.22402,2.19389 1.00505,2.76453 -0.27615,0.71964 -0.64587,0.42105 -0.81896,-0.66141 z m -43.956221,-0.63758 c -0.11078,-0.17925 -0.0407,-0.37919 0.155862,-0.44471 0.196424,-0.0655 0.600129,-0.36204 0.897123,-0.65903 0.523909,-0.52391 0.535124,-1.52766 0.03173,-2.83949 -0.09024,-0.23515 0.01853,-0.39195 0.271885,-0.39195 0.506342,0 0.762565,0.70859 0.782658,2.16447 0.01792,1.29817 -0.12559,1.55915 -1.148085,2.0879 -0.596219,0.30832 -0.839249,0.32862 -0.991169,0.0828 z m -27.258432,-1.85225 c 0,-0.14295 1.08,-0.83782 2.4,-1.54413 3.91065,-2.09255 4.454746,-2.50937 5.059111,-3.87563 0.546189,-1.23475 0.551982,-1.65593 0.05675,-4.12603 -0.139061,-0.69361 -0.08606,-0.89143 0.238835,-0.89143 0.299367,0 0.505747,0.50642 0.729125,1.78915 0.60538,3.47635 -0.487709,5.06389 -5.142051,7.46799 -2.834454,1.46408 -3.341774,1.64323 -3.341774,1.18008 z m 116.994293,-1.33413 c -1.30886,-0.27752 -3.22818,-2.29321 -2.69308,-2.8283 0.17155,-0.17155 0.51801,0.0648 0.97703,0.66665 0.86625,1.13572 2.21276,1.77596 2.76725,1.31577 0.20704,-0.17183 0.51662,-1.02499 0.68796,-1.89592 0.32872,-1.67082 0.99469,-2.91121 1.42145,-2.64746 0.14762,0.0912 0.0958,0.46755 -0.12348,0.89602 -0.20789,0.4063 -0.46616,1.29415 -0.57392,1.97301 -0.32347,2.03768 -1.08145,2.8132 -2.46321,2.52023 z M 98.0954,144.90683 c -0.09647,-0.0965 -0.17874,-0.6794 -0.182821,-1.2954 -0.01095,-1.65248 -1.303652,-4.36698 -3.388033,-7.11441 -1.655068,-2.18155 -1.995033,-2.85917 -1.509634,-3.00902 0.08552,-0.0264 0.999145,1.06286 2.030287,2.42057 2.165867,2.85182 3.68938,6.04061 3.694309,7.73238 0.0032,1.10066 -0.270808,1.63918 -0.644108,1.26588 z m 46.92108,-2.20969 c -0.24298,-0.86743 -0.50626,-2.42658 -0.58506,-3.46478 -0.0836,-1.10164 -0.38764,-2.39247 -0.73017,-3.10003 -0.62499,-1.29106 -0.54901,-1.77352 0.18355,-1.16555 0.67998,0.56434 0.96243,1.49952 1.40282,4.64465 0.22179,1.584 0.46831,3.28114 0.54782,3.77143 0.24156,1.48945 -0.34789,0.9959 -0.81896,-0.68572 z m 25.72608,-1.98906 c -0.12332,-0.19952 0.33378,-0.87929 1.17041,-1.74059 0.75501,-0.77726 1.50133,-1.66601 1.65849,-1.975 0.54098,-1.06361 1.47203,-5.20049 1.46314,-6.50106 -0.009,-1.28677 0.2926,-1.71191 0.61605,-0.869 0.45534,1.18659 -0.40005,5.69513 -1.47434,7.77093 -0.70241,1.35722 -3.17086,3.7401 -3.43375,3.31472 z M 72.96,139.83811 c -0.528,-0.14982 -1.602705,-0.75583 -2.388232,-1.34669 -0.785527,-0.59085 -1.541842,-1.07428 -1.680701,-1.07428 -0.138858,0 -0.406124,-0.18514 -0.593925,-0.41143 -0.289388,-0.34869 -0.226838,-0.41143 0.410206,-0.41143 0.451075,0 1.142869,0.34349 1.729939,0.85894 0.538053,0.47242 1.480061,1.08685 2.093352,1.36541 3.006665,1.36562 4.471638,-0.1161 3.715573,-3.75804 -0.18343,-0.88358 -0.39393,-1.76396 -0.467778,-1.95641 -0.07453,-0.19422 0.06184,-0.3499 0.306506,-0.3499 0.242425,0 0.440875,0.0309 0.440998,0.0686 1.24e-4,0.0377 0.188271,0.96994 0.418105,2.07161 0.841127,4.03181 -0.655002,5.8883 -3.984043,4.94364 z m 115.37681,-0.1625 c -0.29697,-0.4805 -0.7866,-5.82329 -0.61668,-6.72906 0.17206,-0.91713 1.46912,-2.38655 2.10663,-2.38655 0.42646,0 0.28941,0.29781 -0.6067,1.31843 -0.85001,0.9681 -0.85806,1.00498 -0.69694,3.19049 0.0897,1.2161 0.24655,2.79736 0.34866,3.51394 0.12292,0.86266 0.0858,1.30285 -0.10974,1.30285 -0.16246,0 -0.35381,-0.0945 -0.42523,-0.2101 z m -48.53194,-0.42781 c -0.36255,-0.94477 -0.51052,-3.96612 -0.20354,-4.15585 0.17649,-0.10907 0.36058,-0.15509 0.4091,-0.10227 0.25579,0.27847 0.45076,4.62175 0.20746,4.62175 -0.15042,0 -0.33628,-0.16364 -0.41302,-0.36363 z m 14.23274,0.13171 c -0.10943,-0.17707 0.0559,-0.64598 0.36742,-1.04201 0.31152,-0.39603 0.5664,-0.93362 0.5664,-1.19464 0,-0.7491 -1.02548,-1.85858 -2.06545,-2.23464 -0.52343,-0.18927 -0.9517,-0.50448 -0.9517,-0.70046 0,-0.51359 0.53365,-0.43344 1.76758,0.26548 1.30934,0.74163 2.19765,2.13334 1.96171,3.0734 -0.23924,0.95322 -1.39453,2.23969 -1.64596,1.83287 z m 38.41207,-1.8784 c -0.27894,-0.27894 -0.2003,-3.68615 0.11096,-4.80688 0.7967,-2.86865 4.593,-4.67495 7.10031,-3.37837 1.07952,0.55824 2.21333,1.97914 2.21333,2.77376 0,0.91512 -0.41215,0.83334 -0.82515,-0.16375 -0.56145,-1.35544 -1.77283,-2.18873 -3.18184,-2.18873 -2.62954,0 -4.27914,1.46975 -4.79764,4.27455 -0.16391,0.88667 -0.2329,2.01336 -0.15332,2.50376 0.13876,0.85507 -0.0977,1.35458 -0.46665,0.98566 z m 21.37009,-0.0612 c -0.18699,-0.30255 0.23068,-0.61558 1.83132,-1.37254 1.38783,-0.65632 3.68443,-2.98397 3.93698,-3.9902 0.19023,-0.75792 2.40754,-2.47981 3.84753,-2.98787 0.59098,-0.20851 1.6283,-0.46505 2.30516,-0.57008 3.74586,-0.58129 8.10379,-1.5933 8.64951,-2.00863 0.3442,-0.26195 1.93925,-1.91888 3.54455,-3.68206 1.6053,-1.76319 3.4364,-3.50457 4.0691,-3.86973 1.91818,-1.1071 6.92705,-2.93153 8.24859,-3.00447 1.76821,-0.0976 1.58204,0.39414 -0.2982,0.78767 -1.87069,0.39153 -4.67568,1.43072 -6.92053,2.56392 -1.24957,0.63078 -2.28327,1.55512 -4.67516,4.18055 -1.68898,1.85388 -3.40264,3.58147 -3.80813,3.83908 -0.40549,0.2576 -2.4001,0.78346 -4.43245,1.16856 -6.05457,1.14726 -6.3921,1.23126 -7.53518,1.8753 -0.60343,0.33998 -1.52915,1.22477 -2.05715,1.96619 -1.72757,2.42588 -3.35554,3.94393 -4.99468,4.65745 -0.86136,0.37495 -1.63143,0.57604 -1.71126,0.44686 z m -108.59294,-0.21305 c -0.0965,-0.0965 -0.17811,-0.80283 -0.18143,-1.56969 -0.003,-0.79109 -0.24074,-1.91155 -0.54857,-2.58995 -0.60875,-1.34157 -0.66447,-1.68433 -0.27383,-1.68433 0.14779,0 0.53447,0.52094 0.85929,1.15764 0.92002,1.80339 1.03644,5.57823 0.14454,4.68633 z m 78.70289,-2.17236 c 0.13481,-1.18967 0.23416,-3.22698 0.22079,-4.52735 -0.0293,-2.85029 -0.66204,-4.24063 -2.57337,-5.65463 -2.02545,-1.49844 -2.51483,-1.97002 -2.33924,-2.25414 0.25094,-0.40602 3.73641,2.19776 4.61489,3.4475 1.07708,1.53226 1.34902,3.79968 0.93107,7.76331 -0.23374,2.21675 -0.44261,3.16947 -0.71475,3.26018 -0.32163,0.10721 -0.34442,-0.22545 -0.13939,-2.03487 z M 57.6,136.25601 c 0,-0.22392 0.462199,-0.53623 1.057562,-0.7146 0.581659,-0.17427 1.618885,-0.81095 2.304946,-1.41485 0.686061,-0.60389 1.444444,-1.09799 1.685295,-1.09799 0.624744,0 0.552891,0.17551 -0.453518,1.10777 C 60.37162,135.82473 57.6,137.10347 57.6,136.25601 Z m 103.64447,-0.61154 c -0.0905,-0.0905 0.0206,-0.68526 0.2469,-1.32166 0.36849,-1.03623 0.36658,-1.26333 -0.0183,-2.17412 -0.30127,-0.71297 -0.72239,-1.1393 -1.40857,-1.42601 -0.53835,-0.22494 -0.97882,-0.5387 -0.97882,-0.69726 0,-0.36194 0.10861,-0.35994 1.39577,0.0257 1.25941,0.37733 1.89566,1.49545 1.89566,3.33137 0,1.17089 -0.74199,2.65267 -1.13267,2.26198 z m 9.55053,-1.4888 c -0.3365,-1.21035 -0.79512,-1.99423 -1.82782,-3.12417 -1.41087,-1.54371 -1.58917,-1.84293 -1.0982,-1.84293 0.60802,0 2.7049,2.27833 3.22441,3.50344 0.81298,1.91714 1.01645,3.07942 0.53909,3.07942 -0.24004,0 -0.55975,-0.61683 -0.83748,-1.61576 z m -53.675,0.92144 c 0,-0.23103 0.18971,-0.49284 0.42157,-0.58181 0.66075,-0.25356 1.27047,-1.68985 1.17442,-2.7665 -0.0541,-0.60643 0.0432,-1.02456 0.25544,-1.09718 0.24925,-0.0853 0.34285,0.33244 0.34285,1.53014 0,1.47396 -0.0889,1.73635 -0.84395,2.49143 -0.93114,0.93114 -1.35033,1.06274 -1.35033,0.42392 z m 89.87428,-0.3114 c -0.46813,-0.46813 -0.0477,-0.64 1.56552,-0.64 2.33023,0 3.74767,-0.54463 6.09342,-2.34134 2.0858,-1.59759 2.30678,-1.70606 2.30678,-1.13226 0,0.61122 -4.02908,3.42705 -5.54985,3.87867 -1.43248,0.4254 -4.08432,0.56648 -4.41587,0.23493 z m -58.05714,-3.6501 c 0,-0.14698 0.3682,-0.45764 0.81822,-0.69035 0.92066,-0.4761 1.65035,-1.68387 1.65035,-2.73164 0,-0.43877 0.15329,-0.69934 0.41143,-0.69934 0.52989,0 0.53758,1.08714 0.0165,2.33424 -0.51878,1.2416 -2.89651,2.70862 -2.89651,1.78709 z m 58.22478,-0.91322 c -0.63694,-0.33132 -1.16151,-0.75668 -1.16571,-0.94525 -0.011,-0.49415 0.5465,-0.42103 1.57613,0.20674 1.28128,0.78119 1.73872,0.69985 3.91723,-0.69653 1.38292,-0.88644 2.05319,-1.51284 2.33151,-2.17896 0.72232,-1.72876 0.12408,-2.07351 -1.85317,-1.06793 -1.0148,0.5161 -3.61369,0.47762 -4.6901,-0.0694 -1.27757,-0.64929 -4.43636,-3.24368 -5.12243,-4.20717 -1.08708,-1.52667 -0.27283,-1.38648 1.30862,0.22532 1.8893,1.92555 4.23673,3.50937 5.54171,3.73901 0.65883,0.11594 1.60536,-0.0429 3.01715,-0.50628 1.45237,-0.47671 2.15793,-0.59199 2.4,-0.39212 0.50921,0.42046 0.41321,2.15433 -0.17245,3.11474 -0.61318,1.00553 -4.36329,3.41592 -5.28201,3.39501 -0.35662,-0.008 -1.16954,-0.28583 -1.80648,-0.61714 z m -18.00586,-3.6749 c -0.36028,-0.36028 -0.13139,-0.61401 1.28499,-1.42438 0.802,-0.45886 1.6806,-1.08006 1.95244,-1.38043 0.77252,-0.85363 0.84488,-2.65347 0.18234,-4.53603 -0.68265,-1.93973 -0.66607,-1.79237 -0.20167,-1.79237 0.47808,0 1.24612,2.001 1.43336,3.73438 0.19302,1.78681 -0.45232,2.99855 -2.21895,4.1665 -1.9213,1.2702 -2.23547,1.42937 -2.43251,1.23233 z m -1.2285,-3.40005 c -0.14229,-0.36238 -0.3642,-1.14321 -0.49313,-1.73518 -0.12894,-0.59197 -0.3734,-1.12172 -0.54325,-1.17723 -0.16985,-0.0555 -0.78157,0.39798 -1.35938,1.00774 -0.96534,1.01873 -1.76037,1.42187 -1.76037,0.89263 0,-0.4025 2.62162,-2.80112 3.06155,-2.80112 0.66916,0 1.09145,0.67959 1.49139,2.40008 0.38001,1.63476 0.0924,2.65899 -0.39681,1.41308 z m 22.73352,-0.22941 c -0.57585,-1.07598 -0.34221,-1.66412 0.88178,-2.2197 1.33784,-0.60727 3.33328,-0.73533 3.15568,-0.20252 -0.0621,0.18627 -0.45126,0.36468 -0.86483,0.39646 -1.43114,0.11001 -2.63371,0.65335 -2.63371,1.18996 0,0.28111 0.12544,0.58864 0.27876,0.68339 0.30941,0.19123 0.104,0.68295 -0.2853,0.68295 -0.13664,0 -0.37622,-0.23874 -0.53238,-0.53054 z m 11.9353,0.0412 c -0.26753,-0.26752 -0.16021,-0.60776 0.19219,-0.60933 0.84916,-0.004 2.45139,-0.6257 3.17017,-1.23051 0.55694,-0.46864 0.92892,-1.18593 1.27169,-2.45224 0.55128,-2.03659 2.13352,-4.09432 3.62855,-4.71898 1.32543,-0.5538 2.9266,-0.47899 3.50843,0.16393 0.47094,0.52039 0.4504,0.57908 -0.63406,1.81108 -0.94249,1.07073 -1.47765,2.13331 -2.37417,4.71396 -0.0655,0.18857 -0.25622,0.34286 -0.4238,0.34286 -0.71744,0 0.61258,-3.59826 1.9457,-5.26392 0.44569,-0.55687 0.81035,-1.08144 0.81035,-1.16571 0,-0.0843 -0.57306,-0.15323 -1.27347,-0.15323 -1.15376,0 -1.39579,0.12248 -2.57461,1.30286 -1.04709,1.04846 -1.41362,1.68114 -1.87718,3.24019 -0.74146,2.49375 -1.65789,3.36955 -4.09998,3.91825 -0.61553,0.1383 -1.18695,0.18366 -1.26981,0.10079 z m -3.37603,-0.60632 c -1.68722,-1.02871 -2.65884,-3.67518 -2.02102,-5.50482 0.36707,-1.05299 2.78618,-4.09423 3.25781,-4.09564 0.55732,-0.002 0.40615,0.34388 -0.77673,1.77532 -1.62206,1.96291 -1.98079,2.78103 -1.8251,4.1623 0.16533,1.46678 0.78246,2.4398 2.00488,3.16104 0.94895,0.5599 1.22802,1.04975 0.59695,1.04786 -0.18857,-5.6e-4 -0.74513,-0.24629 -1.23679,-0.54606 z m 12.27679,-0.28221 c 0,-0.48508 3.96091,-5.26114 5.93123,-7.15187 2.19858,-2.10977 2.65941,-2.37333 6.13734,-3.51004 2.84171,-0.92878 3.56674,-1.03229 3.56378,-0.50879 -0.001,0.19758 -0.83057,0.54274 -1.95759,0.8146 -4.47525,1.0795 -6.87329,2.82917 -11.10119,8.09968 -1.8889,2.35471 -2.57357,2.95501 -2.57357,2.25642 z M 182.4,114.97952 c 0,-0.48914 1.85718,-1.97598 2.94959,-2.3614 0.94856,-0.33467 1.16469,-0.34301 1.16469,-0.0449 0,0.20129 -0.37419,0.52098 -0.83154,0.71042 -0.45734,0.18944 -1.2766,0.69812 -1.82057,1.13042 -0.99639,0.79183 -1.46217,0.97197 -1.46217,0.5655 z m 15.00174,-2.69778 c -0.3776,-0.3776 0.17115,-0.64746 1.31659,-0.64746 2.38769,0 3.63886,-1.05906 3.17245,-2.68534 -0.1599,-0.55753 -0.15196,-0.93379 0.022,-1.04128 0.41748,-0.25802 0.56195,0.0229 0.7164,1.39319 0.11882,1.05423 0.0387,1.36926 -0.4918,1.93396 -0.34856,0.37103 -1.07491,0.79715 -1.61412,0.94693 -1.10863,0.30797 -2.85748,0.364 -3.12148,0.1 z m 26.14112,-1.46327 c 0,-0.50327 1.71458,-1.15359 4.76536,-1.80742 3.25434,-0.69746 9.02631,-2.7639 10.34712,-3.7044 1.06276,-0.75675 2.40531,-1.12598 2.96052,-0.8142 0.38761,0.21766 0.37456,0.26877 -0.10729,0.42017 -0.30171,0.0948 -1.536,0.65519 -2.74286,1.24529 -3.16597,1.54803 -6.99907,2.89724 -10.14857,3.57219 -1.50857,0.32329 -3.15907,0.76056 -3.66778,0.97171 -1.09173,0.45314 -1.4065,0.47925 -1.4065,0.11666 z m -10.19597,-1.31576 c -0.40321,-0.56249 -1.1236,-1.54728 -1.60087,-2.18842 -0.73974,-0.99374 -0.79345,-1.16406 -0.36404,-1.15445 0.45997,0.0103 2.89643,2.95447 3.28677,3.97168 0.31064,0.80951 -0.60206,0.37534 -1.32186,-0.62881 z m 41.19025,0.50861 c 0,-0.4923 2.32042,-2.19981 2.60426,-1.91638 0.18081,0.18055 -0.0967,0.58862 -0.82286,1.20988 -1.07791,0.92223 -1.7814,1.20124 -1.7814,0.7065 z m -3.84,-1.49774 c 0,-0.20781 0.19736,-0.54163 0.43858,-0.74183 0.24122,-0.20019 0.989,-1.0793 1.66175,-1.95358 0.67274,-0.87428 1.40109,-1.5896 1.61856,-1.5896 0.57523,0 0.50574,0.17974 -0.61839,1.59955 -2.163,2.73196 -3.1005,3.54396 -3.1005,2.68546 z m -4.38857,-2.90726 c 0,-0.40496 1.09087,-1.02099 2.43612,-1.37572 0.66101,-0.1743 1.81657,-0.73978 2.56792,-1.25661 1.31896,-0.90729 2.12739,-1.17996 2.12739,-0.71755 0,0.43994 -3.45711,2.49152 -4.73609,2.81057 -0.71914,0.1794 -1.37442,0.43442 -1.45619,0.56673 -0.20225,0.32724 -0.93915,0.30573 -0.93915,-0.0274 z"
       id="path1" />
  </g>
</svg>
