<?xml version="1.0" encoding="UTF-8" standalone="no"?>
<!-- Created with Inkscape (http://www.inkscape.org/) -->

<svg
   version="1.1"
   id="svg1"
   width="294.58286"
   height="294.58286"
   viewBox="0 0 294.58286 294.58286"
   sodipodi:docname="pony-tight-v.svg"
   inkscape:version="1.4 (86a8ad7, 2024-10-11)"
   xmlns:inkscape="http://www.inkscape.org/namespaces/inkscape"
   xmlns:sodipodi="http://sodipodi.sourceforge.net/DTD/sodipodi-0.dtd"
   xmlns:xlink="http://www.w3.org/1999/xlink"
   xmlns="http://www.w3.org/2000/svg"
   xmlns:svg="http://www.w3.org/2000/svg">
  <defs
     id="defs1">
    <linearGradient
       id="linearGradient1"
       inkscape:collect="always">
      <stop
         style="stop-color:#000000;stop-opacity:0;"
         offset="0.17248908"
         id="stop2" />
      <stop
         style="stop-color:#000000;stop-opacity:1;"
         offset="0.63755459"
         id="stop1" />
    </linearGradient>
    <linearGradient
       inkscape:collect="always"
       xlink:href="#linearGradient1"
       id="linearGradient2"
       x1="29.99212"
       y1="194.06686"
       x2="268.70321"
       y2="194.06686"
       gradientUnits="userSpaceOnUse" />
  </defs>
  <sodipodi:namedview
     id="namedview1"
     pagecolor="#ffffff"
     bordercolor="#000000"
     borderopacity="0.25"
     inkscape:showpageshadow="2"
     inkscape:pageopacity="0.0"
     inkscape:pagecheckerboard="0"
     inkscape:deskcolor="#d1d1d1"
     inkscape:zoom="2.766624"
     inkscape:cx="147.47215"
     inkscape:cy="147.29143"
     inkscape:window-width="1920"
     inkscape:window-height="1017"
     inkscape:window-x="-8"
     inkscape:window-y="-8"
     inkscape:window-maximized="1"
     inkscape:current-layer="g1" />
  <g
     inkscape:groupmode="layer"
     inkscape:label="Image"
     id="g1">
    <path
       style="fill:url(#linearGradient2)"
       d="m 253.85143,213.4998 c -3.4204,-0.34545 -8.67884,-1.55337 -10.07628,-2.31463 -0.26195,-0.1427 -0.61778,-0.25946 -0.79073,-0.25946 -0.17294,0 -1.28533,-0.79313 -2.47197,-1.76252 -1.18663,-0.96939 -2.86738,-2.09097 -3.73498,-2.49241 -1.77527,-0.82141 -1.71901,-0.7914 -5.25896,-2.80522 -2.4712,-1.40584 -2.60437,-1.44858 -3.04163,-0.97645 -0.2515,0.27156 -0.60234,1.00777 -0.77964,1.63602 -0.29418,1.04242 -0.41834,1.1585 -1.42018,1.32776 -0.86315,0.14583 -1.33544,0.46727 -2.20939,1.50373 -0.9258,1.09794 -1.31443,1.34867 -2.32546,1.50028 -1.62281,0.24336 -2.71854,1.20832 -3.10221,2.73197 -0.35411,1.40631 -0.94104,1.72703 -2.32478,1.27035 -1.09063,-0.35994 -2.11081,-1.39465 -2.87044,-2.91132 -0.30713,-0.61322 -0.92975,-1.51246 -1.38361,-1.99831 -0.69725,-0.74641 -0.94491,-0.85148 -1.59746,-0.67773 -1.35962,0.36202 -2.93239,0.19046 -4.20001,-0.45814 -1.88528,-0.96464 -4.19715,-1.42519 -5.56983,-1.10956 -0.63306,0.14556 -2.66697,0.40012 -4.51981,0.56568 -3.0198,0.26984 -3.60231,0.4119 -5.62286,1.37132 -2.12279,1.00797 -2.32088,1.05189 -3.40155,0.75419 -1.0744,-0.29596 -1.2846,-0.25176 -3.29968,0.69386 -1.88057,0.88249 -2.27039,0.97605 -3.08881,0.74133 -0.60792,-0.17435 -1.28381,-0.17513 -1.92592,-0.002 -0.8209,0.22105 -1.43045,0.12688 -3.58084,-0.55321 -2.31837,-0.73322 -2.74795,-0.79074 -4.07533,-0.54572 -2.64355,0.48798 -4.5073,-0.36113 -7.29336,-3.3228 -4.80882,-5.11192 -7.74039,-7.32162 -10.33796,-7.79235 -2.29183,-0.41533 -5.39826,1.47462 -6.71455,4.0851 -0.92009,1.82473 -2.16077,3.3901 -2.86377,3.61323 -0.36956,0.11729 -1.32678,-0.20838 -2.84784,-0.96891 l -2.29117,-1.14559 -1.22526,0.71805 c -1.5233,0.89272 -4.74036,1.5919 -6.22918,1.35383 -0.60845,-0.0973 -1.56554,-0.54646 -2.12685,-0.99814 -1.67902,-1.35109 -2.35174,-1.54031 -3.97717,-1.11868 -1.61726,0.41951 -1.84699,0.37084 -4.00365,-0.84818 -0.8705,-0.49203 -2.16373,-1.09257 -2.87385,-1.33453 -0.71012,-0.24197 -1.86734,-0.82882 -2.5716,-1.30412 -1.83287,-1.23698 -2.42427,-1.42013 -2.86447,-0.88707 -0.56906,0.68909 -2.95137,1.63001 -4.65907,1.84015 -1.71624,0.21119 -4.69586,-0.22118 -5.52462,-0.80167 -0.44545,-0.31201 -0.69602,-0.29457 -1.66107,0.11561 -1.918351,0.81536 -2.481493,0.86809 -3.534975,0.33099 l -0.981379,-0.50033 -1.168354,0.92455 c -0.642595,0.5085 -1.424982,0.98232 -1.738639,1.05294 -0.313656,0.0706 -1.125712,0.26094 -1.804569,0.42296 -3.098742,0.73954 -3.455172,0.76178 -6.034286,0.37657 -1.433143,-0.21405 -2.920827,-0.38991 -3.305965,-0.3908 -0.385138,-8.9e-4 -1.187424,-0.35633 -1.782857,-0.78988 -1.575904,-1.14742 -2.030096,-1.20874 -4.31342,-0.58232 -1.944028,0.53334 -2.125193,0.54031 -3.170634,0.122 -0.609838,-0.244 -1.303082,-0.74017 -1.540543,-1.10258 -0.570863,-0.87125 -2.303925,-1.73187 -3.919989,-1.94664 -0.852504,-0.11329 -1.606225,-0.43558 -2.177714,-0.93117 -0.683794,-0.59299 -1.270989,-0.80043 -2.698384,-0.95329 -1.062703,-0.11381 -2.335725,-0.46725 -3.049105,-0.84656 -0.673586,-0.35815 -1.355857,-0.65118 -1.516159,-0.65118 -0.160301,0 -1.12832,0.55635 -2.151153,1.23632 -2.904166,1.93069 -3.391182,2.07514 -5.36229,1.59043 -1.490337,-0.36648 -1.760175,-0.36437 -2.605715,0.0204 -0.518768,0.23606 -1.282157,0.70319 -1.696419,1.03807 -0.851621,0.68843 -3.157204,0.85357 -3.853155,0.27599 -0.48958,-0.40632 -3.742335,-0.78629 -8.746117,-1.02168 -2.957163,-0.13911 -3.785748,-0.26323 -3.909461,-0.58562 -0.08634,-0.225 -0.07896,-0.53535 0.01641,-0.68965 0.287589,-0.46533 0.852796,-11.27073 0.631055,-12.06427 -0.113296,-0.40545 -0.09779,-1.94831 0.03446,-3.42857 0.132247,-1.48027 0.244853,-3.44842 0.250235,-4.37369 0.01171,-2.01417 0.210281,-2.12898 2.804021,-1.62131 1.641785,0.32135 8.005048,2.63784 9.810241,3.57135 0.684835,0.35414 0.954302,0.37265 1.455142,0.1 0.852517,-0.46415 3.981416,-0.39263 5.14038,0.11751 0.528,0.2324 2.749715,0.6343 4.937143,0.89311 2.187429,0.25881 4.319288,0.64542 4.737465,0.85914 0.68483,0.34999 0.889082,0.32937 2.057143,-0.20771 1.456453,-0.66969 4.297617,-0.80475 5.656824,-0.26891 0.627748,0.24748 1.182156,0.21886 2.644161,-0.13648 1.622275,-0.39429 2.148863,-0.40574 4.279997,-0.0931 3.466658,0.50864 3.800063,0.47017 6.554231,-0.75623 3.820665,-1.70131 5.258752,-1.94435 7.601608,-1.28469 0.264,0.0743 0.48,0.29686 0.48,0.49451 0,0.795 0.669856,0.96119 2.324222,0.57662 1.911089,-0.44425 2.522716,-0.26831 3.493961,1.00505 0.540521,0.70866 1.100881,1.04404 2.316001,1.38613 1.795632,0.50552 2.428113,1.02005 4.600009,3.74212 1.59272,1.99618 1.53207,1.96087 5.89049,3.42944 1.87023,0.63018 2.20286,0.66252 4.21676,0.41 1.83105,-0.2296 2.31189,-0.39968 2.95883,-1.04662 0.84122,-0.84122 2.02276,-1.19389 3.20661,-0.95712 0.52802,0.1056 1.23829,-0.1029 2.35928,-0.69257 0.8821,-0.46402 1.89506,-0.84366 2.251,-0.84366 0.6904,0 1.4704,-0.69952 2.33554,-2.09454 0.66967,-1.07982 1.33589,-1.2575 2.92351,-0.77969 l 1.25442,0.37752 1.23044,-1.08307 c 0.67675,-0.5957 1.42105,-1.08308 1.654,-1.08308 0.23296,0 1.29169,-0.44926 2.35275,-0.99836 1.57771,-0.81647 2.25558,-1.0075 3.72068,-1.04857 0.98532,-0.0276 2.90615,-0.25912 4.26851,-0.51444 2.25695,-0.42297 2.68715,-0.42757 4.8424,-0.0517 1.30097,0.22687 2.69778,0.53885 3.10401,0.6933 0.50704,0.19278 1.07421,0.19046 1.80902,-0.007 1.2759,-0.34356 2.9407,0.0174 3.63902,0.78905 0.25379,0.28043 0.64699,1.42267 0.87379,2.5383 0.45532,2.23973 0.65152,2.48408 3.28061,4.08556 1.48302,0.90338 2.36778,1.9337 3.41521,3.97715 0.54037,1.0542 1.25127,1.04332 5.46375,-0.0836 3.08667,-0.82578 4.07158,-0.84061 4.54878,-0.0685 0.0996,0.16124 0.55134,0.48458 1.00376,0.71853 0.67795,0.35058 1.07551,0.37287 2.2611,0.12674 1.05098,-0.21819 1.82882,-0.21494 2.88726,0.0121 l 1.44874,0.3107 1.82706,-1.2608 c 1.00487,-0.69344 2.38248,-1.77103 3.06133,-2.39466 0.67886,-0.62362 1.54286,-1.32803 1.92,-1.56535 0.37715,-0.23731 1.15205,-0.79 1.72202,-1.22818 1.9546,-1.50267 4.90982,-1.90384 5.2223,-0.70893 0.2057,0.78663 0.54099,0.64648 2.14451,-0.89638 1.21258,-1.16671 1.64925,-1.41873 2.48428,-1.43377 1.05237,-0.0189 2.41546,0.91942 2.41546,1.66282 0,0.19999 0.0698,0.36362 0.15518,0.36362 0.33447,0 1.38713,-0.64697 2.03911,-1.25325 1.68867,-1.57031 4.1201,-1.83036 4.72386,-0.50525 l 0.30016,0.65877 1.44968,-1.37105 c 1.51148,-1.42949 2.576,-2.00649 3.23517,-1.75354 0.47601,0.18266 0.95313,2.84162 0.78641,4.38258 -0.13824,1.27768 0.15985,1.56809 2.53085,2.46567 0.75295,0.28504 2.0194,1.10726 2.81434,1.82716 0.79493,0.7199 1.54437,1.30891 1.6654,1.30891 0.12104,0 0.56526,-0.3603 0.98716,-0.80066 0.92226,-0.96264 1.78073,-1.21893 2.79332,-0.83395 0.69557,0.26446 0.86442,0.17626 2.21377,-1.15633 0.80343,-0.79345 1.52776,-1.65368 1.60963,-1.91164 0.28761,-0.90616 2.0042,-1.60122 4.98954,-2.02029 2.21653,-0.31114 3.18905,-0.58564 4.11778,-1.16224 2.73672,-1.69908 3.59395,-2.09063 5.64939,-2.5804 1.72184,-0.41027 2.36923,-0.45436 3.23773,-0.2205 1.19244,0.32109 2.53442,0.19299 5.85581,-0.55896 1.20686,-0.27323 3.41044,-0.57869 4.89684,-0.67881 1.48641,-0.10012 3.64641,-0.36399 4.8,-0.58638 1.36313,-0.26277 2.70453,-0.34035 3.83147,-0.22159 1.52699,0.16093 1.76577,0.26624 1.9999,0.88204 0.14623,0.38461 0.19045,1.04268 0.0983,1.46237 -0.0922,0.41969 -0.21699,1.41653 -0.27734,2.2152 -0.0604,0.79868 -0.18364,2.131 -0.27397,2.96071 -0.0903,0.82972 -0.21241,2.00229 -0.27131,2.60572 -0.18213,1.86585 -0.43143,10.06568 -0.35441,11.65714 0.24118,4.98327 -0.0557,7.99488 -0.96356,9.7754 -0.77697,1.52376 -1.20265,1.98041 -2.9259,3.13873 -0.67886,0.45631 -1.66629,1.12536 -2.19429,1.48677 -0.81314,0.5566 -1.37959,0.67579 -3.70285,0.77913 -1.50857,0.0671 -3.23657,0.0721 -3.84,0.0112 z"
       id="path1" />
  </g>
</svg>
