<?xml version="1.0" encoding="UTF-8" standalone="no"?>
<!-- Created with Inkscape (http://www.inkscape.org/) -->

<svg
   version="1.1"
   id="svg1"
   width="294.58286"
   height="294.58286"
   viewBox="0 0 294.58286 294.58286"
   sodipodi:docname="pony-standard-a-outline.svg"
   inkscape:version="1.4 (86a8ad7, 2024-10-11)"
   xmlns:inkscape="http://www.inkscape.org/namespaces/inkscape"
   xmlns:sodipodi="http://sodipodi.sourceforge.net/DTD/sodipodi-0.dtd"
   xmlns="http://www.w3.org/2000/svg"
   xmlns:svg="http://www.w3.org/2000/svg">
  <defs
     id="defs1" />
  <sodipodi:namedview
     id="namedview1"
     pagecolor="#ffffff"
     bordercolor="#000000"
     borderopacity="0.25"
     inkscape:showpageshadow="2"
     inkscape:pageopacity="0.0"
     inkscape:pagecheckerboard="0"
     inkscape:deskcolor="#d1d1d1"
     inkscape:zoom="2.766624"
     inkscape:cx="147.47215"
     inkscape:cy="147.29143"
     inkscape:window-width="1920"
     inkscape:window-height="1017"
     inkscape:window-x="-8"
     inkscape:window-y="-8"
     inkscape:window-maximized="1"
     inkscape:current-layer="g1" />
  <g
     inkscape:groupmode="layer"
     inkscape:label="Image"
     id="g1">
    <path
       style="fill:#000000"
       d="m 56.914285,160.54897 c -0.452571,-0.23912 -1.010999,-0.59839 -1.240952,-0.79836 -0.229952,-0.19997 -1.093952,-0.48007 -1.92,-0.62245 -0.826047,-0.14237 -2.208535,-0.51874 -3.072195,-0.83637 -1.668514,-0.61363 -2.952723,-0.73802 -3.380567,-0.32746 -0.514065,0.49331 -2.725014,0.72311 -4.563171,0.47429 -1.928922,-0.26111 -2.435077,-0.11933 -5.82036,1.63028 -1.159257,0.59914 -4.71131,0.79956 -6.059897,0.34193 -1.235505,-0.41926 -1.1594,0.042 -0.807027,-4.89083 0.147573,-2.06585 0.0826,-2.58138 -0.570389,-4.52572 -0.571092,-1.70047 -0.789563,-3.046 -0.970792,-5.97895 -0.137721,-2.22883 -0.131649,-4.05351 0.01477,-4.43862 0.149226,-0.39249 0.148033,-1.0047 -0.003,-1.53126 -0.298017,-1.03913 0.396734,-4.03158 1.062603,-4.57688 0.901005,-0.73786 4.241847,-0.0261 6.118399,1.30347 3.342564,2.3683 3.149945,2.28326 5.033726,2.22228 l 1.767349,-0.0572 0.932862,1.4583 c 0.867909,1.35676 1.068276,1.50191 2.877738,2.08469 1.069682,0.34451 2.017478,0.74386 2.106213,0.88743 0.221527,0.35844 4.028895,0.33004 4.979676,-0.0372 0.424677,-0.164 1.574427,-0.3272 2.554998,-0.36266 1.438801,-0.052 1.999235,0.0585 2.904098,0.57248 1.321162,0.75052 1.75853,0.77505 3.404474,0.19096 0.835669,-0.29656 2.075808,-0.42721 3.84,-0.40455 2.740754,0.0352 5.425943,-0.31922 7.277741,-0.96058 0.608472,-0.21074 1.349044,-0.38206 1.645715,-0.38072 0.29667,0.001 2.07629,-0.7647 3.954709,-1.70234 3.212896,-1.60375 3.538015,-1.70754 5.485715,-1.75131 1.138723,-0.0256 2.587167,-0.13874 3.218765,-0.25145 1.115493,-0.19905 2.436577,0.10027 4.885926,1.10702 0.452571,0.18602 1.297403,0.50487 1.877404,0.70856 0.58,0.20369 1.505715,0.75119 2.057143,1.21666 2.193919,1.85191 4.348695,2.42748 6.196905,1.65524 1.47444,-0.61605 3.7364,-1.00305 6.01804,-1.02962 1.63989,-0.0191 2.53414,-0.19563 3.98797,-0.78727 1.03074,-0.41946 2.72262,-0.84667 3.75973,-0.94935 2.79495,-0.27672 3.84065,-0.6128 5.24715,-1.6864 1.30566,-0.99664 1.56458,-1.03138 3.70196,-0.49681 0.67029,0.16765 0.79812,0.0853 1.1408,-0.73471 0.69016,-1.65157 1.48295,-2.43209 2.47029,-2.43209 0.54925,0 1.09025,0.21289 1.39404,0.54857 0.65203,0.72049 1.40293,0.68098 2.74285,-0.1443 1.4051,-0.86542 2.26485,-0.8553 3.29143,0.0387 1.53466,1.33651 1.82749,1.445 3.29143,1.21941 0.75429,-0.11623 3.22286,-0.15437 5.48571,-0.0848 2.26286,0.0696 5.50329,0.10667 7.20095,0.0824 2.81167,-0.0403 3.2329,0.0214 4.72824,0.69249 1.99277,0.8943 3.46619,0.81978 5.04623,-0.25523 1.34865,-0.91757 1.58528,-0.90916 2.73125,0.097 0.51545,0.45257 1.02546,0.82286 1.13336,0.82286 0.1079,0 0.75164,-0.61781 1.43055,-1.37292 1.48786,-1.65486 2.25429,-1.91844 3.26551,-1.12301 0.94406,0.7426 1.08664,0.73168 3.16866,-0.24262 1.52154,-0.71201 1.87897,-0.78271 2.74636,-0.54321 0.54845,0.15143 1.06929,0.46326 1.15742,0.69294 0.56057,1.46082 5.68616,1.99346 8.98989,0.9342 0.9563,-0.30661 2.72616,-0.66819 3.93301,-0.8035 1.60864,-0.18037 2.77994,-0.5217 4.38857,-1.2789 1.39865,-0.65836 2.64184,-1.04802 3.42858,-1.07464 0.67885,-0.023 1.4402,-0.0606 1.69188,-0.0836 0.25169,-0.023 1.11569,-0.60867 1.92,-1.30144 l 1.4624,-1.25957 1.64572,0.18661 c 0.90514,0.10263 2.41714,0.29916 3.36,0.43672 0.94285,0.13755 2.49922,0.34402 3.45859,0.45881 0.95937,0.11479 1.93891,0.37022 2.17675,0.56761 0.53747,0.44606 1.23985,0.11535 2.56104,-1.20585 0.57497,-0.57497 1.29963,-0.97978 1.94814,-1.08828 3.08247,-0.51571 3.8877,-0.91869 5.91678,-2.96105 1.08514,-1.09225 2.10589,-2.22847 2.26833,-2.52495 0.16244,-0.29647 0.99996,-0.91829 1.86117,-1.38181 0.8612,-0.46351 2.14772,-1.40582 2.85894,-2.094 2.20389,-2.13254 2.9867,-2.31018 4.58454,-1.04038 1.41003,1.12056 2.92626,1.13372 4.25751,0.037 1.36372,-1.12351 3.01966,-1.95697 3.88814,-1.95697 0.83148,0 3.5798,-0.95912 4.54636,-1.5866 0.47287,-0.30699 1.10215,-0.36488 2.60571,-0.23974 4.88853,0.40688 5.60655,0.69774 7.79282,3.15678 2.14689,2.41475 2.68594,3.54415 3.23778,6.78368 0.25443,1.49361 0.63051,3.11753 0.83573,3.60871 0.20523,0.49117 0.52102,1.91161 0.70176,3.15654 0.23016,1.58529 0.55791,2.63331 1.09386,3.49778 1.58967,2.56405 1.67581,4.17444 0.334,6.24383 -0.62425,0.96272 -1.04487,1.23275 -3.21171,2.06184 -3.86147,1.47749 -8.36891,3.56475 -10.08118,4.66829 -2.7404,1.76617 -3.30342,1.76188 -8.59506,-0.0654 -3.17947,-1.09793 -5.09702,-1.30063 -6.72,-0.71036 -1.89884,0.6906 -3.0992,0.77157 -4.64273,0.3132 -1.71362,-0.50889 -3.07905,-0.30695 -7.32175,1.08285 -2.02517,0.6634 -3.38244,0.9429 -4.57878,0.9429 -2.23332,0 -3.1845,0.29812 -4.73952,1.48546 -1.14061,0.87093 -1.47187,0.98311 -2.90293,0.98311 -1.19463,0 -1.98079,0.18517 -3.01826,0.71089 -1.49199,0.75605 -1.98169,0.7554 -4.018,-0.005 -1.01019,-0.37739 -1.42537,-0.3946 -2.77829,-0.11516 -1.44761,0.299 -1.71475,0.27513 -2.97142,-0.26548 -1.23268,-0.53028 -1.53785,-0.5607 -2.84457,-0.28354 -0.80506,0.17076 -2.97052,0.28685 -4.81211,0.25798 -4.49016,-0.0704 -5.24049,0.15306 -6.1145,1.82079 l -0.68572,1.30843 -2.14559,0.0386 c -1.96261,0.0353 -2.23623,0.11148 -3.20836,0.89271 -1.48938,1.1969 -2.01068,1.33721 -4.67516,1.25837 -2.74181,-0.0811 -3.91914,-0.56974 -5.60517,-2.32623 -1.36256,-1.41949 -2.29408,-1.92063 -3.57013,-1.92063 -0.54541,0 -1.22644,-0.12566 -1.51341,-0.27924 -0.28696,-0.15358 -2.46971,-0.32894 -4.85054,-0.38968 -2.38083,-0.0608 -5.13106,-0.24105 -6.11164,-0.40066 -0.98057,-0.1596 -2.16905,-0.22017 -2.64107,-0.13458 -0.47202,0.0856 -1.96499,0.021 -3.31773,-0.14344 -2.70089,-0.3284 -3.68036,-0.15087 -5.14977,0.9334 -1.31717,0.97193 -2.51893,1.51134 -3.36714,1.51134 -0.86366,0 -1.64916,0.70373 -2.36361,2.11759 -0.83388,1.65019 -2.11865,1.88221 -3.33793,0.6028 -1.45762,-1.52949 -3.83164,-2.06911 -5.33132,-1.21182 -0.97086,0.555 -1.5011,0.50709 -3.29421,-0.29761 -1.49975,-0.67305 -1.62263,-0.68697 -2.42068,-0.27428 -1.05454,0.54532 -2.30799,0.5552 -3.33086,0.0263 -1.14222,-0.59066 -3.79522,-0.63529 -4.80568,-0.0808 -1.90459,1.04506 -2.86574,1.37152 -5.07428,1.72354 -3.83125,0.61065 -6.36927,0.7607 -7.23501,0.42775 -0.71747,-0.27593 -0.92232,-0.20312 -2.251089,0.80011 -1.675169,1.26477 -2.290567,1.3504 -3.496271,0.48652 -0.822707,-0.58946 -1.138839,-0.77892 -2.857631,-1.71259 -0.452114,-0.2456 -1.481954,-0.41042 -2.570703,-0.41143 -2.083249,-0.002 -4.995449,-0.8616 -7.434205,-2.19453 l -1.570623,-0.85845 -1.720806,0.96112 c -1.42832,0.79775 -1.909194,0.93568 -2.82917,0.8115 -0.947656,-0.12791 -1.540757,0.0622 -4.090446,1.3108 l -2.982081,1.4604 -3.828118,0.0841 -3.828117,0.084 -1.40244,1.22682 c -1.172122,1.02535 -1.583393,1.22502 -2.504294,1.21584 -0.606019,-0.006 -1.472139,-0.20663 -1.924711,-0.44576 z m 2.873517,-1.1855 c 0.278314,-0.14895 0.743805,-0.67352 1.034424,-1.16572 0.447144,-0.75728 0.522146,-1.37995 0.487732,-4.04918 -0.02237,-1.73486 -0.140083,-3.432 -0.261589,-3.77143 -0.141667,-0.39574 -0.114509,-0.61714 0.0757,-0.61714 0.629388,0 0.969902,1.35168 1.086239,4.31186 l 0.120952,3.07758 4.016098,-0.0604 c 3.988837,-0.06 4.028635,-0.0669 5.86294,-1.00803 1.015762,-0.52117 1.84684,-1.04845 1.84684,-1.17173 0,-0.12329 -0.349912,-0.99587 -0.777584,-1.93908 -1.063746,-2.34604 -1.205628,-3.05394 -0.865363,-4.31759 0.420705,-1.56238 0.942193,-1.36708 1.309124,0.49028 0.171366,0.86742 0.398135,1.87567 0.503931,2.24055 0.154697,0.53353 0.107731,0.63093 -0.239899,0.49753 -0.349095,-0.13396 -0.309359,0.10779 0.206538,1.25659 0.393872,0.87708 0.779319,1.38043 1.005309,1.31281 0.201584,-0.0603 1.065816,-0.13505 1.920516,-0.16608 1.109749,-0.0403 1.906305,-0.2629 2.786372,-0.77866 l 1.232372,-0.72221 0.103028,-2.9517 c 0.05667,-1.62343 0.0841,-2.98696 0.06097,-3.03007 -0.02314,-0.0431 -0.52108,0.72617 -1.106543,1.7095 -1.070187,1.79745 -1.475909,2.17098 -1.475909,1.35879 0,-0.46563 1.861235,-3.67375 2.328942,-4.01428 0.872585,-0.63532 0.990341,-0.22698 0.945167,3.2775 l -0.04495,3.48742 0.691442,0.18492 c 0.380293,0.10171 1.042305,0.37303 1.471137,0.60295 3.002578,1.60979 4.628149,2.10771 7.499695,2.29719 2.374426,0.15668 3.890825,0.74148 5.393808,2.08014 0.911522,0.81186 1.580542,0.41435 2.250914,-1.33744 0.321117,-0.83914 0.585739,-1.85414 0.588049,-2.25558 0.005,-0.87144 0.426081,-1.6253 0.735171,-1.31622 0.26129,0.2613 0.27889,0.36544 0.32349,1.91436 0.0325,1.12894 0.0878,1.20675 1.06285,1.49631 1.11048,0.32977 5.30411,0.18515 6.92572,-0.23883 0.528,-0.13805 1.26857,-0.25351 1.64571,-0.25658 0.37714,-0.003 0.94669,-0.15804 1.26567,-0.34439 2.64605,-1.54585 2.97191,-1.65264 4.87348,-1.59712 1.04025,0.0304 2.47962,0.27875 3.1986,0.55193 1.40583,0.53418 2.26398,0.3687 1.68787,-0.32547 -0.62338,-0.75112 -0.99067,-4.37904 -0.67274,-6.64481 0.30905,-2.2024 0.4176,-2.49134 0.83828,-2.23134 0.15828,0.0978 0.1539,0.7112 -0.0115,1.60461 -0.14723,0.79543 -0.20621,2.46544 -0.13107,3.71112 0.15774,2.61497 0.70168,3.77948 1.64961,3.53159 0.33422,-0.0874 1.25664,0.14979 2.16124,0.55576 0.86799,0.38953 1.76769,0.6355 1.99934,0.54661 0.88302,-0.33884 0.33116,-6.08813 -0.8118,-8.45737 -0.81187,-1.68292 -0.79765,-1.59575 -0.26042,-1.59575 0.98886,0 2.31625,4.7674 2.31625,8.31897 l 0,1.14784 1.23879,-0.0985 c 1.52893,-0.1216 3.25299,0.52533 4.4414,1.66657 1.35016,1.29658 1.72242,0.79099 1.73753,-2.35987 0.0138,-2.87873 0.64109,-5.18694 1.45079,-5.33847 0.45653,-0.0854 0.48521,0.0467 0.31169,1.43553 -0.10512,0.84129 -0.10978,1.96317 -0.0104,2.49307 0.16604,0.88507 0.2593,0.96345 1.14634,0.96345 1.14038,0 1.82349,-0.32438 3.12383,-1.48341 0.901,-0.80308 0.95565,-0.94814 0.8892,-2.36041 -0.15267,-3.24464 -0.61341,-6.04937 -1.17439,-7.14897 -0.38907,-0.76265 -0.49092,-1.23224 -0.30712,-1.41604 0.1838,-0.1838 0.50795,0.18472 0.97747,1.11127 0.78524,1.5496 1.42466,5.81169 1.18753,7.91552 -0.13147,1.16636 -0.10645,1.22434 0.44688,1.03574 0.67076,-0.22863 0.88918,-0.22942 6.01231,-0.022 2.07926,0.0842 4.48611,0.27005 5.34858,0.413 0.86246,0.14294 3.17458,0.27137 5.13805,0.28541 1.96347,0.014 3.99922,0.14863 4.5239,0.29911 1.29222,0.3706 1.25738,0.38243 1.64749,-0.55939 0.23146,-0.55878 0.29889,-1.64223 0.20486,-3.29142 -0.10532,-1.84722 -0.0557,-2.45846 0.19954,-2.45846 0.61307,0 0.91711,4.00669 0.43231,5.6971 -0.24531,0.85534 -0.21373,0.91124 0.74006,1.30976 0.54797,0.22896 1.74759,1.1377 2.66583,2.01943 1.45617,1.39829 1.84354,1.62452 3.03136,1.77035 2.33565,0.28676 4.04011,0.0661 5.00614,-0.64814 0.95412,-0.70541 1.0455,-1.09312 0.57543,-2.44157 -0.44922,-1.28862 -0.0901,-1.35637 0.93064,-0.17556 0.72915,0.8435 1.15657,1.07953 2.26286,1.24959 0.76394,0.11743 1.57508,0.0981 1.84393,-0.0439 0.6516,-0.34417 0.62036,-1.76292 -0.0686,-3.11423 -0.65033,-1.27559 -0.6757,-1.50857 -0.16431,-1.50857 0.21134,0 0.60769,0.5402 0.88077,1.20044 0.38309,0.92623 0.59293,1.14958 0.9186,0.97774 1.14493,-0.60409 2.53984,-0.7869 5.85428,-0.76726 1.99058,0.0118 4.44302,-0.0677 5.44987,-0.17679 1.43395,-0.15529 2.09914,-0.0957 3.06978,0.27499 1.05426,0.40263 1.43983,0.4251 2.58413,0.15058 1.18235,-0.28364 1.55443,-0.2521 3.07704,0.26083 l 1.73206,0.58349 1.56748,-0.70344 c 1.12322,-0.50407 2.03638,-0.70344 3.22192,-0.70344 1.65231,0 1.65595,-0.002 2.81811,-1.38987 0.64002,-0.76443 1.24019,-1.26607 1.33371,-1.11475 0.34781,0.56277 5.73794,-0.10855 8.52514,-1.06178 1.78118,-0.60917 3.32175,-0.93452 4.86857,-1.0282 l 2.26285,-0.13705 v -0.80867 c 0,-0.44477 -0.31308,-1.74134 -0.69575,-2.88128 -0.38266,-1.13993 -0.63773,-2.13063 -0.56682,-2.20154 0.52326,-0.52326 1.6827,2.3229 1.96586,4.82571 0.22229,1.96481 0.23366,1.96893 3.03854,1.10259 2.47813,-0.76541 3.8749,-0.60318 8.73608,1.01466 l 3.8379,1.27728 1.23639,-0.62779 c 0.68,-0.34528 1.80473,-0.97856 2.49939,-1.40729 0.69466,-0.42872 2.05237,-1.09997 3.01714,-1.49166 0.96477,-0.39169 2.61813,-1.11435 3.67413,-1.60591 1.056,-0.49156 2.58763,-1.1263 3.40362,-1.41053 1.26592,-0.44095 1.55682,-0.67776 1.98254,-1.61392 0.27442,-0.60343 0.50165,-1.38098 0.50496,-1.7279 0.008,-0.87972 -0.72904,-2.27318 -1.58252,-2.99032 -0.66118,-0.55555 -0.72359,-0.7917 -0.77905,-2.94806 -0.0379,-1.4726 -0.22082,-2.66592 -0.49206,-3.20964 -0.23748,-0.47602 -0.43177,-1.40148 -0.43177,-2.05656 0,-2.39589 -1.48984,-5.87344 -3.54778,-8.28114 -1.39626,-1.63356 -2.37936,-2.24959 -3.83551,-2.40338 -4.42655,-0.46753 -4.46173,-0.46526 -6.37754,0.41124 -1.00616,0.46032 -2.48731,0.94145 -3.29143,1.06917 -1.05129,0.16697 -1.98704,0.59282 -3.3308,1.51583 -1.6387,1.12559 -2.04484,1.28362 -3.29897,1.28362 -0.82819,0 -1.67777,-0.17341 -2.01835,-0.41196 -0.55784,-0.39073 -0.60213,-0.36599 -0.8593,0.48 -0.14913,0.49058 -0.33895,2.16021 -0.42183,3.71029 -0.1225,2.29131 -0.0536,3.13759 0.3683,4.52571 0.28543,0.93906 0.71527,2.86543 0.95519,4.28082 0.23992,1.41539 0.51955,2.70828 0.62141,2.87309 0.285,0.46115 1.13632,-2.68657 1.49159,-5.51509 0.22706,-1.80782 0.42649,-2.53715 0.69377,-2.53715 0.52153,0 0.21528,2.94678 -0.64139,6.17143 -1.19491,4.49787 -1.29579,5.30778 -0.93072,7.47216 0.40058,2.37489 0.40037,2.36407 0.0479,2.48158 -0.4153,0.13843 -0.86733,-1.85094 -0.90264,-3.9725 -0.0171,-1.02682 -0.24933,-2.79267 -0.51606,-3.9241 -0.26674,-1.13142 -0.62196,-2.87986 -0.78938,-3.88541 -0.16742,-1.00554 -0.48775,-2.34792 -0.71184,-2.98305 -0.56575,-1.60352 -0.56308,-7.58806 0.004,-8.94527 0.5363,-1.28355 0.51982,-1.46627 -0.13221,-1.46627 -0.29965,0 -1.15623,0.64631 -1.90853,1.44002 -0.75069,0.79202 -1.83291,1.6696 -2.40493,1.95019 -0.57203,0.2806 -1.21694,0.59741 -1.43315,0.70403 -0.2162,0.10662 -0.52477,0.4229 -0.68571,0.70285 -0.16094,0.27994 -1.19167,1.41959 -2.2905,2.53255 -2.15618,2.18388 -3.45758,2.90555 -5.82743,3.23149 -1.18256,0.16264 -1.66014,0.38841 -2.31779,1.09571 -1.46456,1.57514 -3.257,2.19531 -4.05077,1.40154 -0.38904,-0.38904 -1.8028,-0.62317 -5.34898,-0.88585 -1.799,-0.13325 -1.98795,-0.0995 -1.98203,0.35438 0.0141,1.08443 0.52789,2.66624 0.94105,2.89745 0.49145,0.27503 0.3187,0.7585 -0.27102,0.7585 -0.61157,0 -1.23493,-1.50876 -1.30144,-3.14991 -0.0366,-0.9027 -0.19854,-1.55548 -0.40609,-1.63672 -0.54488,-0.21326 -1.61782,0.30251 -2.59568,1.24778 -1.18658,1.14704 -2.52298,1.69735 -3.56574,1.46832 -0.45483,-0.0999 -1.09005,-0.0598 -1.41158,0.0891 -3.5307,1.63506 -4.73254,2.03397 -6.81162,2.26092 -1.25172,0.13664 -3.07814,0.49899 -4.05871,0.80523 -1.98855,0.62105 -5.33178,0.74637 -7.21568,0.27049 -0.63252,-0.15977 -1.62652,-0.7152 -2.20889,-1.23428 -0.58237,-0.51908 -1.17218,-0.94379 -1.31068,-0.94379 -0.1385,0 -0.98535,0.37029 -1.88189,0.82286 -0.89654,0.45257 -1.89366,0.82286 -2.21581,0.82286 -0.44616,0 -0.54122,0.11438 -0.39893,0.48 0.30154,0.77478 0.30018,0.95371 -0.008,1.06856 -0.16027,0.0597 -0.56867,-0.44664 -0.90757,-1.12522 -0.3389,-0.67857 -0.70285,-1.28734 -0.80878,-1.35281 -0.28149,-0.17397 -0.89775,0.36418 -1.92812,1.68375 -0.75218,0.9633 -1.07174,1.16572 -1.84033,1.16572 -0.89803,0 -0.92479,0.0307 -0.77631,0.89143 0.0846,0.49028 0.26663,1.24927 0.40457,1.68664 0.13793,0.43737 0.25079,1.0501 0.25079,1.36163 0,1.15258 -0.81792,-0.2074 -1.13975,-1.89508 -0.56397,-2.95755 -0.79688,-3.69034 -1.17291,-3.69034 -0.20433,0 -0.43685,0.17028 -0.51671,0.3784 -0.18887,0.49217 -2.47967,1.26807 -3.73378,1.26464 -0.53884,-0.001 -1.64034,-0.31022 -2.44777,-0.6861 -1.32161,-0.61524 -1.8415,-0.68708 -5.21143,-0.72013 -6.45527,-0.0633 -9.9747,-0.0441 -12.31394,0.0671 l -2.26201,0.10754 -8.5e-4,0.87805 c -4.7e-4,0.48292 0.18429,1.58886 0.41057,2.45763 0.49259,1.89115 0.52168,2.64393 0.0967,2.50227 -0.3399,-0.1133 -2.15383,-6.23363 -2.15383,-7.2672 0,-0.81617 -0.52078,-0.80207 -2.13609,0.0578 -0.70846,0.37715 -1.45687,0.68572 -1.66313,0.68572 -0.29311,0 -0.35026,0.43433 -0.26164,1.98857 0.0916,1.60668 0.30807,2.37624 1.12712,4.00723 1.16305,2.31598 1.14011,2.23277 0.6156,2.23277 -0.22659,0 -0.90282,-1.01847 -1.5694,-2.36368 -1.03099,-2.08063 -1.17218,-2.58958 -1.179,-4.25001 -0.005,-1.27326 -0.11412,-1.88679 -0.33505,-1.88775 -0.18001,-7.8e-4 -0.50025,-0.24834 -0.71164,-0.55014 -0.3648,-0.52082 -0.40603,-0.52431 -0.81109,-0.0686 -0.23472,0.26408 -0.61375,0.93307 -0.84229,1.48664 -0.65488,1.58629 -1.31924,1.79269 -3.7921,1.17815 -0.57977,-0.14408 -0.93575,0.008 -1.78285,0.76224 -1.08673,0.96746 -2.32992,1.33313 -5.85844,1.7232 -0.82971,0.0917 -2.43428,0.53857 -3.56571,0.99298 -1.47094,0.59077 -2.33071,0.78461 -3.01715,0.68022 -1.33193,-0.20255 -4.25711,0.20548 -6.54139,0.91246 -1.66436,0.51511 -2.11305,0.55425 -3.380278,0.29484 -2.271755,-0.46503 -2.277316,-0.46456 -2.371557,0.19799 -0.04828,0.33943 -0.200545,0.61714 -0.338369,0.61714 -0.468843,0 -1.608429,2.67539 -1.88546,4.42645 -0.413192,2.61173 -1.202407,5.17355 -1.593801,5.17355 -0.440564,0 -0.422308,-0.41197 0.079,-1.78285 0.220665,-0.60343 0.476768,-1.83772 0.569118,-2.74286 0.384628,-3.76983 1.858949,-7.30173 2.576139,-6.17143 0.445519,0.70215 0.294703,-0.01 -0.168011,-0.79307 -0.629795,-1.06616 -1.867461,-1.82451 -4.322926,-2.64877 -1.185073,-0.3978 -2.527748,-0.88015 -2.983722,-1.07187 -0.676994,-0.28465 -1.055453,-0.28045 -2.063537,0.0229 -0.678972,0.20434 -1.990012,0.34179 -2.913421,0.30544 -1.555255,-0.0612 -1.916696,0.0514 -4.906805,1.52911 -1.775334,0.87736 -3.688477,1.66591 -4.251429,1.75234 -0.562952,0.0864 -1.148121,0.2539 -1.300375,0.37215 -0.632322,0.49113 -5.255617,1.13999 -7.060318,0.99089 -1.018285,-0.0841 -1.851428,-0.0587 -1.851428,0.0565 0,0.11521 0.366852,0.69431 0.815226,1.2869 0.878031,1.16044 0.996686,1.48886 0.537902,1.48886 -0.439528,0 -2.175366,-1.39081 -2.180185,-1.74684 -0.01246,-0.92065 -0.429716,-1.0302 -2.126817,-0.55836 -1.619069,0.45014 -1.715675,0.44703 -3.129809,-0.10071 -1.797786,-0.69634 -3.93505,-0.97431 -4.630337,-0.6022 -0.28662,0.15339 -1.54179,0.38518 -2.789268,0.51507 -2.160125,0.22493 -2.346514,0.19951 -3.913855,-0.53367 -0.905143,-0.42341 -2.191475,-0.92893 -2.858517,-1.12338 -0.988687,-0.2882 -1.363734,-0.59633 -2.02957,-1.66743 -0.79107,-1.27257 -0.858119,-1.31391 -2.13101,-1.31391 -0.722833,0 -1.369872,0.0926 -1.437864,0.20572 -0.21754,0.362 1.323591,5.11537 2.379123,7.33802 0.686919,1.44646 0.930007,2.23952 0.743592,2.42594 -0.398483,0.39848 -2.533064,-4.2814 -3.456944,-7.57904 l -0.751862,-2.68365 -2.085617,-1.46839 c -2.108114,-1.48422 -3.56875,-2.07428 -5.141596,-2.07707 -0.707494,-0.001 -0.894879,0.13069 -1.047137,0.73734 -0.534433,2.12935 0.330193,14.33173 1.210928,17.0897 0.193093,0.60466 0.239129,1.80897 0.124375,3.25361 -0.2158,2.71669 -0.1716,2.77045 2.282839,2.77648 1.418522,0.003 2.110063,-0.18095 4.065003,-1.08413 1.29563,-0.59859 2.752342,-1.16275 3.237137,-1.2537 0.676472,-0.1269 0.879282,-0.30436 0.87214,-0.76309 -0.01438,-0.92396 0.51652,-0.97224 0.674303,-0.0613 0.118999,0.687 0.307739,0.84566 1.23698,1.03984 0.629186,0.13147 1.330364,0.12197 1.645126,-0.0223 0.608677,-0.279 1.602622,-2.77256 1.358615,-3.40843 -0.08437,-0.21986 0.213904,-1.2017 0.662827,-2.18186 0.448923,-0.98016 0.953935,-2.29353 1.122248,-2.9186 0.168314,-0.62507 0.424696,-1.13649 0.569739,-1.13649 0.519897,0 0.24133,1.5445 -0.644447,3.57309 -0.772614,1.76943 -0.879948,2.27724 -0.750937,3.55275 l 0.150526,1.48824 1.645714,0.32936 c 0.905143,0.18115 2.201143,0.51819 2.88,0.74898 0.678858,0.23078 1.810373,0.54806 2.514478,0.70505 0.704106,0.157 1.739616,0.59722 2.301133,0.97828 1.077591,0.73127 2.020019,0.87043 2.857906,0.42201 z M 34.834285,158.3819 c 0,-0.23624 0.262077,-1.53224 0.582393,-2.88 0.384012,-1.61577 0.711016,-2.45047 0.96,-2.45047 0.476003,0 0.475989,1.9e-4 -0.170964,2.46857 -0.296544,1.13143 -0.541285,2.33486 -0.543871,2.67428 -0.0028,0.36363 -0.173712,0.61715 -0.416129,0.61715 -0.226286,0 -0.411429,-0.19329 -0.411429,-0.42953 z m 20.571429,-1.31983 c 0,-0.057 0.185143,-0.54676 0.411428,-1.08834 0.226286,-0.54157 0.411429,-1.79093 0.411429,-2.77635 0,-1.70035 0.292628,-2.3057 0.656369,-1.3578 0.553361,1.44203 -0.247053,5.32613 -1.097579,5.32613 -0.209906,0 -0.381647,-0.0466 -0.381647,-0.10364 z m 118.831716,-1.61064 c -0.31801,-0.33943 -0.97666,-1.60457 -1.46365,-2.81143 -0.78876,-1.95465 -0.90621,-2.60314 -1.07548,-5.93811 -0.14497,-2.85613 -0.34127,-4.17223 -0.82787,-5.55059 -0.35081,-0.99371 -0.5621,-1.88249 -0.46953,-1.97506 0.8005,-0.80049 1.91446,3.06577 1.98255,6.8809 0.0343,1.91909 0.22848,3.61182 0.53368,4.65114 0.52224,1.77845 1.62641,4.12171 2.07194,4.39707 0.334,0.20642 0.37566,0.96322 0.053,0.96322 -0.12456,0 -0.48667,-0.27771 -0.80467,-0.61714 z M 64.256264,153.97109 c -0.168657,-0.98462 -0.637309,-2.46605 -1.041449,-3.29208 -0.738487,-1.50942 -0.749713,-2.09646 -0.02865,-1.49803 0.660762,0.54838 1.600179,3.07955 1.748008,4.70983 0.197764,2.18098 -0.307821,2.24085 -0.677911,0.0803 z m 22.404768,-0.69459 c -0.340438,-1.2643 -0.04411,-4.1031 0.424682,-4.06844 0.160975,0.0119 0.23576,0.68857 0.181028,1.63799 -0.09562,1.65863 0.09797,2.75395 0.486721,2.75395 0.120644,0 0.572868,-0.52457 1.004942,-1.16572 0.563507,-0.83617 0.806174,-1.56232 0.858405,-2.56867 0.11426,-2.20147 1.210901,-4.76847 2.037129,-4.76847 0.365071,0 0.270953,0.59923 -0.170784,1.08734 -0.495299,0.5473 -1.34194,3.74532 -1.134586,4.28568 0.151613,0.3951 -0.912224,2.57441 -1.695205,3.4727 -0.230113,0.264 -0.70307,0.48 -1.051018,0.48 -0.510501,0 -0.692222,-0.22131 -0.941314,-1.14636 z m -19.80389,-2.29217 c -1.621714,-1.57936 -2.948571,-2.93293 -2.948571,-3.00795 0,-0.075 0.191824,-0.13638 0.426276,-0.13638 0.528627,0 5.882295,5.15525 5.882295,5.66429 0,0.2035 -0.09257,0.36585 -0.205714,0.36079 -0.113143,-0.005 -1.532571,-1.3014 -3.154286,-2.88075 z m 28.941085,2.27281 c 0.07216,-0.18857 0.354766,-1.05257 0.628008,-1.92 0.467034,-1.48264 0.746913,-1.85293 1.036568,-1.37143 0.06806,0.11315 -0.114273,0.97715 -0.40519,1.92 -0.355063,1.15076 -0.670563,1.71429 -0.959765,1.71429 -0.236954,0 -0.371783,-0.15429 -0.299621,-0.34286 z m -56.849656,-1.27403 c 0,-0.135 -0.66713,-1.1753 -1.482512,-2.31177 -1.360886,-1.8968 -1.553224,-2.37991 -0.947489,-2.37991 0.121785,0 0.841785,0.88335 1.6,1.96301 1.30288,1.85524 1.718323,2.97413 1.104287,2.97413 -0.150857,0 -0.274286,-0.11046 -0.274286,-0.24546 z m 77.385269,-0.92025 c -0.7417,-2.3602 -0.67631,-6.78858 0.10025,-6.78858 0.27765,0 0.32848,0.4851 0.22271,2.12572 -0.12281,1.90482 0.006,2.93881 0.6137,4.93714 0.13813,0.45401 0.0762,0.61714 -0.23438,0.61714 -0.23595,0 -0.54571,-0.39318 -0.70228,-0.89142 z m 92.1233,-1.41159 c 0,-2.21559 -1.08902,-7.40864 -2.0648,-9.84609 -0.70871,-1.77033 -0.76163,-2.3673 -0.17788,-2.00652 0.5367,0.3317 1.74885,3.92613 2.39666,7.10685 0.78398,3.84938 0.88897,6.5002 0.25745,6.5002 -0.32283,0 -0.41143,-0.37779 -0.41143,-1.75444 z m -26.60931,0.37597 c -0.31526,-0.61796 -0.98413,-1.76595 -1.48637,-2.55109 -1.44448,-2.25808 -2.37081,-5.61708 -1.61837,-5.8684 0.19772,-0.066 0.44579,0.50227 0.64844,1.48551 0.36541,1.77289 0.62896,2.35625 2.35923,5.22207 1.25302,2.07535 1.36798,2.40427 0.93404,2.67245 -0.14507,0.0897 -0.52171,-0.34258 -0.83697,-0.96054 z m -98.298485,0.12175 c -0.285371,-0.74366 -0.190055,-6.42328 0.107797,-6.42328 0.336388,0 0.308933,-0.2478 0.402662,3.63429 0.07179,2.97334 -0.09339,3.87585 -0.510459,2.78899 z m 118.873515,-1.14796 c -0.57846,-1.32649 -0.67993,-1.9586 -0.64868,-4.04103 0.0374,-2.49203 0.38577,-3.97714 0.93298,-3.97714 0.20374,0 0.22756,0.41174 0.0754,1.30285 -0.42294,2.47633 -0.26912,5.03548 0.39462,6.56514 0.71736,1.65324 0.73012,1.73355 0.27429,1.72733 -0.18857,-0.003 -0.65143,-0.71229 -1.02857,-1.57715 z m -83.32497,-1.6189 c 0.0533,-1.59925 0.19152,-2.41505 0.42211,-2.49142 0.25746,-0.0853 0.34286,0.50701 0.34286,2.37786 0,2.05976 -0.0731,2.49143 -0.42211,2.49143 -0.35359,0 -0.40924,-0.386 -0.34286,-2.37787 z m -43.623566,-0.076 c 0.05921,-1.0479 0.188357,-1.98598 0.28699,-2.08461 0.441351,-0.44135 0.620465,0.2411 0.536178,2.0429 -0.07136,1.52554 -0.181966,1.94699 -0.510952,1.94699 -0.347009,0 -0.401191,-0.33064 -0.312216,-1.90528 z m 130.239956,0.86168 c 0,-0.59913 -0.30857,-2.15414 -0.68571,-3.45558 -0.80374,-2.77353 -0.78687,-2.63225 -0.31424,-2.63225 0.8925,0 2.17964,6.76471 1.34281,7.05727 -0.23685,0.0828 -0.34286,-0.21692 -0.34286,-0.96944 z m 8.77715,-0.30678 c 0,-2.40849 -0.77787,-6.71363 -1.49676,-8.28389 -0.37835,-0.82643 -0.81985,-2.48366 -0.98111,-3.68274 -0.16126,-1.19907 -0.35689,-2.39614 -0.43472,-2.66014 -0.0904,-0.3067 0.007,-0.48 0.26991,-0.48 0.49358,0 0.62384,0.40805 0.87462,2.73982 0.10528,0.97889 0.54948,2.67404 0.98712,3.76699 0.80976,2.02228 1.71776,7.23285 1.55213,8.90695 -0.1496,1.51211 -0.77119,1.26467 -0.77119,-0.30699 z m -25.03397,-0.0139 c -0.0796,-0.59325 -0.51406,-1.81784 -0.96552,-2.72131 -0.76315,-1.52719 -0.82969,-1.94872 -0.30763,-1.94872 0.4336,0 1.89569,3.40607 1.89569,4.4162 0,1.40904 -0.44335,1.58981 -0.62254,0.25383 z m -64.75304,0.60865 c -0.32851,-0.53153 -0.67103,-3.50237 -0.43257,-3.75182 0.37032,-0.38739 0.47139,-0.15921 0.781,1.76332 0.25713,1.59659 0.0699,2.66531 -0.34843,1.9885 z m 27.79844,-0.3558 c 0,-0.15871 0.36039,-0.41419 0.80086,-0.56774 0.44048,-0.15355 0.86861,-0.4557 0.95139,-0.67145 0.0828,-0.21574 0.27783,-0.39226 0.43342,-0.39226 0.53637,0 0.2811,0.78446 -0.43981,1.35152 -0.76773,0.6039 -1.74586,0.76073 -1.74586,0.27993 z m 41.68721,-0.40224 c -0.27116,-0.32673 -0.27935,-0.57924 -0.0361,-1.1131 0.17303,-0.37977 0.31296,-1.08583 0.31094,-1.56902 -0.005,-1.21609 -1.47506,-5.32828 -2.1686,-6.06651 -0.574,-0.611 -0.77456,-1.53201 -0.3336,-1.53201 0.43229,0 1.64856,2.02986 2.38307,3.97714 0.81822,2.16923 1.09958,5.48903 0.53109,6.26648 -0.3014,0.41219 -0.37225,0.41601 -0.68679,0.037 z m -12.18268,-1.47304 c -0.79114,-1.2801 -1.34965,-8.70888 -0.63596,-8.45897 0.23201,0.0812 0.31693,0.60697 0.26266,1.62618 -0.0441,0.82836 0.1719,2.66112 0.48,4.07281 0.30811,1.41168 0.56019,2.66505 0.56019,2.78525 0,0.29596 -0.47959,0.27778 -0.66689,-0.0253 z m 62.84845,-0.20319 c -0.16852,-0.16851 0.006,-2.32087 0.25073,-3.09599 0.0888,-0.28095 0.20587,-0.30569 0.42232,-0.0892 0.1934,0.1934 0.23181,0.84115 0.10842,1.82872 -0.1793,1.43501 -0.37071,1.76728 -0.78147,1.35651 z m -61.00741,-0.71869 c -0.31452,-0.40777 -1.17415,-2.57057 -1.17415,-2.95413 0,-0.1478 0.15429,-0.26692 0.34286,-0.26471 0.28174,0.003 1.57714,2.78549 1.57714,3.38727 0,0.29756 -0.46792,0.19189 -0.74585,-0.16843 z m 1.53117,-1.37143 c -1.1071,-1.94209 -1.38019,-2.99929 -1.14659,-4.43881 0.25054,-1.54387 0.75934,-1.00283 0.77627,0.82547 0.0127,1.3736 0.17261,1.8863 1.03431,3.31663 1.12955,1.87493 1.17463,2.01099 0.66626,2.01099 -0.19416,0 -0.79277,-0.77143 -1.33025,-1.71428 z m 34.73856,1.44627 c -0.0911,-0.14741 -0.34941,-1.41255 -0.57402,-2.81143 -0.44528,-2.7732 -1.14618,-4.91269 -2.20481,-6.73011 -0.61427,-1.05458 -0.67467,-1.71077 -0.15743,-1.71026 0.33033,3.2e-4 2.2157,4.18401 2.65745,5.89696 0.45591,1.76784 0.87114,5.62285 0.60566,5.62285 -0.0887,0 -0.23575,-0.1206 -0.32685,-0.26801 z m 5.53873,-2.12039 c 0.10914,-2.08094 0.0277,-2.70901 -0.59376,-4.58075 -0.44333,-1.33517 -0.6223,-2.2671 -0.4655,-2.4239 0.35058,-0.35058 0.50531,-0.0411 1.28951,2.57885 0.8465,2.82816 0.82091,6.44573 -0.0476,6.7346 -0.21985,0.0731 -0.27257,-0.59345 -0.1826,-2.3088 z m -80.01118,1.28245 c 0,-0.45742 -0.18514,-1.27478 -0.41143,-1.81635 -0.22628,-0.54158 -0.41142,-1.15476 -0.41142,-1.36262 0,-0.78856 0.50288,-0.3271 1.06336,0.97577 0.69321,1.61141 0.77338,3.03487 0.17092,3.03487 -0.27525,0 -0.41143,-0.27527 -0.41143,-0.83167 z m 3.69203,-1.22672 c 0.0571,-2.14513 0.37054,-2.75166 0.72915,-1.41077 0.28602,1.06948 -0.0228,3.46916 -0.44646,3.46916 -0.24195,0 -0.32195,-0.58248 -0.28269,-2.05839 z m -62.335558,0.99438 c -0.44817,-0.27699 -0.798216,-3.87314 -0.377007,-3.87314 0.167476,0 0.386541,0.61845 0.486811,1.37432 l 0.182309,1.37431 0.945422,-1.51145 c 0.909212,-1.45357 1.453013,-1.89168 1.450537,-1.1686 -6.46e-4,0.18857 -0.370403,0.89828 -0.821683,1.57714 -0.45128,0.67886 -0.821037,1.37346 -0.821683,1.54356 -0.0018,0.48108 -0.667623,0.91691 -1.044706,0.68386 z m 73.606548,-0.73833 c -0.10107,-0.53871 -0.25144,-1.15585 -0.33416,-1.37143 -0.0902,-0.23515 0.0185,-0.39195 0.27189,-0.39195 0.42902,0 0.55187,0.26084 0.872,1.85143 0.13734,0.6824 0.085,0.89143 -0.22328,0.89143 -0.24459,0 -0.47485,-0.38457 -0.58645,-0.97948 z m -126.126152,0.51773 c -0.609106,-1.0307 -0.149505,-5.26939 0.598312,-5.51796 0.311667,-0.10359 0.341394,0.0983 0.158262,1.07465 -0.124017,0.66121 -0.237672,1.90431 -0.252565,2.76245 -0.02599,1.49729 -0.223408,2.15568 -0.504009,1.68086 z m 220.426212,-0.15118 c -0.10697,-0.17308 -0.0345,-0.36804 0.16112,-0.43323 0.19558,-0.0652 1.23176,-0.96733 2.30262,-2.00476 1.07085,-1.03742 2.04354,-1.88622 2.16153,-1.88622 0.56602,0 0.0548,0.76418 -1.63692,2.44692 -1.95402,1.94365 -2.66953,2.39314 -2.98835,1.87729 z M 199.0547,143.5439 c -0.0762,-0.12629 -0.40472,-1.12698 -0.72994,-2.22376 -0.36312,-1.22459 -0.91782,-2.36603 -1.4374,-2.95779 -0.85724,-0.97635 -0.86049,-1.57853 -0.006,-1.04691 0.80871,0.50292 1.62802,1.95691 2.24233,3.9794 0.37744,1.24265 0.49814,2.04981 0.33145,2.21651 -0.14419,0.14419 -0.32455,0.15884 -0.40081,0.0326 z m 48.80545,-2.21819 c -0.40012,-0.65062 -0.77142,-3.84913 -0.63464,-5.46702 0.46478,-5.49768 0.50713,-6.46013 0.33484,-7.6091 -0.1091,-0.7275 -0.48269,-1.60309 -0.89109,-2.08844 -0.73846,-0.87761 -0.66276,-1.40401 0.13247,-0.92112 1.46624,0.89036 2.03787,4.69635 1.32236,8.80448 -0.39502,2.26802 -0.39812,2.74178 -0.0305,4.66286 0.22505,1.17609 0.4092,2.29263 0.40923,2.4812 5e-5,0.37388 -0.4394,0.46766 -0.64266,0.13714 z m -59.97444,-0.33217 c 0,-0.14498 -0.22709,-0.48441 -0.50465,-0.75428 -0.70369,-0.6842 -0.9471,-1.45069 -0.4607,-1.45069 0.42453,0 1.78821,1.64081 1.78821,2.1516 0,0.17434 -0.18514,0.31697 -0.41143,0.31697 -0.22628,0 -0.41143,-0.11862 -0.41143,-0.2636 z m 63.44328,-2.54783 c 0.37196,-2.31393 1.90095,-6.51428 2.3713,-6.51428 0.3978,0 0.36063,0.63624 -0.0996,1.70498 -0.5873,1.36374 -1.5321,4.54449 -1.5321,5.15792 0,0.31604 -0.18442,0.54281 -0.44144,0.54281 -0.34457,0 -0.40999,-0.19561 -0.29814,-0.89143 z m -9.83424,-1.09714 c 0.10554,-0.49029 0.42176,-2.24914 0.7027,-3.90857 0.28095,-1.65943 0.71385,-3.88114 0.96201,-4.93714 0.30524,-1.29888 0.39243,-2.40803 0.26951,-3.42858 -0.17532,-1.45572 -0.16419,-1.49151 0.31763,-1.02153 0.6358,0.62017 0.64048,2.93175 0.011,5.42775 -0.24486,0.97087 -0.64626,3.05179 -0.89201,4.62428 -0.49893,3.19258 -0.78327,4.13522 -1.24736,4.13522 -0.2123,0 -0.25265,-0.29133 -0.12347,-0.89143 z m -41.63893,-0.16534 c -0.53447,-0.55787 -0.76572,-1.10546 -0.8056,-1.90766 -0.0584,-1.17413 0.43215,-1.63868 0.57396,-0.54358 0.22666,1.75024 1.05986,2.62926 2.31868,2.44619 0.28216,-0.041 0.48,0.10687 0.48,0.35886 0,0.77537 -1.71117,0.53952 -2.56704,-0.35381 z m 29.09118,-3.24188 c -0.45749,-0.74023 -0.99216,-3.66997 -0.77504,-4.24679 0.26309,-0.69892 0.26954,-0.68241 1.08933,2.78388 0.26084,1.10292 0.0551,2.06059 -0.31429,1.46291 z m 2.22826,-1.39278 c -0.0262,-0.11314 -0.057,-1.53251 -0.0686,-3.15416 -0.0156,-2.18701 0.0676,-2.94847 0.32188,-2.94857 0.25442,-9e-5 0.34286,0.81352 0.34286,3.15416 0,1.92 -0.10733,3.15428 -0.27429,3.15428 -0.15086,0 -0.2957,-0.0926 -0.32188,-0.20571 z m 22.9163,-6.77366 c -1.21315,-0.55169 -1.4722,-0.81363 -1.89214,-1.91323 -0.41118,-1.07664 -0.43605,-1.4426 -0.16055,-2.36214 0.44134,-1.47307 0.97891,-1.43984 0.74134,0.0458 -0.31141,1.94749 0.17908,2.83326 2.04623,3.69526 1.61682,0.74644 2.07474,1.2197 1.1507,1.18928 -0.264,-0.009 -1.11251,-0.30344 -1.88558,-0.655 z"
       id="path1" />
  </g>
</svg>
