<?xml version="1.0" encoding="UTF-8" standalone="no"?>
<!-- Created with Inkscape (http://www.inkscape.org/) -->

<svg
   version="1.1"
   id="svg1"
   width="294.58286"
   height="294.58286"
   viewBox="0 0 294.58286 294.58286"
   sodipodi:docname="2c-teats.svg"
   inkscape:version="1.4 (86a8ad7, 2024-10-11)"
   xmlns:inkscape="http://www.inkscape.org/namespaces/inkscape"
   xmlns:sodipodi="http://sodipodi.sourceforge.net/DTD/sodipodi-0.dtd"
   xmlns="http://www.w3.org/2000/svg"
   xmlns:svg="http://www.w3.org/2000/svg">
  <defs
     id="defs1" />
  <sodipodi:namedview
     id="namedview1"
     pagecolor="#ffffff"
     bordercolor="#000000"
     borderopacity="0.25"
     inkscape:showpageshadow="2"
     inkscape:pageopacity="0.0"
     inkscape:pagecheckerboard="0"
     inkscape:deskcolor="#d1d1d1"
     inkscape:zoom="2.766624"
     inkscape:cx="147.47215"
     inkscape:cy="147.29143"
     inkscape:window-width="1920"
     inkscape:window-height="1017"
     inkscape:window-x="-8"
     inkscape:window-y="-8"
     inkscape:window-maximized="1"
     inkscape:current-layer="g1" />
  <g
     inkscape:groupmode="layer"
     inkscape:label="Image"
     id="g1">
    <path
       style="fill:#000000"
       d="m 160.8,233.50644 c -0.33943,-0.23677 -0.61714,-0.55026 -0.61714,-0.69663 0,-0.14638 -0.23996,-0.5712 -0.53325,-0.94405 -0.29328,-0.37286 -0.46522,-0.85518 -0.38208,-1.07184 0.0943,-0.24584 -0.0217,-0.39392 -0.30869,-0.39392 -0.3186,0 -0.43293,-0.1872 -0.3722,-0.60944 0.1217,-0.84625 1.6729,-1.2633 4.79622,-1.28948 2.76998,-0.0232 3.02724,0.13379 2.36537,1.44367 -0.2165,0.42848 -0.32816,0.94967 -0.24814,1.15821 0.08,0.20854 -0.10138,0.55209 -0.40313,0.76345 -0.30175,0.21135 -0.52882,0.49244 -0.5046,0.62465 0.12171,0.66442 -0.10856,0.92463 -1.0495,1.18594 -1.3772,0.38247 -2.00613,0.34336 -2.74286,-0.17056 z m -70.697143,-3.51075 c -0.648096,-0.37839 -1.101219,-0.85062 -1.107102,-1.1538 -0.0055,-0.28227 -0.212166,-0.80192 -0.459308,-1.15476 -0.645922,-0.92218 -0.356453,-1.32048 1.104866,-1.52025 0.706421,-0.0966 2.119182,-0.44096 3.139469,-0.76531 1.410135,-0.44828 1.931586,-0.5132 2.174091,-0.2707 0.242505,0.24251 0.197791,0.45298 -0.186425,0.87754 -0.298926,0.33031 -0.526991,1.03918 -0.558174,1.73492 -0.07304,1.62961 -0.513889,2.31078 -1.710645,2.64314 -1.258155,0.34941 -1.078977,0.37862 -2.396772,-0.39078 z m -31.337143,-0.24298 c -0.339429,-0.16811 -0.617143,-0.46152 -0.617143,-0.65204 0,-0.19051 -0.294176,-0.34639 -0.653724,-0.34639 -0.642274,0 -1.154288,-0.88692 -0.822205,-1.42424 0.249519,-0.40373 2.75896,-1.57027 3.956991,-1.83945 1.554821,-0.34935 1.978928,-0.15445 1.766689,0.81187 -0.09302,0.42352 -0.180123,1.15667 -0.193558,1.62921 -0.01784,0.62734 -0.260535,1.03925 -0.899486,1.5266 -0.934115,0.71249 -1.549336,0.78387 -2.537564,0.29444 z m 58.859686,-3.09975 c -0.3534,-0.59056 -0.79773,-1.31592 -0.98739,-1.61192 -1.24592,-1.94443 -1.12465,-2.27944 0.94858,-2.62043 1.59743,-0.26272 4.81091,-0.31186 5.40812,-0.0827 0.69622,0.26716 0.51778,1.18661 -0.28989,1.49368 -0.39807,0.15135 -0.65621,0.34273 -0.57364,0.42529 0.0826,0.0826 0.0312,0.54197 -0.11415,1.0209 -0.14534,0.47893 -0.31533,1.10348 -0.37775,1.38789 -0.15413,0.7022 -0.10088,0.67664 -1.83365,0.88029 l -1.5377,0.18073 z"
       id="path1" />
  </g>
</svg>
