<?xml version="1.0" encoding="UTF-8" standalone="no"?>
<!-- Created with Inkscape (http://www.inkscape.org/) -->

<svg
   version="1.1"
   id="svg1"
   width="294.58286"
   height="294.58286"
   viewBox="0 0 294.58286 294.58286"
   sodipodi:docname="pony-tight-a.svg"
   inkscape:version="1.4 (86a8ad7, 2024-10-11)"
   xmlns:inkscape="http://www.inkscape.org/namespaces/inkscape"
   xmlns:sodipodi="http://sodipodi.sourceforge.net/DTD/sodipodi-0.dtd"
   xmlns:xlink="http://www.w3.org/1999/xlink"
   xmlns="http://www.w3.org/2000/svg"
   xmlns:svg="http://www.w3.org/2000/svg">
  <defs
     id="defs1">
    <linearGradient
       id="linearGradient1"
       inkscape:collect="always">
      <stop
         style="stop-color:#000000;stop-opacity:0;"
         offset="0.17467248"
         id="stop2" />
      <stop
         style="stop-color:#000000;stop-opacity:1;"
         offset="0.64410478"
         id="stop1" />
    </linearGradient>
    <linearGradient
       inkscape:collect="always"
       xlink:href="#linearGradient1"
       id="linearGradient2"
       x1="28.956016"
       y1="138.01442"
       x2="265.87696"
       y2="138.01442"
       gradientUnits="userSpaceOnUse" />
  </defs>
  <sodipodi:namedview
     id="namedview1"
     pagecolor="#ffffff"
     bordercolor="#000000"
     borderopacity="0.25"
     inkscape:showpageshadow="2"
     inkscape:pageopacity="0.0"
     inkscape:pagecheckerboard="0"
     inkscape:deskcolor="#d1d1d1"
     inkscape:zoom="2.766624"
     inkscape:cx="147.47215"
     inkscape:cy="147.29143"
     inkscape:window-width="1920"
     inkscape:window-height="1017"
     inkscape:window-x="-8"
     inkscape:window-y="-8"
     inkscape:window-maximized="1"
     inkscape:current-layer="g1" />
  <g
     inkscape:groupmode="layer"
     inkscape:label="Image"
     id="g1">
    <path
       style="fill:url(#linearGradient2)"
       d="m 57.519623,160.03666 c -0.572207,-0.21001 -1.391078,-0.63155 -1.819713,-0.93677 -0.428634,-0.30521 -1.441608,-0.68689 -2.251052,-0.84816 -0.809443,-0.16128 -1.918127,-0.48294 -2.46374,-0.7148 -1.340573,-0.56969 -2.787463,-0.56918 -4.827885,0.002 -1.415466,0.39603 -1.981351,0.42721 -3.326416,0.18331 -1.805461,-0.3274 -1.996492,-0.27687 -6.213674,1.64352 -1.183889,0.53911 -3.557301,0.77363 -4.844541,0.4787 -1.510158,-0.34601 -1.704631,-0.83836 -1.281028,-3.24319 0.210341,-1.19412 0.17428,-1.89647 -0.164496,-3.20385 -0.238642,-0.92095 -0.678429,-4.30691 -0.977304,-7.52436 -0.450424,-4.8489 -0.491414,-6.25642 -0.239549,-8.22553 l 0.303861,-2.37562 0.900805,-0.169 c 2.113548,-0.3965 4.024873,0.29088 7.064857,2.54077 1.666473,1.23336 1.947024,1.35137 2.699532,1.13555 1.421348,-0.40763 2.22023,-0.0663 3.156087,1.3484 0.677178,1.02368 1.111141,1.37305 2.057143,1.65615 0.659405,0.19734 1.877775,0.69979 2.70749,1.11656 1.363084,0.6847 1.664094,0.73641 3.121212,0.53628 0.886953,-0.12183 2.197478,-0.36181 2.912278,-0.53328 1.456282,-0.34936 4.041624,-0.0137 5.593276,0.72627 0.799781,0.38139 1.023438,0.37424 2.511318,-0.0803 1.890974,-0.57768 2.522016,-0.54303 4.222992,0.23185 1.108181,0.50483 1.415722,0.5325 2.893323,0.26024 1.184462,-0.21825 1.924898,-0.22138 2.610899,-0.011 0.832932,0.2554 1.235151,0.1833 3.090413,-0.55395 1.17307,-0.46615 2.352519,-0.84755 2.620998,-0.84755 0.70605,0 2.051072,-1.07062 3.297662,-2.62489 l 1.084566,-1.35225 2.974817,-0.36374 c 4.165174,-0.50928 4.057763,-0.51849 7.057314,0.60517 3.773933,1.41375 4.131664,1.63398 5.364315,3.30256 0.92591,1.25336 1.264916,1.50771 2.22594,1.67007 0.900257,0.1521 1.247067,0.38371 1.684367,1.12487 0.8159,1.38285 1.44987,1.40552 3.80345,0.13601 2.69293,-1.45254 5.10242,-2.02184 6.91342,-1.63345 0.94977,0.20369 1.68736,0.20302 2.48928,-0.002 0.62677,-0.16044 1.81684,-0.42502 2.64459,-0.58794 2.07511,-0.40846 2.55433,-0.79648 3.5775,-2.89672 1.06199,-2.17995 2.15829,-2.85778 3.80475,-2.35247 1.33354,0.40927 2.21003,-0.0781 2.9523,-1.64151 0.77076,-1.62344 1.28342,-1.81128 2.54926,-0.93406 0.55037,0.38141 1.15066,0.69347 1.33397,0.69347 0.18331,0 1.03049,-0.37205 1.88262,-0.82677 1.83218,-0.9777 2.25236,-0.90962 3.84044,0.62234 1.1465,1.10598 1.15098,1.10747 2.33572,0.77576 1.53567,-0.42996 2.365,-0.11701 3.5293,1.33182 1.01817,1.26697 1.34869,1.33085 2.93091,0.5664 1.18816,-0.57406 2.12039,-0.45221 3.08344,0.40301 0.56816,0.50455 8.03221,1.61353 9.28867,1.38007 0.73037,-0.1357 1.5281,-0.69889 2.97845,-2.10276 2.17229,-2.10266 2.53968,-2.18534 3.93125,-0.88477 0.3854,0.36019 0.84434,0.6549 1.01988,0.6549 0.17553,0 0.72421,-0.54592 1.21927,-1.21315 1.28517,-1.7321 1.90381,-1.95765 3.36623,-1.22728 l 1.17921,0.58893 1.58368,-0.77482 c 2.1104,-1.03253 3.04446,-1.00151 4.49752,0.14933 1.09866,0.87015 1.35579,0.94215 4.40021,1.23207 2.82483,0.26901 3.37468,0.40585 4.35195,1.08309 1.10959,0.76895 1.13353,0.77242 2.9771,0.43109 1.02218,-0.18925 2.35222,-0.58769 2.95565,-0.88543 1.26653,-0.6249 2.60572,-1.80223 2.60572,-2.29077 0,-0.18465 0.35954,-0.63826 0.79899,-1.00803 0.60579,-0.50975 1.26197,-0.71793 2.71377,-0.86098 1.77186,-0.1746 2.00881,-0.2775 3.17447,-1.37856 1.54402,-1.45847 2.23965,-1.65218 4.08298,-1.137 0.78953,0.22066 2.79322,0.53637 4.45264,0.70158 2.61382,0.26022 3.17123,0.40711 4.16979,1.09885 1.31563,0.9114 4.82894,1.54977 6.74637,1.22582 2.24073,-0.37857 5.3177,-4.38459 5.79745,-7.54793 0.41327,-2.72497 0.39461,-2.69149 1.89731,-3.40239 0.78285,-0.37035 2.01033,-1.28583 2.72774,-2.0344 1.88454,-1.96641 2.87861,-2.05628 5.06684,-0.45808 0.78865,0.576 1.02044,0.62101 1.92,0.37283 0.56269,-0.15524 1.47505,-0.64008 2.02746,-1.0774 1.21911,-0.96515 2.4311,-1.48469 4.0699,-1.74464 0.67886,-0.10768 1.97486,-0.53996 2.88,-0.96062 0.90514,-0.42066 1.92456,-0.84875 2.26537,-0.95133 0.65623,-0.1975 5.47667,0.50561 6.66756,0.97253 0.71019,0.27845 3.54707,3.28669 3.54707,3.76133 0,0.14061 0.22145,0.55002 0.4921,0.9098 0.58464,0.77713 1.29677,3.0345 1.67735,5.31699 0.73962,4.43585 0.8991,5.25682 1.13204,5.82748 0.15262,0.37388 0.15228,0.87695 -8.5e-4,1.27972 -0.21373,0.56216 -0.12796,0.7616 0.56078,1.30395 0.48139,0.37906 1.02688,1.2332 1.33709,2.09366 0.47734,1.32401 0.48912,1.56815 0.13235,2.74285 -0.60948,2.00676 -0.647,2.0371 -4.00649,3.23943 -1.10554,0.39567 -2.14494,0.8275 -2.30976,0.95962 -0.16483,0.13212 -1.18881,0.60686 -2.27552,1.05499 -1.08671,0.44812 -3.05014,1.42015 -4.36317,2.16007 -3.2781,1.84725 -3.64293,1.89751 -6.55346,0.90275 -1.32921,-0.45429 -3.48501,-1.1339 -4.79068,-1.51024 l -2.37393,-0.68425 -1.46607,0.56519 c -1.98047,0.7635 -4.62686,0.78139 -6.27569,0.0424 -0.68415,-0.30662 -1.87387,-0.70862 -2.64383,-0.89333 -1.30038,-0.31196 -1.49473,-0.28811 -2.73323,0.33535 -0.94458,0.47549 -2.02977,0.72815 -3.72205,0.86659 -2.749,0.22488 -4.09475,0.92521 -5.95114,3.097 -1.03686,1.21303 -1.13424,1.25914 -3.35826,1.59015 -1.25974,0.18749 -2.81881,0.53959 -3.4646,0.78245 -1.09983,0.41361 -1.30195,0.4081 -3.19227,-0.087 -1.81886,-0.47641 -2.13053,-0.48986 -3.15687,-0.13626 -0.62633,0.21579 -1.42643,0.32015 -1.77799,0.23191 -0.35157,-0.0882 -1.70458,-1.21388 -3.0067,-2.50144 -2.33833,-2.31217 -2.38014,-2.33833 -3.39546,-2.12411 -0.56539,0.1193 -1.68455,0.22556 -2.48703,0.23613 -1.59336,0.021 -1.51454,-0.0486 -2.79237,2.46549 -0.57484,1.13097 -0.8853,1.41926 -1.92,1.78286 -1.00531,0.35327 -1.3325,0.64496 -1.76367,1.57229 -0.44574,0.95867 -0.687,1.16376 -1.52702,1.29809 -0.54871,0.0877 -1.38659,0.048 -1.86196,-0.0883 -0.77619,-0.22261 -1.00977,-0.13207 -2.29089,0.88797 l -1.42657,1.13585 -2.90209,-0.008 c -3.30282,-0.009 -3.91181,-0.22827 -5.64495,-2.03282 -1.29451,-1.34786 -2.0909,-1.80231 -3.84884,-2.19627 -0.71453,-0.16013 -1.80713,-0.65001 -2.428,-1.08863 -0.98752,-0.69762 -1.5981,-0.85698 -4.87628,-1.27268 -2.94349,-0.37327 -4.20629,-0.41703 -5.88643,-0.20401 -1.3839,0.17546 -2.61089,0.1779 -3.47567,0.007 -1.12521,-0.22249 -1.56077,-0.17384 -2.75356,0.30755 -0.77931,0.31451 -1.88682,0.6952 -2.46113,0.84597 -0.57432,0.15077 -1.51619,0.70054 -2.09305,1.22169 -0.785,0.7092 -1.39955,0.9958 -2.44304,1.13932 -1.14384,0.15732 -1.56334,0.37895 -2.336,1.23419 -0.51798,0.57335 -1.02023,1.28962 -1.11612,1.59173 -0.3266,1.02903 -2.02716,0.97511 -2.91029,-0.0923 -0.22009,-0.266 -0.99164,-0.75802 -1.71456,-1.09336 l -1.3144,-0.60971 -1.68955,0.52585 c -1.83266,0.57039 -2.69442,0.49979 -4.33456,-0.3551 -0.98194,-0.51181 -1.01119,-0.51121 -2.27377,0.0473 l -1.27903,0.56578 -1.16572,-0.55502 c -0.64114,-0.30526 -1.58601,-0.79951 -2.09972,-1.09834 -0.90831,-0.52836 -0.95359,-0.52951 -1.64571,-0.0418 -0.39144,0.27585 -1.57571,0.94825 -2.63171,1.49422 -1.63976,0.8478 -2.42597,1.05657 -5.38663,1.43042 -2.49298,0.31479 -3.92661,0.36811 -5.10436,0.18985 -1.63388,-0.24729 -1.6408,-0.24541 -2.942875,0.79926 -0.717829,0.57593 -1.403914,1.04714 -1.524633,1.04714 -0.12072,0 -0.397446,0.0683 -0.614947,0.15175 -0.217501,0.0835 -0.75291,-0.14903 -1.189798,-0.51665 -1.717875,-1.44549 -3.231074,-2.06654 -5.479166,-2.24876 -2.525926,-0.20474 -4.913204,-0.91297 -7.441161,-2.20756 -0.990605,-0.5073 -1.93762,-0.83881 -2.104478,-0.73669 -0.166858,0.10211 -0.699814,0.45382 -1.184346,0.78157 -0.567619,0.38395 -1.543215,0.66523 -2.742857,0.79082 -1.365403,0.14294 -2.520152,0.5135 -4.330461,1.38965 -2.015323,0.97537 -2.93217,1.24858 -4.993512,1.488 -1.64511,0.19107 -2.928503,0.20258 -3.683085,0.033 -1.326755,-0.2981 -2.140632,0.007 -3.254831,1.22126 -0.627468,0.68366 -2.145935,1.52676 -2.665476,1.47996 -0.117989,-0.0106 -0.682694,-0.19116 -1.254901,-0.40116 z"
       id="path1" />
  </g>
</svg>
