<?xml version="1.0" encoding="UTF-8" standalone="no"?>
<!-- Created with Inkscape (http://www.inkscape.org/) -->

<svg
   version="1.1"
   id="svg1"
   width="294.58286"
   height="294.58286"
   viewBox="0 0 294.58286 294.58286"
   sodipodi:docname="pony-fullface.svg"
   inkscape:version="1.4 (86a8ad7, 2024-10-11)"
   xmlns:inkscape="http://www.inkscape.org/namespaces/inkscape"
   xmlns:sodipodi="http://sodipodi.sourceforge.net/DTD/sodipodi-0.dtd"
   xmlns:xlink="http://www.w3.org/1999/xlink"
   xmlns="http://www.w3.org/2000/svg"
   xmlns:svg="http://www.w3.org/2000/svg">
  <defs
     id="defs1">
    <linearGradient
       id="linearGradient1"
       inkscape:collect="always">
      <stop
         style="stop-color:#000000;stop-opacity:0;"
         offset="0"
         id="stop2" />
      <stop
         style="stop-color:#000000;stop-opacity:1;"
         offset="0.47379914"
         id="stop1" />
    </linearGradient>
    <linearGradient
       inkscape:collect="always"
       xlink:href="#linearGradient1"
       id="linearGradient2"
       x1="214.62746"
       y1="177.12675"
       x2="278.1705"
       y2="173.79662"
       gradientUnits="userSpaceOnUse" />
  </defs>
  <sodipodi:namedview
     id="namedview1"
     pagecolor="#ffffff"
     bordercolor="#000000"
     borderopacity="0.25"
     inkscape:showpageshadow="2"
     inkscape:pageopacity="0.0"
     inkscape:pagecheckerboard="0"
     inkscape:deskcolor="#d1d1d1"
     inkscape:zoom="2.766624"
     inkscape:cx="147.47215"
     inkscape:cy="147.29143"
     inkscape:window-width="1920"
     inkscape:window-height="1017"
     inkscape:window-x="-8"
     inkscape:window-y="-8"
     inkscape:window-maximized="1"
     inkscape:current-layer="g1" />
  <g
     inkscape:groupmode="layer"
     inkscape:label="Image"
     id="g1">
    <path
       style="fill:url(#linearGradient2)"
       d="m 244.38857,252.37046 c -0.22629,-0.12403 -1.38583,-0.37797 -2.57677,-0.56431 -5.61753,-0.87896 -13.38634,-4.0966 -16.89752,-6.99853 -0.82971,-0.68574 -2.12571,-1.67464 -2.88,-2.19754 -0.75428,-0.5229 -2.112,-1.50592 -3.01714,-2.18448 -0.90514,-0.67856 -2.27292,-1.60739 -3.0395,-2.06406 l -1.39379,-0.83032 0.37619,-2.94847 c 0.69354,-5.43578 0.93322,-10.54959 1.08949,-23.24561 0.0949,-7.70704 0.0387,-14.80534 -0.14427,-18.24 -0.4376,-8.21381 -0.50883,-52.74254 -0.10245,-64.04571 0.39193,-10.90115 0.41588,-15.0286 0.10002,-17.23636 -0.15861,-1.1086 -0.1367,-1.62467 0.0711,-1.67545 0.16519,-0.0404 1.34948,-0.40155 2.63176,-0.80264 1.28229,-0.40109 2.49201,-0.72713 2.68826,-0.72454 0.53155,0.007 11.24322,-3.50295 12.67174,-4.15222 0.67886,-0.30855 1.85143,-1.02777 2.60572,-1.59827 0.75428,-0.5705 1.74171,-1.24222 2.19428,-1.4927 0.45257,-0.25049 1.2326,-0.75225 1.7334,-1.11503 0.51861,-0.375679 1.81729,-0.850202 3.01714,-1.102426 1.15863,-0.243559 2.36086,-0.5453 2.67161,-0.670534 0.33138,-0.133549 1.56589,-0.06743 2.98561,0.159917 1.91884,0.307268 2.90171,0.649864 4.74152,1.652753 1.27651,0.69582 2.5867,1.49784 2.91154,1.78225 0.32483,0.28442 1.15956,1.00823 1.85495,1.60847 0.69538,0.60024 1.64348,1.8027 2.10689,2.67213 0.4634,0.86944 1.16729,1.88588 1.56421,2.25876 1.04855,0.98506 1.63553,2.04083 2.5933,4.66446 1.18517,3.24653 1.52246,5.64875 1.13377,8.07501 -0.21165,1.32115 -0.22499,2.3286 -0.042,3.1707 0.45195,2.07969 1.63139,5.13346 2.45994,6.36921 0.8785,1.31025 2.07817,4.23289 2.33945,5.69936 0.0941,0.528 0.59994,1.63314 1.12414,2.45587 0.52419,0.82272 0.95308,1.66078 0.95308,1.86235 0,0.20157 0.23226,0.82444 0.51613,1.38414 0.28387,0.5597 0.60729,1.81993 0.71872,2.8005 0.11808,1.03919 0.51613,2.41212 0.95427,3.29143 0.41342,0.82971 0.96986,2.18743 1.23652,3.01714 0.26666,0.82972 0.63583,1.69372 0.82036,1.92 0.49107,0.60217 0.97215,5.74487 0.66521,7.11098 -0.18655,0.83024 -0.15061,1.36913 0.13723,2.05803 0.2843,0.68044 0.3223,1.21821 0.14026,1.98499 -0.13733,0.57845 -0.31489,1.54543 -0.39459,2.14886 -0.0797,0.60343 -0.26673,1.47372 -0.41562,1.93398 -0.17804,0.55036 -0.17809,1.32521 -1.5e-4,2.26348 0.41209,2.17296 -0.0356,3.77191 -1.60846,5.74393 -0.53357,0.669 -0.72805,1.25553 -0.77366,2.33327 -0.11879,2.807 -0.0845,3.51745 0.19528,4.04014 0.2036,0.38042 0.17356,0.84639 -0.10707,1.66093 -0.3406,0.98858 -0.33764,1.28605 0.0233,2.34546 0.32079,0.94146 0.34647,1.4053 0.11463,2.07037 -0.16433,0.47139 -0.22735,1.489 -0.14004,2.26133 0.0873,0.77234 0.0324,2.1708 -0.12196,3.1077 -0.20543,1.24663 -0.18033,2.75452 0.0936,5.62286 0.57845,6.05715 0.79321,8.83116 0.70689,9.13084 -0.094,0.32636 -0.2577,2.24386 -0.43319,5.07428 -0.517,8.33879 -0.59245,8.64696 -4.46589,18.24 -1.34007,3.31886 -2.71999,6.89829 -3.06649,7.95429 -0.34651,1.056 -0.7949,2.24664 -0.99643,2.64586 -0.43015,0.8521 -3.92445,2.94044 -6.13376,3.6658 -1.40413,0.46101 -2.48164,1.06561 -5.92704,3.32574 -1.90062,1.24677 -3.16436,1.64886 -6.32845,2.01355 -1.48558,0.17122 -2.8862,0.36133 -3.11248,0.42245 -0.22629,0.0611 -0.59657,0.01 -0.82286,-0.11437 z"
       id="path1" />
  </g>
</svg>
