<?xml version="1.0" encoding="UTF-8" standalone="no"?>
<!-- Created with Inkscape (http://www.inkscape.org/) -->

<svg
   version="1.1"
   id="svg1"
   width="294.58286"
   height="294.58286"
   viewBox="0 0 294.58286 294.58286"
   sodipodi:docname="pony-body-outline.svg"
   inkscape:version="1.4 (86a8ad7, 2024-10-11)"
   xmlns:inkscape="http://www.inkscape.org/namespaces/inkscape"
   xmlns:sodipodi="http://sodipodi.sourceforge.net/DTD/sodipodi-0.dtd"
   xmlns="http://www.w3.org/2000/svg"
   xmlns:svg="http://www.w3.org/2000/svg">
  <defs
     id="defs1" />
  <sodipodi:namedview
     id="namedview1"
     pagecolor="#ffffff"
     bordercolor="#000000"
     borderopacity="0.25"
     inkscape:showpageshadow="2"
     inkscape:pageopacity="0.0"
     inkscape:pagecheckerboard="0"
     inkscape:deskcolor="#d1d1d1"
     inkscape:zoom="2.766624"
     inkscape:cx="147.47215"
     inkscape:cy="147.29143"
     inkscape:window-width="1920"
     inkscape:window-height="1017"
     inkscape:window-x="-8"
     inkscape:window-y="-8"
     inkscape:window-maximized="1"
     inkscape:current-layer="g1" />
  <g
     inkscape:groupmode="layer"
     inkscape:label="Image"
     id="g1">
    <path
       style="fill:#000000"
       d="m 244.64658,253.05801 c -0.0698,-0.0698 -1.29817,-0.32445 -2.72963,-0.56581 -6.17298,-1.04085 -13.18193,-3.90929 -17.0774,-6.98902 -1.6092,-1.27222 -3.15378,-2.41405 -5.57396,-4.12055 -0.74008,-0.52183 -1.86592,-1.34452 -2.50187,-1.82819 -1.29574,-0.98546 -3.64051,-1.93966 -5.70086,-2.31995 -0.75429,-0.13922 -3.96343,-0.4339 -7.13143,-0.65483 -8.62779,-0.6017 -13.95315,-1.32683 -19.88572,-2.70776 -2.94171,-0.68474 -6.336,-1.44379 -7.54285,-1.68678 -6.25494,-1.25935 -13.58918,-3.44896 -17.96572,-5.3636 -2.36152,-1.03311 -5.41843,-2.02912 -9.6,-3.12788 -1.88571,-0.4955 -4.04571,-1.15548 -4.8,-1.46662 -3.70839,-1.52971 -15.41157,-4.71352 -20.43428,-5.55909 -5.36348,-0.90293 -13.60821,-1.82953 -16.86857,-1.89581 -0.90515,-0.0184 -4.23772,0.0449 -7.405719,0.14058 -3.168,0.0957 -6.130286,0.16236 -6.582857,0.14808 -0.452572,-0.0143 -2.612572,-0.0828 -4.8,-0.15223 -5.398809,-0.17141 -6.698717,-0.15618 -10.808666,0.12656 -2.323793,0.15987 -4.025661,0.14603 -4.953353,-0.0403 -0.955044,-0.1918 -1.73693,-0.19446 -2.41155,-0.008 -0.577858,0.15956 -1.437402,0.18262 -2.040932,0.0548 -2.034644,-0.43105 -6.52303,-0.58417 -8.386097,-0.28609 -1.122075,0.17953 -2.045322,0.1999 -2.331429,0.0514 -0.282554,-0.14662 -1.303746,-0.1359 -2.53083,0.0266 -1.397879,0.18508 -2.981056,0.17856 -4.940087,-0.0204 -1.78449,-0.18118 -3.300365,-0.19891 -3.978487,-0.0465 -0.602549,0.13538 -1.526939,0.15035 -2.054199,0.0333 -0.527261,-0.11709 -2.795916,-0.0937 -5.041456,0.0521 -5.230912,0.33945 -10.416696,-0.0324 -11.582573,-0.83045 -2.008567,-1.37494 -12.720826,-8.15556 -14.080763,-8.9128 -1.102462,-0.61388 -1.352227,-1.37137 -1.111616,-3.37134 0.294339,-2.44655 0.121152,-18.5189 -0.256218,-23.77798 -0.243392,-3.39194 -0.248809,-4.72688 -0.02091,-5.15271 0.169173,-0.31611 0.300125,-1.03316 0.291004,-1.59345 -0.02229,-1.36896 -0.02592,-1.93088 -0.03323,-5.133 -0.0034,-1.50857 -0.116737,-6.37443 -0.251766,-10.81302 -0.135029,-4.43859 -0.143554,-8.26488 -0.01894,-8.50286 0.12461,-0.23798 0.126451,-1.17326 0.0041,-2.07841 -0.22042,-1.63052 -0.38239,-7.44679 -0.236786,-8.50285 0.0416,-0.30172 -0.01592,-1.85902 -0.127828,-3.46067 l -0.203464,-2.9121 3.650188,-1.99664 c 2.007603,-1.09816 3.897044,-2.16292 4.198758,-2.36614 3.07281,-2.06972 4.757522,-3.13548 6.833607,-4.32302 2.094902,-1.1983 2.76263,-1.43785 4.662857,-1.67286 1.242465,-0.15366 3.363767,-0.1863 4.823536,-0.0742 7.347642,0.56414 9.670719,0.61033 14.650861,0.29128 3.320228,-0.21271 5.962401,-0.24818 7.22407,-0.097 1.27464,0.15275 4.082753,0.11098 7.817143,-0.11626 3.301006,-0.20087 6.422561,-0.26067 7.199355,-0.13792 0.754285,0.1192 2.467919,0.0969 3.808075,-0.0496 2.027847,-0.22162 8.078263,-0.0168 11.689067,0.3957 0.226286,0.0259 1.275429,-0.0479 2.331429,-0.16392 1.056,-0.11601 2.491911,-0.10034 3.190915,0.0348 0.815428,0.15767 2.105339,0.13383 3.599157,-0.0665 1.280533,-0.17175 2.683478,-0.21726 3.117656,-0.10114 0.434181,0.11612 2.579131,0.0747 4.766561,-0.0921 4.63366,-0.35323 8.04368,-0.36792 9.1452,-0.0394 0.42871,0.12786 1.78643,0.14094 3.01714,0.0291 7.06617,-0.64228 8.22211,-0.71029 8.89893,-0.5236 0.75688,0.20877 5.02174,-0.0848 7.0967,-0.48842 0.62746,-0.12207 1.30961,-0.12749 1.51589,-0.0121 0.20628,0.11543 1.17404,0.0461 2.15059,-0.15415 0.97655,-0.20021 2.82469,-0.44263 4.10697,-0.53869 1.28229,-0.0961 4.12115,-0.35422 6.30858,-0.57368 11.14866,-1.11848 14.77111,-1.52704 15.77142,-1.77876 0.60343,-0.15185 2.88686,-0.4513 5.07429,-0.66545 6.43185,-0.62968 11.85126,-1.26437 13.02857,-1.52585 2.03351,-0.45164 13.30996,-1.62951 22.21714,-2.32068 8.90307,-0.69084 13.30155,-1.23325 15.63429,-1.928 5.68809,-1.69405 14.12616,-4.42578 15.36,-4.97262 0.75429,-0.33431 2.00403,-1.08038 2.77721,-1.65795 0.77317,-0.57757 1.7606,-1.26627 2.19428,-1.53044 0.43368,-0.26417 1.20984,-0.750176 1.72479,-1.080014 0.51496,-0.329838 2.18125,-0.873796 3.70286,-1.208797 2.60669,-0.573892 2.91241,-0.587275 5.29015,-0.231582 2.06611,0.309075 2.94876,0.607399 4.869,1.645654 1.28998,0.697479 2.4378,1.414089 2.55071,1.592469 0.11291,0.17838 0.51386,0.52003 0.891,0.75922 1.15791,0.73438 2.65683,2.43308 3.44807,3.90763 0.41444,0.77237 1.21713,1.91476 1.78375,2.53865 1.26287,1.39051 1.74621,2.30547 2.72242,5.15352 0.9564,2.79024 1.20667,5.18107 0.84462,8.06851 -0.23792,1.89747 -0.21307,2.45185 0.15318,3.41713 0.24044,0.63372 0.70181,1.89278 1.02525,2.79792 0.32345,0.90515 0.94746,2.20115 1.3867,2.88 0.9347,1.44461 1.9136,3.83898 2.19442,5.3675 0.10896,0.59302 0.54683,1.63365 0.97305,2.3125 1.10478,1.75962 2.11382,4.50619 2.42864,6.61069 0.14898,0.99588 0.63523,2.53874 1.08055,3.42857 0.44532,0.88984 0.96567,2.1116 1.15633,2.71503 0.19066,0.60343 0.49942,1.28229 0.68613,1.50857 0.47555,0.57635 1.00866,6.45677 0.70458,7.77172 -0.17433,0.75381 -0.13498,1.31077 0.13892,1.96629 0.33525,0.80237 0.31838,1.26225 -0.13754,3.74829 -0.30233,1.64857 -0.50666,3.92348 -0.48855,5.43942 0.0338,2.83128 -0.0902,3.21511 -1.66219,5.14318 -0.73347,0.89964 -0.88055,1.25053 -0.64376,1.53585 0.22754,0.27416 0.21413,0.68195 -0.0518,1.57681 -0.29336,0.98706 -0.2945,1.42603 -0.006,2.40889 0.25903,0.88324 0.27914,1.52914 0.0758,2.43629 -0.19358,0.86383 -0.18538,1.51091 0.0273,2.1554 0.2251,0.68205 0.21947,1.44474 -0.0217,2.9397 -0.23386,1.44968 -0.24545,2.3947 -0.0411,3.35266 0.22159,1.039 0.19907,1.53845 -0.10187,2.25869 -0.29898,0.71557 -0.32861,1.33821 -0.131,2.75291 0.26611,1.90504 0.93738,9.65045 0.91914,10.60533 -0.0194,1.01672 -0.91095,11.50856 -1.08377,12.75429 -0.28001,2.01839 -1.69651,6.20487 -3.38737,10.01142 -0.59788,1.34597 -3.27253,8.37374 -3.70579,9.73715 -0.65132,2.04956 -1.37875,3.18462 -2.27067,3.54308 -0.4108,0.1651 -1.30847,0.6516 -1.99483,1.08111 -0.68636,0.42952 -1.92064,0.99919 -2.74286,1.26594 -1.31722,0.42734 -5.69199,2.90696 -6.85712,3.88661 -0.76217,0.64084 -2.62428,1.14563 -5.37676,1.45757 -1.48558,0.16836 -3.01557,0.36756 -3.39999,0.44268 -0.38441,0.0751 -0.75607,0.0794 -0.82591,0.01 z m 3.85795,-1.91885 c 2.78542,-0.45218 3.46094,-0.74195 6.85547,-2.94071 1.43314,-0.9283 3.3129,-1.92055 4.17725,-2.205 0.86434,-0.28445 2.16034,-0.88461 2.88,-1.33368 0.71965,-0.44908 1.63975,-0.94991 2.04465,-1.11295 0.84035,-0.33838 1.46543,-1.18992 2.01326,-2.74265 l 0.38006,-1.07719 -0.87904,-0.44414 c -1.20577,-0.60924 -2.11332,-1.48144 -2.11332,-2.031 0,-0.54148 0.72041,-1.22835 1.55452,-1.48213 1.83553,-0.55848 2.83405,-2.31034 2.83405,-4.97225 0,-1.58367 -0.0756,-1.8068 -0.89438,-2.64079 -0.49191,-0.50103 -1.59546,-1.40124 -2.45233,-2.00048 -1.51735,-1.06115 -2.68758,-2.61669 -2.68758,-3.57252 0,-0.26019 0.42115,-1.53939 0.93589,-2.84266 0.81036,-2.05172 0.95931,-2.80664 1.11044,-5.62779 0.15196,-2.8364 0.28266,-3.49332 1.00963,-5.07429 1.65363,-3.59622 1.61116,-3.26275 1.75481,-13.7805 0.0918,-6.72315 0.26529,-10.68747 0.55269,-12.63126 0.23037,-1.55809 0.49331,-3.54942 0.58431,-4.42519 l 0.16546,-1.59231 1.67481,-0.79959 c 1.78869,-0.85394 4.56571,-2.96433 5.43786,-4.13248 0.82175,-1.10064 1.92047,-7.44523 1.54651,-8.93035 -0.18828,-0.74773 -0.20048,-1.56435 -0.035,-2.34036 0.30718,-1.44028 -0.10096,-5.66155 -0.6051,-6.25832 -0.19116,-0.22629 -0.56501,-1.09029 -0.83078,-1.92 -0.26577,-0.82971 -0.8368,-2.18743 -1.26894,-3.01714 -0.43214,-0.82972 -0.78598,-1.71451 -0.78631,-1.9662 -3.2e-4,-0.2517 -0.40173,-0.70889 -0.89201,-1.01599 -0.49029,-0.30709 -1.2,-0.84606 -1.57715,-1.19771 -1.47994,-1.3799 -3.95869,-2.95153 -4.65508,-2.95153 -0.39918,0 -0.95317,-0.16627 -1.23109,-0.36949 -0.43808,-0.32033 -0.4633,-0.48998 -0.18956,-1.27521 0.68282,-1.95874 0.37343,-2.96163 -1.53568,-4.97799 -0.69969,-0.739 -0.89959,-1.14811 -0.76627,-1.56817 0.33682,-1.06122 0.20341,-3.30577 -0.27019,-4.54588 -0.2595,-0.67949 -0.40395,-1.49498 -0.321,-1.8122 0.17939,-0.68597 -0.83305,-4.15374 -1.85662,-6.35922 -0.68294,-1.47154 -0.7345,-1.86228 -0.81425,-6.17142 -0.0947,-5.11805 -0.23191,-6.29981 -1.0173,-8.76342 -0.44798,-1.40523 -0.78326,-1.89965 -1.96442,-2.8969 -1.96499,-1.65901 -5.38714,-3.465386 -7.20004,-3.800518 -1.15154,-0.212874 -2.02125,-0.183514 -3.647,0.123115 -2.89915,0.546803 -3.57914,0.881623 -7.39139,3.639353 -0.85963,0.62185 -2.05978,1.38162 -2.66699,1.68839 -1.26119,0.63717 -12.7617,4.44956 -13.42259,4.44956 -0.23961,0 -1.14229,0.25129 -2.00595,0.55841 -1.95503,0.69524 -5.92371,1.21026 -14.736,1.91234 -3.77143,0.30047 -8.02972,0.66693 -9.46286,0.81435 -1.43314,0.14742 -4.51886,0.46453 -6.85714,0.70468 -2.33829,0.24016 -5.23886,0.61126 -6.44572,0.82469 -2.21221,0.39121 -10.04407,1.31077 -13.85143,1.62633 -1.13143,0.0938 -3.35314,0.40421 -4.93714,0.68985 -1.584,0.28565 -4.97829,0.71708 -7.54286,0.95873 -2.56457,0.24166 -6.39085,0.6115 -8.50285,0.82188 -2.112,0.21038 -4.76572,0.45559 -5.89715,0.54493 -1.13143,0.0893 -2.67428,0.27675 -3.42857,0.41648 -1.86549,0.34557 -9.76537,0.85844 -14.94857,0.97049 -2.33829,0.0506 -5.36229,0.21606 -6.72,0.36781 -1.79073,0.20014 -2.99578,0.1863 -4.38857,-0.0504 -1.24958,-0.21236 -2.97352,-0.25836 -4.93714,-0.13172 -8.087253,0.52153 -13.599131,0.68654 -14.919113,0.44663 -0.897665,-0.16316 -1.944038,-0.15717 -2.883485,0.0165 -1.063578,0.19662 -2.76333,0.15876 -6.098826,-0.13583 -3.694209,-0.32627 -5.215536,-0.34658 -7.563896,-0.10095 -1.616781,0.1691 -3.210599,0.22145 -3.541817,0.11632 -0.789964,-0.25072 -3.175178,-0.21539 -8.912433,0.13203 -2.878656,0.17432 -5.447092,0.19019 -6.635224,0.041 -1.265351,-0.15888 -3.77766,-0.12087 -7.234719,0.10947 -3.64804,0.24306 -6.192453,0.2746 -8.176204,0.10135 -1.584,-0.13834 -4.793143,-0.27874 -7.131429,-0.31202 -4.001923,-0.0569 -4.331914,-0.0215 -5.622857,0.60307 -1.442895,0.69815 -6.647471,3.86449 -7.817143,4.75577 -0.377143,0.28738 -2.413714,1.47225 -4.525714,2.63305 l -3.84,2.11054 0.03635,1.08996 c 0.158103,4.74087 0.249283,5.48702 0.712834,5.83338 0.261194,0.19516 0.965849,1.19546 1.565901,2.22289 l 1.091003,1.86806 2.822671,0.12166 c 1.552469,0.0669 3.862162,0.054 5.132653,-0.0286 l 2.309982,-0.15027 0.867243,-1.23429 c 0.476983,-0.67886 1.073293,-1.27426 1.325132,-1.32313 0.868039,-0.16842 0.768598,0.72028 -0.237257,2.12036 l -1.005713,1.39988 -0.128251,4.38716 c -0.08958,3.06438 -0.03802,4.38716 0.171011,4.38716 0.579794,0 3.02787,2.04321 3.02787,2.52712 0,0.71129 -0.709539,0.60247 -2.012303,-0.30863 l -1.141982,-0.79865 -2.742857,0.23536 c -1.508572,0.12945 -3.792,0.42486 -5.074286,0.65646 -1.282286,0.2316 -2.661285,0.42336 -3.064443,0.42614 -0.599162,0.004 -0.793655,0.1888 -1.065103,1.01129 -0.375407,1.1375 -1.313858,2.83363 -1.795533,3.24519 -0.239559,0.2047 -0.263335,1.66617 -0.09371,5.76 0.125017,3.01715 0.170462,5.91772 0.100989,6.44572 -0.06947,0.528 -0.176906,1.392 -0.23874,1.92 -0.06184,0.528 -0.199993,1.42773 -0.307019,1.99939 -0.155461,0.83038 -0.08542,1.16132 0.3483,1.64572 0.29859,0.33347 1.000428,1.43946 1.559639,2.45775 l 1.016748,1.85142 1.975148,0.0503 c 1.086331,0.0277 3.579719,0.018 5.540862,-0.0215 l 3.565714,-0.0718 1.466089,-1.62424 c 1.480799,-1.64053 2.123592,-1.96403 2.411533,-1.21367 0.09852,0.25674 -0.475494,1.1246 -1.532088,2.31638 l -1.689637,1.90582 0.141821,4.57616 0.141821,4.57616 1.074791,1.81603 c 1.134848,1.9175 1.679908,3.95089 1.147294,4.28006 -0.449203,0.27763 -1.043255,-0.32658 -1.250984,-1.27236 -0.09997,-0.45517 -0.570762,-1.49189 -1.046203,-2.30383 l -0.864437,-1.47626 -4.937143,0.16892 c -2.859831,0.0978 -5.122908,0.29617 -5.378651,0.47135 -0.24283,0.16634 -1.01765,0.97789 -1.721823,1.80344 l -1.280313,1.50101 0.07611,3.56287 0.07611,3.56287 0.87078,0.55898 c 0.47893,0.30744 2.263533,1.42298 3.965786,2.47898 1.702252,1.056 4.371762,2.75535 5.932245,3.77635 4.461503,2.91906 5.014967,3.14669 8.156903,3.35469 1.508571,0.0999 4.970901,0.0429 7.694065,-0.12651 3.468145,-0.21581 5.974816,-0.22498 8.368528,-0.0306 2.260712,0.18357 4.716033,0.1871 7.254506,0.0104 2.632387,-0.18322 6.334672,-0.16717 11.791472,0.0511 5.836701,0.23349 9.091363,0.2387 12.22549,0.0196 2.738508,-0.19148 4.682418,-0.20625 5.417143,-0.0412 0.703074,0.15797 1.579233,0.16012 2.267116,0.006 0.710194,-0.15957 2.110959,-0.14434 3.821339,0.0416 1.894946,0.20595 3.731729,0.20836 6.15936,0.008 2.13927,-0.17649 3.882044,-0.19038 4.567364,-0.0364 0.68565,0.15406 1.47512,0.14767 2.07063,-0.0168 0.98405,-0.27171 8.99687,0.22122 12.70584,0.78164 0.98057,0.14816 3.44631,0.47083 5.47942,0.71704 2.03311,0.24621 4.87197,0.7602 6.30857,1.14219 1.43661,0.38199 3.29087,0.84629 4.12058,1.03177 3.86277,0.86355 10.8933,3.00168 13.51995,4.11169 0.57197,0.24172 2.29997,0.73956 3.84,1.10632 3.17919,0.75712 7.75301,2.25766 9.38291,3.07826 0.60343,0.3038 1.59086,0.7043 2.19429,0.88999 0.60343,0.18569 2.26971,0.75396 3.70285,1.26282 3.02803,1.07514 7.48539,2.244 12.97885,3.40347 2.13935,0.45154 5.70143,1.25265 7.91573,1.78024 2.2143,0.52759 5.54687,1.14437 7.40571,1.37061 1.85884,0.22625 4.36714,0.53673 5.574,0.68995 1.20686,0.15323 4.35429,0.40562 6.99429,0.56088 2.64,0.15527 5.61734,0.45462 6.61632,0.66523 1.93769,0.40852 4.58752,1.61986 5.89137,2.69319 0.43734,0.36001 1.40068,1.07723 2.14075,1.59382 2.29962,1.6052 3.92977,2.81071 5.57396,4.122 3.48558,2.77984 10.75269,5.73747 16.39474,6.67247 2.92516,0.48476 2.94341,0.48492 5.62453,0.0497 z m 19.36524,-14.28987 0.57834,-1.49562 -0.80519,0.67753 c -0.44286,0.37264 -1.10426,0.75259 -1.46978,0.84433 -0.82584,0.20727 -0.8412,0.50108 -0.055,1.05177 0.93414,0.6543 1.12783,0.53509 1.7516,-1.07801 z m 2.448,-6.31215 c 3.29596,-7.66198 3.51582,-8.56496 4.10941,-16.87783 0.42351,-5.93105 0.41946,-6.36373 -0.10801,-11.53639 -0.47587,-4.66664 -0.50833,-5.87634 -0.24657,-9.18799 0.22058,-2.79066 0.21952,-4.29222 -0.004,-5.59721 -0.18609,-1.08658 -0.21464,-2.18534 -0.0731,-2.81201 0.12794,-0.56626 0.12652,-1.49088 -0.003,-2.05714 -0.14136,-0.61734 -0.11545,-2.07037 0.0648,-3.63429 0.2467,-2.14044 0.43289,-2.77713 1.04275,-3.56571 0.74834,-0.96765 1.38003,-2.02661 1.38003,-2.31347 0,-0.0854 -1.09171,0.70709 -2.42603,1.76105 -1.33431,1.05396 -2.86131,2.09816 -3.39332,2.32045 -0.95149,0.39756 -0.97246,0.44132 -1.28361,2.67807 -0.17397,1.25064 -0.44134,3.07619 -0.59414,4.05676 -0.15281,0.98057 -0.33037,4.31314 -0.39458,7.40571 -0.0642,3.09257 -0.13103,5.808 -0.14847,6.03429 -0.0174,0.22628 -0.0107,2.07771 0.015,4.11428 0.05,3.96697 -0.0906,4.65872 -1.63471,8.03923 -1.08688,2.37951 -1.10211,2.45612 -1.15584,5.8128 -0.0426,2.66084 -0.13422,3.18455 -0.79107,4.52155 -1.54105,3.13678 -1.37295,3.79367 1.45132,5.67124 2.48836,1.65426 3.48967,3.15878 3.51995,5.28888 0.0119,0.8379 0.0886,1.3383 0.17047,1.11202 0.0819,-0.22629 0.3081,-0.78172 0.50279,-1.23429 z M 15.221368,187.52873 c -0.204063,-4.53696 -0.557756,-6.17204 -1.711434,-7.91176 -0.464859,-0.70099 -0.47906,-0.4988 -0.414192,5.89715 0.03694,3.64266 0.139522,7.04769 0.227952,7.56674 l 0.160782,0.94372 0.968365,-1.02642 0.968366,-1.02642 z m 11.593075,3.25683 c 0.17955,-0.17955 0.149727,-2.83892 -0.06547,-5.83837 l -0.20099,-2.80139 -5.457323,0.005 -5.457322,0.005 0.135194,1.83595 c 0.07436,1.00977 0.209027,3.03282 0.299267,4.49566 l 0.164073,2.65971 1.141209,0.0832 c 1.312888,0.0956 9.275945,-0.28016 9.441367,-0.44558 z M 13.44,156.04939 c 0,-0.14359 0.267754,-0.83071 0.595009,-1.52691 0.534547,-1.1372 0.594397,-1.71523 0.588995,-5.68844 -0.0073,-5.38016 -0.215424,-6.77907 -1.261833,-8.48206 -0.444942,-0.72413 -0.839369,-1.27956 -0.876505,-1.23429 -0.03714,0.0453 0.09721,1.73595 0.298553,3.75706 0.230215,2.31097 0.277771,4.06776 0.128141,4.73372 -0.290809,1.29429 -0.0337,9.04894 0.293322,8.84683 0.128875,-0.0796 0.234318,-0.26231 0.234318,-0.40591 z m 6.748569,-3.53369 c 1.94543,-0.29465 4.072739,-0.57236 4.727354,-0.61714 l 1.190209,-0.0814 0.04408,-4.11428 0.04408,-4.11429 -4.388572,-0.0434 C 19.392,143.52138 16.923428,143.43523 16.32,143.35378 l -1.097143,-0.1481 0.0775,4.58002 c 0.04262,2.51901 0.131322,4.7343 0.197106,4.92287 0.15792,0.45268 0.529804,0.43739 4.691108,-0.19287 z m 252.300111,-9.81306 c -0.40807,-1.02131 -1.08064,-2.35064 -1.4946,-2.95407 -0.41396,-0.60343 -0.84338,-1.63601 -0.95427,-2.29463 -0.29567,-1.75604 -1.61721,-4.77553 -2.57648,-5.88679 -0.46731,-0.54135 -1.79844,-4.21523 -2.25314,-6.21858 -0.1954,-0.8609 -0.18642,-2.00353 0.0297,-3.77711 0.3581,-2.93915 0.30029,-3.34218 -1.02459,-7.1434 -0.74471,-2.13663 -1.26664,-3.14364 -2.13243,-4.11428 -0.63051,-0.70687 -1.2953,-1.53207 -1.47732,-1.83378 -0.26804,-0.44429 -0.28971,-0.20967 -0.11403,1.23428 0.1193,0.98058 0.20528,2.4 0.19106,3.15429 l -0.0258,1.37143 0.38525,-0.92983 c 0.26859,-0.64825 0.4723,-0.84278 0.67269,-0.6424 0.33863,0.33864 -0.13917,2.04041 -0.70465,2.50972 -0.57373,0.47615 -0.22968,4.27659 0.52245,5.7711 l 0.61543,1.22288 0.9103,-1.29145 c 0.50066,-0.7103 1.07168,-1.29145 1.26892,-1.29145 0.58532,0 0.42062,0.42089 -0.73851,1.8873 -0.60343,0.7634 -1.09533,1.54591 -1.0931,1.73892 0.002,0.19301 0.22788,1.06796 0.50147,1.94434 0.42742,1.36911 0.54741,1.53321 0.85241,1.16572 0.19523,-0.23524 0.46328,-0.42771 0.59566,-0.42771 0.46134,0 0.23566,0.66096 -0.48114,1.40914 -0.71495,0.74625 -0.71757,0.76411 -0.27428,1.87199 0.26331,0.65808 0.44755,1.9015 0.44755,3.02046 v 1.90192 l 1.82957,0.0811 c 1.26848,0.0562 1.86849,0.19879 1.95649,0.46485 0.0996,0.30114 -0.10237,0.3505 -0.93814,0.22929 -0.58579,-0.0849 -1.28098,-0.0709 -1.54487,0.0312 -0.43416,0.16799 -0.40807,0.28659 0.27428,1.2465 0.6355,0.894 0.75326,1.33663 0.74873,2.81435 l -0.005,1.75351 0.96536,0.26011 c 0.53095,0.14306 2.01451,1.11808 3.2968,2.16671 1.28228,1.04863 2.37174,1.79515 2.42102,1.65894 0.0493,-0.13621 -0.24428,-1.08327 -0.65234,-2.10458 z"
       id="path1" />
  </g>
</svg>
