<?xml version="1.0" encoding="UTF-8" standalone="no"?>
<!-- Created with Inkscape (http://www.inkscape.org/) -->

<svg
   version="1.1"
   id="svg1"
   width="294.58286"
   height="294.58286"
   viewBox="0 0 294.58286 294.58286"
   sodipodi:docname="2c-medium-v.svg"
   inkscape:version="1.4 (86a8ad7, 2024-10-11)"
   xmlns:inkscape="http://www.inkscape.org/namespaces/inkscape"
   xmlns:sodipodi="http://sodipodi.sourceforge.net/DTD/sodipodi-0.dtd"
   xmlns:xlink="http://www.w3.org/1999/xlink"
   xmlns="http://www.w3.org/2000/svg"
   xmlns:svg="http://www.w3.org/2000/svg">
  <defs
     id="defs1">
    <linearGradient
       id="linearGradient2"
       inkscape:collect="always">
      <stop
         style="stop-color:#000000;stop-opacity:0;"
         offset="0.18122271"
         id="stop3" />
      <stop
         style="stop-color:#000000;stop-opacity:1;"
         offset="0.63973796"
         id="stop2" />
    </linearGradient>
    <linearGradient
       inkscape:collect="always"
       xlink:href="#linearGradient2"
       id="linearGradient3"
       x1="33.388688"
       y1="196.25602"
       x2="271.01018"
       y2="196.25602"
       gradientUnits="userSpaceOnUse" />
  </defs>
  <sodipodi:namedview
     id="namedview1"
     pagecolor="#ffffff"
     bordercolor="#000000"
     borderopacity="0.25"
     inkscape:showpageshadow="2"
     inkscape:pageopacity="0.0"
     inkscape:pagecheckerboard="0"
     inkscape:deskcolor="#d1d1d1"
     inkscape:zoom="2.766624"
     inkscape:cx="147.47215"
     inkscape:cy="147.29143"
     inkscape:window-width="1920"
     inkscape:window-height="1017"
     inkscape:window-x="-8"
     inkscape:window-y="-8"
     inkscape:window-maximized="1"
     inkscape:current-layer="g1" />
  <g
     inkscape:groupmode="layer"
     inkscape:label="Image"
     id="g1">
    <path
       style="fill:url(#linearGradient3)"
       d="m 247.06833,228.80846 c -2.8889,-5.96169 -5.47917,-10.65286 -7.0723,-12.80846 -1.21748,-1.64734 -2.50365,-4.18486 -3.57151,-7.04635 -1.07942,-2.89246 -1.76119,-4.16838 -4.49183,-8.40639 -1.29648,-2.01214 -2.42621,-3.93329 -2.51052,-4.2692 -0.35115,-1.3991 -2.14776,-3.3039 -3.95931,-4.19774 -1.56872,-0.77402 -2.21417,-0.91469 -5.37367,-1.17109 -2.90995,-0.23615 -3.95011,-0.21745 -5.48572,0.0986 -1.04219,0.21451 -2.57278,0.47947 -3.4013,0.58881 -1.644,0.21696 -3.29658,1.19351 -6.17186,3.64708 -1.1911,1.0164 -1.91411,1.41739 -2.79339,1.54925 -0.97735,0.14656 -1.43995,0.44667 -2.62592,1.70354 -0.79176,0.83909 -2.11843,1.98907 -2.94814,2.55549 -0.82972,0.56642 -1.75514,1.30436 -2.0565,1.63986 -1.4137,1.57387 -2.83549,1.66879 -5.36203,0.35798 l -1.38849,-0.72037 -3.15106,0.57729 -3.15106,0.57728 -2.25115,-0.67902 c -2.50175,-0.75461 -3.08939,-0.69664 -6.29403,0.62087 -2.78463,1.14484 -4.04427,1.29523 -6.28566,0.75046 -1.96757,-0.47822 -1.9957,-0.47716 -3.64431,0.13657 -3.01124,1.12101 -4.1813,1.22563 -8.11199,0.72533 -5.03175,-0.64045 -6.31129,-1.03691 -9.22056,-2.857 l -2.55154,-1.59629 -3.21463,-0.3259 c -1.86088,-0.18866 -4.05604,-0.60836 -5.21268,-0.99663 -3.27833,-1.1005 -3.79056,-1.11163 -6.69251,-0.14544 -1.45112,0.48315 -3.3752,1.38173 -4.37794,2.04459 -3.18708,2.1068 -3.36584,2.16636 -5.44792,1.81518 -2.16364,-0.36495 -2.6529,-0.221 -4.48967,1.32088 l -1.30372,1.09442 -1.43913,-0.54462 c -0.79153,-0.29954 -2.11799,-0.78505 -2.94771,-1.0789 -1.79185,-0.6346 -4.05416,-2.13006 -4.84928,-3.20552 -1.06271,-1.43739 -3.455009,-2.4349 -6.710504,-2.79807 -2.526898,-0.28189 -3.154333,-0.26574 -4.662857,0.12002 -1.773267,0.45345 -4.6297,1.74754 -7.384842,3.34565 -0.840116,0.4873 -2.681722,1.25719 -4.092456,1.71086 l -2.564973,0.82485 -0.981829,-0.77728 c -1.355067,-1.07277 -2.896963,-1.47504 -3.83001,-0.99923 -0.476115,0.24279 -2.506104,0.43318 -6.033439,0.56586 -4.527902,0.17031 -5.587072,0.29469 -7.145206,0.83907 -2.731301,0.95426 -6.142429,1.48152 -7.521386,1.16259 -0.797419,-0.18443 -1.711532,-0.15631 -3.057503,0.0941 -1.711886,0.31845 -2.959415,0.33623 -9.737142,0.13881 -0.678858,-0.0198 -1.731102,0.0536 -2.338322,0.16314 -0.860681,0.15521 -1.298065,0.0811 -1.984302,-0.33623 -0.749204,-0.45562 -0.844467,-0.62949 -0.639818,-1.16775 0.23483,-0.61765 0.02193,-3.09961 -0.897063,-10.45809 -0.272017,-2.17806 -0.32099,-3.48675 -0.147548,-3.94294 0.142784,-0.37555 0.256872,-1.0685 0.253528,-1.53988 -0.0095,-1.33925 0.212968,-3.44929 0.549667,-5.21339 0.169372,-0.88741 0.237067,-1.89589 0.150433,-2.24106 -0.221847,-0.88391 0.06075,-1.45124 0.952629,-1.91245 0.698765,-0.36134 0.989397,-0.33449 3.146748,0.29068 2.830471,0.82024 3.853202,1.31476 4.249138,2.05457 0.421047,0.78674 2.259222,1.87524 3.479305,2.06033 0.573511,0.087 1.968462,-0.0396 3.09989,-0.28127 1.131429,-0.2417 2.427429,-0.40481 2.88,-0.36246 1.915878,0.17927 4.941101,-0.03 5.995823,-0.41473 0.624583,-0.22784 1.844232,-0.49504 2.710331,-0.59378 0.866099,-0.0987 2.323216,-0.47285 3.238037,-0.83136 1.811868,-0.71007 1.944053,-0.69758 3.964381,0.37444 1.150656,0.61056 1.702586,0.72396 3.428571,0.70444 1.849599,-0.0209 4.593079,-0.64512 5.348571,-1.21692 0.150857,-0.11418 1.28572,-0.29523 2.521917,-0.40233 1.236198,-0.10711 2.461417,-0.35107 2.72271,-0.54213 0.391765,-0.28647 0.681112,-0.25625 1.649965,0.17232 1.442526,0.6381 2.37229,0.45223 3.1415,-0.62803 0.664091,-0.93263 1.640046,-1.48687 3.100738,-1.7609 0.577116,-0.10826 1.560279,-0.47735 2.184807,-0.82018 0.624529,-0.34284 2.082472,-0.87897 3.239875,-1.1914 1.878513,-0.50709 2.231774,-0.52856 3.291429,-0.20002 1.606697,0.49815 3.624797,1.32209 3.792777,1.54851 0.0754,0.10166 0.57987,0.32909 1.12098,0.50539 0.54111,0.1763 1.22774,0.54777 1.52585,0.8255 0.92045,0.85753 1.52882,1.06347 3.75389,1.27071 3.64159,0.33918 4.59784,0.68818 5.48032,2.00017 1.07196,1.59371 1.54817,1.79709 2.98645,1.27547 3.35376,-1.21631 3.44232,-1.22727 5.29355,-0.65549 2.00873,0.62044 2.44424,0.52777 3.58626,-0.76303 0.72725,-0.822 1.1146,-1.00035 2.79113,-1.28512 1.17104,-0.19892 2.2005,-0.23678 2.58369,-0.095 0.66974,0.24775 2.92734,0.032 4.02997,-0.38516 0.48701,-0.18425 1.01793,-0.0768 2.12475,0.42989 l 1.4755,0.67551 2.40097,-0.77303 c 2.61159,-0.84084 2.29846,-0.87248 4.5625,0.46092 0.69776,0.41094 2.01137,0.19396 2.77561,-0.45848 1.33068,-1.13601 2.00282,-1.39954 2.79827,-1.09711 0.42154,0.16027 0.95181,0.45638 1.17838,0.65801 0.22656,0.20163 1.27593,0.45257 2.33193,0.55763 1.58287,0.15749 2.21471,0.38029 3.59845,1.26889 0.92314,0.59282 2.09571,1.20229 2.60571,1.35436 1.77376,0.52893 7.20497,-0.31176 8.70436,-1.34733 1.74899,-1.20796 4.04026,-2.33291 5.33904,-2.62133 1.14368,-0.25397 1.51826,-0.49005 2.01093,-1.26741 1.20955,-1.90851 2.17555,-2.83901 3.60239,-3.47003 1.78146,-0.78784 2.46411,-0.65001 3.35206,0.67681 0.37361,0.55828 0.80281,1.10249 0.95376,1.20935 0.40179,0.28445 1.47244,-0.0473 2.9342,-0.90918 1.13751,-0.67071 1.40538,-0.72644 2.30189,-0.4789 0.70182,0.19378 1.37537,0.18929 2.18495,-0.0146 0.92752,-0.23355 1.41587,-0.20809 2.3535,0.12273 1.27543,0.44999 2.41691,0.33042 3.4771,-0.36424 0.3508,-0.22986 1.56207,-0.57864 2.69172,-0.77508 2.32545,-0.40439 5.86537,-2.17315 6.60334,-3.29943 0.69297,-1.05761 1.8888,-1.54988 3.26404,-1.34365 1.92737,0.28903 2.95525,-0.0313 3.53106,-1.10054 0.27616,-0.51281 0.72607,-1.13506 0.9998,-1.38278 0.50203,-0.45433 3.16585,-1.50105 5.47338,-2.1507 0.68764,-0.19359 1.77754,-0.70093 2.42199,-1.12741 1.1179,-0.73979 1.2306,-0.75978 2.45261,-0.43497 1.35998,0.36148 2.9466,1.67053 3.99294,3.29439 0.55057,0.85446 0.86505,1.00029 4.01231,1.86059 5.00034,1.36685 6.07759,1.93454 8.65093,4.55889 1.21528,1.23937 2.57618,2.44777 3.0242,2.68534 1.52732,0.80986 6.01533,6.88066 8.02591,10.85642 0.31702,0.62688 0.87464,1.37438 1.23916,1.6611 0.36451,0.28673 1.44795,1.55809 2.40765,2.82525 1.41509,1.86845 2.23742,2.6354 4.35062,4.05758 2.43945,1.64175 6.07642,3.60769 6.71226,3.62826 1.37866,0.0446 2.84144,3.86969 2.19924,5.75088 -0.18025,0.528 -0.48635,1.99052 -0.68023,3.25005 -0.32882,2.13612 -0.44171,2.39198 -1.67965,3.80663 -0.77833,0.88945 -1.55546,2.15421 -1.87928,3.05853 -0.85691,2.39296 -1.15479,2.82531 -2.47861,3.59743 -1.1927,0.69565 -1.25339,0.79625 -1.82457,3.02478 -0.68944,2.68991 -1.12317,3.15594 -3.17891,3.41559 -2.72662,0.34438 -3.16687,0.59499 -4.02963,2.2938 -1.00901,1.98681 -1.81218,2.71658 -4.68062,4.25287 l -2.33143,1.24867 z"
       id="path2" />
  </g>
</svg>
