<?xml version="1.0" encoding="UTF-8" standalone="no"?>
<!-- Created with Inkscape (http://www.inkscape.org/) -->

<svg
   version="1.1"
   id="svg1"
   width="294.58286"
   height="294.58286"
   viewBox="0 0 294.58286 294.58286"
   sodipodi:docname="two-hole-canine-large-v-outline.svg"
   inkscape:version="1.3.2 (091e20e, 2023-11-25, custom)"
   xmlns:inkscape="http://www.inkscape.org/namespaces/inkscape"
   xmlns:sodipodi="http://sodipodi.sourceforge.net/DTD/sodipodi-0.dtd"
   xmlns="http://www.w3.org/2000/svg"
   xmlns:svg="http://www.w3.org/2000/svg">
  <defs
     id="defs1" />
  <sodipodi:namedview
     id="namedview1"
     pagecolor="#ffffff"
     bordercolor="#000000"
     borderopacity="0.25"
     inkscape:showpageshadow="2"
     inkscape:pageopacity="0.0"
     inkscape:pagecheckerboard="0"
     inkscape:deskcolor="#d1d1d1"
     inkscape:zoom="2.1759583"
     inkscape:cx="147.29143"
     inkscape:cy="147.29143"
     inkscape:window-width="1600"
     inkscape:window-height="837"
     inkscape:window-x="-8"
     inkscape:window-y="-8"
     inkscape:window-maximized="1"
     inkscape:current-layer="g1" />
  <g
     inkscape:groupmode="layer"
     inkscape:label="Image"
     id="g1">
    <path
       style="fill:#000000"
       d="m 247.74715,231.70286 c -0.15086,-0.18858 -0.36847,-0.65143 -0.48356,-1.02858 -0.1151,-0.37714 -1.02795,-2.10514 -2.02856,-3.84 -1.00061,-1.73485 -1.97102,-3.46285 -2.15648,-3.84 -0.63809,-1.29764 -1.90431,-3.43315 -3.32819,-5.61306 -0.78478,-1.20147 -1.86431,-3.11461 -2.39896,-4.25143 -0.53465,-1.13681 -1.33001,-2.82515 -1.76746,-3.75186 -0.43745,-0.92671 -0.79537,-1.82509 -0.79537,-1.9964 0,-0.57844 -1.60656,-3.49917 -3.49995,-6.36294 -1.03533,-1.56594 -2.30633,-3.52602 -2.82444,-4.35573 -1.23231,-1.97343 -2.53174,-3.18787 -4.30667,-4.02501 -2.10319,-0.99196 -3.05714,-0.6959 -8.42129,2.61355 -1.50279,0.92716 -2.86467,1.68574 -3.02639,1.68574 -0.16172,0 -0.96874,0.43559 -1.79337,0.96798 -0.82462,0.53239 -1.99303,1.11017 -2.59646,1.28396 -1.68813,0.48618 -4.71989,2.53672 -6.99429,4.73061 -2.3262,2.24386 -2.98841,2.6921 -7.40571,5.01276 -4.9342,2.59222 -6.79066,2.79693 -10.34721,1.141 -0.8913,-0.41499 -1.72324,-0.58757 -2.60319,-0.54003 -0.9402,0.0508 -1.72642,-0.13291 -2.88,-0.67292 -1.37633,-0.6443 -2.11413,-0.7749 -5.56389,-0.98489 -2.18743,-0.13315 -4.224,-0.25739 -4.52571,-0.27608 -0.30172,-0.0187 -1.23919,0.15489 -2.08327,0.38575 -2.05554,0.56218 -6.40987,0.59612 -7.92439,0.0618 -0.64343,-0.22701 -1.92927,-0.41276 -2.85742,-0.41276 -1.3642,0 -2.07136,-0.18394 -3.69072,-0.96 -1.4617,-0.7005 -2.37245,-0.96 -3.36925,-0.96 -0.90818,0 -1.88078,-0.24349 -2.90167,-0.72645 -0.92341,-0.43685 -2.31084,-0.80725 -3.48016,-0.92911 -1.20906,-0.126 -2.56701,-0.49584 -3.59026,-0.97784 -1.60101,-0.75413 -1.77239,-0.77546 -6.30858,-0.78518 -4.53488,-0.01 -4.71178,0.0114 -6.44571,0.77059 -0.98057,0.42931 -2.02971,1.00377 -2.33143,1.27656 -1.21767,1.10097 -2.59348,1.42808 -5.21143,1.23906 -1.35771,-0.098 -3.08571,-0.35705 -3.84,-0.5756 -2.27772,-0.65995 -6.16952,-2.32284 -8.64,-3.69171 -1.28228,-0.7105 -3.10186,-1.63222 -4.0435,-2.04825 l -1.712066,-0.75642 -2.688474,0.44789 c -1.47866,0.24634 -2.998349,0.44789 -3.377087,0.44789 -0.378737,0 -1.299063,0.38908 -2.045169,0.86461 -2.338877,1.49069 -4.144206,2.14687 -6.653375,2.41827 -1.31075,0.14178 -2.762715,0.37203 -3.226588,0.51167 -1.517885,0.45694 -5.778934,0.66744 -7.168208,0.35411 -0.722755,-0.16301 -2.219157,-0.50007 -3.325337,-0.74904 -2.191475,-0.49324 -4.089075,-0.39927 -6.07315,0.30076 -0.645235,0.22765 -1.875199,0.41391 -2.733252,0.41391 -0.858053,0 -2.971678,0.1972 -4.696943,0.43823 -1.725266,0.24102 -3.75399,0.47058 -4.508276,0.51012 -0.754285,0.0395 -2.041831,0.27434 -2.861211,0.52177 -1.200697,0.36258 -2.754994,0.44988 -8.009951,0.44988 -4.01537,0 -6.765709,-0.11188 -7.159329,-0.29122 -0.924906,-0.42142 -1.259223,-1.40835 -1.574822,-4.649 -0.154097,-1.58231 -0.402762,-3.57002 -0.552589,-4.41714 -0.296504,-1.67643 0.273872,-12.24248 0.845676,-15.66594 0.272403,-1.6309 0.436938,-1.96233 1.411163,-2.84248 1.025467,-0.92645 1.201331,-0.98783 2.50765,-0.87525 0.930094,0.0802 2.285409,0.55107 4.010556,1.3935 2.885502,1.40906 8.350815,2.9361 10.508347,2.9361 2.781844,0 7.471401,-1.64718 10.456094,-3.67265 0.548149,-0.37198 1.393679,-0.75392 1.878954,-0.84874 0.485276,-0.0948 1.561177,-0.50487 2.390891,-0.91122 2.176242,-1.06581 5.444372,-1.01286 10.148571,0.16443 5.877418,1.4709 6.743533,1.57125 8.898058,1.03091 1.430511,-0.35876 2.770468,-0.45122 5.610643,-0.38714 l 3.731299,0.0842 1.851665,-1.42036 c 2.181795,-1.67359 2.88253,-1.8575 7.06262,-1.85364 2.85995,0.003 3.30455,0.073 4.76457,0.75429 0.88566,0.41325 1.95246,0.75137 2.37067,0.75137 1.54096,0 5.01086,0.89294 6.48671,1.66929 0.83571,0.4396 1.72809,0.79928 1.98308,0.79928 0.25499,0 1.01388,-0.56533 1.68643,-1.25628 1.6749,-1.72073 2.39011,-2.04298 4.4328,-1.99725 0.94994,0.0213 2.66265,-0.10724 3.80601,-0.28557 2.34873,-0.36633 4.21172,-0.0955 5.46079,0.79395 0.40608,0.28915 1.44208,0.78904 2.30223,1.11086 0.87833,0.32863 2.2222,1.16119 3.06556,1.89919 2.38253,2.0849 3.45391,2.13595 7.90011,0.37643 3.20164,-1.267 3.27342,-1.28152 4.52571,-0.9152 1.85021,0.54123 4.00737,0.64807 5.83296,0.28891 1.81296,-0.35668 2.04037,-0.28131 4.12629,1.36752 0.96348,0.76158 1.72055,1.09713 2.97322,1.31779 0.92433,0.16281 2.36811,0.6684 3.20841,1.12353 l 1.52781,0.8275 1.61355,-1.49386 c 1.64653,-1.5244 3.01582,-2.12853 4.55801,-2.01102 0.52741,0.0402 1.3009,-0.27019 2.28085,-0.91524 2.15748,-1.42014 2.46875,-1.55272 4.10964,-1.75042 0.8181,-0.0986 2.28973,-0.56851 3.2703,-1.04431 1.74789,-0.84813 1.86357,-0.86558 5.89715,-0.88938 4.79448,-0.0283 5.3645,-0.18256 8.44885,-2.28661 1.95068,-1.33068 2.24527,-1.44819 3.32529,-1.32646 1.42578,0.16071 2.77926,-0.34969 3.03105,-1.143 0.31614,-0.99607 2.0647,-1.66537 4.35084,-1.66537 l 2.03503,0 1.05537,-1.30285 c 1.31824,-1.62736 1.68497,-1.91718 2.71357,-2.14442 0.45257,-0.1 0.94628,-0.27086 1.09714,-0.37972 0.15086,-0.10887 1.07657,-0.48995 2.05714,-0.84685 0.98057,-0.35689 2.09143,-0.80824 2.46857,-1.00298 0.95186,-0.49151 3.41663,-0.44589 4.47077,0.0828 0.48279,0.24211 1.61838,1.15584 2.52352,2.0305 1.25099,1.20886 1.94176,1.65581 2.88,1.86348 1.31936,0.29203 6.97664,2.35606 9.10143,3.32061 1.02233,0.4641 1.67199,1.09956 3.18513,3.11553 1.04546,1.39289 2.64012,3.22334 3.54368,4.06766 2.06396,1.92865 3.64816,4.06303 4.4591,6.00772 0.97398,2.33568 2.18512,4.04399 4.69458,6.62168 2.88918,2.96774 4.7193,4.38251 7.43631,5.74859 2.68902,1.35201 4.82833,2.72337 5.68178,3.64219 0.58951,0.63465 0.67591,1.02504 0.78884,3.5643 0.0931,2.09291 -2e-4,3.42553 -0.35061,5.00884 -0.54763,2.47445 -0.91109,3.26903 -2.29839,5.02461 -0.54788,0.69332 -1.48823,2.23039 -2.08968,3.41572 -0.60144,1.18532 -1.40373,2.35197 -1.78285,2.59255 -0.94573,0.60013 -1.02538,0.73663 -1.69594,2.90637 -0.70253,2.27321 -1.39326,3.04553 -2.92651,3.27218 -0.62764,0.0928 -1.64437,0.24286 -2.25941,0.33351 -0.97096,0.1431 -1.24088,0.35084 -2.04925,1.57714 -0.51205,0.77678 -1.08917,1.61016 -1.28248,1.85197 -0.53758,0.67243 -3.96361,3.20652 -5.16105,3.81741 -1.23471,0.6299 -1.73442,0.67715 -2.1161,0.20009 z m 2.2983,-2.04476 c 2.56523,-1.423 3.92098,-2.57846 4.88237,-4.16108 1.30006,-2.14013 1.67177,-2.40268 3.68375,-2.60197 2.7069,-0.26812 3.09206,-0.55243 3.6396,-2.68667 0.53774,-2.09598 1.07959,-3.04286 1.97469,-3.45069 0.36765,-0.16752 0.99827,-1.03577 1.51576,-2.08692 0.48739,-0.99004 1.42036,-2.5154 2.07327,-3.3897 1.59581,-2.13695 1.95582,-2.9206 2.30535,-5.01821 0.56906,-3.41498 0.60913,-4.80602 0.18009,-6.25077 -0.37048,-1.24754 -0.58237,-1.49787 -1.9861,-2.34649 -0.86426,-0.52248 -2.5773,-1.46217 -3.80675,-2.08819 -2.38803,-1.21595 -6.53857,-4.50375 -8.77582,-6.95166 -1.50385,-1.64544 -3.3117,-4.57086 -4.03444,-6.52844 -0.34336,-0.92998 -1.39431,-2.23085 -3.98863,-4.93714 -1.93734,-2.02095 -4.09598,-4.34822 -4.79699,-5.17171 -0.701,-0.82349 -1.6281,-1.72111 -2.06022,-1.9947 -1.32447,-0.8386 -8.13497,-3.22805 -9.2007,-3.22805 -0.34982,0 -1.23548,-0.66507 -2.21927,-1.66652 -0.90042,-0.91659 -1.97042,-1.8423 -2.37779,-2.05714 -1.08591,-0.5727 -3.13771,-0.49831 -4.04341,0.14661 -0.41496,0.29548 -1.17459,0.60976 -1.68806,0.6984 -0.51347,0.0886 -1.42729,0.38915 -2.03072,0.66779 -0.60343,0.27865 -1.4258,0.58116 -1.8275,0.67225 -0.45238,0.10259 -1.11979,0.69615 -1.7536,1.55957 -1.22746,1.67213 -1.74766,1.89904 -4.35364,1.89904 -1.79724,0 -2.07581,0.0739 -2.725,0.72312 -0.39772,0.39771 -0.72312,0.81752 -0.72312,0.93291 0,0.11538 -0.44364,0.47154 -0.98587,0.79147 -0.79777,0.47069 -1.24046,0.5479 -2.32014,0.40468 -1.21742,-0.1615 -1.44936,-0.0951 -2.64842,0.75768 -3.49501,2.48582 -4.53405,2.79255 -9.54271,2.81706 -3.68993,0.0181 -3.90388,0.0506 -5.47456,0.83336 -0.99427,0.49549 -2.29368,0.88279 -3.31721,0.98873 -1.64746,0.17051 -2.28625,0.48136 -4.32642,2.10528 -0.57182,0.45515 -1.1369,0.61714 -2.15283,0.61714 -1.77434,0 -2.82349,0.51497 -4.48422,2.20106 -0.73928,0.75056 -1.54286,1.36466 -1.78574,1.36466 -0.24289,0 -1.15985,-0.38902 -2.03771,-0.86449 -0.87786,-0.47547 -2.41178,-1.03531 -3.40871,-1.24408 -1.40596,-0.29444 -2.17499,-0.66089 -3.42794,-1.63346 l -1.61534,-1.25386 -1.56275,0.33164 c -0.85952,0.1824 -2.26193,0.28819 -3.11647,0.23508 l -1.55371,-0.0966 3.8e-4,0.91779 c 2e-4,0.50478 -0.197,1.59671 -0.43823,2.4265 -0.51625,1.77584 -0.41598,2.69924 0.72265,6.65562 0.81743,2.84026 1.03114,4.78153 0.55856,5.0736 -0.29205,0.1805 -0.48157,-0.41909 -0.53786,-1.7016 -0.0215,-0.49002 -0.33729,-1.84773 -0.70174,-3.01714 -1.18512,-3.80271 -1.36777,-5.27916 -0.86643,-7.0037 1.05749,-3.63764 0.13914,-4.87367 -2.58751,-3.48264 -0.59742,0.30478 -1.08621,0.72311 -1.08621,0.92962 0,0.54902 -1.01245,1.70787 -1.26887,1.45233 -0.12041,-0.12 -0.0608,-0.47145 0.13254,-0.78099 0.19331,-0.30954 0.30664,-0.60764 0.25184,-0.66244 -0.0548,-0.0548 -0.81806,0.16501 -1.69613,0.48846 -1.42408,0.5246 -1.78512,0.5558 -3.34319,0.28891 -1.46906,-0.25164 -1.97359,-0.49767 -3.17408,-1.54782 -0.78505,-0.68675 -2.11404,-1.51753 -2.95331,-1.84618 -0.83927,-0.32865 -1.98754,-0.90498 -2.5517,-1.28072 -1.16254,-0.77426 -2.40704,-0.85711 -7.33996,-0.48865 -3.15877,0.23595 -3.76046,0.48355 -5.19798,2.13905 l -0.89313,1.02857 h 0.79043 c 0.43475,0 1.69188,-0.432 2.79363,-0.96 2.20051,-1.05457 2.78134,-1.16912 2.78134,-0.54857 0,0.22629 -0.18867,0.41143 -0.41925,0.41143 -0.23059,0 -1.13307,0.36033 -2.00552,0.80074 -0.87244,0.44041 -2.01063,0.87653 -2.52932,0.96915 -1.08594,0.19392 -4.17978,-0.61699 -5.54641,-1.45374 -1.11526,-0.68285 -2.71204,-1.10884 -5.21985,-1.39257 -1.08409,-0.12266 -2.58822,-0.51692 -3.34251,-0.87615 -1.19818,-0.57063 -1.7699,-0.65314 -4.52571,-0.65314 -1.73486,0 -3.46855,0.0886 -3.85264,0.1969 -0.384099,0.10829 -1.460478,0.80854 -2.391958,1.5561 -2.080397,1.66963 -2.405102,1.77763 -4.294379,1.42838 -2.226538,-0.4116 -4.2153,-0.10072 -5.363522,0.83841 -0.891783,0.72938 -1.932073,1.04044 -1.921337,0.57449 0.0026,-0.11314 0.403749,-0.49708 0.891428,-0.85319 0.809784,-0.59132 0.827215,-0.63313 0.200975,-0.4821 -3.84821,0.92808 -3.528725,0.9534 -10.602531,-0.84017 l -2.785387,-0.70623 -1.960628,1.94128 c -1.874332,1.85583 -2.862931,2.50036 -3.246617,2.11668 -0.09717,-0.0972 0.251556,-0.50435 0.774956,-0.90482 1.461827,-1.11852 3.008778,-2.70552 3.008778,-3.08668 0,-0.25514 -0.523251,-0.30904 -2.049202,-0.21111 -3.498002,0.22448 -5.118328,1.92207 -6.01922,6.30621 -0.528698,2.57287 -0.533297,3.4389 -0.02301,4.33156 0.46472,0.81294 0.519117,1.37143 0.133578,1.37143 -0.152818,0 -0.546066,-0.55207 -0.873883,-1.22682 -0.592617,-1.21978 -0.593333,-1.24205 -0.124835,-3.88614 0.25916,-1.46263 0.770742,-3.25571 1.13685,-3.98462 0.366108,-0.7289 0.537961,-1.32528 0.381896,-1.32528 -0.156066,0 -1.511043,0.69761 -3.01106,1.55025 -1.938465,1.10186 -2.773581,1.73464 -2.887305,2.18775 -0.224244,0.89346 -2.272299,2.70609 -2.640986,2.3374 -0.196472,-0.19647 -0.0158,-0.51059 0.58395,-1.01525 0.477645,-0.40191 0.982104,-0.94312 1.121019,-1.20268 0.226274,-0.4228 0.0043,-0.40494 -2.131897,0.17148 -1.95128,0.52653 -2.783109,0.61409 -4.578756,0.48196 -2.755224,-0.20274 -7.789638,-1.66255 -10.774429,-3.12422 -2.789977,-1.36627 -3.902825,-1.44097 -4.704036,-0.31578 -0.346859,0.48712 -0.567249,1.22421 -0.567249,1.89715 0,0.60528 -0.138876,1.14681 -0.308613,1.20338 -0.199845,0.0666 -0.456051,2.32226 -0.726942,6.4 -0.384667,5.79043 -0.381905,6.47661 0.03433,8.52757 0.24896,1.22674 0.452655,2.72151 0.452655,3.32171 0,0.60021 0.07759,1.65741 0.172434,2.34933 0.14337,1.046 0.293616,1.29615 0.891428,1.48415 0.395448,0.12436 3.681281,0.15918 7.301853,0.0774 4.9722,-0.11235 6.806962,-0.24853 7.49879,-0.55656 l 0.915933,-0.40782 -1.159726,-1.31752 c -0.795949,-0.90425 -1.071076,-1.40617 -0.877108,-1.60014 0.193968,-0.19397 0.700624,0.24214 1.615222,1.39031 1.521424,1.90996 0.969609,1.8259 6.544031,0.99689 1.508572,-0.22435 3.498768,-0.41183 4.422658,-0.41661 0.923891,-0.005 2.186305,-0.18741 2.805367,-0.40582 1.67685,-0.59163 4.140694,-0.79883 5.415875,-0.45546 4.140154,1.11483 8.18909,1.31347 11.155021,0.54728 l 1.033207,-0.26691 -0.677582,-1.15621 C 80.795411,198.5495 80.298363,193.92 81.193797,193.92 c 0.147983,0 0.26906,0.53858 0.26906,1.19685 0,1.96 0.511895,4.06931 1.263,5.20431 l 0.705049,1.0654 1.690261,-0.1139 c 2.119901,-0.14286 5.110022,-1.40983 4.946375,-2.09587 -0.14412,-0.60418 0.304045,-1.26307 0.694837,-1.02155 0.170184,0.10518 0.238414,0.30614 0.151621,0.44657 -0.212283,0.34348 -0.08426,0.32474 1.06655,-0.1561 0.541578,-0.22628 1.451509,-0.4132 2.022068,-0.41538 1.106114,-0.004 1.049646,0.0624 3.202524,-3.78012 0.679719,-1.2132 0.730235,-2.76375 0.103228,-3.16847 -0.39633,-0.25582 -0.701297,-0.0829 -1.851429,1.04997 -1.030638,1.01514 -1.376942,1.22903 -1.376942,0.85046 0,-0.63207 2.234282,-2.90217 2.856378,-2.90217 0.625645,0 1.806479,1.22435 1.806479,1.87305 0,0.91028 -0.7511,2.70489 -1.757595,4.19945 -0.533396,0.79205 -0.918236,1.49167 -0.855199,1.5547 0.06304,0.063 0.732969,-0.0337 1.488739,-0.21503 0.755769,-0.18131 1.763238,-0.24418 2.238821,-0.13973 1.063408,0.23357 3.882308,1.5362 6.382718,2.9495 3.38867,1.91538 7.73315,3.49384 10.50993,3.81853 3.07478,0.35953 4.07901,0.1894 5.61902,-0.95193 2.22807,-1.65126 5.52181,-2.46131 9.49418,-2.33497 1.39577,0.0444 2.53748,0.005 2.53714,-0.0876 -0.001,-0.36475 -1.49434,-1.63479 -2.10071,-1.78698 -0.35352,-0.0887 -0.64276,-0.34629 -0.64276,-0.57236 0,-0.26212 0.15718,-0.35072 0.43386,-0.24455 0.23863,0.0916 0.5429,0.16649 0.67617,0.16649 0.48458,0 2.1814,1.71587 2.1814,2.20589 0,0.39433 0.28219,0.53932 1.30286,0.66939 0.71657,0.0913 1.95359,0.46917 2.74893,0.83966 0.79534,0.3705 1.87345,0.67363 2.39579,0.67363 h 0.94971 l -1.09175,-1.44 c -1.06792,-1.40857 -1.35081,-2.12571 -0.8385,-2.12571 0.14058,0 0.53045,0.40114 0.86638,0.89143 2.00823,2.93105 5.68932,5.01526 7.58494,4.29455 0.55051,-0.20931 0.9288,-0.10514 1.99042,0.54808 1.85842,1.1435 3.67067,1.70501 4.88137,1.51245 0.61942,-0.0985 1.49702,0.006 2.24985,0.26913 1.86229,0.64978 6.16348,0.58575 8.26759,-0.12307 1.42686,-0.48068 1.87111,-0.51943 3.07928,-0.26862 0.77652,0.16121 2.8063,0.35367 4.51062,0.42769 2.60902,0.11332 3.3161,0.24473 4.47393,0.83144 1.01749,0.5156 1.70909,0.67531 2.65902,0.61403 1.18977,-0.0768 1.27798,-0.13308 1.20381,-0.76854 -0.40042,-3.43054 -0.4968,-5.11348 -0.30495,-5.32467 0.31984,-0.35206 0.79641,1.03137 0.79641,2.31188 0,1.51076 0.52617,3.77406 0.98377,4.23166 0.48045,0.48045 3.06023,1.2497 4.19102,1.2497 0.97488,0 3.70408,-0.95929 4.6995,-1.65184 0.37714,-0.26239 1.79657,-1.05148 3.15429,-1.75352 1.77265,-0.91661 3.0485,-1.84126 4.52571,-3.27994 1.13143,-1.10192 2.67429,-2.44232 3.42857,-2.97866 1.52581,-1.08493 4.54388,-2.6789 5.07234,-2.6789 0.18789,0 1.05277,-0.432 1.92195,-0.96 0.86918,-0.528 1.69963,-0.96 1.84545,-0.96 0.14582,0 1.36396,-0.69515 2.70698,-1.54479 2.925,-1.85045 5.46371,-3.08655 6.77681,-3.29964 1.94405,-0.31547 5.48487,1.95512 7.27746,4.66675 4.81614,7.28532 6.39764,10.18552 8.99087,16.48768 0.43227,1.0505 1.84252,3.58079 3.13391,5.62286 1.29138,2.04207 2.7277,4.47377 3.19182,5.40378 0.46411,0.93 1.53781,2.85387 2.38599,4.27527 0.84817,1.4214 1.54214,2.72791 1.54214,2.90337 0,0.4291 0.0133,0.42545 1.54259,-0.42289 z m 2.57169,-18.57739 c 0,-0.65882 0.5175,-1.80071 0.81607,-1.80071 0.37194,0 0.3562,0.63215 -0.0372,1.49566 -0.34723,0.7621 -0.77883,0.93115 -0.77883,0.30505 z m -91.8573,-6.33597 c -0.86656,-0.98696 -0.98788,-1.27099 -0.67605,-1.58282 0.1771,-0.1771 2.26129,1.96604 2.2821,2.34665 0.0287,0.52427 -0.83626,0.11292 -1.60605,-0.76383 z m 10.94302,0.052 c 0,-0.37894 0.19304,-0.88202 0.42898,-1.11796 0.38406,-0.38406 0.51247,-0.38581 1.22616,-0.0167 0.7939,0.41054 1.53991,1.41721 1.25866,1.69846 -0.0813,0.0813 -0.55202,-0.19237 -1.0461,-0.60811 l -0.89833,-0.75589 -0.14939,0.63285 c -0.21129,0.89501 -0.81998,1.01928 -0.81998,0.1674 z m 15.69278,0.0261 c 2.6e-4,-0.33943 -0.0927,-1.69519 -0.20659,-3.0128 l -0.20706,-2.39566 1.2434,-1.17006 c 0.68388,-0.64353 1.6895,-1.55376 2.23472,-2.02273 0.67783,-0.58303 0.99132,-1.08394 0.99132,-1.58399 0,-1.07514 -0.97219,-3.6563 -1.77218,-4.70514 -1.07915,-1.41484 -0.81908,-2.12648 0.32198,-0.88105 0.79972,0.87286 1.66206,2.68041 2.00162,4.1956 0.42787,1.9092 -0.002,2.92116 -1.80879,4.25574 -2.44693,1.80764 -2.58908,2.19647 -2.17483,5.94866 0.18787,1.70167 0.15869,1.98857 -0.20226,1.98857 -0.2547,0 -0.42161,-0.24448 -0.42133,-0.61714 z m 55.6215,0.22942 c 0,-0.23358 0.31432,-0.50358 0.69849,-0.6 1.30151,-0.32666 1.22682,0.443 -0.0814,0.83823 -0.45455,0.13733 -0.61714,0.0746 -0.61714,-0.23823 z m 15.90857,-0.0597 c 0,-0.24609 0.38431,-1.56672 0.85402,-2.93473 0.81873,-2.38453 0.84104,-2.56587 0.53986,-4.38956 -0.17279,-1.04625 -0.24646,-1.96996 -0.16373,-2.05269 0.34406,-0.34407 0.73002,0.52328 0.99757,2.24179 0.2676,1.71884 0.23359,1.97819 -0.55998,4.27026 -0.46468,1.34216 -0.84488,2.63651 -0.84488,2.87633 0,0.23983 -0.18514,0.43605 -0.41143,0.43605 -0.22628,0 -0.41143,-0.20135 -0.41143,-0.44745 z m -104.45345,-1.15416 c -0.82738,-0.73868 -1.13713,-1.41553 -0.6478,-1.41553 0.29178,0 2.24411,1.73607 2.24411,1.99553 0,0.43685 -0.77123,0.15664 -1.59631,-0.58 z m 12.89713,-0.40644 c -0.41892,-1.1585 -0.41355,-1.28338 0.0552,-1.28338 0.41562,0 1.07638,1.5532 0.83021,1.95151 -0.27996,0.45299 -0.5551,0.24538 -0.88542,-0.66813 z M 61.988571,201.10121 c 0,-0.98202 0.773584,-3.6155 1.062055,-3.6155 0.483462,0 0.523277,0.37646 0.151314,1.43071 -0.214781,0.60876 -0.390512,1.52332 -0.390512,2.03235 0,0.63982 -0.127001,0.92551 -0.411428,0.92551 -0.268398,0 -0.411429,-0.26875 -0.411429,-0.77307 z m 48.938749,-1.99437 c -0.14139,-1.43489 -0.33822,-2.08118 -0.75094,-2.46568 -0.63894,-0.59526 -0.48492,-0.93243 0.31059,-0.67994 0.68919,0.21874 1.0621,1.21971 1.25769,3.37592 0.12456,1.37315 0.0778,1.71429 -0.23511,1.71429 -0.28322,0 -0.4433,-0.53468 -0.58223,-1.94459 z m -37.064481,1.20882 c -0.0974,-0.25381 -0.01341,-1.45724 0.186646,-2.67429 0.200053,-1.21704 0.417757,-3.45975 0.483786,-4.98381 0.118634,-2.73826 0.108429,-2.79408 -0.863752,-4.72458 -1.117838,-2.21973 -1.12362,-2.24155 -0.593788,-2.24155 0.215878,0 0.828208,0.92317 1.371429,2.06761 0.878172,1.8501 0.981411,2.30455 0.981411,4.3201 0,1.23887 -0.183,3.11645 -0.406666,4.17239 -0.223666,1.05594 -0.408809,2.50618 -0.411429,3.22275 -0.0047,1.28722 -0.404082,1.73667 -0.747637,0.84138 z m 82.721371,-0.91172 c -0.33592,-1.12118 -0.18124,-1.69354 0.32175,-1.19055 0.15382,0.15382 0.35305,0.73187 0.44274,1.28457 0.22416,1.38134 -0.34338,1.31154 -0.76449,-0.094 z m -6.68641,-0.88966 c -0.29674,-0.792 -0.58285,-1.53257 -0.63581,-1.64571 -0.053,-0.11314 0.0763,-0.20571 0.28721,-0.20571 0.46649,0 1.30794,1.68234 1.30794,2.61502 0,1.08695 -0.37902,0.78526 -0.95934,-0.7636 z m 93.03294,-0.38262 c 0.12295,-0.58156 0.22354,-2.50776 0.22354,-4.28045 0,-2.21883 0.0969,-3.223 0.31087,-3.22286 0.47016,3.3e-4 0.64355,0.99227 0.62332,3.56593 -0.0202,2.57387 -0.46419,4.69534 -1.02059,4.87699 -0.2809,0.0917 -0.31124,-0.11613 -0.13714,-0.93961 z M 161.17714,198 c -0.24276,-1.2138 -0.2127,-1.88572 0.0844,-1.88572 0.26728,0 0.40632,0.36488 0.70551,1.85143 0.13673,0.67936 0.0845,0.89143 -0.21952,0.89143 -0.22738,0 -0.47266,-0.3686 -0.57037,-0.85714 z m -76.283445,-0.23633 c -0.238246,-0.38549 0.140259,-2.74653 0.440305,-2.74653 0.324845,0 0.31351,2.66699 -0.01219,2.86829 -0.140433,0.0868 -0.333084,0.032 -0.428114,-0.12176 z m 78.716415,-2.86034 c -0.38486,-0.87023 -1.12829,-2.25217 -1.65207,-3.07097 -0.9779,-1.52871 -1.14773,-2.02665 -0.69122,-2.02665 0.78467,0 3.84588,5.87701 3.32996,6.39294 -0.19971,0.19971 -0.49963,-0.19403 -0.98667,-1.29532 z m 5.45029,0.59381 c -1.92074,-2.06273 -3.40095,-4.59041 -4.48343,-7.65611 -1.23222,-3.4898 -1.23887,-3.52103 -0.74906,-3.52103 0.20375,0 0.804,1.29298 1.41629,3.05078 1.11736,3.20776 2.73753,5.963 4.49358,7.6417 1.20498,1.15191 1.23973,1.05813 0.91284,-2.46391 -0.23915,-2.57667 -0.0239,-3.73602 0.45384,-2.44466 0.30565,0.82615 0.62742,5.34131 0.41929,5.88367 -0.27713,0.72219 -1.57476,0.46384 -2.46335,-0.49044 z m -27.52897,-0.53089 c 0,-0.17885 0.25901,-0.60089 0.57558,-0.93786 0.7206,-0.76704 1.97021,-4.77205 2.00217,-6.41696 0.0132,-0.67886 -0.0775,-1.63543 -0.20153,-2.12572 -0.17939,-0.70908 -0.14155,-0.89143 0.18497,-0.89143 0.27105,0 0.51139,0.47045 0.70751,1.38493 0.37892,1.76687 0.37475,1.92452 -0.0883,3.33692 -0.21193,0.64641 -0.58328,1.8768 -0.82521,2.7342 -0.55627,1.97136 -2.35516,4.19857 -2.35516,2.91592 z m 89.59517,-0.70339 c -0.0906,-0.41486 -0.24391,-1.032 -0.34056,-1.37143 -0.12479,-0.43822 -0.0598,-0.61715 0.22427,-0.61715 0.35669,0 1.0354,1.59407 1.0354,2.43183 0,0.64584 -0.76136,0.27867 -0.91911,-0.44325 z m -183.771226,-0.002 c -0.07064,-0.11429 -0.209168,-0.70058 -0.307848,-1.30286 l -0.179418,-1.09505 0.565946,0.64753 c 0.574695,0.65754 0.779171,1.95818 0.307847,1.95818 -0.141954,0 -0.315891,-0.0935 -0.386527,-0.2078 z m 11.595887,-0.47791 c -0.02069,-0.15086 -0.06094,-0.768 -0.08945,-1.37143 -0.02851,-0.60343 -0.152145,-1.31315 -0.274741,-1.57715 -0.157262,-0.33864 -0.106068,-0.48 0.173845,-0.48 0.460636,0 1.033372,1.11825 1.033372,2.01763 0,0.62597 -0.773207,1.92007 -0.843024,1.41095 z m 56.242719,-1.69143 c -0.006,-1.68503 -0.51295,-3.10968 -1.75662,-4.93991 -0.85658,-1.26057 -0.94519,-3.33821 -0.26039,-6.10543 0.50243,-2.03027 0.51427,-2.05477 0.88308,-1.82683 0.171,0.10568 0.139,0.73596 -0.0884,1.74175 -0.84431,3.7339 -0.83295,3.86175 0.58088,6.53653 1.13626,2.14968 1.29499,2.6576 1.31287,4.20114 0.0136,1.17415 -0.0932,1.79507 -0.32252,1.87429 -0.24823,0.0858 -0.34452,-0.32317 -0.34888,-1.48154 z m 63.80091,1.04368 c -0.41628,-0.67356 1.89963,-6.89511 2.56665,-6.89511 0.46072,0 0.34655,0.51265 -0.52491,2.35711 -0.44814,0.94848 -0.95863,2.31815 -1.13443,3.0437 -0.35237,1.45425 -0.63964,1.92739 -0.90731,1.4943 z m 77.33682,-0.56759 c -0.18735,-0.30315 0.24532,-0.63048 0.4986,-0.37721 0.26079,0.26079 0.21219,0.63255 -0.0827,0.63255 -0.14195,0 -0.32911,-0.1149 -0.4159,-0.25534 z m -138.62885,-2.28575 c 0,-2.69889 -0.57179,-4.38004 -2.11245,-6.21102 -0.75903,-0.90205 -0.70596,-1.45556 0.0913,-0.95264 1.58965,1.00272 2.94238,4.60413 2.76144,7.35188 -0.13747,2.08759 -0.74032,1.93432 -0.74032,-0.18822 z m 7.56385,-0.47065 c 0.12258,-1.46208 0.0471,-2.21154 -0.31929,-3.17095 -0.51536,-1.34945 -0.35113,-1.97353 0.28898,-1.09812 0.86454,1.18233 1.21322,4.04482 0.66753,5.48009 -0.50351,1.32433 -0.80218,0.7567 -0.63722,-1.21102 z m 10.57135,0.90341 c -0.3624,-0.88455 -0.2172,-4.56181 0.2136,-5.40986 0.49113,-0.9668 1.74479,-1.94451 2.16239,-1.68643 0.19098,0.11804 -0.0439,0.51457 -0.63499,1.07205 -1.09238,1.03025 -1.39885,2.21979 -1.18357,4.59395 0.14516,1.60084 -0.16329,2.3923 -0.55743,1.43029 z m 62.7448,0.0832 c 0,-0.20869 0.22816,-0.4391 0.50702,-0.51202 0.76743,-0.20069 0.8558,-1.08943 0.26998,-2.71538 -0.84024,-2.33209 -0.86066,-2.42744 -0.51962,-2.42744 0.46613,0 1.66262,2.86774 1.66262,3.98496 0,0.58646 -0.2107,1.16287 -0.54858,1.50075 -0.63248,0.63248 -1.37142,0.72361 -1.37142,0.16913 z M 83.657142,190.34568 c 0,-0.32277 0.270589,-0.42823 1.714286,-0.66817 1.310669,-0.21782 1.472765,0.51936 0.171429,0.77963 -1.244099,0.24882 -1.885715,0.2109 -1.885715,-0.11146 z m 4.261527,-1.19065 c -1.150263,-1.15026 -1.513903,-4.28646 -0.497013,-4.28646 0.319763,0 0.371505,0.20958 0.233437,0.94555 -0.215368,1.14801 0.378051,2.72163 1.190257,3.15631 0.314486,0.16831 0.571792,0.4251 0.571792,0.57065 0,0.48785 -0.841323,0.2711 -1.498473,-0.38605 z m 89.864141,-0.50296 c -0.30622,-0.48365 -0.48368,-0.99763 -0.39435,-1.14216 0.19986,-0.32338 1.44582,1.07732 1.44582,1.62538 0,0.65954 -0.4625,0.44698 -1.05147,-0.48322 z m -95.346867,0.35196 c -0.236477,-0.38263 1.114527,-2.14464 1.814793,-2.36689 0.958689,-0.30428 0.848547,0.068 -0.408163,1.37957 -0.724091,0.75571 -1.299962,1.15991 -1.40663,0.98732 z m 68.258227,-0.77546 c -0.54913,-1.27033 -1.0946,-4.7406 -0.84669,-5.38664 0.32376,-0.8437 0.73538,-0.17452 0.73538,1.19553 0,0.73195 0.24526,2.11323 0.54503,3.06953 0.62844,2.00482 0.64747,2.15015 0.2815,2.15015 -0.14883,0 -0.47068,-0.46286 -0.71522,-1.02857 z m 79.28686,0.65669 c -0.78364,-0.53863 -2.99592,-1.20512 -5.20389,-1.56775 -2.2966,-0.37719 -4.75055,-1.48127 -6.64518,-2.9898 -0.7632,-0.60767 -1.61682,-1.10433 -1.89694,-1.10368 -0.28012,6.5e-4 -1.06474,0.3704 -1.74359,0.82168 -1.29434,0.86043 -2.04351,1.05623 -1.85284,0.48424 0.16394,-0.49185 2.98469,-2.12748 3.67126,-2.12882 0.32128,-6.2e-4 1.30352,0.55748 2.18276,1.24022 2.06789,1.60575 3.9305,2.47335 6.14739,2.86346 3.4137,0.60072 4.83687,1.11053 5.46256,1.95682 0.66309,0.89688 0.64726,0.95206 -0.12153,0.42363 z M 102.08,188.77714 c 0.0503,-0.11314 0.56761,-1.15127 1.14962,-2.30696 0.79777,-1.58413 1.09409,-2.54852 1.20408,-3.91864 0.0927,-1.15495 0.25687,-1.7809 0.45037,-1.71727 0.88294,0.29033 0.29588,3.56292 -1.12963,6.29716 -0.53089,1.01828 -1.14539,1.85143 -1.36556,1.85143 -0.22017,0 -0.35917,-0.0926 -0.30888,-0.20572 z m 26.90286,-0.25022 c -0.61852,-0.24958 -0.35886,-0.64121 0.42514,-0.64121 0.4224,0 0.91611,-0.14811 1.09714,-0.32914 0.45222,-0.45222 0.40608,-3.01295 -0.0924,-5.12765 -0.2274,-0.96466 -0.34694,-1.82043 -0.26566,-1.90171 0.54555,-0.54555 1.48294,2.78618 1.50043,5.33294 0.0146,2.13351 -1.13495,3.28402 -2.66465,2.66677 z M 50.911472,186.72 c 0.11307,-0.33943 0.205582,-0.80229 0.205582,-1.02857 0,-0.22629 -0.09251,-0.68915 -0.205582,-1.02857 -0.150611,-0.45213 -0.09847,-0.61715 0.194984,-0.61715 0.476063,0 0.733544,0.57767 0.733544,1.64572 0,1.06805 -0.257481,1.64571 -0.733544,1.64571 -0.293458,0 -0.345595,-0.16502 -0.194984,-0.61714 z m 41.291333,-1.50857 c -0.615033,-2.79983 -0.531543,-6.40874 0.132891,-5.74431 0.07656,0.0766 0.243238,1.41578 0.370398,2.97604 0.12716,1.56026 0.317561,3.11455 0.423114,3.45398 0.140906,0.45312 0.08133,0.61714 -0.224147,0.61714 -0.273329,0 -0.514242,-0.44695 -0.702256,-1.30285 z m 4.528623,0.57143 c -0.100571,-0.10058 -0.182857,-1.22172 -0.182857,-2.49143 0,-1.72427 0.08678,-2.27997 0.342857,-2.19557 0.215653,0.0711 0.393739,0.86822 0.48,2.14857 l 0.137143,2.03557 1.168952,-1.53778 c 0.642923,-0.84579 1.366207,-2.11669 1.607287,-2.82424 0.24143,-0.70855 0.57882,-1.23711 0.75105,-1.17662 0.68912,0.24205 -0.33335,2.70769 -1.984013,4.78435 -1.042286,1.31128 -1.836177,1.74139 -2.320419,1.25715 z m 77.309432,-0.62936 c -0.0972,-0.15728 0.13263,-0.40357 0.51073,-0.54733 0.59471,-0.22611 0.69869,-0.45439 0.77079,-1.69221 0.12283,-2.10901 0.76905,-2.12736 0.76905,-0.0218 0,0.97884 -0.1376,1.74507 -0.34286,1.90929 -0.57469,0.45977 -1.52062,0.6548 -1.70771,0.35208 z m 28.72485,-2.67716 c -1.42464,-0.55845 -2.53714,-1.15405 -2.53714,-1.3583 0,-0.48603 -0.0461,-0.49615 2.59852,0.57025 3.14568,1.26844 4.14459,1.40794 5.41364,0.75605 0.55984,-0.28758 1.08441,-0.45635 1.16572,-0.37504 0.31169,0.31169 0.11895,0.60584 -0.6614,1.00937 -1.31988,0.68253 -3.17946,0.49521 -5.97934,-0.60233 z m -122.674282,-0.6526 c 0,-0.95447 1.067267,-2.94301 1.684722,-3.13898 0.844602,-0.26807 0.927378,0.0605 0.203796,0.80904 -0.359828,0.37221 -0.786765,1.14027 -0.948751,1.70679 -0.334273,1.16908 -0.939767,1.57057 -0.939767,0.62315 z m 124.963922,-1.81515 c -0.28698,-0.0734 -1.27441,-0.53676 -2.19428,-1.02965 -0.91988,-0.49289 -2.28964,-1.05385 -3.04393,-1.24656 -1.43643,-0.36701 -2.00129,-0.69109 -1.7108,-0.98158 0.32735,-0.32735 3.0877,0.51315 5.16013,1.57121 1.14284,0.58346 2.33527,1.06085 2.64985,1.06085 0.31457,0 1.35437,-0.24527 2.31067,-0.54504 2.01295,-0.63099 3.62589,-0.72872 3.45354,-0.20925 -0.0626,0.18857 -0.59742,0.41862 -1.18857,0.51122 -0.59115,0.0926 -1.81046,0.37032 -2.70959,0.61715 -1.68562,0.46273 -1.84457,0.4774 -2.72702,0.25165 z m -18.26678,-0.92669 c -0.528,-0.13464 -2.16343,-0.16782 -3.63429,-0.0737 -1.81063,0.11582 -2.67428,0.077 -2.67428,-0.12007 0,-0.64262 0.97029,-0.70224 8.36571,-0.51409 1.056,0.0269 2.19772,-0.052 2.53715,-0.17535 0.46174,-0.16774 0.61714,-0.1227 0.61714,0.17888 0,0.86559 -2.99288,1.27009 -5.21143,0.70436 z m -79.26018,-1.0548 c -0.20161,-0.37671 -0.19154,-0.73846 0.0344,-1.23428 0.33788,-0.74155 1.24131,-1.0183 0.94658,-0.28996 -0.0916,0.22628 -0.24841,0.61482 -0.34854,0.86341 -0.14656,0.36389 -0.053,0.42423 0.48,0.30956 0.36413,-0.0783 0.87806,-0.23322 1.14206,-0.34419 0.78799,-0.33122 0.57687,0.5476 -0.21862,0.91005 -1.01838,0.464 -1.7118,0.39091 -2.03585,-0.21459 z m 111.45152,-5.28735 c -0.0852,-0.13779 -0.0994,-0.30596 -0.0317,-0.3737 0.11043,-0.11043 2.57847,-0.46198 5.95021,-0.84757 1.04413,-0.1194 1.44453,-0.3704 2.79886,-1.75448 1.73894,-1.77715 2.33495,-1.78885 1.0541,-0.0207 -1.26511,1.74644 -2.53378,2.41966 -4.93426,2.61836 -1.13143,0.0937 -2.64782,0.27341 -3.36977,0.39945 -0.76935,0.13432 -1.37671,0.12548 -1.46746,-0.0214 z"
       id="path1" />
  </g>
</svg>
